<?xml version="1.0" standalone="yes"?>
<svg xmlns="http://www.w3.org/2000/svg" width="590" height="690">
<path style="fill:#000000; stroke:none;" d="M0 0L0 50L10 50L10 60L0 60L0 140L10 140L10 150L0 150L0 350L10 350L10 360L0 360L0 440L10 440L10 450L0 450L0 540L10 540L10 560L0 560L0 630L10 630L10 660L0 660L0 690L30 690L30 680L50 680L50 690L130 690L130 680L140 680L140 690L590 690L590 560L580 560L580 550L590 550L590 540L580 540L580 530L590 530L590 450L580 450L580 440L590 440L590 360L580 360L580 330L590 330L590 260L580 260L580 250L590 250L590 240L580 240L580 230L590 230L590 160L580 160L580 150L590 150L590 60L580 60L580 50L590 50L590 40L580 40L580 30L590 30L590 0L560 0L560 10L530 10L530 0L460 0L460 10L440 10L440 0L240 0L240 10L230 10L230 0L160 0L160 10L150 10L150 0L60 0L60 10L50 10L50 0L40 0L40 10L30 10L30 0L0 0z"/>
<path style="fill:#ffffff; stroke:none;" d="M30 0L30 10L40 10L40 0L30 0M50 0L50 10L60 10L60 0L50 0M150 0L150 10L160 10L160 0L150 0M230 0L230 10L240 10L240 0L230 0M440 0L440 10L460 10L460 0L440 0M530 0L530 10L560 10L560 0L530 0M20 20L20 70L70 70L70 20L20 20M120 20L120 70L170 70L170 20L120 20M220 20L220 70L270 70L270 20L220 20M320 20L320 70L370 70L370 20L320 20M420 20L420 70L470 70L470 20L420 20M520 20L520 70L570 70L570 20L520 20z"/>
<path style="fill:#000000; stroke:none;" d="M30 30L30 40L40 40L40 30L30 30z"/>
<path style="fill:#ffffff; stroke:none;" d="M100 30L100 40L110 40L110 30L100 30z"/>
<path style="fill:#000000; stroke:none;" d="M130 30L130 60L160 60L160 50L150 50L150 30L130 30z"/>
<path style="fill:#ffffff; stroke:none;" d="M200 30L200 40L210 40L210 30L200 30z"/>
<path style="fill:#000000; stroke:none;" d="M250 30L250 50L260 50L260 30L250 30z"/>
<path style="fill:#ffffff; stroke:none;" d="M280 30L280 40L290 40L290 30L280 30M300 30L300 60L310 60L310 30L300 30z"/>
<path style="fill:#000000; stroke:none;" d="M330 30L330 50L340 50L340 60L360 60L360 40L350 40L350 30L330 30z"/>
<path style="fill:#ffffff; stroke:none;" d="M380 30L380 40L390 40L390 30L380 30M400 30L400 40L410 40L410 30L400 30z"/>
<path style="fill:#000000; stroke:none;" d="M430 30L430 40L440 40L440 30L430 30M450 30L450 50L430 50L430 60L450 60L450 50L460 50L460 30L450 30z"/>
<path style="fill:#ffffff; stroke:none;" d="M480 30L480 40L490 40L490 30L480 30z"/>
<path style="fill:#000000; stroke:none;" d="M530 30L530 60L540 60L540 50L550 50L550 60L560 60L560 50L550 50L550 40L560 40L560 30L530 30z"/>
<path style="fill:#ffffff; stroke:none;" d="M580 30L580 40L590 40L590 30L580 30M80 40L80 60L90 60L90 40L80 40M180 40L180 60L190 60L190 40L180 40z"/>
<path style="fill:#000000; stroke:none;" d="M230 40L230 50L240 50L240 40L230 40z"/>
<path style="fill:#ffffff; stroke:none;" d="M500 40L500 50L510 50L510 40L500 40M0 50L0 60L10 60L10 50L0 50z"/>
<path style="fill:#000000; stroke:none;" d="M30 50L30 60L40 60L40 50L30 50M50 50L50 60L60 60L60 50L50 50z"/>
<path style="fill:#ffffff; stroke:none;" d="M100 50L100 60L110 60L110 50L100 50M200 50L200 60L210 60L210 50L200 50M480 50L480 60L490 60L490 50L480 50M580 50L580 60L590 60L590 50L580 50M140 80L140 90L160 90L160 80L140 80M230 80L230 90L250 90L250 80L230 80M330 80L330 90L340 90L340 80L330 80M350 80L350 90L360 90L360 80L350 80M440 80L440 90L460 90L460 80L440 80M550 80L550 90L560 90L560 80L550 80M40 100L40 110L50 110L50 100L40 100M130 100L130 110L140 110L140 100L130 100M150 100L150 110L160 110L160 100L150 100M250 100L250 110L260 110L260 100L250 100M330 100L330 110L360 110L360 100L330 100M440 100L440 110L460 110L460 100L440 100M550 100L550 110L560 110L560 100L550 100M20 120L20 170L70 170L70 120L20 120M120 120L120 170L170 170L170 120L120 120M220 120L220 170L270 170L270 120L220 120M320 120L320 170L370 170L370 120L320 120M420 120L420 170L470 170L470 120L420 120M520 120L520 170L570 170L570 120L520 120M80 130L80 140L90 140L90 130L80 130M100 130L100 140L110 140L110 130L100 130z"/>
<path style="fill:#000000; stroke:none;" d="M140 130L140 150L150 150L150 140L160 140L160 130L140 130z"/>
<path style="fill:#ffffff; stroke:none;" d="M180 130L180 150L190 150L190 130L180 130z"/>
<path style="fill:#000000; stroke:none;" d="M230 130L230 140L240 140L240 130L230 130z"/>
<path style="fill:#ffffff; stroke:none;" d="M280 130L280 150L290 150L290 130L280 130M380 130L380 160L390 160L390 130L380 130z"/>
<path style="fill:#000000; stroke:none;" d="M440 130L440 160L460 160L460 150L450 150L450 130L440 130z"/>
<path style="fill:#ffffff; stroke:none;" d="M480 130L480 160L490 160L490 130L480 130M500 130L500 160L510 160L510 130L500 130z"/>
<path style="fill:#000000; stroke:none;" d="M550 130L550 140L540 140L540 160L560 160L560 150L550 150L550 140L560 140L560 130L550 130z"/>
<path style="fill:#ffffff; stroke:none;" d="M0 140L0 150L10 150L10 140L0 140z"/>
<path style="fill:#000000; stroke:none;" d="M30 140L30 150L40 150L40 160L60 160L60 140L50 140L50 150L40 150L40 140L30 140z"/>
<path style="fill:#ffffff; stroke:none;" d="M200 140L200 160L210 160L210 140L200 140z"/>
<path style="fill:#000000; stroke:none;" d="M250 140L250 150L230 150L230 160L250 160L250 150L260 150L260 140L250 140z"/>
<path style="fill:#ffffff; stroke:none;" d="M300 140L300 150L310 150L310 140L300 140z"/>
<path style="fill:#000000; stroke:none;" d="M330 140L330 160L340 160L340 140L330 140M350 140L350 160L360 160L360 140L350 140z"/>
<path style="fill:#ffffff; stroke:none;" d="M400 140L400 150L410 150L410 140L400 140M80 150L80 160L90 160L90 150L80 150M100 150L100 160L110 160L110 150L100 150M580 150L580 160L590 160L590 150L580 150M40 180L40 190L50 190L50 180L40 180M140 180L140 190L160 190L160 180L140 180M250 180L250 190L260 190L260 180L250 180M330 180L330 190L360 190L360 180L330 180M430 180L430 190L440 190L440 180L430 180M450 180L450 190L460 190L460 180L450 180M530 180L530 190L550 190L550 180L530 180M30 200L30 210L40 210L40 200L30 200M50 200L50 210L60 210L60 200L50 200M130 200L130 210L140 210L140 200L130 200M230 200L230 210L250 210L250 200L230 200M340 200L340 210L360 210L360 200L340 200M450 200L450 210L460 210L460 200L450 200M530 200L530 210L560 210L560 200L530 200M20 220L20 270L70 270L70 220L20 220M120 220L120 270L170 270L170 220L120 220M220 220L220 270L270 270L270 220L220 220M320 220L320 270L370 270L370 220L320 220M420 220L420 270L470 270L470 220L420 220M520 220L520 270L570 270L570 220L520 220z"/>
<path style="fill:#000000; stroke:none;" d="M40 230L40 240L50 240L50 250L30 250L30 260L60 260L60 240L50 240L50 230L40 230M130 230L130 240L140 240L140 250L150 250L150 260L160 260L160 250L150 250L150 240L160 240L160 230L130 230z"/>
<path style="fill:#ffffff; stroke:none;" d="M200 230L200 260L210 260L210 230L200 230z"/>
<path style="fill:#000000; stroke:none;" d="M230 230L230 260L250 260L250 250L260 250L260 240L250 240L250 250L240 250L240 230L230 230z"/>
<path style="fill:#ffffff; stroke:none;" d="M280 230L280 240L290 240L290 230L280 230z"/>
<path style="fill:#000000; stroke:none;" d="M330 230L330 250L340 250L340 260L360 260L360 230L330 230M440 230L440 250L430 250L430 260L440 260L440 250L460 250L460 230L440 230M550 230L550 240L560 240L560 230L550 230z"/>
<path style="fill:#ffffff; stroke:none;" d="M580 230L580 240L590 240L590 230L580 230M100 240L100 250L110 250L110 240L100 240M180 240L180 260L190 260L190 240L180 240M300 240L300 260L310 260L310 240L300 240M400 240L400 250L410 250L410 240L400 240z"/>
<path style="fill:#000000; stroke:none;" d="M530 240L530 250L540 250L540 260L550 260L550 250L540 250L540 240L530 240z"/>
<path style="fill:#ffffff; stroke:none;" d="M80 250L80 260L90 260L90 250L80 250M480 250L480 260L490 260L490 250L480 250M580 250L580 260L590 260L590 250L580 250M30 280L30 290L40 290L40 280L30 280M140 280L140 290L160 290L160 280L140 280M240 280L240 290L260 290L260 280L240 280M340 280L340 290L350 290L350 280L340 280M450 280L450 290L460 290L460 280L450 280M530 280L530 290L540 290L540 280L530 280M150 300L150 310L160 310L160 300L150 300M230 300L230 310L250 310L250 300L230 300M350 300L350 310L360 310L360 300L350 300M530 300L530 310L540 310L540 300L530 300M20 320L20 370L70 370L70 320L20 320M120 320L120 370L170 370L170 320L120 320M220 320L220 370L270 370L270 320L220 320M320 320L320 370L370 370L370 320L320 320M420 320L420 370L470 370L470 320L420 320M520 320L520 370L570 370L570 320L520 320z"/>
<path style="fill:#000000; stroke:none;" d="M50 330L50 350L40 350L40 340L30 340L30 350L40 350L40 360L50 360L50 350L60 350L60 330L50 330z"/>
<path style="fill:#ffffff; stroke:none;" d="M100 330L100 360L110 360L110 330L100 330z"/>
<path style="fill:#000000; stroke:none;" d="M150 330L150 350L160 350L160 330L150 330z"/>
<path style="fill:#ffffff; stroke:none;" d="M200 330L200 340L210 340L210 330L200 330z"/>
<path style="fill:#000000; stroke:none;" d="M230 330L230 340L240 340L240 330L230 330M250 330L250 340L260 340L260 330L250 330z"/>
<path style="fill:#ffffff; stroke:none;" d="M280 330L280 360L290 360L290 330L280 330z"/>
<path style="fill:#000000; stroke:none;" d="M330 330L330 350L340 350L340 340L350 340L350 360L360 360L360 340L350 340L350 330L330 330M430 330L430 350L460 350L460 330L450 330L450 340L440 340L440 330L430 330z"/>
<path style="fill:#ffffff; stroke:none;" d="M480 330L480 340L490 340L490 330L480 330M500 330L500 350L510 350L510 330L500 330z"/>
<path style="fill:#000000; stroke:none;" d="M530 330L530 360L540 360L540 350L550 350L550 330L530 330z"/>
<path style="fill:#ffffff; stroke:none;" d="M580 330L580 360L590 360L590 330L580 330M80 340L80 350L90 350L90 340L80 340M180 340L180 360L190 360L190 340L180 340M300 340L300 350L310 350L310 340L300 340M400 340L400 360L410 360L410 340L400 340M0 350L0 360L10 360L10 350L0 350z"/>
<path style="fill:#000000; stroke:none;" d="M130 350L130 360L140 360L140 350L130 350z"/>
<path style="fill:#ffffff; stroke:none;" d="M200 350L200 360L210 360L210 350L200 350z"/>
<path style="fill:#000000; stroke:none;" d="M230 350L230 360L260 360L260 350L230 350z"/>
<path style="fill:#ffffff; stroke:none;" d="M380 350L380 360L390 360L390 350L380 350M480 350L480 360L490 360L490 350L480 350M50 380L50 390L60 390L60 380L50 380M140 380L140 390L150 390L150 380L140 380M230 380L230 390L240 390L240 380L230 380M330 380L330 390L360 390L360 380L330 380M450 380L450 390L460 390L460 380L450 380M540 380L540 390L550 390L550 380L540 380M130 400L130 410L140 410L140 400L130 400M150 400L150 410L160 410L160 400L150 400M240 400L240 410L260 410L260 400L240 400M340 400L340 410L360 410L360 400L340 400M440 400L440 410L460 410L460 400L440 400M20 420L20 470L70 470L70 420L20 420M120 420L120 470L170 470L170 420L120 420M220 420L220 470L270 470L270 420L220 420M320 420L320 470L370 470L370 420L320 420M420 420L420 470L470 470L470 420L420 420M520 420L520 470L570 470L570 420L520 420z"/>
<path style="fill:#000000; stroke:none;" d="M30 430L30 440L40 440L40 450L30 450L30 460L40 460L40 450L50 450L50 460L60 460L60 450L50 450L50 430L30 430z"/>
<path style="fill:#ffffff; stroke:none;" d="M100 430L100 450L110 450L110 430L100 430z"/>
<path style="fill:#000000; stroke:none;" d="M150 430L150 450L140 450L140 460L150 460L150 450L160 450L160 430L150 430z"/>
<path style="fill:#ffffff; stroke:none;" d="M180 430L180 460L190 460L190 430L180 430z"/>
<path style="fill:#000000; stroke:none;" d="M240 430L240 440L230 440L230 460L240 460L240 450L250 450L250 460L260 460L260 450L250 450L250 440L260 440L260 430L240 430z"/>
<path style="fill:#ffffff; stroke:none;" d="M300 430L300 460L310 460L310 430L300 430z"/>
<path style="fill:#000000; stroke:none;" d="M340 430L340 450L330 450L330 460L340 460L340 450L350 450L350 460L360 460L360 440L350 440L350 430L340 430z"/>
<path style="fill:#ffffff; stroke:none;" d="M380 430L380 450L390 450L390 430L380 430z"/>
<path style="fill:#000000; stroke:none;" d="M430 430L430 460L460 460L460 450L440 450L440 440L450 440L450 430L430 430z"/>
<path style="fill:#ffffff; stroke:none;" d="M480 430L480 440L490 440L490 430L480 430z"/>
<path style="fill:#000000; stroke:none;" d="M530 430L530 440L540 440L540 450L530 450L530 460L540 460L540 450L550 450L550 440L560 440L560 430L550 430L550 440L540 440L540 430L530 430z"/>
<path style="fill:#ffffff; stroke:none;" d="M0 440L0 450L10 450L10 440L0 440M200 440L200 460L210 460L210 440L200 440M280 440L280 460L290 460L290 440L280 440M400 440L400 460L410 460L410 440L400 440M500 440L500 460L510 460L510 440L500 440M580 440L580 450L590 450L590 440L580 440M30 480L30 490L50 490L50 480L30 480M130 480L130 490L140 490L140 480L130 480M150 480L150 490L160 490L160 480L150 480M230 480L230 490L260 490L260 480L230 480M350 480L350 490L360 490L360 480L350 480M430 480L430 490L440 490L440 480L430 480M530 480L530 490L540 490L540 480L530 480M550 480L550 490L560 490L560 480L550 480M40 500L40 510L50 510L50 500L40 500M140 500L140 510L160 510L160 500L140 500M230 500L230 510L240 510L240 500L230 500M330 500L330 510L340 510L340 500L330 500M350 500L350 510L360 510L360 500L350 500M440 500L440 510L450 510L450 500L440 500M540 500L540 510L550 510L550 500L540 500M20 520L20 570L70 570L70 520L20 520M120 520L120 570L170 570L170 520L120 520M220 520L220 570L270 570L270 520L220 520M320 520L320 570L370 570L370 520L320 520M420 520L420 570L470 570L470 520L420 520M520 520L520 570L570 570L570 520L520 520z"/>
<path style="fill:#000000; stroke:none;" d="M40 530L40 540L30 540L30 560L40 560L40 540L50 540L50 550L60 550L60 530L40 530M140 530L140 540L130 540L130 560L140 560L140 540L150 540L150 560L160 560L160 540L150 540L150 530L140 530M240 530L240 540L260 540L260 530L240 530z"/>
<path style="fill:#ffffff; stroke:none;" d="M280 530L280 560L290 560L290 530L280 530M300 530L300 540L310 540L310 530L300 530z"/>
<path style="fill:#000000; stroke:none;" d="M340 530L340 550L350 550L350 560L360 560L360 540L350 540L350 530L340 530M440 530L440 540L430 540L430 550L440 550L440 560L450 560L450 550L460 550L460 540L450 540L450 530L440 530z"/>
<path style="fill:#ffffff; stroke:none;" d="M480 530L480 560L490 560L490 530L480 530M500 530L500 540L510 540L510 530L500 530z"/>
<path style="fill:#000000; stroke:none;" d="M530 530L530 550L540 550L540 560L550 560L550 540L560 540L560 530L530 530z"/>
<path style="fill:#ffffff; stroke:none;" d="M580 530L580 540L590 540L590 530L580 530M0 540L0 560L10 560L10 540L0 540M180 540L180 550L190 550L190 540L180 540M380 540L380 560L390 560L390 540L380 540M440 540L440 550L450 550L450 540L440 540z"/>
<path style="fill:#000000; stroke:none;" d="M230 550L230 560L260 560L260 550L230 550z"/>
<path style="fill:#ffffff; stroke:none;" d="M400 550L400 560L410 560L410 550L400 550M500 550L500 560L510 560L510 550L500 550M580 550L580 560L590 560L590 550L580 550M40 580L40 590L60 590L60 580L40 580M250 580L250 590L260 590L260 580L250 580M340 580L340 590L350 590L350 580L340 580M430 580L430 590L440 590L440 580L430 580M130 600L130 610L160 610L160 600L130 600M20 620L20 670L70 670L70 620L20 620M120 620L120 670L170 670L170 620L120 620M0 630L0 660L10 660L10 630L0 630z"/>
<path style="fill:#000000; stroke:none;" d="M30 630L30 660L60 660L60 650L40 650L40 630L30 630M140 630L140 640L150 640L150 650L160 650L160 630L140 630z"/>
<path style="fill:#ffffff; stroke:none;" d="M180 630L180 650L190 650L190 630L180 630M80 640L80 650L90 650L90 640L80 640M100 650L100 660L110 660L110 650L100 650z"/>
<path style="fill:#000000; stroke:none;" d="M130 650L130 660L140 660L140 650L130 650z"/>
<path style="fill:#ffffff; stroke:none;" d="M30 680L30 690L50 690L50 680L30 680M130 680L130 690L140 690L140 680L130 680z"/>
</svg>
