<?xml version="1.0" standalone="yes"?>
<svg width="360" height="360">
<path style="fill:#ffffff; stroke:none;" d="M0 0L0 120L40 120L40 40L120 40L120 0L0 0z"/>
<path style="fill:#000000; stroke:none;" d="M120 0L120 40L40 40L40 120L0 120L0 160L40 160L40 320L120 320L120 360L160 360L160 320L200 320L200 360L240 360L240 320L320 320L320 240L360 240L360 120L320 120L320 40L160 40L160 0L120 0z"/>
<path style="fill:#ffffff; stroke:none;" d="M160 0L160 40L320 40L320 120L360 120L360 0L160 0M80 80L80 280L280 280L280 80L80 80z"/>
<path style="fill:#000000; stroke:none;" d="M120 120L120 200L160 200L160 240L240 240L240 120L120 120z"/>
<path style="fill:#ffffff; stroke:none;" d="M0 160L0 360L120 360L120 320L40 320L40 160L0 160M320 240L320 320L240 320L240 360L360 360L360 240L320 240M160 320L160 360L200 360L200 320L160 320z"/>
</svg>
