<?xml version="1.0" standalone="yes"?>
<svg width="360" height="360">
<path style="fill:#ffffff; stroke:none;" d="M0 0L0 160L40 160L40 40L120 40L120 0L0 0z"/>
<path style="fill:#000000; stroke:none;" d="M120 0L120 40L40 40L40 160L0 160L0 200L40 200L40 320L120 320L120 360L160 360L160 320L320 320L320 160L360 160L360 120L320 120L320 40L200 40L200 0L120 0z"/>
<path style="fill:#ffffff; stroke:none;" d="M200 0L200 40L320 40L320 120L360 120L360 0L200 0M80 80L80 280L280 280L280 80L80 80z"/>
<path style="fill:#000000; stroke:none;" d="M120 120L120 240L240 240L240 200L200 200L200 120L120 120z"/>
<path style="fill:#ffffff; stroke:none;" d="M320 160L320 320L160 320L160 360L360 360L360 160L320 160M0 200L0 360L120 360L120 320L40 320L40 200L0 200z"/>
</svg>
