<?xml version="1.0" standalone="yes"?>
<svg width="360" height="360">
<path style="fill:#ffffff; stroke:none;" d="M0 0L0 160L40 160L40 40L160 40L160 0L0 0z"/>
<path style="fill:#000000; stroke:none;" d="M160 0L160 40L40 40L40 160L0 160L0 200L40 200L40 320L200 320L200 360L240 360L240 320L320 320L320 240L360 240L360 160L320 160L320 40L240 40L240 0L160 0z"/>
<path style="fill:#ffffff; stroke:none;" d="M240 0L240 40L320 40L320 160L360 160L360 0L240 0M80 80L80 280L280 280L280 80L80 80z"/>
<path style="fill:#000000; stroke:none;" d="M200 120L200 200L240 200L240 120L200 120M120 160L120 200L160 200L160 160L120 160z"/>
<path style="fill:#ffffff; stroke:none;" d="M0 200L0 360L200 360L200 320L40 320L40 200L0 200M320 240L320 320L240 320L240 360L360 360L360 240L320 240z"/>
</svg>
