<?xml version="1.0" standalone="yes"?>
<svg width="360" height="360">
<path style="fill:#ffffff; stroke:none;" d="M0 0L0 120L40 120L40 40L160 40L160 0L0 0z"/>
<path style="fill:#000000; stroke:none;" d="M160 0L160 40L40 40L40 120L0 120L0 200L40 200L40 320L120 320L120 360L240 360L240 320L320 320L320 160L360 160L360 120L320 120L320 40L200 40L200 0L160 0z"/>
<path style="fill:#ffffff; stroke:none;" d="M200 0L200 40L320 40L320 120L360 120L360 0L200 0M80 80L80 280L280 280L280 80L80 80z"/>
<path style="fill:#000000; stroke:none;" d="M120 120L120 160L160 160L160 120L120 120z"/>
<path style="fill:#ffffff; stroke:none;" d="M320 160L320 320L240 320L240 360L360 360L360 160L320 160M0 200L0 360L120 360L120 320L40 320L40 200L0 200z"/>
<path style="fill:#000000; stroke:none;" d="M120 200L120 240L160 240L160 200L120 200M200 200L200 240L240 240L240 200L200 200z"/>
</svg>
