<?xml version="1.0" standalone="yes"?>
<svg xmlns="http://www.w3.org/2000/svg" width="90" height="90">
<path style="fill:#000000; stroke:none;" d="M0 0L0 30L10 30L10 60L0 60L0 90L40 90L40 80L60 80L60 90L90 90L90 40L80 40L80 30L90 30L90 0L50 0L50 10L30 10L30 0L0 0z"/>
<path style="fill:#ffffff; stroke:none;" d="M30 0L30 10L50 10L50 0L30 0M20 20L20 70L70 70L70 20L20 20M0 30L0 60L10 60L10 30L0 30z"/>
<path style="fill:#000000; stroke:none;" d="M30 30L30 60L50 60L50 50L60 50L60 40L50 40L50 50L40 50L40 30L30 30z"/>
<path style="fill:#ffffff; stroke:none;" d="M80 30L80 40L90 40L90 30L80 30M40 80L40 90L60 90L60 80L40 80z"/>
</svg>
