<?xml version="1.0" standalone="yes"?>
<svg xmlns="http://www.w3.org/2000/svg" width="90" height="90">
<path style="fill:#000000; stroke:none;" d="M0 0L0 30L10 30L10 40L0 40L0 90L40 90L40 80L60 80L60 90L90 90L90 60L80 60L80 50L90 50L90 40L80 40L80 30L90 30L90 0L60 0L60 10L40 10L40 0L0 0z"/>
<path style="fill:#ffffff; stroke:none;" d="M40 0L40 10L60 10L60 0L40 0M20 20L20 70L70 70L70 20L20 20M0 30L0 40L10 40L10 30L0 30z"/>
<path style="fill:#000000; stroke:none;" d="M30 30L30 40L40 40L40 30L30 30M50 30L50 50L30 50L30 60L50 60L50 50L60 50L60 30L50 30z"/>
<path style="fill:#ffffff; stroke:none;" d="M80 30L80 40L90 40L90 30L80 30M80 50L80 60L90 60L90 50L80 50M40 80L40 90L60 90L60 80L40 80z"/>
</svg>
