<?xml version="1.0" standalone="yes"?>
<svg width="360" height="360">
<path style="fill:#ffffff; stroke:none;" d="M0 0L0 160L40 160L40 40L160 40L160 0L0 0z"/>
<path style="fill:#000000; stroke:none;" d="M160 0L160 40L40 40L40 160L0 160L0 200L40 200L40 320L120 320L120 360L160 360L160 320L320 320L320 240L360 240L360 200L320 200L320 40L200 40L200 0L160 0z"/>
<path style="fill:#ffffff; stroke:none;" d="M200 0L200 40L320 40L320 200L360 200L360 0L200 0M80 80L80 280L280 280L280 80L80 80z"/>
<path style="fill:#000000; stroke:none;" d="M160 120L160 200L200 200L200 160L240 160L240 120L160 120z"/>
<path style="fill:#ffffff; stroke:none;" d="M0 200L0 360L120 360L120 320L40 320L40 200L0 200M320 240L320 320L160 320L160 360L360 360L360 240L320 240z"/>
</svg>
