<?xml version="1.0" standalone="yes"?>
<svg xmlns="http://www.w3.org/2000/svg" width="90" height="90">
<path style="fill:#000000; stroke:none;" d="M0 0L0 40L10 40L10 50L0 50L0 90L30 90L30 80L50 80L50 90L90 90L90 0L0 0z"/>
<path style="fill:#ffffff; stroke:none;" d="M20 20L20 70L70 70L70 20L20 20z"/>
<path style="fill:#000000; stroke:none;" d="M30 30L30 40L40 40L40 50L30 50L30 60L40 60L40 50L50 50L50 60L60 60L60 50L50 50L50 30L30 30z"/>
<path style="fill:#ffffff; stroke:none;" d="M0 40L0 50L10 50L10 40L0 40M30 80L30 90L50 90L50 80L30 80z"/>
</svg>
