<?xml version="1.0" standalone="yes"?>
<svg xmlns="http://www.w3.org/2000/svg" width="90" height="90">
<path style="fill:#000000; stroke:none;" d="M0 0L0 40L10 40L10 50L0 50L0 90L30 90L30 80L60 80L60 90L90 90L90 60L80 60L80 30L90 30L90 0L60 0L60 10L30 10L30 0L0 0z"/>
<path style="fill:#ffffff; stroke:none;" d="M30 0L30 10L60 10L60 0L30 0M20 20L20 70L70 70L70 20L20 20M80 30L80 60L90 60L90 30L80 30M0 40L0 50L10 50L10 40L0 40z"/>
<path style="fill:#000000; stroke:none;" d="M30 40L30 60L40 60L40 40L30 40M50 40L50 60L60 60L60 40L50 40z"/>
<path style="fill:#ffffff; stroke:none;" d="M30 80L30 90L60 90L60 80L30 80z"/>
</svg>
