<?xml version="1.0" standalone="yes"?>
<svg width="360" height="360">
<path style="fill:#ffffff; stroke:none;" d="M0 0L0 120L40 120L40 40L160 40L160 0L0 0z"/>
<path style="fill:#000000; stroke:none;" d="M160 0L160 40L40 40L40 120L0 120L0 240L40 240L40 320L160 320L160 360L240 360L240 320L320 320L320 200L360 200L360 120L320 120L320 40L200 40L200 0L160 0z"/>
<path style="fill:#ffffff; stroke:none;" d="M200 0L200 40L320 40L320 120L360 120L360 0L200 0M80 80L80 280L280 280L280 80L80 80z"/>
<path style="fill:#000000; stroke:none;" d="M160 120L160 160L200 160L200 200L120 200L120 240L240 240L240 160L200 160L200 120L160 120z"/>
<path style="fill:#ffffff; stroke:none;" d="M320 200L320 320L240 320L240 360L360 360L360 200L320 200M0 240L0 360L160 360L160 320L40 320L40 240L0 240z"/>
</svg>
