<?xml version="1.0" standalone="yes"?>
<svg width="360" height="360">
<path style="fill:#ffffff; stroke:none;" d="M0 0L0 160L40 160L40 40L120 40L120 0L0 0z"/>
<path style="fill:#000000; stroke:none;" d="M120 0L120 40L40 40L40 160L0 160L0 240L40 240L40 320L120 320L120 360L160 360L160 320L320 320L320 200L360 200L360 160L320 160L320 40L160 40L160 0L120 0z"/>
<path style="fill:#ffffff; stroke:none;" d="M160 0L160 40L320 40L320 160L360 160L360 0L160 0M80 80L80 280L280 280L280 80L80 80z"/>
<path style="fill:#000000; stroke:none;" d="M120 120L120 160L160 160L160 120L120 120M200 120L200 200L120 200L120 240L200 240L200 200L240 200L240 120L200 120z"/>
<path style="fill:#ffffff; stroke:none;" d="M320 200L320 320L160 320L160 360L360 360L360 200L320 200M0 240L0 360L120 360L120 320L40 320L40 240L0 240z"/>
</svg>
