<?xml version="1.0" standalone="yes"?>
<svg width="360" height="360">
<path style="fill:#ffffff; stroke:none;" d="M0 0L0 120L40 120L40 40L120 40L120 0L0 0z"/>
<path style="fill:#000000; stroke:none;" d="M120 0L120 40L40 40L40 120L0 120L0 160L40 160L40 200L0 200L0 240L40 240L40 320L120 320L120 360L160 360L160 320L200 320L200 360L240 360L240 320L320 320L320 200L360 200L360 160L320 160L320 40L240 40L240 0L200 0L200 40L160 40L160 0L120 0z"/>
<path style="fill:#ffffff; stroke:none;" d="M160 0L160 40L200 40L200 0L160 0M240 0L240 40L320 40L320 160L360 160L360 0L240 0M80 80L80 280L280 280L280 80L80 80M0 160L0 200L40 200L40 160L0 160z"/>
<path style="fill:#000000; stroke:none;" d="M120 160L120 200L160 200L160 240L240 240L240 160L200 160L200 200L160 200L160 160L120 160z"/>
<path style="fill:#ffffff; stroke:none;" d="M320 200L320 320L240 320L240 360L360 360L360 200L320 200M0 240L0 360L120 360L120 320L40 320L40 240L0 240M160 320L160 360L200 360L200 320L160 320z"/>
</svg>
