<?xml version="1.0" standalone="yes"?>
<svg width="360" height="360">
<path style="fill:#ffffff; stroke:none;" d="M0 0L0 120L40 120L40 40L320 40L320 160L360 160L360 0L0 0z"/>
<path style="fill:#000000; stroke:none;" d="M40 40L40 120L0 120L0 160L40 160L40 200L0 200L0 240L40 240L40 320L120 320L120 360L200 360L200 320L320 320L320 200L360 200L360 160L320 160L320 40L40 40z"/>
<path style="fill:#ffffff; stroke:none;" d="M80 80L80 280L280 280L280 80L80 80z"/>
<path style="fill:#000000; stroke:none;" d="M120 120L120 240L160 240L160 200L200 200L200 240L240 240L240 200L200 200L200 160L240 160L240 120L120 120z"/>
<path style="fill:#ffffff; stroke:none;" d="M0 160L0 200L40 200L40 160L0 160M320 200L320 320L200 320L200 360L360 360L360 200L320 200M0 240L0 360L120 360L120 320L40 320L40 240L0 240z"/>
</svg>
