<?xml version="1.0" standalone="yes"?>
<svg xmlns="http://www.w3.org/2000/svg" width="90" height="90">
<path style="fill:#000000; stroke:none;" d="M0 0L0 40L10 40L10 60L0 60L0 90L30 90L30 80L40 80L40 90L50 90L50 80L60 80L60 90L90 90L90 50L80 50L80 40L90 40L90 0L0 0z"/>
<path style="fill:#ffffff; stroke:none;" d="M20 20L20 70L70 70L70 20L20 20z"/>
<path style="fill:#000000; stroke:none;" d="M30 30L30 40L40 40L40 50L30 50L30 60L40 60L40 50L50 50L50 40L60 40L60 30L50 30L50 40L40 40L40 30L30 30z"/>
<path style="fill:#ffffff; stroke:none;" d="M0 40L0 60L10 60L10 40L0 40M80 40L80 50L90 50L90 40L80 40M30 80L30 90L40 90L40 80L30 80M50 80L50 90L60 90L60 80L50 80z"/>
</svg>
