<?xml version="1.0" standalone="yes"?>
<svg width="360" height="360">
<path style="fill:#ffffff; stroke:none;" d="M0 0L0 360L200 360L200 320L40 320L40 40L120 40L120 0L0 0z"/>
<path style="fill:#000000; stroke:none;" d="M120 0L120 40L40 40L40 320L200 320L200 360L240 360L240 320L320 320L320 200L360 200L360 120L320 120L320 40L200 40L200 0L120 0z"/>
<path style="fill:#ffffff; stroke:none;" d="M200 0L200 40L320 40L320 120L360 120L360 0L200 0M80 80L80 280L280 280L280 80L80 80z"/>
<path style="fill:#000000; stroke:none;" d="M200 120L200 160L160 160L160 240L240 240L240 200L200 200L200 160L240 160L240 120L200 120z"/>
<path style="fill:#ffffff; stroke:none;" d="M320 200L320 320L240 320L240 360L360 360L360 200L320 200z"/>
</svg>
