<?xml version="1.0" standalone="yes"?>
<svg xmlns="http://www.w3.org/2000/svg" width="90" height="90">
<path style="fill:#ffffff; stroke:none;" d="M0 0L0 10L50 10L50 0L0 0z"/>
<path style="fill:#000000; stroke:none;" d="M50 0L50 10L0 10L0 20L10 20L10 50L0 50L0 80L10 80L10 90L40 90L40 80L50 80L50 90L60 90L60 80L80 80L80 90L90 90L90 80L80 80L80 70L90 70L90 10L70 10L70 0L50 0z"/>
<path style="fill:#ffffff; stroke:none;" d="M70 0L70 10L90 10L90 0L70 0M0 20L0 50L10 50L10 20L0 20M20 20L20 70L70 70L70 20L20 20z"/>
<path style="fill:#000000; stroke:none;" d="M30 40L30 60L60 60L60 40L50 40L50 50L40 50L40 40L30 40z"/>
<path style="fill:#ffffff; stroke:none;" d="M80 70L80 80L90 80L90 70L80 70M0 80L0 90L10 90L10 80L0 80M40 80L40 90L50 90L50 80L40 80M60 80L60 90L80 90L80 80L60 80z"/>
</svg>
