<?xml version="1.0" standalone="yes"?>
<svg xmlns="http://www.w3.org/2000/svg" width="90" height="90">
<path style="fill:#ffffff; stroke:none;" d="M0 0L0 20L10 20L10 10L40 10L40 0L0 0z"/>
<path style="fill:#000000; stroke:none;" d="M40 0L40 10L10 10L10 20L0 20L0 30L10 30L10 50L0 50L0 90L30 90L30 80L40 80L40 90L80 90L80 50L90 50L90 40L80 40L80 30L90 30L90 0L70 0L70 10L50 10L50 0L40 0z"/>
<path style="fill:#ffffff; stroke:none;" d="M50 0L50 10L70 10L70 0L50 0M20 20L20 70L70 70L70 20L20 20M0 30L0 50L10 50L10 30L0 30z"/>
<path style="fill:#000000; stroke:none;" d="M30 30L30 60L40 60L40 30L30 30M50 30L50 40L60 40L60 30L50 30z"/>
<path style="fill:#ffffff; stroke:none;" d="M80 30L80 40L90 40L90 30L80 30z"/>
<path style="fill:#000000; stroke:none;" d="M50 50L50 60L60 60L60 50L50 50z"/>
<path style="fill:#ffffff; stroke:none;" d="M80 50L80 90L90 90L90 50L80 50M30 80L30 90L40 90L40 80L30 80z"/>
</svg>
