<?xml version="1.0" standalone="yes"?>
<svg xmlns="http://www.w3.org/2000/svg" width="90" height="90">
<path style="fill:#000000; stroke:none;" d="M0 0L0 10L10 10L10 20L0 20L0 30L10 30L10 60L0 60L0 70L10 70L10 90L40 90L40 80L60 80L60 90L70 90L70 80L90 80L90 60L80 60L80 40L90 40L90 10L70 10L70 0L60 0L60 10L50 10L50 0L0 0z"/>
<path style="fill:#ffffff; stroke:none;" d="M50 0L50 10L60 10L60 0L50 0M70 0L70 10L90 10L90 0L70 0M0 10L0 20L10 20L10 10L0 10M20 20L20 70L70 70L70 20L20 20M0 30L0 60L10 60L10 30L0 30z"/>
<path style="fill:#000000; stroke:none;" d="M30 40L30 60L60 60L60 40L30 40z"/>
<path style="fill:#ffffff; stroke:none;" d="M80 40L80 60L90 60L90 40L80 40M0 70L0 90L10 90L10 70L0 70M40 80L40 90L60 90L60 80L40 80M70 80L70 90L90 90L90 80L70 80z"/>
</svg>
