<?xml version="1.0" standalone="yes"?>
<svg xmlns="http://www.w3.org/2000/svg" width="90" height="90">
<path style="fill:#000000; stroke:none;" d="M0 0L0 10L10 10L10 20L0 20L0 40L10 40L10 50L0 50L0 90L10 90L10 80L20 80L20 90L30 90L30 80L50 80L50 90L70 90L70 80L80 80L80 90L90 90L90 70L80 70L80 50L90 50L90 40L80 40L80 20L90 20L90 0L70 0L70 10L60 10L60 0L50 0L50 10L10 10L10 0L0 0z"/>
<path style="fill:#ffffff; stroke:none;" d="M10 0L10 10L50 10L50 0L10 0M60 0L60 10L70 10L70 0L60 0M0 10L0 20L10 20L10 10L0 10M20 20L20 70L70 70L70 20L20 20M80 20L80 40L90 40L90 20L80 20z"/>
<path style="fill:#000000; stroke:none;" d="M30 30L30 50L50 50L50 30L30 30z"/>
<path style="fill:#ffffff; stroke:none;" d="M0 40L0 50L10 50L10 40L0 40M80 50L80 70L90 70L90 50L80 50M10 80L10 90L20 90L20 80L10 80M30 80L30 90L50 90L50 80L30 80M70 80L70 90L80 90L80 80L70 80z"/>
</svg>
