<?xml version="1.0" standalone="yes"?>
<svg xmlns="http://www.w3.org/2000/svg" width="90" height="90">
<path style="fill:#000000; stroke:none;" d="M0 0L0 10L10 10L10 50L0 50L0 60L10 60L10 80L0 80L0 90L10 90L10 80L20 80L20 90L30 90L30 80L50 80L50 90L80 90L80 70L90 70L90 60L80 60L80 50L90 50L90 40L80 40L80 30L90 30L90 0L70 0L70 10L50 10L50 0L40 0L40 10L20 10L20 0L0 0z"/>
<path style="fill:#ffffff; stroke:none;" d="M20 0L20 10L40 10L40 0L20 0M50 0L50 10L70 10L70 0L50 0M0 10L0 50L10 50L10 10L0 10M20 20L20 70L70 70L70 20L20 20z"/>
<path style="fill:#000000; stroke:none;" d="M40 30L40 40L50 40L50 30L40 30z"/>
<path style="fill:#ffffff; stroke:none;" d="M80 30L80 40L90 40L90 30L80 30z"/>
<path style="fill:#000000; stroke:none;" d="M40 50L40 60L50 60L50 50L40 50z"/>
<path style="fill:#ffffff; stroke:none;" d="M80 50L80 60L90 60L90 50L80 50M0 60L0 80L10 80L10 60L0 60M80 70L80 90L90 90L90 70L80 70M10 80L10 90L20 90L20 80L10 80M30 80L30 90L50 90L50 80L30 80z"/>
</svg>
