<?xml version="1.0" standalone="yes"?>
<svg xmlns="http://www.w3.org/2000/svg" width="90" height="90">
<path style="fill:#ffffff; stroke:none;" d="M0 0L0 50L10 50L10 0L0 0z"/>
<path style="fill:#000000; stroke:none;" d="M10 0L10 50L0 50L0 60L10 60L10 70L0 70L0 80L30 80L30 90L40 90L40 80L60 80L60 90L70 90L70 80L90 80L90 60L80 60L80 40L90 40L90 30L80 30L80 20L90 20L90 10L70 10L70 0L30 0L30 10L20 10L20 0L10 0z"/>
<path style="fill:#ffffff; stroke:none;" d="M20 0L20 10L30 10L30 0L20 0M70 0L70 10L90 10L90 0L70 0M20 20L20 70L70 70L70 20L20 20M80 20L80 30L90 30L90 20L80 20z"/>
<path style="fill:#000000; stroke:none;" d="M30 30L30 40L40 40L40 50L30 50L30 60L40 60L40 50L50 50L50 60L60 60L60 50L50 50L50 30L30 30z"/>
<path style="fill:#ffffff; stroke:none;" d="M80 40L80 60L90 60L90 40L80 40M0 60L0 70L10 70L10 60L0 60M0 80L0 90L30 90L30 80L0 80M40 80L40 90L60 90L60 80L40 80M70 80L70 90L90 90L90 80L70 80z"/>
</svg>
