<?xml version="1.0" standalone="yes"?>
<svg xmlns="http://www.w3.org/2000/svg" width="90" height="90">
<path style="fill:#000000; stroke:none;" d="M0 0L0 20L10 20L10 30L0 30L0 60L10 60L10 80L0 80L0 90L40 90L40 80L50 80L50 90L70 90L70 80L90 80L90 70L80 70L80 50L90 50L90 20L80 20L80 10L90 10L90 0L40 0L40 10L10 10L10 0L0 0z"/>
<path style="fill:#ffffff; stroke:none;" d="M10 0L10 10L40 10L40 0L10 0M80 10L80 20L90 20L90 10L80 10M0 20L0 30L10 30L10 20L0 20M20 20L20 70L70 70L70 20L20 20z"/>
<path style="fill:#000000; stroke:none;" d="M30 40L30 60L40 60L40 40L30 40M50 50L50 60L60 60L60 50L50 50z"/>
<path style="fill:#ffffff; stroke:none;" d="M80 50L80 70L90 70L90 50L80 50M0 60L0 80L10 80L10 60L0 60M40 80L40 90L50 90L50 80L40 80M70 80L70 90L90 90L90 80L70 80z"/>
</svg>
