<?xml version="1.0" standalone="yes"?>
<svg xmlns="http://www.w3.org/2000/svg" width="90" height="90">
<path style="fill:#000000; stroke:none;" d="M0 0L0 50L10 50L10 70L0 70L0 90L20 90L20 80L30 80L30 90L60 90L60 80L70 80L70 90L90 90L90 70L80 70L80 60L90 60L90 40L80 40L80 0L60 0L60 10L50 10L50 0L30 0L30 10L10 10L10 0L0 0z"/>
<path style="fill:#ffffff; stroke:none;" d="M10 0L10 10L30 10L30 0L10 0M50 0L50 10L60 10L60 0L50 0M80 0L80 40L90 40L90 0L80 0M20 20L20 70L70 70L70 20L20 20z"/>
<path style="fill:#000000; stroke:none;" d="M30 30L30 40L40 40L40 50L30 50L30 60L50 60L50 40L60 40L60 30L50 30L50 40L40 40L40 30L30 30z"/>
<path style="fill:#ffffff; stroke:none;" d="M0 50L0 70L10 70L10 50L0 50M80 60L80 70L90 70L90 60L80 60M20 80L20 90L30 90L30 80L20 80M60 80L60 90L70 90L70 80L60 80z"/>
</svg>
