<?xml version="1.0" standalone="yes"?>
<svg xmlns="http://www.w3.org/2000/svg" width="90" height="90">
<path style="fill:#ffffff; stroke:none;" d="M0 0L0 20L10 20L10 0L0 0z"/>
<path style="fill:#000000; stroke:none;" d="M10 0L10 20L0 20L0 30L10 30L10 50L0 50L0 90L10 90L10 80L50 80L50 90L60 90L60 80L70 80L70 90L80 90L80 80L90 80L90 60L80 60L80 20L90 20L90 10L80 10L80 0L70 0L70 10L40 10L40 0L30 0L30 10L20 10L20 0L10 0z"/>
<path style="fill:#ffffff; stroke:none;" d="M20 0L20 10L30 10L30 0L20 0M40 0L40 10L70 10L70 0L40 0M80 0L80 10L90 10L90 0L80 0M20 20L20 70L70 70L70 20L20 20M80 20L80 60L90 60L90 20L80 20M0 30L0 50L10 50L10 30L0 30z"/>
<path style="fill:#000000; stroke:none;" d="M50 30L50 40L30 40L30 60L60 60L60 30L50 30z"/>
<path style="fill:#ffffff; stroke:none;" d="M10 80L10 90L50 90L50 80L10 80M60 80L60 90L70 90L70 80L60 80M80 80L80 90L90 90L90 80L80 80z"/>
</svg>
