<?xml version="1.0" standalone="yes"?>
<svg xmlns="http://www.w3.org/2000/svg" width="90" height="90">
<path style="fill:#000000; stroke:none;" d="M0 0L0 10L10 10L10 20L0 20L0 90L20 90L20 80L50 80L50 90L80 90L80 80L90 80L90 70L80 70L80 50L90 50L90 30L80 30L80 10L90 10L90 0L70 0L70 10L50 10L50 0L0 0z"/>
<path style="fill:#ffffff; stroke:none;" d="M50 0L50 10L70 10L70 0L50 0M0 10L0 20L10 20L10 10L0 10M80 10L80 30L90 30L90 10L80 10M20 20L20 70L70 70L70 20L20 20z"/>
<path style="fill:#000000; stroke:none;" d="M30 30L30 60L40 60L40 40L50 40L50 60L60 60L60 30L30 30z"/>
<path style="fill:#ffffff; stroke:none;" d="M80 50L80 70L90 70L90 50L80 50M20 80L20 90L50 90L50 80L20 80M80 80L80 90L90 90L90 80L80 80z"/>
</svg>
