<?xml version="1.0" standalone="yes"?>
<svg xmlns="http://www.w3.org/2000/svg" width="90" height="90">
<path style="fill:#000000; stroke:none;" d="M0 0L0 10L10 10L10 20L0 20L0 50L10 50L10 60L0 60L0 70L10 70L10 90L20 90L20 80L40 80L40 90L50 90L50 80L60 80L60 90L70 90L70 80L80 80L80 90L90 90L90 80L80 80L80 70L90 70L90 50L80 50L80 40L90 40L90 0L80 0L80 10L50 10L50 0L40 0L40 10L30 10L30 0L0 0z"/>
<path style="fill:#ffffff; stroke:none;" d="M30 0L30 10L40 10L40 0L30 0M50 0L50 10L80 10L80 0L50 0M0 10L0 20L10 20L10 10L0 10M20 20L20 70L70 70L70 20L20 20z"/>
<path style="fill:#000000; stroke:none;" d="M30 30L30 40L40 40L40 60L60 60L60 50L50 50L50 40L60 40L60 30L50 30L50 40L40 40L40 30L30 30z"/>
<path style="fill:#ffffff; stroke:none;" d="M80 40L80 50L90 50L90 40L80 40M0 50L0 60L10 60L10 50L0 50M0 70L0 90L10 90L10 70L0 70M80 70L80 80L90 80L90 70L80 70M20 80L20 90L40 90L40 80L20 80M50 80L50 90L60 90L60 80L50 80M70 80L70 90L80 90L80 80L70 80z"/>
</svg>
