<?xml version="1.0" standalone="yes"?>
<svg xmlns="http://www.w3.org/2000/svg" width="90" height="90">
<path style="fill:#000000; stroke:none;" d="M0 0L0 10L10 10L10 20L0 20L0 50L10 50L10 60L0 60L0 70L10 70L10 80L60 80L60 90L70 90L70 80L80 80L80 90L90 90L90 70L80 70L80 50L90 50L90 40L80 40L80 30L90 30L90 0L50 0L50 10L40 10L40 0L0 0z"/>
<path style="fill:#ffffff; stroke:none;" d="M40 0L40 10L50 10L50 0L40 0M0 10L0 20L10 20L10 10L0 10M20 20L20 70L70 70L70 20L20 20z"/>
<path style="fill:#000000; stroke:none;" d="M40 30L40 40L60 40L60 30L40 30z"/>
<path style="fill:#ffffff; stroke:none;" d="M80 30L80 40L90 40L90 30L80 30M0 50L0 60L10 60L10 50L0 50z"/>
<path style="fill:#000000; stroke:none;" d="M50 50L50 60L60 60L60 50L50 50z"/>
<path style="fill:#ffffff; stroke:none;" d="M80 50L80 70L90 70L90 50L80 50M0 70L0 90L60 90L60 80L10 80L10 70L0 70M70 80L70 90L80 90L80 80L70 80z"/>
</svg>
