<?xml version="1.0" standalone="yes"?>
<svg xmlns="http://www.w3.org/2000/svg" width="90" height="90">
<path style="fill:#000000; stroke:none;" d="M0 0L0 20L10 20L10 60L0 60L0 70L10 70L10 80L20 80L20 90L30 90L30 80L60 80L60 90L90 90L90 80L80 80L80 60L90 60L90 0L80 0L80 10L70 10L70 0L60 0L60 10L40 10L40 0L0 0z"/>
<path style="fill:#ffffff; stroke:none;" d="M40 0L40 10L60 10L60 0L40 0M70 0L70 10L80 10L80 0L70 0M0 20L0 60L10 60L10 20L0 20M20 20L20 70L70 70L70 20L20 20z"/>
<path style="fill:#000000; stroke:none;" d="M30 40L30 50L40 50L40 60L50 60L50 40L30 40z"/>
<path style="fill:#ffffff; stroke:none;" d="M80 60L80 80L90 80L90 60L80 60M0 70L0 90L20 90L20 80L10 80L10 70L0 70M30 80L30 90L60 90L60 80L30 80z"/>
</svg>
