<?xml version="1.0" standalone="yes"?>
<svg xmlns="http://www.w3.org/2000/svg" width="90" height="90">
<path style="fill:#ffffff; stroke:none;" d="M0 0L0 10L50 10L50 0L0 0z"/>
<path style="fill:#000000; stroke:none;" d="M50 0L50 10L0 10L0 20L10 20L10 40L0 40L0 60L10 60L10 80L20 80L20 90L30 90L30 80L40 80L40 90L70 90L70 80L90 80L90 60L80 60L80 50L90 50L90 0L50 0z"/>
<path style="fill:#ffffff; stroke:none;" d="M0 20L0 40L10 40L10 20L0 20M20 20L20 70L70 70L70 20L20 20z"/>
<path style="fill:#000000; stroke:none;" d="M40 30L40 40L30 40L30 50L40 50L40 40L50 40L50 50L60 50L60 30L40 30z"/>
<path style="fill:#ffffff; stroke:none;" d="M80 50L80 60L90 60L90 50L80 50M0 60L0 90L20 90L20 80L10 80L10 60L0 60M30 80L30 90L40 90L40 80L30 80M70 80L70 90L90 90L90 80L70 80z"/>
</svg>
