<?xml version="1.0" standalone="yes"?>
<svg xmlns="http://www.w3.org/2000/svg" width="90" height="90">
<path style="fill:#ffffff; stroke:none;" d="M0 0L0 10L20 10L20 0L0 0z"/>
<path style="fill:#000000; stroke:none;" d="M20 0L20 10L0 10L0 20L10 20L10 40L0 40L0 50L10 50L10 70L0 70L0 80L30 80L30 90L40 90L40 80L60 80L60 90L70 90L70 80L80 80L80 90L90 90L90 70L80 70L80 60L90 60L90 30L80 30L80 10L70 10L70 0L60 0L60 10L50 10L50 0L40 0L40 10L30 10L30 0L20 0z"/>
<path style="fill:#ffffff; stroke:none;" d="M30 0L30 10L40 10L40 0L30 0M50 0L50 10L60 10L60 0L50 0M70 0L70 10L80 10L80 30L90 30L90 0L70 0M0 20L0 40L10 40L10 20L0 20M20 20L20 70L70 70L70 20L20 20z"/>
<path style="fill:#000000; stroke:none;" d="M30 30L30 50L40 50L40 60L50 60L50 50L60 50L60 40L50 40L50 30L30 30z"/>
<path style="fill:#ffffff; stroke:none;" d="M0 50L0 70L10 70L10 50L0 50M80 60L80 70L90 70L90 60L80 60M0 80L0 90L30 90L30 80L0 80M40 80L40 90L60 90L60 80L40 80M70 80L70 90L80 90L80 80L70 80z"/>
</svg>
