<?xml version="1.0" standalone="yes"?>
<svg xmlns="http://www.w3.org/2000/svg" width="90" height="90">
<path style="fill:#000000; stroke:none;" d="M0 0L0 30L10 30L10 50L0 50L0 80L10 80L10 90L40 90L40 80L50 80L50 90L70 90L70 80L80 80L80 90L90 90L90 70L80 70L80 60L90 60L90 30L80 30L80 20L90 20L90 0L60 0L60 10L50 10L50 0L0 0z"/>
<path style="fill:#ffffff; stroke:none;" d="M50 0L50 10L60 10L60 0L50 0M20 20L20 70L70 70L70 20L20 20M80 20L80 30L90 30L90 20L80 20M0 30L0 50L10 50L10 30L0 30z"/>
<path style="fill:#000000; stroke:none;" d="M30 30L30 60L40 60L40 30L30 30M50 30L50 50L60 50L60 30L50 30z"/>
<path style="fill:#ffffff; stroke:none;" d="M80 60L80 70L90 70L90 60L80 60M0 80L0 90L10 90L10 80L0 80M40 80L40 90L50 90L50 80L40 80M70 80L70 90L80 90L80 80L70 80z"/>
</svg>
