<?xml version="1.0" standalone="yes"?>
<svg xmlns="http://www.w3.org/2000/svg" width="90" height="90">
<path style="fill:#000000; stroke:none;" d="M0 0L0 10L10 10L10 20L0 20L0 30L10 30L10 80L0 80L0 90L10 90L10 80L60 80L60 90L90 90L90 60L80 60L80 50L90 50L90 30L80 30L80 20L90 20L90 10L30 10L30 0L0 0z"/>
<path style="fill:#ffffff; stroke:none;" d="M30 0L30 10L90 10L90 0L30 0M0 10L0 20L10 20L10 10L0 10M20 20L20 70L70 70L70 20L20 20M80 20L80 30L90 30L90 20L80 20M0 30L0 80L10 80L10 30L0 30z"/>
<path style="fill:#000000; stroke:none;" d="M50 40L50 50L30 50L30 60L50 60L50 50L60 50L60 40L50 40z"/>
<path style="fill:#ffffff; stroke:none;" d="M80 50L80 60L90 60L90 50L80 50M10 80L10 90L60 90L60 80L10 80z"/>
</svg>
