<?xml version="1.0" standalone="yes"?>
<svg xmlns="http://www.w3.org/2000/svg" width="90" height="90">
<path style="fill:#ffffff; stroke:none;" d="M0 0L0 10L10 10L10 0L0 0z"/>
<path style="fill:#000000; stroke:none;" d="M10 0L10 10L0 10L0 30L10 30L10 40L0 40L0 50L10 50L10 70L0 70L0 80L20 80L20 90L40 90L40 80L50 80L50 90L60 90L60 80L70 80L70 90L90 90L90 80L80 80L80 60L90 60L90 50L80 50L80 40L90 40L90 30L80 30L80 10L60 10L60 0L40 0L40 10L30 10L30 0L10 0z"/>
<path style="fill:#ffffff; stroke:none;" d="M30 0L30 10L40 10L40 0L30 0M60 0L60 10L80 10L80 30L90 30L90 0L60 0M20 20L20 70L70 70L70 20L20 20M0 30L0 40L10 40L10 30L0 30z"/>
<path style="fill:#000000; stroke:none;" d="M40 30L40 50L50 50L50 60L60 60L60 50L50 50L50 30L40 30z"/>
<path style="fill:#ffffff; stroke:none;" d="M80 40L80 50L90 50L90 40L80 40M0 50L0 70L10 70L10 50L0 50M80 60L80 80L90 80L90 60L80 60M0 80L0 90L20 90L20 80L0 80M40 80L40 90L50 90L50 80L40 80M60 80L60 90L70 90L70 80L60 80z"/>
</svg>
