<?xml version="1.0" standalone="yes"?>
<svg xmlns="http://www.w3.org/2000/svg" width="90" height="90">
<path style="fill:#000000; stroke:none;" d="M0 0L0 10L10 10L10 30L0 30L0 40L10 40L10 60L0 60L0 70L10 70L10 80L0 80L0 90L30 90L30 80L50 80L50 90L80 90L80 80L90 80L90 70L80 70L80 60L90 60L90 50L80 50L80 20L90 20L90 0L80 0L80 10L70 10L70 0L50 0L50 10L10 10L10 0L0 0z"/>
<path style="fill:#ffffff; stroke:none;" d="M10 0L10 10L50 10L50 0L10 0M70 0L70 10L80 10L80 0L70 0M0 10L0 30L10 30L10 10L0 10M20 20L20 70L70 70L70 20L20 20M80 20L80 50L90 50L90 20L80 20z"/>
<path style="fill:#000000; stroke:none;" d="M50 30L50 60L60 60L60 30L50 30z"/>
<path style="fill:#ffffff; stroke:none;" d="M0 40L0 60L10 60L10 40L0 40z"/>
<path style="fill:#000000; stroke:none;" d="M30 40L30 50L40 50L40 40L30 40z"/>
<path style="fill:#ffffff; stroke:none;" d="M80 60L80 70L90 70L90 60L80 60M0 70L0 80L10 80L10 70L0 70M30 80L30 90L50 90L50 80L30 80M80 80L80 90L90 90L90 80L80 80z"/>
</svg>
