<?xml version="1.0" standalone="yes"?>
<svg xmlns="http://www.w3.org/2000/svg" width="90" height="90">
<path style="fill:#ffffff; stroke:none;" d="M0 0L0 10L30 10L30 0L0 0z"/>
<path style="fill:#000000; stroke:none;" d="M30 0L30 10L0 10L0 20L10 20L10 60L0 60L0 70L10 70L10 80L20 80L20 90L30 90L30 80L40 80L40 90L50 90L50 80L60 80L60 90L70 90L70 80L80 80L80 60L90 60L90 40L80 40L80 0L70 0L70 10L40 10L40 0L30 0z"/>
<path style="fill:#ffffff; stroke:none;" d="M40 0L40 10L70 10L70 0L40 0M80 0L80 40L90 40L90 0L80 0M0 20L0 60L10 60L10 20L0 20M20 20L20 70L70 70L70 20L20 20z"/>
<path style="fill:#000000; stroke:none;" d="M50 30L50 50L30 50L30 60L60 60L60 30L50 30z"/>
<path style="fill:#ffffff; stroke:none;" d="M80 60L80 80L70 80L70 90L90 90L90 60L80 60M0 70L0 90L20 90L20 80L10 80L10 70L0 70M30 80L30 90L40 90L40 80L30 80M50 80L50 90L60 90L60 80L50 80z"/>
</svg>
