<?xml version="1.0" standalone="yes"?>
<svg xmlns="http://www.w3.org/2000/svg" width="90" height="90">
<path style="fill:#ffffff; stroke:none;" d="M0 0L0 30L10 30L10 0L0 0z"/>
<path style="fill:#000000; stroke:none;" d="M10 0L10 30L0 30L0 40L10 40L10 70L0 70L0 90L10 90L10 80L30 80L30 90L90 90L90 80L80 80L80 50L90 50L90 30L80 30L80 20L90 20L90 0L70 0L70 10L60 10L60 0L50 0L50 10L20 10L20 0L10 0z"/>
<path style="fill:#ffffff; stroke:none;" d="M20 0L20 10L50 10L50 0L20 0M60 0L60 10L70 10L70 0L60 0M20 20L20 70L70 70L70 20L20 20M80 20L80 30L90 30L90 20L80 20z"/>
<path style="fill:#000000; stroke:none;" d="M50 30L50 40L40 40L40 50L30 50L30 60L40 60L40 50L50 50L50 40L60 40L60 30L50 30z"/>
<path style="fill:#ffffff; stroke:none;" d="M0 40L0 70L10 70L10 40L0 40M80 50L80 80L90 80L90 50L80 50M10 80L10 90L30 90L30 80L10 80z"/>
</svg>
