<?xml version="1.0" standalone="yes"?>
<svg xmlns="http://www.w3.org/2000/svg" width="90" height="90">
<path style="fill:#ffffff; stroke:none;" d="M0 0L0 30L10 30L10 10L20 10L20 0L0 0z"/>
<path style="fill:#000000; stroke:none;" d="M20 0L20 10L10 10L10 30L0 30L0 50L10 50L10 60L0 60L0 80L10 80L10 90L30 90L30 80L40 80L40 90L70 90L70 80L80 80L80 70L90 70L90 40L80 40L80 0L60 0L60 10L40 10L40 0L20 0z"/>
<path style="fill:#ffffff; stroke:none;" d="M40 0L40 10L60 10L60 0L40 0M80 0L80 40L90 40L90 0L80 0M20 20L20 70L70 70L70 20L20 20z"/>
<path style="fill:#000000; stroke:none;" d="M30 40L30 60L50 60L50 50L60 50L60 40L30 40z"/>
<path style="fill:#ffffff; stroke:none;" d="M0 50L0 60L10 60L10 50L0 50M80 70L80 80L70 80L70 90L90 90L90 70L80 70M0 80L0 90L10 90L10 80L0 80M30 80L30 90L40 90L40 80L30 80z"/>
</svg>
