<?xml version="1.0" standalone="yes"?>
<svg xmlns="http://www.w3.org/2000/svg" width="90" height="90">
<path style="fill:#ffffff; stroke:none;" d="M0 0L0 10L20 10L20 0L0 0z"/>
<path style="fill:#000000; stroke:none;" d="M20 0L20 10L0 10L0 30L10 30L10 50L0 50L0 70L10 70L10 80L30 80L30 90L60 90L60 80L70 80L70 90L80 90L80 80L90 80L90 70L80 70L80 50L90 50L90 40L80 40L80 20L90 20L90 0L80 0L80 10L50 10L50 0L20 0z"/>
<path style="fill:#ffffff; stroke:none;" d="M50 0L50 10L80 10L80 0L50 0M20 20L20 70L70 70L70 20L20 20M80 20L80 40L90 40L90 20L80 20M0 30L0 50L10 50L10 30L0 30z"/>
<path style="fill:#000000; stroke:none;" d="M40 30L40 50L60 50L60 40L50 40L50 30L40 30z"/>
<path style="fill:#ffffff; stroke:none;" d="M80 50L80 70L90 70L90 50L80 50M0 70L0 90L30 90L30 80L10 80L10 70L0 70M60 80L60 90L70 90L70 80L60 80M80 80L80 90L90 90L90 80L80 80z"/>
</svg>
