<?xml version="1.0" standalone="yes"?>
<svg xmlns="http://www.w3.org/2000/svg" width="90" height="90">
<path style="fill:#ffffff; stroke:none;" d="M0 0L0 30L10 30L10 0L0 0z"/>
<path style="fill:#000000; stroke:none;" d="M10 0L10 30L0 30L0 40L10 40L10 50L0 50L0 60L10 60L10 70L0 70L0 90L30 90L30 80L40 80L40 90L60 90L60 80L70 80L70 90L90 90L90 70L80 70L80 40L90 40L90 30L80 30L80 0L70 0L70 10L60 10L60 0L50 0L50 10L40 10L40 0L10 0z"/>
<path style="fill:#ffffff; stroke:none;" d="M40 0L40 10L50 10L50 0L40 0M60 0L60 10L70 10L70 0L60 0M80 0L80 30L90 30L90 0L80 0M20 20L20 70L70 70L70 20L20 20z"/>
<path style="fill:#000000; stroke:none;" d="M30 30L30 40L50 40L50 50L40 50L40 60L60 60L60 40L50 40L50 30L30 30z"/>
<path style="fill:#ffffff; stroke:none;" d="M0 40L0 50L10 50L10 40L0 40M80 40L80 70L90 70L90 40L80 40M0 60L0 70L10 70L10 60L0 60M30 80L30 90L40 90L40 80L30 80M60 80L60 90L70 90L70 80L60 80z"/>
</svg>
