<?xml version="1.0" standalone="yes"?>
<svg xmlns="http://www.w3.org/2000/svg" width="90" height="90">
<path style="fill:#ffffff; stroke:none;" d="M0 0L0 40L10 40L10 10L90 10L90 0L0 0z"/>
<path style="fill:#000000; stroke:none;" d="M10 10L10 40L0 40L0 60L10 60L10 80L20 80L20 90L30 90L30 80L40 80L40 90L70 90L70 80L80 80L80 20L90 20L90 10L10 10z"/>
<path style="fill:#ffffff; stroke:none;" d="M20 20L20 70L70 70L70 20L20 20M80 20L80 80L70 80L70 90L90 90L90 20L80 20z"/>
<path style="fill:#000000; stroke:none;" d="M30 30L30 40L40 40L40 50L50 50L50 40L60 40L60 30L50 30L50 40L40 40L40 30L30 30z"/>
<path style="fill:#ffffff; stroke:none;" d="M0 60L0 90L20 90L20 80L10 80L10 60L0 60M30 80L30 90L40 90L40 80L30 80z"/>
</svg>
