<?xml version="1.0" standalone="yes"?>
<svg xmlns="http://www.w3.org/2000/svg" width="90" height="90">
<path style="fill:#000000; stroke:none;" d="M0 0L0 10L10 10L10 30L0 30L0 60L10 60L10 70L0 70L0 80L20 80L20 90L40 90L40 80L50 80L50 90L80 90L80 80L90 80L90 70L80 70L80 60L90 60L90 50L80 50L80 40L90 40L90 20L80 20L80 0L50 0L50 10L40 10L40 0L30 0L30 10L20 10L20 0L0 0z"/>
<path style="fill:#ffffff; stroke:none;" d="M20 0L20 10L30 10L30 0L20 0M40 0L40 10L50 10L50 0L40 0M80 0L80 20L90 20L90 0L80 0M0 10L0 30L10 30L10 10L0 10M20 20L20 70L70 70L70 20L20 20z"/>
<path style="fill:#000000; stroke:none;" d="M30 30L30 40L40 40L40 50L30 50L30 60L60 60L60 30L30 30z"/>
<path style="fill:#ffffff; stroke:none;" d="M80 40L80 50L90 50L90 40L80 40M0 60L0 70L10 70L10 60L0 60M80 60L80 70L90 70L90 60L80 60M0 80L0 90L20 90L20 80L0 80M40 80L40 90L50 90L50 80L40 80M80 80L80 90L90 90L90 80L80 80z"/>
</svg>
