<?xml version="1.0" standalone="yes"?>
<svg xmlns="http://www.w3.org/2000/svg" width="90" height="90">
<path style="fill:#000000; stroke:none;" d="M0 0L0 10L10 10L10 60L0 60L0 90L20 90L20 80L40 80L40 90L50 90L50 80L60 80L60 90L70 90L70 80L80 80L80 70L90 70L90 10L80 10L80 0L70 0L70 10L60 10L60 0L40 0L40 10L20 10L20 0L0 0z"/>
<path style="fill:#ffffff; stroke:none;" d="M20 0L20 10L40 10L40 0L20 0M60 0L60 10L70 10L70 0L60 0M80 0L80 10L90 10L90 0L80 0M0 10L0 60L10 60L10 10L0 10M20 20L20 70L70 70L70 20L20 20z"/>
<path style="fill:#000000; stroke:none;" d="M30 30L30 40L40 40L40 50L50 50L50 60L60 60L60 30L50 30L50 40L40 40L40 30L30 30z"/>
<path style="fill:#ffffff; stroke:none;" d="M80 70L80 80L70 80L70 90L90 90L90 70L80 70M20 80L20 90L40 90L40 80L20 80M50 80L50 90L60 90L60 80L50 80z"/>
</svg>
