<?xml version="1.0" standalone="yes"?>
<svg xmlns="http://www.w3.org/2000/svg" width="90" height="90">
<path style="fill:#ffffff; stroke:none;" d="M0 0L0 20L10 20L10 10L50 10L50 0L0 0z"/>
<path style="fill:#000000; stroke:none;" d="M50 0L50 10L10 10L10 20L0 20L0 40L10 40L10 60L0 60L0 90L20 90L20 80L30 80L30 90L40 90L40 80L70 80L70 90L80 90L80 80L90 80L90 70L80 70L80 30L90 30L90 0L70 0L70 10L60 10L60 0L50 0z"/>
<path style="fill:#ffffff; stroke:none;" d="M60 0L60 10L70 10L70 0L60 0M20 20L20 70L70 70L70 20L20 20z"/>
<path style="fill:#000000; stroke:none;" d="M30 30L30 40L40 40L40 30L30 30M50 30L50 50L60 50L60 30L50 30z"/>
<path style="fill:#ffffff; stroke:none;" d="M80 30L80 70L90 70L90 30L80 30M0 40L0 60L10 60L10 40L0 40z"/>
<path style="fill:#000000; stroke:none;" d="M30 50L30 60L40 60L40 50L30 50z"/>
<path style="fill:#ffffff; stroke:none;" d="M20 80L20 90L30 90L30 80L20 80M40 80L40 90L70 90L70 80L40 80M80 80L80 90L90 90L90 80L80 80z"/>
</svg>
