<?xml version="1.0" standalone="yes"?>
<svg xmlns="http://www.w3.org/2000/svg" width="90" height="90">
<path style="fill:#ffffff; stroke:none;" d="M0 0L0 20L10 20L10 10L20 10L20 0L0 0z"/>
<path style="fill:#000000; stroke:none;" d="M20 0L20 10L10 10L10 20L0 20L0 60L10 60L10 90L30 90L30 80L40 80L40 90L50 90L50 80L90 80L90 70L80 70L80 60L90 60L90 50L80 50L80 40L90 40L90 20L80 20L80 0L70 0L70 10L30 10L30 0L20 0z"/>
<path style="fill:#ffffff; stroke:none;" d="M30 0L30 10L70 10L70 0L30 0M80 0L80 20L90 20L90 0L80 0M20 20L20 70L70 70L70 20L20 20z"/>
<path style="fill:#000000; stroke:none;" d="M40 30L40 40L30 40L30 50L40 50L40 60L50 60L50 50L60 50L60 40L50 40L50 30L40 30z"/>
<path style="fill:#ffffff; stroke:none;" d="M40 40L40 50L50 50L50 40L40 40M80 40L80 50L90 50L90 40L80 40M0 60L0 90L10 90L10 60L0 60M80 60L80 70L90 70L90 60L80 60M30 80L30 90L40 90L40 80L30 80M50 80L50 90L90 90L90 80L50 80z"/>
</svg>
