<?xml version="1.0" standalone="yes"?>
<svg xmlns="http://www.w3.org/2000/svg" width="90" height="90">
<path style="fill:#ffffff; stroke:none;" d="M0 0L0 10L10 10L10 0L0 0z"/>
<path style="fill:#000000; stroke:none;" d="M10 0L10 10L0 10L0 20L10 20L10 60L0 60L0 80L10 80L10 90L40 90L40 80L80 80L80 60L90 60L90 30L80 30L80 20L90 20L90 10L80 10L80 0L40 0L40 10L20 10L20 0L10 0z"/>
<path style="fill:#ffffff; stroke:none;" d="M20 0L20 10L40 10L40 0L20 0M80 0L80 10L90 10L90 0L80 0M0 20L0 60L10 60L10 20L0 20M20 20L20 70L70 70L70 20L20 20M80 20L80 30L90 30L90 20L80 20z"/>
<path style="fill:#000000; stroke:none;" d="M30 30L30 40L40 40L40 30L30 30M50 30L50 40L60 40L60 30L50 30M50 50L50 60L60 60L60 50L50 50z"/>
<path style="fill:#ffffff; stroke:none;" d="M80 60L80 80L40 80L40 90L90 90L90 60L80 60M0 80L0 90L10 90L10 80L0 80z"/>
</svg>
