<?xml version="1.0" standalone="yes"?>
<svg xmlns="http://www.w3.org/2000/svg" width="90" height="90">
<path style="fill:#000000; stroke:none;" d="M0 0L0 40L10 40L10 50L0 50L0 70L10 70L10 80L0 80L0 90L30 90L30 80L40 80L40 90L50 90L50 80L80 80L80 40L90 40L90 30L80 30L80 20L90 20L90 0L70 0L70 10L60 10L60 0L20 0L20 10L10 10L10 0L0 0z"/>
<path style="fill:#ffffff; stroke:none;" d="M10 0L10 10L20 10L20 0L10 0M60 0L60 10L70 10L70 0L60 0M20 20L20 70L70 70L70 20L20 20M80 20L80 30L90 30L90 20L80 20M0 40L0 50L10 50L10 40L0 40M80 40L80 80L50 80L50 90L90 90L90 40L80 40z"/>
<path style="fill:#000000; stroke:none;" d="M30 50L30 60L60 60L60 50L30 50z"/>
<path style="fill:#ffffff; stroke:none;" d="M0 70L0 80L10 80L10 70L0 70M30 80L30 90L40 90L40 80L30 80z"/>
</svg>
