<?xml version="1.0" standalone="yes"?>
<svg xmlns="http://www.w3.org/2000/svg" width="90" height="90">
<path style="fill:#000000; stroke:none;" d="M0 0L0 10L10 10L10 40L0 40L0 50L10 50L10 60L0 60L0 70L10 70L10 80L0 80L0 90L30 90L30 80L70 80L70 90L90 90L90 60L80 60L80 40L90 40L90 20L80 20L80 10L90 10L90 0L80 0L80 10L70 10L70 0L60 0L60 10L20 10L20 0L0 0z"/>
<path style="fill:#ffffff; stroke:none;" d="M20 0L20 10L60 10L60 0L20 0M70 0L70 10L80 10L80 0L70 0M0 10L0 40L10 40L10 10L0 10M80 10L80 20L90 20L90 10L80 10M20 20L20 70L70 70L70 20L20 20z"/>
<path style="fill:#000000; stroke:none;" d="M30 30L30 40L40 40L40 50L60 50L60 30L50 30L50 40L40 40L40 30L30 30z"/>
<path style="fill:#ffffff; stroke:none;" d="M80 40L80 60L90 60L90 40L80 40M0 50L0 60L10 60L10 50L0 50M0 70L0 80L10 80L10 70L0 70M30 80L30 90L70 90L70 80L30 80z"/>
</svg>
