<?xml version="1.0" standalone="yes"?>
<svg xmlns="http://www.w3.org/2000/svg" width="90" height="90">
<path style="fill:#000000; stroke:none;" d="M0 0L0 10L10 10L10 20L0 20L0 40L10 40L10 50L0 50L0 60L10 60L10 80L0 80L0 90L10 90L10 80L30 80L30 90L40 90L40 80L50 80L50 90L70 90L70 80L80 80L80 40L90 40L90 0L80 0L80 10L50 10L50 0L40 0L40 10L30 10L30 0L20 0L20 10L10 10L10 0L0 0z"/>
<path style="fill:#ffffff; stroke:none;" d="M10 0L10 10L20 10L20 0L10 0M30 0L30 10L40 10L40 0L30 0M50 0L50 10L80 10L80 0L50 0M0 10L0 20L10 20L10 10L0 10M20 20L20 70L70 70L70 20L20 20M0 40L0 50L10 50L10 40L0 40z"/>
<path style="fill:#000000; stroke:none;" d="M30 40L30 50L40 50L40 40L30 40z"/>
<path style="fill:#ffffff; stroke:none;" d="M80 40L80 80L70 80L70 90L90 90L90 40L80 40M0 60L0 80L10 80L10 60L0 60M10 80L10 90L30 90L30 80L10 80M40 80L40 90L50 90L50 80L40 80z"/>
</svg>
