<?xml version="1.0" standalone="yes"?>
<svg xmlns="http://www.w3.org/2000/svg" width="90" height="90">
<path style="fill:#000000; stroke:none;" d="M0 0L0 50L10 50L10 70L0 70L0 90L10 90L10 80L20 80L20 90L40 90L40 80L50 80L50 90L60 90L60 80L80 80L80 90L90 90L90 80L80 80L80 50L90 50L90 40L80 40L80 30L90 30L90 0L50 0L50 10L40 10L40 0L20 0L20 10L10 10L10 0L0 0z"/>
<path style="fill:#ffffff; stroke:none;" d="M10 0L10 10L20 10L20 0L10 0M40 0L40 10L50 10L50 0L40 0M20 20L20 70L70 70L70 20L20 20M80 30L80 40L90 40L90 30L80 30z"/>
<path style="fill:#000000; stroke:none;" d="M40 40L40 50L30 50L30 60L40 60L40 50L50 50L50 60L60 60L60 50L50 50L50 40L40 40z"/>
<path style="fill:#ffffff; stroke:none;" d="M0 50L0 70L10 70L10 50L0 50M80 50L80 80L90 80L90 50L80 50M10 80L10 90L20 90L20 80L10 80M40 80L40 90L50 90L50 80L40 80M60 80L60 90L80 90L80 80L60 80z"/>
</svg>
