<?xml version="1.0" standalone="yes"?>
<svg xmlns="http://www.w3.org/2000/svg" width="90" height="90">
<path style="fill:#ffffff; stroke:none;" d="M0 0L0 20L10 20L10 10L30 10L30 0L0 0z"/>
<path style="fill:#000000; stroke:none;" d="M30 0L30 10L10 10L10 20L0 20L0 40L10 40L10 50L0 50L0 90L20 90L20 80L40 80L40 90L50 90L50 80L70 80L70 90L80 90L80 80L90 80L90 50L80 50L80 10L90 10L90 0L60 0L60 10L40 10L40 0L30 0z"/>
<path style="fill:#ffffff; stroke:none;" d="M40 0L40 10L60 10L60 0L40 0M80 10L80 50L90 50L90 10L80 10M20 20L20 70L70 70L70 20L20 20z"/>
<path style="fill:#000000; stroke:none;" d="M30 30L30 40L50 40L50 50L40 50L40 60L60 60L60 30L30 30z"/>
<path style="fill:#ffffff; stroke:none;" d="M0 40L0 50L10 50L10 40L0 40M20 80L20 90L40 90L40 80L20 80M50 80L50 90L70 90L70 80L50 80M80 80L80 90L90 90L90 80L80 80z"/>
</svg>
