<?xml version="1.0" standalone="yes"?>
<svg xmlns="http://www.w3.org/2000/svg" width="90" height="90">
<path style="fill:#ffffff; stroke:none;" d="M0 0L0 50L10 50L10 0L0 0z"/>
<path style="fill:#000000; stroke:none;" d="M10 0L10 50L0 50L0 60L10 60L10 70L0 70L0 90L10 90L10 80L30 80L30 90L40 90L40 80L50 80L50 90L60 90L60 80L70 80L70 90L80 90L80 70L90 70L90 60L80 60L80 50L90 50L90 30L80 30L80 20L90 20L90 10L40 10L40 0L10 0z"/>
<path style="fill:#ffffff; stroke:none;" d="M40 0L40 10L90 10L90 0L40 0M20 20L20 70L70 70L70 20L20 20M80 20L80 30L90 30L90 20L80 20z"/>
<path style="fill:#000000; stroke:none;" d="M40 30L40 40L50 40L50 30L40 30M30 50L30 60L40 60L40 50L30 50M50 50L50 60L60 60L60 50L50 50z"/>
<path style="fill:#ffffff; stroke:none;" d="M80 50L80 60L90 60L90 50L80 50M0 60L0 70L10 70L10 60L0 60M80 70L80 90L90 90L90 70L80 70M10 80L10 90L30 90L30 80L10 80M40 80L40 90L50 90L50 80L40 80M60 80L60 90L70 90L70 80L60 80z"/>
</svg>
