<?xml version="1.0" standalone="yes"?>
<svg xmlns="http://www.w3.org/2000/svg" width="90" height="90">
<path style="fill:#ffffff; stroke:none;" d="M0 0L0 20L10 20L10 10L20 10L20 0L0 0z"/>
<path style="fill:#000000; stroke:none;" d="M20 0L20 10L10 10L10 20L0 20L0 50L10 50L10 80L0 80L0 90L10 90L10 80L30 80L30 90L70 90L70 80L80 80L80 90L90 90L90 80L80 80L80 30L90 30L90 20L80 20L80 10L90 10L90 0L70 0L70 10L60 10L60 0L20 0z"/>
<path style="fill:#ffffff; stroke:none;" d="M60 0L60 10L70 10L70 0L60 0M80 10L80 20L90 20L90 10L80 10M20 20L20 70L70 70L70 20L20 20z"/>
<path style="fill:#000000; stroke:none;" d="M30 30L30 60L40 60L40 40L50 40L50 50L60 50L60 40L50 40L50 30L30 30z"/>
<path style="fill:#ffffff; stroke:none;" d="M80 30L80 80L90 80L90 30L80 30M0 50L0 80L10 80L10 50L0 50M10 80L10 90L30 90L30 80L10 80M70 80L70 90L80 90L80 80L70 80z"/>
</svg>
