<?xml version="1.0" standalone="yes"?>
<svg xmlns="http://www.w3.org/2000/svg" width="90" height="90">
<path style="fill:#ffffff; stroke:none;" d="M0 0L0 40L10 40L10 10L40 10L40 0L0 0z"/>
<path style="fill:#000000; stroke:none;" d="M40 0L40 10L10 10L10 40L0 40L0 50L10 50L10 70L0 70L0 90L50 90L50 80L60 80L60 90L80 90L80 80L90 80L90 70L80 70L80 40L90 40L90 30L80 30L80 20L90 20L90 10L60 10L60 0L40 0z"/>
<path style="fill:#ffffff; stroke:none;" d="M60 0L60 10L90 10L90 0L60 0M20 20L20 70L70 70L70 20L20 20M80 20L80 30L90 30L90 20L80 20z"/>
<path style="fill:#000000; stroke:none;" d="M40 30L40 40L30 40L30 60L40 60L40 40L50 40L50 50L60 50L60 40L50 40L50 30L40 30z"/>
<path style="fill:#ffffff; stroke:none;" d="M80 40L80 70L90 70L90 40L80 40M0 50L0 70L10 70L10 50L0 50M50 80L50 90L60 90L60 80L50 80M80 80L80 90L90 90L90 80L80 80z"/>
</svg>
