<?xml version="1.0" standalone="yes"?>
<svg xmlns="http://www.w3.org/2000/svg" width="90" height="90">
<path style="fill:#ffffff; stroke:none;" d="M0 0L0 10L40 10L40 0L0 0z"/>
<path style="fill:#000000; stroke:none;" d="M40 0L40 10L0 10L0 20L10 20L10 70L0 70L0 80L10 80L10 90L20 90L20 80L30 80L30 90L40 90L40 80L70 80L70 90L80 90L80 80L90 80L90 60L80 60L80 20L90 20L90 10L70 10L70 0L40 0z"/>
<path style="fill:#ffffff; stroke:none;" d="M70 0L70 10L90 10L90 0L70 0M0 20L0 70L10 70L10 20L0 20M20 20L20 70L70 70L70 20L20 20M80 20L80 60L90 60L90 20L80 20z"/>
<path style="fill:#000000; stroke:none;" d="M30 30L30 50L40 50L40 40L50 40L50 60L60 60L60 40L50 40L50 30L30 30z"/>
<path style="fill:#ffffff; stroke:none;" d="M0 80L0 90L10 90L10 80L0 80M20 80L20 90L30 90L30 80L20 80M40 80L40 90L70 90L70 80L40 80M80 80L80 90L90 90L90 80L80 80z"/>
</svg>
