<?xml version="1.0" standalone="yes"?>
<svg xmlns="http://www.w3.org/2000/svg" width="90" height="90">
<path style="fill:#000000; stroke:none;" d="M0 0L0 10L10 10L10 20L0 20L0 30L10 30L10 50L0 50L0 60L10 60L10 90L30 90L30 80L60 80L60 90L70 90L70 80L80 80L80 90L90 90L90 80L80 80L80 30L90 30L90 10L70 10L70 0L40 0L40 10L30 10L30 0L20 0L20 10L10 10L10 0L0 0z"/>
<path style="fill:#ffffff; stroke:none;" d="M10 0L10 10L20 10L20 0L10 0M30 0L30 10L40 10L40 0L30 0M70 0L70 10L90 10L90 0L70 0M0 10L0 20L10 20L10 10L0 10M20 20L20 70L70 70L70 20L20 20M0 30L0 50L10 50L10 30L0 30M80 30L80 80L90 80L90 30L80 30z"/>
<path style="fill:#000000; stroke:none;" d="M40 40L40 50L30 50L30 60L60 60L60 50L50 50L50 40L40 40z"/>
<path style="fill:#ffffff; stroke:none;" d="M0 60L0 90L10 90L10 60L0 60M30 80L30 90L60 90L60 80L30 80M70 80L70 90L80 90L80 80L70 80z"/>
</svg>
