<?xml version="1.0" standalone="yes"?>
<svg xmlns="http://www.w3.org/2000/svg" width="90" height="90">
<path style="fill:#ffffff; stroke:none;" d="M0 0L0 10L30 10L30 0L0 0z"/>
<path style="fill:#000000; stroke:none;" d="M30 0L30 10L0 10L0 20L10 20L10 30L0 30L0 40L10 40L10 50L0 50L0 60L10 60L10 90L20 90L20 80L70 80L70 90L80 90L80 80L90 80L90 70L80 70L80 60L90 60L90 40L80 40L80 30L90 30L90 0L80 0L80 10L60 10L60 0L50 0L50 10L40 10L40 0L30 0z"/>
<path style="fill:#ffffff; stroke:none;" d="M40 0L40 10L50 10L50 0L40 0M60 0L60 10L80 10L80 0L60 0M0 20L0 30L10 30L10 20L0 20M20 20L20 70L70 70L70 20L20 20z"/>
<path style="fill:#000000; stroke:none;" d="M30 30L30 50L60 50L60 30L50 30L50 40L40 40L40 30L30 30z"/>
<path style="fill:#ffffff; stroke:none;" d="M80 30L80 40L90 40L90 30L80 30M0 40L0 50L10 50L10 40L0 40M0 60L0 90L10 90L10 60L0 60M80 60L80 70L90 70L90 60L80 60M20 80L20 90L70 90L70 80L20 80M80 80L80 90L90 90L90 80L80 80z"/>
</svg>
