<?xml version="1.0" standalone="yes"?>
<svg xmlns="http://www.w3.org/2000/svg" width="90" height="90">
<path style="fill:#ffffff; stroke:none;" d="M0 0L0 40L10 40L10 0L0 0z"/>
<path style="fill:#000000; stroke:none;" d="M10 0L10 40L0 40L0 60L10 60L10 70L0 70L0 80L10 80L10 90L30 90L30 80L40 80L40 90L50 90L50 80L60 80L60 90L80 90L80 80L90 80L90 70L80 70L80 60L90 60L90 20L80 20L80 10L90 10L90 0L70 0L70 10L50 10L50 0L10 0z"/>
<path style="fill:#ffffff; stroke:none;" d="M50 0L50 10L70 10L70 0L50 0M80 10L80 20L90 20L90 10L80 10M20 20L20 70L70 70L70 20L20 20z"/>
<path style="fill:#000000; stroke:none;" d="M30 30L30 60L60 60L60 50L40 50L40 30L30 30z"/>
<path style="fill:#ffffff; stroke:none;" d="M0 60L0 70L10 70L10 60L0 60M80 60L80 70L90 70L90 60L80 60M0 80L0 90L10 90L10 80L0 80M30 80L30 90L40 90L40 80L30 80M50 80L50 90L60 90L60 80L50 80M80 80L80 90L90 90L90 80L80 80z"/>
</svg>
