<?xml version="1.0" standalone="yes"?>
<svg xmlns="http://www.w3.org/2000/svg" width="90" height="90">
<path style="fill:#ffffff; stroke:none;" d="M0 0L0 20L10 20L10 10L20 10L20 0L0 0z"/>
<path style="fill:#000000; stroke:none;" d="M20 0L20 10L10 10L10 20L0 20L0 30L10 30L10 90L20 90L20 80L40 80L40 90L70 90L70 80L80 80L80 90L90 90L90 70L80 70L80 10L90 10L90 0L80 0L80 10L50 10L50 0L20 0z"/>
<path style="fill:#ffffff; stroke:none;" d="M50 0L50 10L80 10L80 0L50 0M80 10L80 70L90 70L90 10L80 10M20 20L20 70L70 70L70 20L20 20M0 30L0 90L10 90L10 30L0 30z"/>
<path style="fill:#000000; stroke:none;" d="M50 30L50 60L60 60L60 30L50 30z"/>
<path style="fill:#ffffff; stroke:none;" d="M20 80L20 90L40 90L40 80L20 80M70 80L70 90L80 90L80 80L70 80z"/>
</svg>
