<?xml version="1.0" standalone="yes"?>
<svg xmlns="http://www.w3.org/2000/svg" width="90" height="90">
<path style="fill:#000000; stroke:none;" d="M0 0L0 70L10 70L10 80L0 80L0 90L10 90L10 80L20 80L20 90L30 90L30 80L50 80L50 90L60 90L60 80L80 80L80 90L90 90L90 50L80 50L80 0L50 0L50 10L30 10L30 0L0 0z"/>
<path style="fill:#ffffff; stroke:none;" d="M30 0L30 10L50 10L50 0L30 0M80 0L80 50L90 50L90 0L80 0M20 20L20 70L70 70L70 20L20 20z"/>
<path style="fill:#000000; stroke:none;" d="M40 30L40 40L50 40L50 60L60 60L60 40L50 40L50 30L40 30M30 50L30 60L40 60L40 50L30 50z"/>
<path style="fill:#ffffff; stroke:none;" d="M0 70L0 80L10 80L10 70L0 70M10 80L10 90L20 90L20 80L10 80M30 80L30 90L50 90L50 80L30 80M60 80L60 90L80 90L80 80L60 80z"/>
</svg>
