<?xml version="1.0" standalone="yes"?>
<svg xmlns="http://www.w3.org/2000/svg" width="90" height="90">
<path style="fill:#ffffff; stroke:none;" d="M0 0L0 30L10 30L10 10L60 10L60 0L0 0z"/>
<path style="fill:#000000; stroke:none;" d="M60 0L60 10L10 10L10 30L0 30L0 50L10 50L10 80L0 80L0 90L20 90L20 80L30 80L30 90L50 90L50 80L90 80L90 70L80 70L80 50L90 50L90 40L80 40L80 20L90 20L90 0L80 0L80 10L70 10L70 0L60 0z"/>
<path style="fill:#ffffff; stroke:none;" d="M70 0L70 10L80 10L80 0L70 0M20 20L20 70L70 70L70 20L20 20M80 20L80 40L90 40L90 20L80 20z"/>
<path style="fill:#000000; stroke:none;" d="M40 30L40 50L60 50L60 30L40 30z"/>
<path style="fill:#ffffff; stroke:none;" d="M0 50L0 80L10 80L10 50L0 50M80 50L80 70L90 70L90 50L80 50M20 80L20 90L30 90L30 80L20 80M50 80L50 90L90 90L90 80L50 80z"/>
</svg>
