<?xml version="1.0" standalone="yes"?>
<svg xmlns="http://www.w3.org/2000/svg" width="90" height="90">
<path style="fill:#ffffff; stroke:none;" d="M0 0L0 10L50 10L50 0L0 0z"/>
<path style="fill:#000000; stroke:none;" d="M50 0L50 10L0 10L0 30L10 30L10 70L0 70L0 80L20 80L20 90L30 90L30 80L60 80L60 90L70 90L70 80L80 80L80 90L90 90L90 60L80 60L80 50L90 50L90 30L80 30L80 20L90 20L90 10L80 10L80 0L50 0z"/>
<path style="fill:#ffffff; stroke:none;" d="M80 0L80 10L90 10L90 0L80 0M20 20L20 70L70 70L70 20L20 20M80 20L80 30L90 30L90 20L80 20M0 30L0 70L10 70L10 30L0 30z"/>
<path style="fill:#000000; stroke:none;" d="M30 30L30 40L40 40L40 50L50 50L50 60L60 60L60 50L50 50L50 30L30 30z"/>
<path style="fill:#ffffff; stroke:none;" d="M80 50L80 60L90 60L90 50L80 50M0 80L0 90L20 90L20 80L0 80M30 80L30 90L60 90L60 80L30 80M70 80L70 90L80 90L80 80L70 80z"/>
</svg>
