<?xml version="1.0" standalone="yes"?>
<svg xmlns="http://www.w3.org/2000/svg" width="90" height="90">
<path style="fill:#ffffff; stroke:none;" d="M0 0L0 20L10 20L10 0L0 0z"/>
<path style="fill:#000000; stroke:none;" d="M10 0L10 20L0 20L0 40L10 40L10 50L0 50L0 70L10 70L10 80L0 80L0 90L20 90L20 80L30 80L30 90L40 90L40 80L60 80L60 90L80 90L80 70L90 70L90 40L80 40L80 10L70 10L70 0L50 0L50 10L40 10L40 0L10 0z"/>
<path style="fill:#ffffff; stroke:none;" d="M40 0L40 10L50 10L50 0L40 0M70 0L70 10L80 10L80 40L90 40L90 0L70 0M20 20L20 70L70 70L70 20L20 20z"/>
<path style="fill:#000000; stroke:none;" d="M30 30L30 40L40 40L40 50L30 50L30 60L60 60L60 30L30 30z"/>
<path style="fill:#ffffff; stroke:none;" d="M0 40L0 50L10 50L10 40L0 40M0 70L0 80L10 80L10 70L0 70M80 70L80 90L90 90L90 70L80 70M20 80L20 90L30 90L30 80L20 80M40 80L40 90L60 90L60 80L40 80z"/>
</svg>
