<?xml version="1.0" standalone="yes"?>
<svg xmlns="http://www.w3.org/2000/svg" width="90" height="90">
<path style="fill:#ffffff; stroke:none;" d="M0 0L0 10L80 10L80 0L0 0z"/>
<path style="fill:#000000; stroke:none;" d="M80 0L80 10L0 10L0 40L10 40L10 60L0 60L0 80L30 80L30 90L80 90L80 60L90 60L90 50L80 50L80 40L90 40L90 30L80 30L80 20L90 20L90 0L80 0z"/>
<path style="fill:#ffffff; stroke:none;" d="M20 20L20 70L70 70L70 20L20 20M80 20L80 30L90 30L90 20L80 20M0 40L0 60L10 60L10 40L0 40z"/>
<path style="fill:#000000; stroke:none;" d="M30 40L30 50L50 50L50 60L60 60L60 40L30 40z"/>
<path style="fill:#ffffff; stroke:none;" d="M80 40L80 50L90 50L90 40L80 40M80 60L80 90L90 90L90 60L80 60M0 80L0 90L30 90L30 80L0 80z"/>
</svg>
