<?xml version="1.0" standalone="yes"?>
<svg xmlns="http://www.w3.org/2000/svg" width="90" height="90">
<path style="fill:#000000; stroke:none;" d="M0 0L0 20L10 20L10 30L0 30L0 40L10 40L10 70L0 70L0 80L10 80L10 90L40 90L40 80L80 80L80 90L90 90L90 70L80 70L80 60L90 60L90 50L80 50L80 30L90 30L90 0L80 0L80 10L70 10L70 0L50 0L50 10L20 10L20 0L0 0z"/>
<path style="fill:#ffffff; stroke:none;" d="M20 0L20 10L50 10L50 0L20 0M70 0L70 10L80 10L80 0L70 0M0 20L0 30L10 30L10 20L0 20M20 20L20 70L70 70L70 20L20 20M80 30L80 50L90 50L90 30L80 30M0 40L0 70L10 70L10 40L0 40z"/>
<path style="fill:#000000; stroke:none;" d="M40 40L40 50L30 50L30 60L40 60L40 50L50 50L50 60L60 60L60 50L50 50L50 40L40 40z"/>
<path style="fill:#ffffff; stroke:none;" d="M80 60L80 70L90 70L90 60L80 60M0 80L0 90L10 90L10 80L0 80M40 80L40 90L80 90L80 80L40 80z"/>
</svg>
