<?xml version="1.0" standalone="yes"?>
<svg xmlns="http://www.w3.org/2000/svg" width="90" height="90">
<path style="fill:#ffffff; stroke:none;" d="M0 0L0 20L10 20L10 10L60 10L60 0L0 0z"/>
<path style="fill:#000000; stroke:none;" d="M60 0L60 10L10 10L10 20L0 20L0 40L10 40L10 60L0 60L0 80L20 80L20 90L30 90L30 80L50 80L50 90L60 90L60 80L90 80L90 60L80 60L80 40L90 40L90 30L80 30L80 20L90 20L90 0L80 0L80 10L70 10L70 0L60 0z"/>
<path style="fill:#ffffff; stroke:none;" d="M70 0L70 10L80 10L80 0L70 0M20 20L20 70L70 70L70 20L20 20M80 20L80 30L90 30L90 20L80 20M0 40L0 60L10 60L10 40L0 40z"/>
<path style="fill:#000000; stroke:none;" d="M40 40L40 50L50 50L50 40L40 40z"/>
<path style="fill:#ffffff; stroke:none;" d="M80 40L80 60L90 60L90 40L80 40M0 80L0 90L20 90L20 80L0 80M30 80L30 90L50 90L50 80L30 80M60 80L60 90L90 90L90 80L60 80z"/>
</svg>
