<?xml version="1.0" standalone="yes"?>
<svg xmlns="http://www.w3.org/2000/svg" width="90" height="90">
<path style="fill:#ffffff; stroke:none;" d="M0 0L0 20L10 20L10 0L0 0z"/>
<path style="fill:#000000; stroke:none;" d="M10 0L10 20L0 20L0 30L10 30L10 40L0 40L0 50L10 50L10 90L20 90L20 80L30 80L30 90L50 90L50 80L60 80L60 90L70 90L70 80L80 80L80 90L90 90L90 80L80 80L80 70L90 70L90 50L80 50L80 40L90 40L90 30L80 30L80 10L70 10L70 0L30 0L30 10L20 10L20 0L10 0z"/>
<path style="fill:#ffffff; stroke:none;" d="M20 0L20 10L30 10L30 0L20 0M70 0L70 10L80 10L80 30L90 30L90 0L70 0M20 20L20 70L70 70L70 20L20 20M0 30L0 40L10 40L10 30L0 30M80 40L80 50L90 50L90 40L80 40M0 50L0 90L10 90L10 50L0 50M80 70L80 80L90 80L90 70L80 70M20 80L20 90L30 90L30 80L20 80M50 80L50 90L60 90L60 80L50 80M70 80L70 90L80 90L80 80L70 80z"/>
</svg>
