<?xml version="1.0" standalone="yes"?>
<svg xmlns="http://www.w3.org/2000/svg" width="90" height="90">
<path style="fill:#000000; stroke:none;" d="M0 0L0 30L10 30L10 60L0 60L0 70L10 70L10 90L20 90L20 80L60 80L60 90L70 90L70 80L80 80L80 90L90 90L90 50L80 50L80 40L90 40L90 0L80 0L80 10L60 10L60 0L50 0L50 10L40 10L40 0L0 0z"/>
<path style="fill:#ffffff; stroke:none;" d="M40 0L40 10L50 10L50 0L40 0M60 0L60 10L80 10L80 0L60 0M20 20L20 70L70 70L70 20L20 20M0 30L0 60L10 60L10 30L0 30z"/>
<path style="fill:#000000; stroke:none;" d="M30 30L30 40L50 40L50 60L60 60L60 40L50 40L50 30L30 30z"/>
<path style="fill:#ffffff; stroke:none;" d="M80 40L80 50L90 50L90 40L80 40z"/>
<path style="fill:#000000; stroke:none;" d="M30 50L30 60L40 60L40 50L30 50z"/>
<path style="fill:#ffffff; stroke:none;" d="M0 70L0 90L10 90L10 70L0 70M20 80L20 90L60 90L60 80L20 80M70 80L70 90L80 90L80 80L70 80z"/>
</svg>
