<?xml version="1.0" standalone="yes"?>
<svg xmlns="http://www.w3.org/2000/svg" width="90" height="90">
<path style="fill:#000000; stroke:none;" d="M0 0L0 20L10 20L10 40L0 40L0 50L10 50L10 60L0 60L0 70L10 70L10 80L0 80L0 90L20 90L20 80L30 80L30 90L50 90L50 80L80 80L80 90L90 90L90 80L80 80L80 70L90 70L90 60L80 60L80 10L60 10L60 0L0 0z"/>
<path style="fill:#ffffff; stroke:none;" d="M60 0L60 10L80 10L80 60L90 60L90 0L60 0M0 20L0 40L10 40L10 20L0 20M20 20L20 70L70 70L70 20L20 20z"/>
<path style="fill:#000000; stroke:none;" d="M30 30L30 50L40 50L40 60L60 60L60 50L40 50L40 40L50 40L50 30L30 30z"/>
<path style="fill:#ffffff; stroke:none;" d="M0 50L0 60L10 60L10 50L0 50M0 70L0 80L10 80L10 70L0 70M80 70L80 80L90 80L90 70L80 70M20 80L20 90L30 90L30 80L20 80M50 80L50 90L80 90L80 80L50 80z"/>
</svg>
