<?xml version="1.0" standalone="yes"?>
<svg xmlns="http://www.w3.org/2000/svg" width="90" height="90">
<path style="fill:#ffffff; stroke:none;" d="M0 0L0 50L10 50L10 10L30 10L30 0L0 0z"/>
<path style="fill:#000000; stroke:none;" d="M30 0L30 10L10 10L10 50L0 50L0 60L10 60L10 80L0 80L0 90L20 90L20 80L40 80L40 90L50 90L50 80L80 80L80 90L90 90L90 80L80 80L80 70L90 70L90 20L80 20L80 0L70 0L70 10L40 10L40 0L30 0z"/>
<path style="fill:#ffffff; stroke:none;" d="M40 0L40 10L70 10L70 0L40 0M80 0L80 20L90 20L90 0L80 0M20 20L20 70L70 70L70 20L20 20z"/>
<path style="fill:#000000; stroke:none;" d="M30 30L30 50L40 50L40 60L60 60L60 50L40 50L40 30L30 30z"/>
<path style="fill:#ffffff; stroke:none;" d="M0 60L0 80L10 80L10 60L0 60M80 70L80 80L90 80L90 70L80 70M20 80L20 90L40 90L40 80L20 80M50 80L50 90L80 90L80 80L50 80z"/>
</svg>
