<?xml version="1.0" standalone="yes"?>
<svg xmlns="http://www.w3.org/2000/svg" width="90" height="90">
<path style="fill:#ffffff; stroke:none;" d="M0 0L0 10L40 10L40 0L0 0z"/>
<path style="fill:#000000; stroke:none;" d="M40 0L40 10L0 10L0 30L10 30L10 40L0 40L0 50L10 50L10 60L0 60L0 80L10 80L10 90L20 90L20 80L40 80L40 90L50 90L50 80L60 80L60 90L90 90L90 80L80 80L80 30L90 30L90 20L80 20L80 10L70 10L70 0L60 0L60 10L50 10L50 0L40 0z"/>
<path style="fill:#ffffff; stroke:none;" d="M50 0L50 10L60 10L60 0L50 0M70 0L70 10L80 10L80 20L90 20L90 0L70 0M20 20L20 70L70 70L70 20L20 20M0 30L0 40L10 40L10 30L0 30z"/>
<path style="fill:#000000; stroke:none;" d="M50 30L50 50L40 50L40 40L30 40L30 50L40 50L40 60L60 60L60 30L50 30z"/>
<path style="fill:#ffffff; stroke:none;" d="M80 30L80 80L90 80L90 30L80 30M0 50L0 60L10 60L10 50L0 50M0 80L0 90L10 90L10 80L0 80M20 80L20 90L40 90L40 80L20 80M50 80L50 90L60 90L60 80L50 80z"/>
</svg>
