<?xml version="1.0" standalone="yes"?>
<svg xmlns="http://www.w3.org/2000/svg" width="90" height="90">
<path style="fill:#ffffff; stroke:none;" d="M0 0L0 10L20 10L20 0L0 0z"/>
<path style="fill:#000000; stroke:none;" d="M20 0L20 10L0 10L0 20L10 20L10 60L0 60L0 70L10 70L10 90L20 90L20 80L30 80L30 90L50 90L50 80L60 80L60 90L70 90L70 80L90 80L90 70L80 70L80 60L90 60L90 30L80 30L80 20L90 20L90 10L30 10L30 0L20 0z"/>
<path style="fill:#ffffff; stroke:none;" d="M30 0L30 10L90 10L90 0L30 0M0 20L0 60L10 60L10 20L0 20M20 20L20 70L70 70L70 20L20 20M80 20L80 30L90 30L90 20L80 20z"/>
<path style="fill:#000000; stroke:none;" d="M30 30L30 40L50 40L50 50L40 50L40 60L60 60L60 30L30 30z"/>
<path style="fill:#ffffff; stroke:none;" d="M80 60L80 70L90 70L90 60L80 60M0 70L0 90L10 90L10 70L0 70M20 80L20 90L30 90L30 80L20 80M50 80L50 90L60 90L60 80L50 80M70 80L70 90L90 90L90 80L70 80z"/>
</svg>
