<?xml version="1.0" standalone="yes"?>
<svg xmlns="http://www.w3.org/2000/svg" width="90" height="90">
<path style="fill:#000000; stroke:none;" d="M0 0L0 20L10 20L10 30L0 30L0 50L10 50L10 60L0 60L0 70L10 70L10 80L20 80L20 90L30 90L30 80L90 80L90 50L80 50L80 30L90 30L90 0L60 0L60 10L30 10L30 0L0 0z"/>
<path style="fill:#ffffff; stroke:none;" d="M30 0L30 10L60 10L60 0L30 0M0 20L0 30L10 30L10 20L0 20M20 20L20 70L70 70L70 20L20 20M80 30L80 50L90 50L90 30L80 30z"/>
<path style="fill:#000000; stroke:none;" d="M30 40L30 60L50 60L50 50L60 50L60 40L30 40z"/>
<path style="fill:#ffffff; stroke:none;" d="M0 50L0 60L10 60L10 50L0 50M0 70L0 90L20 90L20 80L10 80L10 70L0 70M30 80L30 90L90 90L90 80L30 80z"/>
</svg>
