<?xml version="1.0" standalone="yes"?>
<svg xmlns="http://www.w3.org/2000/svg" width="90" height="90">
<path style="fill:#000000; stroke:none;" d="M0 0L0 50L10 50L10 60L0 60L0 90L40 90L40 80L50 80L50 90L70 90L70 80L90 80L90 70L80 70L80 50L90 50L90 40L80 40L80 10L90 10L90 0L80 0L80 10L60 10L60 0L50 0L50 10L30 10L30 0L20 0L20 10L10 10L10 0L0 0z"/>
<path style="fill:#ffffff; stroke:none;" d="M10 0L10 10L20 10L20 0L10 0M30 0L30 10L50 10L50 0L30 0M60 0L60 10L80 10L80 0L60 0M80 10L80 40L90 40L90 10L80 10M20 20L20 70L70 70L70 20L20 20z"/>
<path style="fill:#000000; stroke:none;" d="M30 40L30 60L60 60L60 50L50 50L50 40L30 40z"/>
<path style="fill:#ffffff; stroke:none;" d="M0 50L0 60L10 60L10 50L0 50M80 50L80 70L90 70L90 50L80 50M40 80L40 90L50 90L50 80L40 80M70 80L70 90L90 90L90 80L70 80z"/>
</svg>
