<?xml version="1.0" standalone="yes"?>
<svg xmlns="http://www.w3.org/2000/svg" width="90" height="90">
<path style="fill:#000000; stroke:none;" d="M0 0L0 20L10 20L10 30L0 30L0 40L10 40L10 50L0 50L0 60L10 60L10 80L0 80L0 90L10 90L10 80L40 80L40 90L60 90L60 80L70 80L70 90L80 90L80 80L90 80L90 70L80 70L80 60L90 60L90 50L80 50L80 40L90 40L90 10L80 10L80 0L70 0L70 10L60 10L60 0L30 0L30 10L20 10L20 0L0 0z"/>
<path style="fill:#ffffff; stroke:none;" d="M20 0L20 10L30 10L30 0L20 0M60 0L60 10L70 10L70 0L60 0M80 0L80 10L90 10L90 0L80 0M0 20L0 30L10 30L10 20L0 20M20 20L20 70L70 70L70 20L20 20z"/>
<path style="fill:#000000; stroke:none;" d="M30 30L30 60L50 60L50 50L40 50L40 40L50 40L50 30L30 30z"/>
<path style="fill:#ffffff; stroke:none;" d="M0 40L0 50L10 50L10 40L0 40M80 40L80 50L90 50L90 40L80 40M0 60L0 80L10 80L10 60L0 60M80 60L80 70L90 70L90 60L80 60M10 80L10 90L40 90L40 80L10 80M60 80L60 90L70 90L70 80L60 80M80 80L80 90L90 90L90 80L80 80z"/>
</svg>
