<?xml version="1.0" standalone="yes"?>
<svg xmlns="http://www.w3.org/2000/svg" width="90" height="90">
<path style="fill:#ffffff; stroke:none;" d="M0 0L0 20L10 20L10 0L0 0z"/>
<path style="fill:#000000; stroke:none;" d="M10 0L10 20L0 20L0 30L10 30L10 60L0 60L0 70L10 70L10 80L0 80L0 90L10 90L10 80L20 80L20 90L30 90L30 80L40 80L40 90L50 90L50 80L80 80L80 70L90 70L90 50L80 50L80 30L90 30L90 20L80 20L80 0L10 0z"/>
<path style="fill:#ffffff; stroke:none;" d="M80 0L80 20L90 20L90 0L80 0M20 20L20 70L70 70L70 20L20 20M0 30L0 60L10 60L10 30L0 30z"/>
<path style="fill:#000000; stroke:none;" d="M40 30L40 40L30 40L30 50L40 50L40 60L50 60L50 30L40 30z"/>
<path style="fill:#ffffff; stroke:none;" d="M80 30L80 50L90 50L90 30L80 30M0 70L0 80L10 80L10 70L0 70M80 70L80 80L50 80L50 90L90 90L90 70L80 70M10 80L10 90L20 90L20 80L10 80M30 80L30 90L40 90L40 80L30 80z"/>
</svg>
