<?xml version="1.0" standalone="yes"?>
<svg xmlns="http://www.w3.org/2000/svg" width="90" height="90">
<path style="fill:#000000; stroke:none;" d="M0 0L0 50L10 50L10 70L0 70L0 90L10 90L10 80L30 80L30 90L40 90L40 80L70 80L70 90L90 90L90 50L80 50L80 40L90 40L90 20L80 20L80 0L70 0L70 10L40 10L40 0L30 0L30 10L20 10L20 0L0 0z"/>
<path style="fill:#ffffff; stroke:none;" d="M20 0L20 10L30 10L30 0L20 0M40 0L40 10L70 10L70 0L40 0M80 0L80 20L90 20L90 0L80 0M20 20L20 70L70 70L70 20L20 20z"/>
<path style="fill:#000000; stroke:none;" d="M50 30L50 50L60 50L60 30L50 30M30 40L30 60L40 60L40 40L30 40z"/>
<path style="fill:#ffffff; stroke:none;" d="M80 40L80 50L90 50L90 40L80 40M0 50L0 70L10 70L10 50L0 50M10 80L10 90L30 90L30 80L10 80M40 80L40 90L70 90L70 80L40 80z"/>
</svg>
