<?xml version="1.0" standalone="yes"?>
<svg xmlns="http://www.w3.org/2000/svg" width="90" height="90">
<path style="fill:#ffffff; stroke:none;" d="M0 0L0 10L20 10L20 0L0 0z"/>
<path style="fill:#000000; stroke:none;" d="M20 0L20 10L0 10L0 20L10 20L10 40L0 40L0 60L10 60L10 70L0 70L0 90L10 90L10 80L20 80L20 90L30 90L30 80L50 80L50 90L60 90L60 80L70 80L70 90L90 90L90 0L80 0L80 10L60 10L60 0L40 0L40 10L30 10L30 0L20 0z"/>
<path style="fill:#ffffff; stroke:none;" d="M30 0L30 10L40 10L40 0L30 0M60 0L60 10L80 10L80 0L60 0M0 20L0 40L10 40L10 20L0 20M20 20L20 70L70 70L70 20L20 20z"/>
<path style="fill:#000000; stroke:none;" d="M30 30L30 50L40 50L40 60L50 60L50 30L30 30z"/>
<path style="fill:#ffffff; stroke:none;" d="M0 60L0 70L10 70L10 60L0 60M10 80L10 90L20 90L20 80L10 80M30 80L30 90L50 90L50 80L30 80M60 80L60 90L70 90L70 80L60 80z"/>
</svg>
