<?xml version="1.0" standalone="yes"?>
<svg xmlns="http://www.w3.org/2000/svg" width="90" height="90">
<path style="fill:#000000; stroke:none;" d="M0 0L0 20L10 20L10 30L0 30L0 40L10 40L10 50L0 50L0 60L10 60L10 80L0 80L0 90L10 90L10 80L20 80L20 90L30 90L30 80L50 80L50 90L80 90L80 50L90 50L90 30L80 30L80 20L90 20L90 10L70 10L70 0L60 0L60 10L10 10L10 0L0 0z"/>
<path style="fill:#ffffff; stroke:none;" d="M10 0L10 10L60 10L60 0L10 0M70 0L70 10L90 10L90 0L70 0M0 20L0 30L10 30L10 20L0 20M20 20L20 70L70 70L70 20L20 20M80 20L80 30L90 30L90 20L80 20z"/>
<path style="fill:#000000; stroke:none;" d="M40 30L40 40L30 40L30 50L40 50L40 40L50 40L50 30L40 30z"/>
<path style="fill:#ffffff; stroke:none;" d="M0 40L0 50L10 50L10 40L0 40M80 50L80 90L90 90L90 50L80 50M0 60L0 80L10 80L10 60L0 60M10 80L10 90L20 90L20 80L10 80M30 80L30 90L50 90L50 80L30 80z"/>
</svg>
