<?xml version="1.0" standalone="yes"?>
<svg xmlns="http://www.w3.org/2000/svg" width="90" height="90">
<path style="fill:#ffffff; stroke:none;" d="M0 0L0 10L40 10L40 0L0 0z"/>
<path style="fill:#000000; stroke:none;" d="M40 0L40 10L0 10L0 30L10 30L10 40L0 40L0 50L10 50L10 90L30 90L30 80L50 80L50 90L60 90L60 80L80 80L80 90L90 90L90 80L80 80L80 40L90 40L90 20L80 20L80 10L90 10L90 0L70 0L70 10L60 10L60 0L40 0z"/>
<path style="fill:#ffffff; stroke:none;" d="M60 0L60 10L70 10L70 0L60 0M80 10L80 20L90 20L90 10L80 10M20 20L20 70L70 70L70 20L20 20M0 30L0 40L10 40L10 30L0 30z"/>
<path style="fill:#000000; stroke:none;" d="M30 30L30 40L40 40L40 30L30 30z"/>
<path style="fill:#ffffff; stroke:none;" d="M80 40L80 80L90 80L90 40L80 40M0 50L0 90L10 90L10 50L0 50z"/>
<path style="fill:#000000; stroke:none;" d="M40 50L40 60L60 60L60 50L40 50z"/>
<path style="fill:#ffffff; stroke:none;" d="M30 80L30 90L50 90L50 80L30 80M60 80L60 90L80 90L80 80L60 80z"/>
</svg>
