<?xml version="1.0" standalone="yes"?>
<svg xmlns="http://www.w3.org/2000/svg" width="90" height="90">
<path style="fill:#000000; stroke:none;" d="M0 0L0 30L10 30L10 40L0 40L0 50L10 50L10 60L0 60L0 70L10 70L10 80L0 80L0 90L20 90L20 80L40 80L40 90L50 90L50 80L70 80L70 90L80 90L80 20L90 20L90 10L40 10L40 0L0 0z"/>
<path style="fill:#ffffff; stroke:none;" d="M40 0L40 10L90 10L90 0L40 0M20 20L20 70L70 70L70 20L20 20M80 20L80 90L90 90L90 20L80 20M0 30L0 40L10 40L10 30L0 30z"/>
<path style="fill:#000000; stroke:none;" d="M40 30L40 50L30 50L30 60L60 60L60 40L50 40L50 30L40 30z"/>
<path style="fill:#ffffff; stroke:none;" d="M0 50L0 60L10 60L10 50L0 50M0 70L0 80L10 80L10 70L0 70M20 80L20 90L40 90L40 80L20 80M50 80L50 90L70 90L70 80L50 80z"/>
</svg>
