<?xml version="1.0" standalone="yes"?>
<svg xmlns="http://www.w3.org/2000/svg" width="90" height="90">
<path style="fill:#ffffff; stroke:none;" d="M0 0L0 10L30 10L30 0L0 0z"/>
<path style="fill:#000000; stroke:none;" d="M30 0L30 10L0 10L0 30L10 30L10 40L0 40L0 50L10 50L10 70L0 70L0 90L20 90L20 80L60 80L60 90L70 90L70 80L90 80L90 50L80 50L80 20L90 20L90 0L50 0L50 10L40 10L40 0L30 0z"/>
<path style="fill:#ffffff; stroke:none;" d="M40 0L40 10L50 10L50 0L40 0M20 20L20 70L70 70L70 20L20 20M80 20L80 50L90 50L90 20L80 20M0 30L0 40L10 40L10 30L0 30z"/>
<path style="fill:#000000; stroke:none;" d="M40 40L40 50L50 50L50 60L60 60L60 40L40 40z"/>
<path style="fill:#ffffff; stroke:none;" d="M0 50L0 70L10 70L10 50L0 50M20 80L20 90L60 90L60 80L20 80M70 80L70 90L90 90L90 80L70 80z"/>
</svg>
