<?xml version="1.0" standalone="yes"?>
<svg xmlns="http://www.w3.org/2000/svg" width="90" height="90">
<path style="fill:#000000; stroke:none;" d="M0 0L0 10L10 10L10 40L0 40L0 70L10 70L10 80L0 80L0 90L30 90L30 80L40 80L40 90L60 90L60 80L80 80L80 90L90 90L90 70L80 70L80 40L90 40L90 30L80 30L80 10L10 10L10 0L0 0z"/>
<path style="fill:#ffffff; stroke:none;" d="M10 0L10 10L80 10L80 30L90 30L90 0L10 0M0 10L0 40L10 40L10 10L0 10M20 20L20 70L70 70L70 20L20 20z"/>
<path style="fill:#000000; stroke:none;" d="M40 30L40 40L50 40L50 50L40 50L40 60L50 60L50 50L60 50L60 40L50 40L50 30L40 30z"/>
<path style="fill:#ffffff; stroke:none;" d="M80 40L80 70L90 70L90 40L80 40M0 70L0 80L10 80L10 70L0 70M30 80L30 90L40 90L40 80L30 80M60 80L60 90L80 90L80 80L60 80z"/>
</svg>
