<?xml version="1.0" standalone="yes"?>
<svg xmlns="http://www.w3.org/2000/svg" width="90" height="90">
<path style="fill:#ffffff; stroke:none;" d="M0 0L0 20L10 20L10 0L0 0z"/>
<path style="fill:#000000; stroke:none;" d="M10 0L10 20L0 20L0 40L10 40L10 80L0 80L0 90L20 90L20 80L80 80L80 50L90 50L90 30L80 30L80 20L90 20L90 10L60 10L60 0L40 0L40 10L30 10L30 0L10 0z"/>
<path style="fill:#ffffff; stroke:none;" d="M30 0L30 10L40 10L40 0L30 0M60 0L60 10L90 10L90 0L60 0M20 20L20 70L70 70L70 20L20 20M80 20L80 30L90 30L90 20L80 20z"/>
<path style="fill:#000000; stroke:none;" d="M40 30L40 50L50 50L50 40L60 40L60 30L40 30z"/>
<path style="fill:#ffffff; stroke:none;" d="M0 40L0 80L10 80L10 40L0 40M80 50L80 80L20 80L20 90L90 90L90 50L80 50z"/>
</svg>
