<?xml version="1.0" standalone="yes"?>
<svg xmlns="http://www.w3.org/2000/svg" width="90" height="90">
<path style="fill:#000000; stroke:none;" d="M0 0L0 10L10 10L10 70L0 70L0 80L20 80L20 90L30 90L30 80L80 80L80 70L90 70L90 30L80 30L80 20L90 20L90 0L80 0L80 10L70 10L70 0L60 0L60 10L40 10L40 0L0 0z"/>
<path style="fill:#ffffff; stroke:none;" d="M40 0L40 10L60 10L60 0L40 0M70 0L70 10L80 10L80 0L70 0M0 10L0 70L10 70L10 10L0 10M20 20L20 70L70 70L70 20L20 20M80 20L80 30L90 30L90 20L80 20z"/>
<path style="fill:#000000; stroke:none;" d="M30 30L30 60L40 60L40 50L60 50L60 30L30 30z"/>
<path style="fill:#ffffff; stroke:none;" d="M80 70L80 80L30 80L30 90L90 90L90 70L80 70M0 80L0 90L20 90L20 80L0 80z"/>
</svg>
