<?xml version="1.0" standalone="yes"?>
<svg xmlns="http://www.w3.org/2000/svg" width="90" height="90">
<path style="fill:#ffffff; stroke:none;" d="M0 0L0 60L10 60L10 10L40 10L40 0L0 0z"/>
<path style="fill:#000000; stroke:none;" d="M40 0L40 10L10 10L10 60L0 60L0 80L10 80L10 90L30 90L30 80L70 80L70 90L90 90L90 40L80 40L80 30L90 30L90 20L80 20L80 0L40 0z"/>
<path style="fill:#ffffff; stroke:none;" d="M80 0L80 20L90 20L90 0L80 0M20 20L20 70L70 70L70 20L20 20z"/>
<path style="fill:#000000; stroke:none;" d="M40 30L40 40L30 40L30 50L40 50L40 60L50 60L50 30L40 30z"/>
<path style="fill:#ffffff; stroke:none;" d="M80 30L80 40L90 40L90 30L80 30M0 80L0 90L10 90L10 80L0 80M30 80L30 90L70 90L70 80L30 80z"/>
</svg>
