<?xml version="1.0" standalone="yes"?>
<svg xmlns="http://www.w3.org/2000/svg" width="90" height="90">
<path style="fill:#ffffff; stroke:none;" d="M0 0L0 10L20 10L20 0L0 0z"/>
<path style="fill:#000000; stroke:none;" d="M20 0L20 10L0 10L0 70L10 70L10 80L0 80L0 90L10 90L10 80L20 80L20 90L30 90L30 80L40 80L40 90L50 90L50 80L80 80L80 90L90 90L90 80L80 80L80 60L90 60L90 50L80 50L80 30L90 30L90 20L80 20L80 10L70 10L70 0L60 0L60 10L50 10L50 0L20 0z"/>
<path style="fill:#ffffff; stroke:none;" d="M50 0L50 10L60 10L60 0L50 0M70 0L70 10L80 10L80 20L90 20L90 0L70 0M20 20L20 70L70 70L70 20L20 20z"/>
<path style="fill:#000000; stroke:none;" d="M30 30L30 40L50 40L50 30L30 30z"/>
<path style="fill:#ffffff; stroke:none;" d="M80 30L80 50L90 50L90 30L80 30z"/>
<path style="fill:#000000; stroke:none;" d="M30 50L30 60L50 60L50 50L30 50z"/>
<path style="fill:#ffffff; stroke:none;" d="M80 60L80 80L90 80L90 60L80 60M0 70L0 80L10 80L10 70L0 70M10 80L10 90L20 90L20 80L10 80M30 80L30 90L40 90L40 80L30 80M50 80L50 90L80 90L80 80L50 80z"/>
</svg>
