<?xml version="1.0" standalone="yes"?>
<svg xmlns="http://www.w3.org/2000/svg" width="90" height="90">
<path style="fill:#ffffff; stroke:none;" d="M0 0L0 20L10 20L10 0L0 0z"/>
<path style="fill:#000000; stroke:none;" d="M10 0L10 20L0 20L0 30L10 30L10 40L0 40L0 60L10 60L10 80L0 80L0 90L10 90L10 80L40 80L40 90L70 90L70 80L90 80L90 70L80 70L80 30L90 30L90 20L80 20L80 10L90 10L90 0L80 0L80 10L70 10L70 0L60 0L60 10L50 10L50 0L10 0z"/>
<path style="fill:#ffffff; stroke:none;" d="M50 0L50 10L60 10L60 0L50 0M70 0L70 10L80 10L80 0L70 0M80 10L80 20L90 20L90 10L80 10M20 20L20 70L70 70L70 20L20 20M0 30L0 40L10 40L10 30L0 30z"/>
<path style="fill:#000000; stroke:none;" d="M30 30L30 40L40 40L40 30L30 30z"/>
<path style="fill:#ffffff; stroke:none;" d="M80 30L80 70L90 70L90 30L80 30M0 60L0 80L10 80L10 60L0 60M10 80L10 90L40 90L40 80L10 80M70 80L70 90L90 90L90 80L70 80z"/>
</svg>
