<?xml version="1.0" standalone="yes"?>
<svg xmlns="http://www.w3.org/2000/svg" width="90" height="90">
<path style="fill:#ffffff; stroke:none;" d="M0 0L0 30L10 30L10 0L0 0z"/>
<path style="fill:#000000; stroke:none;" d="M10 0L10 30L0 30L0 50L10 50L10 60L0 60L0 70L10 70L10 80L0 80L0 90L10 90L10 80L70 80L70 90L80 90L80 80L90 80L90 70L80 70L80 40L90 40L90 30L80 30L80 10L90 10L90 0L80 0L80 10L50 10L50 0L10 0z"/>
<path style="fill:#ffffff; stroke:none;" d="M50 0L50 10L80 10L80 0L50 0M80 10L80 30L90 30L90 10L80 10M20 20L20 70L70 70L70 20L20 20z"/>
<path style="fill:#000000; stroke:none;" d="M50 40L50 50L40 50L40 60L60 60L60 40L50 40z"/>
<path style="fill:#ffffff; stroke:none;" d="M80 40L80 70L90 70L90 40L80 40M0 50L0 60L10 60L10 50L0 50M0 70L0 80L10 80L10 70L0 70M10 80L10 90L70 90L70 80L10 80M80 80L80 90L90 90L90 80L80 80z"/>
</svg>
