<?xml version="1.0" standalone="yes"?>
<svg xmlns="http://www.w3.org/2000/svg" width="90" height="90">
<path style="fill:#000000; stroke:none;" d="M0 0L0 10L10 10L10 50L0 50L0 90L10 90L10 80L20 80L20 90L40 90L40 80L50 80L50 90L60 90L60 80L70 80L70 90L80 90L80 80L90 80L90 60L80 60L80 50L90 50L90 40L80 40L80 30L90 30L90 20L80 20L80 0L60 0L60 10L50 10L50 0L40 0L40 10L30 10L30 0L20 0L20 10L10 10L10 0L0 0z"/>
<path style="fill:#ffffff; stroke:none;" d="M10 0L10 10L20 10L20 0L10 0M30 0L30 10L40 10L40 0L30 0M50 0L50 10L60 10L60 0L50 0M80 0L80 20L90 20L90 0L80 0M0 10L0 50L10 50L10 10L0 10M20 20L20 70L70 70L70 20L20 20z"/>
<path style="fill:#000000; stroke:none;" d="M30 30L30 40L40 40L40 50L30 50L30 60L50 60L50 30L30 30z"/>
<path style="fill:#ffffff; stroke:none;" d="M80 30L80 40L90 40L90 30L80 30M80 50L80 60L90 60L90 50L80 50M10 80L10 90L20 90L20 80L10 80M40 80L40 90L50 90L50 80L40 80M60 80L60 90L70 90L70 80L60 80M80 80L80 90L90 90L90 80L80 80z"/>
</svg>
