<?xml version="1.0" standalone="yes"?>
<svg xmlns="http://www.w3.org/2000/svg" width="90" height="90">
<path style="fill:#000000; stroke:none;" d="M0 0L0 10L10 10L10 40L0 40L0 70L10 70L10 80L20 80L20 90L50 90L50 80L80 80L80 60L90 60L90 50L80 50L80 0L60 0L60 10L30 10L30 0L20 0L20 10L10 10L10 0L0 0z"/>
<path style="fill:#ffffff; stroke:none;" d="M10 0L10 10L20 10L20 0L10 0M30 0L30 10L60 10L60 0L30 0M80 0L80 50L90 50L90 0L80 0M0 10L0 40L10 40L10 10L0 10M20 20L20 70L70 70L70 20L20 20z"/>
<path style="fill:#000000; stroke:none;" d="M30 30L30 40L50 40L50 60L60 60L60 40L50 40L50 30L30 30M30 50L30 60L40 60L40 50L30 50z"/>
<path style="fill:#ffffff; stroke:none;" d="M80 60L80 80L50 80L50 90L90 90L90 60L80 60M0 70L0 90L20 90L20 80L10 80L10 70L0 70z"/>
</svg>
