<?xml version="1.0" standalone="yes"?>
<svg xmlns="http://www.w3.org/2000/svg" width="90" height="90">
<path style="fill:#ffffff; stroke:none;" d="M0 0L0 10L60 10L60 0L0 0z"/>
<path style="fill:#000000; stroke:none;" d="M60 0L60 10L0 10L0 50L10 50L10 70L0 70L0 90L10 90L10 80L20 80L20 90L30 90L30 80L80 80L80 90L90 90L90 80L80 80L80 60L90 60L90 50L80 50L80 20L90 20L90 0L80 0L80 10L70 10L70 0L60 0z"/>
<path style="fill:#ffffff; stroke:none;" d="M70 0L70 10L80 10L80 0L70 0M20 20L20 70L70 70L70 20L20 20M80 20L80 50L90 50L90 20L80 20z"/>
<path style="fill:#000000; stroke:none;" d="M30 30L30 40L40 40L40 30L30 30M50 30L50 50L40 50L40 60L50 60L50 50L60 50L60 30L50 30z"/>
<path style="fill:#ffffff; stroke:none;" d="M0 50L0 70L10 70L10 50L0 50M80 60L80 80L90 80L90 60L80 60M10 80L10 90L20 90L20 80L10 80M30 80L30 90L80 90L80 80L30 80z"/>
</svg>
