<?xml version="1.0" standalone="yes"?>
<svg xmlns="http://www.w3.org/2000/svg" width="90" height="90">
<path style="fill:#000000; stroke:none;" d="M0 0L0 20L10 20L10 30L0 30L0 50L10 50L10 90L20 90L20 80L40 80L40 90L70 90L70 80L90 80L90 70L80 70L80 50L90 50L90 30L80 30L80 20L90 20L90 0L80 0L80 10L20 10L20 0L0 0z"/>
<path style="fill:#ffffff; stroke:none;" d="M20 0L20 10L80 10L80 0L20 0M0 20L0 30L10 30L10 20L0 20M20 20L20 70L70 70L70 20L20 20M80 20L80 30L90 30L90 20L80 20z"/>
<path style="fill:#000000; stroke:none;" d="M30 30L30 60L40 60L40 50L50 50L50 60L60 60L60 40L40 40L40 30L30 30z"/>
<path style="fill:#ffffff; stroke:none;" d="M0 50L0 90L10 90L10 50L0 50M80 50L80 70L90 70L90 50L80 50M20 80L20 90L40 90L40 80L20 80M70 80L70 90L90 90L90 80L70 80z"/>
</svg>
