<?xml version="1.0" standalone="yes"?>
<svg xmlns="http://www.w3.org/2000/svg" width="90" height="90">
<path style="fill:#000000; stroke:none;" d="M0 0L0 30L10 30L10 40L0 40L0 50L10 50L10 80L20 80L20 90L30 90L30 80L50 80L50 90L70 90L70 80L90 80L90 70L80 70L80 50L90 50L90 40L80 40L80 30L90 30L90 0L80 0L80 10L70 10L70 0L40 0L40 10L20 10L20 0L0 0z"/>
<path style="fill:#ffffff; stroke:none;" d="M20 0L20 10L40 10L40 0L20 0M70 0L70 10L80 10L80 0L70 0M20 20L20 70L70 70L70 20L20 20M0 30L0 40L10 40L10 30L0 30z"/>
<path style="fill:#000000; stroke:none;" d="M30 30L30 60L40 60L40 30L30 30M50 30L50 40L60 40L60 30L50 30z"/>
<path style="fill:#ffffff; stroke:none;" d="M80 30L80 40L90 40L90 30L80 30M0 50L0 90L20 90L20 80L10 80L10 50L0 50M80 50L80 70L90 70L90 50L80 50M30 80L30 90L50 90L50 80L30 80M70 80L70 90L90 90L90 80L70 80z"/>
</svg>
