<?xml version="1.0" standalone="yes"?>
<svg xmlns="http://www.w3.org/2000/svg" width="90" height="90">
<path style="fill:#ffffff; stroke:none;" d="M0 0L0 10L20 10L20 0L0 0z"/>
<path style="fill:#000000; stroke:none;" d="M20 0L20 10L0 10L0 30L10 30L10 90L50 90L50 80L60 80L60 90L70 90L70 80L90 80L90 60L80 60L80 50L90 50L90 40L80 40L80 20L90 20L90 0L70 0L70 10L60 10L60 0L20 0z"/>
<path style="fill:#ffffff; stroke:none;" d="M60 0L60 10L70 10L70 0L60 0M20 20L20 70L70 70L70 20L20 20M80 20L80 40L90 40L90 20L80 20M0 30L0 90L10 90L10 30L0 30z"/>
<path style="fill:#000000; stroke:none;" d="M50 30L50 40L60 40L60 30L50 30M40 50L40 60L60 60L60 50L40 50z"/>
<path style="fill:#ffffff; stroke:none;" d="M80 50L80 60L90 60L90 50L80 50M50 80L50 90L60 90L60 80L50 80M70 80L70 90L90 90L90 80L70 80z"/>
</svg>
