<?xml version="1.0" standalone="yes"?>
<svg xmlns="http://www.w3.org/2000/svg" width="90" height="90">
<path style="fill:#000000; stroke:none;" d="M0 0L0 30L10 30L10 40L0 40L0 60L10 60L10 80L0 80L0 90L20 90L20 80L40 80L40 90L50 90L50 80L70 80L70 90L80 90L80 60L90 60L90 40L80 40L80 30L90 30L90 10L70 10L70 0L0 0z"/>
<path style="fill:#ffffff; stroke:none;" d="M70 0L70 10L90 10L90 0L70 0M20 20L20 70L70 70L70 20L20 20M0 30L0 40L10 40L10 30L0 30M80 30L80 40L90 40L90 30L80 30z"/>
<path style="fill:#000000; stroke:none;" d="M30 40L30 50L40 50L40 40L30 40M50 40L50 60L60 60L60 40L50 40z"/>
<path style="fill:#ffffff; stroke:none;" d="M0 60L0 80L10 80L10 60L0 60M80 60L80 90L90 90L90 60L80 60M20 80L20 90L40 90L40 80L20 80M50 80L50 90L70 90L70 80L50 80z"/>
</svg>
