<?xml version="1.0" standalone="yes"?>
<svg xmlns="http://www.w3.org/2000/svg" width="90" height="90">
<path style="fill:#ffffff; stroke:none;" d="M0 0L0 30L10 30L10 0L0 0z"/>
<path style="fill:#000000; stroke:none;" d="M10 0L10 30L0 30L0 90L10 90L10 80L30 80L30 90L40 90L40 80L70 80L70 90L90 90L90 80L80 80L80 60L90 60L90 50L80 50L80 10L90 10L90 0L80 0L80 10L50 10L50 0L40 0L40 10L20 10L20 0L10 0z"/>
<path style="fill:#ffffff; stroke:none;" d="M20 0L20 10L40 10L40 0L20 0M50 0L50 10L80 10L80 0L50 0M80 10L80 50L90 50L90 10L80 10M20 20L20 70L70 70L70 20L20 20z"/>
<path style="fill:#000000; stroke:none;" d="M40 30L40 40L30 40L30 60L40 60L40 50L50 50L50 60L60 60L60 50L50 50L50 40L60 40L60 30L40 30z"/>
<path style="fill:#ffffff; stroke:none;" d="M80 60L80 80L90 80L90 60L80 60M10 80L10 90L30 90L30 80L10 80M40 80L40 90L70 90L70 80L40 80z"/>
</svg>
