<?xml version="1.0" standalone="yes"?>
<svg xmlns="http://www.w3.org/2000/svg" width="90" height="90">
<path style="fill:#000000; stroke:none;" d="M0 0L0 10L10 10L10 20L0 20L0 30L10 30L10 70L0 70L0 90L20 90L20 80L40 80L40 90L50 90L50 80L60 80L60 90L90 90L90 80L80 80L80 60L90 60L90 50L80 50L80 40L90 40L90 20L80 20L80 10L90 10L90 0L70 0L70 10L50 10L50 0L40 0L40 10L20 10L20 0L0 0z"/>
<path style="fill:#ffffff; stroke:none;" d="M20 0L20 10L40 10L40 0L20 0M50 0L50 10L70 10L70 0L50 0M0 10L0 20L10 20L10 10L0 10M80 10L80 20L90 20L90 10L80 10M20 20L20 70L70 70L70 20L20 20M0 30L0 70L10 70L10 30L0 30z"/>
<path style="fill:#000000; stroke:none;" d="M30 30L30 50L40 50L40 60L50 60L50 40L60 40L60 30L50 30L50 40L40 40L40 30L30 30z"/>
<path style="fill:#ffffff; stroke:none;" d="M80 40L80 50L90 50L90 40L80 40M80 60L80 80L90 80L90 60L80 60M20 80L20 90L40 90L40 80L20 80M50 80L50 90L60 90L60 80L50 80z"/>
</svg>
