<?xml version="1.0" standalone="yes"?>
<svg xmlns="http://www.w3.org/2000/svg" width="90" height="90">
<path style="fill:#000000; stroke:none;" d="M0 0L0 40L10 40L10 60L0 60L0 70L10 70L10 80L0 80L0 90L10 90L10 80L70 80L70 90L90 90L90 80L80 80L80 60L90 60L90 40L80 40L80 20L90 20L90 0L70 0L70 10L60 10L60 0L40 0L40 10L30 10L30 0L20 0L20 10L10 10L10 0L0 0z"/>
<path style="fill:#ffffff; stroke:none;" d="M10 0L10 10L20 10L20 0L10 0M30 0L30 10L40 10L40 0L30 0M60 0L60 10L70 10L70 0L60 0M20 20L20 70L70 70L70 20L20 20M80 20L80 40L90 40L90 20L80 20z"/>
<path style="fill:#000000; stroke:none;" d="M30 30L30 50L50 50L50 60L60 60L60 50L50 50L50 40L60 40L60 30L50 30L50 40L40 40L40 30L30 30z"/>
<path style="fill:#ffffff; stroke:none;" d="M0 40L0 60L10 60L10 40L0 40M80 60L80 80L90 80L90 60L80 60M0 70L0 80L10 80L10 70L0 70M10 80L10 90L70 90L70 80L10 80z"/>
</svg>
