<?xml version="1.0" standalone="yes"?>
<svg xmlns="http://www.w3.org/2000/svg" width="90" height="90">
<path style="fill:#ffffff; stroke:none;" d="M0 0L0 10L10 10L10 0L0 0z"/>
<path style="fill:#000000; stroke:none;" d="M10 0L10 10L0 10L0 50L10 50L10 60L0 60L0 90L10 90L10 80L40 80L40 90L50 90L50 80L70 80L70 90L90 90L90 70L80 70L80 60L90 60L90 50L80 50L80 20L90 20L90 10L60 10L60 0L50 0L50 10L40 10L40 0L10 0z"/>
<path style="fill:#ffffff; stroke:none;" d="M40 0L40 10L50 10L50 0L40 0M60 0L60 10L90 10L90 0L60 0M20 20L20 70L70 70L70 20L20 20M80 20L80 50L90 50L90 20L80 20z"/>
<path style="fill:#000000; stroke:none;" d="M50 30L50 60L60 60L60 30L50 30M30 40L30 60L40 60L40 40L30 40z"/>
<path style="fill:#ffffff; stroke:none;" d="M0 50L0 60L10 60L10 50L0 50M80 60L80 70L90 70L90 60L80 60M10 80L10 90L40 90L40 80L10 80M50 80L50 90L70 90L70 80L50 80z"/>
</svg>
