<?xml version="1.0" standalone="yes"?>
<svg xmlns="http://www.w3.org/2000/svg" width="90" height="90">
<path style="fill:#ffffff; stroke:none;" d="M0 0L0 80L10 80L10 90L20 90L20 80L10 80L10 0L0 0z"/>
<path style="fill:#000000; stroke:none;" d="M10 0L10 80L20 80L20 90L40 90L40 80L70 80L70 90L90 90L90 80L80 80L80 40L90 40L90 30L80 30L80 0L70 0L70 10L50 10L50 0L40 0L40 10L20 10L20 0L10 0z"/>
<path style="fill:#ffffff; stroke:none;" d="M20 0L20 10L40 10L40 0L20 0M50 0L50 10L70 10L70 0L50 0M80 0L80 30L90 30L90 0L80 0M20 20L20 70L70 70L70 20L20 20z"/>
<path style="fill:#000000; stroke:none;" d="M40 30L40 40L50 40L50 50L30 50L30 60L60 60L60 40L50 40L50 30L40 30z"/>
<path style="fill:#ffffff; stroke:none;" d="M80 40L80 80L90 80L90 40L80 40z"/>
<path style="fill:#000000; stroke:none;" d="M0 80L0 90L10 90L10 80L0 80z"/>
<path style="fill:#ffffff; stroke:none;" d="M40 80L40 90L70 90L70 80L40 80z"/>
</svg>
