<?xml version="1.0" standalone="yes"?>
<svg xmlns="http://www.w3.org/2000/svg" width="90" height="90">
<path style="fill:#000000; stroke:none;" d="M0 0L0 10L10 10L10 20L0 20L0 50L10 50L10 60L0 60L0 70L10 70L10 80L50 80L50 90L70 90L70 80L90 80L90 70L80 70L80 40L90 40L90 10L80 10L80 0L60 0L60 10L10 10L10 0L0 0z"/>
<path style="fill:#ffffff; stroke:none;" d="M10 0L10 10L60 10L60 0L10 0M80 0L80 10L90 10L90 0L80 0M0 10L0 20L10 20L10 10L0 10M20 20L20 70L70 70L70 20L20 20z"/>
<path style="fill:#000000; stroke:none;" d="M30 30L30 50L50 50L50 60L60 60L60 40L40 40L40 30L30 30z"/>
<path style="fill:#ffffff; stroke:none;" d="M80 40L80 70L90 70L90 40L80 40M0 50L0 60L10 60L10 50L0 50M0 70L0 90L50 90L50 80L10 80L10 70L0 70M70 80L70 90L90 90L90 80L70 80z"/>
</svg>
