<?xml version="1.0" standalone="yes"?>
<svg xmlns="http://www.w3.org/2000/svg" width="90" height="90">
<path style="fill:#ffffff; stroke:none;" d="M0 0L0 70L10 70L10 0L0 0z"/>
<path style="fill:#000000; stroke:none;" d="M10 0L10 70L0 70L0 80L20 80L20 90L30 90L30 80L40 80L40 90L50 90L50 80L70 80L70 90L90 90L90 80L80 80L80 40L90 40L90 30L80 30L80 20L90 20L90 0L80 0L80 10L60 10L60 0L10 0z"/>
<path style="fill:#ffffff; stroke:none;" d="M60 0L60 10L80 10L80 0L60 0M20 20L20 70L70 70L70 20L20 20M80 20L80 30L90 30L90 20L80 20z"/>
<path style="fill:#000000; stroke:none;" d="M30 30L30 60L40 60L40 40L50 40L50 50L60 50L60 40L50 40L50 30L30 30z"/>
<path style="fill:#ffffff; stroke:none;" d="M80 40L80 80L90 80L90 40L80 40M0 80L0 90L20 90L20 80L0 80M30 80L30 90L40 90L40 80L30 80M50 80L50 90L70 90L70 80L50 80z"/>
</svg>
