<?xml version="1.0" standalone="yes"?>
<svg xmlns="http://www.w3.org/2000/svg" width="90" height="90">
<path style="fill:#000000; stroke:none;" d="M0 0L0 30L10 30L10 50L0 50L0 60L10 60L10 80L20 80L20 90L30 90L30 80L50 80L50 90L60 90L60 80L80 80L80 90L90 90L90 60L80 60L80 40L90 40L90 30L80 30L80 10L90 10L90 0L80 0L80 10L70 10L70 0L30 0L30 10L20 10L20 0L0 0z"/>
<path style="fill:#ffffff; stroke:none;" d="M20 0L20 10L30 10L30 0L20 0M70 0L70 10L80 10L80 0L70 0M80 10L80 30L90 30L90 10L80 10M20 20L20 70L70 70L70 20L20 20M0 30L0 50L10 50L10 30L0 30z"/>
<path style="fill:#000000; stroke:none;" d="M30 30L30 50L50 50L50 30L30 30z"/>
<path style="fill:#ffffff; stroke:none;" d="M80 40L80 60L90 60L90 40L80 40M0 60L0 90L20 90L20 80L10 80L10 60L0 60M30 80L30 90L50 90L50 80L30 80M60 80L60 90L80 90L80 80L60 80z"/>
</svg>
