<?xml version="1.0" standalone="yes"?>
<svg xmlns="http://www.w3.org/2000/svg" width="90" height="90">
<path style="fill:#ffffff; stroke:none;" d="M0 0L0 10L20 10L20 0L0 0z"/>
<path style="fill:#000000; stroke:none;" d="M20 0L20 10L0 10L0 20L10 20L10 50L0 50L0 90L10 90L10 80L30 80L30 90L50 90L50 80L70 80L70 90L90 90L90 80L80 80L80 10L90 10L90 0L80 0L80 10L70 10L70 0L20 0z"/>
<path style="fill:#ffffff; stroke:none;" d="M70 0L70 10L80 10L80 0L70 0M80 10L80 80L90 80L90 10L80 10M0 20L0 50L10 50L10 20L0 20M20 20L20 70L70 70L70 20L20 20z"/>
<path style="fill:#000000; stroke:none;" d="M30 40L30 60L60 60L60 40L30 40z"/>
<path style="fill:#ffffff; stroke:none;" d="M10 80L10 90L30 90L30 80L10 80M50 80L50 90L70 90L70 80L50 80z"/>
</svg>
