<?xml version="1.0" standalone="yes"?>
<svg xmlns="http://www.w3.org/2000/svg" width="90" height="90">
<path style="fill:#ffffff; stroke:none;" d="M0 0L0 10L10 10L10 0L0 0z"/>
<path style="fill:#000000; stroke:none;" d="M10 0L10 10L0 10L0 40L10 40L10 70L0 70L0 80L20 80L20 90L30 90L30 80L50 80L50 90L70 90L70 80L80 80L80 90L90 90L90 40L80 40L80 30L90 30L90 10L80 10L80 0L60 0L60 10L50 10L50 0L40 0L40 10L30 10L30 0L10 0z"/>
<path style="fill:#ffffff; stroke:none;" d="M30 0L30 10L40 10L40 0L30 0M50 0L50 10L60 10L60 0L50 0M80 0L80 10L90 10L90 0L80 0M20 20L20 70L70 70L70 20L20 20z"/>
<path style="fill:#000000; stroke:none;" d="M40 30L40 40L30 40L30 60L40 60L40 50L50 50L50 60L60 60L60 50L50 50L50 40L60 40L60 30L40 30z"/>
<path style="fill:#ffffff; stroke:none;" d="M80 30L80 40L90 40L90 30L80 30M0 40L0 70L10 70L10 40L0 40M0 80L0 90L20 90L20 80L0 80M30 80L30 90L50 90L50 80L30 80M70 80L70 90L80 90L80 80L70 80z"/>
</svg>
