<?xml version="1.0" standalone="yes"?>
<svg xmlns="http://www.w3.org/2000/svg" width="90" height="90">
<path style="fill:#000000; stroke:none;" d="M0 0L0 10L10 10L10 30L0 30L0 80L10 80L10 90L50 90L50 80L60 80L60 90L80 90L80 50L90 50L90 30L80 30L80 10L90 10L90 0L80 0L80 10L60 10L60 0L50 0L50 10L30 10L30 0L0 0z"/>
<path style="fill:#ffffff; stroke:none;" d="M30 0L30 10L50 10L50 0L30 0M60 0L60 10L80 10L80 0L60 0M0 10L0 30L10 30L10 10L0 10M80 10L80 30L90 30L90 10L80 10M20 20L20 70L70 70L70 20L20 20z"/>
<path style="fill:#000000; stroke:none;" d="M30 30L30 60L60 60L60 40L50 40L50 30L30 30z"/>
<path style="fill:#ffffff; stroke:none;" d="M80 50L80 90L90 90L90 50L80 50M0 80L0 90L10 90L10 80L0 80M50 80L50 90L60 90L60 80L50 80z"/>
</svg>
