<?xml version="1.0" standalone="yes"?>
<svg xmlns="http://www.w3.org/2000/svg" width="90" height="90">
<path style="fill:#000000; stroke:none;" d="M0 0L0 10L10 10L10 20L0 20L0 50L10 50L10 60L0 60L0 90L10 90L10 80L20 80L20 90L40 90L40 80L50 80L50 90L90 90L90 60L80 60L80 50L90 50L90 0L70 0L70 10L30 10L30 0L0 0z"/>
<path style="fill:#ffffff; stroke:none;" d="M30 0L30 10L70 10L70 0L30 0M0 10L0 20L10 20L10 10L0 10M20 20L20 70L70 70L70 20L20 20z"/>
<path style="fill:#000000; stroke:none;" d="M30 30L30 40L40 40L40 50L30 50L30 60L50 60L50 50L60 50L60 30L30 30z"/>
<path style="fill:#ffffff; stroke:none;" d="M0 50L0 60L10 60L10 50L0 50M80 50L80 60L90 60L90 50L80 50M10 80L10 90L20 90L20 80L10 80M40 80L40 90L50 90L50 80L40 80z"/>
</svg>
