<?xml version="1.0" standalone="yes"?>
<svg xmlns="http://www.w3.org/2000/svg" width="90" height="90">
<path style="fill:#ffffff; stroke:none;" d="M0 0L0 10L30 10L30 0L0 0z"/>
<path style="fill:#000000; stroke:none;" d="M30 0L30 10L0 10L0 20L10 20L10 30L0 30L0 50L10 50L10 60L0 60L0 70L10 70L10 80L0 80L0 90L20 90L20 80L30 80L30 90L40 90L40 80L80 80L80 60L90 60L90 50L80 50L80 30L90 30L90 20L80 20L80 10L60 10L60 0L30 0z"/>
<path style="fill:#ffffff; stroke:none;" d="M60 0L60 10L80 10L80 20L90 20L90 0L60 0M0 20L0 30L10 30L10 20L0 20M20 20L20 70L70 70L70 20L20 20z"/>
<path style="fill:#000000; stroke:none;" d="M30 30L30 40L50 40L50 50L30 50L30 60L50 60L50 50L60 50L60 30L30 30z"/>
<path style="fill:#ffffff; stroke:none;" d="M80 30L80 50L90 50L90 30L80 30M0 50L0 60L10 60L10 50L0 50M80 60L80 80L40 80L40 90L90 90L90 60L80 60M0 70L0 80L10 80L10 70L0 70M20 80L20 90L30 90L30 80L20 80z"/>
</svg>
