<?xml version="1.0" standalone="yes"?>
<svg xmlns="http://www.w3.org/2000/svg" width="90" height="90">
<path style="fill:#000000; stroke:none;" d="M0 0L0 30L10 30L10 50L0 50L0 70L10 70L10 80L0 80L0 90L10 90L10 80L20 80L20 90L60 90L60 80L80 80L80 70L90 70L90 50L80 50L80 30L90 30L90 20L80 20L80 0L60 0L60 10L10 10L10 0L0 0z"/>
<path style="fill:#ffffff; stroke:none;" d="M10 0L10 10L60 10L60 0L10 0M80 0L80 20L90 20L90 0L80 0M20 20L20 70L70 70L70 20L20 20M0 30L0 50L10 50L10 30L0 30M80 30L80 50L90 50L90 30L80 30z"/>
<path style="fill:#000000; stroke:none;" d="M30 40L30 60L40 60L40 40L30 40z"/>
<path style="fill:#ffffff; stroke:none;" d="M0 70L0 80L10 80L10 70L0 70M80 70L80 80L60 80L60 90L90 90L90 70L80 70M10 80L10 90L20 90L20 80L10 80z"/>
</svg>
