<?xml version="1.0" standalone="yes"?>
<svg xmlns="http://www.w3.org/2000/svg" width="90" height="90">
<path style="fill:#ffffff; stroke:none;" d="M0 0L0 10L20 10L20 0L0 0z"/>
<path style="fill:#000000; stroke:none;" d="M20 0L20 10L0 10L0 30L10 30L10 70L0 70L0 80L20 80L20 90L40 90L40 80L80 80L80 60L90 60L90 50L80 50L80 40L90 40L90 10L80 10L80 0L70 0L70 10L50 10L50 0L20 0z"/>
<path style="fill:#ffffff; stroke:none;" d="M50 0L50 10L70 10L70 0L50 0M80 0L80 10L90 10L90 0L80 0M20 20L20 70L70 70L70 20L20 20M0 30L0 70L10 70L10 30L0 30z"/>
<path style="fill:#000000; stroke:none;" d="M40 30L40 40L30 40L30 50L40 50L40 40L50 40L50 60L60 60L60 40L50 40L50 30L40 30z"/>
<path style="fill:#ffffff; stroke:none;" d="M80 40L80 50L90 50L90 40L80 40M80 60L80 80L40 80L40 90L90 90L90 60L80 60M0 80L0 90L20 90L20 80L0 80z"/>
</svg>
