<?xml version="1.0" standalone="yes"?>
<svg xmlns="http://www.w3.org/2000/svg" width="90" height="90">
<path style="fill:#000000; stroke:none;" d="M0 0L0 30L10 30L10 50L0 50L0 90L20 90L20 80L30 80L30 90L40 90L40 80L50 80L50 90L80 90L80 70L90 70L90 60L80 60L80 40L90 40L90 30L80 30L80 0L60 0L60 10L40 10L40 0L20 0L20 10L10 10L10 0L0 0z"/>
<path style="fill:#ffffff; stroke:none;" d="M10 0L10 10L20 10L20 0L10 0M40 0L40 10L60 10L60 0L40 0M80 0L80 30L90 30L90 0L80 0M20 20L20 70L70 70L70 20L20 20M0 30L0 50L10 50L10 30L0 30z"/>
<path style="fill:#000000; stroke:none;" d="M40 30L40 50L30 50L30 60L40 60L40 50L60 50L60 30L40 30z"/>
<path style="fill:#ffffff; stroke:none;" d="M80 40L80 60L90 60L90 40L80 40M80 70L80 90L90 90L90 70L80 70M20 80L20 90L30 90L30 80L20 80M40 80L40 90L50 90L50 80L40 80z"/>
</svg>
