<?xml version="1.0" standalone="yes"?>
<svg xmlns="http://www.w3.org/2000/svg" width="90" height="90">
<path style="fill:#ffffff; stroke:none;" d="M0 0L0 10L10 10L10 0L0 0z"/>
<path style="fill:#000000; stroke:none;" d="M10 0L10 10L0 10L0 30L10 30L10 60L0 60L0 70L10 70L10 80L0 80L0 90L20 90L20 80L30 80L30 90L40 90L40 80L60 80L60 90L70 90L70 80L90 80L90 40L80 40L80 10L90 10L90 0L60 0L60 10L50 10L50 0L10 0z"/>
<path style="fill:#ffffff; stroke:none;" d="M50 0L50 10L60 10L60 0L50 0M80 10L80 40L90 40L90 10L80 10M20 20L20 70L70 70L70 20L20 20M0 30L0 60L10 60L10 30L0 30z"/>
<path style="fill:#000000; stroke:none;" d="M40 30L40 50L30 50L30 60L40 60L40 50L50 50L50 30L40 30z"/>
<path style="fill:#ffffff; stroke:none;" d="M0 70L0 80L10 80L10 70L0 70M20 80L20 90L30 90L30 80L20 80M40 80L40 90L60 90L60 80L40 80M70 80L70 90L90 90L90 80L70 80z"/>
</svg>
