<?xml version="1.0" standalone="yes"?>
<svg xmlns="http://www.w3.org/2000/svg" width="90" height="90">
<path style="fill:#ffffff; stroke:none;" d="M0 0L0 20L10 20L10 10L70 10L70 0L0 0z"/>
<path style="fill:#000000; stroke:none;" d="M70 0L70 10L10 10L10 20L0 20L0 40L10 40L10 70L0 70L0 80L10 80L10 90L30 90L30 80L50 80L50 90L60 90L60 80L80 80L80 90L90 90L90 80L80 80L80 70L90 70L90 50L80 50L80 30L90 30L90 20L80 20L80 10L90 10L90 0L70 0z"/>
<path style="fill:#ffffff; stroke:none;" d="M80 10L80 20L90 20L90 10L80 10M20 20L20 70L70 70L70 20L20 20z"/>
<path style="fill:#000000; stroke:none;" d="M40 30L40 40L30 40L30 50L60 50L60 40L50 40L50 30L40 30z"/>
<path style="fill:#ffffff; stroke:none;" d="M80 30L80 50L90 50L90 30L80 30M0 40L0 70L10 70L10 40L0 40M80 70L80 80L90 80L90 70L80 70M0 80L0 90L10 90L10 80L0 80M30 80L30 90L50 90L50 80L30 80M60 80L60 90L80 90L80 80L60 80z"/>
</svg>
