<?xml version="1.0" standalone="yes"?>
<svg xmlns="http://www.w3.org/2000/svg" width="90" height="90">
<path style="fill:#ffffff; stroke:none;" d="M0 0L0 10L10 10L10 0L0 0z"/>
<path style="fill:#000000; stroke:none;" d="M10 0L10 10L0 10L0 50L10 50L10 60L0 60L0 70L10 70L10 80L0 80L0 90L10 90L10 80L30 80L30 90L70 90L70 80L80 80L80 90L90 90L90 80L80 80L80 70L90 70L90 30L80 30L80 10L90 10L90 0L50 0L50 10L40 10L40 0L30 0L30 10L20 10L20 0L10 0z"/>
<path style="fill:#ffffff; stroke:none;" d="M20 0L20 10L30 10L30 0L20 0M40 0L40 10L50 10L50 0L40 0M80 10L80 30L90 30L90 10L80 10M20 20L20 70L70 70L70 20L20 20M0 50L0 60L10 60L10 50L0 50z"/>
<path style="fill:#000000; stroke:none;" d="M30 50L30 60L40 60L40 50L30 50M50 50L50 60L60 60L60 50L50 50z"/>
<path style="fill:#ffffff; stroke:none;" d="M0 70L0 80L10 80L10 70L0 70M80 70L80 80L90 80L90 70L80 70M10 80L10 90L30 90L30 80L10 80M70 80L70 90L80 90L80 80L70 80z"/>
</svg>
