<?xml version="1.0" standalone="yes"?>
<svg xmlns="http://www.w3.org/2000/svg" width="90" height="90">
<path style="fill:#ffffff; stroke:none;" d="M0 0L0 20L10 20L10 0L0 0z"/>
<path style="fill:#000000; stroke:none;" d="M10 0L10 20L0 20L0 50L10 50L10 70L0 70L0 90L20 90L20 80L40 80L40 90L50 90L50 80L70 80L70 90L80 90L80 60L90 60L90 50L80 50L80 30L90 30L90 20L80 20L80 10L50 10L50 0L30 0L30 10L20 10L20 0L10 0z"/>
<path style="fill:#ffffff; stroke:none;" d="M20 0L20 10L30 10L30 0L20 0M50 0L50 10L80 10L80 20L90 20L90 0L50 0M20 20L20 70L70 70L70 20L20 20M80 30L80 50L90 50L90 30L80 30z"/>
<path style="fill:#000000; stroke:none;" d="M50 40L50 60L60 60L60 40L50 40z"/>
<path style="fill:#ffffff; stroke:none;" d="M0 50L0 70L10 70L10 50L0 50z"/>
<path style="fill:#000000; stroke:none;" d="M30 50L30 60L40 60L40 50L30 50z"/>
<path style="fill:#ffffff; stroke:none;" d="M80 60L80 90L90 90L90 60L80 60M20 80L20 90L40 90L40 80L20 80M50 80L50 90L70 90L70 80L50 80z"/>
</svg>
