<?xml version="1.0" standalone="yes"?>
<svg xmlns="http://www.w3.org/2000/svg" width="90" height="90">
<path style="fill:#000000; stroke:none;" d="M0 0L0 20L10 20L10 30L0 30L0 60L10 60L10 70L0 70L0 80L20 80L20 90L30 90L30 80L50 80L50 90L70 90L70 80L80 80L80 90L90 90L90 70L80 70L80 60L90 60L90 50L80 50L80 40L90 40L90 10L70 10L70 0L60 0L60 10L50 10L50 0L40 0L40 10L20 10L20 0L0 0z"/>
<path style="fill:#ffffff; stroke:none;" d="M20 0L20 10L40 10L40 0L20 0M50 0L50 10L60 10L60 0L50 0M70 0L70 10L90 10L90 0L70 0M0 20L0 30L10 30L10 20L0 20M20 20L20 70L70 70L70 20L20 20M80 40L80 50L90 50L90 40L80 40z"/>
<path style="fill:#000000; stroke:none;" d="M30 50L30 60L40 60L40 50L30 50z"/>
<path style="fill:#ffffff; stroke:none;" d="M0 60L0 70L10 70L10 60L0 60M80 60L80 70L90 70L90 60L80 60M0 80L0 90L20 90L20 80L0 80M30 80L30 90L50 90L50 80L30 80M70 80L70 90L80 90L80 80L70 80z"/>
</svg>
