<?xml version="1.0" standalone="yes"?>
<svg xmlns="http://www.w3.org/2000/svg" width="90" height="90">
<path style="fill:#000000; stroke:none;" d="M0 0L0 40L10 40L10 70L0 70L0 90L40 90L40 80L70 80L70 90L90 90L90 80L80 80L80 70L90 70L90 60L80 60L80 30L90 30L90 10L20 10L20 0L0 0z"/>
<path style="fill:#ffffff; stroke:none;" d="M20 0L20 10L90 10L90 0L20 0M20 20L20 70L70 70L70 20L20 20z"/>
<path style="fill:#000000; stroke:none;" d="M30 30L30 40L40 40L40 30L30 30M50 30L50 50L60 50L60 30L50 30z"/>
<path style="fill:#ffffff; stroke:none;" d="M80 30L80 60L90 60L90 30L80 30M0 40L0 70L10 70L10 40L0 40M80 70L80 80L90 80L90 70L80 70M40 80L40 90L70 90L70 80L40 80z"/>
</svg>
