<?xml version="1.0" standalone="yes"?>
<svg xmlns="http://www.w3.org/2000/svg" width="90" height="90">
<path style="fill:#ffffff; stroke:none;" d="M0 0L0 20L10 20L10 0L0 0z"/>
<path style="fill:#000000; stroke:none;" d="M10 0L10 20L0 20L0 30L10 30L10 40L0 40L0 50L10 50L10 70L0 70L0 90L40 90L40 80L50 80L50 90L70 90L70 80L80 80L80 90L90 90L90 80L80 80L80 60L90 60L90 50L80 50L80 40L90 40L90 10L80 10L80 0L70 0L70 10L60 10L60 0L10 0z"/>
<path style="fill:#ffffff; stroke:none;" d="M60 0L60 10L70 10L70 0L60 0M80 0L80 10L90 10L90 0L80 0M20 20L20 70L70 70L70 20L20 20M0 30L0 40L10 40L10 30L0 30z"/>
<path style="fill:#000000; stroke:none;" d="M40 30L40 40L50 40L50 50L60 50L60 40L50 40L50 30L40 30z"/>
<path style="fill:#ffffff; stroke:none;" d="M80 40L80 50L90 50L90 40L80 40M0 50L0 70L10 70L10 50L0 50z"/>
<path style="fill:#000000; stroke:none;" d="M30 50L30 60L40 60L40 50L30 50z"/>
<path style="fill:#ffffff; stroke:none;" d="M80 60L80 80L90 80L90 60L80 60M40 80L40 90L50 90L50 80L40 80M70 80L70 90L80 90L80 80L70 80z"/>
</svg>
