<?xml version="1.0" standalone="yes"?>
<svg xmlns="http://www.w3.org/2000/svg" width="90" height="90">
<path style="fill:#000000; stroke:none;" d="M0 0L0 10L10 10L10 30L0 30L0 50L10 50L10 60L0 60L0 90L40 90L40 80L50 80L50 90L60 90L60 80L70 80L70 90L90 90L90 80L80 80L80 70L90 70L90 60L80 60L80 30L90 30L90 20L80 20L80 10L90 10L90 0L50 0L50 10L40 10L40 0L0 0z"/>
<path style="fill:#ffffff; stroke:none;" d="M40 0L40 10L50 10L50 0L40 0M0 10L0 30L10 30L10 10L0 10M80 10L80 20L90 20L90 10L80 10M20 20L20 70L70 70L70 20L20 20z"/>
<path style="fill:#000000; stroke:none;" d="M30 30L30 40L40 40L40 50L50 50L50 40L40 40L40 30L30 30z"/>
<path style="fill:#ffffff; stroke:none;" d="M80 30L80 60L90 60L90 30L80 30M0 50L0 60L10 60L10 50L0 50M80 70L80 80L90 80L90 70L80 70M40 80L40 90L50 90L50 80L40 80M60 80L60 90L70 90L70 80L60 80z"/>
</svg>
