<?xml version="1.0" standalone="yes"?>
<svg xmlns="http://www.w3.org/2000/svg" width="90" height="90">
<path style="fill:#000000; stroke:none;" d="M0 0L0 10L10 10L10 30L0 30L0 50L10 50L10 60L0 60L0 80L20 80L20 90L30 90L30 80L70 80L70 90L90 90L90 70L80 70L80 50L90 50L90 40L80 40L80 30L90 30L90 20L80 20L80 10L90 10L90 0L70 0L70 10L50 10L50 0L40 0L40 10L30 10L30 0L0 0z"/>
<path style="fill:#ffffff; stroke:none;" d="M30 0L30 10L40 10L40 0L30 0M50 0L50 10L70 10L70 0L50 0M0 10L0 30L10 30L10 10L0 10M80 10L80 20L90 20L90 10L80 10M20 20L20 70L70 70L70 20L20 20z"/>
<path style="fill:#000000; stroke:none;" d="M40 30L40 40L30 40L30 60L40 60L40 50L50 50L50 60L60 60L60 30L40 30z"/>
<path style="fill:#ffffff; stroke:none;" d="M80 30L80 40L90 40L90 30L80 30M0 50L0 60L10 60L10 50L0 50M80 50L80 70L90 70L90 50L80 50M0 80L0 90L20 90L20 80L0 80M30 80L30 90L70 90L70 80L30 80z"/>
</svg>
