<?xml version="1.0" standalone="yes"?>
<svg xmlns="http://www.w3.org/2000/svg" width="90" height="90">
<path style="fill:#000000; stroke:none;" d="M0 0L0 10L10 10L10 70L0 70L0 80L10 80L10 90L40 90L40 80L60 80L60 90L70 90L70 80L90 80L90 60L80 60L80 50L90 50L90 20L80 20L80 10L90 10L90 0L60 0L60 10L20 10L20 0L0 0z"/>
<path style="fill:#ffffff; stroke:none;" d="M20 0L20 10L60 10L60 0L20 0M0 10L0 70L10 70L10 10L0 10M80 10L80 20L90 20L90 10L80 10M20 20L20 70L70 70L70 20L20 20z"/>
<path style="fill:#000000; stroke:none;" d="M40 30L40 40L30 40L30 60L50 60L50 50L40 50L40 40L50 40L50 30L40 30z"/>
<path style="fill:#ffffff; stroke:none;" d="M80 50L80 60L90 60L90 50L80 50M0 80L0 90L10 90L10 80L0 80M40 80L40 90L60 90L60 80L40 80M70 80L70 90L90 90L90 80L70 80z"/>
</svg>
