<?xml version="1.0" standalone="yes"?>
<svg xmlns="http://www.w3.org/2000/svg" width="90" height="90">
<path style="fill:#ffffff; stroke:none;" d="M0 0L0 10L10 10L10 0L0 0z"/>
<path style="fill:#000000; stroke:none;" d="M10 0L10 10L0 10L0 70L10 70L10 90L30 90L30 80L60 80L60 90L70 90L70 80L80 80L80 90L90 90L90 80L80 80L80 70L90 70L90 50L80 50L80 40L90 40L90 20L80 20L80 0L70 0L70 10L50 10L50 0L10 0z"/>
<path style="fill:#ffffff; stroke:none;" d="M50 0L50 10L70 10L70 0L50 0M80 0L80 20L90 20L90 0L80 0M20 20L20 70L70 70L70 20L20 20z"/>
<path style="fill:#000000; stroke:none;" d="M30 30L30 50L40 50L40 40L50 40L50 50L60 50L60 40L50 40L50 30L30 30z"/>
<path style="fill:#ffffff; stroke:none;" d="M80 40L80 50L90 50L90 40L80 40M0 70L0 90L10 90L10 70L0 70M80 70L80 80L90 80L90 70L80 70M30 80L30 90L60 90L60 80L30 80M70 80L70 90L80 90L80 80L70 80z"/>
</svg>
