<?xml version="1.0" standalone="yes"?>
<svg xmlns="http://www.w3.org/2000/svg" width="90" height="90">
<path style="fill:#000000; stroke:none;" d="M0 0L0 20L10 20L10 30L0 30L0 40L10 40L10 70L0 70L0 90L40 90L40 80L50 80L50 90L60 90L60 80L70 80L70 90L90 90L90 60L80 60L80 50L90 50L90 30L80 30L80 0L70 0L70 10L50 10L50 0L40 0L40 10L20 10L20 0L0 0z"/>
<path style="fill:#ffffff; stroke:none;" d="M20 0L20 10L40 10L40 0L20 0M50 0L50 10L70 10L70 0L50 0M80 0L80 30L90 30L90 0L80 0M0 20L0 30L10 30L10 20L0 20M20 20L20 70L70 70L70 20L20 20z"/>
<path style="fill:#000000; stroke:none;" d="M40 30L40 40L30 40L30 50L40 50L40 60L60 60L60 30L40 30z"/>
<path style="fill:#ffffff; stroke:none;" d="M0 40L0 70L10 70L10 40L0 40M40 40L40 50L50 50L50 40L40 40M80 50L80 60L90 60L90 50L80 50M40 80L40 90L50 90L50 80L40 80M60 80L60 90L70 90L70 80L60 80z"/>
</svg>
