<?xml version="1.0" standalone="yes"?>
<svg xmlns="http://www.w3.org/2000/svg" width="90" height="90">
<path style="fill:#000000; stroke:none;" d="M0 0L0 10L10 10L10 20L0 20L0 30L10 30L10 40L0 40L0 50L10 50L10 60L0 60L0 80L20 80L20 90L30 90L30 80L40 80L40 90L70 90L70 80L80 80L80 30L90 30L90 20L80 20L80 10L90 10L90 0L70 0L70 10L60 10L60 0L0 0z"/>
<path style="fill:#ffffff; stroke:none;" d="M60 0L60 10L70 10L70 0L60 0M0 10L0 20L10 20L10 10L0 10M80 10L80 20L90 20L90 10L80 10M20 20L20 70L70 70L70 20L20 20M0 30L0 40L10 40L10 30L0 30z"/>
<path style="fill:#000000; stroke:none;" d="M50 30L50 40L30 40L30 60L40 60L40 50L50 50L50 60L60 60L60 30L50 30z"/>
<path style="fill:#ffffff; stroke:none;" d="M80 30L80 80L70 80L70 90L90 90L90 30L80 30M0 50L0 60L10 60L10 50L0 50M0 80L0 90L20 90L20 80L0 80M30 80L30 90L40 90L40 80L30 80z"/>
</svg>
