<?xml version="1.0" standalone="yes"?>
<svg xmlns="http://www.w3.org/2000/svg" width="90" height="90">
<path style="fill:#ffffff; stroke:none;" d="M0 0L0 40L10 40L10 0L0 0z"/>
<path style="fill:#000000; stroke:none;" d="M10 0L10 40L0 40L0 60L10 60L10 70L0 70L0 80L20 80L20 90L40 90L40 80L50 80L50 90L90 90L90 80L80 80L80 70L90 70L90 60L80 60L80 30L90 30L90 20L80 20L80 10L90 10L90 0L30 0L30 10L20 10L20 0L10 0z"/>
<path style="fill:#ffffff; stroke:none;" d="M20 0L20 10L30 10L30 0L20 0M80 10L80 20L90 20L90 10L80 10M20 20L20 70L70 70L70 20L20 20z"/>
<path style="fill:#000000; stroke:none;" d="M50 30L50 40L40 40L40 50L30 50L30 60L40 60L40 50L50 50L50 60L60 60L60 30L50 30z"/>
<path style="fill:#ffffff; stroke:none;" d="M80 30L80 60L90 60L90 30L80 30M0 60L0 70L10 70L10 60L0 60M80 70L80 80L90 80L90 70L80 70M0 80L0 90L20 90L20 80L0 80M40 80L40 90L50 90L50 80L40 80z"/>
</svg>
