<?xml version="1.0" standalone="yes"?>
<svg xmlns="http://www.w3.org/2000/svg" width="90" height="90">
<path style="fill:#000000; stroke:none;" d="M0 0L0 20L10 20L10 30L0 30L0 60L10 60L10 80L0 80L0 90L20 90L20 80L40 80L40 90L50 90L50 80L60 80L60 90L80 90L80 70L90 70L90 40L80 40L80 20L90 20L90 10L80 10L80 0L70 0L70 10L10 10L10 0L0 0z"/>
<path style="fill:#ffffff; stroke:none;" d="M10 0L10 10L70 10L70 0L10 0M80 0L80 10L90 10L90 0L80 0M0 20L0 30L10 30L10 20L0 20M20 20L20 70L70 70L70 20L20 20M80 20L80 40L90 40L90 20L80 20z"/>
<path style="fill:#000000; stroke:none;" d="M40 30L40 40L30 40L30 60L40 60L40 50L50 50L50 40L60 40L60 30L40 30z"/>
<path style="fill:#ffffff; stroke:none;" d="M0 60L0 80L10 80L10 60L0 60M80 70L80 90L90 90L90 70L80 70M20 80L20 90L40 90L40 80L20 80M50 80L50 90L60 90L60 80L50 80z"/>
</svg>
