<?xml version="1.0" standalone="yes"?>
<svg xmlns="http://www.w3.org/2000/svg" width="90" height="90">
<path style="fill:#000000; stroke:none;" d="M0 0L0 10L10 10L10 40L0 40L0 50L10 50L10 80L0 80L0 90L20 90L20 80L50 80L50 90L70 90L70 80L90 80L90 70L80 70L80 60L90 60L90 40L80 40L80 30L90 30L90 10L60 10L60 0L50 0L50 10L30 10L30 0L0 0z"/>
<path style="fill:#ffffff; stroke:none;" d="M30 0L30 10L50 10L50 0L30 0M60 0L60 10L90 10L90 0L60 0M0 10L0 40L10 40L10 10L0 10M20 20L20 70L70 70L70 20L20 20M80 30L80 40L90 40L90 30L80 30z"/>
<path style="fill:#000000; stroke:none;" d="M30 40L30 50L40 50L40 60L60 60L60 50L50 50L50 40L30 40z"/>
<path style="fill:#ffffff; stroke:none;" d="M0 50L0 80L10 80L10 50L0 50M80 60L80 70L90 70L90 60L80 60M20 80L20 90L50 90L50 80L20 80M70 80L70 90L90 90L90 80L70 80z"/>
</svg>
