<?xml version="1.0" standalone="yes"?>
<svg xmlns="http://www.w3.org/2000/svg" width="90" height="90">
<path style="fill:#000000; stroke:none;" d="M0 0L0 10L10 10L10 50L0 50L0 60L10 60L10 70L0 70L0 90L10 90L10 80L30 80L30 90L70 90L70 80L80 80L80 70L90 70L90 50L80 50L80 20L90 20L90 0L80 0L80 10L70 10L70 0L50 0L50 10L30 10L30 0L20 0L20 10L10 10L10 0L0 0z"/>
<path style="fill:#ffffff; stroke:none;" d="M10 0L10 10L20 10L20 0L10 0M30 0L30 10L50 10L50 0L30 0M70 0L70 10L80 10L80 0L70 0M0 10L0 50L10 50L10 10L0 10M20 20L20 70L70 70L70 20L20 20M80 20L80 50L90 50L90 20L80 20z"/>
<path style="fill:#000000; stroke:none;" d="M30 30L30 40L60 40L60 30L30 30M40 50L40 60L50 60L50 50L40 50z"/>
<path style="fill:#ffffff; stroke:none;" d="M0 60L0 70L10 70L10 60L0 60M80 70L80 80L70 80L70 90L90 90L90 70L80 70M10 80L10 90L30 90L30 80L10 80z"/>
</svg>
