<?xml version="1.0" standalone="yes"?>
<svg xmlns="http://www.w3.org/2000/svg" width="90" height="90">
<path style="fill:#ffffff; stroke:none;" d="M0 0L0 10L10 10L10 0L0 0z"/>
<path style="fill:#000000; stroke:none;" d="M10 0L10 10L0 10L0 30L10 30L10 40L0 40L0 50L10 50L10 60L0 60L0 80L30 80L30 90L40 90L40 80L50 80L50 90L60 90L60 80L80 80L80 70L90 70L90 60L80 60L80 40L90 40L90 30L80 30L80 20L90 20L90 0L70 0L70 10L50 10L50 0L30 0L30 10L20 10L20 0L10 0z"/>
<path style="fill:#ffffff; stroke:none;" d="M20 0L20 10L30 10L30 0L20 0M50 0L50 10L70 10L70 0L50 0M20 20L20 70L70 70L70 20L20 20M80 20L80 30L90 30L90 20L80 20M0 30L0 40L10 40L10 30L0 30z"/>
<path style="fill:#000000; stroke:none;" d="M40 30L40 40L30 40L30 50L40 50L40 40L60 40L60 30L40 30z"/>
<path style="fill:#ffffff; stroke:none;" d="M80 40L80 60L90 60L90 40L80 40M0 50L0 60L10 60L10 50L0 50M80 70L80 80L60 80L60 90L90 90L90 70L80 70M0 80L0 90L30 90L30 80L0 80M40 80L40 90L50 90L50 80L40 80z"/>
</svg>
