<?xml version="1.0" standalone="yes"?>
<svg xmlns="http://www.w3.org/2000/svg" width="90" height="90">
<path style="fill:#000000; stroke:none;" d="M0 0L0 10L10 10L10 30L0 30L0 50L10 50L10 60L0 60L0 80L10 80L10 90L20 90L20 80L30 80L30 90L60 90L60 80L70 80L70 90L90 90L90 60L80 60L80 40L90 40L90 20L80 20L80 10L90 10L90 0L60 0L60 10L50 10L50 0L40 0L40 10L30 10L30 0L0 0z"/>
<path style="fill:#ffffff; stroke:none;" d="M30 0L30 10L40 10L40 0L30 0M50 0L50 10L60 10L60 0L50 0M0 10L0 30L10 30L10 10L0 10M80 10L80 20L90 20L90 10L80 10M20 20L20 70L70 70L70 20L20 20z"/>
<path style="fill:#000000; stroke:none;" d="M30 30L30 60L60 60L60 30L30 30z"/>
<path style="fill:#ffffff; stroke:none;" d="M40 40L40 50L50 50L50 40L40 40M80 40L80 60L90 60L90 40L80 40M0 50L0 60L10 60L10 50L0 50M0 80L0 90L10 90L10 80L0 80M20 80L20 90L30 90L30 80L20 80M60 80L60 90L70 90L70 80L60 80z"/>
</svg>
