<?xml version="1.0" standalone="yes"?>
<svg xmlns="http://www.w3.org/2000/svg" width="90" height="90">
<path style="fill:#ffffff; stroke:none;" d="M0 0L0 30L10 30L10 10L20 10L20 0L0 0z"/>
<path style="fill:#000000; stroke:none;" d="M20 0L20 10L10 10L10 30L0 30L0 70L10 70L10 90L20 90L20 80L30 80L30 90L40 90L40 80L70 80L70 90L80 90L80 50L90 50L90 40L80 40L80 30L90 30L90 10L30 10L30 0L20 0z"/>
<path style="fill:#ffffff; stroke:none;" d="M30 0L30 10L90 10L90 0L30 0M20 20L20 70L70 70L70 20L20 20z"/>
<path style="fill:#000000; stroke:none;" d="M30 30L30 40L50 40L50 60L60 60L60 30L30 30z"/>
<path style="fill:#ffffff; stroke:none;" d="M80 30L80 40L90 40L90 30L80 30M80 50L80 90L90 90L90 50L80 50M0 70L0 90L10 90L10 70L0 70M20 80L20 90L30 90L30 80L20 80M40 80L40 90L70 90L70 80L40 80z"/>
</svg>
