<?xml version="1.0" standalone="yes"?>
<svg xmlns="http://www.w3.org/2000/svg" width="90" height="90">
<path style="fill:#000000; stroke:none;" d="M0 0L0 60L10 60L10 70L0 70L0 90L10 90L10 80L30 80L30 90L50 90L50 80L80 80L80 90L90 90L90 50L80 50L80 40L90 40L90 30L80 30L80 20L90 20L90 0L70 0L70 10L60 10L60 0L50 0L50 10L30 10L30 0L0 0z"/>
<path style="fill:#ffffff; stroke:none;" d="M30 0L30 10L50 10L50 0L30 0M60 0L60 10L70 10L70 0L60 0M20 20L20 70L70 70L70 20L20 20M80 20L80 30L90 30L90 20L80 20z"/>
<path style="fill:#000000; stroke:none;" d="M30 30L30 60L50 60L50 50L60 50L60 40L40 40L40 30L30 30z"/>
<path style="fill:#ffffff; stroke:none;" d="M80 40L80 50L90 50L90 40L80 40M0 60L0 70L10 70L10 60L0 60M10 80L10 90L30 90L30 80L10 80M50 80L50 90L80 90L80 80L50 80z"/>
</svg>
