<?xml version="1.0" standalone="yes"?>
<svg xmlns="http://www.w3.org/2000/svg" width="90" height="90">
<path style="fill:#ffffff; stroke:none;" d="M0 0L0 30L10 30L10 10L80 10L80 30L90 30L90 0L0 0z"/>
<path style="fill:#000000; stroke:none;" d="M10 10L10 30L0 30L0 40L10 40L10 50L0 50L0 90L20 90L20 80L30 80L30 90L40 90L40 80L80 80L80 90L90 90L90 80L80 80L80 70L90 70L90 50L80 50L80 40L90 40L90 30L80 30L80 10L10 10z"/>
<path style="fill:#ffffff; stroke:none;" d="M20 20L20 70L70 70L70 20L20 20z"/>
<path style="fill:#000000; stroke:none;" d="M30 30L30 60L50 60L50 50L60 50L60 40L50 40L50 50L40 50L40 30L30 30z"/>
<path style="fill:#ffffff; stroke:none;" d="M0 40L0 50L10 50L10 40L0 40M80 40L80 50L90 50L90 40L80 40M80 70L80 80L90 80L90 70L80 70M20 80L20 90L30 90L30 80L20 80M40 80L40 90L80 90L80 80L40 80z"/>
</svg>
