<?xml version="1.0" standalone="yes"?>
<svg xmlns="http://www.w3.org/2000/svg" width="90" height="90">
<path style="fill:#ffffff; stroke:none;" d="M0 0L0 10L50 10L50 0L0 0z"/>
<path style="fill:#000000; stroke:none;" d="M50 0L50 10L0 10L0 20L10 20L10 50L0 50L0 60L10 60L10 70L0 70L0 80L10 80L10 90L20 90L20 80L50 80L50 90L60 90L60 80L70 80L70 90L90 90L90 80L80 80L80 60L90 60L90 50L80 50L80 30L90 30L90 10L80 10L80 0L70 0L70 10L60 10L60 0L50 0z"/>
<path style="fill:#ffffff; stroke:none;" d="M60 0L60 10L70 10L70 0L60 0M80 0L80 10L90 10L90 0L80 0M0 20L0 50L10 50L10 20L0 20M20 20L20 70L70 70L70 20L20 20z"/>
<path style="fill:#000000; stroke:none;" d="M30 30L30 40L50 40L50 60L60 60L60 40L50 40L50 30L30 30z"/>
<path style="fill:#ffffff; stroke:none;" d="M80 30L80 50L90 50L90 30L80 30M0 60L0 70L10 70L10 60L0 60M80 60L80 80L90 80L90 60L80 60M0 80L0 90L10 90L10 80L0 80M20 80L20 90L50 90L50 80L20 80M60 80L60 90L70 90L70 80L60 80z"/>
</svg>
