<?xml version="1.0" standalone="yes"?>
<svg xmlns="http://www.w3.org/2000/svg" width="90" height="90">
<path style="fill:#000000; stroke:none;" d="M0 0L0 50L10 50L10 70L0 70L0 90L40 90L40 80L50 80L50 90L70 90L70 80L80 80L80 90L90 90L90 80L80 80L80 40L90 40L90 30L80 30L80 20L90 20L90 10L70 10L70 0L60 0L60 10L50 10L50 0L40 0L40 10L30 10L30 0L20 0L20 10L10 10L10 0L0 0z"/>
<path style="fill:#ffffff; stroke:none;" d="M10 0L10 10L20 10L20 0L10 0M30 0L30 10L40 10L40 0L30 0M50 0L50 10L60 10L60 0L50 0M70 0L70 10L90 10L90 0L70 0M20 20L20 70L70 70L70 20L20 20M80 20L80 30L90 30L90 20L80 20z"/>
<path style="fill:#000000; stroke:none;" d="M30 40L30 60L50 60L50 50L40 50L40 40L30 40z"/>
<path style="fill:#ffffff; stroke:none;" d="M80 40L80 80L90 80L90 40L80 40M0 50L0 70L10 70L10 50L0 50M40 80L40 90L50 90L50 80L40 80M70 80L70 90L80 90L80 80L70 80z"/>
</svg>
