<?xml version="1.0" standalone="yes"?>
<svg xmlns="http://www.w3.org/2000/svg" width="90" height="90">
<path style="fill:#ffffff; stroke:none;" d="M0 0L0 20L10 20L10 10L40 10L40 0L0 0z"/>
<path style="fill:#000000; stroke:none;" d="M40 0L40 10L10 10L10 20L0 20L0 60L10 60L10 70L0 70L0 90L30 90L30 80L40 80L40 90L90 90L90 80L80 80L80 60L90 60L90 50L80 50L80 30L90 30L90 20L80 20L80 10L90 10L90 0L80 0L80 10L50 10L50 0L40 0z"/>
<path style="fill:#ffffff; stroke:none;" d="M50 0L50 10L80 10L80 0L50 0M80 10L80 20L90 20L90 10L80 10M20 20L20 70L70 70L70 20L20 20z"/>
<path style="fill:#000000; stroke:none;" d="M40 30L40 40L30 40L30 50L40 50L40 60L50 60L50 50L40 50L40 40L60 40L60 30L40 30z"/>
<path style="fill:#ffffff; stroke:none;" d="M80 30L80 50L90 50L90 30L80 30M0 60L0 70L10 70L10 60L0 60M80 60L80 80L90 80L90 60L80 60M30 80L30 90L40 90L40 80L30 80z"/>
</svg>
