<?xml version="1.0" standalone="yes"?>
<svg xmlns="http://www.w3.org/2000/svg" width="90" height="90">
<path style="fill:#000000; stroke:none;" d="M0 0L0 30L10 30L10 40L0 40L0 60L10 60L10 70L0 70L0 80L10 80L10 90L90 90L90 80L80 80L80 70L90 70L90 50L80 50L80 30L90 30L90 0L70 0L70 10L50 10L50 0L40 0L40 10L30 10L30 0L0 0z"/>
<path style="fill:#ffffff; stroke:none;" d="M30 0L30 10L40 10L40 0L30 0M50 0L50 10L70 10L70 0L50 0M20 20L20 70L70 70L70 20L20 20M0 30L0 40L10 40L10 30L0 30z"/>
<path style="fill:#000000; stroke:none;" d="M30 30L30 40L40 40L40 50L30 50L30 60L50 60L50 40L60 40L60 30L30 30z"/>
<path style="fill:#ffffff; stroke:none;" d="M80 30L80 50L90 50L90 30L80 30M0 60L0 70L10 70L10 60L0 60M80 70L80 80L90 80L90 70L80 70M0 80L0 90L10 90L10 80L0 80z"/>
</svg>
