<?xml version="1.0" standalone="yes"?>
<svg xmlns="http://www.w3.org/2000/svg" width="90" height="90">
<path style="fill:#000000; stroke:none;" d="M0 0L0 10L10 10L10 30L0 30L0 40L10 40L10 70L0 70L0 90L10 90L10 80L20 80L20 90L40 90L40 80L70 80L70 90L90 90L90 60L80 60L80 50L90 50L90 40L80 40L80 20L90 20L90 10L80 10L80 0L60 0L60 10L40 10L40 0L0 0z"/>
<path style="fill:#ffffff; stroke:none;" d="M40 0L40 10L60 10L60 0L40 0M80 0L80 10L90 10L90 0L80 0M0 10L0 30L10 30L10 10L0 10M20 20L20 70L70 70L70 20L20 20M80 20L80 40L90 40L90 20L80 20z"/>
<path style="fill:#000000; stroke:none;" d="M40 30L40 60L60 60L60 50L50 50L50 30L40 30z"/>
<path style="fill:#ffffff; stroke:none;" d="M0 40L0 70L10 70L10 40L0 40M80 50L80 60L90 60L90 50L80 50M10 80L10 90L20 90L20 80L10 80M40 80L40 90L70 90L70 80L40 80z"/>
</svg>
