<?xml version="1.0" standalone="yes"?>
<svg xmlns="http://www.w3.org/2000/svg" width="90" height="90">
<path style="fill:#000000; stroke:none;" d="M0 0L0 30L10 30L10 60L0 60L0 70L10 70L10 90L20 90L20 80L40 80L40 90L60 90L60 80L70 80L70 90L80 90L80 80L90 80L90 70L80 70L80 50L90 50L90 40L80 40L80 0L70 0L70 10L50 10L50 0L40 0L40 10L20 10L20 0L0 0z"/>
<path style="fill:#ffffff; stroke:none;" d="M20 0L20 10L40 10L40 0L20 0M50 0L50 10L70 10L70 0L50 0M80 0L80 40L90 40L90 0L80 0M20 20L20 70L70 70L70 20L20 20M0 30L0 60L10 60L10 30L0 30z"/>
<path style="fill:#000000; stroke:none;" d="M40 30L40 40L30 40L30 60L60 60L60 50L50 50L50 40L60 40L60 30L40 30z"/>
<path style="fill:#ffffff; stroke:none;" d="M80 50L80 70L90 70L90 50L80 50M0 70L0 90L10 90L10 70L0 70M20 80L20 90L40 90L40 80L20 80M60 80L60 90L70 90L70 80L60 80M80 80L80 90L90 90L90 80L80 80z"/>
</svg>
