<?xml version="1.0" standalone="yes"?>
<svg xmlns="http://www.w3.org/2000/svg" width="90" height="90">
<path style="fill:#000000; stroke:none;" d="M0 0L0 30L10 30L10 50L0 50L0 70L10 70L10 90L20 90L20 80L30 80L30 90L70 90L70 80L80 80L80 90L90 90L90 80L80 80L80 70L90 70L90 60L80 60L80 30L90 30L90 20L80 20L80 10L40 10L40 0L30 0L30 10L10 10L10 0L0 0z"/>
<path style="fill:#ffffff; stroke:none;" d="M10 0L10 10L30 10L30 0L10 0M40 0L40 10L80 10L80 20L90 20L90 0L40 0M20 20L20 70L70 70L70 20L20 20M0 30L0 50L10 50L10 30L0 30z"/>
<path style="fill:#000000; stroke:none;" d="M40 30L40 60L50 60L50 50L60 50L60 30L40 30z"/>
<path style="fill:#ffffff; stroke:none;" d="M80 30L80 60L90 60L90 30L80 30M0 70L0 90L10 90L10 70L0 70M80 70L80 80L90 80L90 70L80 70M20 80L20 90L30 90L30 80L20 80M70 80L70 90L80 90L80 80L70 80z"/>
</svg>
