<?xml version="1.0" standalone="yes"?>
<svg xmlns="http://www.w3.org/2000/svg" width="90" height="90">
<path style="fill:#ffffff; stroke:none;" d="M0 0L0 40L10 40L10 0L0 0z"/>
<path style="fill:#000000; stroke:none;" d="M10 0L10 40L0 40L0 50L10 50L10 80L0 80L0 90L10 90L10 80L20 80L20 90L60 90L60 80L80 80L80 90L90 90L90 80L80 80L80 70L90 70L90 60L80 60L80 50L90 50L90 20L80 20L80 10L90 10L90 0L50 0L50 10L30 10L30 0L10 0z"/>
<path style="fill:#ffffff; stroke:none;" d="M30 0L30 10L50 10L50 0L30 0M80 10L80 20L90 20L90 10L80 10M20 20L20 70L70 70L70 20L20 20z"/>
<path style="fill:#000000; stroke:none;" d="M50 30L50 40L30 40L30 60L40 60L40 50L50 50L50 40L60 40L60 30L50 30z"/>
<path style="fill:#ffffff; stroke:none;" d="M0 50L0 80L10 80L10 50L0 50M80 50L80 60L90 60L90 50L80 50M80 70L80 80L90 80L90 70L80 70M10 80L10 90L20 90L20 80L10 80M60 80L60 90L80 90L80 80L60 80z"/>
</svg>
