<?xml version="1.0" standalone="yes"?>
<svg xmlns="http://www.w3.org/2000/svg" width="90" height="90">
<path style="fill:#000000; stroke:none;" d="M0 0L0 10L10 10L10 20L0 20L0 30L10 30L10 90L20 90L20 80L40 80L40 90L60 90L60 80L80 80L80 60L90 60L90 30L80 30L80 10L70 10L70 0L60 0L60 10L40 10L40 0L20 0L20 10L10 10L10 0L0 0z"/>
<path style="fill:#ffffff; stroke:none;" d="M10 0L10 10L20 10L20 0L10 0M40 0L40 10L60 10L60 0L40 0M70 0L70 10L80 10L80 30L90 30L90 0L70 0M0 10L0 20L10 20L10 10L0 10M20 20L20 70L70 70L70 20L20 20M0 30L0 90L10 90L10 30L0 30z"/>
<path style="fill:#000000; stroke:none;" d="M40 30L40 40L30 40L30 60L40 60L40 40L50 40L50 50L60 50L60 40L50 40L50 30L40 30z"/>
<path style="fill:#ffffff; stroke:none;" d="M80 60L80 80L60 80L60 90L90 90L90 60L80 60M20 80L20 90L40 90L40 80L20 80z"/>
</svg>
