<?xml version="1.0" standalone="yes"?>
<svg xmlns="http://www.w3.org/2000/svg" width="90" height="90">
<path style="fill:#ffffff; stroke:none;" d="M0 0L0 40L10 40L10 10L60 10L60 0L0 0z"/>
<path style="fill:#000000; stroke:none;" d="M60 0L60 10L10 10L10 40L0 40L0 90L60 90L60 80L80 80L80 50L90 50L90 40L80 40L80 20L90 20L90 10L80 10L80 0L60 0z"/>
<path style="fill:#ffffff; stroke:none;" d="M80 0L80 10L90 10L90 0L80 0M20 20L20 70L70 70L70 20L20 20M80 20L80 40L90 40L90 20L80 20z"/>
<path style="fill:#000000; stroke:none;" d="M40 30L40 40L50 40L50 30L40 30M30 50L30 60L60 60L60 50L30 50z"/>
<path style="fill:#ffffff; stroke:none;" d="M80 50L80 80L60 80L60 90L90 90L90 50L80 50z"/>
</svg>
