<?xml version="1.0" standalone="yes"?>
<svg xmlns="http://www.w3.org/2000/svg" width="90" height="90">
<path style="fill:#ffffff; stroke:none;" d="M0 0L0 20L10 20L10 10L20 10L20 0L0 0z"/>
<path style="fill:#000000; stroke:none;" d="M20 0L20 10L10 10L10 20L0 20L0 40L10 40L10 80L0 80L0 90L10 90L10 80L20 80L20 90L40 90L40 80L50 80L50 90L70 90L70 80L80 80L80 90L90 90L90 80L80 80L80 70L90 70L90 0L80 0L80 10L70 10L70 0L40 0L40 10L30 10L30 0L20 0z"/>
<path style="fill:#ffffff; stroke:none;" d="M30 0L30 10L40 10L40 0L30 0M70 0L70 10L80 10L80 0L70 0M20 20L20 70L70 70L70 20L20 20z"/>
<path style="fill:#000000; stroke:none;" d="M40 30L40 40L60 40L60 30L40 30z"/>
<path style="fill:#ffffff; stroke:none;" d="M0 40L0 80L10 80L10 40L0 40M80 70L80 80L90 80L90 70L80 70M10 80L10 90L20 90L20 80L10 80M40 80L40 90L50 90L50 80L40 80M70 80L70 90L80 90L80 80L70 80z"/>
</svg>
