<?xml version="1.0" standalone="yes"?>
<svg xmlns="http://www.w3.org/2000/svg" width="90" height="90">
<path style="fill:#ffffff; stroke:none;" d="M0 0L0 10L10 10L10 0L0 0z"/>
<path style="fill:#000000; stroke:none;" d="M10 0L10 10L0 10L0 20L10 20L10 40L0 40L0 50L10 50L10 80L30 80L30 90L40 90L40 80L60 80L60 90L70 90L70 80L80 80L80 90L90 90L90 80L80 80L80 30L90 30L90 0L70 0L70 10L60 10L60 0L10 0z"/>
<path style="fill:#ffffff; stroke:none;" d="M60 0L60 10L70 10L70 0L60 0M0 20L0 40L10 40L10 20L0 20M20 20L20 70L70 70L70 20L20 20z"/>
<path style="fill:#000000; stroke:none;" d="M40 30L40 40L50 40L50 50L30 50L30 60L60 60L60 30L40 30z"/>
<path style="fill:#ffffff; stroke:none;" d="M80 30L80 80L90 80L90 30L80 30M0 50L0 90L30 90L30 80L10 80L10 50L0 50M40 80L40 90L60 90L60 80L40 80M70 80L70 90L80 90L80 80L70 80z"/>
</svg>
