<?xml version="1.0" standalone="yes"?>
<svg xmlns="http://www.w3.org/2000/svg" width="90" height="90">
<path style="fill:#000000; stroke:none;" d="M0 0L0 10L10 10L10 70L0 70L0 90L10 90L10 80L30 80L30 90L50 90L50 80L60 80L60 90L90 90L90 80L80 80L80 70L90 70L90 60L80 60L80 30L90 30L90 10L70 10L70 0L40 0L40 10L10 10L10 0L0 0z"/>
<path style="fill:#ffffff; stroke:none;" d="M10 0L10 10L40 10L40 0L10 0M70 0L70 10L90 10L90 0L70 0M0 10L0 70L10 70L10 10L0 10M20 20L20 70L70 70L70 20L20 20z"/>
<path style="fill:#000000; stroke:none;" d="M30 30L30 60L40 60L40 30L30 30z"/>
<path style="fill:#ffffff; stroke:none;" d="M80 30L80 60L90 60L90 30L80 30z"/>
<path style="fill:#000000; stroke:none;" d="M50 50L50 60L60 60L60 50L50 50z"/>
<path style="fill:#ffffff; stroke:none;" d="M80 70L80 80L90 80L90 70L80 70M10 80L10 90L30 90L30 80L10 80M50 80L50 90L60 90L60 80L50 80z"/>
</svg>
