<?xml version="1.0" standalone="yes"?>
<svg xmlns="http://www.w3.org/2000/svg" width="90" height="90">
<path style="fill:#ffffff; stroke:none;" d="M0 0L0 10L10 10L10 0L0 0z"/>
<path style="fill:#000000; stroke:none;" d="M10 0L10 10L0 10L0 20L10 20L10 70L0 70L0 80L10 80L10 90L30 90L30 80L40 80L40 90L50 90L50 80L60 80L60 90L70 90L70 80L80 80L80 40L90 40L90 30L80 30L80 20L90 20L90 10L70 10L70 0L60 0L60 10L30 10L30 0L10 0z"/>
<path style="fill:#ffffff; stroke:none;" d="M30 0L30 10L60 10L60 0L30 0M70 0L70 10L90 10L90 0L70 0M0 20L0 70L10 70L10 20L0 20M20 20L20 70L70 70L70 20L20 20M80 20L80 30L90 30L90 20L80 20z"/>
<path style="fill:#000000; stroke:none;" d="M50 30L50 40L40 40L40 50L50 50L50 60L60 60L60 50L50 50L50 40L60 40L60 30L50 30z"/>
<path style="fill:#ffffff; stroke:none;" d="M80 40L80 80L70 80L70 90L90 90L90 40L80 40M0 80L0 90L10 90L10 80L0 80M30 80L30 90L40 90L40 80L30 80M50 80L50 90L60 90L60 80L50 80z"/>
</svg>
