<?xml version="1.0" standalone="yes"?>
<svg xmlns="http://www.w3.org/2000/svg" width="90" height="90">
<path style="fill:#ffffff; stroke:none;" d="M0 0L0 40L10 40L10 10L20 10L20 0L0 0z"/>
<path style="fill:#000000; stroke:none;" d="M20 0L20 10L10 10L10 40L0 40L0 50L10 50L10 80L0 80L0 90L40 90L40 80L50 80L50 90L60 90L60 80L70 80L70 90L90 90L90 80L80 80L80 60L90 60L90 0L80 0L80 10L30 10L30 0L20 0z"/>
<path style="fill:#ffffff; stroke:none;" d="M30 0L30 10L80 10L80 0L30 0M20 20L20 70L70 70L70 20L20 20z"/>
<path style="fill:#000000; stroke:none;" d="M40 30L40 40L30 40L30 60L40 60L40 40L50 40L50 30L40 30z"/>
<path style="fill:#ffffff; stroke:none;" d="M0 50L0 80L10 80L10 50L0 50M80 60L80 80L90 80L90 60L80 60M40 80L40 90L50 90L50 80L40 80M60 80L60 90L70 90L70 80L60 80z"/>
</svg>
