<?xml version="1.0" standalone="yes"?>
<svg xmlns="http://www.w3.org/2000/svg" width="90" height="90">
<path style="fill:#000000; stroke:none;" d="M0 0L0 10L10 10L10 40L0 40L0 50L10 50L10 80L0 80L0 90L10 90L10 80L80 80L80 60L90 60L90 50L80 50L80 40L90 40L90 30L80 30L80 0L60 0L60 10L50 10L50 0L30 0L30 10L10 10L10 0L0 0z"/>
<path style="fill:#ffffff; stroke:none;" d="M10 0L10 10L30 10L30 0L10 0M50 0L50 10L60 10L60 0L50 0M80 0L80 30L90 30L90 0L80 0M0 10L0 40L10 40L10 10L0 10M20 20L20 70L70 70L70 20L20 20z"/>
<path style="fill:#000000; stroke:none;" d="M30 30L30 60L60 60L60 50L40 50L40 40L60 40L60 30L30 30z"/>
<path style="fill:#ffffff; stroke:none;" d="M80 40L80 50L90 50L90 40L80 40M0 50L0 80L10 80L10 50L0 50M80 60L80 80L10 80L10 90L90 90L90 60L80 60z"/>
</svg>
