<?xml version="1.0" standalone="yes"?>
<svg xmlns="http://www.w3.org/2000/svg" width="90" height="90">
<path style="fill:#ffffff; stroke:none;" d="M0 0L0 50L10 50L10 0L0 0z"/>
<path style="fill:#000000; stroke:none;" d="M10 0L10 50L0 50L0 60L10 60L10 70L0 70L0 80L20 80L20 90L30 90L30 80L60 80L60 90L90 90L90 80L80 80L80 70L90 70L90 60L80 60L80 50L90 50L90 20L80 20L80 10L90 10L90 0L70 0L70 10L40 10L40 0L10 0z"/>
<path style="fill:#ffffff; stroke:none;" d="M40 0L40 10L70 10L70 0L40 0M80 10L80 20L90 20L90 10L80 10M20 20L20 70L70 70L70 20L20 20z"/>
<path style="fill:#000000; stroke:none;" d="M30 30L30 40L40 40L40 30L30 30M50 30L50 50L30 50L30 60L50 60L50 50L60 50L60 30L50 30z"/>
<path style="fill:#ffffff; stroke:none;" d="M80 50L80 60L90 60L90 50L80 50M0 60L0 70L10 70L10 60L0 60M80 70L80 80L90 80L90 70L80 70M0 80L0 90L20 90L20 80L0 80M30 80L30 90L60 90L60 80L30 80z"/>
</svg>
