<?xml version="1.0" standalone="yes"?>
<svg xmlns="http://www.w3.org/2000/svg" width="90" height="90">
<path style="fill:#ffffff; stroke:none;" d="M0 0L0 20L10 20L10 0L0 0z"/>
<path style="fill:#000000; stroke:none;" d="M10 0L10 20L0 20L0 60L10 60L10 80L0 80L0 90L10 90L10 80L40 80L40 90L60 90L60 80L80 80L80 90L90 90L90 60L80 60L80 50L90 50L90 40L80 40L80 20L90 20L90 0L70 0L70 10L60 10L60 0L10 0z"/>
<path style="fill:#ffffff; stroke:none;" d="M60 0L60 10L70 10L70 0L60 0M20 20L20 70L70 70L70 20L20 20M80 20L80 40L90 40L90 20L80 20z"/>
<path style="fill:#000000; stroke:none;" d="M40 30L40 40L30 40L30 60L50 60L50 30L40 30z"/>
<path style="fill:#ffffff; stroke:none;" d="M80 50L80 60L90 60L90 50L80 50M0 60L0 80L10 80L10 60L0 60M10 80L10 90L40 90L40 80L10 80M60 80L60 90L80 90L80 80L60 80z"/>
</svg>
