<?xml version="1.0" standalone="yes"?>
<svg xmlns="http://www.w3.org/2000/svg" width="90" height="90">
<path style="fill:#ffffff; stroke:none;" d="M0 0L0 10L10 10L10 0L0 0z"/>
<path style="fill:#000000; stroke:none;" d="M10 0L10 10L0 10L0 20L10 20L10 50L0 50L0 60L10 60L10 80L0 80L0 90L10 90L10 80L20 80L20 90L30 90L30 80L70 80L70 90L90 90L90 80L80 80L80 60L90 60L90 40L80 40L80 20L90 20L90 10L70 10L70 0L60 0L60 10L50 10L50 0L30 0L30 10L20 10L20 0L10 0z"/>
<path style="fill:#ffffff; stroke:none;" d="M20 0L20 10L30 10L30 0L20 0M50 0L50 10L60 10L60 0L50 0M70 0L70 10L90 10L90 0L70 0M0 20L0 50L10 50L10 20L0 20M20 20L20 70L70 70L70 20L20 20M80 20L80 40L90 40L90 20L80 20z"/>
<path style="fill:#000000; stroke:none;" d="M30 30L30 40L40 40L40 50L30 50L30 60L40 60L40 50L50 50L50 60L60 60L60 40L40 40L40 30L30 30z"/>
<path style="fill:#ffffff; stroke:none;" d="M0 60L0 80L10 80L10 60L0 60M80 60L80 80L90 80L90 60L80 60M10 80L10 90L20 90L20 80L10 80M30 80L30 90L70 90L70 80L30 80z"/>
</svg>
