<?xml version="1.0" standalone="yes"?>
<svg xmlns="http://www.w3.org/2000/svg" width="90" height="90">
<path style="fill:#ffffff; stroke:none;" d="M0 0L0 10L10 10L10 0L0 0z"/>
<path style="fill:#000000; stroke:none;" d="M10 0L10 10L0 10L0 30L10 30L10 60L0 60L0 90L10 90L10 80L20 80L20 90L80 90L80 60L90 60L90 50L80 50L80 40L90 40L90 20L80 20L80 10L60 10L60 0L50 0L50 10L40 10L40 0L30 0L30 10L20 10L20 0L10 0z"/>
<path style="fill:#ffffff; stroke:none;" d="M20 0L20 10L30 10L30 0L20 0M40 0L40 10L50 10L50 0L40 0M60 0L60 10L80 10L80 20L90 20L90 0L60 0M20 20L20 70L70 70L70 20L20 20M0 30L0 60L10 60L10 30L0 30z"/>
<path style="fill:#000000; stroke:none;" d="M30 40L30 60L40 60L40 40L30 40z"/>
<path style="fill:#ffffff; stroke:none;" d="M80 40L80 50L90 50L90 40L80 40M80 60L80 90L90 90L90 60L80 60M10 80L10 90L20 90L20 80L10 80z"/>
</svg>
