<?xml version="1.0" standalone="yes"?>
<svg xmlns="http://www.w3.org/2000/svg" width="90" height="90">
<path style="fill:#000000; stroke:none;" d="M0 0L0 10L10 10L10 20L0 20L0 40L10 40L10 70L0 70L0 90L10 90L10 80L20 80L20 90L50 90L50 80L70 80L70 90L80 90L80 60L90 60L90 0L80 0L80 10L70 10L70 0L20 0L20 10L10 10L10 0L0 0z"/>
<path style="fill:#ffffff; stroke:none;" d="M10 0L10 10L20 10L20 0L10 0M70 0L70 10L80 10L80 0L70 0M0 10L0 20L10 20L10 10L0 10M20 20L20 70L70 70L70 20L20 20z"/>
<path style="fill:#000000; stroke:none;" d="M30 30L30 50L60 50L60 30L30 30z"/>
<path style="fill:#ffffff; stroke:none;" d="M0 40L0 70L10 70L10 40L0 40M80 60L80 90L90 90L90 60L80 60M10 80L10 90L20 90L20 80L10 80M50 80L50 90L70 90L70 80L50 80z"/>
</svg>
