<?xml version="1.0" standalone="yes"?>
<svg xmlns="http://www.w3.org/2000/svg" width="90" height="90">
<path style="fill:#000000; stroke:none;" d="M0 0L0 20L10 20L10 30L0 30L0 40L10 40L10 60L0 60L0 70L10 70L10 80L0 80L0 90L10 90L10 80L50 80L50 90L60 90L60 80L70 80L70 90L90 90L90 80L80 80L80 70L90 70L90 60L80 60L80 10L90 10L90 0L80 0L80 10L70 10L70 0L60 0L60 10L50 10L50 0L40 0L40 10L30 10L30 0L0 0z"/>
<path style="fill:#ffffff; stroke:none;" d="M30 0L30 10L40 10L40 0L30 0M50 0L50 10L60 10L60 0L50 0M70 0L70 10L80 10L80 0L70 0M80 10L80 60L90 60L90 10L80 10M0 20L0 30L10 30L10 20L0 20M20 20L20 70L70 70L70 20L20 20z"/>
<path style="fill:#000000; stroke:none;" d="M30 30L30 60L40 60L40 50L50 50L50 60L60 60L60 30L50 30L50 40L40 40L40 30L30 30z"/>
<path style="fill:#ffffff; stroke:none;" d="M0 40L0 60L10 60L10 40L0 40M0 70L0 80L10 80L10 70L0 70M80 70L80 80L90 80L90 70L80 70M10 80L10 90L50 90L50 80L10 80M60 80L60 90L70 90L70 80L60 80z"/>
</svg>
