<?xml version="1.0" standalone="yes"?>
<svg xmlns="http://www.w3.org/2000/svg" width="90" height="90">
<path style="fill:#ffffff; stroke:none;" d="M0 0L0 20L10 20L10 0L0 0z"/>
<path style="fill:#000000; stroke:none;" d="M10 0L10 20L0 20L0 30L10 30L10 60L0 60L0 70L10 70L10 80L40 80L40 90L70 90L70 80L90 80L90 30L80 30L80 20L90 20L90 0L60 0L60 10L40 10L40 0L10 0z"/>
<path style="fill:#ffffff; stroke:none;" d="M40 0L40 10L60 10L60 0L40 0M20 20L20 70L70 70L70 20L20 20M80 20L80 30L90 30L90 20L80 20M0 30L0 60L10 60L10 30L0 30z"/>
<path style="fill:#000000; stroke:none;" d="M30 30L30 40L60 40L60 30L30 30M30 50L30 60L40 60L40 50L30 50M50 50L50 60L60 60L60 50L50 50z"/>
<path style="fill:#ffffff; stroke:none;" d="M0 70L0 90L40 90L40 80L10 80L10 70L0 70M70 80L70 90L90 90L90 80L70 80z"/>
</svg>
