<?xml version="1.0" standalone="yes"?>
<svg xmlns="http://www.w3.org/2000/svg" width="90" height="90">
<path style="fill:#ffffff; stroke:none;" d="M0 0L0 20L10 20L10 10L30 10L30 0L0 0z"/>
<path style="fill:#000000; stroke:none;" d="M30 0L30 10L10 10L10 20L0 20L0 40L10 40L10 80L0 80L0 90L10 90L10 80L50 80L50 90L80 90L80 70L90 70L90 50L80 50L80 40L90 40L90 20L80 20L80 10L90 10L90 0L70 0L70 10L60 10L60 0L50 0L50 10L40 10L40 0L30 0z"/>
<path style="fill:#ffffff; stroke:none;" d="M40 0L40 10L50 10L50 0L40 0M60 0L60 10L70 10L70 0L60 0M80 10L80 20L90 20L90 10L80 10M20 20L20 70L70 70L70 20L20 20z"/>
<path style="fill:#000000; stroke:none;" d="M30 30L30 60L50 60L50 50L60 50L60 40L50 40L50 50L40 50L40 30L30 30z"/>
<path style="fill:#ffffff; stroke:none;" d="M0 40L0 80L10 80L10 40L0 40M80 40L80 50L90 50L90 40L80 40M80 70L80 90L90 90L90 70L80 70M10 80L10 90L50 90L50 80L10 80z"/>
</svg>
