<?xml version="1.0" standalone="yes"?>
<svg xmlns="http://www.w3.org/2000/svg" width="90" height="90">
<path style="fill:#ffffff; stroke:none;" d="M0 0L0 10L40 10L40 0L0 0z"/>
<path style="fill:#000000; stroke:none;" d="M40 0L40 10L0 10L0 30L10 30L10 50L0 50L0 70L10 70L10 80L0 80L0 90L20 90L20 80L30 80L30 90L40 90L40 80L50 80L50 90L60 90L60 80L70 80L70 90L80 90L80 80L90 80L90 10L50 10L50 0L40 0z"/>
<path style="fill:#ffffff; stroke:none;" d="M50 0L50 10L90 10L90 0L50 0M20 20L20 70L70 70L70 20L20 20M0 30L0 50L10 50L10 30L0 30z"/>
<path style="fill:#000000; stroke:none;" d="M30 30L30 50L60 50L60 30L30 30z"/>
<path style="fill:#ffffff; stroke:none;" d="M0 70L0 80L10 80L10 70L0 70M20 80L20 90L30 90L30 80L20 80M40 80L40 90L50 90L50 80L40 80M60 80L60 90L70 90L70 80L60 80M80 80L80 90L90 90L90 80L80 80z"/>
</svg>
