<?xml version="1.0" standalone="yes"?>
<svg xmlns="http://www.w3.org/2000/svg" width="90" height="90">
<path style="fill:#ffffff; stroke:none;" d="M0 0L0 10L10 10L10 0L0 0z"/>
<path style="fill:#000000; stroke:none;" d="M10 0L10 10L0 10L0 40L10 40L10 60L0 60L0 90L10 90L10 80L40 80L40 90L60 90L60 80L80 80L80 90L90 90L90 60L80 60L80 50L90 50L90 10L70 10L70 0L60 0L60 10L50 10L50 0L10 0z"/>
<path style="fill:#ffffff; stroke:none;" d="M50 0L50 10L60 10L60 0L50 0M70 0L70 10L90 10L90 0L70 0M20 20L20 70L70 70L70 20L20 20z"/>
<path style="fill:#000000; stroke:none;" d="M50 30L50 40L30 40L30 60L50 60L50 40L60 40L60 30L50 30z"/>
<path style="fill:#ffffff; stroke:none;" d="M0 40L0 60L10 60L10 40L0 40M80 50L80 60L90 60L90 50L80 50M10 80L10 90L40 90L40 80L10 80M60 80L60 90L80 90L80 80L60 80z"/>
</svg>
