<?xml version="1.0" standalone="yes"?>
<svg xmlns="http://www.w3.org/2000/svg" width="90" height="90">
<path style="fill:#000000; stroke:none;" d="M0 0L0 10L10 10L10 30L0 30L0 40L10 40L10 80L0 80L0 90L20 90L20 80L30 80L30 90L40 90L40 80L50 80L50 90L70 90L70 80L80 80L80 60L90 60L90 50L80 50L80 40L90 40L90 20L80 20L80 10L90 10L90 0L80 0L80 10L10 10L10 0L0 0z"/>
<path style="fill:#ffffff; stroke:none;" d="M10 0L10 10L80 10L80 0L10 0M0 10L0 30L10 30L10 10L0 10M80 10L80 20L90 20L90 10L80 10M20 20L20 70L70 70L70 20L20 20z"/>
<path style="fill:#000000; stroke:none;" d="M40 30L40 40L30 40L30 50L40 50L40 60L60 60L60 40L50 40L50 30L40 30z"/>
<path style="fill:#ffffff; stroke:none;" d="M0 40L0 80L10 80L10 40L0 40M80 40L80 50L90 50L90 40L80 40M80 60L80 80L70 80L70 90L90 90L90 60L80 60M20 80L20 90L30 90L30 80L20 80M40 80L40 90L50 90L50 80L40 80z"/>
</svg>
