<?xml version="1.0" standalone="yes"?>
<svg xmlns="http://www.w3.org/2000/svg" width="90" height="90">
<path style="fill:#ffffff; stroke:none;" d="M0 0L0 10L20 10L20 0L0 0z"/>
<path style="fill:#000000; stroke:none;" d="M20 0L20 10L0 10L0 20L10 20L10 80L50 80L50 90L60 90L60 80L70 80L70 90L80 90L80 70L90 70L90 60L80 60L80 50L90 50L90 20L80 20L80 0L40 0L40 10L30 10L30 0L20 0z"/>
<path style="fill:#ffffff; stroke:none;" d="M30 0L30 10L40 10L40 0L30 0M80 0L80 20L90 20L90 0L80 0M0 20L0 90L50 90L50 80L10 80L10 20L0 20M20 20L20 70L70 70L70 20L20 20z"/>
<path style="fill:#000000; stroke:none;" d="M40 30L40 40L30 40L30 60L50 60L50 50L60 50L60 40L50 40L50 30L40 30z"/>
<path style="fill:#ffffff; stroke:none;" d="M40 40L40 50L50 50L50 40L40 40M80 50L80 60L90 60L90 50L80 50M80 70L80 90L90 90L90 70L80 70M60 80L60 90L70 90L70 80L60 80z"/>
</svg>
