<?xml version="1.0" standalone="yes"?>
<svg xmlns="http://www.w3.org/2000/svg" width="90" height="90">
<path style="fill:#ffffff; stroke:none;" d="M0 0L0 30L10 30L10 10L40 10L40 0L0 0z"/>
<path style="fill:#000000; stroke:none;" d="M40 0L40 10L10 10L10 30L0 30L0 40L10 40L10 70L0 70L0 80L10 80L10 90L20 90L20 80L50 80L50 90L60 90L60 80L70 80L70 90L80 90L80 60L90 60L90 50L80 50L80 40L90 40L90 10L70 10L70 0L60 0L60 10L50 10L50 0L40 0z"/>
<path style="fill:#ffffff; stroke:none;" d="M50 0L50 10L60 10L60 0L50 0M70 0L70 10L90 10L90 0L70 0M20 20L20 70L70 70L70 20L20 20z"/>
<path style="fill:#000000; stroke:none;" d="M30 30L30 60L60 60L60 40L50 40L50 30L30 30z"/>
<path style="fill:#ffffff; stroke:none;" d="M0 40L0 70L10 70L10 40L0 40M40 40L40 50L50 50L50 40L40 40M80 40L80 50L90 50L90 40L80 40M80 60L80 90L90 90L90 60L80 60M0 80L0 90L10 90L10 80L0 80M20 80L20 90L50 90L50 80L20 80M60 80L60 90L70 90L70 80L60 80z"/>
</svg>
