<?xml version="1.0" standalone="yes"?>
<svg xmlns="http://www.w3.org/2000/svg" width="90" height="90">
<path style="fill:#000000; stroke:none;" d="M0 0L0 10L10 10L10 30L0 30L0 50L10 50L10 60L0 60L0 80L10 80L10 90L30 90L30 80L50 80L50 90L60 90L60 80L80 80L80 90L90 90L90 80L80 80L80 40L90 40L90 30L80 30L80 20L90 20L90 10L80 10L80 0L50 0L50 10L30 10L30 0L0 0z"/>
<path style="fill:#ffffff; stroke:none;" d="M30 0L30 10L50 10L50 0L30 0M80 0L80 10L90 10L90 0L80 0M0 10L0 30L10 30L10 10L0 10M20 20L20 70L70 70L70 20L20 20M80 20L80 30L90 30L90 20L80 20z"/>
<path style="fill:#000000; stroke:none;" d="M30 30L30 40L40 40L40 50L30 50L30 60L40 60L40 50L60 50L60 30L30 30z"/>
<path style="fill:#ffffff; stroke:none;" d="M80 40L80 80L90 80L90 40L80 40M0 50L0 60L10 60L10 50L0 50M0 80L0 90L10 90L10 80L0 80M30 80L30 90L50 90L50 80L30 80M60 80L60 90L80 90L80 80L60 80z"/>
</svg>
