<?xml version="1.0" standalone="yes"?>
<svg xmlns="http://www.w3.org/2000/svg" width="90" height="90">
<path style="fill:#ffffff; stroke:none;" d="M0 0L0 30L10 30L10 0L0 0z"/>
<path style="fill:#000000; stroke:none;" d="M10 0L10 30L0 30L0 60L10 60L10 80L0 80L0 90L20 90L20 80L50 80L50 90L70 90L70 80L80 80L80 90L90 90L90 70L80 70L80 60L90 60L90 40L80 40L80 30L90 30L90 10L50 10L50 0L10 0z"/>
<path style="fill:#ffffff; stroke:none;" d="M50 0L50 10L90 10L90 0L50 0M20 20L20 70L70 70L70 20L20 20z"/>
<path style="fill:#000000; stroke:none;" d="M40 30L40 40L60 40L60 30L40 30z"/>
<path style="fill:#ffffff; stroke:none;" d="M80 30L80 40L90 40L90 30L80 30z"/>
<path style="fill:#000000; stroke:none;" d="M30 50L30 60L40 60L40 50L30 50z"/>
<path style="fill:#ffffff; stroke:none;" d="M0 60L0 80L10 80L10 60L0 60M80 60L80 70L90 70L90 60L80 60M20 80L20 90L50 90L50 80L20 80M70 80L70 90L80 90L80 80L70 80z"/>
</svg>
