<?xml version="1.0" standalone="yes"?>
<svg xmlns="http://www.w3.org/2000/svg" width="90" height="90">
<path style="fill:#ffffff; stroke:none;" d="M0 0L0 20L10 20L10 10L30 10L30 0L0 0z"/>
<path style="fill:#000000; stroke:none;" d="M30 0L30 10L10 10L10 20L0 20L0 40L10 40L10 50L0 50L0 60L10 60L10 80L20 80L20 90L30 90L30 80L50 80L50 90L70 90L70 80L80 80L80 90L90 90L90 70L80 70L80 50L90 50L90 20L80 20L80 10L40 10L40 0L30 0z"/>
<path style="fill:#ffffff; stroke:none;" d="M40 0L40 10L80 10L80 20L90 20L90 0L40 0M20 20L20 70L70 70L70 20L20 20z"/>
<path style="fill:#000000; stroke:none;" d="M30 30L30 60L50 60L50 50L40 50L40 40L50 40L50 30L30 30z"/>
<path style="fill:#ffffff; stroke:none;" d="M0 40L0 50L10 50L10 40L0 40M80 50L80 70L90 70L90 50L80 50M0 60L0 90L20 90L20 80L10 80L10 60L0 60M30 80L30 90L50 90L50 80L30 80M70 80L70 90L80 90L80 80L70 80z"/>
</svg>
