<?xml version="1.0" standalone="yes"?>
<svg xmlns="http://www.w3.org/2000/svg" width="90" height="90">
<path style="fill:#000000; stroke:none;" d="M0 0L0 20L10 20L10 30L0 30L0 60L10 60L10 70L0 70L0 90L20 90L20 80L40 80L40 90L70 90L70 80L80 80L80 90L90 90L90 80L80 80L80 50L90 50L90 0L80 0L80 10L50 10L50 0L30 0L30 10L10 10L10 0L0 0z"/>
<path style="fill:#ffffff; stroke:none;" d="M10 0L10 10L30 10L30 0L10 0M50 0L50 10L80 10L80 0L50 0M0 20L0 30L10 30L10 20L0 20M20 20L20 70L70 70L70 20L20 20z"/>
<path style="fill:#000000; stroke:none;" d="M30 30L30 40L60 40L60 30L30 30M40 50L40 60L60 60L60 50L40 50z"/>
<path style="fill:#ffffff; stroke:none;" d="M80 50L80 80L90 80L90 50L80 50M0 60L0 70L10 70L10 60L0 60M20 80L20 90L40 90L40 80L20 80M70 80L70 90L80 90L80 80L70 80z"/>
</svg>
