<?xml version="1.0" standalone="yes"?>
<svg xmlns="http://www.w3.org/2000/svg" width="90" height="90">
<path style="fill:#000000; stroke:none;" d="M0 0L0 10L10 10L10 20L0 20L0 40L10 40L10 50L0 50L0 60L10 60L10 70L0 70L0 90L40 90L40 80L60 80L60 90L80 90L80 80L90 80L90 60L80 60L80 50L90 50L90 30L80 30L80 0L60 0L60 10L30 10L30 0L0 0z"/>
<path style="fill:#ffffff; stroke:none;" d="M30 0L30 10L60 10L60 0L30 0M80 0L80 30L90 30L90 0L80 0M0 10L0 20L10 20L10 10L0 10M20 20L20 70L70 70L70 20L20 20z"/>
<path style="fill:#000000; stroke:none;" d="M40 30L40 40L30 40L30 60L40 60L40 50L50 50L50 60L60 60L60 40L50 40L50 30L40 30z"/>
<path style="fill:#ffffff; stroke:none;" d="M0 40L0 50L10 50L10 40L0 40M80 50L80 60L90 60L90 50L80 50M0 60L0 70L10 70L10 60L0 60M40 80L40 90L60 90L60 80L40 80M80 80L80 90L90 90L90 80L80 80z"/>
</svg>
