<?xml version="1.0" standalone="yes"?>
<svg xmlns="http://www.w3.org/2000/svg" width="90" height="90">
<path style="fill:#ffffff; stroke:none;" d="M0 0L0 20L10 20L10 0L0 0z"/>
<path style="fill:#000000; stroke:none;" d="M10 0L10 20L0 20L0 40L10 40L10 50L0 50L0 60L10 60L10 70L0 70L0 90L30 90L30 80L50 80L50 90L70 90L70 80L80 80L80 70L90 70L90 60L80 60L80 20L90 20L90 10L70 10L70 0L50 0L50 10L30 10L30 0L10 0z"/>
<path style="fill:#ffffff; stroke:none;" d="M30 0L30 10L50 10L50 0L30 0M70 0L70 10L90 10L90 0L70 0M20 20L20 70L70 70L70 20L20 20M80 20L80 60L90 60L90 20L80 20z"/>
<path style="fill:#000000; stroke:none;" d="M30 30L30 40L50 40L50 60L60 60L60 30L30 30z"/>
<path style="fill:#ffffff; stroke:none;" d="M0 40L0 50L10 50L10 40L0 40M0 60L0 70L10 70L10 60L0 60M80 70L80 80L70 80L70 90L90 90L90 70L80 70M30 80L30 90L50 90L50 80L30 80z"/>
</svg>
