<?xml version="1.0" standalone="yes"?>
<svg xmlns="http://www.w3.org/2000/svg" width="90" height="90">
<path style="fill:#ffffff; stroke:none;" d="M0 0L0 40L10 40L10 0L0 0z"/>
<path style="fill:#000000; stroke:none;" d="M10 0L10 40L0 40L0 60L10 60L10 70L0 70L0 90L20 90L20 80L40 80L40 90L50 90L50 80L60 80L60 90L90 90L90 80L80 80L80 60L90 60L90 30L80 30L80 20L90 20L90 0L80 0L80 10L70 10L70 0L60 0L60 10L50 10L50 0L30 0L30 10L20 10L20 0L10 0z"/>
<path style="fill:#ffffff; stroke:none;" d="M20 0L20 10L30 10L30 0L20 0M50 0L50 10L60 10L60 0L50 0M70 0L70 10L80 10L80 0L70 0M20 20L20 70L70 70L70 20L20 20M80 20L80 30L90 30L90 20L80 20z"/>
<path style="fill:#000000; stroke:none;" d="M40 30L40 40L30 40L30 60L40 60L40 40L50 40L50 30L40 30M50 50L50 60L60 60L60 50L50 50z"/>
<path style="fill:#ffffff; stroke:none;" d="M0 60L0 70L10 70L10 60L0 60M80 60L80 80L90 80L90 60L80 60M20 80L20 90L40 90L40 80L20 80M50 80L50 90L60 90L60 80L50 80z"/>
</svg>
