<?xml version="1.0" standalone="yes"?>
<svg xmlns="http://www.w3.org/2000/svg" width="90" height="90">
<path style="fill:#ffffff; stroke:none;" d="M0 0L0 20L10 20L10 0L0 0z"/>
<path style="fill:#000000; stroke:none;" d="M10 0L10 20L0 20L0 30L10 30L10 50L0 50L0 70L10 70L10 80L20 80L20 90L30 90L30 80L70 80L70 90L80 90L80 50L90 50L90 40L80 40L80 20L90 20L90 0L60 0L60 10L40 10L40 0L10 0z"/>
<path style="fill:#ffffff; stroke:none;" d="M40 0L40 10L60 10L60 0L40 0M20 20L20 70L70 70L70 20L20 20M80 20L80 40L90 40L90 20L80 20M0 30L0 50L10 50L10 30L0 30z"/>
<path style="fill:#000000; stroke:none;" d="M30 30L30 60L40 60L40 40L50 40L50 50L60 50L60 40L50 40L50 30L30 30z"/>
<path style="fill:#ffffff; stroke:none;" d="M80 50L80 90L90 90L90 50L80 50M0 70L0 90L20 90L20 80L10 80L10 70L0 70M30 80L30 90L70 90L70 80L30 80z"/>
</svg>
