<?xml version="1.0" standalone="yes"?>
<svg xmlns="http://www.w3.org/2000/svg" width="90" height="90">
<path style="fill:#000000; stroke:none;" d="M0 0L0 20L10 20L10 30L0 30L0 40L10 40L10 50L0 50L0 70L10 70L10 80L20 80L20 90L40 90L40 80L80 80L80 90L90 90L90 60L80 60L80 40L90 40L90 30L80 30L80 10L90 10L90 0L60 0L60 10L50 10L50 0L0 0z"/>
<path style="fill:#ffffff; stroke:none;" d="M50 0L50 10L60 10L60 0L50 0M80 10L80 30L90 30L90 10L80 10M0 20L0 30L10 30L10 20L0 20M20 20L20 70L70 70L70 20L20 20M0 40L0 50L10 50L10 40L0 40z"/>
<path style="fill:#000000; stroke:none;" d="M30 40L30 60L40 60L40 40L30 40z"/>
<path style="fill:#ffffff; stroke:none;" d="M80 40L80 60L90 60L90 40L80 40z"/>
<path style="fill:#000000; stroke:none;" d="M50 50L50 60L60 60L60 50L50 50z"/>
<path style="fill:#ffffff; stroke:none;" d="M0 70L0 90L20 90L20 80L10 80L10 70L0 70M40 80L40 90L80 90L80 80L40 80z"/>
</svg>
