<?xml version="1.0" standalone="yes"?>
<svg xmlns="http://www.w3.org/2000/svg" width="90" height="90">
<path style="fill:#000000; stroke:none;" d="M0 0L0 50L10 50L10 60L0 60L0 80L40 80L40 90L60 90L60 80L80 80L80 60L90 60L90 50L80 50L80 30L90 30L90 20L80 20L80 10L70 10L70 0L60 0L60 10L40 10L40 0L30 0L30 10L10 10L10 0L0 0z"/>
<path style="fill:#ffffff; stroke:none;" d="M10 0L10 10L30 10L30 0L10 0M40 0L40 10L60 10L60 0L40 0M70 0L70 10L80 10L80 20L90 20L90 0L70 0M20 20L20 70L70 70L70 20L20 20M80 30L80 50L90 50L90 30L80 30z"/>
<path style="fill:#000000; stroke:none;" d="M30 40L30 50L40 50L40 60L60 60L60 40L30 40z"/>
<path style="fill:#ffffff; stroke:none;" d="M0 50L0 60L10 60L10 50L0 50M80 60L80 80L60 80L60 90L90 90L90 60L80 60M0 80L0 90L40 90L40 80L0 80z"/>
</svg>
