<?xml version="1.0" standalone="yes"?>
<svg xmlns="http://www.w3.org/2000/svg" width="90" height="90">
<path style="fill:#000000; stroke:none;" d="M0 0L0 20L10 20L10 40L0 40L0 60L10 60L10 80L30 80L30 90L40 90L40 80L60 80L60 90L90 90L90 70L80 70L80 60L90 60L90 40L80 40L80 30L90 30L90 20L80 20L80 10L90 10L90 0L80 0L80 10L70 10L70 0L60 0L60 10L50 10L50 0L30 0L30 10L20 10L20 0L0 0z"/>
<path style="fill:#ffffff; stroke:none;" d="M20 0L20 10L30 10L30 0L20 0M50 0L50 10L60 10L60 0L50 0M70 0L70 10L80 10L80 0L70 0M80 10L80 20L90 20L90 10L80 10M0 20L0 40L10 40L10 20L0 20M20 20L20 70L70 70L70 20L20 20M80 30L80 40L90 40L90 30L80 30z"/>
<path style="fill:#000000; stroke:none;" d="M50 40L50 50L40 50L40 60L50 60L50 50L60 50L60 40L50 40z"/>
<path style="fill:#ffffff; stroke:none;" d="M0 60L0 90L30 90L30 80L10 80L10 60L0 60M80 60L80 70L90 70L90 60L80 60M40 80L40 90L60 90L60 80L40 80z"/>
</svg>
