<?xml version="1.0" standalone="yes"?>
<svg xmlns="http://www.w3.org/2000/svg" width="90" height="90">
<path style="fill:#ffffff; stroke:none;" d="M0 0L0 20L10 20L10 10L20 10L20 0L0 0z"/>
<path style="fill:#000000; stroke:none;" d="M20 0L20 10L10 10L10 20L0 20L0 30L10 30L10 40L0 40L0 50L10 50L10 60L0 60L0 70L10 70L10 90L30 90L30 80L50 80L50 90L60 90L60 80L80 80L80 90L90 90L90 80L80 80L80 60L90 60L90 40L80 40L80 10L90 10L90 0L70 0L70 10L50 10L50 0L20 0z"/>
<path style="fill:#ffffff; stroke:none;" d="M50 0L50 10L70 10L70 0L50 0M80 10L80 40L90 40L90 10L80 10M20 20L20 70L70 70L70 20L20 20M0 30L0 40L10 40L10 30L0 30z"/>
<path style="fill:#000000; stroke:none;" d="M50 30L50 40L60 40L60 30L50 30M30 40L30 60L50 60L50 50L40 50L40 40L30 40z"/>
<path style="fill:#ffffff; stroke:none;" d="M0 50L0 60L10 60L10 50L0 50M80 60L80 80L90 80L90 60L80 60M0 70L0 90L10 90L10 70L0 70M30 80L30 90L50 90L50 80L30 80M60 80L60 90L80 90L80 80L60 80z"/>
</svg>
