<?xml version="1.0" standalone="yes"?>
<svg xmlns="http://www.w3.org/2000/svg" width="90" height="90">
<path style="fill:#000000; stroke:none;" d="M0 0L0 30L10 30L10 80L0 80L0 90L10 90L10 80L20 80L20 90L50 90L50 80L80 80L80 60L90 60L90 50L80 50L80 20L90 20L90 0L70 0L70 10L50 10L50 0L40 0L40 10L20 10L20 0L0 0z"/>
<path style="fill:#ffffff; stroke:none;" d="M20 0L20 10L40 10L40 0L20 0M50 0L50 10L70 10L70 0L50 0M20 20L20 70L70 70L70 20L20 20M80 20L80 50L90 50L90 20L80 20M0 30L0 80L10 80L10 30L0 30z"/>
<path style="fill:#000000; stroke:none;" d="M30 30L30 60L40 60L40 40L50 40L50 60L60 60L60 30L30 30z"/>
<path style="fill:#ffffff; stroke:none;" d="M80 60L80 80L50 80L50 90L90 90L90 60L80 60M10 80L10 90L20 90L20 80L10 80z"/>
</svg>
