<?xml version="1.0" standalone="yes"?>
<svg xmlns="http://www.w3.org/2000/svg" width="90" height="90">
<path style="fill:#ffffff; stroke:none;" d="M0 0L0 40L10 40L10 10L30 10L30 0L0 0z"/>
<path style="fill:#000000; stroke:none;" d="M30 0L30 10L10 10L10 40L0 40L0 60L10 60L10 90L50 90L50 80L60 80L60 90L70 90L70 80L80 80L80 90L90 90L90 80L80 80L80 50L90 50L90 10L70 10L70 0L60 0L60 10L50 10L50 0L30 0z"/>
<path style="fill:#ffffff; stroke:none;" d="M50 0L50 10L60 10L60 0L50 0M70 0L70 10L90 10L90 0L70 0M20 20L20 70L70 70L70 20L20 20z"/>
<path style="fill:#000000; stroke:none;" d="M40 30L40 40L30 40L30 50L40 50L40 60L60 60L60 50L50 50L50 30L40 30z"/>
<path style="fill:#ffffff; stroke:none;" d="M80 50L80 80L90 80L90 50L80 50M0 60L0 90L10 90L10 60L0 60M50 80L50 90L60 90L60 80L50 80M70 80L70 90L80 90L80 80L70 80z"/>
</svg>
