<?xml version="1.0" standalone="yes"?>
<svg xmlns="http://www.w3.org/2000/svg" width="90" height="90">
<path style="fill:#ffffff; stroke:none;" d="M0 0L0 10L90 10L90 0L0 0z"/>
<path style="fill:#000000; stroke:none;" d="M0 10L0 20L10 20L10 70L0 70L0 90L30 90L30 80L40 80L40 90L80 90L80 70L90 70L90 60L80 60L80 50L90 50L90 10L0 10z"/>
<path style="fill:#ffffff; stroke:none;" d="M0 20L0 70L10 70L10 20L0 20M20 20L20 70L70 70L70 20L20 20z"/>
<path style="fill:#000000; stroke:none;" d="M30 30L30 40L40 40L40 50L50 50L50 60L60 60L60 40L40 40L40 30L30 30z"/>
<path style="fill:#ffffff; stroke:none;" d="M80 50L80 60L90 60L90 50L80 50M80 70L80 90L90 90L90 70L80 70M30 80L30 90L40 90L40 80L30 80z"/>
</svg>
