<?xml version="1.0" standalone="yes"?>
<svg xmlns="http://www.w3.org/2000/svg" width="90" height="90">
<path style="fill:#ffffff; stroke:none;" d="M0 0L0 10L80 10L80 0L0 0z"/>
<path style="fill:#000000; stroke:none;" d="M80 0L80 10L0 10L0 20L10 20L10 40L0 40L0 80L20 80L20 90L30 90L30 80L50 80L50 90L60 90L60 80L70 80L70 90L80 90L80 70L90 70L90 50L80 50L80 40L90 40L90 30L80 30L80 20L90 20L90 0L80 0z"/>
<path style="fill:#ffffff; stroke:none;" d="M0 20L0 40L10 40L10 20L0 20M20 20L20 70L70 70L70 20L20 20M80 20L80 30L90 30L90 20L80 20z"/>
<path style="fill:#000000; stroke:none;" d="M40 30L40 40L50 40L50 30L40 30z"/>
<path style="fill:#ffffff; stroke:none;" d="M80 40L80 50L90 50L90 40L80 40z"/>
<path style="fill:#000000; stroke:none;" d="M30 50L30 60L40 60L40 50L30 50M50 50L50 60L60 60L60 50L50 50z"/>
<path style="fill:#ffffff; stroke:none;" d="M80 70L80 90L90 90L90 70L80 70M0 80L0 90L20 90L20 80L0 80M30 80L30 90L50 90L50 80L30 80M60 80L60 90L70 90L70 80L60 80z"/>
</svg>
