<?xml version="1.0" standalone="yes"?>
<svg xmlns="http://www.w3.org/2000/svg" width="90" height="90">
<path style="fill:#000000; stroke:none;" d="M0 0L0 40L10 40L10 50L0 50L0 60L10 60L10 70L0 70L0 90L20 90L20 80L40 80L40 90L50 90L50 80L70 80L70 90L90 90L90 80L80 80L80 50L90 50L90 20L80 20L80 10L90 10L90 0L80 0L80 10L70 10L70 0L60 0L60 10L40 10L40 0L0 0z"/>
<path style="fill:#ffffff; stroke:none;" d="M40 0L40 10L60 10L60 0L40 0M70 0L70 10L80 10L80 0L70 0M80 10L80 20L90 20L90 10L80 10M20 20L20 70L70 70L70 20L20 20z"/>
<path style="fill:#000000; stroke:none;" d="M30 30L30 40L40 40L40 30L30 30z"/>
<path style="fill:#ffffff; stroke:none;" d="M0 40L0 50L10 50L10 40L0 40z"/>
<path style="fill:#000000; stroke:none;" d="M50 40L50 50L60 50L60 40L50 40M30 50L30 60L40 60L40 50L30 50z"/>
<path style="fill:#ffffff; stroke:none;" d="M80 50L80 80L90 80L90 50L80 50M0 60L0 70L10 70L10 60L0 60M20 80L20 90L40 90L40 80L20 80M50 80L50 90L70 90L70 80L50 80z"/>
</svg>
