<?xml version="1.0" standalone="yes"?>
<svg xmlns="http://www.w3.org/2000/svg" width="90" height="90">
<path style="fill:#000000; stroke:none;" d="M0 0L0 20L10 20L10 80L0 80L0 90L10 90L10 80L30 80L30 90L60 90L60 80L70 80L70 90L90 90L90 80L80 80L80 60L90 60L90 40L80 40L80 20L90 20L90 10L40 10L40 0L20 0L20 10L10 10L10 0L0 0z"/>
<path style="fill:#ffffff; stroke:none;" d="M10 0L10 10L20 10L20 0L10 0M40 0L40 10L90 10L90 0L40 0M0 20L0 80L10 80L10 20L0 20M20 20L20 70L70 70L70 20L20 20M80 20L80 40L90 40L90 20L80 20z"/>
<path style="fill:#000000; stroke:none;" d="M50 30L50 40L60 40L60 30L50 30M30 40L30 50L40 50L40 60L60 60L60 50L40 50L40 40L30 40z"/>
<path style="fill:#ffffff; stroke:none;" d="M80 60L80 80L90 80L90 60L80 60M10 80L10 90L30 90L30 80L10 80M60 80L60 90L70 90L70 80L60 80z"/>
</svg>
