<?xml version="1.0" standalone="yes"?>
<svg xmlns="http://www.w3.org/2000/svg" width="90" height="90">
<path style="fill:#000000; stroke:none;" d="M0 0L0 10L10 10L10 40L0 40L0 80L10 80L10 90L20 90L20 80L50 80L50 90L60 90L60 80L80 80L80 70L90 70L90 20L80 20L80 10L90 10L90 0L80 0L80 10L70 10L70 0L50 0L50 10L40 10L40 0L30 0L30 10L10 10L10 0L0 0z"/>
<path style="fill:#ffffff; stroke:none;" d="M10 0L10 10L30 10L30 0L10 0M40 0L40 10L50 10L50 0L40 0M70 0L70 10L80 10L80 0L70 0M0 10L0 40L10 40L10 10L0 10M80 10L80 20L90 20L90 10L80 10M20 20L20 70L70 70L70 20L20 20z"/>
<path style="fill:#000000; stroke:none;" d="M30 30L30 40L40 40L40 30L30 30M50 40L50 60L60 60L60 40L50 40M30 50L30 60L40 60L40 50L30 50z"/>
<path style="fill:#ffffff; stroke:none;" d="M80 70L80 80L60 80L60 90L90 90L90 70L80 70M0 80L0 90L10 90L10 80L0 80M20 80L20 90L50 90L50 80L20 80z"/>
</svg>
