<?xml version="1.0" standalone="yes"?>
<svg xmlns="http://www.w3.org/2000/svg" width="90" height="90">
<path style="fill:#000000; stroke:none;" d="M0 0L0 10L10 10L10 30L0 30L0 50L10 50L10 60L0 60L0 70L10 70L10 90L20 90L20 80L30 80L30 90L40 90L40 80L60 80L60 90L80 90L80 80L90 80L90 60L80 60L80 50L90 50L90 40L80 40L80 10L90 10L90 0L80 0L80 10L70 10L70 0L50 0L50 10L30 10L30 0L20 0L20 10L10 10L10 0L0 0z"/>
<path style="fill:#ffffff; stroke:none;" d="M10 0L10 10L20 10L20 0L10 0M30 0L30 10L50 10L50 0L30 0M70 0L70 10L80 10L80 0L70 0M0 10L0 30L10 30L10 10L0 10M80 10L80 40L90 40L90 10L80 10M20 20L20 70L70 70L70 20L20 20z"/>
<path style="fill:#000000; stroke:none;" d="M30 30L30 60L40 60L40 30L30 30M50 40L50 60L60 60L60 40L50 40z"/>
<path style="fill:#ffffff; stroke:none;" d="M0 50L0 60L10 60L10 50L0 50M80 50L80 60L90 60L90 50L80 50M0 70L0 90L10 90L10 70L0 70M20 80L20 90L30 90L30 80L20 80M40 80L40 90L60 90L60 80L40 80M80 80L80 90L90 90L90 80L80 80z"/>
</svg>
