<?xml version="1.0" standalone="yes"?>
<svg xmlns="http://www.w3.org/2000/svg" width="90" height="90">
<path style="fill:#ffffff; stroke:none;" d="M0 0L0 40L10 40L10 0L0 0z"/>
<path style="fill:#000000; stroke:none;" d="M10 0L10 40L0 40L0 50L10 50L10 70L0 70L0 90L20 90L20 80L30 80L30 90L70 90L70 80L80 80L80 90L90 90L90 60L80 60L80 40L90 40L90 30L80 30L80 20L90 20L90 0L80 0L80 10L70 10L70 0L50 0L50 10L30 10L30 0L10 0z"/>
<path style="fill:#ffffff; stroke:none;" d="M30 0L30 10L50 10L50 0L30 0M70 0L70 10L80 10L80 0L70 0M20 20L20 70L70 70L70 20L20 20M80 20L80 30L90 30L90 20L80 20z"/>
<path style="fill:#000000; stroke:none;" d="M40 30L40 40L60 40L60 30L40 30z"/>
<path style="fill:#ffffff; stroke:none;" d="M80 40L80 60L90 60L90 40L80 40M0 50L0 70L10 70L10 50L0 50z"/>
<path style="fill:#000000; stroke:none;" d="M50 50L50 60L60 60L60 50L50 50z"/>
<path style="fill:#ffffff; stroke:none;" d="M20 80L20 90L30 90L30 80L20 80M70 80L70 90L80 90L80 80L70 80z"/>
</svg>
