<?xml version="1.0" standalone="yes"?>
<svg xmlns="http://www.w3.org/2000/svg" width="90" height="90">
<path style="fill:#000000; stroke:none;" d="M0 0L0 30L10 30L10 70L0 70L0 90L40 90L40 80L50 80L50 90L80 90L80 80L90 80L90 50L80 50L80 20L90 20L90 10L60 10L60 0L40 0L40 10L30 10L30 0L20 0L20 10L10 10L10 0L0 0z"/>
<path style="fill:#ffffff; stroke:none;" d="M10 0L10 10L20 10L20 0L10 0M30 0L30 10L40 10L40 0L30 0M60 0L60 10L90 10L90 0L60 0M20 20L20 70L70 70L70 20L20 20M80 20L80 50L90 50L90 20L80 20M0 30L0 70L10 70L10 30L0 30z"/>
<path style="fill:#000000; stroke:none;" d="M30 30L30 40L40 40L40 30L30 30M50 40L50 50L60 50L60 40L50 40z"/>
<path style="fill:#ffffff; stroke:none;" d="M40 80L40 90L50 90L50 80L40 80M80 80L80 90L90 90L90 80L80 80z"/>
</svg>
