<?xml version="1.0" standalone="yes"?>
<svg xmlns="http://www.w3.org/2000/svg" width="90" height="90">
<path style="fill:#ffffff; stroke:none;" d="M0 0L0 10L90 10L90 0L0 0z"/>
<path style="fill:#000000; stroke:none;" d="M0 10L0 20L10 20L10 40L0 40L0 60L10 60L10 80L0 80L0 90L10 90L10 80L20 80L20 90L30 90L30 80L60 80L60 90L90 90L90 80L80 80L80 70L90 70L90 50L80 50L80 40L90 40L90 10L0 10z"/>
<path style="fill:#ffffff; stroke:none;" d="M0 20L0 40L10 40L10 20L0 20M20 20L20 70L70 70L70 20L20 20z"/>
<path style="fill:#000000; stroke:none;" d="M40 30L40 40L50 40L50 50L40 50L40 60L60 60L60 30L40 30z"/>
<path style="fill:#ffffff; stroke:none;" d="M80 40L80 50L90 50L90 40L80 40M0 60L0 80L10 80L10 60L0 60M80 70L80 80L90 80L90 70L80 70M10 80L10 90L20 90L20 80L10 80M30 80L30 90L60 90L60 80L30 80z"/>
</svg>
