<?xml version="1.0" standalone="yes"?>
<svg xmlns="http://www.w3.org/2000/svg" width="90" height="90">
<path style="fill:#000000; stroke:none;" d="M0 0L0 30L10 30L10 40L0 40L0 60L10 60L10 70L0 70L0 90L30 90L30 80L80 80L80 90L90 90L90 80L80 80L80 50L90 50L90 40L80 40L80 30L90 30L90 0L80 0L80 10L60 10L60 0L50 0L50 10L30 10L30 0L0 0z"/>
<path style="fill:#ffffff; stroke:none;" d="M30 0L30 10L50 10L50 0L30 0M60 0L60 10L80 10L80 0L60 0M20 20L20 70L70 70L70 20L20 20M0 30L0 40L10 40L10 30L0 30z"/>
<path style="fill:#000000; stroke:none;" d="M30 30L30 50L40 50L40 30L30 30z"/>
<path style="fill:#ffffff; stroke:none;" d="M80 30L80 40L90 40L90 30L80 30M80 50L80 80L90 80L90 50L80 50M0 60L0 70L10 70L10 60L0 60M30 80L30 90L80 90L80 80L30 80z"/>
</svg>
