<?xml version="1.0" standalone="yes"?>
<svg xmlns="http://www.w3.org/2000/svg" width="90" height="90">
<path style="fill:#000000; stroke:none;" d="M0 0L0 10L10 10L10 20L0 20L0 30L10 30L10 40L0 40L0 50L10 50L10 80L0 80L0 90L30 90L30 80L40 80L40 90L70 90L70 80L80 80L80 90L90 90L90 80L80 80L80 40L90 40L90 10L80 10L80 0L70 0L70 10L50 10L50 0L20 0L20 10L10 10L10 0L0 0z"/>
<path style="fill:#ffffff; stroke:none;" d="M10 0L10 10L20 10L20 0L10 0M50 0L50 10L70 10L70 0L50 0M80 0L80 10L90 10L90 0L80 0M0 10L0 20L10 20L10 10L0 10M20 20L20 70L70 70L70 20L20 20M0 30L0 40L10 40L10 30L0 30z"/>
<path style="fill:#000000; stroke:none;" d="M30 30L30 50L40 50L40 30L30 30M50 30L50 60L60 60L60 30L50 30z"/>
<path style="fill:#ffffff; stroke:none;" d="M80 40L80 80L90 80L90 40L80 40M0 50L0 80L10 80L10 50L0 50M30 80L30 90L40 90L40 80L30 80M70 80L70 90L80 90L80 80L70 80z"/>
</svg>
