<?xml version="1.0" standalone="yes"?>
<svg xmlns="http://www.w3.org/2000/svg" width="90" height="90">
<path style="fill:#ffffff; stroke:none;" d="M0 0L0 20L10 20L10 10L50 10L50 0L0 0z"/>
<path style="fill:#000000; stroke:none;" d="M50 0L50 10L10 10L10 20L0 20L0 60L10 60L10 70L0 70L0 90L10 90L10 80L40 80L40 90L60 90L60 80L90 80L90 60L80 60L80 50L90 50L90 40L80 40L80 30L90 30L90 10L80 10L80 0L50 0z"/>
<path style="fill:#ffffff; stroke:none;" d="M80 0L80 10L90 10L90 0L80 0M20 20L20 70L70 70L70 20L20 20z"/>
<path style="fill:#000000; stroke:none;" d="M30 30L30 40L40 40L40 50L30 50L30 60L40 60L40 50L50 50L50 30L30 30z"/>
<path style="fill:#ffffff; stroke:none;" d="M80 30L80 40L90 40L90 30L80 30M80 50L80 60L90 60L90 50L80 50M0 60L0 70L10 70L10 60L0 60M10 80L10 90L40 90L40 80L10 80M60 80L60 90L90 90L90 80L60 80z"/>
</svg>
