<?xml version="1.0" standalone="yes"?>
<svg xmlns="http://www.w3.org/2000/svg" width="90" height="90">
<path style="fill:#ffffff; stroke:none;" d="M0 0L0 20L10 20L10 0L0 0z"/>
<path style="fill:#000000; stroke:none;" d="M10 0L10 20L0 20L0 30L10 30L10 50L0 50L0 70L10 70L10 80L0 80L0 90L10 90L10 80L30 80L30 90L40 90L40 80L60 80L60 90L90 90L90 70L80 70L80 60L90 60L90 40L80 40L80 30L90 30L90 10L50 10L50 0L10 0z"/>
<path style="fill:#ffffff; stroke:none;" d="M50 0L50 10L90 10L90 0L50 0M20 20L20 70L70 70L70 20L20 20M0 30L0 50L10 50L10 30L0 30z"/>
<path style="fill:#000000; stroke:none;" d="M50 30L50 50L40 50L40 40L30 40L30 60L50 60L50 50L60 50L60 30L50 30z"/>
<path style="fill:#ffffff; stroke:none;" d="M80 30L80 40L90 40L90 30L80 30M80 60L80 70L90 70L90 60L80 60M0 70L0 80L10 80L10 70L0 70M10 80L10 90L30 90L30 80L10 80M40 80L40 90L60 90L60 80L40 80z"/>
</svg>
