<?xml version="1.0" standalone="yes"?>
<svg xmlns="http://www.w3.org/2000/svg" width="90" height="90">
<path style="fill:#ffffff; stroke:none;" d="M0 0L0 10L10 10L10 0L0 0z"/>
<path style="fill:#000000; stroke:none;" d="M10 0L10 10L0 10L0 50L10 50L10 70L0 70L0 90L20 90L20 80L30 80L30 90L40 90L40 80L80 80L80 60L90 60L90 50L80 50L80 40L90 40L90 30L80 30L80 10L50 10L50 0L10 0z"/>
<path style="fill:#ffffff; stroke:none;" d="M50 0L50 10L80 10L80 30L90 30L90 0L50 0M20 20L20 70L70 70L70 20L20 20z"/>
<path style="fill:#000000; stroke:none;" d="M30 30L30 40L40 40L40 60L60 60L60 50L50 50L50 40L40 40L40 30L30 30z"/>
<path style="fill:#ffffff; stroke:none;" d="M80 40L80 50L90 50L90 40L80 40M0 50L0 70L10 70L10 50L0 50M80 60L80 80L40 80L40 90L90 90L90 60L80 60M20 80L20 90L30 90L30 80L20 80z"/>
</svg>
