<?xml version="1.0" standalone="yes"?>
<svg xmlns="http://www.w3.org/2000/svg" width="90" height="90">
<path style="fill:#000000; stroke:none;" d="M0 0L0 10L10 10L10 20L0 20L0 40L10 40L10 60L0 60L0 70L10 70L10 80L0 80L0 90L10 90L10 80L30 80L30 90L40 90L40 80L50 80L50 90L80 90L80 80L90 80L90 60L80 60L80 50L90 50L90 40L80 40L80 30L90 30L90 10L80 10L80 0L60 0L60 10L40 10L40 0L30 0L30 10L20 10L20 0L0 0z"/>
<path style="fill:#ffffff; stroke:none;" d="M20 0L20 10L30 10L30 0L20 0M40 0L40 10L60 10L60 0L40 0M80 0L80 10L90 10L90 0L80 0M0 10L0 20L10 20L10 10L0 10M20 20L20 70L70 70L70 20L20 20z"/>
<path style="fill:#000000; stroke:none;" d="M30 30L30 60L40 60L40 30L30 30M50 30L50 60L60 60L60 30L50 30z"/>
<path style="fill:#ffffff; stroke:none;" d="M80 30L80 40L90 40L90 30L80 30M0 40L0 60L10 60L10 40L0 40M80 50L80 60L90 60L90 50L80 50M0 70L0 80L10 80L10 70L0 70M10 80L10 90L30 90L30 80L10 80M40 80L40 90L50 90L50 80L40 80M80 80L80 90L90 90L90 80L80 80z"/>
</svg>
