<?xml version="1.0" standalone="yes"?>
<svg xmlns="http://www.w3.org/2000/svg" width="90" height="90">
<path style="fill:#ffffff; stroke:none;" d="M0 0L0 10L10 10L10 0L0 0z"/>
<path style="fill:#000000; stroke:none;" d="M10 0L10 10L0 10L0 20L10 20L10 40L0 40L0 50L10 50L10 70L0 70L0 80L30 80L30 90L50 90L50 80L70 80L70 90L80 90L80 70L90 70L90 30L80 30L80 0L70 0L70 10L60 10L60 0L10 0z"/>
<path style="fill:#ffffff; stroke:none;" d="M60 0L60 10L70 10L70 0L60 0M80 0L80 30L90 30L90 0L80 0M0 20L0 40L10 40L10 20L0 20M20 20L20 70L70 70L70 20L20 20z"/>
<path style="fill:#000000; stroke:none;" d="M30 30L30 60L40 60L40 30L30 30M50 40L50 50L60 50L60 40L50 40z"/>
<path style="fill:#ffffff; stroke:none;" d="M0 50L0 70L10 70L10 50L0 50M80 70L80 90L90 90L90 70L80 70M0 80L0 90L30 90L30 80L0 80M50 80L50 90L70 90L70 80L50 80z"/>
</svg>
