<?xml version="1.0" standalone="yes"?>
<svg xmlns="http://www.w3.org/2000/svg" width="90" height="90">
<path style="fill:#000000; stroke:none;" d="M0 0L0 10L10 10L10 40L0 40L0 60L10 60L10 70L0 70L0 90L10 90L10 80L20 80L20 90L30 90L30 80L40 80L40 90L80 90L80 60L90 60L90 40L80 40L80 20L90 20L90 10L80 10L80 0L70 0L70 10L40 10L40 0L30 0L30 10L10 10L10 0L0 0z"/>
<path style="fill:#ffffff; stroke:none;" d="M10 0L10 10L30 10L30 0L10 0M40 0L40 10L70 10L70 0L40 0M80 0L80 10L90 10L90 0L80 0M0 10L0 40L10 40L10 10L0 10M20 20L20 70L70 70L70 20L20 20M80 20L80 40L90 40L90 20L80 20z"/>
<path style="fill:#000000; stroke:none;" d="M30 30L30 60L60 60L60 30L30 30z"/>
<path style="fill:#ffffff; stroke:none;" d="M0 60L0 70L10 70L10 60L0 60M80 60L80 90L90 90L90 60L80 60M10 80L10 90L20 90L20 80L10 80M30 80L30 90L40 90L40 80L30 80z"/>
</svg>
