<?xml version="1.0" standalone="yes"?>
<svg xmlns="http://www.w3.org/2000/svg" width="90" height="90">
<path style="fill:#000000; stroke:none;" d="M0 0L0 10L10 10L10 50L0 50L0 70L10 70L10 80L30 80L30 90L40 90L40 80L80 80L80 60L90 60L90 20L80 20L80 10L70 10L70 0L60 0L60 10L50 10L50 0L30 0L30 10L10 10L10 0L0 0z"/>
<path style="fill:#ffffff; stroke:none;" d="M10 0L10 10L30 10L30 0L10 0M50 0L50 10L60 10L60 0L50 0M70 0L70 10L80 10L80 20L90 20L90 0L70 0M0 10L0 50L10 50L10 10L0 10M20 20L20 70L70 70L70 20L20 20z"/>
<path style="fill:#000000; stroke:none;" d="M50 30L50 40L40 40L40 50L30 50L30 60L50 60L50 50L60 50L60 30L50 30z"/>
<path style="fill:#ffffff; stroke:none;" d="M80 60L80 80L40 80L40 90L90 90L90 60L80 60M0 70L0 90L30 90L30 80L10 80L10 70L0 70z"/>
</svg>
