<?xml version="1.0" standalone="yes"?>
<svg xmlns="http://www.w3.org/2000/svg" width="90" height="90">
<path style="fill:#ffffff; stroke:none;" d="M0 0L0 10L40 10L40 0L0 0z"/>
<path style="fill:#000000; stroke:none;" d="M40 0L40 10L0 10L0 40L10 40L10 50L0 50L0 70L10 70L10 80L0 80L0 90L10 90L10 80L20 80L20 90L30 90L30 80L70 80L70 90L90 90L90 70L80 70L80 40L90 40L90 0L80 0L80 10L60 10L60 0L40 0z"/>
<path style="fill:#ffffff; stroke:none;" d="M60 0L60 10L80 10L80 0L60 0M20 20L20 70L70 70L70 20L20 20z"/>
<path style="fill:#000000; stroke:none;" d="M30 30L30 50L40 50L40 40L50 40L50 60L60 60L60 40L50 40L50 30L30 30z"/>
<path style="fill:#ffffff; stroke:none;" d="M0 40L0 50L10 50L10 40L0 40M80 40L80 70L90 70L90 40L80 40M0 70L0 80L10 80L10 70L0 70M10 80L10 90L20 90L20 80L10 80M30 80L30 90L70 90L70 80L30 80z"/>
</svg>
