<?xml version="1.0" standalone="yes"?>
<svg xmlns="http://www.w3.org/2000/svg" width="90" height="90">
<path style="fill:#000000; stroke:none;" d="M0 0L0 60L10 60L10 80L30 80L30 90L60 90L60 80L70 80L70 90L90 90L90 80L80 80L80 60L90 60L90 50L80 50L80 10L50 10L50 0L30 0L30 10L20 10L20 0L0 0z"/>
<path style="fill:#ffffff; stroke:none;" d="M20 0L20 10L30 10L30 0L20 0M50 0L50 10L80 10L80 50L90 50L90 0L50 0M20 20L20 70L70 70L70 20L20 20z"/>
<path style="fill:#000000; stroke:none;" d="M50 30L50 40L40 40L40 60L50 60L50 50L60 50L60 30L50 30z"/>
<path style="fill:#ffffff; stroke:none;" d="M0 60L0 90L30 90L30 80L10 80L10 60L0 60M80 60L80 80L90 80L90 60L80 60M60 80L60 90L70 90L70 80L60 80z"/>
</svg>
