<?xml version="1.0" standalone="yes"?>
<svg xmlns="http://www.w3.org/2000/svg" width="90" height="90">
<path style="fill:#000000; stroke:none;" d="M0 0L0 20L10 20L10 30L0 30L0 50L10 50L10 70L0 70L0 90L10 90L10 80L20 80L20 90L50 90L50 80L70 80L70 90L90 90L90 80L80 80L80 0L50 0L50 10L40 10L40 0L0 0z"/>
<path style="fill:#ffffff; stroke:none;" d="M40 0L40 10L50 10L50 0L40 0M80 0L80 80L90 80L90 0L80 0M0 20L0 30L10 30L10 20L0 20M20 20L20 70L70 70L70 20L20 20z"/>
<path style="fill:#000000; stroke:none;" d="M30 30L30 40L40 40L40 30L30 30M50 30L50 50L40 50L40 60L60 60L60 30L50 30z"/>
<path style="fill:#ffffff; stroke:none;" d="M0 50L0 70L10 70L10 50L0 50M10 80L10 90L20 90L20 80L10 80M50 80L50 90L70 90L70 80L50 80z"/>
</svg>
