<?xml version="1.0" standalone="yes"?>
<svg xmlns="http://www.w3.org/2000/svg" width="90" height="90">
<path style="fill:#ffffff; stroke:none;" d="M0 0L0 20L10 20L10 10L20 10L20 0L0 0z"/>
<path style="fill:#000000; stroke:none;" d="M20 0L20 10L10 10L10 20L0 20L0 30L10 30L10 40L0 40L0 50L10 50L10 80L0 80L0 90L10 90L10 80L40 80L40 90L50 90L50 80L60 80L60 90L80 90L80 80L90 80L90 70L80 70L80 60L90 60L90 40L80 40L80 20L90 20L90 10L80 10L80 0L70 0L70 10L50 10L50 0L20 0z"/>
<path style="fill:#ffffff; stroke:none;" d="M50 0L50 10L70 10L70 0L50 0M80 0L80 10L90 10L90 0L80 0M20 20L20 70L70 70L70 20L20 20M80 20L80 40L90 40L90 20L80 20M0 30L0 40L10 40L10 30L0 30z"/>
<path style="fill:#000000; stroke:none;" d="M40 30L40 50L30 50L30 60L40 60L40 50L50 50L50 60L60 60L60 30L40 30z"/>
<path style="fill:#ffffff; stroke:none;" d="M0 50L0 80L10 80L10 50L0 50M80 60L80 70L90 70L90 60L80 60M10 80L10 90L40 90L40 80L10 80M50 80L50 90L60 90L60 80L50 80M80 80L80 90L90 90L90 80L80 80z"/>
</svg>
