<?xml version="1.0" standalone="yes"?>
<svg xmlns="http://www.w3.org/2000/svg" width="90" height="90">
<path style="fill:#000000; stroke:none;" d="M0 0L0 40L10 40L10 60L0 60L0 70L10 70L10 80L0 80L0 90L40 90L40 80L50 80L50 90L70 90L70 80L80 80L80 60L90 60L90 30L80 30L80 10L40 10L40 0L0 0z"/>
<path style="fill:#ffffff; stroke:none;" d="M40 0L40 10L80 10L80 30L90 30L90 0L40 0M20 20L20 70L70 70L70 20L20 20z"/>
<path style="fill:#000000; stroke:none;" d="M50 30L50 40L30 40L30 50L50 50L50 60L60 60L60 50L50 50L50 40L60 40L60 30L50 30z"/>
<path style="fill:#ffffff; stroke:none;" d="M0 40L0 60L10 60L10 40L0 40M80 60L80 80L70 80L70 90L90 90L90 60L80 60M0 70L0 80L10 80L10 70L0 70M40 80L40 90L50 90L50 80L40 80z"/>
</svg>
