<?xml version="1.0" standalone="yes"?>
<svg xmlns="http://www.w3.org/2000/svg" width="90" height="90">
<path style="fill:#ffffff; stroke:none;" d="M0 0L0 30L10 30L10 10L40 10L40 0L0 0z"/>
<path style="fill:#000000; stroke:none;" d="M40 0L40 10L10 10L10 30L0 30L0 40L10 40L10 50L0 50L0 60L10 60L10 80L0 80L0 90L10 90L10 80L30 80L30 90L50 90L50 80L60 80L60 90L70 90L70 80L80 80L80 90L90 90L90 80L80 80L80 70L90 70L90 60L80 60L80 40L90 40L90 20L80 20L80 10L50 10L50 0L40 0z"/>
<path style="fill:#ffffff; stroke:none;" d="M50 0L50 10L80 10L80 20L90 20L90 0L50 0M20 20L20 70L70 70L70 20L20 20z"/>
<path style="fill:#000000; stroke:none;" d="M50 30L50 40L60 40L60 30L50 30z"/>
<path style="fill:#ffffff; stroke:none;" d="M0 40L0 50L10 50L10 40L0 40M80 40L80 60L90 60L90 40L80 40z"/>
<path style="fill:#000000; stroke:none;" d="M40 50L40 60L50 60L50 50L40 50z"/>
<path style="fill:#ffffff; stroke:none;" d="M0 60L0 80L10 80L10 60L0 60M80 70L80 80L90 80L90 70L80 70M10 80L10 90L30 90L30 80L10 80M50 80L50 90L60 90L60 80L50 80M70 80L70 90L80 90L80 80L70 80z"/>
</svg>
