<?xml version="1.0" standalone="yes"?>
<svg xmlns="http://www.w3.org/2000/svg" width="90" height="90">
<path style="fill:#000000; stroke:none;" d="M0 0L0 30L10 30L10 50L0 50L0 70L10 70L10 80L0 80L0 90L30 90L30 80L50 80L50 90L60 90L60 80L70 80L70 90L80 90L80 60L90 60L90 20L80 20L80 10L90 10L90 0L80 0L80 10L60 10L60 0L50 0L50 10L40 10L40 0L20 0L20 10L10 10L10 0L0 0z"/>
<path style="fill:#ffffff; stroke:none;" d="M10 0L10 10L20 10L20 0L10 0M40 0L40 10L50 10L50 0L40 0M60 0L60 10L80 10L80 0L60 0M80 10L80 20L90 20L90 10L80 10M20 20L20 70L70 70L70 20L20 20M0 30L0 50L10 50L10 30L0 30z"/>
<path style="fill:#000000; stroke:none;" d="M30 30L30 50L40 50L40 60L50 60L50 40L60 40L60 30L50 30L50 40L40 40L40 30L30 30z"/>
<path style="fill:#ffffff; stroke:none;" d="M80 60L80 90L90 90L90 60L80 60M0 70L0 80L10 80L10 70L0 70M30 80L30 90L50 90L50 80L30 80M60 80L60 90L70 90L70 80L60 80z"/>
</svg>
