<?xml version="1.0" standalone="yes"?>
<svg xmlns="http://www.w3.org/2000/svg" width="90" height="90">
<path style="fill:#ffffff; stroke:none;" d="M0 0L0 30L10 30L10 10L30 10L30 0L0 0z"/>
<path style="fill:#000000; stroke:none;" d="M30 0L30 10L10 10L10 30L0 30L0 40L10 40L10 50L0 50L0 60L10 60L10 80L20 80L20 90L50 90L50 80L70 80L70 90L80 90L80 40L90 40L90 30L80 30L80 0L30 0z"/>
<path style="fill:#ffffff; stroke:none;" d="M80 0L80 30L90 30L90 0L80 0M20 20L20 70L70 70L70 20L20 20z"/>
<path style="fill:#000000; stroke:none;" d="M40 30L40 50L50 50L50 60L60 60L60 50L50 50L50 30L40 30z"/>
<path style="fill:#ffffff; stroke:none;" d="M0 40L0 50L10 50L10 40L0 40M80 40L80 90L90 90L90 40L80 40M0 60L0 90L20 90L20 80L10 80L10 60L0 60M50 80L50 90L70 90L70 80L50 80z"/>
</svg>
