<?xml version="1.0" standalone="yes"?>
<svg xmlns="http://www.w3.org/2000/svg" width="90" height="90">
<path style="fill:#000000; stroke:none;" d="M0 0L0 10L10 10L10 40L0 40L0 70L10 70L10 80L0 80L0 90L30 90L30 80L40 80L40 90L70 90L70 80L80 80L80 60L90 60L90 50L80 50L80 30L90 30L90 20L80 20L80 0L50 0L50 10L40 10L40 0L0 0z"/>
<path style="fill:#ffffff; stroke:none;" d="M40 0L40 10L50 10L50 0L40 0M80 0L80 20L90 20L90 0L80 0M0 10L0 40L10 40L10 10L0 10M20 20L20 70L70 70L70 20L20 20z"/>
<path style="fill:#000000; stroke:none;" d="M30 30L30 60L40 60L40 50L60 50L60 30L30 30z"/>
<path style="fill:#ffffff; stroke:none;" d="M80 30L80 50L90 50L90 30L80 30M80 60L80 80L70 80L70 90L90 90L90 60L80 60M0 70L0 80L10 80L10 70L0 70M30 80L30 90L40 90L40 80L30 80z"/>
</svg>
