<?xml version="1.0" standalone="yes"?>
<svg xmlns="http://www.w3.org/2000/svg" width="90" height="90">
<path style="fill:#ffffff; stroke:none;" d="M0 0L0 20L10 20L10 0L0 0z"/>
<path style="fill:#000000; stroke:none;" d="M10 0L10 20L0 20L0 40L10 40L10 50L0 50L0 90L20 90L20 80L30 80L30 90L50 90L50 80L60 80L60 90L70 90L70 80L80 80L80 70L90 70L90 60L80 60L80 10L90 10L90 0L10 0z"/>
<path style="fill:#ffffff; stroke:none;" d="M80 10L80 60L90 60L90 10L80 10M20 20L20 70L70 70L70 20L20 20z"/>
<path style="fill:#000000; stroke:none;" d="M50 30L50 40L30 40L30 60L60 60L60 50L50 50L50 40L60 40L60 30L50 30z"/>
<path style="fill:#ffffff; stroke:none;" d="M0 40L0 50L10 50L10 40L0 40M80 70L80 80L70 80L70 90L90 90L90 70L80 70M20 80L20 90L30 90L30 80L20 80M50 80L50 90L60 90L60 80L50 80z"/>
</svg>
