<?xml version="1.0" standalone="yes"?>
<svg xmlns="http://www.w3.org/2000/svg" width="90" height="90">
<path style="fill:#000000; stroke:none;" d="M0 0L0 10L10 10L10 20L0 20L0 40L10 40L10 50L0 50L0 70L10 70L10 90L40 90L40 80L50 80L50 90L60 90L60 80L90 80L90 70L80 70L80 60L90 60L90 50L80 50L80 40L90 40L90 20L80 20L80 10L90 10L90 0L60 0L60 10L40 10L40 0L30 0L30 10L20 10L20 0L0 0z"/>
<path style="fill:#ffffff; stroke:none;" d="M20 0L20 10L30 10L30 0L20 0M40 0L40 10L60 10L60 0L40 0M0 10L0 20L10 20L10 10L0 10M80 10L80 20L90 20L90 10L80 10M20 20L20 70L70 70L70 20L20 20z"/>
<path style="fill:#000000; stroke:none;" d="M30 30L30 60L60 60L60 50L50 50L50 30L30 30z"/>
<path style="fill:#ffffff; stroke:none;" d="M0 40L0 50L10 50L10 40L0 40M80 40L80 50L90 50L90 40L80 40M80 60L80 70L90 70L90 60L80 60M0 70L0 90L10 90L10 70L0 70M40 80L40 90L50 90L50 80L40 80M60 80L60 90L90 90L90 80L60 80z"/>
</svg>
