<?xml version="1.0" standalone="yes"?>
<svg xmlns="http://www.w3.org/2000/svg" width="90" height="90">
<path style="fill:#000000; stroke:none;" d="M0 0L0 20L10 20L10 40L0 40L0 60L10 60L10 80L20 80L20 90L30 90L30 80L40 80L40 90L50 90L50 80L80 80L80 90L90 90L90 80L80 80L80 70L90 70L90 10L80 10L80 0L70 0L70 10L60 10L60 0L50 0L50 10L40 10L40 0L30 0L30 10L10 10L10 0L0 0z"/>
<path style="fill:#ffffff; stroke:none;" d="M10 0L10 10L30 10L30 0L10 0M40 0L40 10L50 10L50 0L40 0M60 0L60 10L70 10L70 0L60 0M80 0L80 10L90 10L90 0L80 0M0 20L0 40L10 40L10 20L0 20M20 20L20 70L70 70L70 20L20 20z"/>
<path style="fill:#000000; stroke:none;" d="M30 30L30 40L50 40L50 50L30 50L30 60L50 60L50 50L60 50L60 30L30 30z"/>
<path style="fill:#ffffff; stroke:none;" d="M0 60L0 90L20 90L20 80L10 80L10 60L0 60M80 70L80 80L90 80L90 70L80 70M30 80L30 90L40 90L40 80L30 80M50 80L50 90L80 90L80 80L50 80z"/>
</svg>
