<?xml version="1.0" standalone="yes"?>
<svg xmlns="http://www.w3.org/2000/svg" width="90" height="90">
<path style="fill:#000000; stroke:none;" d="M0 0L0 40L10 40L10 50L0 50L0 80L40 80L40 90L50 90L50 80L80 80L80 90L90 90L90 70L80 70L80 40L90 40L90 0L80 0L80 10L40 10L40 0L0 0z"/>
<path style="fill:#ffffff; stroke:none;" d="M40 0L40 10L80 10L80 0L40 0M20 20L20 70L70 70L70 20L20 20z"/>
<path style="fill:#000000; stroke:none;" d="M30 30L30 60L40 60L40 50L50 50L50 60L60 60L60 50L50 50L50 40L60 40L60 30L50 30L50 40L40 40L40 30L30 30z"/>
<path style="fill:#ffffff; stroke:none;" d="M0 40L0 50L10 50L10 40L0 40M80 40L80 70L90 70L90 40L80 40M0 80L0 90L40 90L40 80L0 80M50 80L50 90L80 90L80 80L50 80z"/>
</svg>
