<?xml version="1.0" standalone="yes"?>
<svg xmlns="http://www.w3.org/2000/svg" width="90" height="90">
<path style="fill:#000000; stroke:none;" d="M0 0L0 10L10 10L10 20L0 20L0 80L10 80L10 90L30 90L30 80L70 80L70 90L80 90L80 70L90 70L90 60L80 60L80 10L90 10L90 0L60 0L60 10L50 10L50 0L40 0L40 10L10 10L10 0L0 0z"/>
<path style="fill:#ffffff; stroke:none;" d="M10 0L10 10L40 10L40 0L10 0M50 0L50 10L60 10L60 0L50 0M0 10L0 20L10 20L10 10L0 10M80 10L80 60L90 60L90 10L80 10M20 20L20 70L70 70L70 20L20 20z"/>
<path style="fill:#000000; stroke:none;" d="M30 30L30 40L60 40L60 30L30 30M30 50L30 60L50 60L50 50L30 50z"/>
<path style="fill:#ffffff; stroke:none;" d="M80 70L80 90L90 90L90 70L80 70M0 80L0 90L10 90L10 80L0 80M30 80L30 90L70 90L70 80L30 80z"/>
</svg>
