<?xml version="1.0" standalone="yes"?>
<svg xmlns="http://www.w3.org/2000/svg" width="90" height="90">
<path style="fill:#000000; stroke:none;" d="M0 0L0 20L10 20L10 40L0 40L0 50L10 50L10 60L0 60L0 80L30 80L30 90L60 90L60 80L70 80L70 90L80 90L80 80L90 80L90 30L80 30L80 20L90 20L90 10L80 10L80 0L70 0L70 10L20 10L20 0L0 0z"/>
<path style="fill:#ffffff; stroke:none;" d="M20 0L20 10L70 10L70 0L20 0M80 0L80 10L90 10L90 0L80 0M0 20L0 40L10 40L10 20L0 20M20 20L20 70L70 70L70 20L20 20M80 20L80 30L90 30L90 20L80 20z"/>
<path style="fill:#000000; stroke:none;" d="M40 30L40 40L30 40L30 50L50 50L50 30L40 30z"/>
<path style="fill:#ffffff; stroke:none;" d="M0 50L0 60L10 60L10 50L0 50M0 80L0 90L30 90L30 80L0 80M60 80L60 90L70 90L70 80L60 80M80 80L80 90L90 90L90 80L80 80z"/>
</svg>
