<?xml version="1.0" standalone="yes"?>
<svg xmlns="http://www.w3.org/2000/svg" width="90" height="90">
<path style="fill:#ffffff; stroke:none;" d="M0 0L0 10L10 10L10 0L0 0z"/>
<path style="fill:#000000; stroke:none;" d="M10 0L10 10L0 10L0 20L10 20L10 40L0 40L0 70L10 70L10 80L20 80L20 90L60 90L60 80L80 80L80 10L90 10L90 0L80 0L80 10L70 10L70 0L60 0L60 10L40 10L40 0L10 0z"/>
<path style="fill:#ffffff; stroke:none;" d="M40 0L40 10L60 10L60 0L40 0M70 0L70 10L80 10L80 0L70 0M80 10L80 80L60 80L60 90L90 90L90 10L80 10M0 20L0 40L10 40L10 20L0 20M20 20L20 70L70 70L70 20L20 20z"/>
<path style="fill:#000000; stroke:none;" d="M50 30L50 40L60 40L60 30L50 30M50 50L50 60L60 60L60 50L50 50z"/>
<path style="fill:#ffffff; stroke:none;" d="M0 70L0 90L20 90L20 80L10 80L10 70L0 70z"/>
</svg>
