<?xml version="1.0" standalone="yes"?>
<svg xmlns="http://www.w3.org/2000/svg" width="90" height="90">
<path style="fill:#ffffff; stroke:none;" d="M0 0L0 10L30 10L30 0L0 0z"/>
<path style="fill:#000000; stroke:none;" d="M30 0L30 10L0 10L0 90L20 90L20 80L30 80L30 90L60 90L60 80L80 80L80 40L90 40L90 30L80 30L80 10L50 10L50 0L30 0z"/>
<path style="fill:#ffffff; stroke:none;" d="M50 0L50 10L80 10L80 30L90 30L90 0L50 0M20 20L20 70L70 70L70 20L20 20z"/>
<path style="fill:#000000; stroke:none;" d="M30 30L30 40L40 40L40 50L30 50L30 60L40 60L40 50L50 50L50 40L60 40L60 30L30 30z"/>
<path style="fill:#ffffff; stroke:none;" d="M80 40L80 80L60 80L60 90L90 90L90 40L80 40M20 80L20 90L30 90L30 80L20 80z"/>
</svg>
