<?xml version="1.0" standalone="yes"?>
<svg xmlns="http://www.w3.org/2000/svg" width="90" height="90">
<path style="fill:#ffffff; stroke:none;" d="M0 0L0 10L40 10L40 0L0 0z"/>
<path style="fill:#000000; stroke:none;" d="M40 0L40 10L0 10L0 50L10 50L10 70L0 70L0 80L10 80L10 90L30 90L30 80L40 80L40 90L50 90L50 80L60 80L60 90L90 90L90 80L80 80L80 70L90 70L90 40L80 40L80 10L90 10L90 0L80 0L80 10L50 10L50 0L40 0z"/>
<path style="fill:#ffffff; stroke:none;" d="M50 0L50 10L80 10L80 0L50 0M80 10L80 40L90 40L90 10L80 10M20 20L20 70L70 70L70 20L20 20z"/>
<path style="fill:#000000; stroke:none;" d="M30 30L30 40L40 40L40 30L30 30M50 30L50 50L30 50L30 60L60 60L60 30L50 30z"/>
<path style="fill:#ffffff; stroke:none;" d="M0 50L0 70L10 70L10 50L0 50M80 70L80 80L90 80L90 70L80 70M0 80L0 90L10 90L10 80L0 80M30 80L30 90L40 90L40 80L30 80M50 80L50 90L60 90L60 80L50 80z"/>
</svg>
