<?xml version="1.0" standalone="yes"?>
<svg xmlns="http://www.w3.org/2000/svg" width="90" height="90">
<path style="fill:#000000; stroke:none;" d="M0 0L0 50L10 50L10 60L0 60L0 70L10 70L10 90L30 90L30 80L50 80L50 90L60 90L60 80L70 80L70 90L90 90L90 70L80 70L80 60L90 60L90 50L80 50L80 40L90 40L90 10L60 10L60 0L50 0L50 10L30 10L30 0L0 0z"/>
<path style="fill:#ffffff; stroke:none;" d="M30 0L30 10L50 10L50 0L30 0M60 0L60 10L90 10L90 0L60 0M20 20L20 70L70 70L70 20L20 20z"/>
<path style="fill:#000000; stroke:none;" d="M50 30L50 40L60 40L60 30L50 30M30 40L30 50L40 50L40 60L60 60L60 50L40 50L40 40L30 40z"/>
<path style="fill:#ffffff; stroke:none;" d="M80 40L80 50L90 50L90 40L80 40M0 50L0 60L10 60L10 50L0 50M80 60L80 70L90 70L90 60L80 60M0 70L0 90L10 90L10 70L0 70M30 80L30 90L50 90L50 80L30 80M60 80L60 90L70 90L70 80L60 80z"/>
</svg>
