<?xml version="1.0" standalone="yes"?>
<svg xmlns="http://www.w3.org/2000/svg" width="90" height="90">
<path style="fill:#ffffff; stroke:none;" d="M0 0L0 40L10 40L10 10L90 10L90 0L0 0z"/>
<path style="fill:#000000; stroke:none;" d="M10 10L10 40L0 40L0 80L30 80L30 90L60 90L60 80L80 80L80 90L90 90L90 50L80 50L80 30L90 30L90 10L10 10z"/>
<path style="fill:#ffffff; stroke:none;" d="M20 20L20 70L70 70L70 20L20 20z"/>
<path style="fill:#000000; stroke:none;" d="M30 30L30 40L40 40L40 60L60 60L60 30L30 30z"/>
<path style="fill:#ffffff; stroke:none;" d="M80 30L80 50L90 50L90 30L80 30M0 80L0 90L30 90L30 80L0 80M60 80L60 90L80 90L80 80L60 80z"/>
</svg>
