<?xml version="1.0" standalone="yes"?>
<svg xmlns="http://www.w3.org/2000/svg" width="90" height="90">
<path style="fill:#000000; stroke:none;" d="M0 0L0 20L10 20L10 30L0 30L0 40L10 40L10 50L0 50L0 90L10 90L10 80L20 80L20 90L30 90L30 80L40 80L40 90L90 90L90 60L80 60L80 50L90 50L90 20L80 20L80 10L90 10L90 0L80 0L80 10L50 10L50 0L20 0L20 10L10 10L10 0L0 0z"/>
<path style="fill:#ffffff; stroke:none;" d="M10 0L10 10L20 10L20 0L10 0M50 0L50 10L80 10L80 0L50 0M80 10L80 20L90 20L90 10L80 10M0 20L0 30L10 30L10 20L0 20M20 20L20 70L70 70L70 20L20 20z"/>
<path style="fill:#000000; stroke:none;" d="M30 30L30 60L50 60L50 50L60 50L60 30L50 30L50 40L40 40L40 30L30 30z"/>
<path style="fill:#ffffff; stroke:none;" d="M0 40L0 50L10 50L10 40L0 40M80 50L80 60L90 60L90 50L80 50M10 80L10 90L20 90L20 80L10 80M30 80L30 90L40 90L40 80L30 80z"/>
</svg>
