<?xml version="1.0" standalone="yes"?>
<svg xmlns="http://www.w3.org/2000/svg" width="90" height="90">
<path style="fill:#000000; stroke:none;" d="M0 0L0 60L10 60L10 90L30 90L30 80L50 80L50 90L90 90L90 80L80 80L80 70L90 70L90 50L80 50L80 30L90 30L90 0L80 0L80 10L70 10L70 0L60 0L60 10L10 10L10 0L0 0z"/>
<path style="fill:#ffffff; stroke:none;" d="M10 0L10 10L60 10L60 0L10 0M70 0L70 10L80 10L80 0L70 0M20 20L20 70L70 70L70 20L20 20M80 30L80 50L90 50L90 30L80 30z"/>
<path style="fill:#000000; stroke:none;" d="M30 40L30 50L40 50L40 60L60 60L60 50L40 50L40 40L30 40z"/>
<path style="fill:#ffffff; stroke:none;" d="M0 60L0 90L10 90L10 60L0 60M80 70L80 80L90 80L90 70L80 70M30 80L30 90L50 90L50 80L30 80z"/>
</svg>
