<?xml version="1.0" standalone="yes"?>
<svg xmlns="http://www.w3.org/2000/svg" width="90" height="90">
<path style="fill:#ffffff; stroke:none;" d="M0 0L0 10L10 10L10 0L0 0z"/>
<path style="fill:#000000; stroke:none;" d="M10 0L10 10L0 10L0 50L10 50L10 60L0 60L0 80L10 80L10 90L20 90L20 80L30 80L30 90L50 90L50 80L60 80L60 90L90 90L90 80L80 80L80 60L90 60L90 50L80 50L80 40L90 40L90 30L80 30L80 10L90 10L90 0L30 0L30 10L20 10L20 0L10 0z"/>
<path style="fill:#ffffff; stroke:none;" d="M20 0L20 10L30 10L30 0L20 0M80 10L80 30L90 30L90 10L80 10M20 20L20 70L70 70L70 20L20 20z"/>
<path style="fill:#000000; stroke:none;" d="M30 30L30 40L40 40L40 50L60 50L60 30L30 30z"/>
<path style="fill:#ffffff; stroke:none;" d="M80 40L80 50L90 50L90 40L80 40M0 50L0 60L10 60L10 50L0 50M80 60L80 80L90 80L90 60L80 60M0 80L0 90L10 90L10 80L0 80M20 80L20 90L30 90L30 80L20 80M50 80L50 90L60 90L60 80L50 80z"/>
</svg>
