<?xml version="1.0" standalone="yes"?>
<svg xmlns="http://www.w3.org/2000/svg" width="90" height="90">
<path style="fill:#ffffff; stroke:none;" d="M0 0L0 10L60 10L60 0L0 0z"/>
<path style="fill:#000000; stroke:none;" d="M60 0L60 10L0 10L0 30L10 30L10 40L0 40L0 60L10 60L10 70L0 70L0 90L30 90L30 80L40 80L40 90L50 90L50 80L70 80L70 90L90 90L90 80L80 80L80 50L90 50L90 0L60 0z"/>
<path style="fill:#ffffff; stroke:none;" d="M20 20L20 70L70 70L70 20L20 20M0 30L0 40L10 40L10 30L0 30z"/>
<path style="fill:#000000; stroke:none;" d="M40 30L40 40L30 40L30 50L50 50L50 60L60 60L60 50L50 50L50 40L60 40L60 30L40 30z"/>
<path style="fill:#ffffff; stroke:none;" d="M80 50L80 80L90 80L90 50L80 50M0 60L0 70L10 70L10 60L0 60M30 80L30 90L40 90L40 80L30 80M50 80L50 90L70 90L70 80L50 80z"/>
</svg>
