<?xml version="1.0" standalone="yes"?>
<svg xmlns="http://www.w3.org/2000/svg" width="90" height="90">
<path style="fill:#ffffff; stroke:none;" d="M0 0L0 20L10 20L10 0L0 0z"/>
<path style="fill:#000000; stroke:none;" d="M10 0L10 20L0 20L0 60L10 60L10 80L0 80L0 90L10 90L10 80L40 80L40 90L50 90L50 80L70 80L70 90L90 90L90 80L80 80L80 20L90 20L90 10L80 10L80 0L70 0L70 10L50 10L50 0L40 0L40 10L20 10L20 0L10 0z"/>
<path style="fill:#ffffff; stroke:none;" d="M20 0L20 10L40 10L40 0L20 0M50 0L50 10L70 10L70 0L50 0M80 0L80 10L90 10L90 0L80 0M20 20L20 70L70 70L70 20L20 20M80 20L80 80L90 80L90 20L80 20z"/>
<path style="fill:#000000; stroke:none;" d="M30 30L30 50L40 50L40 60L50 60L50 50L60 50L60 30L30 30z"/>
<path style="fill:#ffffff; stroke:none;" d="M40 40L40 50L50 50L50 40L40 40M0 60L0 80L10 80L10 60L0 60M10 80L10 90L40 90L40 80L10 80M50 80L50 90L70 90L70 80L50 80z"/>
</svg>
