<?xml version="1.0" standalone="yes"?>
<svg xmlns="http://www.w3.org/2000/svg" width="90" height="90">
<path style="fill:#ffffff; stroke:none;" d="M0 0L0 30L10 30L10 0L0 0z"/>
<path style="fill:#000000; stroke:none;" d="M10 0L10 30L0 30L0 50L10 50L10 60L0 60L0 80L20 80L20 90L50 90L50 80L80 80L80 50L90 50L90 40L80 40L80 20L90 20L90 10L50 10L50 0L40 0L40 10L30 10L30 0L10 0z"/>
<path style="fill:#ffffff; stroke:none;" d="M30 0L30 10L40 10L40 0L30 0M50 0L50 10L90 10L90 0L50 0M20 20L20 70L70 70L70 20L20 20M80 20L80 40L90 40L90 20L80 20z"/>
<path style="fill:#000000; stroke:none;" d="M50 30L50 50L30 50L30 60L50 60L50 50L60 50L60 30L50 30z"/>
<path style="fill:#ffffff; stroke:none;" d="M0 50L0 60L10 60L10 50L0 50M80 50L80 80L50 80L50 90L90 90L90 50L80 50M0 80L0 90L20 90L20 80L0 80z"/>
</svg>
