<?xml version="1.0" standalone="yes"?>
<svg xmlns="http://www.w3.org/2000/svg" width="90" height="90">
<path style="fill:#ffffff; stroke:none;" d="M0 0L0 10L50 10L50 0L0 0z"/>
<path style="fill:#000000; stroke:none;" d="M50 0L50 10L0 10L0 30L10 30L10 60L0 60L0 90L10 90L10 80L40 80L40 90L50 90L50 80L80 80L80 90L90 90L90 80L80 80L80 50L90 50L90 40L80 40L80 30L90 30L90 10L70 10L70 0L50 0z"/>
<path style="fill:#ffffff; stroke:none;" d="M70 0L70 10L90 10L90 0L70 0M20 20L20 70L70 70L70 20L20 20M0 30L0 60L10 60L10 30L0 30z"/>
<path style="fill:#000000; stroke:none;" d="M40 30L40 40L60 40L60 30L40 30z"/>
<path style="fill:#ffffff; stroke:none;" d="M80 30L80 40L90 40L90 30L80 30M80 50L80 80L90 80L90 50L80 50M10 80L10 90L40 90L40 80L10 80M50 80L50 90L80 90L80 80L50 80z"/>
</svg>
