<?xml version="1.0" standalone="yes"?>
<svg xmlns="http://www.w3.org/2000/svg" width="90" height="90">
<path style="fill:#ffffff; stroke:none;" d="M0 0L0 10L20 10L20 0L0 0z"/>
<path style="fill:#000000; stroke:none;" d="M20 0L20 10L0 10L0 40L10 40L10 50L0 50L0 70L10 70L10 80L0 80L0 90L10 90L10 80L30 80L30 90L50 90L50 80L60 80L60 90L70 90L70 80L80 80L80 90L90 90L90 70L80 70L80 50L90 50L90 40L80 40L80 10L90 10L90 0L50 0L50 10L40 10L40 0L20 0z"/>
<path style="fill:#ffffff; stroke:none;" d="M40 0L40 10L50 10L50 0L40 0M80 10L80 40L90 40L90 10L80 10M20 20L20 70L70 70L70 20L20 20z"/>
<path style="fill:#000000; stroke:none;" d="M40 30L40 40L30 40L30 50L40 50L40 60L50 60L50 40L60 40L60 30L40 30z"/>
<path style="fill:#ffffff; stroke:none;" d="M0 40L0 50L10 50L10 40L0 40M80 50L80 70L90 70L90 50L80 50M0 70L0 80L10 80L10 70L0 70M10 80L10 90L30 90L30 80L10 80M50 80L50 90L60 90L60 80L50 80M70 80L70 90L80 90L80 80L70 80z"/>
</svg>
