<?xml version="1.0" standalone="yes"?>
<svg xmlns="http://www.w3.org/2000/svg" width="90" height="90">
<path style="fill:#ffffff; stroke:none;" d="M0 0L0 10L10 10L10 0L0 0z"/>
<path style="fill:#000000; stroke:none;" d="M10 0L10 10L0 10L0 30L10 30L10 80L0 80L0 90L10 90L10 80L30 80L30 90L40 90L40 80L60 80L60 90L90 90L90 60L80 60L80 40L90 40L90 0L80 0L80 10L70 10L70 0L40 0L40 10L20 10L20 0L10 0z"/>
<path style="fill:#ffffff; stroke:none;" d="M20 0L20 10L40 10L40 0L20 0M70 0L70 10L80 10L80 0L70 0M20 20L20 70L70 70L70 20L20 20M0 30L0 80L10 80L10 30L0 30z"/>
<path style="fill:#000000; stroke:none;" d="M50 30L50 50L60 50L60 30L50 30M30 40L30 60L40 60L40 40L30 40z"/>
<path style="fill:#ffffff; stroke:none;" d="M80 40L80 60L90 60L90 40L80 40M10 80L10 90L30 90L30 80L10 80M40 80L40 90L60 90L60 80L40 80z"/>
</svg>
