<?xml version="1.0" standalone="yes"?>
<svg xmlns="http://www.w3.org/2000/svg" width="90" height="90">
<path style="fill:#ffffff; stroke:none;" d="M0 0L0 20L10 20L10 0L0 0z"/>
<path style="fill:#000000; stroke:none;" d="M10 0L10 20L0 20L0 60L10 60L10 70L0 70L0 90L10 90L10 80L20 80L20 90L50 90L50 80L60 80L60 90L90 90L90 80L80 80L80 60L90 60L90 50L80 50L80 40L90 40L90 20L80 20L80 0L70 0L70 10L20 10L20 0L10 0z"/>
<path style="fill:#ffffff; stroke:none;" d="M20 0L20 10L70 10L70 0L20 0M80 0L80 20L90 20L90 0L80 0M20 20L20 70L70 70L70 20L20 20z"/>
<path style="fill:#000000; stroke:none;" d="M30 30L30 60L60 60L60 30L50 30L50 50L40 50L40 30L30 30z"/>
<path style="fill:#ffffff; stroke:none;" d="M80 40L80 50L90 50L90 40L80 40M0 60L0 70L10 70L10 60L0 60M80 60L80 80L90 80L90 60L80 60M10 80L10 90L20 90L20 80L10 80M50 80L50 90L60 90L60 80L50 80z"/>
</svg>
