<?xml version="1.0" standalone="yes"?>
<svg xmlns="http://www.w3.org/2000/svg" width="90" height="90">
<path style="fill:#ffffff; stroke:none;" d="M0 0L0 10L60 10L60 0L0 0z"/>
<path style="fill:#000000; stroke:none;" d="M60 0L60 10L0 10L0 60L10 60L10 70L0 70L0 90L20 90L20 80L30 80L30 90L80 90L80 80L90 80L90 60L80 60L80 50L90 50L90 40L80 40L80 30L90 30L90 20L80 20L80 0L60 0z"/>
<path style="fill:#ffffff; stroke:none;" d="M80 0L80 20L90 20L90 0L80 0M20 20L20 70L70 70L70 20L20 20z"/>
<path style="fill:#000000; stroke:none;" d="M50 30L50 50L40 50L40 60L60 60L60 30L50 30z"/>
<path style="fill:#ffffff; stroke:none;" d="M80 30L80 40L90 40L90 30L80 30M80 50L80 60L90 60L90 50L80 50M0 60L0 70L10 70L10 60L0 60M20 80L20 90L30 90L30 80L20 80M80 80L80 90L90 90L90 80L80 80z"/>
</svg>
