<?xml version="1.0" standalone="yes"?>
<svg xmlns="http://www.w3.org/2000/svg" width="90" height="90">
<path style="fill:#000000; stroke:none;" d="M0 0L0 30L10 30L10 80L40 80L40 90L70 90L70 80L80 80L80 60L90 60L90 50L80 50L80 30L90 30L90 0L80 0L80 10L10 10L10 0L0 0z"/>
<path style="fill:#ffffff; stroke:none;" d="M10 0L10 10L80 10L80 0L10 0M20 20L20 70L70 70L70 20L20 20M0 30L0 90L40 90L40 80L10 80L10 30L0 30z"/>
<path style="fill:#000000; stroke:none;" d="M30 30L30 50L40 50L40 60L50 60L50 50L60 50L60 30L30 30z"/>
<path style="fill:#ffffff; stroke:none;" d="M80 30L80 50L90 50L90 30L80 30M80 60L80 80L70 80L70 90L90 90L90 60L80 60z"/>
</svg>
