<?xml version="1.0" standalone="yes"?>
<svg xmlns="http://www.w3.org/2000/svg" width="90" height="90">
<path style="fill:#000000; stroke:none;" d="M0 0L0 40L10 40L10 70L0 70L0 80L20 80L20 90L40 90L40 80L60 80L60 90L90 90L90 80L80 80L80 70L90 70L90 40L80 40L80 0L50 0L50 10L30 10L30 0L0 0z"/>
<path style="fill:#ffffff; stroke:none;" d="M30 0L30 10L50 10L50 0L30 0M80 0L80 40L90 40L90 0L80 0M20 20L20 70L70 70L70 20L20 20M0 40L0 70L10 70L10 40L0 40z"/>
<path style="fill:#000000; stroke:none;" d="M30 40L30 60L60 60L60 40L50 40L50 50L40 50L40 40L30 40z"/>
<path style="fill:#ffffff; stroke:none;" d="M80 70L80 80L90 80L90 70L80 70M0 80L0 90L20 90L20 80L0 80M40 80L40 90L60 90L60 80L40 80z"/>
</svg>
