<?xml version="1.0" standalone="yes"?>
<svg xmlns="http://www.w3.org/2000/svg" width="90" height="90">
<path style="fill:#000000; stroke:none;" d="M0 0L0 10L10 10L10 30L0 30L0 60L10 60L10 80L0 80L0 90L50 90L50 80L60 80L60 90L90 90L90 50L80 50L80 40L90 40L90 0L80 0L80 10L50 10L50 0L0 0z"/>
<path style="fill:#ffffff; stroke:none;" d="M50 0L50 10L80 10L80 0L50 0M0 10L0 30L10 30L10 10L0 10M20 20L20 70L70 70L70 20L20 20z"/>
<path style="fill:#000000; stroke:none;" d="M40 30L40 40L30 40L30 60L60 60L60 30L40 30z"/>
<path style="fill:#ffffff; stroke:none;" d="M40 40L40 50L50 50L50 40L40 40M80 40L80 50L90 50L90 40L80 40M0 60L0 80L10 80L10 60L0 60M50 80L50 90L60 90L60 80L50 80z"/>
</svg>
