<?xml version="1.0" standalone="yes"?>
<svg xmlns="http://www.w3.org/2000/svg" width="90" height="90">
<path style="fill:#000000; stroke:none;" d="M0 0L0 40L10 40L10 50L0 50L0 60L10 60L10 80L30 80L30 90L50 90L50 80L80 80L80 70L90 70L90 40L80 40L80 30L90 30L90 0L70 0L70 10L50 10L50 0L40 0L40 10L20 10L20 0L0 0z"/>
<path style="fill:#ffffff; stroke:none;" d="M20 0L20 10L40 10L40 0L20 0M50 0L50 10L70 10L70 0L50 0M20 20L20 70L70 70L70 20L20 20M80 30L80 40L90 40L90 30L80 30M0 40L0 50L10 50L10 40L0 40z"/>
<path style="fill:#000000; stroke:none;" d="M30 40L30 60L50 60L50 50L60 50L60 40L50 40L50 50L40 50L40 40L30 40z"/>
<path style="fill:#ffffff; stroke:none;" d="M0 60L0 90L30 90L30 80L10 80L10 60L0 60M80 70L80 80L50 80L50 90L90 90L90 70L80 70z"/>
</svg>
