<?xml version="1.0" standalone="yes"?>
<svg xmlns="http://www.w3.org/2000/svg" width="90" height="90">
<path style="fill:#000000; stroke:none;" d="M0 0L0 10L10 10L10 20L0 20L0 40L10 40L10 50L0 50L0 70L10 70L10 80L0 80L0 90L20 90L20 80L40 80L40 90L60 90L60 80L70 80L70 90L90 90L90 80L80 80L80 60L90 60L90 30L80 30L80 20L90 20L90 0L70 0L70 10L20 10L20 0L0 0z"/>
<path style="fill:#ffffff; stroke:none;" d="M20 0L20 10L70 10L70 0L20 0M0 10L0 20L10 20L10 10L0 10M20 20L20 70L70 70L70 20L20 20M80 20L80 30L90 30L90 20L80 20M0 40L0 50L10 50L10 40L0 40z"/>
<path style="fill:#000000; stroke:none;" d="M30 50L30 60L50 60L50 50L30 50z"/>
<path style="fill:#ffffff; stroke:none;" d="M80 60L80 80L90 80L90 60L80 60M0 70L0 80L10 80L10 70L0 70M20 80L20 90L40 90L40 80L20 80M60 80L60 90L70 90L70 80L60 80z"/>
</svg>
