<?xml version="1.0" standalone="yes"?>
<svg xmlns="http://www.w3.org/2000/svg" width="90" height="90">
<path style="fill:#ffffff; stroke:none;" d="M0 0L0 20L10 20L10 10L50 10L50 0L0 0z"/>
<path style="fill:#000000; stroke:none;" d="M50 0L50 10L10 10L10 20L0 20L0 40L10 40L10 50L0 50L0 70L10 70L10 80L20 80L20 90L30 90L30 80L40 80L40 90L60 90L60 80L90 80L90 60L80 60L80 40L90 40L90 20L80 20L80 10L90 10L90 0L50 0z"/>
<path style="fill:#ffffff; stroke:none;" d="M80 10L80 20L90 20L90 10L80 10M20 20L20 70L70 70L70 20L20 20z"/>
<path style="fill:#000000; stroke:none;" d="M30 30L30 60L40 60L40 30L30 30z"/>
<path style="fill:#ffffff; stroke:none;" d="M0 40L0 50L10 50L10 40L0 40z"/>
<path style="fill:#000000; stroke:none;" d="M50 40L50 50L60 50L60 40L50 40z"/>
<path style="fill:#ffffff; stroke:none;" d="M80 40L80 60L90 60L90 40L80 40M0 70L0 90L20 90L20 80L10 80L10 70L0 70M30 80L30 90L40 90L40 80L30 80M60 80L60 90L90 90L90 80L60 80z"/>
</svg>
