<?xml version="1.0" standalone="yes"?>
<svg xmlns="http://www.w3.org/2000/svg" width="90" height="90">
<path style="fill:#000000; stroke:none;" d="M0 0L0 40L10 40L10 50L0 50L0 60L10 60L10 90L20 90L20 80L30 80L30 90L40 90L40 80L70 80L70 90L80 90L80 80L90 80L90 70L80 70L80 60L90 60L90 50L80 50L80 30L90 30L90 20L80 20L80 10L10 10L10 0L0 0z"/>
<path style="fill:#ffffff; stroke:none;" d="M10 0L10 10L80 10L80 20L90 20L90 0L10 0M20 20L20 70L70 70L70 20L20 20z"/>
<path style="fill:#000000; stroke:none;" d="M30 30L30 60L50 60L50 50L60 50L60 40L50 40L50 50L40 50L40 30L30 30z"/>
<path style="fill:#ffffff; stroke:none;" d="M80 30L80 50L90 50L90 30L80 30M0 40L0 50L10 50L10 40L0 40M0 60L0 90L10 90L10 60L0 60M80 60L80 70L90 70L90 60L80 60M20 80L20 90L30 90L30 80L20 80M40 80L40 90L70 90L70 80L40 80M80 80L80 90L90 90L90 80L80 80z"/>
</svg>
