<?xml version="1.0" standalone="yes"?>
<svg xmlns="http://www.w3.org/2000/svg" width="90" height="90">
<path style="fill:#ffffff; stroke:none;" d="M0 0L0 30L10 30L10 0L0 0z"/>
<path style="fill:#000000; stroke:none;" d="M10 0L10 30L0 30L0 60L10 60L10 70L0 70L0 80L20 80L20 90L40 90L40 80L60 80L60 90L80 90L80 50L90 50L90 40L80 40L80 30L90 30L90 10L60 10L60 0L50 0L50 10L40 10L40 0L10 0z"/>
<path style="fill:#ffffff; stroke:none;" d="M40 0L40 10L50 10L50 0L40 0M60 0L60 10L90 10L90 0L60 0M20 20L20 70L70 70L70 20L20 20z"/>
<path style="fill:#000000; stroke:none;" d="M40 30L40 40L30 40L30 60L50 60L50 50L60 50L60 40L50 40L50 30L40 30z"/>
<path style="fill:#ffffff; stroke:none;" d="M80 30L80 40L90 40L90 30L80 30M40 40L40 50L50 50L50 40L40 40M80 50L80 90L90 90L90 50L80 50M0 60L0 70L10 70L10 60L0 60M0 80L0 90L20 90L20 80L0 80M40 80L40 90L60 90L60 80L40 80z"/>
</svg>
