<?xml version="1.0" standalone="yes"?>
<svg xmlns="http://www.w3.org/2000/svg" width="90" height="90">
<path style="fill:#ffffff; stroke:none;" d="M0 0L0 20L10 20L10 10L30 10L30 0L0 0z"/>
<path style="fill:#000000; stroke:none;" d="M30 0L30 10L10 10L10 20L0 20L0 50L10 50L10 60L0 60L0 80L10 80L10 90L40 90L40 80L80 80L80 40L90 40L90 30L80 30L80 10L90 10L90 0L80 0L80 10L70 10L70 0L30 0z"/>
<path style="fill:#ffffff; stroke:none;" d="M70 0L70 10L80 10L80 0L70 0M80 10L80 30L90 30L90 10L80 10M20 20L20 70L70 70L70 20L20 20z"/>
<path style="fill:#000000; stroke:none;" d="M30 30L30 60L60 60L60 30L50 30L50 50L40 50L40 30L30 30z"/>
<path style="fill:#ffffff; stroke:none;" d="M80 40L80 80L40 80L40 90L90 90L90 40L80 40M0 50L0 60L10 60L10 50L0 50M0 80L0 90L10 90L10 80L0 80z"/>
</svg>
