<?xml version="1.0" standalone="yes"?>
<svg xmlns="http://www.w3.org/2000/svg" width="90" height="90">
<path style="fill:#ffffff; stroke:none;" d="M0 0L0 80L10 80L10 90L60 90L60 80L10 80L10 10L40 10L40 0L0 0z"/>
<path style="fill:#000000; stroke:none;" d="M40 0L40 10L10 10L10 80L60 80L60 90L80 90L80 60L90 60L90 40L80 40L80 30L90 30L90 20L80 20L80 10L50 10L50 0L40 0z"/>
<path style="fill:#ffffff; stroke:none;" d="M50 0L50 10L80 10L80 20L90 20L90 0L50 0M20 20L20 70L70 70L70 20L20 20M80 30L80 40L90 40L90 30L80 30z"/>
<path style="fill:#000000; stroke:none;" d="M40 40L40 60L50 60L50 50L60 50L60 40L40 40z"/>
<path style="fill:#ffffff; stroke:none;" d="M80 60L80 90L90 90L90 60L80 60z"/>
<path style="fill:#000000; stroke:none;" d="M0 80L0 90L10 90L10 80L0 80z"/>
</svg>
