<?xml version="1.0" standalone="yes"?>
<svg xmlns="http://www.w3.org/2000/svg" width="90" height="90">
<path style="fill:#ffffff; stroke:none;" d="M0 0L0 30L10 30L10 0L0 0z"/>
<path style="fill:#000000; stroke:none;" d="M10 0L10 30L0 30L0 50L10 50L10 70L0 70L0 80L10 80L10 90L20 90L20 80L70 80L70 90L80 90L80 80L90 80L90 70L80 70L80 40L90 40L90 20L80 20L80 10L90 10L90 0L80 0L80 10L70 10L70 0L30 0L30 10L20 10L20 0L10 0z"/>
<path style="fill:#ffffff; stroke:none;" d="M20 0L20 10L30 10L30 0L20 0M70 0L70 10L80 10L80 0L70 0M80 10L80 20L90 20L90 10L80 10M20 20L20 70L70 70L70 20L20 20z"/>
<path style="fill:#000000; stroke:none;" d="M40 30L40 40L30 40L30 60L40 60L40 50L60 50L60 30L40 30z"/>
<path style="fill:#ffffff; stroke:none;" d="M80 40L80 70L90 70L90 40L80 40M0 50L0 70L10 70L10 50L0 50M0 80L0 90L10 90L10 80L0 80M20 80L20 90L70 90L70 80L20 80M80 80L80 90L90 90L90 80L80 80z"/>
</svg>
