<?xml version="1.0" standalone="yes"?>
<svg xmlns="http://www.w3.org/2000/svg" width="90" height="90">
<path style="fill:#000000; stroke:none;" d="M0 0L0 30L10 30L10 40L0 40L0 60L10 60L10 70L0 70L0 90L10 90L10 80L20 80L20 90L50 90L50 80L70 80L70 90L90 90L90 60L80 60L80 40L90 40L90 10L80 10L80 0L30 0L30 10L10 10L10 0L0 0z"/>
<path style="fill:#ffffff; stroke:none;" d="M10 0L10 10L30 10L30 0L10 0M80 0L80 10L90 10L90 0L80 0M20 20L20 70L70 70L70 20L20 20M0 30L0 40L10 40L10 30L0 30z"/>
<path style="fill:#000000; stroke:none;" d="M30 30L30 40L40 40L40 50L60 50L60 30L50 30L50 40L40 40L40 30L30 30z"/>
<path style="fill:#ffffff; stroke:none;" d="M80 40L80 60L90 60L90 40L80 40M0 60L0 70L10 70L10 60L0 60M10 80L10 90L20 90L20 80L10 80M50 80L50 90L70 90L70 80L50 80z"/>
</svg>
