<?xml version="1.0" standalone="yes"?>
<svg xmlns="http://www.w3.org/2000/svg" width="90" height="90">
<path style="fill:#ffffff; stroke:none;" d="M0 0L0 10L30 10L30 0L0 0z"/>
<path style="fill:#000000; stroke:none;" d="M30 0L30 10L0 10L0 70L10 70L10 90L40 90L40 80L60 80L60 90L70 90L70 80L80 80L80 90L90 90L90 60L80 60L80 50L90 50L90 20L80 20L80 10L90 10L90 0L70 0L70 10L40 10L40 0L30 0z"/>
<path style="fill:#ffffff; stroke:none;" d="M40 0L40 10L70 10L70 0L40 0M80 10L80 20L90 20L90 10L80 10M20 20L20 70L70 70L70 20L20 20z"/>
<path style="fill:#000000; stroke:none;" d="M50 30L50 40L30 40L30 50L60 50L60 30L50 30z"/>
<path style="fill:#ffffff; stroke:none;" d="M80 50L80 60L90 60L90 50L80 50M0 70L0 90L10 90L10 70L0 70M40 80L40 90L60 90L60 80L40 80M70 80L70 90L80 90L80 80L70 80z"/>
</svg>
