<?xml version="1.0" standalone="yes"?>
<svg xmlns="http://www.w3.org/2000/svg" width="90" height="90">
<path style="fill:#000000; stroke:none;" d="M0 0L0 20L10 20L10 80L0 80L0 90L50 90L50 80L70 80L70 90L90 90L90 80L80 80L80 70L90 70L90 60L80 60L80 50L90 50L90 40L80 40L80 0L70 0L70 10L10 10L10 0L0 0z"/>
<path style="fill:#ffffff; stroke:none;" d="M10 0L10 10L70 10L70 0L10 0M80 0L80 40L90 40L90 0L80 0M0 20L0 80L10 80L10 20L0 20M20 20L20 70L70 70L70 20L20 20z"/>
<path style="fill:#000000; stroke:none;" d="M40 50L40 60L50 60L50 50L40 50z"/>
<path style="fill:#ffffff; stroke:none;" d="M80 50L80 60L90 60L90 50L80 50M80 70L80 80L90 80L90 70L80 70M50 80L50 90L70 90L70 80L50 80z"/>
</svg>
