<?xml version="1.0" standalone="yes"?>
<svg xmlns="http://www.w3.org/2000/svg" width="90" height="90">
<path style="fill:#ffffff; stroke:none;" d="M0 0L0 30L10 30L10 10L30 10L30 0L0 0z"/>
<path style="fill:#000000; stroke:none;" d="M30 0L30 10L10 10L10 30L0 30L0 40L10 40L10 50L0 50L0 70L10 70L10 80L20 80L20 90L50 90L50 80L80 80L80 90L90 90L90 50L80 50L80 40L90 40L90 20L80 20L80 10L90 10L90 0L70 0L70 10L40 10L40 0L30 0z"/>
<path style="fill:#ffffff; stroke:none;" d="M40 0L40 10L70 10L70 0L40 0M80 10L80 20L90 20L90 10L80 10M20 20L20 70L70 70L70 20L20 20M0 40L0 50L10 50L10 40L0 40z"/>
<path style="fill:#000000; stroke:none;" d="M30 40L30 60L50 60L50 40L30 40z"/>
<path style="fill:#ffffff; stroke:none;" d="M80 40L80 50L90 50L90 40L80 40M0 70L0 90L20 90L20 80L10 80L10 70L0 70M50 80L50 90L80 90L80 80L50 80z"/>
</svg>
