<?xml version="1.0" standalone="yes"?>
<svg xmlns="http://www.w3.org/2000/svg" width="90" height="90">
<path style="fill:#ffffff; stroke:none;" d="M0 0L0 10L20 10L20 0L0 0z"/>
<path style="fill:#000000; stroke:none;" d="M20 0L20 10L0 10L0 20L10 20L10 60L0 60L0 70L10 70L10 80L30 80L30 90L40 90L40 80L70 80L70 90L80 90L80 50L90 50L90 40L80 40L80 30L90 30L90 20L80 20L80 10L90 10L90 0L80 0L80 10L50 10L50 0L40 0L40 10L30 10L30 0L20 0z"/>
<path style="fill:#ffffff; stroke:none;" d="M30 0L30 10L40 10L40 0L30 0M50 0L50 10L80 10L80 0L50 0M80 10L80 20L90 20L90 10L80 10M0 20L0 60L10 60L10 20L0 20M20 20L20 70L70 70L70 20L20 20z"/>
<path style="fill:#000000; stroke:none;" d="M40 30L40 40L60 40L60 30L40 30z"/>
<path style="fill:#ffffff; stroke:none;" d="M80 30L80 40L90 40L90 30L80 30z"/>
<path style="fill:#000000; stroke:none;" d="M30 50L30 60L40 60L40 50L30 50z"/>
<path style="fill:#ffffff; stroke:none;" d="M80 50L80 90L90 90L90 50L80 50M0 70L0 90L30 90L30 80L10 80L10 70L0 70M40 80L40 90L70 90L70 80L40 80z"/>
</svg>
