<?xml version="1.0" standalone="yes"?>
<svg xmlns="http://www.w3.org/2000/svg" width="90" height="90">
<path style="fill:#000000; stroke:none;" d="M0 0L0 10L10 10L10 20L0 20L0 50L10 50L10 70L0 70L0 80L80 80L80 90L90 90L90 80L80 80L80 60L90 60L90 10L70 10L70 0L60 0L60 10L40 10L40 0L20 0L20 10L10 10L10 0L0 0z"/>
<path style="fill:#ffffff; stroke:none;" d="M10 0L10 10L20 10L20 0L10 0M40 0L40 10L60 10L60 0L40 0M70 0L70 10L90 10L90 0L70 0M0 10L0 20L10 20L10 10L0 10M20 20L20 70L70 70L70 20L20 20z"/>
<path style="fill:#000000; stroke:none;" d="M30 40L30 50L40 50L40 40L30 40z"/>
<path style="fill:#ffffff; stroke:none;" d="M0 50L0 70L10 70L10 50L0 50M80 60L80 80L90 80L90 60L80 60M0 80L0 90L80 90L80 80L0 80z"/>
</svg>
