<?xml version="1.0" standalone="yes"?>
<svg xmlns="http://www.w3.org/2000/svg" width="90" height="90">
<path style="fill:#000000; stroke:none;" d="M0 0L0 10L10 10L10 50L0 50L0 60L10 60L10 70L0 70L0 80L10 80L10 90L20 90L20 80L30 80L30 90L40 90L40 80L60 80L60 90L90 90L90 70L80 70L80 40L90 40L90 0L80 0L80 10L50 10L50 0L20 0L20 10L10 10L10 0L0 0z"/>
<path style="fill:#ffffff; stroke:none;" d="M10 0L10 10L20 10L20 0L10 0M50 0L50 10L80 10L80 0L50 0M0 10L0 50L10 50L10 10L0 10M20 20L20 70L70 70L70 20L20 20z"/>
<path style="fill:#000000; stroke:none;" d="M40 40L40 50L60 50L60 40L40 40z"/>
<path style="fill:#ffffff; stroke:none;" d="M80 40L80 70L90 70L90 40L80 40M0 60L0 70L10 70L10 60L0 60M0 80L0 90L10 90L10 80L0 80M20 80L20 90L30 90L30 80L20 80M40 80L40 90L60 90L60 80L40 80z"/>
</svg>
