<?xml version="1.0" standalone="yes"?>
<svg xmlns="http://www.w3.org/2000/svg" width="90" height="90">
<path style="fill:#000000; stroke:none;" d="M0 0L0 10L10 10L10 20L0 20L0 60L10 60L10 70L0 70L0 90L10 90L10 80L20 80L20 90L40 90L40 80L60 80L60 90L90 90L90 80L80 80L80 70L90 70L90 60L80 60L80 40L90 40L90 0L30 0L30 10L10 10L10 0L0 0z"/>
<path style="fill:#ffffff; stroke:none;" d="M10 0L10 10L30 10L30 0L10 0M0 10L0 20L10 20L10 10L0 10M20 20L20 70L70 70L70 20L20 20z"/>
<path style="fill:#000000; stroke:none;" d="M40 30L40 40L30 40L30 50L40 50L40 60L60 60L60 30L40 30z"/>
<path style="fill:#ffffff; stroke:none;" d="M40 40L40 50L50 50L50 40L40 40M80 40L80 60L90 60L90 40L80 40M0 60L0 70L10 70L10 60L0 60M80 70L80 80L90 80L90 70L80 70M10 80L10 90L20 90L20 80L10 80M40 80L40 90L60 90L60 80L40 80z"/>
</svg>
