<?xml version="1.0" standalone="yes"?>
<svg xmlns="http://www.w3.org/2000/svg" width="90" height="90">
<path style="fill:#ffffff; stroke:none;" d="M0 0L0 40L10 40L10 0L0 0z"/>
<path style="fill:#000000; stroke:none;" d="M10 0L10 40L0 40L0 70L10 70L10 80L0 80L0 90L10 90L10 80L20 80L20 90L40 90L40 80L50 80L50 90L60 90L60 80L90 80L90 50L80 50L80 30L90 30L90 20L80 20L80 10L90 10L90 0L80 0L80 10L70 10L70 0L50 0L50 10L30 10L30 0L10 0z"/>
<path style="fill:#ffffff; stroke:none;" d="M30 0L30 10L50 10L50 0L30 0M70 0L70 10L80 10L80 0L70 0M80 10L80 20L90 20L90 10L80 10M20 20L20 70L70 70L70 20L20 20z"/>
<path style="fill:#000000; stroke:none;" d="M40 30L40 40L30 40L30 50L40 50L40 60L50 60L50 50L60 50L60 40L50 40L50 30L40 30z"/>
<path style="fill:#ffffff; stroke:none;" d="M80 30L80 50L90 50L90 30L80 30M0 70L0 80L10 80L10 70L0 70M10 80L10 90L20 90L20 80L10 80M40 80L40 90L50 90L50 80L40 80M60 80L60 90L90 90L90 80L60 80z"/>
</svg>
