<?xml version="1.0" standalone="yes"?>
<svg xmlns="http://www.w3.org/2000/svg" width="90" height="90">
<path style="fill:#ffffff; stroke:none;" d="M0 0L0 10L30 10L30 0L0 0z"/>
<path style="fill:#000000; stroke:none;" d="M30 0L30 10L0 10L0 20L10 20L10 30L0 30L0 60L10 60L10 70L0 70L0 90L10 90L10 80L40 80L40 90L70 90L70 80L80 80L80 90L90 90L90 50L80 50L80 30L90 30L90 20L80 20L80 0L60 0L60 10L50 10L50 0L30 0z"/>
<path style="fill:#ffffff; stroke:none;" d="M50 0L50 10L60 10L60 0L50 0M80 0L80 20L90 20L90 0L80 0M0 20L0 30L10 30L10 20L0 20M20 20L20 70L70 70L70 20L20 20z"/>
<path style="fill:#000000; stroke:none;" d="M30 30L30 50L40 50L40 60L60 60L60 30L30 30z"/>
<path style="fill:#ffffff; stroke:none;" d="M80 30L80 50L90 50L90 30L80 30M40 40L40 50L50 50L50 40L40 40M0 60L0 70L10 70L10 60L0 60M10 80L10 90L40 90L40 80L10 80M70 80L70 90L80 90L80 80L70 80z"/>
</svg>
