<?xml version="1.0" standalone="yes"?>
<svg xmlns="http://www.w3.org/2000/svg" width="90" height="90">
<path style="fill:#ffffff; stroke:none;" d="M0 0L0 10L10 10L10 0L0 0z"/>
<path style="fill:#000000; stroke:none;" d="M10 0L10 10L0 10L0 30L10 30L10 50L0 50L0 90L10 90L10 80L20 80L20 90L40 90L40 80L70 80L70 90L90 90L90 80L80 80L80 70L90 70L90 60L80 60L80 50L90 50L90 40L80 40L80 10L40 10L40 0L30 0L30 10L20 10L20 0L10 0z"/>
<path style="fill:#ffffff; stroke:none;" d="M20 0L20 10L30 10L30 0L20 0M40 0L40 10L80 10L80 40L90 40L90 0L40 0M20 20L20 70L70 70L70 20L20 20M0 30L0 50L10 50L10 30L0 30z"/>
<path style="fill:#000000; stroke:none;" d="M40 30L40 60L50 60L50 40L60 40L60 30L40 30z"/>
<path style="fill:#ffffff; stroke:none;" d="M80 50L80 60L90 60L90 50L80 50M80 70L80 80L90 80L90 70L80 70M10 80L10 90L20 90L20 80L10 80M40 80L40 90L70 90L70 80L40 80z"/>
</svg>
