<?xml version="1.0" standalone="yes"?>
<svg xmlns="http://www.w3.org/2000/svg" width="90" height="90">
<path style="fill:#000000; stroke:none;" d="M0 0L0 10L10 10L10 30L0 30L0 40L10 40L10 60L0 60L0 90L20 90L20 80L40 80L40 90L50 90L50 80L60 80L60 90L70 90L70 80L80 80L80 90L90 90L90 70L80 70L80 40L90 40L90 20L80 20L80 10L90 10L90 0L60 0L60 10L50 10L50 0L40 0L40 10L10 10L10 0L0 0z"/>
<path style="fill:#ffffff; stroke:none;" d="M10 0L10 10L40 10L40 0L10 0M50 0L50 10L60 10L60 0L50 0M0 10L0 30L10 30L10 10L0 10M80 10L80 20L90 20L90 10L80 10M20 20L20 70L70 70L70 20L20 20z"/>
<path style="fill:#000000; stroke:none;" d="M30 30L30 40L50 40L50 50L30 50L30 60L50 60L50 50L60 50L60 40L50 40L50 30L30 30z"/>
<path style="fill:#ffffff; stroke:none;" d="M0 40L0 60L10 60L10 40L0 40M80 40L80 70L90 70L90 40L80 40M20 80L20 90L40 90L40 80L20 80M50 80L50 90L60 90L60 80L50 80M70 80L70 90L80 90L80 80L70 80z"/>
</svg>
