<?xml version="1.0" standalone="yes"?>
<svg xmlns="http://www.w3.org/2000/svg" width="90" height="90">
<path style="fill:#000000; stroke:none;" d="M0 0L0 20L10 20L10 60L0 60L0 70L10 70L10 80L0 80L0 90L30 90L30 80L60 80L60 90L70 90L70 80L90 80L90 70L80 70L80 50L90 50L90 40L80 40L80 30L90 30L90 20L80 20L80 10L60 10L60 0L50 0L50 10L40 10L40 0L0 0z"/>
<path style="fill:#ffffff; stroke:none;" d="M40 0L40 10L50 10L50 0L40 0M60 0L60 10L80 10L80 20L90 20L90 0L60 0M0 20L0 60L10 60L10 20L0 20M20 20L20 70L70 70L70 20L20 20z"/>
<path style="fill:#000000; stroke:none;" d="M40 30L40 40L50 40L50 30L40 30z"/>
<path style="fill:#ffffff; stroke:none;" d="M80 30L80 40L90 40L90 30L80 30M80 50L80 70L90 70L90 50L80 50M0 70L0 80L10 80L10 70L0 70M30 80L30 90L60 90L60 80L30 80M70 80L70 90L90 90L90 80L70 80z"/>
</svg>
