<?xml version="1.0" standalone="yes"?>
<svg xmlns="http://www.w3.org/2000/svg" width="90" height="90">
<path style="fill:#000000; stroke:none;" d="M0 0L0 10L10 10L10 20L0 20L0 50L10 50L10 60L0 60L0 80L30 80L30 90L40 90L40 80L60 80L60 90L80 90L80 70L90 70L90 60L80 60L80 50L90 50L90 40L80 40L80 20L90 20L90 0L80 0L80 10L50 10L50 0L0 0z"/>
<path style="fill:#ffffff; stroke:none;" d="M50 0L50 10L80 10L80 0L50 0M0 10L0 20L10 20L10 10L0 10M20 20L20 70L70 70L70 20L20 20M80 20L80 40L90 40L90 20L80 20z"/>
<path style="fill:#000000; stroke:none;" d="M40 30L40 50L30 50L30 60L40 60L40 50L60 50L60 30L40 30z"/>
<path style="fill:#ffffff; stroke:none;" d="M0 50L0 60L10 60L10 50L0 50M80 50L80 60L90 60L90 50L80 50M80 70L80 90L90 90L90 70L80 70M0 80L0 90L30 90L30 80L0 80M40 80L40 90L60 90L60 80L40 80z"/>
</svg>
