<?xml version="1.0" standalone="yes"?>
<svg xmlns="http://www.w3.org/2000/svg" width="90" height="90">
<path style="fill:#000000; stroke:none;" d="M0 0L0 10L10 10L10 20L0 20L0 50L10 50L10 60L0 60L0 90L20 90L20 80L40 80L40 90L50 90L50 80L70 80L70 90L90 90L90 70L80 70L80 60L90 60L90 50L80 50L80 40L90 40L90 30L80 30L80 10L90 10L90 0L60 0L60 10L50 10L50 0L0 0z"/>
<path style="fill:#ffffff; stroke:none;" d="M50 0L50 10L60 10L60 0L50 0M0 10L0 20L10 20L10 10L0 10M80 10L80 30L90 30L90 10L80 10M20 20L20 70L70 70L70 20L20 20z"/>
<path style="fill:#000000; stroke:none;" d="M30 30L30 40L40 40L40 50L30 50L30 60L40 60L40 50L50 50L50 60L60 60L60 50L50 50L50 40L40 40L40 30L30 30z"/>
<path style="fill:#ffffff; stroke:none;" d="M80 40L80 50L90 50L90 40L80 40M0 50L0 60L10 60L10 50L0 50M80 60L80 70L90 70L90 60L80 60M20 80L20 90L40 90L40 80L20 80M50 80L50 90L70 90L70 80L50 80z"/>
</svg>
