<?xml version="1.0" standalone="yes"?>
<svg xmlns="http://www.w3.org/2000/svg" width="90" height="90">
<path style="fill:#000000; stroke:none;" d="M0 0L0 10L10 10L10 60L0 60L0 70L10 70L10 90L20 90L20 80L30 80L30 90L60 90L60 80L80 80L80 90L90 90L90 70L80 70L80 60L90 60L90 10L80 10L80 0L70 0L70 10L10 10L10 0L0 0z"/>
<path style="fill:#ffffff; stroke:none;" d="M10 0L10 10L70 10L70 0L10 0M80 0L80 10L90 10L90 0L80 0M0 10L0 60L10 60L10 10L0 10M20 20L20 70L70 70L70 20L20 20z"/>
<path style="fill:#000000; stroke:none;" d="M30 50L30 60L40 60L40 50L30 50M50 50L50 60L60 60L60 50L50 50z"/>
<path style="fill:#ffffff; stroke:none;" d="M80 60L80 70L90 70L90 60L80 60M0 70L0 90L10 90L10 70L0 70M20 80L20 90L30 90L30 80L20 80M60 80L60 90L80 90L80 80L60 80z"/>
</svg>
