<?xml version="1.0" standalone="yes"?>
<svg xmlns="http://www.w3.org/2000/svg" width="90" height="90">
<path style="fill:#ffffff; stroke:none;" d="M0 0L0 30L10 30L10 10L30 10L30 0L0 0z"/>
<path style="fill:#000000; stroke:none;" d="M30 0L30 10L10 10L10 30L0 30L0 40L10 40L10 70L0 70L0 80L20 80L20 90L30 90L30 80L40 80L40 90L50 90L50 80L70 80L70 90L80 90L80 80L90 80L90 70L80 70L80 60L90 60L90 40L80 40L80 20L90 20L90 0L70 0L70 10L60 10L60 0L30 0z"/>
<path style="fill:#ffffff; stroke:none;" d="M60 0L60 10L70 10L70 0L60 0M20 20L20 70L70 70L70 20L20 20M80 20L80 40L90 40L90 20L80 20M0 40L0 70L10 70L10 40L0 40z"/>
<path style="fill:#000000; stroke:none;" d="M40 40L40 60L60 60L60 40L40 40z"/>
<path style="fill:#ffffff; stroke:none;" d="M80 60L80 70L90 70L90 60L80 60M0 80L0 90L20 90L20 80L0 80M30 80L30 90L40 90L40 80L30 80M50 80L50 90L70 90L70 80L50 80M80 80L80 90L90 90L90 80L80 80z"/>
</svg>
