<?xml version="1.0" standalone="yes"?>
<svg xmlns="http://www.w3.org/2000/svg" width="90" height="90">
<path style="fill:#ffffff; stroke:none;" d="M0 0L0 10L10 10L10 0L0 0z"/>
<path style="fill:#000000; stroke:none;" d="M10 0L10 10L0 10L0 40L10 40L10 50L0 50L0 60L10 60L10 70L0 70L0 80L10 80L10 90L20 90L20 80L80 80L80 90L90 90L90 50L80 50L80 20L90 20L90 0L50 0L50 10L20 10L20 0L10 0z"/>
<path style="fill:#ffffff; stroke:none;" d="M20 0L20 10L50 10L50 0L20 0M20 20L20 70L70 70L70 20L20 20M80 20L80 50L90 50L90 20L80 20z"/>
<path style="fill:#000000; stroke:none;" d="M30 30L30 40L60 40L60 30L30 30z"/>
<path style="fill:#ffffff; stroke:none;" d="M0 40L0 50L10 50L10 40L0 40M0 60L0 70L10 70L10 60L0 60M0 80L0 90L10 90L10 80L0 80M20 80L20 90L80 90L80 80L20 80z"/>
</svg>
