<?xml version="1.0" standalone="yes"?>
<svg xmlns="http://www.w3.org/2000/svg" width="90" height="90">
<path style="fill:#ffffff; stroke:none;" d="M0 0L0 30L10 30L10 10L60 10L60 0L0 0z"/>
<path style="fill:#000000; stroke:none;" d="M60 0L60 10L10 10L10 30L0 30L0 40L10 40L10 50L0 50L0 60L10 60L10 70L0 70L0 90L10 90L10 80L40 80L40 90L50 90L50 80L60 80L60 90L70 90L70 80L80 80L80 60L90 60L90 30L80 30L80 0L60 0z"/>
<path style="fill:#ffffff; stroke:none;" d="M80 0L80 30L90 30L90 0L80 0M20 20L20 70L70 70L70 20L20 20z"/>
<path style="fill:#000000; stroke:none;" d="M30 30L30 40L40 40L40 50L30 50L30 60L40 60L40 50L50 50L50 40L40 40L40 30L30 30z"/>
<path style="fill:#ffffff; stroke:none;" d="M0 40L0 50L10 50L10 40L0 40M0 60L0 70L10 70L10 60L0 60M80 60L80 80L70 80L70 90L90 90L90 60L80 60M10 80L10 90L40 90L40 80L10 80M50 80L50 90L60 90L60 80L50 80z"/>
</svg>
