<?xml version="1.0" standalone="yes"?>
<svg xmlns="http://www.w3.org/2000/svg" width="90" height="90">
<path style="fill:#ffffff; stroke:none;" d="M0 0L0 10L10 10L10 0L0 0z"/>
<path style="fill:#000000; stroke:none;" d="M10 0L10 10L0 10L0 50L10 50L10 80L0 80L0 90L10 90L10 80L20 80L20 90L30 90L30 80L40 80L40 90L70 90L70 80L90 80L90 70L80 70L80 50L90 50L90 0L60 0L60 10L50 10L50 0L10 0z"/>
<path style="fill:#ffffff; stroke:none;" d="M50 0L50 10L60 10L60 0L50 0M20 20L20 70L70 70L70 20L20 20z"/>
<path style="fill:#000000; stroke:none;" d="M40 30L40 40L30 40L30 50L50 50L50 60L60 60L60 50L50 50L50 30L40 30z"/>
<path style="fill:#ffffff; stroke:none;" d="M0 50L0 80L10 80L10 50L0 50M80 50L80 70L90 70L90 50L80 50M10 80L10 90L20 90L20 80L10 80M30 80L30 90L40 90L40 80L30 80M70 80L70 90L90 90L90 80L70 80z"/>
</svg>
