<?xml version="1.0" standalone="yes"?>
<svg xmlns="http://www.w3.org/2000/svg" width="90" height="90">
<path style="fill:#ffffff; stroke:none;" d="M0 0L0 50L10 50L10 10L30 10L30 0L0 0z"/>
<path style="fill:#000000; stroke:none;" d="M30 0L30 10L10 10L10 50L0 50L0 90L10 90L10 80L30 80L30 90L40 90L40 80L60 80L60 90L70 90L70 80L80 80L80 90L90 90L90 80L80 80L80 40L90 40L90 20L80 20L80 0L60 0L60 10L40 10L40 0L30 0z"/>
<path style="fill:#ffffff; stroke:none;" d="M40 0L40 10L60 10L60 0L40 0M80 0L80 20L90 20L90 0L80 0M20 20L20 70L70 70L70 20L20 20z"/>
<path style="fill:#000000; stroke:none;" d="M50 30L50 40L30 40L30 50L50 50L50 40L60 40L60 30L50 30z"/>
<path style="fill:#ffffff; stroke:none;" d="M80 40L80 80L90 80L90 40L80 40M10 80L10 90L30 90L30 80L10 80M40 80L40 90L60 90L60 80L40 80M70 80L70 90L80 90L80 80L70 80z"/>
</svg>
