<?xml version="1.0" standalone="yes"?>
<svg xmlns="http://www.w3.org/2000/svg" width="90" height="90">
<path style="fill:#ffffff; stroke:none;" d="M0 0L0 20L10 20L10 0L0 0z"/>
<path style="fill:#000000; stroke:none;" d="M10 0L10 20L0 20L0 40L10 40L10 50L0 50L0 60L10 60L10 70L0 70L0 90L10 90L10 80L20 80L20 90L30 90L30 80L70 80L70 90L90 90L90 60L80 60L80 10L90 10L90 0L60 0L60 10L50 10L50 0L10 0z"/>
<path style="fill:#ffffff; stroke:none;" d="M50 0L50 10L60 10L60 0L50 0M80 10L80 60L90 60L90 10L80 10M20 20L20 70L70 70L70 20L20 20z"/>
<path style="fill:#000000; stroke:none;" d="M40 30L40 40L30 40L30 60L50 60L50 50L60 50L60 30L40 30z"/>
<path style="fill:#ffffff; stroke:none;" d="M0 40L0 50L10 50L10 40L0 40M40 40L40 50L50 50L50 40L40 40M0 60L0 70L10 70L10 60L0 60M10 80L10 90L20 90L20 80L10 80M30 80L30 90L70 90L70 80L30 80z"/>
</svg>
