<?xml version="1.0" standalone="yes"?>
<svg xmlns="http://www.w3.org/2000/svg" width="90" height="90">
<path style="fill:#ffffff; stroke:none;" d="M0 0L0 20L10 20L10 10L40 10L40 0L0 0z"/>
<path style="fill:#000000; stroke:none;" d="M40 0L40 10L10 10L10 20L0 20L0 30L10 30L10 70L0 70L0 80L10 80L10 90L20 90L20 80L30 80L30 90L40 90L40 80L50 80L50 90L60 90L60 80L80 80L80 70L90 70L90 50L80 50L80 40L90 40L90 30L80 30L80 10L70 10L70 0L60 0L60 10L50 10L50 0L40 0z"/>
<path style="fill:#ffffff; stroke:none;" d="M50 0L50 10L60 10L60 0L50 0M70 0L70 10L80 10L80 30L90 30L90 0L70 0M20 20L20 70L70 70L70 20L20 20M0 30L0 70L10 70L10 30L0 30z"/>
<path style="fill:#000000; stroke:none;" d="M40 30L40 50L30 50L30 60L40 60L40 50L60 50L60 30L40 30z"/>
<path style="fill:#ffffff; stroke:none;" d="M80 40L80 50L90 50L90 40L80 40M80 70L80 80L60 80L60 90L90 90L90 70L80 70M0 80L0 90L10 90L10 80L0 80M20 80L20 90L30 90L30 80L20 80M40 80L40 90L50 90L50 80L40 80z"/>
</svg>
