<?xml version="1.0" standalone="yes"?>
<svg xmlns="http://www.w3.org/2000/svg" width="90" height="90">
<path style="fill:#000000; stroke:none;" d="M0 0L0 40L10 40L10 60L0 60L0 70L10 70L10 80L0 80L0 90L10 90L10 80L40 80L40 90L50 90L50 80L70 80L70 90L90 90L90 70L80 70L80 60L90 60L90 50L80 50L80 40L90 40L90 20L80 20L80 10L90 10L90 0L70 0L70 10L30 10L30 0L20 0L20 10L10 10L10 0L0 0z"/>
<path style="fill:#ffffff; stroke:none;" d="M10 0L10 10L20 10L20 0L10 0M30 0L30 10L70 10L70 0L30 0M80 10L80 20L90 20L90 10L80 10M20 20L20 70L70 70L70 20L20 20z"/>
<path style="fill:#000000; stroke:none;" d="M50 30L50 40L30 40L30 60L50 60L50 40L60 40L60 30L50 30z"/>
<path style="fill:#ffffff; stroke:none;" d="M0 40L0 60L10 60L10 40L0 40M80 40L80 50L90 50L90 40L80 40M80 60L80 70L90 70L90 60L80 60M0 70L0 80L10 80L10 70L0 70M10 80L10 90L40 90L40 80L10 80M50 80L50 90L70 90L70 80L50 80z"/>
</svg>
