<?xml version="1.0" standalone="yes"?>
<svg xmlns="http://www.w3.org/2000/svg" width="90" height="90">
<path style="fill:#ffffff; stroke:none;" d="M0 0L0 40L10 40L10 10L30 10L30 0L0 0z"/>
<path style="fill:#000000; stroke:none;" d="M30 0L30 10L10 10L10 40L0 40L0 50L10 50L10 70L0 70L0 90L10 90L10 80L30 80L30 90L90 90L90 80L80 80L80 50L90 50L90 40L80 40L80 10L70 10L70 0L30 0z"/>
<path style="fill:#ffffff; stroke:none;" d="M70 0L70 10L80 10L80 40L90 40L90 0L70 0M20 20L20 70L70 70L70 20L20 20z"/>
<path style="fill:#000000; stroke:none;" d="M50 30L50 40L40 40L40 50L60 50L60 30L50 30z"/>
<path style="fill:#ffffff; stroke:none;" d="M0 50L0 70L10 70L10 50L0 50M80 50L80 80L90 80L90 50L80 50M10 80L10 90L30 90L30 80L10 80z"/>
</svg>
