<?xml version="1.0" standalone="yes"?>
<svg xmlns="http://www.w3.org/2000/svg" width="90" height="90">
<path style="fill:#000000; stroke:none;" d="M0 0L0 10L10 10L10 30L0 30L0 60L10 60L10 70L0 70L0 80L10 80L10 90L20 90L20 80L40 80L40 90L60 90L60 80L70 80L70 90L90 90L90 70L80 70L80 50L90 50L90 30L80 30L80 20L90 20L90 10L60 10L60 0L20 0L20 10L10 10L10 0L0 0z"/>
<path style="fill:#ffffff; stroke:none;" d="M10 0L10 10L20 10L20 0L10 0M60 0L60 10L90 10L90 0L60 0M0 10L0 30L10 30L10 10L0 10M20 20L20 70L70 70L70 20L20 20M80 20L80 30L90 30L90 20L80 20z"/>
<path style="fill:#000000; stroke:none;" d="M30 30L30 50L50 50L50 40L60 40L60 30L50 30L50 40L40 40L40 30L30 30z"/>
<path style="fill:#ffffff; stroke:none;" d="M80 50L80 70L90 70L90 50L80 50M0 60L0 70L10 70L10 60L0 60M0 80L0 90L10 90L10 80L0 80M20 80L20 90L40 90L40 80L20 80M60 80L60 90L70 90L70 80L60 80z"/>
</svg>
