<?xml version="1.0" standalone="yes"?>
<svg xmlns="http://www.w3.org/2000/svg" width="90" height="90">
<path style="fill:#ffffff; stroke:none;" d="M0 0L0 20L10 20L10 0L0 0z"/>
<path style="fill:#000000; stroke:none;" d="M10 0L10 20L0 20L0 30L10 30L10 40L0 40L0 50L10 50L10 60L0 60L0 70L10 70L10 80L0 80L0 90L10 90L10 80L20 80L20 90L50 90L50 80L80 80L80 70L90 70L90 60L80 60L80 50L90 50L90 40L80 40L80 30L90 30L90 10L70 10L70 0L60 0L60 10L40 10L40 0L10 0z"/>
<path style="fill:#ffffff; stroke:none;" d="M40 0L40 10L60 10L60 0L40 0M70 0L70 10L90 10L90 0L70 0M20 20L20 70L70 70L70 20L20 20M0 30L0 40L10 40L10 30L0 30z"/>
<path style="fill:#000000; stroke:none;" d="M40 30L40 40L30 40L30 50L40 50L40 60L60 60L60 30L40 30z"/>
<path style="fill:#ffffff; stroke:none;" d="M80 30L80 40L90 40L90 30L80 30M40 40L40 50L50 50L50 40L40 40M0 50L0 60L10 60L10 50L0 50M80 50L80 60L90 60L90 50L80 50M0 70L0 80L10 80L10 70L0 70M80 70L80 80L50 80L50 90L90 90L90 70L80 70M10 80L10 90L20 90L20 80L10 80z"/>
</svg>
