<?xml version="1.0" standalone="yes"?>
<svg xmlns="http://www.w3.org/2000/svg" width="90" height="90">
<path style="fill:#000000; stroke:none;" d="M0 0L0 10L10 10L10 40L0 40L0 60L10 60L10 70L0 70L0 80L20 80L20 90L40 90L40 80L80 80L80 90L90 90L90 80L80 80L80 70L90 70L90 20L80 20L80 10L90 10L90 0L80 0L80 10L70 10L70 0L50 0L50 10L20 10L20 0L0 0z"/>
<path style="fill:#ffffff; stroke:none;" d="M20 0L20 10L50 10L50 0L20 0M70 0L70 10L80 10L80 0L70 0M0 10L0 40L10 40L10 10L0 10M80 10L80 20L90 20L90 10L80 10M20 20L20 70L70 70L70 20L20 20z"/>
<path style="fill:#000000; stroke:none;" d="M30 30L30 50L40 50L40 60L60 60L60 50L50 50L50 30L30 30z"/>
<path style="fill:#ffffff; stroke:none;" d="M0 60L0 70L10 70L10 60L0 60M80 70L80 80L90 80L90 70L80 70M0 80L0 90L20 90L20 80L0 80M40 80L40 90L80 90L80 80L40 80z"/>
</svg>
