<?xml version="1.0" standalone="yes"?>
<svg xmlns="http://www.w3.org/2000/svg" width="90" height="90">
<path style="fill:#000000; stroke:none;" d="M0 0L0 20L10 20L10 30L0 30L0 60L10 60L10 70L0 70L0 90L10 90L10 80L20 80L20 90L30 90L30 80L40 80L40 90L90 90L90 70L80 70L80 40L90 40L90 30L80 30L80 20L90 20L90 0L80 0L80 10L50 10L50 0L30 0L30 10L20 10L20 0L0 0z"/>
<path style="fill:#ffffff; stroke:none;" d="M20 0L20 10L30 10L30 0L20 0M50 0L50 10L80 10L80 0L50 0M0 20L0 30L10 30L10 20L0 20M20 20L20 70L70 70L70 20L20 20M80 20L80 30L90 30L90 20L80 20z"/>
<path style="fill:#000000; stroke:none;" d="M30 30L30 50L50 50L50 30L30 30z"/>
<path style="fill:#ffffff; stroke:none;" d="M80 40L80 70L90 70L90 40L80 40M0 60L0 70L10 70L10 60L0 60M10 80L10 90L20 90L20 80L10 80M30 80L30 90L40 90L40 80L30 80z"/>
</svg>
