<?xml version="1.0" standalone="yes"?>
<svg xmlns="http://www.w3.org/2000/svg" width="90" height="90">
<path style="fill:#ffffff; stroke:none;" d="M0 0L0 10L30 10L30 0L0 0z"/>
<path style="fill:#000000; stroke:none;" d="M30 0L30 10L0 10L0 40L10 40L10 90L20 90L20 80L40 80L40 90L60 90L60 80L70 80L70 90L90 90L90 80L80 80L80 10L90 10L90 0L60 0L60 10L50 10L50 0L30 0z"/>
<path style="fill:#ffffff; stroke:none;" d="M50 0L50 10L60 10L60 0L50 0M80 10L80 80L90 80L90 10L80 10M20 20L20 70L70 70L70 20L20 20z"/>
<path style="fill:#000000; stroke:none;" d="M30 30L30 50L40 50L40 60L60 60L60 40L50 40L50 50L40 50L40 30L30 30z"/>
<path style="fill:#ffffff; stroke:none;" d="M0 40L0 90L10 90L10 40L0 40M20 80L20 90L40 90L40 80L20 80M60 80L60 90L70 90L70 80L60 80z"/>
</svg>
