<?xml version="1.0" standalone="yes"?>
<svg xmlns="http://www.w3.org/2000/svg" width="90" height="90">
<path style="fill:#ffffff; stroke:none;" d="M0 0L0 10L20 10L20 0L0 0z"/>
<path style="fill:#000000; stroke:none;" d="M20 0L20 10L0 10L0 20L10 20L10 50L0 50L0 60L10 60L10 80L0 80L0 90L10 90L10 80L30 80L30 90L40 90L40 80L50 80L50 90L60 90L60 80L80 80L80 20L90 20L90 10L50 10L50 0L20 0z"/>
<path style="fill:#ffffff; stroke:none;" d="M50 0L50 10L90 10L90 0L50 0M0 20L0 50L10 50L10 20L0 20M20 20L20 70L70 70L70 20L20 20M80 20L80 80L60 80L60 90L90 90L90 20L80 20z"/>
<path style="fill:#000000; stroke:none;" d="M30 30L30 40L40 40L40 50L30 50L30 60L60 60L60 50L50 50L50 40L60 40L60 30L30 30z"/>
<path style="fill:#ffffff; stroke:none;" d="M0 60L0 80L10 80L10 60L0 60M10 80L10 90L30 90L30 80L10 80M40 80L40 90L50 90L50 80L40 80z"/>
</svg>
