<?xml version="1.0" standalone="yes"?>
<svg xmlns="http://www.w3.org/2000/svg" width="90" height="90">
<path style="fill:#000000; stroke:none;" d="M0 0L0 20L10 20L10 30L0 30L0 50L10 50L10 60L0 60L0 70L10 70L10 90L30 90L30 80L70 80L70 90L90 90L90 80L80 80L80 70L90 70L90 40L80 40L80 30L90 30L90 0L80 0L80 10L10 10L10 0L0 0z"/>
<path style="fill:#ffffff; stroke:none;" d="M10 0L10 10L80 10L80 0L10 0M0 20L0 30L10 30L10 20L0 20M20 20L20 70L70 70L70 20L20 20z"/>
<path style="fill:#000000; stroke:none;" d="M30 30L30 50L40 50L40 60L50 60L50 40L60 40L60 30L30 30z"/>
<path style="fill:#ffffff; stroke:none;" d="M80 30L80 40L90 40L90 30L80 30M0 50L0 60L10 60L10 50L0 50M0 70L0 90L10 90L10 70L0 70M80 70L80 80L90 80L90 70L80 70M30 80L30 90L70 90L70 80L30 80z"/>
</svg>
