<?xml version="1.0" standalone="yes"?>
<svg xmlns="http://www.w3.org/2000/svg" width="440" height="530">
<path style="fill:#ffffff; stroke:none;" d="M0 0L0 80L80 80L80 0L0 0z"/>
<path style="fill:#000000; stroke:none;" d="M80 0L80 80L0 80L0 90L80 90L80 170L0 170L0 180L80 180L80 260L0 260L0 270L80 270L80 350L0 350L0 360L80 360L80 440L0 440L0 450L80 450L80 530L90 530L90 450L170 450L170 530L180 530L180 450L260 450L260 530L270 530L270 450L350 450L350 530L360 530L360 450L440 450L440 440L360 440L360 360L440 360L440 350L360 350L360 270L440 270L440 260L360 260L360 180L440 180L440 170L360 170L360 90L440 90L440 80L360 80L360 0L350 0L350 80L270 80L270 0L260 0L260 80L180 80L180 0L170 0L170 80L90 80L90 0L80 0z"/>
<path style="fill:#ffffff; stroke:none;" d="M90 0L90 80L170 80L170 0L90 0M180 0L180 80L260 80L260 0L180 0M270 0L270 80L350 80L350 0L270 0M360 0L360 80L440 80L440 0L360 0z"/>
<path style="fill:#000000; stroke:none;" d="M10 10L10 70L70 70L70 10L10 10M100 10L100 70L160 70L160 10L100 10M190 10L190 70L250 70L250 10L190 10M280 10L280 70L340 70L340 10L280 10M370 10L370 70L430 70L430 10L370 10z"/>
<path style="fill:#ffffff; stroke:none;" d="M40 20L40 40L50 40L50 50L40 50L40 60L60 60L60 30L50 30L50 20L40 20M130 20L130 30L110 30L110 50L120 50L120 60L130 60L130 50L140 50L140 60L150 60L150 50L140 50L140 20L130 20M220 20L220 30L210 30L210 50L200 50L200 60L210 60L210 50L220 50L220 60L230 60L230 40L220 40L220 30L240 30L240 20L220 20M300 20L300 40L290 40L290 60L300 60L300 40L310 40L310 50L320 50L320 60L330 60L330 30L320 30L320 40L310 40L310 20L300 20M390 20L390 30L380 30L380 50L390 50L390 60L410 60L410 40L420 40L420 20L390 20z"/>
<path style="fill:#000000; stroke:none;" d="M390 30L390 50L400 50L400 40L410 40L410 30L390 30M120 40L120 50L130 50L130 40L120 40z"/>
<path style="fill:#ffffff; stroke:none;" d="M20 50L20 60L30 60L30 50L20 50M0 90L0 170L80 170L80 90L0 90M90 90L90 170L170 170L170 90L90 90M180 90L180 170L260 170L260 90L180 90M270 90L270 170L350 170L350 90L270 90M360 90L360 170L440 170L440 90L360 90z"/>
<path style="fill:#000000; stroke:none;" d="M10 100L10 160L70 160L70 100L10 100M100 100L100 160L160 160L160 100L100 100M190 100L190 160L250 160L250 100L190 100M280 100L280 160L340 160L340 100L280 100M370 100L370 160L430 160L430 100L370 100z"/>
<path style="fill:#ffffff; stroke:none;" d="M30 110L30 120L20 120L20 130L30 130L30 140L20 140L20 150L30 150L30 140L40 140L40 150L60 150L60 140L50 140L50 130L60 130L60 110L30 110M110 110L110 120L120 120L120 110L110 110M130 110L130 130L120 130L120 140L110 140L110 150L120 150L120 140L130 140L130 130L140 130L140 140L150 140L150 110L130 110M200 110L200 120L210 120L210 150L220 150L220 130L240 130L240 120L230 120L230 110L200 110M290 110L290 130L300 130L300 140L290 140L290 150L300 150L300 140L310 140L310 130L320 130L320 150L330 150L330 130L320 130L320 120L330 120L330 110L290 110M410 110L410 130L400 130L400 120L390 120L390 140L380 140L380 150L400 150L400 140L410 140L410 150L420 150L420 140L410 140L410 130L420 130L420 110L410 110M230 140L230 150L240 150L240 140L230 140M0 180L0 260L80 260L80 180L0 180M90 180L90 260L170 260L170 180L90 180M180 180L180 260L260 260L260 180L180 180M270 180L270 260L350 260L350 180L270 180M360 180L360 260L440 260L440 180L360 180z"/>
<path style="fill:#000000; stroke:none;" d="M10 190L10 250L70 250L70 190L10 190M100 190L100 250L160 250L160 190L100 190M190 190L190 250L250 250L250 190L190 190M280 190L280 250L340 250L340 190L280 190M370 190L370 250L430 250L430 190L370 190z"/>
<path style="fill:#ffffff; stroke:none;" d="M40 200L40 210L60 210L60 200L40 200M110 200L110 210L150 210L150 200L110 200M300 200L300 220L310 220L310 230L300 230L300 240L320 240L320 230L330 230L330 210L310 210L310 200L300 200M380 200L380 220L390 220L390 230L400 230L400 240L410 240L410 230L420 230L420 220L400 220L400 210L390 210L390 200L380 200M20 210L20 220L30 220L30 210L20 210M200 210L200 230L210 230L210 240L220 240L220 230L210 230L210 220L220 220L220 210L200 210M230 210L230 220L240 220L240 210L230 210M110 220L110 240L120 240L120 220L110 220M130 220L130 240L150 240L150 230L140 230L140 220L130 220M20 230L20 240L30 240L30 230L20 230M40 230L40 240L60 240L60 230L40 230M0 270L0 350L80 350L80 270L0 270M90 270L90 350L170 350L170 270L90 270M180 270L180 350L260 350L260 270L180 270M270 270L270 350L350 350L350 270L270 270M360 270L360 350L440 350L440 270L360 270z"/>
<path style="fill:#000000; stroke:none;" d="M10 280L10 340L70 340L70 280L10 280M100 280L100 340L160 340L160 280L100 280M190 280L190 340L250 340L250 280L190 280M280 280L280 340L340 340L340 280L280 280M370 280L370 340L430 340L430 280L370 280z"/>
<path style="fill:#ffffff; stroke:none;" d="M20 290L20 310L50 310L50 320L60 320L60 300L50 300L50 290L40 290L40 300L30 300L30 290L20 290M200 290L200 300L210 300L210 290L200 290M230 290L230 300L220 300L220 320L210 320L210 310L200 310L200 320L210 320L210 330L220 330L220 320L240 320L240 290L230 290M290 290L290 300L300 300L300 310L310 310L310 300L320 300L320 310L330 310L330 300L320 300L320 290L310 290L310 300L300 300L300 290L290 290M390 290L390 310L380 310L380 330L420 330L420 320L390 320L390 310L410 310L410 300L400 300L400 290L390 290M110 300L110 310L120 310L120 300L110 300M140 300L140 310L130 310L130 320L110 320L110 330L130 330L130 320L150 320L150 300L140 300M310 320L310 330L330 330L330 320L310 320M0 360L0 440L80 440L80 360L0 360M90 360L90 440L170 440L170 360L90 360M180 360L180 440L260 440L260 360L180 360M270 360L270 440L350 440L350 360L270 360M360 360L360 440L440 440L440 360L360 360z"/>
<path style="fill:#000000; stroke:none;" d="M10 370L10 430L70 430L70 370L10 370M100 370L100 430L160 430L160 370L100 370M190 370L190 430L250 430L250 370L190 370M280 370L280 430L340 430L340 370L280 370M370 370L370 430L430 430L430 370L370 370z"/>
<path style="fill:#ffffff; stroke:none;" d="M20 380L20 390L50 390L50 400L40 400L40 410L30 410L30 420L60 420L60 390L50 390L50 380L20 380M120 380L120 400L110 400L110 410L120 410L120 420L130 420L130 410L120 410L120 400L140 400L140 420L150 420L150 380L140 380L140 390L130 390L130 380L120 380M200 380L200 400L210 400L210 410L220 410L220 420L230 420L230 410L220 410L220 400L240 400L240 380L230 380L230 390L220 390L220 380L200 380M320 380L320 390L330 390L330 380L320 380M380 380L380 420L400 420L400 400L390 400L390 390L410 390L410 410L420 410L420 390L410 390L410 380L380 380M290 390L290 400L310 400L310 390L290 390M320 400L320 420L330 420L330 400L320 400M290 410L290 420L310 420L310 410L290 410M0 450L0 530L80 530L80 450L0 450M90 450L90 530L170 530L170 450L90 450M180 450L180 530L260 530L260 450L180 450M270 450L270 530L350 530L350 450L270 450M360 450L360 530L440 530L440 450L360 450z"/>
<path style="fill:#000000; stroke:none;" d="M10 460L10 520L70 520L70 460L10 460M100 460L100 520L160 520L160 460L100 460M190 460L190 520L250 520L250 460L190 460M280 460L280 520L340 520L340 460L280 460M370 460L370 520L430 520L430 460L370 460z"/>
<path style="fill:#ffffff; stroke:none;" d="M30 470L30 480L40 480L40 500L30 500L30 490L20 490L20 510L40 510L40 500L50 500L50 510L60 510L60 500L50 500L50 490L60 490L60 470L30 470M110 470L110 490L120 490L120 500L110 500L110 510L150 510L150 480L140 480L140 470L130 470L130 480L120 480L120 470L110 470M200 470L200 480L210 480L210 490L220 490L220 500L240 500L240 470L230 470L230 490L220 490L220 470L200 470M380 470L380 490L400 490L400 500L380 500L380 510L410 510L410 490L420 490L420 480L410 480L410 470L400 470L400 480L390 480L390 470L380 470z"/>
<path style="fill:#000000; stroke:none;" d="M130 480L130 500L140 500L140 480L130 480z"/>
<path style="fill:#ffffff; stroke:none;" d="M300 480L300 490L290 490L290 510L300 510L300 500L310 500L310 510L320 510L320 500L310 500L310 490L330 490L330 480L300 480z"/>
</svg>
