<?xml version="1.0" standalone="yes"?>
<svg xmlns="http://www.w3.org/2000/svg" width="100" height="100">
<path style="fill:#ffffff; stroke:none;" d="M0 0L0 100L100 100L100 0L0 0z"/>
<path style="fill:#000000; stroke:none;" d="M10 10L10 90L90 90L90 10L10 10z"/>
<path style="fill:#ffffff; stroke:none;" d="M20 20L20 30L30 30L30 60L20 60L20 70L30 70L30 80L60 80L60 70L80 70L80 40L60 40L60 60L50 60L50 70L30 70L30 60L40 60L40 50L50 50L50 40L40 40L40 30L30 30L30 20L20 20M60 20L60 30L80 30L80 20L60 20z"/>
</svg>
