<?xml version="1.0" standalone="yes"?>
<svg xmlns="http://www.w3.org/2000/svg" width="100" height="100">
<path style="fill:#ffffff; stroke:none;" d="M0 0L0 100L100 100L100 0L0 0z"/>
<path style="fill:#000000; stroke:none;" d="M10 10L10 90L90 90L90 10L10 10z"/>
<path style="fill:#ffffff; stroke:none;" d="M20 20L20 30L30 30L30 20L20 20M40 20L40 30L50 30L50 40L60 40L60 50L70 50L70 60L80 60L80 40L70 40L70 20L60 20L60 30L50 30L50 20L40 20M30 40L30 50L20 50L20 60L30 60L30 70L40 70L40 80L60 80L60 60L50 60L50 50L40 50L40 40L30 40z"/>
<path style="fill:#000000; stroke:none;" d="M30 50L30 60L40 60L40 70L50 70L50 60L40 60L40 50L30 50z"/>
<path style="fill:#ffffff; stroke:none;" d="M70 70L70 80L80 80L80 70L70 70z"/>
</svg>
