<?xml version="1.0" standalone="yes"?>
<svg xmlns="http://www.w3.org/2000/svg" width="100" height="100">
<path style="fill:#ffffff; stroke:none;" d="M0 0L0 100L100 100L100 0L0 0z"/>
<path style="fill:#000000; stroke:none;" d="M10 10L10 90L90 90L90 10L10 10z"/>
<path style="fill:#ffffff; stroke:none;" d="M60 20L60 30L70 30L70 20L60 20M30 30L30 40L20 40L20 60L30 60L30 70L20 70L20 80L40 80L40 60L30 60L30 40L40 40L40 30L30 30M60 40L60 50L70 50L70 40L60 40M60 60L60 70L50 70L50 80L60 80L60 70L70 70L70 80L80 80L80 60L60 60z"/>
</svg>
