<?xml version="1.0" standalone="yes"?>
<svg xmlns="http://www.w3.org/2000/svg" width="100" height="100">
<path style="fill:#ffffff; stroke:none;" d="M0 0L0 100L100 100L100 0L0 0z"/>
<path style="fill:#000000; stroke:none;" d="M10 10L10 90L90 90L90 10L10 10z"/>
<path style="fill:#ffffff; stroke:none;" d="M30 20L30 30L20 30L20 50L30 50L30 40L50 40L50 30L60 30L60 40L70 40L70 30L80 30L80 20L70 20L70 30L60 30L60 20L50 20L50 30L40 30L40 20L30 20M60 50L60 60L50 60L50 80L70 80L70 70L80 70L80 60L70 60L70 50L60 50M30 70L30 80L40 80L40 70L30 70z"/>
</svg>
