<?xml version="1.0" standalone="yes"?>
<svg xmlns="http://www.w3.org/2000/svg" width="100" height="100">
<path style="fill:#ffffff; stroke:none;" d="M0 0L0 100L100 100L100 0L0 0z"/>
<path style="fill:#000000; stroke:none;" d="M10 10L10 90L90 90L90 10L10 10z"/>
<path style="fill:#ffffff; stroke:none;" d="M50 20L50 30L70 30L70 40L60 40L60 50L40 50L40 30L20 30L20 40L30 40L30 50L20 50L20 80L50 80L50 70L70 70L70 60L60 60L60 50L70 50L70 40L80 40L80 30L70 30L70 20L50 20z"/>
<path style="fill:#000000; stroke:none;" d="M30 50L30 70L40 70L40 50L30 50z"/>
</svg>
