<?xml version="1.0" standalone="yes"?>
<svg xmlns="http://www.w3.org/2000/svg" width="100" height="100">
<path style="fill:#ffffff; stroke:none;" d="M0 0L0 100L100 100L100 0L0 0z"/>
<path style="fill:#000000; stroke:none;" d="M10 10L10 90L90 90L90 10L10 10z"/>
<path style="fill:#ffffff; stroke:none;" d="M40 20L40 30L30 30L30 40L20 40L20 50L30 50L30 60L20 60L20 70L30 70L30 80L70 80L70 70L80 70L80 30L70 30L70 40L60 40L60 20L40 20z"/>
<path style="fill:#000000; stroke:none;" d="M40 30L40 50L50 50L50 60L60 60L60 70L70 70L70 50L60 50L60 40L50 40L50 30L40 30M30 60L30 70L40 70L40 60L30 60z"/>
</svg>
