<?xml version="1.0" standalone="yes"?>
<svg xmlns="http://www.w3.org/2000/svg" width="100" height="100">
<path style="fill:#ffffff; stroke:none;" d="M0 0L0 100L100 100L100 0L0 0z"/>
<path style="fill:#000000; stroke:none;" d="M10 10L10 90L90 90L90 10L10 10z"/>
<path style="fill:#ffffff; stroke:none;" d="M20 20L20 30L30 30L30 20L20 20M40 20L40 40L50 40L50 20L40 20M70 20L70 30L60 30L60 40L80 40L80 20L70 20M30 50L30 60L20 60L20 80L30 80L30 60L40 60L40 80L50 80L50 70L60 70L60 60L70 60L70 80L80 80L80 60L70 60L70 50L30 50z"/>
</svg>
