<?xml version="1.0" standalone="yes"?>
<svg xmlns="http://www.w3.org/2000/svg" width="100" height="100">
<path style="fill:#ffffff; stroke:none;" d="M0 0L0 100L100 100L100 0L0 0z"/>
<path style="fill:#000000; stroke:none;" d="M10 10L10 90L90 90L90 10L10 10z"/>
<path style="fill:#ffffff; stroke:none;" d="M40 20L40 30L20 30L20 40L40 40L40 30L50 30L50 20L40 20M60 20L60 30L80 30L80 20L60 20M50 40L50 50L40 50L40 60L20 60L20 80L40 80L40 70L50 70L50 60L60 60L60 40L50 40M70 50L70 70L60 70L60 80L80 80L80 50L70 50z"/>
</svg>
