<?xml version="1.0" standalone="yes"?>
<svg xmlns="http://www.w3.org/2000/svg" width="100" height="100">
<path style="fill:#ffffff; stroke:none;" d="M0 0L0 100L100 100L100 0L0 0z"/>
<path style="fill:#000000; stroke:none;" d="M10 10L10 90L90 90L90 10L10 10z"/>
<path style="fill:#ffffff; stroke:none;" d="M20 20L20 30L40 30L40 50L60 50L60 60L70 60L70 70L50 70L50 80L70 80L70 70L80 70L80 50L70 50L70 30L80 30L80 20L70 20L70 30L60 30L60 40L50 40L50 20L20 20M20 40L20 60L30 60L30 40L20 40M20 70L20 80L40 80L40 70L20 70z"/>
</svg>
