<?xml version="1.0" standalone="yes"?>
<svg xmlns="http://www.w3.org/2000/svg" width="100" height="100">
<path style="fill:#ffffff; stroke:none;" d="M0 0L0 100L100 100L100 0L0 0z"/>
<path style="fill:#000000; stroke:none;" d="M10 10L10 90L90 90L90 10L10 10z"/>
<path style="fill:#ffffff; stroke:none;" d="M30 20L30 40L40 40L40 50L50 50L50 40L60 40L60 30L70 30L70 20L60 20L60 30L50 30L50 20L30 20M70 40L70 50L60 50L60 70L70 70L70 80L80 80L80 70L70 70L70 60L80 60L80 40L70 40M20 50L20 80L50 80L50 70L40 70L40 60L30 60L30 50L20 50z"/>
</svg>
