<?xml version="1.0" standalone="yes"?>
<svg xmlns="http://www.w3.org/2000/svg" width="100" height="100">
<path style="fill:#ffffff; stroke:none;" d="M0 0L0 100L100 100L100 0L0 0z"/>
<path style="fill:#000000; stroke:none;" d="M10 10L10 90L90 90L90 10L10 10z"/>
<path style="fill:#ffffff; stroke:none;" d="M20 20L20 30L50 30L50 20L20 20M60 20L60 40L40 40L40 50L50 50L50 60L40 60L40 70L30 70L30 40L20 40L20 80L40 80L40 70L60 70L60 80L80 80L80 60L70 60L70 70L60 70L60 50L80 50L80 30L70 30L70 20L60 20z"/>
</svg>
