<?xml version="1.0" standalone="yes"?>
<svg xmlns="http://www.w3.org/2000/svg" width="100" height="100">
<path style="fill:#ffffff; stroke:none;" d="M0 0L0 100L100 100L100 0L0 0z"/>
<path style="fill:#000000; stroke:none;" d="M10 10L10 90L90 90L90 10L10 10z"/>
<path style="fill:#ffffff; stroke:none;" d="M20 20L20 80L30 80L30 70L40 70L40 60L50 60L50 50L60 50L60 40L40 40L40 20L20 20M50 20L50 30L70 30L70 40L80 40L80 30L70 30L70 20L50 20z"/>
<path style="fill:#000000; stroke:none;" d="M30 50L30 60L40 60L40 50L30 50z"/>
<path style="fill:#ffffff; stroke:none;" d="M60 60L60 80L80 80L80 70L70 70L70 60L60 60z"/>
</svg>
