<?xml version="1.0" standalone="yes"?>
<svg xmlns="http://www.w3.org/2000/svg" width="100" height="100">
<path style="fill:#ffffff; stroke:none;" d="M0 0L0 100L100 100L100 0L0 0z"/>
<path style="fill:#000000; stroke:none;" d="M10 10L10 90L90 90L90 10L10 10z"/>
<path style="fill:#ffffff; stroke:none;" d="M30 20L30 30L50 30L50 40L40 40L40 60L60 60L60 40L70 40L70 50L80 50L80 40L70 40L70 30L80 30L80 20L30 20M20 40L20 50L30 50L30 40L20 40M20 60L20 80L30 80L30 60L20 60M70 60L70 70L80 70L80 60L70 60M40 70L40 80L60 80L60 70L40 70z"/>
</svg>
