<?xml version="1.0" standalone="yes"?>
<svg xmlns="http://www.w3.org/2000/svg" width="100" height="100">
<path style="fill:#ffffff; stroke:none;" d="M0 0L0 100L100 100L100 0L0 0z"/>
<path style="fill:#000000; stroke:none;" d="M10 10L10 90L90 90L90 10L10 10z"/>
<path style="fill:#ffffff; stroke:none;" d="M60 20L60 30L40 30L40 80L50 80L50 60L60 60L60 80L80 80L80 70L70 70L70 50L80 50L80 40L70 40L70 50L50 50L50 40L60 40L60 30L80 30L80 20L60 20M20 30L20 40L30 40L30 30L20 30M20 50L20 70L30 70L30 50L20 50z"/>
</svg>
