<?xml version="1.0" standalone="yes"?>
<svg xmlns="http://www.w3.org/2000/svg" width="100" height="100">
<path style="fill:#ffffff; stroke:none;" d="M0 0L0 100L100 100L100 0L0 0z"/>
<path style="fill:#000000; stroke:none;" d="M10 10L10 90L90 90L90 10L10 10z"/>
<path style="fill:#ffffff; stroke:none;" d="M30 20L30 30L20 30L20 40L40 40L40 20L30 20M70 20L70 30L80 30L80 20L70 20M50 30L50 40L60 40L60 50L80 50L80 40L60 40L60 30L50 30M30 60L30 80L50 80L50 70L60 70L60 60L50 60L50 70L40 70L40 60L30 60M70 60L70 80L80 80L80 60L70 60z"/>
</svg>
