<?xml version="1.0" standalone="yes"?>
<svg xmlns="http://www.w3.org/2000/svg" width="100" height="100">
<path style="fill:#ffffff; stroke:none;" d="M0 0L0 100L100 100L100 0L0 0z"/>
<path style="fill:#000000; stroke:none;" d="M10 10L10 90L90 90L90 10L10 10z"/>
<path style="fill:#ffffff; stroke:none;" d="M70 20L70 30L40 30L40 40L30 40L30 30L20 30L20 40L30 40L30 50L20 50L20 80L30 80L30 50L40 50L40 80L50 80L50 50L60 50L60 60L70 60L70 70L60 70L60 80L80 80L80 60L70 60L70 30L80 30L80 20L70 20z"/>
<path style="fill:#000000; stroke:none;" d="M40 40L40 50L50 50L50 40L40 40z"/>
</svg>
