<?xml version="1.0" standalone="yes"?>
<svg xmlns="http://www.w3.org/2000/svg" width="100" height="100">
<path style="fill:#ffffff; stroke:none;" d="M0 0L0 100L100 100L100 0L0 0z"/>
<path style="fill:#000000; stroke:none;" d="M10 10L10 90L90 90L90 10L10 10z"/>
<path style="fill:#ffffff; stroke:none;" d="M20 20L20 40L30 40L30 50L40 50L40 40L50 40L50 60L40 60L40 70L70 70L70 60L80 60L80 50L70 50L70 30L80 30L80 20L60 20L60 40L50 40L50 30L40 30L40 40L30 40L30 20L20 20z"/>
<path style="fill:#000000; stroke:none;" d="M60 50L60 60L70 60L70 50L60 50z"/>
</svg>
