<?xml version="1.0" standalone="yes"?>
<svg xmlns="http://www.w3.org/2000/svg" width="100" height="100">
<path style="fill:#ffffff; stroke:none;" d="M0 0L0 100L100 100L100 0L0 0z"/>
<path style="fill:#000000; stroke:none;" d="M10 10L10 90L90 90L90 10L10 10z"/>
<path style="fill:#ffffff; stroke:none;" d="M20 20L20 30L30 30L30 40L20 40L20 60L60 60L60 70L50 70L50 80L60 80L60 70L80 70L80 60L60 60L60 50L40 50L40 30L60 30L60 40L70 40L70 50L80 50L80 40L70 40L70 30L60 30L60 20L40 20L40 30L30 30L30 20L20 20z"/>
</svg>
