<?xml version="1.0" standalone="yes"?>
<svg xmlns="http://www.w3.org/2000/svg" width="100" height="100">
<path style="fill:#ffffff; stroke:none;" d="M0 0L0 100L100 100L100 0L0 0z"/>
<path style="fill:#000000; stroke:none;" d="M10 10L10 90L90 90L90 10L10 10z"/>
<path style="fill:#ffffff; stroke:none;" d="M50 20L50 40L40 40L40 30L20 30L20 40L40 40L40 50L60 50L60 60L70 60L70 70L80 70L80 50L70 50L70 30L60 30L60 20L50 20M20 50L20 70L30 70L30 50L20 50M40 60L40 80L60 80L60 70L50 70L50 60L40 60z"/>
</svg>
