<?xml version="1.0" standalone="yes"?>
<svg xmlns="http://www.w3.org/2000/svg" width="100" height="100">
<path style="fill:#ffffff; stroke:none;" d="M0 0L0 100L100 100L100 0L0 0z"/>
<path style="fill:#000000; stroke:none;" d="M10 10L10 90L90 90L90 10L10 10z"/>
<path style="fill:#ffffff; stroke:none;" d="M20 20L20 40L40 40L40 50L50 50L50 60L30 60L30 50L20 50L20 80L60 80L60 70L50 70L50 60L60 60L60 50L80 50L80 40L70 40L70 30L60 30L60 50L50 50L50 30L30 30L30 20L20 20M70 60L70 70L80 70L80 60L70 60z"/>
</svg>
