<?xml version="1.0" standalone="yes"?>
<svg xmlns="http://www.w3.org/2000/svg" width="100" height="100">
<path style="fill:#ffffff; stroke:none;" d="M0 0L0 100L100 100L100 0L0 0z"/>
<path style="fill:#000000; stroke:none;" d="M10 10L10 90L90 90L90 10L10 10z"/>
<path style="fill:#ffffff; stroke:none;" d="M20 20L20 40L30 40L30 50L20 50L20 60L30 60L30 70L20 70L20 80L30 80L30 70L50 70L50 80L70 80L70 70L60 70L60 60L70 60L70 50L80 50L80 40L70 40L70 50L60 50L60 40L50 40L50 30L70 30L70 20L20 20z"/>
<path style="fill:#000000; stroke:none;" d="M40 40L40 60L60 60L60 50L50 50L50 40L40 40z"/>
</svg>
