<?xml version="1.0" standalone="yes"?>
<svg xmlns="http://www.w3.org/2000/svg" width="100" height="100">
<path style="fill:#ffffff; stroke:none;" d="M0 0L0 100L100 100L100 0L0 0z"/>
<path style="fill:#000000; stroke:none;" d="M10 10L10 90L90 90L90 10L10 10z"/>
<path style="fill:#ffffff; stroke:none;" d="M30 20L30 40L50 40L50 50L40 50L40 60L50 60L50 80L70 80L70 70L80 70L80 60L60 60L60 50L70 50L70 30L80 30L80 20L70 20L70 30L60 30L60 40L50 40L50 30L40 30L40 20L30 20M20 50L20 70L30 70L30 50L20 50z"/>
</svg>
