<?xml version="1.0" standalone="yes"?>
<svg xmlns="http://www.w3.org/2000/svg" width="100" height="100">
<path style="fill:#ffffff; stroke:none;" d="M0 0L0 100L100 100L100 0L0 0z"/>
<path style="fill:#000000; stroke:none;" d="M10 10L10 90L90 90L90 10L10 10z"/>
<path style="fill:#ffffff; stroke:none;" d="M20 20L20 70L30 70L30 80L60 80L60 70L70 70L70 60L60 60L60 50L70 50L70 40L60 40L60 30L50 30L50 20L40 20L40 50L30 50L30 20L20 20z"/>
<path style="fill:#000000; stroke:none;" d="M50 40L50 50L60 50L60 40L50 40M30 60L30 70L60 70L60 60L30 60z"/>
</svg>
