<?xml version="1.0" standalone="yes"?>
<svg xmlns="http://www.w3.org/2000/svg" width="100" height="100">
<path style="fill:#ffffff; stroke:none;" d="M0 0L0 100L100 100L100 0L0 0z"/>
<path style="fill:#000000; stroke:none;" d="M10 10L10 90L90 90L90 10L10 10z"/>
<path style="fill:#ffffff; stroke:none;" d="M20 20L20 40L30 40L30 60L20 60L20 80L60 80L60 70L80 70L80 50L70 50L70 40L80 40L80 30L70 30L70 40L60 40L60 20L40 20L40 30L50 30L50 40L60 40L60 50L40 50L40 40L30 40L30 20L20 20z"/>
<path style="fill:#000000; stroke:none;" d="M40 60L40 70L50 70L50 60L40 60z"/>
</svg>
