<?xml version="1.0" standalone="yes"?>
<svg xmlns="http://www.w3.org/2000/svg" width="100" height="100">
<path style="fill:#ffffff; stroke:none;" d="M0 0L0 100L100 100L100 0L0 0z"/>
<path style="fill:#000000; stroke:none;" d="M10 10L10 90L90 90L90 10L10 10z"/>
<path style="fill:#ffffff; stroke:none;" d="M20 20L20 60L30 60L30 70L20 70L20 80L50 80L50 70L40 70L40 30L50 30L50 20L40 20L40 30L30 30L30 20L20 20M60 20L60 40L50 40L50 60L60 60L60 50L70 50L70 40L80 40L80 30L70 30L70 20L60 20M60 70L60 80L70 80L70 70L60 70z"/>
</svg>
