<?xml version="1.0" standalone="yes"?>
<svg xmlns="http://www.w3.org/2000/svg" width="100" height="100">
<path style="fill:#ffffff; stroke:none;" d="M0 0L0 100L100 100L100 0L0 0z"/>
<path style="fill:#000000; stroke:none;" d="M10 10L10 90L90 90L90 10L10 10z"/>
<path style="fill:#ffffff; stroke:none;" d="M40 20L40 30L30 30L30 40L20 40L20 70L50 70L50 80L70 80L70 70L50 70L50 60L30 60L30 40L40 40L40 50L50 50L50 40L70 40L70 50L80 50L80 20L60 20L60 30L50 30L50 20L40 20z"/>
<path style="fill:#000000; stroke:none;" d="M40 30L40 40L50 40L50 30L40 30z"/>
</svg>
