<?xml version="1.0" standalone="yes"?>
<svg xmlns="http://www.w3.org/2000/svg" width="100" height="100">
<path style="fill:#ffffff; stroke:none;" d="M0 0L0 100L100 100L100 0L0 0z"/>
<path style="fill:#000000; stroke:none;" d="M10 10L10 90L90 90L90 10L10 10z"/>
<path style="fill:#ffffff; stroke:none;" d="M40 20L40 30L50 30L50 20L40 20M70 20L70 30L60 30L60 40L50 40L50 60L30 60L30 50L40 50L40 40L30 40L30 30L20 30L20 70L30 70L30 80L40 80L40 70L50 70L50 60L70 60L70 40L80 40L80 20L70 20M60 70L60 80L80 80L80 70L60 70z"/>
</svg>
