<?xml version="1.0" standalone="yes"?>
<svg xmlns="http://www.w3.org/2000/svg" width="100" height="100">
<path style="fill:#ffffff; stroke:none;" d="M0 0L0 100L100 100L100 0L0 0z"/>
<path style="fill:#000000; stroke:none;" d="M10 10L10 90L90 90L90 10L10 10z"/>
<path style="fill:#ffffff; stroke:none;" d="M30 20L30 30L40 30L40 40L20 40L20 70L30 70L30 80L40 80L40 70L50 70L50 80L60 80L60 70L70 70L70 80L80 80L80 70L70 70L70 60L60 60L60 70L50 70L50 60L40 60L40 70L30 70L30 50L50 50L50 30L60 30L60 20L50 20L50 30L40 30L40 20L30 20M70 40L70 50L80 50L80 40L70 40z"/>
</svg>
