<?xml version="1.0" standalone="yes"?>
<svg xmlns="http://www.w3.org/2000/svg" width="100" height="100">
<path style="fill:#ffffff; stroke:none;" d="M0 0L0 100L100 100L100 0L0 0z"/>
<path style="fill:#000000; stroke:none;" d="M10 10L10 90L90 90L90 10L10 10z"/>
<path style="fill:#ffffff; stroke:none;" d="M20 20L20 30L30 30L30 40L20 40L20 80L50 80L50 70L60 70L60 80L80 80L80 70L60 70L60 60L80 60L80 50L60 50L60 40L80 40L80 20L70 20L70 30L50 30L50 20L40 20L40 30L30 30L30 20L20 20z"/>
<path style="fill:#000000; stroke:none;" d="M40 40L40 50L30 50L30 70L40 70L40 60L50 60L50 40L40 40z"/>
</svg>
