<?xml version="1.0" standalone="yes"?>
<svg xmlns="http://www.w3.org/2000/svg" width="100" height="100">
<path style="fill:#ffffff; stroke:none;" d="M0 0L0 100L100 100L100 0L0 0z"/>
<path style="fill:#000000; stroke:none;" d="M10 10L10 90L90 90L90 10L10 10z"/>
<path style="fill:#ffffff; stroke:none;" d="M50 20L50 30L20 30L20 50L40 50L40 80L50 80L50 70L60 70L60 80L70 80L70 70L60 70L60 40L70 40L70 60L80 60L80 40L70 40L70 20L50 20z"/>
<path style="fill:#000000; stroke:none;" d="M50 30L50 40L40 40L40 50L50 50L50 40L60 40L60 30L50 30z"/>
</svg>
