<?xml version="1.0" standalone="yes"?>
<svg xmlns="http://www.w3.org/2000/svg" width="100" height="100">
<path style="fill:#ffffff; stroke:none;" d="M0 0L0 100L100 100L100 0L0 0z"/>
<path style="fill:#000000; stroke:none;" d="M10 10L10 90L90 90L90 10L10 10z"/>
<path style="fill:#ffffff; stroke:none;" d="M50 20L50 40L40 40L40 30L30 30L30 40L20 40L20 60L80 60L80 50L70 50L70 40L80 40L80 20L70 20L70 30L60 30L60 20L50 20z"/>
<path style="fill:#000000; stroke:none;" d="M50 40L50 50L60 50L60 40L50 40z"/>
<path style="fill:#ffffff; stroke:none;" d="M20 70L20 80L30 80L30 70L20 70M40 70L40 80L50 80L50 70L40 70M60 70L60 80L70 80L70 70L60 70z"/>
</svg>
