<?xml version="1.0" standalone="yes"?>
<svg xmlns="http://www.w3.org/2000/svg" width="100" height="100">
<path style="fill:#ffffff; stroke:none;" d="M0 0L0 100L100 100L100 0L0 0z"/>
<path style="fill:#000000; stroke:none;" d="M10 10L10 90L90 90L90 10L10 10z"/>
<path style="fill:#ffffff; stroke:none;" d="M50 20L50 30L40 30L40 40L30 40L30 50L20 50L20 60L30 60L30 80L80 80L80 70L50 70L50 50L80 50L80 40L70 40L70 20L50 20z"/>
<path style="fill:#000000; stroke:none;" d="M50 30L50 40L40 40L40 50L30 50L30 60L40 60L40 50L50 50L50 40L60 40L60 30L50 30z"/>
</svg>
