<?xml version="1.0" standalone="yes"?>
<svg xmlns="http://www.w3.org/2000/svg" width="100" height="100">
<path style="fill:#ffffff; stroke:none;" d="M0 0L0 100L100 100L100 0L0 0z"/>
<path style="fill:#000000; stroke:none;" d="M10 10L10 90L90 90L90 10L10 10z"/>
<path style="fill:#ffffff; stroke:none;" d="M20 20L20 30L40 30L40 50L30 50L30 40L20 40L20 80L40 80L40 70L50 70L50 60L40 60L40 50L50 50L50 40L60 40L60 30L70 30L70 60L60 60L60 70L70 70L70 60L80 60L80 30L70 30L70 20L20 20z"/>
<path style="fill:#000000; stroke:none;" d="M30 60L30 70L40 70L40 60L30 60z"/>
</svg>
