<?xml version="1.0" standalone="yes"?>
<svg xmlns="http://www.w3.org/2000/svg" width="100" height="100">
<path style="fill:#ffffff; stroke:none;" d="M0 0L0 100L100 100L100 0L0 0z"/>
<path style="fill:#000000; stroke:none;" d="M10 10L10 90L90 90L90 10L10 10z"/>
<path style="fill:#ffffff; stroke:none;" d="M40 20L40 30L50 30L50 40L30 40L30 30L20 30L20 40L30 40L30 50L50 50L50 60L60 60L60 40L70 40L70 20L40 20M70 50L70 60L80 60L80 50L70 50M30 60L30 80L50 80L50 70L40 70L40 60L30 60M70 70L70 80L80 80L80 70L70 70z"/>
</svg>
