<?xml version="1.0" standalone="yes"?>
<svg xmlns="http://www.w3.org/2000/svg" width="100" height="100">
<path style="fill:#ffffff; stroke:none;" d="M0 0L0 100L100 100L100 0L0 0z"/>
<path style="fill:#000000; stroke:none;" d="M10 10L10 90L90 90L90 10L10 10z"/>
<path style="fill:#ffffff; stroke:none;" d="M30 20L30 50L50 50L50 60L60 60L60 70L70 70L70 80L80 80L80 70L70 70L70 40L80 40L80 30L60 30L60 20L50 20L50 30L40 30L40 20L30 20z"/>
<path style="fill:#000000; stroke:none;" d="M50 40L50 50L60 50L60 40L50 40z"/>
<path style="fill:#ffffff; stroke:none;" d="M20 60L20 70L30 70L30 60L20 60z"/>
</svg>
