<?xml version="1.0" standalone="yes"?>
<svg xmlns="http://www.w3.org/2000/svg" width="100" height="100">
<path style="fill:#ffffff; stroke:none;" d="M0 0L0 100L100 100L100 0L0 0z"/>
<path style="fill:#000000; stroke:none;" d="M10 10L10 90L90 90L90 10L10 10z"/>
<path style="fill:#ffffff; stroke:none;" d="M20 20L20 40L30 40L30 50L20 50L20 70L30 70L30 60L40 60L40 80L50 80L50 70L60 70L60 60L50 60L50 50L40 50L40 30L30 30L30 20L20 20M50 20L50 30L60 30L60 40L80 40L80 20L70 20L70 30L60 30L60 20L50 20M70 50L70 70L80 70L80 50L70 50z"/>
</svg>
