<?xml version="1.0" standalone="yes"?>
<svg xmlns="http://www.w3.org/2000/svg" width="100" height="100">
<path style="fill:#ffffff; stroke:none;" d="M0 0L0 100L100 100L100 0L0 0z"/>
<path style="fill:#000000; stroke:none;" d="M10 10L10 90L90 90L90 10L10 10z"/>
<path style="fill:#ffffff; stroke:none;" d="M20 20L20 30L50 30L50 50L40 50L40 60L50 60L50 50L70 50L70 60L60 60L60 70L40 70L40 80L80 80L80 50L70 50L70 40L80 40L80 30L70 30L70 20L20 20M20 40L20 50L30 50L30 40L20 40M20 60L20 70L30 70L30 60L20 60z"/>
</svg>
