<?xml version="1.0" standalone="yes"?>
<svg xmlns="http://www.w3.org/2000/svg" width="100" height="100">
<path style="fill:#ffffff; stroke:none;" d="M0 0L0 100L100 100L100 0L0 0z"/>
<path style="fill:#000000; stroke:none;" d="M10 10L10 90L90 90L90 10L10 10z"/>
<path style="fill:#ffffff; stroke:none;" d="M30 20L30 30L40 30L40 40L30 40L30 50L20 50L20 70L30 70L30 80L40 80L40 70L70 70L70 80L80 80L80 20L70 20L70 30L60 30L60 20L30 20z"/>
<path style="fill:#000000; stroke:none;" d="M50 30L50 50L30 50L30 70L40 70L40 60L50 60L50 50L60 50L60 60L70 60L70 50L60 50L60 30L50 30z"/>
</svg>
