<?xml version="1.0" standalone="yes"?>
<svg xmlns="http://www.w3.org/2000/svg" width="100" height="100">
<path style="fill:#ffffff; stroke:none;" d="M0 0L0 100L100 100L100 0L0 0z"/>
<path style="fill:#000000; stroke:none;" d="M10 10L10 90L90 90L90 10L10 10z"/>
<path style="fill:#ffffff; stroke:none;" d="M30 20L30 30L20 30L20 40L40 40L40 20L30 20M50 20L50 40L70 40L70 50L80 50L80 30L60 30L60 20L50 20M20 50L20 60L30 60L30 50L20 50M40 50L40 60L60 60L60 80L70 80L70 70L80 70L80 60L60 60L60 50L40 50M20 70L20 80L30 80L30 70L20 70z"/>
</svg>
