<?xml version="1.0" standalone="yes"?>
<svg xmlns="http://www.w3.org/2000/svg" width="100" height="100">
<path style="fill:#ffffff; stroke:none;" d="M0 0L0 100L100 100L100 0L0 0z"/>
<path style="fill:#000000; stroke:none;" d="M10 10L10 90L90 90L90 10L10 10z"/>
<path style="fill:#ffffff; stroke:none;" d="M20 20L20 30L30 30L30 20L20 20M50 30L50 40L60 40L60 60L70 60L70 50L80 50L80 40L60 40L60 30L50 30M20 40L20 50L30 50L30 60L20 60L20 70L30 70L30 80L40 80L40 70L50 70L50 80L60 80L60 70L50 70L50 50L30 50L30 40L20 40z"/>
<path style="fill:#000000; stroke:none;" d="M30 60L30 70L40 70L40 60L30 60z"/>
<path style="fill:#ffffff; stroke:none;" d="M70 70L70 80L80 80L80 70L70 70z"/>
</svg>
