<?xml version="1.0" standalone="yes"?>
<svg xmlns="http://www.w3.org/2000/svg" width="100" height="100">
<path style="fill:#ffffff; stroke:none;" d="M0 0L0 100L100 100L100 0L0 0z"/>
<path style="fill:#000000; stroke:none;" d="M10 10L10 90L90 90L90 10L10 10z"/>
<path style="fill:#ffffff; stroke:none;" d="M60 20L60 30L50 30L50 40L60 40L60 50L70 50L70 40L60 40L60 30L70 30L70 20L60 20M20 40L20 50L30 50L30 40L20 40M40 50L40 60L50 60L50 70L40 70L40 80L70 80L70 70L80 70L80 60L70 60L70 70L60 70L60 60L50 60L50 50L40 50M20 70L20 80L30 80L30 70L20 70z"/>
</svg>
