<?xml version="1.0" standalone="yes"?>
<svg xmlns="http://www.w3.org/2000/svg" width="100" height="100">
<path style="fill:#ffffff; stroke:none;" d="M0 0L0 100L100 100L100 0L0 0z"/>
<path style="fill:#000000; stroke:none;" d="M10 10L10 90L90 90L90 10L10 10z"/>
<path style="fill:#ffffff; stroke:none;" d="M30 20L30 30L40 30L40 20L30 20M60 20L60 30L50 30L50 40L40 40L40 50L60 50L60 60L70 60L70 50L80 50L80 30L70 30L70 20L60 20z"/>
<path style="fill:#000000; stroke:none;" d="M60 30L60 50L70 50L70 30L60 30z"/>
<path style="fill:#ffffff; stroke:none;" d="M30 60L30 70L20 70L20 80L60 80L60 70L40 70L40 60L30 60z"/>
</svg>
