<?xml version="1.0" standalone="yes"?>
<svg xmlns="http://www.w3.org/2000/svg" width="100" height="100">
<path style="fill:#ffffff; stroke:none;" d="M0 0L0 100L100 100L100 0L0 0z"/>
<path style="fill:#000000; stroke:none;" d="M10 10L10 90L90 90L90 10L10 10z"/>
<path style="fill:#ffffff; stroke:none;" d="M40 20L40 30L30 30L30 40L20 40L20 60L30 60L30 70L20 70L20 80L40 80L40 60L50 60L50 70L60 70L60 80L70 80L70 70L80 70L80 60L70 60L70 50L80 50L80 30L70 30L70 20L40 20z"/>
<path style="fill:#000000; stroke:none;" d="M50 30L50 50L70 50L70 40L60 40L60 30L50 30M60 60L60 70L70 70L70 60L60 60z"/>
</svg>
