<?xml version="1.0" standalone="yes"?>
<svg xmlns="http://www.w3.org/2000/svg" width="100" height="100">
<path style="fill:#ffffff; stroke:none;" d="M0 0L0 100L100 100L100 0L0 0z"/>
<path style="fill:#000000; stroke:none;" d="M10 10L10 90L90 90L90 10L10 10z"/>
<path style="fill:#ffffff; stroke:none;" d="M70 20L70 30L40 30L40 40L60 40L60 50L50 50L50 80L60 80L60 70L70 70L70 60L80 60L80 50L70 50L70 40L80 40L80 20L70 20M20 30L20 70L30 70L30 80L40 80L40 60L30 60L30 30L20 30z"/>
<path style="fill:#000000; stroke:none;" d="M60 50L60 60L70 60L70 50L60 50z"/>
</svg>
