<?xml version="1.0" standalone="yes"?>
<svg xmlns="http://www.w3.org/2000/svg" width="100" height="100">
<path style="fill:#ffffff; stroke:none;" d="M0 0L0 100L100 100L100 0L0 0z"/>
<path style="fill:#000000; stroke:none;" d="M10 10L10 90L90 90L90 10L10 10z"/>
<path style="fill:#ffffff; stroke:none;" d="M30 20L30 30L20 30L20 60L30 60L30 70L20 70L20 80L40 80L40 70L50 70L50 80L60 80L60 70L50 70L50 60L70 60L70 80L80 80L80 50L70 50L70 40L80 40L80 20L30 20z"/>
<path style="fill:#000000; stroke:none;" d="M30 30L30 40L40 40L40 30L30 30M50 30L50 50L60 50L60 40L70 40L70 30L50 30z"/>
</svg>
