<?xml version="1.0" standalone="yes"?>
<svg xmlns="http://www.w3.org/2000/svg" width="100" height="100">
<path style="fill:#ffffff; stroke:none;" d="M0 0L0 100L100 100L100 0L0 0z"/>
<path style="fill:#000000; stroke:none;" d="M10 10L10 90L90 90L90 10L10 10z"/>
<path style="fill:#ffffff; stroke:none;" d="M50 20L50 30L40 30L40 50L30 50L30 60L20 60L20 80L30 80L30 70L50 70L50 60L70 60L70 70L80 70L80 60L70 60L70 40L80 40L80 30L70 30L70 20L50 20M20 30L20 40L30 40L30 30L20 30z"/>
<path style="fill:#000000; stroke:none;" d="M50 30L50 50L60 50L60 30L50 30z"/>
</svg>
