<?xml version="1.0" standalone="yes"?>
<svg xmlns="http://www.w3.org/2000/svg" width="100" height="100">
<path style="fill:#ffffff; stroke:none;" d="M0 0L0 100L100 100L100 0L0 0z"/>
<path style="fill:#000000; stroke:none;" d="M10 10L10 90L90 90L90 10L10 10z"/>
<path style="fill:#ffffff; stroke:none;" d="M50 20L50 30L60 30L60 20L50 20M70 20L70 30L80 30L80 20L70 20M30 30L30 50L20 50L20 80L30 80L30 60L40 60L40 80L80 80L80 60L60 60L60 50L70 50L70 40L60 40L60 50L50 50L50 40L40 40L40 30L30 30z"/>
<path style="fill:#000000; stroke:none;" d="M50 60L50 70L60 70L60 60L50 60z"/>
</svg>
