<?xml version="1.0" standalone="yes"?>
<svg xmlns="http://www.w3.org/2000/svg" width="100" height="100">
<path style="fill:#ffffff; stroke:none;" d="M0 0L0 100L100 100L100 0L0 0z"/>
<path style="fill:#000000; stroke:none;" d="M10 10L10 90L90 90L90 10L10 10z"/>
<path style="fill:#ffffff; stroke:none;" d="M20 20L20 50L30 50L30 60L20 60L20 80L40 80L40 60L50 60L50 70L60 70L60 80L70 80L70 70L80 70L80 60L70 60L70 70L60 70L60 60L50 60L50 50L60 50L60 40L80 40L80 30L60 30L60 20L50 20L50 30L40 30L40 20L20 20z"/>
<path style="fill:#000000; stroke:none;" d="M30 30L30 50L50 50L50 40L40 40L40 30L30 30z"/>
</svg>
