<?xml version="1.0" standalone="yes"?>
<svg xmlns="http://www.w3.org/2000/svg" width="100" height="100">
<path style="fill:#ffffff; stroke:none;" d="M0 0L0 100L100 100L100 0L0 0z"/>
<path style="fill:#000000; stroke:none;" d="M10 10L10 90L90 90L90 10L10 10z"/>
<path style="fill:#ffffff; stroke:none;" d="M30 20L30 30L20 30L20 80L30 80L30 50L40 50L40 60L50 60L50 70L40 70L40 80L60 80L60 70L70 70L70 80L80 80L80 50L70 50L70 40L60 40L60 30L80 30L80 20L50 20L50 30L40 30L40 20L30 20z"/>
<path style="fill:#000000; stroke:none;" d="M30 30L30 40L40 40L40 30L30 30M50 40L50 50L60 50L60 40L50 40z"/>
</svg>
