<?xml version="1.0" standalone="yes"?>
<svg xmlns="http://www.w3.org/2000/svg" width="100" height="100">
<path style="fill:#ffffff; stroke:none;" d="M0 0L0 100L100 100L100 0L0 0z"/>
<path style="fill:#000000; stroke:none;" d="M10 10L10 90L90 90L90 10L10 10z"/>
<path style="fill:#ffffff; stroke:none;" d="M70 20L70 50L60 50L60 40L50 40L50 30L20 30L20 40L30 40L30 50L20 50L20 80L30 80L30 70L40 70L40 80L60 80L60 70L70 70L70 50L80 50L80 20L70 20z"/>
<path style="fill:#000000; stroke:none;" d="M40 50L40 60L50 60L50 70L60 70L60 60L50 60L50 50L40 50z"/>
</svg>
