<?xml version="1.0" standalone="yes"?>
<svg xmlns="http://www.w3.org/2000/svg" width="100" height="100">
<path style="fill:#ffffff; stroke:none;" d="M0 0L0 100L100 100L100 0L0 0z"/>
<path style="fill:#000000; stroke:none;" d="M10 10L10 90L90 90L90 10L10 10z"/>
<path style="fill:#ffffff; stroke:none;" d="M30 20L30 30L40 30L40 40L30 40L30 50L20 50L20 60L30 60L30 80L40 80L40 40L50 40L50 50L60 50L60 40L70 40L70 50L80 50L80 40L70 40L70 30L80 30L80 20L60 20L60 30L40 30L40 20L30 20M60 60L60 70L80 70L80 60L60 60z"/>
</svg>
