<?xml version="1.0" standalone="yes"?>
<svg xmlns="http://www.w3.org/2000/svg" width="100" height="100">
<path style="fill:#ffffff; stroke:none;" d="M0 0L0 100L100 100L100 0L0 0z"/>
<path style="fill:#000000; stroke:none;" d="M10 10L10 90L90 90L90 10L10 10z"/>
<path style="fill:#ffffff; stroke:none;" d="M20 20L20 40L40 40L40 30L50 30L50 20L20 20M70 20L70 30L60 30L60 40L70 40L70 30L80 30L80 20L70 20M20 50L20 60L30 60L30 70L40 70L40 50L20 50M60 50L60 60L50 60L50 80L80 80L80 50L60 50z"/>
<path style="fill:#000000; stroke:none;" d="M60 60L60 70L70 70L70 60L60 60z"/>
</svg>
