<?xml version="1.0" standalone="yes"?>
<svg xmlns="http://www.w3.org/2000/svg" width="100" height="100">
<path style="fill:#ffffff; stroke:none;" d="M0 0L0 100L100 100L100 0L0 0z"/>
<path style="fill:#000000; stroke:none;" d="M10 10L10 90L90 90L90 10L10 10z"/>
<path style="fill:#ffffff; stroke:none;" d="M20 20L20 30L40 30L40 40L20 40L20 50L30 50L30 80L40 80L40 60L60 60L60 30L50 30L50 20L20 20M70 20L70 50L80 50L80 20L70 20z"/>
<path style="fill:#000000; stroke:none;" d="M40 40L40 50L50 50L50 40L40 40z"/>
<path style="fill:#ffffff; stroke:none;" d="M70 60L70 70L80 70L80 60L70 60M50 70L50 80L60 80L60 70L50 70z"/>
</svg>
