<?xml version="1.0" standalone="yes"?>
<svg xmlns="http://www.w3.org/2000/svg" width="100" height="100">
<path style="fill:#ffffff; stroke:none;" d="M0 0L0 100L100 100L100 0L0 0z"/>
<path style="fill:#000000; stroke:none;" d="M10 10L10 90L90 90L90 10L10 10z"/>
<path style="fill:#ffffff; stroke:none;" d="M30 20L30 30L20 30L20 60L30 60L30 80L60 80L60 60L70 60L70 70L80 70L80 60L70 60L70 50L60 50L60 30L70 30L70 40L80 40L80 30L70 30L70 20L30 20z"/>
<path style="fill:#000000; stroke:none;" d="M40 30L40 40L50 40L50 30L40 30M30 50L30 60L40 60L40 70L50 70L50 50L30 50z"/>
</svg>
