<?xml version="1.0" standalone="yes"?>
<svg xmlns="http://www.w3.org/2000/svg" width="100" height="100">
<path style="fill:#ffffff; stroke:none;" d="M0 0L0 100L100 100L100 0L0 0z"/>
<path style="fill:#000000; stroke:none;" d="M10 10L10 90L90 90L90 10L10 10z"/>
<path style="fill:#ffffff; stroke:none;" d="M30 20L30 30L40 30L40 40L50 40L50 50L40 50L40 60L30 60L30 50L20 50L20 60L30 60L30 70L20 70L20 80L30 80L30 70L50 70L50 80L60 80L60 70L70 70L70 50L80 50L80 20L50 20L50 30L40 30L40 20L30 20z"/>
<path style="fill:#000000; stroke:none;" d="M50 30L50 40L60 40L60 50L70 50L70 30L50 30M50 60L50 70L60 70L60 60L50 60z"/>
</svg>
