<?xml version="1.0" standalone="yes"?>
<svg xmlns="http://www.w3.org/2000/svg" width="100" height="100">
<path style="fill:#ffffff; stroke:none;" d="M0 0L0 100L100 100L100 0L0 0z"/>
<path style="fill:#000000; stroke:none;" d="M10 10L10 90L90 90L90 10L10 10z"/>
<path style="fill:#ffffff; stroke:none;" d="M40 20L40 40L30 40L30 30L20 30L20 40L30 40L30 50L20 50L20 80L30 80L30 70L40 70L40 80L80 80L80 50L50 50L50 40L60 40L60 20L40 20M70 30L70 40L80 40L80 30L70 30z"/>
<path style="fill:#000000; stroke:none;" d="M30 50L30 60L50 60L50 50L30 50z"/>
</svg>
