<?xml version="1.0" standalone="yes"?>
<svg xmlns="http://www.w3.org/2000/svg" width="100" height="100">
<path style="fill:#000000; stroke:none;" d="M0 0L0 20L10 20L10 30L0 30L0 70L10 70L10 100L20 100L20 90L90 90L90 60L100 60L100 50L90 50L90 30L100 30L100 0L60 0L60 10L50 10L50 0L40 0L40 10L10 10L10 0L0 0z"/>
<path style="fill:#ffffff; stroke:none;" d="M10 0L10 10L40 10L40 0L10 0M50 0L50 10L60 10L60 0L50 0M0 20L0 30L10 30L10 20L0 20M20 20L20 80L80 80L80 20L20 20z"/>
<path style="fill:#000000; stroke:none;" d="M30 30L30 40L50 40L50 60L60 60L60 70L70 70L70 60L60 60L60 40L70 40L70 30L60 30L60 40L50 40L50 30L30 30z"/>
<path style="fill:#ffffff; stroke:none;" d="M90 30L90 50L100 50L100 30L90 30z"/>
<path style="fill:#000000; stroke:none;" d="M30 50L30 70L40 70L40 50L30 50z"/>
<path style="fill:#ffffff; stroke:none;" d="M90 60L90 90L20 90L20 100L100 100L100 60L90 60M0 70L0 100L10 100L10 70L0 70z"/>
</svg>
