<?xml version="1.0" standalone="yes"?>
<svg xmlns="http://www.w3.org/2000/svg" width="100" height="100">
<path style="fill:#ffffff; stroke:none;" d="M0 0L0 10L10 10L10 0L0 0z"/>
<path style="fill:#000000; stroke:none;" d="M10 0L10 10L0 10L0 50L10 50L10 60L0 60L0 70L10 70L10 80L0 80L0 90L40 90L40 100L50 100L50 90L60 90L60 100L90 100L90 90L100 90L100 70L90 70L90 50L100 50L100 0L40 0L40 10L30 10L30 0L10 0z"/>
<path style="fill:#ffffff; stroke:none;" d="M30 0L30 10L40 10L40 0L30 0M20 20L20 80L80 80L80 20L20 20z"/>
<path style="fill:#000000; stroke:none;" d="M30 30L30 50L40 50L40 60L30 60L30 70L70 70L70 60L50 60L50 50L70 50L70 40L50 40L50 30L30 30z"/>
<path style="fill:#ffffff; stroke:none;" d="M0 50L0 60L10 60L10 50L0 50M90 50L90 70L100 70L100 50L90 50M0 70L0 80L10 80L10 70L0 70M0 90L0 100L40 100L40 90L0 90M50 90L50 100L60 100L60 90L50 90M90 90L90 100L100 100L100 90L90 90z"/>
</svg>
