<?xml version="1.0" standalone="yes"?>
<svg xmlns="http://www.w3.org/2000/svg" width="100" height="100">
<path style="fill:#000000; stroke:none;" d="M0 0L0 20L10 20L10 90L30 90L30 100L40 100L40 90L50 90L50 100L70 100L70 90L90 90L90 20L100 20L100 0L80 0L80 10L60 10L60 0L20 0L20 10L10 10L10 0L0 0z"/>
<path style="fill:#ffffff; stroke:none;" d="M10 0L10 10L20 10L20 0L10 0M60 0L60 10L80 10L80 0L60 0M0 20L0 100L30 100L30 90L10 90L10 20L0 20M20 20L20 80L80 80L80 20L20 20M90 20L90 90L70 90L70 100L100 100L100 20L90 20z"/>
<path style="fill:#000000; stroke:none;" d="M40 40L40 50L50 50L50 60L60 60L60 70L70 70L70 60L60 60L60 50L70 50L70 40L40 40M30 60L30 70L40 70L40 60L30 60z"/>
<path style="fill:#ffffff; stroke:none;" d="M40 90L40 100L50 100L50 90L40 90z"/>
</svg>
