<?xml version="1.0" standalone="yes"?>
<svg xmlns="http://www.w3.org/2000/svg" width="100" height="100">
<path style="fill:#ffffff; stroke:none;" d="M0 0L0 10L20 10L20 0L0 0z"/>
<path style="fill:#000000; stroke:none;" d="M20 0L20 10L0 10L0 20L10 20L10 40L0 40L0 50L10 50L10 70L0 70L0 100L10 100L10 90L20 90L20 100L40 100L40 90L60 90L60 100L70 100L70 90L80 90L80 100L90 100L90 70L100 70L100 60L90 60L90 50L100 50L100 40L90 40L90 10L80 10L80 0L40 0L40 10L30 10L30 0L20 0z"/>
<path style="fill:#ffffff; stroke:none;" d="M30 0L30 10L40 10L40 0L30 0M80 0L80 10L90 10L90 40L100 40L100 0L80 0M0 20L0 40L10 40L10 20L0 20M20 20L20 80L80 80L80 20L20 20z"/>
<path style="fill:#000000; stroke:none;" d="M30 30L30 40L40 40L40 50L30 50L30 60L50 60L50 70L70 70L70 40L60 40L60 30L30 30z"/>
<path style="fill:#ffffff; stroke:none;" d="M0 50L0 70L10 70L10 50L0 50M50 50L50 60L60 60L60 50L50 50M90 50L90 60L100 60L100 50L90 50M90 70L90 100L100 100L100 70L90 70M10 90L10 100L20 100L20 90L10 90M40 90L40 100L60 100L60 90L40 90M70 90L70 100L80 100L80 90L70 90z"/>
</svg>
