<?xml version="1.0" standalone="yes"?>
<svg xmlns="http://www.w3.org/2000/svg" width="100" height="100">
<path style="fill:#000000; stroke:none;" d="M0 0L0 60L10 60L10 80L0 80L0 90L10 90L10 100L60 100L60 90L90 90L90 50L100 50L100 40L90 40L90 20L100 20L100 10L50 10L50 0L40 0L40 10L10 10L10 0L0 0z"/>
<path style="fill:#ffffff; stroke:none;" d="M10 0L10 10L40 10L40 0L10 0M50 0L50 10L100 10L100 0L50 0M20 20L20 80L80 80L80 20L20 20M90 20L90 40L100 40L100 20L90 20z"/>
<path style="fill:#000000; stroke:none;" d="M60 30L60 50L50 50L50 70L70 70L70 30L60 30M30 50L30 70L40 70L40 50L30 50z"/>
<path style="fill:#ffffff; stroke:none;" d="M90 50L90 90L60 90L60 100L100 100L100 50L90 50M0 60L0 80L10 80L10 60L0 60M0 90L0 100L10 100L10 90L0 90z"/>
</svg>
