<?xml version="1.0" standalone="yes"?>
<svg xmlns="http://www.w3.org/2000/svg" width="100" height="100">
<path style="fill:#000000; stroke:none;" d="M0 0L0 20L10 20L10 30L0 30L0 50L10 50L10 90L40 90L40 100L70 100L70 90L80 90L80 100L90 100L90 90L100 90L100 80L90 80L90 70L100 70L100 40L90 40L90 0L70 0L70 10L60 10L60 0L40 0L40 10L30 10L30 0L20 0L20 10L10 10L10 0L0 0z"/>
<path style="fill:#ffffff; stroke:none;" d="M10 0L10 10L20 10L20 0L10 0M30 0L30 10L40 10L40 0L30 0M60 0L60 10L70 10L70 0L60 0M90 0L90 40L100 40L100 0L90 0M0 20L0 30L10 30L10 20L0 20M20 20L20 80L80 80L80 20L20 20z"/>
<path style="fill:#000000; stroke:none;" d="M40 30L40 60L50 60L50 70L70 70L70 60L60 60L60 30L40 30z"/>
<path style="fill:#ffffff; stroke:none;" d="M0 50L0 100L40 100L40 90L10 90L10 50L0 50M90 70L90 80L100 80L100 70L90 70M70 90L70 100L80 100L80 90L70 90M90 90L90 100L100 100L100 90L90 90z"/>
</svg>
