<?xml version="1.0" standalone="yes"?>
<svg xmlns="http://www.w3.org/2000/svg" width="100" height="100">
<path style="fill:#ffffff; stroke:none;" d="M0 0L0 20L10 20L10 0L0 0z"/>
<path style="fill:#000000; stroke:none;" d="M10 0L10 20L0 20L0 60L10 60L10 70L0 70L0 90L10 90L10 100L40 100L40 90L70 90L70 100L90 100L90 80L100 80L100 70L90 70L90 60L100 60L100 50L90 50L90 20L100 20L100 10L70 10L70 0L10 0z"/>
<path style="fill:#ffffff; stroke:none;" d="M70 0L70 10L100 10L100 0L70 0M20 20L20 80L80 80L80 20L20 20M90 20L90 50L100 50L100 20L90 20z"/>
<path style="fill:#000000; stroke:none;" d="M30 30L30 70L40 70L40 50L50 50L50 40L60 40L60 30L30 30z"/>
<path style="fill:#ffffff; stroke:none;" d="M0 60L0 70L10 70L10 60L0 60z"/>
<path style="fill:#000000; stroke:none;" d="M60 60L60 70L70 70L70 60L60 60z"/>
<path style="fill:#ffffff; stroke:none;" d="M90 60L90 70L100 70L100 60L90 60M90 80L90 100L100 100L100 80L90 80M0 90L0 100L10 100L10 90L0 90M40 90L40 100L70 100L70 90L40 90z"/>
</svg>
