<?xml version="1.0" standalone="yes"?>
<svg xmlns="http://www.w3.org/2000/svg" width="100" height="100">
<path style="fill:#000000; stroke:none;" d="M0 0L0 20L10 20L10 40L0 40L0 100L10 100L10 90L80 90L80 100L100 100L100 80L90 80L90 70L100 70L100 60L90 60L90 10L100 10L100 0L80 0L80 10L70 10L70 0L40 0L40 10L30 10L30 0L0 0z"/>
<path style="fill:#ffffff; stroke:none;" d="M30 0L30 10L40 10L40 0L30 0M70 0L70 10L80 10L80 0L70 0M90 10L90 60L100 60L100 10L90 10M0 20L0 40L10 40L10 20L0 20M20 20L20 80L80 80L80 20L20 20z"/>
<path style="fill:#000000; stroke:none;" d="M40 30L40 40L50 40L50 30L40 30M60 40L60 50L40 50L40 60L30 60L30 70L40 70L40 60L50 60L50 70L70 70L70 60L60 60L60 50L70 50L70 40L60 40z"/>
<path style="fill:#ffffff; stroke:none;" d="M90 70L90 80L100 80L100 70L90 70M10 90L10 100L80 100L80 90L10 90z"/>
</svg>
