<?xml version="1.0" standalone="yes"?>
<svg xmlns="http://www.w3.org/2000/svg" width="100" height="100">
<path style="fill:#ffffff; stroke:none;" d="M0 0L0 60L10 60L10 10L50 10L50 0L0 0z"/>
<path style="fill:#000000; stroke:none;" d="M50 0L50 10L10 10L10 60L0 60L0 80L10 80L10 90L0 90L0 100L40 100L40 90L70 90L70 100L80 100L80 90L100 90L100 80L90 80L90 60L100 60L100 50L90 50L90 20L100 20L100 0L50 0z"/>
<path style="fill:#ffffff; stroke:none;" d="M20 20L20 80L80 80L80 20L20 20M90 20L90 50L100 50L100 20L90 20z"/>
<path style="fill:#000000; stroke:none;" d="M30 30L30 40L40 40L40 50L50 50L50 40L40 40L40 30L30 30M60 50L60 60L70 60L70 50L60 50M30 60L30 70L40 70L40 60L30 60z"/>
<path style="fill:#ffffff; stroke:none;" d="M90 60L90 80L100 80L100 60L90 60M0 80L0 90L10 90L10 80L0 80M40 90L40 100L70 100L70 90L40 90M80 90L80 100L100 100L100 90L80 90z"/>
</svg>
