<?xml version="1.0" standalone="yes"?>
<svg xmlns="http://www.w3.org/2000/svg" width="100" height="100">
<path style="fill:#ffffff; stroke:none;" d="M0 0L0 10L30 10L30 0L0 0z"/>
<path style="fill:#000000; stroke:none;" d="M30 0L30 10L0 10L0 30L10 30L10 40L0 40L0 60L10 60L10 80L0 80L0 90L10 90L10 100L40 100L40 90L60 90L60 100L70 100L70 90L90 90L90 70L100 70L100 50L90 50L90 20L100 20L100 10L80 10L80 0L70 0L70 10L40 10L40 0L30 0z"/>
<path style="fill:#ffffff; stroke:none;" d="M40 0L40 10L70 10L70 0L40 0M80 0L80 10L100 10L100 0L80 0M20 20L20 80L80 80L80 20L20 20M90 20L90 50L100 50L100 20L90 20M0 30L0 40L10 40L10 30L0 30z"/>
<path style="fill:#000000; stroke:none;" d="M30 30L30 70L50 70L50 50L60 50L60 60L70 60L70 40L50 40L50 30L30 30z"/>
<path style="fill:#ffffff; stroke:none;" d="M40 40L40 50L50 50L50 40L40 40M0 60L0 80L10 80L10 60L0 60M90 70L90 90L70 90L70 100L100 100L100 70L90 70M0 90L0 100L10 100L10 90L0 90M40 90L40 100L60 100L60 90L40 90z"/>
</svg>
