<?xml version="1.0" standalone="yes"?>
<svg xmlns="http://www.w3.org/2000/svg" width="100" height="100">
<path style="fill:#000000; stroke:none;" d="M0 0L0 10L10 10L10 40L0 40L0 70L10 70L10 90L0 90L0 100L10 100L10 90L20 90L20 100L30 100L30 90L40 90L40 100L50 100L50 90L60 90L60 100L70 100L70 90L80 90L80 100L100 100L100 90L90 90L90 80L100 80L100 10L70 10L70 0L30 0L30 10L10 10L10 0L0 0z"/>
<path style="fill:#ffffff; stroke:none;" d="M10 0L10 10L30 10L30 0L10 0M70 0L70 10L100 10L100 0L70 0M0 10L0 40L10 40L10 10L0 10M20 20L20 80L80 80L80 20L20 20z"/>
<path style="fill:#000000; stroke:none;" d="M30 30L30 40L40 40L40 30L30 30M50 30L50 40L60 40L60 50L70 50L70 30L50 30M40 50L40 60L30 60L30 70L70 70L70 60L50 60L50 50L40 50z"/>
<path style="fill:#ffffff; stroke:none;" d="M0 70L0 90L10 90L10 70L0 70M90 80L90 90L100 90L100 80L90 80M10 90L10 100L20 100L20 90L10 90M30 90L30 100L40 100L40 90L30 90M50 90L50 100L60 100L60 90L50 90M70 90L70 100L80 100L80 90L70 90z"/>
</svg>
