<?xml version="1.0" standalone="yes"?>
<svg xmlns="http://www.w3.org/2000/svg" width="100" height="100">
<path style="fill:#ffffff; stroke:none;" d="M0 0L0 30L10 30L10 0L0 0z"/>
<path style="fill:#000000; stroke:none;" d="M10 0L10 30L0 30L0 40L10 40L10 50L0 50L0 100L10 100L10 90L30 90L30 100L90 100L90 90L100 90L100 60L90 60L90 30L100 30L100 20L90 20L90 0L80 0L80 10L60 10L60 0L50 0L50 10L20 10L20 0L10 0z"/>
<path style="fill:#ffffff; stroke:none;" d="M20 0L20 10L50 10L50 0L20 0M60 0L60 10L80 10L80 0L60 0M90 0L90 20L100 20L100 0L90 0M20 20L20 80L80 80L80 20L20 20z"/>
<path style="fill:#000000; stroke:none;" d="M30 30L30 40L40 40L40 50L30 50L30 60L40 60L40 50L50 50L50 70L70 70L70 60L60 60L60 50L70 50L70 40L60 40L60 30L50 30L50 40L40 40L40 30L30 30z"/>
<path style="fill:#ffffff; stroke:none;" d="M90 30L90 60L100 60L100 30L90 30M0 40L0 50L10 50L10 40L0 40M50 40L50 50L60 50L60 40L50 40M10 90L10 100L30 100L30 90L10 90M90 90L90 100L100 100L100 90L90 90z"/>
</svg>
