<?xml version="1.0" standalone="yes"?>
<svg xmlns="http://www.w3.org/2000/svg" width="100" height="100">
<path style="fill:#ffffff; stroke:none;" d="M0 0L0 10L30 10L30 0L0 0z"/>
<path style="fill:#000000; stroke:none;" d="M30 0L30 10L0 10L0 20L10 20L10 80L0 80L0 100L10 100L10 90L30 90L30 100L40 100L40 90L70 90L70 100L100 100L100 80L90 80L90 60L100 60L100 50L90 50L90 30L100 30L100 0L50 0L50 10L40 10L40 0L30 0z"/>
<path style="fill:#ffffff; stroke:none;" d="M40 0L40 10L50 10L50 0L40 0M0 20L0 80L10 80L10 20L0 20M20 20L20 80L80 80L80 20L20 20z"/>
<path style="fill:#000000; stroke:none;" d="M30 30L30 70L40 70L40 30L30 30M50 30L50 40L60 40L60 50L50 50L50 70L60 70L60 60L70 60L70 30L50 30z"/>
<path style="fill:#ffffff; stroke:none;" d="M90 30L90 50L100 50L100 30L90 30M90 60L90 80L100 80L100 60L90 60M10 90L10 100L30 100L30 90L10 90M40 90L40 100L70 100L70 90L40 90z"/>
</svg>
