<?xml version="1.0" standalone="yes"?>
<svg xmlns="http://www.w3.org/2000/svg" width="100" height="100">
<path style="fill:#000000; stroke:none;" d="M0 0L0 40L10 40L10 50L0 50L0 90L20 90L20 100L30 100L30 90L50 90L50 100L60 100L60 90L70 90L70 100L80 100L80 90L100 90L100 60L90 60L90 50L100 50L100 30L90 30L90 0L80 0L80 10L50 10L50 0L40 0L40 10L10 10L10 0L0 0z"/>
<path style="fill:#ffffff; stroke:none;" d="M10 0L10 10L40 10L40 0L10 0M50 0L50 10L80 10L80 0L50 0M90 0L90 30L100 30L100 0L90 0M20 20L20 80L80 80L80 20L20 20z"/>
<path style="fill:#000000; stroke:none;" d="M30 30L30 60L40 60L40 70L70 70L70 30L30 30z"/>
<path style="fill:#ffffff; stroke:none;" d="M0 40L0 50L10 50L10 40L0 40M40 40L40 60L60 60L60 40L40 40M90 50L90 60L100 60L100 50L90 50M0 90L0 100L20 100L20 90L0 90M30 90L30 100L50 100L50 90L30 90M60 90L60 100L70 100L70 90L60 90M80 90L80 100L100 100L100 90L80 90z"/>
</svg>
