<?xml version="1.0" standalone="yes"?>
<svg xmlns="http://www.w3.org/2000/svg" width="100" height="100">
<path style="fill:#000000; stroke:none;" d="M0 0L0 20L10 20L10 30L0 30L0 70L10 70L10 80L0 80L0 100L10 100L10 90L40 90L40 100L90 100L90 90L100 90L100 60L90 60L90 50L100 50L100 30L90 30L90 10L100 10L100 0L90 0L90 10L70 10L70 0L50 0L50 10L10 10L10 0L0 0z"/>
<path style="fill:#ffffff; stroke:none;" d="M10 0L10 10L50 10L50 0L10 0M70 0L70 10L90 10L90 0L70 0M90 10L90 30L100 30L100 10L90 10M0 20L0 30L10 30L10 20L0 20M20 20L20 80L80 80L80 20L20 20z"/>
<path style="fill:#000000; stroke:none;" d="M40 30L40 40L50 40L50 60L40 60L40 70L50 70L50 60L70 60L70 50L60 50L60 40L70 40L70 30L60 30L60 40L50 40L50 30L40 30z"/>
<path style="fill:#ffffff; stroke:none;" d="M90 50L90 60L100 60L100 50L90 50M0 70L0 80L10 80L10 70L0 70M10 90L10 100L40 100L40 90L10 90M90 90L90 100L100 100L100 90L90 90z"/>
</svg>
