<?xml version="1.0" standalone="yes"?>
<svg xmlns="http://www.w3.org/2000/svg" width="100" height="100">
<path style="fill:#000000; stroke:none;" d="M0 0L0 20L10 20L10 70L0 70L0 80L10 80L10 90L30 90L30 100L50 100L50 90L80 90L80 100L90 100L90 90L100 90L100 80L90 80L90 20L100 20L100 10L90 10L90 0L60 0L60 10L40 10L40 0L30 0L30 10L10 10L10 0L0 0z"/>
<path style="fill:#ffffff; stroke:none;" d="M10 0L10 10L30 10L30 0L10 0M40 0L40 10L60 10L60 0L40 0M90 0L90 10L100 10L100 0L90 0M0 20L0 70L10 70L10 20L0 20M20 20L20 80L80 80L80 20L20 20M90 20L90 80L100 80L100 20L90 20z"/>
<path style="fill:#000000; stroke:none;" d="M40 30L40 50L30 50L30 70L40 70L40 50L50 50L50 40L70 40L70 30L40 30M50 60L50 70L60 70L60 60L50 60z"/>
<path style="fill:#ffffff; stroke:none;" d="M0 80L0 100L30 100L30 90L10 90L10 80L0 80M50 90L50 100L80 100L80 90L50 90M90 90L90 100L100 100L100 90L90 90z"/>
</svg>
