<?xml version="1.0" standalone="yes"?>
<svg xmlns="http://www.w3.org/2000/svg" width="100" height="100">
<path style="fill:#000000; stroke:none;" d="M0 0L0 10L10 10L10 70L0 70L0 80L10 80L10 90L20 90L20 100L40 100L40 90L50 90L50 100L60 100L60 90L70 90L70 100L100 100L100 60L90 60L90 30L100 30L100 0L90 0L90 10L70 10L70 0L20 0L20 10L10 10L10 0L0 0z"/>
<path style="fill:#ffffff; stroke:none;" d="M10 0L10 10L20 10L20 0L10 0M70 0L70 10L90 10L90 0L70 0M0 10L0 70L10 70L10 10L0 10M20 20L20 80L80 80L80 20L20 20z"/>
<path style="fill:#000000; stroke:none;" d="M40 30L40 40L30 40L30 50L40 50L40 60L30 60L30 70L60 70L60 40L70 40L70 30L40 30z"/>
<path style="fill:#ffffff; stroke:none;" d="M90 30L90 60L100 60L100 30L90 30M0 80L0 100L20 100L20 90L10 90L10 80L0 80M40 90L40 100L50 100L50 90L40 90M60 90L60 100L70 100L70 90L60 90z"/>
</svg>
