<?xml version="1.0" standalone="yes"?>
<svg xmlns="http://www.w3.org/2000/svg" width="100" height="100">
<path style="fill:#ffffff; stroke:none;" d="M0 0L0 10L40 10L40 0L0 0z"/>
<path style="fill:#000000; stroke:none;" d="M40 0L40 10L0 10L0 40L10 40L10 50L0 50L0 60L10 60L10 70L0 70L0 100L10 100L10 90L20 90L20 100L40 100L40 90L60 90L60 100L90 100L90 90L100 90L100 70L90 70L90 60L100 60L100 10L90 10L90 0L40 0z"/>
<path style="fill:#ffffff; stroke:none;" d="M90 0L90 10L100 10L100 0L90 0M20 20L20 80L80 80L80 20L20 20z"/>
<path style="fill:#000000; stroke:none;" d="M40 30L40 40L60 40L60 50L30 50L30 70L40 70L40 60L70 60L70 40L60 40L60 30L40 30z"/>
<path style="fill:#ffffff; stroke:none;" d="M0 40L0 50L10 50L10 40L0 40M0 60L0 70L10 70L10 60L0 60M90 60L90 70L100 70L100 60L90 60M10 90L10 100L20 100L20 90L10 90M40 90L40 100L60 100L60 90L40 90M90 90L90 100L100 100L100 90L90 90z"/>
</svg>
