<?xml version="1.0" standalone="yes"?>
<svg xmlns="http://www.w3.org/2000/svg" width="100" height="100">
<path style="fill:#ffffff; stroke:none;" d="M0 0L0 10L10 10L10 0L0 0z"/>
<path style="fill:#000000; stroke:none;" d="M10 0L10 10L0 10L0 20L10 20L10 30L0 30L0 50L10 50L10 70L0 70L0 90L10 90L10 100L40 100L40 90L80 90L80 100L90 100L90 90L100 90L100 60L90 60L90 50L100 50L100 30L90 30L90 20L100 20L100 0L80 0L80 10L70 10L70 0L60 0L60 10L40 10L40 0L30 0L30 10L20 10L20 0L10 0z"/>
<path style="fill:#ffffff; stroke:none;" d="M20 0L20 10L30 10L30 0L20 0M40 0L40 10L60 10L60 0L40 0M70 0L70 10L80 10L80 0L70 0M0 20L0 30L10 30L10 20L0 20M20 20L20 80L80 80L80 20L20 20M90 20L90 30L100 30L100 20L90 20z"/>
<path style="fill:#000000; stroke:none;" d="M40 30L40 40L30 40L30 70L60 70L60 50L70 50L70 40L60 40L60 50L40 50L40 40L50 40L50 30L40 30z"/>
<path style="fill:#ffffff; stroke:none;" d="M0 50L0 70L10 70L10 50L0 50M90 50L90 60L100 60L100 50L90 50M0 90L0 100L10 100L10 90L0 90M40 90L40 100L80 100L80 90L40 90M90 90L90 100L100 100L100 90L90 90z"/>
</svg>
