<?xml version="1.0" standalone="yes"?>
<svg xmlns="http://www.w3.org/2000/svg" width="100" height="100">
<path style="fill:#000000; stroke:none;" d="M0 0L0 10L10 10L10 20L0 20L0 40L10 40L10 60L0 60L0 80L10 80L10 100L30 100L30 90L40 90L40 100L70 100L70 90L80 90L80 100L100 100L100 90L90 90L90 80L100 80L100 60L90 60L90 10L100 10L100 0L70 0L70 10L50 10L50 0L40 0L40 10L30 10L30 0L20 0L20 10L10 10L10 0L0 0z"/>
<path style="fill:#ffffff; stroke:none;" d="M10 0L10 10L20 10L20 0L10 0M30 0L30 10L40 10L40 0L30 0M50 0L50 10L70 10L70 0L50 0M0 10L0 20L10 20L10 10L0 10M90 10L90 60L100 60L100 10L90 10M20 20L20 80L80 80L80 20L20 20z"/>
<path style="fill:#000000; stroke:none;" d="M40 30L40 40L30 40L30 70L40 70L40 60L50 60L50 70L60 70L60 60L50 60L50 50L60 50L60 40L70 40L70 30L40 30z"/>
<path style="fill:#ffffff; stroke:none;" d="M0 40L0 60L10 60L10 40L0 40M40 40L40 50L50 50L50 40L40 40M0 80L0 100L10 100L10 80L0 80M90 80L90 90L100 90L100 80L90 80M30 90L30 100L40 100L40 90L30 90M70 90L70 100L80 100L80 90L70 90z"/>
</svg>
