<?xml version="1.0" standalone="yes"?>
<svg xmlns="http://www.w3.org/2000/svg" width="100" height="100">
<path style="fill:#ffffff; stroke:none;" d="M0 0L0 30L10 30L10 0L0 0z"/>
<path style="fill:#000000; stroke:none;" d="M10 0L10 30L0 30L0 40L10 40L10 90L0 90L0 100L30 100L30 90L40 90L40 100L50 100L50 90L60 90L60 100L80 100L80 90L100 90L100 60L90 60L90 50L100 50L100 30L90 30L90 20L100 20L100 0L90 0L90 10L80 10L80 0L70 0L70 10L60 10L60 0L50 0L50 10L30 10L30 0L10 0z"/>
<path style="fill:#ffffff; stroke:none;" d="M30 0L30 10L50 10L50 0L30 0M60 0L60 10L70 10L70 0L60 0M80 0L80 10L90 10L90 0L80 0M20 20L20 80L80 80L80 20L20 20M90 20L90 30L100 30L100 20L90 20z"/>
<path style="fill:#000000; stroke:none;" d="M30 30L30 50L50 50L50 40L40 40L40 30L30 30M60 30L60 50L70 50L70 30L60 30z"/>
<path style="fill:#ffffff; stroke:none;" d="M0 40L0 90L10 90L10 40L0 40M90 50L90 60L100 60L100 50L90 50z"/>
<path style="fill:#000000; stroke:none;" d="M30 60L30 70L40 70L40 60L30 60M50 60L50 70L60 70L60 60L50 60z"/>
<path style="fill:#ffffff; stroke:none;" d="M30 90L30 100L40 100L40 90L30 90M50 90L50 100L60 100L60 90L50 90M80 90L80 100L100 100L100 90L80 90z"/>
</svg>
