<?xml version="1.0" standalone="yes"?>
<svg xmlns="http://www.w3.org/2000/svg" width="100" height="100">
<path style="fill:#000000; stroke:none;" d="M0 0L0 10L10 10L10 30L0 30L0 40L10 40L10 70L0 70L0 90L40 90L40 100L50 100L50 90L60 90L60 100L90 100L90 90L100 90L100 80L90 80L90 70L100 70L100 10L90 10L90 0L80 0L80 10L60 10L60 0L30 0L30 10L20 10L20 0L0 0z"/>
<path style="fill:#ffffff; stroke:none;" d="M20 0L20 10L30 10L30 0L20 0M60 0L60 10L80 10L80 0L60 0M90 0L90 10L100 10L100 0L90 0M0 10L0 30L10 30L10 10L0 10M20 20L20 80L80 80L80 20L20 20z"/>
<path style="fill:#000000; stroke:none;" d="M60 30L60 40L50 40L50 50L40 50L40 60L30 60L30 70L40 70L40 60L70 60L70 50L60 50L60 40L70 40L70 30L60 30z"/>
<path style="fill:#ffffff; stroke:none;" d="M0 40L0 70L10 70L10 40L0 40M90 70L90 80L100 80L100 70L90 70M0 90L0 100L40 100L40 90L0 90M50 90L50 100L60 100L60 90L50 90M90 90L90 100L100 100L100 90L90 90z"/>
</svg>
