<?xml version="1.0" standalone="yes"?>
<svg xmlns="http://www.w3.org/2000/svg" width="100" height="100">
<path style="fill:#ffffff; stroke:none;" d="M0 0L0 10L40 10L40 0L0 0z"/>
<path style="fill:#000000; stroke:none;" d="M40 0L40 10L0 10L0 20L10 20L10 30L0 30L0 50L10 50L10 60L0 60L0 70L10 70L10 80L0 80L0 100L20 100L20 90L40 90L40 100L80 100L80 90L100 90L100 80L90 80L90 60L100 60L100 20L90 20L90 10L80 10L80 0L60 0L60 10L50 10L50 0L40 0z"/>
<path style="fill:#ffffff; stroke:none;" d="M50 0L50 10L60 10L60 0L50 0M80 0L80 10L90 10L90 20L100 20L100 0L80 0M0 20L0 30L10 30L10 20L0 20M20 20L20 80L80 80L80 20L20 20z"/>
<path style="fill:#000000; stroke:none;" d="M60 30L60 50L70 50L70 30L60 30M30 40L30 60L40 60L40 70L50 70L50 50L40 50L40 40L30 40z"/>
<path style="fill:#ffffff; stroke:none;" d="M0 50L0 60L10 60L10 50L0 50z"/>
<path style="fill:#000000; stroke:none;" d="M60 60L60 70L70 70L70 60L60 60z"/>
<path style="fill:#ffffff; stroke:none;" d="M90 60L90 80L100 80L100 60L90 60M0 70L0 80L10 80L10 70L0 70M20 90L20 100L40 100L40 90L20 90M80 90L80 100L100 100L100 90L80 90z"/>
</svg>
