<?xml version="1.0" standalone="yes"?>
<svg xmlns="http://www.w3.org/2000/svg" width="100" height="100">
<path style="fill:#ffffff; stroke:none;" d="M0 0L0 10L10 10L10 0L0 0z"/>
<path style="fill:#000000; stroke:none;" d="M10 0L10 10L0 10L0 20L10 20L10 30L0 30L0 90L10 90L10 100L40 100L40 90L60 90L60 100L70 100L70 90L100 90L100 70L90 70L90 50L100 50L100 0L30 0L30 10L20 10L20 0L10 0z"/>
<path style="fill:#ffffff; stroke:none;" d="M20 0L20 10L30 10L30 0L20 0M0 20L0 30L10 30L10 20L0 20M20 20L20 80L80 80L80 20L20 20z"/>
<path style="fill:#000000; stroke:none;" d="M40 30L40 60L50 60L50 70L60 70L60 60L70 60L70 50L60 50L60 40L70 40L70 30L60 30L60 40L50 40L50 30L40 30z"/>
<path style="fill:#ffffff; stroke:none;" d="M50 50L50 60L60 60L60 50L50 50M90 50L90 70L100 70L100 50L90 50M0 90L0 100L10 100L10 90L0 90M40 90L40 100L60 100L60 90L40 90M70 90L70 100L100 100L100 90L70 90z"/>
</svg>
