<?xml version="1.0" standalone="yes"?>
<svg xmlns="http://www.w3.org/2000/svg" width="100" height="100">
<path style="fill:#000000; stroke:none;" d="M0 0L0 10L10 10L10 50L0 50L0 80L10 80L10 90L20 90L20 100L30 100L30 90L80 90L80 100L90 100L90 80L100 80L100 70L90 70L90 50L100 50L100 10L40 10L40 0L30 0L30 10L20 10L20 0L0 0z"/>
<path style="fill:#ffffff; stroke:none;" d="M20 0L20 10L30 10L30 0L20 0M40 0L40 10L100 10L100 0L40 0M0 10L0 50L10 50L10 10L0 10M20 20L20 80L80 80L80 20L20 20z"/>
<path style="fill:#000000; stroke:none;" d="M30 30L30 50L40 50L40 40L50 40L50 30L30 30M60 30L60 50L50 50L50 70L60 70L60 50L70 50L70 30L60 30z"/>
<path style="fill:#ffffff; stroke:none;" d="M90 50L90 70L100 70L100 50L90 50M0 80L0 100L20 100L20 90L10 90L10 80L0 80M90 80L90 100L100 100L100 80L90 80M30 90L30 100L80 100L80 90L30 90z"/>
</svg>
