<?xml version="1.0" standalone="yes"?>
<svg xmlns="http://www.w3.org/2000/svg" width="100" height="100">
<path style="fill:#000000; stroke:none;" d="M0 0L0 10L10 10L10 20L0 20L0 30L10 30L10 40L0 40L0 50L10 50L10 60L0 60L0 80L10 80L10 100L20 100L20 90L50 90L50 100L80 100L80 90L100 90L100 80L90 80L90 70L100 70L100 10L40 10L40 0L0 0z"/>
<path style="fill:#ffffff; stroke:none;" d="M40 0L40 10L100 10L100 0L40 0M0 10L0 20L10 20L10 10L0 10M20 20L20 80L80 80L80 20L20 20M0 30L0 40L10 40L10 30L0 30z"/>
<path style="fill:#000000; stroke:none;" d="M30 30L30 40L40 40L40 50L60 50L60 40L50 40L50 30L30 30z"/>
<path style="fill:#ffffff; stroke:none;" d="M0 50L0 60L10 60L10 50L0 50z"/>
<path style="fill:#000000; stroke:none;" d="M30 60L30 70L60 70L60 60L30 60z"/>
<path style="fill:#ffffff; stroke:none;" d="M90 70L90 80L100 80L100 70L90 70M0 80L0 100L10 100L10 80L0 80M20 90L20 100L50 100L50 90L20 90M80 90L80 100L100 100L100 90L80 90z"/>
</svg>
