<?xml version="1.0" standalone="yes"?>
<svg xmlns="http://www.w3.org/2000/svg" width="100" height="100">
<path style="fill:#ffffff; stroke:none;" d="M0 0L0 10L10 10L10 0L0 0z"/>
<path style="fill:#000000; stroke:none;" d="M10 0L10 10L0 10L0 60L10 60L10 80L0 80L0 100L50 100L50 90L90 90L90 100L100 100L100 90L90 90L90 80L100 80L100 70L90 70L90 10L100 10L100 0L90 0L90 10L60 10L60 0L10 0z"/>
<path style="fill:#ffffff; stroke:none;" d="M60 0L60 10L90 10L90 0L60 0M90 10L90 70L100 70L100 10L90 10M20 20L20 80L80 80L80 20L20 20z"/>
<path style="fill:#000000; stroke:none;" d="M30 30L30 60L40 60L40 40L50 40L50 50L70 50L70 40L50 40L50 30L30 30z"/>
<path style="fill:#ffffff; stroke:none;" d="M0 60L0 80L10 80L10 60L0 60z"/>
<path style="fill:#000000; stroke:none;" d="M50 60L50 70L60 70L60 60L50 60z"/>
<path style="fill:#ffffff; stroke:none;" d="M90 80L90 90L100 90L100 80L90 80M50 90L50 100L90 100L90 90L50 90z"/>
</svg>
