<?xml version="1.0" standalone="yes"?>
<svg xmlns="http://www.w3.org/2000/svg" width="100" height="100">
<path style="fill:#000000; stroke:none;" d="M0 0L0 30L10 30L10 40L0 40L0 80L10 80L10 90L0 90L0 100L30 100L30 90L40 90L40 100L60 100L60 90L70 90L70 100L90 100L90 90L100 90L100 60L90 60L90 50L100 50L100 20L90 20L90 0L80 0L80 10L50 10L50 0L0 0z"/>
<path style="fill:#ffffff; stroke:none;" d="M50 0L50 10L80 10L80 0L50 0M90 0L90 20L100 20L100 0L90 0M20 20L20 80L80 80L80 20L20 20M0 30L0 40L10 40L10 30L0 30z"/>
<path style="fill:#000000; stroke:none;" d="M40 30L40 40L70 40L70 30L40 30M40 50L40 60L30 60L30 70L50 70L50 50L40 50M60 50L60 70L70 70L70 50L60 50z"/>
<path style="fill:#ffffff; stroke:none;" d="M90 50L90 60L100 60L100 50L90 50M0 80L0 90L10 90L10 80L0 80M30 90L30 100L40 100L40 90L30 90M60 90L60 100L70 100L70 90L60 90M90 90L90 100L100 100L100 90L90 90z"/>
</svg>
