<?xml version="1.0" standalone="yes"?>
<svg xmlns="http://www.w3.org/2000/svg" width="100" height="100">
<path style="fill:#000000; stroke:none;" d="M0 0L0 10L10 10L10 60L0 60L0 100L20 100L20 90L30 90L30 100L40 100L40 90L50 90L50 100L70 100L70 90L80 90L80 100L100 100L100 50L90 50L90 10L80 10L80 0L0 0z"/>
<path style="fill:#ffffff; stroke:none;" d="M80 0L80 10L90 10L90 50L100 50L100 0L80 0M0 10L0 60L10 60L10 10L0 10M20 20L20 80L80 80L80 20L20 20z"/>
<path style="fill:#000000; stroke:none;" d="M30 30L30 40L40 40L40 50L50 50L50 70L60 70L60 60L70 60L70 50L60 50L60 40L70 40L70 30L50 30L50 40L40 40L40 30L30 30z"/>
<path style="fill:#ffffff; stroke:none;" d="M20 90L20 100L30 100L30 90L20 90M40 90L40 100L50 100L50 90L40 90M70 90L70 100L80 100L80 90L70 90z"/>
</svg>
