<?xml version="1.0" standalone="yes"?>
<svg xmlns="http://www.w3.org/2000/svg" width="100" height="100">
<path style="fill:#ffffff; stroke:none;" d="M0 0L0 10L10 10L10 0L0 0z"/>
<path style="fill:#000000; stroke:none;" d="M10 0L10 10L0 10L0 20L10 20L10 30L0 30L0 40L10 40L10 100L40 100L40 90L100 90L100 70L90 70L90 60L100 60L100 50L90 50L90 10L80 10L80 0L70 0L70 10L60 10L60 0L50 0L50 10L30 10L30 0L10 0z"/>
<path style="fill:#ffffff; stroke:none;" d="M30 0L30 10L50 10L50 0L30 0M60 0L60 10L70 10L70 0L60 0M80 0L80 10L90 10L90 50L100 50L100 0L80 0M0 20L0 30L10 30L10 20L0 20M20 20L20 80L80 80L80 20L20 20z"/>
<path style="fill:#000000; stroke:none;" d="M30 30L30 50L40 50L40 30L30 30z"/>
<path style="fill:#ffffff; stroke:none;" d="M0 40L0 100L10 100L10 40L0 40z"/>
<path style="fill:#000000; stroke:none;" d="M50 40L50 70L60 70L60 60L70 60L70 50L60 50L60 40L50 40M30 60L30 70L40 70L40 60L30 60z"/>
<path style="fill:#ffffff; stroke:none;" d="M90 60L90 70L100 70L100 60L90 60M40 90L40 100L100 100L100 90L40 90z"/>
</svg>
