<?xml version="1.0" standalone="yes"?>
<svg xmlns="http://www.w3.org/2000/svg" width="100" height="100">
<path style="fill:#ffffff; stroke:none;" d="M0 0L0 10L60 10L60 0L0 0z"/>
<path style="fill:#000000; stroke:none;" d="M60 0L60 10L0 10L0 20L10 20L10 80L0 80L0 100L10 100L10 90L30 90L30 100L40 100L40 90L80 90L80 100L90 100L90 80L100 80L100 70L90 70L90 60L100 60L100 50L90 50L90 40L100 40L100 20L90 20L90 10L80 10L80 0L60 0z"/>
<path style="fill:#ffffff; stroke:none;" d="M80 0L80 10L90 10L90 20L100 20L100 0L80 0M0 20L0 80L10 80L10 20L0 20M20 20L20 80L80 80L80 20L20 20z"/>
<path style="fill:#000000; stroke:none;" d="M40 30L40 40L50 40L50 70L70 70L70 30L60 30L60 40L50 40L50 30L40 30z"/>
<path style="fill:#ffffff; stroke:none;" d="M90 40L90 50L100 50L100 40L90 40M90 60L90 70L100 70L100 60L90 60M90 80L90 100L100 100L100 80L90 80M10 90L10 100L30 100L30 90L10 90M40 90L40 100L80 100L80 90L40 90z"/>
</svg>
