<?xml version="1.0" standalone="yes"?>
<svg xmlns="http://www.w3.org/2000/svg" width="100" height="100">
<path style="fill:#000000; stroke:none;" d="M0 0L0 10L10 10L10 40L0 40L0 60L10 60L10 70L0 70L0 80L10 80L10 90L20 90L20 100L70 100L70 90L80 90L80 100L90 100L90 90L100 90L100 60L90 60L90 50L100 50L100 20L90 20L90 10L70 10L70 0L30 0L30 10L10 10L10 0L0 0z"/>
<path style="fill:#ffffff; stroke:none;" d="M10 0L10 10L30 10L30 0L10 0M70 0L70 10L90 10L90 20L100 20L100 0L70 0M0 10L0 40L10 40L10 10L0 10M20 20L20 80L80 80L80 20L20 20z"/>
<path style="fill:#000000; stroke:none;" d="M30 30L30 50L40 50L40 30L30 30M60 30L60 40L70 40L70 30L60 30z"/>
<path style="fill:#ffffff; stroke:none;" d="M90 50L90 60L100 60L100 50L90 50M0 60L0 70L10 70L10 60L0 60z"/>
<path style="fill:#000000; stroke:none;" d="M30 60L30 70L50 70L50 60L30 60z"/>
<path style="fill:#ffffff; stroke:none;" d="M0 80L0 100L20 100L20 90L10 90L10 80L0 80M70 90L70 100L80 100L80 90L70 90M90 90L90 100L100 100L100 90L90 90z"/>
</svg>
