<?xml version="1.0" standalone="yes"?>
<svg xmlns="http://www.w3.org/2000/svg" width="100" height="100">
<path style="fill:#000000; stroke:none;" d="M0 0L0 10L10 10L10 40L0 40L0 50L10 50L10 90L0 90L0 100L30 100L30 90L40 90L40 100L60 100L60 90L80 90L80 100L100 100L100 90L90 90L90 60L100 60L100 30L90 30L90 10L70 10L70 0L60 0L60 10L50 10L50 0L40 0L40 10L10 10L10 0L0 0z"/>
<path style="fill:#ffffff; stroke:none;" d="M10 0L10 10L40 10L40 0L10 0M50 0L50 10L60 10L60 0L50 0M70 0L70 10L90 10L90 30L100 30L100 0L70 0M0 10L0 40L10 40L10 10L0 10M20 20L20 80L80 80L80 20L20 20z"/>
<path style="fill:#000000; stroke:none;" d="M60 30L60 50L70 50L70 30L60 30M30 40L30 50L40 50L40 70L50 70L50 50L40 50L40 40L30 40z"/>
<path style="fill:#ffffff; stroke:none;" d="M0 50L0 90L10 90L10 50L0 50M90 60L90 90L100 90L100 60L90 60M30 90L30 100L40 100L40 90L30 90M60 90L60 100L80 100L80 90L60 90z"/>
</svg>
