<?xml version="1.0" standalone="yes"?>
<svg xmlns="http://www.w3.org/2000/svg" width="100" height="100">
<path style="fill:#000000; stroke:none;" d="M0 0L0 10L10 10L10 60L0 60L0 80L10 80L10 90L60 90L60 100L100 100L100 80L90 80L90 70L100 70L100 50L90 50L90 20L100 20L100 10L40 10L40 0L20 0L20 10L10 10L10 0L0 0z"/>
<path style="fill:#ffffff; stroke:none;" d="M10 0L10 10L20 10L20 0L10 0M40 0L40 10L100 10L100 0L40 0M0 10L0 60L10 60L10 10L0 10M20 20L20 80L80 80L80 20L20 20M90 20L90 50L100 50L100 20L90 20z"/>
<path style="fill:#000000; stroke:none;" d="M60 30L60 40L50 40L50 50L30 50L30 70L40 70L40 60L50 60L50 50L60 50L60 40L70 40L70 30L60 30M60 60L60 70L70 70L70 60L60 60z"/>
<path style="fill:#ffffff; stroke:none;" d="M90 70L90 80L100 80L100 70L90 70M0 80L0 100L60 100L60 90L10 90L10 80L0 80z"/>
</svg>
