<?xml version="1.0" standalone="yes"?>
<svg xmlns="http://www.w3.org/2000/svg" width="100" height="100">
<path style="fill:#000000; stroke:none;" d="M0 0L0 10L10 10L10 30L0 30L0 80L10 80L10 100L20 100L20 90L50 90L50 100L70 100L70 90L90 90L90 70L100 70L100 30L90 30L90 20L100 20L100 10L70 10L70 0L60 0L60 10L40 10L40 0L0 0z"/>
<path style="fill:#ffffff; stroke:none;" d="M40 0L40 10L60 10L60 0L40 0M70 0L70 10L100 10L100 0L70 0M0 10L0 30L10 30L10 10L0 10M20 20L20 80L80 80L80 20L20 20M90 20L90 30L100 30L100 20L90 20z"/>
<path style="fill:#000000; stroke:none;" d="M60 30L60 40L50 40L50 60L40 60L40 40L30 40L30 70L60 70L60 50L70 50L70 30L60 30z"/>
<path style="fill:#ffffff; stroke:none;" d="M90 70L90 90L70 90L70 100L100 100L100 70L90 70M0 80L0 100L10 100L10 80L0 80M20 90L20 100L50 100L50 90L20 90z"/>
</svg>
