<?xml version="1.0" standalone="yes"?>
<svg xmlns="http://www.w3.org/2000/svg" width="100" height="100">
<path style="fill:#ffffff; stroke:none;" d="M0 0L0 20L10 20L10 10L40 10L40 0L0 0z"/>
<path style="fill:#000000; stroke:none;" d="M40 0L40 10L10 10L10 20L0 20L0 30L10 30L10 80L0 80L0 90L30 90L30 100L40 100L40 90L80 90L80 100L100 100L100 80L90 80L90 70L100 70L100 50L90 50L90 30L100 30L100 10L70 10L70 0L60 0L60 10L50 10L50 0L40 0z"/>
<path style="fill:#ffffff; stroke:none;" d="M50 0L50 10L60 10L60 0L50 0M70 0L70 10L100 10L100 0L70 0M20 20L20 80L80 80L80 20L20 20M0 30L0 80L10 80L10 30L0 30z"/>
<path style="fill:#000000; stroke:none;" d="M30 30L30 40L40 40L40 30L30 30M50 30L50 50L30 50L30 70L40 70L40 60L50 60L50 70L60 70L60 60L70 60L70 30L50 30z"/>
<path style="fill:#ffffff; stroke:none;" d="M90 30L90 50L100 50L100 30L90 30M90 70L90 80L100 80L100 70L90 70M0 90L0 100L30 100L30 90L0 90M40 90L40 100L80 100L80 90L40 90z"/>
</svg>
