<?xml version="1.0" standalone="yes"?>
<svg xmlns="http://www.w3.org/2000/svg" width="100" height="100">
<path style="fill:#000000; stroke:none;" d="M0 0L0 70L10 70L10 100L20 100L20 90L40 90L40 100L50 100L50 90L60 90L60 100L90 100L90 70L100 70L100 60L90 60L90 30L100 30L100 0L90 0L90 10L70 10L70 0L50 0L50 10L30 10L30 0L0 0z"/>
<path style="fill:#ffffff; stroke:none;" d="M30 0L30 10L50 10L50 0L30 0M70 0L70 10L90 10L90 0L70 0M20 20L20 80L80 80L80 20L20 20z"/>
<path style="fill:#000000; stroke:none;" d="M60 30L60 40L40 40L40 60L50 60L50 70L70 70L70 50L60 50L60 40L70 40L70 30L60 30z"/>
<path style="fill:#ffffff; stroke:none;" d="M90 30L90 60L100 60L100 30L90 30M50 50L50 60L60 60L60 50L50 50M0 70L0 100L10 100L10 70L0 70M90 70L90 100L100 100L100 70L90 70M20 90L20 100L40 100L40 90L20 90M50 90L50 100L60 100L60 90L50 90z"/>
</svg>
