<?xml version="1.0" standalone="yes"?>
<svg xmlns="http://www.w3.org/2000/svg" width="100" height="100">
<path style="fill:#ffffff; stroke:none;" d="M0 0L0 30L10 30L10 10L50 10L50 0L0 0z"/>
<path style="fill:#000000; stroke:none;" d="M50 0L50 10L10 10L10 30L0 30L0 40L10 40L10 50L0 50L0 80L10 80L10 90L30 90L30 100L50 100L50 90L80 90L80 100L90 100L90 80L100 80L100 50L90 50L90 10L70 10L70 0L50 0z"/>
<path style="fill:#ffffff; stroke:none;" d="M70 0L70 10L90 10L90 50L100 50L100 0L70 0M20 20L20 80L80 80L80 20L20 20z"/>
<path style="fill:#000000; stroke:none;" d="M40 30L40 60L50 60L50 70L60 70L60 60L70 60L70 50L50 50L50 40L70 40L70 30L40 30z"/>
<path style="fill:#ffffff; stroke:none;" d="M0 40L0 50L10 50L10 40L0 40M0 80L0 100L30 100L30 90L10 90L10 80L0 80M90 80L90 100L100 100L100 80L90 80M50 90L50 100L80 100L80 90L50 90z"/>
</svg>
