<?xml version="1.0" standalone="yes"?>
<svg xmlns="http://www.w3.org/2000/svg" width="100" height="100">
<path style="fill:#ffffff; stroke:none;" d="M0 0L0 10L40 10L40 0L0 0z"/>
<path style="fill:#000000; stroke:none;" d="M40 0L40 10L0 10L0 20L10 20L10 50L0 50L0 60L10 60L10 90L0 90L0 100L10 100L10 90L20 90L20 100L50 100L50 90L60 90L60 100L100 100L100 70L90 70L90 30L100 30L100 0L80 0L80 10L70 10L70 0L40 0z"/>
<path style="fill:#ffffff; stroke:none;" d="M70 0L70 10L80 10L80 0L70 0M0 20L0 50L10 50L10 20L0 20M20 20L20 80L80 80L80 20L20 20z"/>
<path style="fill:#000000; stroke:none;" d="M30 30L30 40L40 40L40 50L50 50L50 60L40 60L40 70L50 70L50 60L70 60L70 40L40 40L40 30L30 30z"/>
<path style="fill:#ffffff; stroke:none;" d="M90 30L90 70L100 70L100 30L90 30M0 60L0 90L10 90L10 60L0 60M10 90L10 100L20 100L20 90L10 90M50 90L50 100L60 100L60 90L50 90z"/>
</svg>
