<?xml version="1.0" standalone="yes"?>
<svg xmlns="http://www.w3.org/2000/svg" width="100" height="100">
<path style="fill:#ffffff; stroke:none;" d="M0 0L0 10L20 10L20 0L0 0z"/>
<path style="fill:#000000; stroke:none;" d="M20 0L20 10L0 10L0 20L10 20L10 30L0 30L0 50L10 50L10 60L0 60L0 100L50 100L50 90L60 90L60 100L100 100L100 90L90 90L90 70L100 70L100 60L90 60L90 40L100 40L100 20L90 20L90 10L50 10L50 0L20 0z"/>
<path style="fill:#ffffff; stroke:none;" d="M50 0L50 10L90 10L90 20L100 20L100 0L50 0M0 20L0 30L10 30L10 20L0 20M20 20L20 80L80 80L80 20L20 20z"/>
<path style="fill:#000000; stroke:none;" d="M30 30L30 50L40 50L40 70L60 70L60 60L70 60L70 40L50 40L50 30L30 30z"/>
<path style="fill:#ffffff; stroke:none;" d="M90 40L90 60L100 60L100 40L90 40M0 50L0 60L10 60L10 50L0 50M50 50L50 60L60 60L60 50L50 50M90 70L90 90L100 90L100 70L90 70M50 90L50 100L60 100L60 90L50 90z"/>
</svg>
