<?xml version="1.0" standalone="yes"?>
<svg xmlns="http://www.w3.org/2000/svg" width="100" height="100">
<path style="fill:#ffffff; stroke:none;" d="M0 0L0 10L40 10L40 0L0 0z"/>
<path style="fill:#000000; stroke:none;" d="M40 0L40 10L0 10L0 30L10 30L10 50L0 50L0 80L10 80L10 100L20 100L20 90L50 90L50 100L60 100L60 90L70 90L70 100L80 100L80 90L90 90L90 80L100 80L100 10L70 10L70 0L40 0z"/>
<path style="fill:#ffffff; stroke:none;" d="M70 0L70 10L100 10L100 0L70 0M20 20L20 80L80 80L80 20L20 20M0 30L0 50L10 50L10 30L0 30z"/>
<path style="fill:#000000; stroke:none;" d="M30 30L30 50L40 50L40 40L50 40L50 50L60 50L60 40L70 40L70 30L30 30M60 60L60 70L70 70L70 60L60 60z"/>
<path style="fill:#ffffff; stroke:none;" d="M0 80L0 100L10 100L10 80L0 80M90 80L90 90L80 90L80 100L100 100L100 80L90 80M20 90L20 100L50 100L50 90L20 90M60 90L60 100L70 100L70 90L60 90z"/>
</svg>
