<?xml version="1.0" standalone="yes"?>
<svg xmlns="http://www.w3.org/2000/svg" width="100" height="100">
<path style="fill:#000000; stroke:none;" d="M0 0L0 10L10 10L10 90L30 90L30 100L50 100L50 90L60 90L60 100L80 100L80 90L100 90L100 70L90 70L90 60L100 60L100 40L90 40L90 10L100 10L100 0L30 0L30 10L10 10L10 0L0 0z"/>
<path style="fill:#ffffff; stroke:none;" d="M10 0L10 10L30 10L30 0L10 0M0 10L0 100L30 100L30 90L10 90L10 10L0 10M90 10L90 40L100 40L100 10L90 10M20 20L20 80L80 80L80 20L20 20z"/>
<path style="fill:#000000; stroke:none;" d="M30 30L30 40L40 40L40 30L30 30M50 30L50 40L70 40L70 30L50 30M50 50L50 60L40 60L40 70L60 70L60 50L50 50z"/>
<path style="fill:#ffffff; stroke:none;" d="M90 60L90 70L100 70L100 60L90 60M50 90L50 100L60 100L60 90L50 90M80 90L80 100L100 100L100 90L80 90z"/>
</svg>
