<?xml version="1.0" standalone="yes"?>
<svg xmlns="http://www.w3.org/2000/svg" width="100" height="100">
<path style="fill:#000000; stroke:none;" d="M0 0L0 50L10 50L10 90L20 90L20 100L30 100L30 90L40 90L40 100L80 100L80 90L90 90L90 20L100 20L100 0L90 0L90 10L70 10L70 0L20 0L20 10L10 10L10 0L0 0z"/>
<path style="fill:#ffffff; stroke:none;" d="M10 0L10 10L20 10L20 0L10 0M70 0L70 10L90 10L90 0L70 0M20 20L20 80L80 80L80 20L20 20M90 20L90 90L80 90L80 100L100 100L100 20L90 20z"/>
<path style="fill:#000000; stroke:none;" d="M30 30L30 40L40 40L40 30L30 30M60 30L60 40L70 40L70 30L60 30z"/>
<path style="fill:#ffffff; stroke:none;" d="M0 50L0 100L20 100L20 90L10 90L10 50L0 50z"/>
<path style="fill:#000000; stroke:none;" d="M30 50L30 60L40 60L40 70L70 70L70 50L60 50L60 60L50 60L50 50L30 50z"/>
<path style="fill:#ffffff; stroke:none;" d="M30 90L30 100L40 100L40 90L30 90z"/>
</svg>
