<?xml version="1.0" standalone="yes"?>
<svg xmlns="http://www.w3.org/2000/svg" width="100" height="100">
<path style="fill:#000000; stroke:none;" d="M0 0L0 10L10 10L10 40L0 40L0 50L10 50L10 90L20 90L20 100L30 100L30 90L70 90L70 100L80 100L80 90L90 90L90 80L100 80L100 50L90 50L90 40L100 40L100 0L50 0L50 10L40 10L40 0L30 0L30 10L20 10L20 0L0 0z"/>
<path style="fill:#ffffff; stroke:none;" d="M20 0L20 10L30 10L30 0L20 0M40 0L40 10L50 10L50 0L40 0M0 10L0 40L10 40L10 10L0 10M20 20L20 80L80 80L80 20L20 20z"/>
<path style="fill:#000000; stroke:none;" d="M40 30L40 40L50 40L50 60L60 60L60 40L70 40L70 30L40 30z"/>
<path style="fill:#ffffff; stroke:none;" d="M90 40L90 50L100 50L100 40L90 40M0 50L0 100L20 100L20 90L10 90L10 50L0 50z"/>
<path style="fill:#000000; stroke:none;" d="M30 50L30 70L40 70L40 50L30 50z"/>
<path style="fill:#ffffff; stroke:none;" d="M90 80L90 90L80 90L80 100L100 100L100 80L90 80M30 90L30 100L70 100L70 90L30 90z"/>
</svg>
