<?xml version="1.0" standalone="yes"?>
<svg xmlns="http://www.w3.org/2000/svg" width="100" height="100">
<path style="fill:#000000; stroke:none;" d="M0 0L0 50L10 50L10 90L40 90L40 100L70 100L70 90L80 90L80 100L100 100L100 90L90 90L90 50L100 50L100 10L50 10L50 0L30 0L30 10L20 10L20 0L0 0z"/>
<path style="fill:#ffffff; stroke:none;" d="M20 0L20 10L30 10L30 0L20 0M50 0L50 10L100 10L100 0L50 0M20 20L20 80L80 80L80 20L20 20z"/>
<path style="fill:#000000; stroke:none;" d="M30 30L30 40L40 40L40 50L30 50L30 70L70 70L70 50L60 50L60 60L50 60L50 40L60 40L60 30L30 30z"/>
<path style="fill:#ffffff; stroke:none;" d="M0 50L0 100L40 100L40 90L10 90L10 50L0 50M90 50L90 90L100 90L100 50L90 50M70 90L70 100L80 100L80 90L70 90z"/>
</svg>
