<?xml version="1.0" standalone="yes"?>
<svg xmlns="http://www.w3.org/2000/svg" width="100" height="100">
<path style="fill:#ffffff; stroke:none;" d="M0 0L0 60L10 60L10 10L30 10L30 0L0 0z"/>
<path style="fill:#000000; stroke:none;" d="M30 0L30 10L10 10L10 60L0 60L0 100L10 100L10 90L30 90L30 100L40 100L40 90L90 90L90 50L100 50L100 40L90 40L90 20L100 20L100 0L30 0z"/>
<path style="fill:#ffffff; stroke:none;" d="M20 20L20 80L80 80L80 20L20 20M90 20L90 40L100 40L100 20L90 20z"/>
<path style="fill:#000000; stroke:none;" d="M30 30L30 50L40 50L40 30L30 30M60 30L60 50L70 50L70 30L60 30z"/>
<path style="fill:#ffffff; stroke:none;" d="M90 50L90 90L40 90L40 100L100 100L100 50L90 50z"/>
<path style="fill:#000000; stroke:none;" d="M30 60L30 70L40 70L40 60L30 60M60 60L60 70L70 70L70 60L60 60z"/>
<path style="fill:#ffffff; stroke:none;" d="M10 90L10 100L30 100L30 90L10 90z"/>
</svg>
