<?xml version="1.0" standalone="yes"?>
<svg xmlns="http://www.w3.org/2000/svg" width="100" height="100">
<path style="fill:#000000; stroke:none;" d="M0 0L0 10L10 10L10 40L0 40L0 50L10 50L10 60L0 60L0 70L10 70L10 80L0 80L0 100L30 100L30 90L40 90L40 100L60 100L60 90L70 90L70 100L100 100L100 90L90 90L90 70L100 70L100 50L90 50L90 40L100 40L100 10L90 10L90 0L70 0L70 10L60 10L60 0L50 0L50 10L10 10L10 0L0 0z"/>
<path style="fill:#ffffff; stroke:none;" d="M10 0L10 10L50 10L50 0L10 0M60 0L60 10L70 10L70 0L60 0M90 0L90 10L100 10L100 0L90 0M0 10L0 40L10 40L10 10L0 10M20 20L20 80L80 80L80 20L20 20z"/>
<path style="fill:#000000; stroke:none;" d="M30 30L30 40L50 40L50 50L40 50L40 70L50 70L50 50L60 50L60 70L70 70L70 40L50 40L50 30L30 30z"/>
<path style="fill:#ffffff; stroke:none;" d="M90 40L90 50L100 50L100 40L90 40M0 50L0 60L10 60L10 50L0 50M0 70L0 80L10 80L10 70L0 70M90 70L90 90L100 90L100 70L90 70M30 90L30 100L40 100L40 90L30 90M60 90L60 100L70 100L70 90L60 90z"/>
</svg>
