<?xml version="1.0" standalone="yes"?>
<svg xmlns="http://www.w3.org/2000/svg" width="100" height="100">
<path style="fill:#ffffff; stroke:none;" d="M0 0L0 10L10 10L10 0L0 0z"/>
<path style="fill:#000000; stroke:none;" d="M10 0L10 10L0 10L0 30L10 30L10 80L0 80L0 100L10 100L10 90L60 90L60 100L100 100L100 80L90 80L90 70L100 70L100 30L90 30L90 0L80 0L80 10L60 10L60 0L10 0z"/>
<path style="fill:#ffffff; stroke:none;" d="M60 0L60 10L80 10L80 0L60 0M90 0L90 30L100 30L100 0L90 0M20 20L20 80L80 80L80 20L20 20M0 30L0 80L10 80L10 30L0 30z"/>
<path style="fill:#000000; stroke:none;" d="M40 30L40 40L30 40L30 60L50 60L50 50L60 50L60 40L50 40L50 30L40 30z"/>
<path style="fill:#ffffff; stroke:none;" d="M40 40L40 50L50 50L50 40L40 40M90 70L90 80L100 80L100 70L90 70M10 90L10 100L60 100L60 90L10 90z"/>
</svg>
