<?xml version="1.0" standalone="yes"?>
<svg xmlns="http://www.w3.org/2000/svg" width="100" height="100">
<path style="fill:#ffffff; stroke:none;" d="M0 0L0 10L20 10L20 0L0 0z"/>
<path style="fill:#000000; stroke:none;" d="M20 0L20 10L0 10L0 60L10 60L10 70L0 70L0 90L10 90L10 100L20 100L20 90L50 90L50 100L80 100L80 90L90 90L90 40L100 40L100 0L60 0L60 10L30 10L30 0L20 0z"/>
<path style="fill:#ffffff; stroke:none;" d="M30 0L30 10L60 10L60 0L30 0M20 20L20 80L80 80L80 20L20 20z"/>
<path style="fill:#000000; stroke:none;" d="M30 30L30 60L40 60L40 70L70 70L70 50L60 50L60 40L70 40L70 30L30 30z"/>
<path style="fill:#ffffff; stroke:none;" d="M90 40L90 90L80 90L80 100L100 100L100 40L90 40M0 60L0 70L10 70L10 60L0 60M0 90L0 100L10 100L10 90L0 90M20 90L20 100L50 100L50 90L20 90z"/>
</svg>
