<?xml version="1.0" standalone="yes"?>
<svg xmlns="http://www.w3.org/2000/svg" width="100" height="100">
<path style="fill:#000000; stroke:none;" d="M0 0L0 40L10 40L10 70L0 70L0 100L10 100L10 90L50 90L50 100L60 100L60 90L90 90L90 100L100 100L100 50L90 50L90 40L100 40L100 30L90 30L90 10L80 10L80 0L70 0L70 10L60 10L60 0L50 0L50 10L30 10L30 0L20 0L20 10L10 10L10 0L0 0z"/>
<path style="fill:#ffffff; stroke:none;" d="M10 0L10 10L20 10L20 0L10 0M30 0L30 10L50 10L50 0L30 0M60 0L60 10L70 10L70 0L60 0M80 0L80 10L90 10L90 30L100 30L100 0L80 0M20 20L20 80L80 80L80 20L20 20z"/>
<path style="fill:#000000; stroke:none;" d="M50 30L50 40L30 40L30 70L50 70L50 60L40 60L40 50L60 50L60 60L70 60L70 50L60 50L60 30L50 30z"/>
<path style="fill:#ffffff; stroke:none;" d="M0 40L0 70L10 70L10 40L0 40M90 40L90 50L100 50L100 40L90 40M10 90L10 100L50 100L50 90L10 90M60 90L60 100L90 100L90 90L60 90z"/>
</svg>
