<?xml version="1.0" standalone="yes"?>
<svg xmlns="http://www.w3.org/2000/svg" width="100" height="100">
<path style="fill:#ffffff; stroke:none;" d="M0 0L0 10L50 10L50 0L0 0z"/>
<path style="fill:#000000; stroke:none;" d="M50 0L50 10L0 10L0 30L10 30L10 40L0 40L0 100L10 100L10 90L50 90L50 100L70 100L70 90L100 90L100 60L90 60L90 20L100 20L100 10L70 10L70 0L50 0z"/>
<path style="fill:#ffffff; stroke:none;" d="M70 0L70 10L100 10L100 0L70 0M20 20L20 80L80 80L80 20L20 20M90 20L90 60L100 60L100 20L90 20M0 30L0 40L10 40L10 30L0 30z"/>
<path style="fill:#000000; stroke:none;" d="M30 30L30 40L40 40L40 50L30 50L30 70L50 70L50 60L40 60L40 50L70 50L70 30L30 30z"/>
<path style="fill:#ffffff; stroke:none;" d="M10 90L10 100L50 100L50 90L10 90M70 90L70 100L100 100L100 90L70 90z"/>
</svg>
