<?xml version="1.0" standalone="yes"?>
<svg xmlns="http://www.w3.org/2000/svg" width="100" height="100">
<path style="fill:#ffffff; stroke:none;" d="M0 0L0 20L10 20L10 10L20 10L20 0L0 0z"/>
<path style="fill:#000000; stroke:none;" d="M20 0L20 10L10 10L10 20L0 20L0 30L10 30L10 40L0 40L0 50L10 50L10 80L0 80L0 100L10 100L10 90L20 90L20 100L40 100L40 90L70 90L70 100L100 100L100 90L90 90L90 80L100 80L100 70L90 70L90 60L100 60L100 30L90 30L90 20L100 20L100 0L90 0L90 10L80 10L80 0L60 0L60 10L30 10L30 0L20 0z"/>
<path style="fill:#ffffff; stroke:none;" d="M30 0L30 10L60 10L60 0L30 0M80 0L80 10L90 10L90 0L80 0M20 20L20 80L80 80L80 20L20 20M90 20L90 30L100 30L100 20L90 20M0 30L0 40L10 40L10 30L0 30z"/>
<path style="fill:#000000; stroke:none;" d="M60 30L60 40L50 40L50 50L60 50L60 70L70 70L70 30L60 30M30 40L30 60L40 60L40 70L50 70L50 60L40 60L40 40L30 40z"/>
<path style="fill:#ffffff; stroke:none;" d="M0 50L0 80L10 80L10 50L0 50M90 60L90 70L100 70L100 60L90 60M90 80L90 90L100 90L100 80L90 80M10 90L10 100L20 100L20 90L10 90M40 90L40 100L70 100L70 90L40 90z"/>
</svg>
