<?xml version="1.0" standalone="yes"?>
<svg xmlns="http://www.w3.org/2000/svg" width="100" height="100">
<path style="fill:#ffffff; stroke:none;" d="M0 0L0 20L10 20L10 0L0 0z"/>
<path style="fill:#000000; stroke:none;" d="M10 0L10 20L0 20L0 40L10 40L10 80L0 80L0 90L10 90L10 100L20 100L20 90L40 90L40 100L50 100L50 90L70 90L70 100L100 100L100 90L90 90L90 80L100 80L100 70L90 70L90 30L100 30L100 0L70 0L70 10L60 10L60 0L40 0L40 10L30 10L30 0L10 0z"/>
<path style="fill:#ffffff; stroke:none;" d="M30 0L30 10L40 10L40 0L30 0M60 0L60 10L70 10L70 0L60 0M20 20L20 80L80 80L80 20L20 20z"/>
<path style="fill:#000000; stroke:none;" d="M30 30L30 40L40 40L40 70L70 70L70 30L60 30L60 60L50 60L50 30L30 30z"/>
<path style="fill:#ffffff; stroke:none;" d="M90 30L90 70L100 70L100 30L90 30M0 40L0 80L10 80L10 40L0 40M90 80L90 90L100 90L100 80L90 80M0 90L0 100L10 100L10 90L0 90M20 90L20 100L40 100L40 90L20 90M50 90L50 100L70 100L70 90L50 90z"/>
</svg>
