<?xml version="1.0" standalone="yes"?>
<svg xmlns="http://www.w3.org/2000/svg" width="100" height="100">
<path style="fill:#000000; stroke:none;" d="M0 0L0 10L10 10L10 30L0 30L0 80L10 80L10 90L20 90L20 100L70 100L70 90L80 90L80 100L90 100L90 80L100 80L100 40L90 40L90 20L100 20L100 10L80 10L80 0L70 0L70 10L60 10L60 0L50 0L50 10L30 10L30 0L20 0L20 10L10 10L10 0L0 0z"/>
<path style="fill:#ffffff; stroke:none;" d="M10 0L10 10L20 10L20 0L10 0M30 0L30 10L50 10L50 0L30 0M60 0L60 10L70 10L70 0L60 0M80 0L80 10L100 10L100 0L80 0M0 10L0 30L10 30L10 10L0 10M20 20L20 80L80 80L80 20L20 20M90 20L90 40L100 40L100 20L90 20z"/>
<path style="fill:#000000; stroke:none;" d="M60 30L60 40L50 40L50 50L40 50L40 40L30 40L30 50L40 50L40 60L50 60L50 70L60 70L60 40L70 40L70 30L60 30z"/>
<path style="fill:#ffffff; stroke:none;" d="M0 80L0 100L20 100L20 90L10 90L10 80L0 80M90 80L90 100L100 100L100 80L90 80M70 90L70 100L80 100L80 90L70 90z"/>
</svg>
