<?xml version="1.0" standalone="yes"?>
<svg xmlns="http://www.w3.org/2000/svg" width="100" height="100">
<path style="fill:#000000; stroke:none;" d="M0 0L0 10L10 10L10 30L0 30L0 40L10 40L10 80L0 80L0 90L20 90L20 100L30 100L30 90L40 90L40 100L50 100L50 90L90 90L90 100L100 100L100 80L90 80L90 70L100 70L100 40L90 40L90 10L100 10L100 0L90 0L90 10L70 10L70 0L60 0L60 10L50 10L50 0L0 0z"/>
<path style="fill:#ffffff; stroke:none;" d="M50 0L50 10L60 10L60 0L50 0M70 0L70 10L90 10L90 0L70 0M0 10L0 30L10 30L10 10L0 10M90 10L90 40L100 40L100 10L90 10M20 20L20 80L80 80L80 20L20 20z"/>
<path style="fill:#000000; stroke:none;" d="M30 30L30 40L40 40L40 60L30 60L30 70L40 70L40 60L50 60L50 70L60 70L60 50L70 50L70 40L40 40L40 30L30 30z"/>
<path style="fill:#ffffff; stroke:none;" d="M0 40L0 80L10 80L10 40L0 40M90 70L90 80L100 80L100 70L90 70M0 90L0 100L20 100L20 90L0 90M30 90L30 100L40 100L40 90L30 90M50 90L50 100L90 100L90 90L50 90z"/>
</svg>
