<?xml version="1.0" standalone="yes"?>
<svg xmlns="http://www.w3.org/2000/svg" width="100" height="100">
<path style="fill:#000000; stroke:none;" d="M0 0L0 10L10 10L10 40L0 40L0 50L10 50L10 70L0 70L0 90L10 90L10 100L50 100L50 90L90 90L90 70L100 70L100 60L90 60L90 10L60 10L60 0L50 0L50 10L40 10L40 0L30 0L30 10L20 10L20 0L0 0z"/>
<path style="fill:#ffffff; stroke:none;" d="M20 0L20 10L30 10L30 0L20 0M40 0L40 10L50 10L50 0L40 0M60 0L60 10L90 10L90 60L100 60L100 0L60 0M0 10L0 40L10 40L10 10L0 10M20 20L20 80L80 80L80 20L20 20z"/>
<path style="fill:#000000; stroke:none;" d="M30 30L30 40L40 40L40 50L30 50L30 70L70 70L70 50L60 50L60 40L40 40L40 30L30 30z"/>
<path style="fill:#ffffff; stroke:none;" d="M0 50L0 70L10 70L10 50L0 50M40 50L40 60L60 60L60 50L40 50M90 70L90 90L50 90L50 100L100 100L100 70L90 70M0 90L0 100L10 100L10 90L0 90z"/>
</svg>
