<?xml version="1.0" standalone="yes"?>
<svg xmlns="http://www.w3.org/2000/svg" width="100" height="100">
<path style="fill:#000000; stroke:none;" d="M0 0L0 30L10 30L10 100L40 100L40 90L70 90L70 100L80 100L80 90L100 90L100 80L90 80L90 70L100 70L100 60L90 60L90 50L100 50L100 40L90 40L90 20L100 20L100 10L40 10L40 0L0 0z"/>
<path style="fill:#ffffff; stroke:none;" d="M40 0L40 10L100 10L100 0L40 0M20 20L20 80L80 80L80 20L20 20M90 20L90 40L100 40L100 20L90 20M0 30L0 100L10 100L10 30L0 30z"/>
<path style="fill:#000000; stroke:none;" d="M30 30L30 40L40 40L40 30L30 30M50 30L50 50L60 50L60 40L70 40L70 30L50 30M30 50L30 60L40 60L40 70L60 70L60 60L40 60L40 50L30 50z"/>
<path style="fill:#ffffff; stroke:none;" d="M90 50L90 60L100 60L100 50L90 50M90 70L90 80L100 80L100 70L90 70M40 90L40 100L70 100L70 90L40 90M80 90L80 100L100 100L100 90L80 90z"/>
</svg>
