<?xml version="1.0" standalone="yes"?>
<svg xmlns="http://www.w3.org/2000/svg" width="100" height="100">
<path style="fill:#000000; stroke:none;" d="M0 0L0 30L10 30L10 70L0 70L0 90L20 90L20 100L60 100L60 90L70 90L70 100L80 100L80 90L90 90L90 80L100 80L100 70L90 70L90 60L100 60L100 50L90 50L90 30L100 30L100 10L90 10L90 0L60 0L60 10L40 10L40 0L20 0L20 10L10 10L10 0L0 0z"/>
<path style="fill:#ffffff; stroke:none;" d="M10 0L10 10L20 10L20 0L10 0M40 0L40 10L60 10L60 0L40 0M90 0L90 10L100 10L100 0L90 0M20 20L20 80L80 80L80 20L20 20M0 30L0 70L10 70L10 30L0 30z"/>
<path style="fill:#000000; stroke:none;" d="M30 30L30 70L70 70L70 60L60 60L60 40L50 40L50 30L30 30z"/>
<path style="fill:#ffffff; stroke:none;" d="M90 30L90 50L100 50L100 30L90 30M40 50L40 60L50 60L50 50L40 50M90 60L90 70L100 70L100 60L90 60M90 80L90 90L80 90L80 100L100 100L100 80L90 80M0 90L0 100L20 100L20 90L0 90M60 90L60 100L70 100L70 90L60 90z"/>
</svg>
