<?xml version="1.0" standalone="yes"?>
<svg xmlns="http://www.w3.org/2000/svg" width="100" height="100">
<path style="fill:#ffffff; stroke:none;" d="M0 0L0 10L10 10L10 0L0 0z"/>
<path style="fill:#000000; stroke:none;" d="M10 0L10 10L0 10L0 30L10 30L10 100L20 100L20 90L30 90L30 100L60 100L60 90L80 90L80 100L90 100L90 60L100 60L100 30L90 30L90 0L80 0L80 10L60 10L60 0L50 0L50 10L40 10L40 0L10 0z"/>
<path style="fill:#ffffff; stroke:none;" d="M40 0L40 10L50 10L50 0L40 0M60 0L60 10L80 10L80 0L60 0M90 0L90 30L100 30L100 0L90 0M20 20L20 80L80 80L80 20L20 20M0 30L0 100L10 100L10 30L0 30z"/>
<path style="fill:#000000; stroke:none;" d="M40 30L40 40L30 40L30 70L40 70L40 60L50 60L50 70L70 70L70 60L50 60L50 50L70 50L70 30L60 30L60 40L50 40L50 30L40 30z"/>
<path style="fill:#ffffff; stroke:none;" d="M40 40L40 50L50 50L50 40L40 40M90 60L90 100L100 100L100 60L90 60M20 90L20 100L30 100L30 90L20 90M60 90L60 100L80 100L80 90L60 90z"/>
</svg>
