<?xml version="1.0" standalone="yes"?>
<svg xmlns="http://www.w3.org/2000/svg" width="100" height="100">
<path style="fill:#000000; stroke:none;" d="M0 0L0 10L10 10L10 40L0 40L0 50L10 50L10 80L0 80L0 100L50 100L50 90L60 90L60 100L100 100L100 80L90 80L90 70L100 70L100 60L90 60L90 40L100 40L100 30L90 30L90 20L100 20L100 10L60 10L60 0L40 0L40 10L10 10L10 0L0 0z"/>
<path style="fill:#ffffff; stroke:none;" d="M10 0L10 10L40 10L40 0L10 0M60 0L60 10L100 10L100 0L60 0M0 10L0 40L10 40L10 10L0 10M20 20L20 80L80 80L80 20L20 20M90 20L90 30L100 30L100 20L90 20z"/>
<path style="fill:#000000; stroke:none;" d="M40 30L40 40L30 40L30 50L50 50L50 60L40 60L40 70L50 70L50 60L60 60L60 70L70 70L70 40L60 40L60 50L50 50L50 30L40 30z"/>
<path style="fill:#ffffff; stroke:none;" d="M90 40L90 60L100 60L100 40L90 40M0 50L0 80L10 80L10 50L0 50M90 70L90 80L100 80L100 70L90 70M50 90L50 100L60 100L60 90L50 90z"/>
</svg>
