<?xml version="1.0" standalone="yes"?>
<svg xmlns="http://www.w3.org/2000/svg" width="100" height="100">
<path style="fill:#ffffff; stroke:none;" d="M0 0L0 10L10 10L10 0L0 0z"/>
<path style="fill:#000000; stroke:none;" d="M10 0L10 10L0 10L0 50L10 50L10 80L0 80L0 100L30 100L30 90L80 90L80 100L90 100L90 90L100 90L100 80L90 80L90 60L100 60L100 40L90 40L90 20L100 20L100 10L70 10L70 0L10 0z"/>
<path style="fill:#ffffff; stroke:none;" d="M70 0L70 10L100 10L100 0L70 0M20 20L20 80L80 80L80 20L20 20M90 20L90 40L100 40L100 20L90 20z"/>
<path style="fill:#000000; stroke:none;" d="M30 30L30 40L50 40L50 50L70 50L70 40L50 40L50 30L30 30z"/>
<path style="fill:#ffffff; stroke:none;" d="M0 50L0 80L10 80L10 50L0 50z"/>
<path style="fill:#000000; stroke:none;" d="M30 60L30 70L40 70L40 60L30 60M50 60L50 70L70 70L70 60L50 60z"/>
<path style="fill:#ffffff; stroke:none;" d="M90 60L90 80L100 80L100 60L90 60M30 90L30 100L80 100L80 90L30 90M90 90L90 100L100 100L100 90L90 90z"/>
</svg>
