<?xml version="1.0" standalone="yes"?>
<svg xmlns="http://www.w3.org/2000/svg" width="100" height="100">
<path style="fill:#000000; stroke:none;" d="M0 0L0 10L10 10L10 40L0 40L0 90L40 90L40 100L60 100L60 90L90 90L90 100L100 100L100 50L90 50L90 20L100 20L100 0L70 0L70 10L60 10L60 0L0 0z"/>
<path style="fill:#ffffff; stroke:none;" d="M60 0L60 10L70 10L70 0L60 0M0 10L0 40L10 40L10 10L0 10M20 20L20 80L80 80L80 20L20 20M90 20L90 50L100 50L100 20L90 20z"/>
<path style="fill:#000000; stroke:none;" d="M60 30L60 40L40 40L40 50L30 50L30 70L50 70L50 60L60 60L60 50L70 50L70 30L60 30z"/>
<path style="fill:#ffffff; stroke:none;" d="M40 50L40 60L50 60L50 50L40 50M0 90L0 100L40 100L40 90L0 90M60 90L60 100L90 100L90 90L60 90z"/>
</svg>
