<?xml version="1.0" standalone="yes"?>
<svg xmlns="http://www.w3.org/2000/svg" width="100" height="100">
<path style="fill:#000000; stroke:none;" d="M0 0L0 10L10 10L10 20L0 20L0 40L10 40L10 90L0 90L0 100L20 100L20 90L50 90L50 100L70 100L70 90L90 90L90 100L100 100L100 90L90 90L90 60L100 60L100 50L90 50L90 20L100 20L100 0L70 0L70 10L60 10L60 0L20 0L20 10L10 10L10 0L0 0z"/>
<path style="fill:#ffffff; stroke:none;" d="M10 0L10 10L20 10L20 0L10 0M60 0L60 10L70 10L70 0L60 0M0 10L0 20L10 20L10 10L0 10M20 20L20 80L80 80L80 20L20 20M90 20L90 50L100 50L100 20L90 20z"/>
<path style="fill:#000000; stroke:none;" d="M40 30L40 40L60 40L60 50L30 50L30 60L40 60L40 70L60 70L60 50L70 50L70 40L60 40L60 30L40 30z"/>
<path style="fill:#ffffff; stroke:none;" d="M0 40L0 90L10 90L10 40L0 40M90 60L90 90L100 90L100 60L90 60M20 90L20 100L50 100L50 90L20 90M70 90L70 100L90 100L90 90L70 90z"/>
</svg>
