<?xml version="1.0" standalone="yes"?>
<svg xmlns="http://www.w3.org/2000/svg" width="100" height="100">
<path style="fill:#000000; stroke:none;" d="M0 0L0 30L10 30L10 70L0 70L0 90L10 90L10 100L20 100L20 90L60 90L60 100L70 100L70 90L100 90L100 70L90 70L90 60L100 60L100 50L90 50L90 0L80 0L80 10L70 10L70 0L20 0L20 10L10 10L10 0L0 0z"/>
<path style="fill:#ffffff; stroke:none;" d="M10 0L10 10L20 10L20 0L10 0M70 0L70 10L80 10L80 0L70 0M90 0L90 50L100 50L100 0L90 0M20 20L20 80L80 80L80 20L20 20M0 30L0 70L10 70L10 30L0 30z"/>
<path style="fill:#000000; stroke:none;" d="M50 30L50 40L40 40L40 60L30 60L30 70L50 70L50 50L60 50L60 70L70 70L70 30L50 30z"/>
<path style="fill:#ffffff; stroke:none;" d="M90 60L90 70L100 70L100 60L90 60M0 90L0 100L10 100L10 90L0 90M20 90L20 100L60 100L60 90L20 90M70 90L70 100L100 100L100 90L70 90z"/>
</svg>
