<?xml version="1.0" standalone="yes"?>
<svg xmlns="http://www.w3.org/2000/svg" width="100" height="100">
<path style="fill:#ffffff; stroke:none;" d="M0 0L0 10L40 10L40 0L0 0z"/>
<path style="fill:#000000; stroke:none;" d="M40 0L40 10L0 10L0 20L10 20L10 30L0 30L0 40L10 40L10 50L0 50L0 80L10 80L10 100L20 100L20 90L30 90L30 100L60 100L60 90L80 90L80 100L90 100L90 80L100 80L100 70L90 70L90 60L100 60L100 10L60 10L60 0L40 0z"/>
<path style="fill:#ffffff; stroke:none;" d="M60 0L60 10L100 10L100 0L60 0M0 20L0 30L10 30L10 20L0 20M20 20L20 80L80 80L80 20L20 20z"/>
<path style="fill:#000000; stroke:none;" d="M40 30L40 40L30 40L30 50L40 50L40 60L70 60L70 50L60 50L60 40L50 40L50 30L40 30z"/>
<path style="fill:#ffffff; stroke:none;" d="M0 40L0 50L10 50L10 40L0 40M40 40L40 50L50 50L50 40L40 40M90 60L90 70L100 70L100 60L90 60M0 80L0 100L10 100L10 80L0 80M90 80L90 100L100 100L100 80L90 80M20 90L20 100L30 100L30 90L20 90M60 90L60 100L80 100L80 90L60 90z"/>
</svg>
