<?xml version="1.0" standalone="yes"?>
<svg xmlns="http://www.w3.org/2000/svg" width="100" height="100">
<path style="fill:#000000; stroke:none;" d="M0 0L0 20L10 20L10 40L0 40L0 50L10 50L10 90L0 90L0 100L60 100L60 90L80 90L80 100L100 100L100 60L90 60L90 50L100 50L100 40L90 40L90 30L100 30L100 10L80 10L80 0L40 0L40 10L30 10L30 0L0 0z"/>
<path style="fill:#ffffff; stroke:none;" d="M30 0L30 10L40 10L40 0L30 0M80 0L80 10L100 10L100 0L80 0M0 20L0 40L10 40L10 20L0 20M20 20L20 80L80 80L80 20L20 20z"/>
<path style="fill:#000000; stroke:none;" d="M40 30L40 40L50 40L50 50L30 50L30 60L50 60L50 70L60 70L60 60L70 60L70 50L60 50L60 40L50 40L50 30L40 30z"/>
<path style="fill:#ffffff; stroke:none;" d="M90 30L90 40L100 40L100 30L90 30M0 50L0 90L10 90L10 50L0 50M50 50L50 60L60 60L60 50L50 50M90 50L90 60L100 60L100 50L90 50M60 90L60 100L80 100L80 90L60 90z"/>
</svg>
