<?xml version="1.0" standalone="yes"?>
<svg xmlns="http://www.w3.org/2000/svg" width="100" height="100">
<path style="fill:#ffffff; stroke:none;" d="M0 0L0 30L10 30L10 10L40 10L40 0L0 0z"/>
<path style="fill:#000000; stroke:none;" d="M40 0L40 10L10 10L10 30L0 30L0 50L10 50L10 80L0 80L0 90L10 90L10 100L20 100L20 90L80 90L80 100L90 100L90 90L100 90L100 50L90 50L90 10L80 10L80 0L40 0z"/>
<path style="fill:#ffffff; stroke:none;" d="M80 0L80 10L90 10L90 50L100 50L100 0L80 0M20 20L20 80L80 80L80 20L20 20z"/>
<path style="fill:#000000; stroke:none;" d="M40 30L40 40L70 40L70 30L40 30z"/>
<path style="fill:#ffffff; stroke:none;" d="M0 50L0 80L10 80L10 50L0 50z"/>
<path style="fill:#000000; stroke:none;" d="M30 50L30 60L40 60L40 50L30 50z"/>
<path style="fill:#ffffff; stroke:none;" d="M0 90L0 100L10 100L10 90L0 90M20 90L20 100L80 100L80 90L20 90M90 90L90 100L100 100L100 90L90 90z"/>
</svg>
