<?xml version="1.0" standalone="yes"?>
<svg xmlns="http://www.w3.org/2000/svg" width="100" height="100">
<path style="fill:#ffffff; stroke:none;" d="M0 0L0 80L10 80L10 0L0 0z"/>
<path style="fill:#000000; stroke:none;" d="M10 0L10 80L0 80L0 100L10 100L10 90L50 90L50 100L100 100L100 50L90 50L90 10L60 10L60 0L50 0L50 10L20 10L20 0L10 0z"/>
<path style="fill:#ffffff; stroke:none;" d="M20 0L20 10L50 10L50 0L20 0M60 0L60 10L90 10L90 50L100 50L100 0L60 0M20 20L20 80L80 80L80 20L20 20z"/>
<path style="fill:#000000; stroke:none;" d="M30 30L30 40L40 40L40 50L30 50L30 70L70 70L70 40L60 40L60 30L30 30z"/>
<path style="fill:#ffffff; stroke:none;" d="M50 40L50 60L60 60L60 40L50 40M10 90L10 100L50 100L50 90L10 90z"/>
</svg>
