<?xml version="1.0" standalone="yes"?>
<svg xmlns="http://www.w3.org/2000/svg" width="100" height="100">
<path style="fill:#000000; stroke:none;" d="M0 0L0 100L20 100L20 90L70 90L70 100L90 100L90 30L100 30L100 10L70 10L70 0L60 0L60 10L50 10L50 0L40 0L40 10L30 10L30 0L20 0L20 10L10 10L10 0L0 0z"/>
<path style="fill:#ffffff; stroke:none;" d="M10 0L10 10L20 10L20 0L10 0M30 0L30 10L40 10L40 0L30 0M50 0L50 10L60 10L60 0L50 0M70 0L70 10L100 10L100 0L70 0M20 20L20 80L80 80L80 20L20 20z"/>
<path style="fill:#000000; stroke:none;" d="M30 30L30 40L40 40L40 60L50 60L50 70L70 70L70 60L50 60L50 50L60 50L60 30L50 30L50 40L40 40L40 30L30 30z"/>
<path style="fill:#ffffff; stroke:none;" d="M90 30L90 100L100 100L100 30L90 30M20 90L20 100L70 100L70 90L20 90z"/>
</svg>
