<?xml version="1.0" standalone="yes"?>
<svg xmlns="http://www.w3.org/2000/svg" width="100" height="100">
<path style="fill:#000000; stroke:none;" d="M0 0L0 60L10 60L10 70L0 70L0 90L10 90L10 100L20 100L20 90L40 90L40 100L50 100L50 90L70 90L70 100L100 100L100 80L90 80L90 70L100 70L100 60L90 60L90 10L70 10L70 0L50 0L50 10L30 10L30 0L20 0L20 10L10 10L10 0L0 0z"/>
<path style="fill:#ffffff; stroke:none;" d="M10 0L10 10L20 10L20 0L10 0M30 0L30 10L50 10L50 0L30 0M70 0L70 10L90 10L90 60L100 60L100 0L70 0M20 20L20 80L80 80L80 20L20 20z"/>
<path style="fill:#000000; stroke:none;" d="M60 30L60 50L50 50L50 40L40 40L40 50L30 50L30 70L40 70L40 50L50 50L50 70L70 70L70 60L60 60L60 50L70 50L70 30L60 30z"/>
<path style="fill:#ffffff; stroke:none;" d="M0 60L0 70L10 70L10 60L0 60M90 70L90 80L100 80L100 70L90 70M0 90L0 100L10 100L10 90L0 90M20 90L20 100L40 100L40 90L20 90M50 90L50 100L70 100L70 90L50 90z"/>
</svg>
