<?xml version="1.0" standalone="yes"?>
<svg xmlns="http://www.w3.org/2000/svg" width="100" height="100">
<path style="fill:#ffffff; stroke:none;" d="M0 0L0 10L10 10L10 0L0 0z"/>
<path style="fill:#000000; stroke:none;" d="M10 0L10 10L0 10L0 30L10 30L10 50L0 50L0 70L10 70L10 80L0 80L0 90L10 90L10 100L20 100L20 90L60 90L60 100L70 100L70 90L80 90L80 100L90 100L90 60L100 60L100 50L90 50L90 20L100 20L100 0L50 0L50 10L40 10L40 0L10 0z"/>
<path style="fill:#ffffff; stroke:none;" d="M40 0L40 10L50 10L50 0L40 0M20 20L20 80L80 80L80 20L20 20M90 20L90 50L100 50L100 20L90 20M0 30L0 50L10 50L10 30L0 30z"/>
<path style="fill:#000000; stroke:none;" d="M40 30L40 40L60 40L60 50L50 50L50 70L60 70L60 50L70 50L70 40L60 40L60 30L40 30M30 60L30 70L40 70L40 60L30 60z"/>
<path style="fill:#ffffff; stroke:none;" d="M90 60L90 100L100 100L100 60L90 60M0 70L0 80L10 80L10 70L0 70M0 90L0 100L10 100L10 90L0 90M20 90L20 100L60 100L60 90L20 90M70 90L70 100L80 100L80 90L70 90z"/>
</svg>
