<?xml version="1.0" standalone="yes"?>
<svg xmlns="http://www.w3.org/2000/svg" width="100" height="100">
<path style="fill:#000000; stroke:none;" d="M0 0L0 10L10 10L10 60L0 60L0 70L10 70L10 90L60 90L60 100L70 100L70 90L80 90L80 100L100 100L100 70L90 70L90 50L100 50L100 40L90 40L90 30L100 30L100 20L90 20L90 0L60 0L60 10L50 10L50 0L40 0L40 10L30 10L30 0L20 0L20 10L10 10L10 0L0 0z"/>
<path style="fill:#ffffff; stroke:none;" d="M10 0L10 10L20 10L20 0L10 0M30 0L30 10L40 10L40 0L30 0M50 0L50 10L60 10L60 0L50 0M90 0L90 20L100 20L100 0L90 0M0 10L0 60L10 60L10 10L0 10M20 20L20 80L80 80L80 20L20 20z"/>
<path style="fill:#000000; stroke:none;" d="M30 30L30 40L60 40L60 50L30 50L30 60L60 60L60 50L70 50L70 30L30 30z"/>
<path style="fill:#ffffff; stroke:none;" d="M90 30L90 40L100 40L100 30L90 30M90 50L90 70L100 70L100 50L90 50M0 70L0 100L60 100L60 90L10 90L10 70L0 70M70 90L70 100L80 100L80 90L70 90z"/>
</svg>
