<?xml version="1.0" standalone="yes"?>
<svg xmlns="http://www.w3.org/2000/svg" width="100" height="100">
<path style="fill:#000000; stroke:none;" d="M0 0L0 10L10 10L10 30L0 30L0 40L10 40L10 50L0 50L0 70L10 70L10 100L20 100L20 90L30 90L30 100L50 100L50 90L70 90L70 100L100 100L100 80L90 80L90 50L100 50L100 30L90 30L90 10L100 10L100 0L50 0L50 10L40 10L40 0L20 0L20 10L10 10L10 0L0 0z"/>
<path style="fill:#ffffff; stroke:none;" d="M10 0L10 10L20 10L20 0L10 0M40 0L40 10L50 10L50 0L40 0M0 10L0 30L10 30L10 10L0 10M90 10L90 30L100 30L100 10L90 10M20 20L20 80L80 80L80 20L20 20M0 40L0 50L10 50L10 40L0 40z"/>
<path style="fill:#000000; stroke:none;" d="M30 40L30 70L60 70L60 60L40 60L40 40L30 40M60 40L60 50L70 50L70 40L60 40z"/>
<path style="fill:#ffffff; stroke:none;" d="M90 50L90 80L100 80L100 50L90 50M0 70L0 100L10 100L10 70L0 70M20 90L20 100L30 100L30 90L20 90M50 90L50 100L70 100L70 90L50 90z"/>
</svg>
