<?xml version="1.0" standalone="yes"?>
<svg xmlns="http://www.w3.org/2000/svg" width="100" height="100">
<path style="fill:#ffffff; stroke:none;" d="M0 0L0 10L20 10L20 0L0 0z"/>
<path style="fill:#000000; stroke:none;" d="M20 0L20 10L0 10L0 30L10 30L10 50L0 50L0 60L10 60L10 70L0 70L0 80L10 80L10 90L0 90L0 100L10 100L10 90L20 90L20 100L50 100L50 90L60 90L60 100L100 100L100 90L90 90L90 60L100 60L100 40L90 40L90 20L100 20L100 0L80 0L80 10L70 10L70 0L60 0L60 10L50 10L50 0L20 0z"/>
<path style="fill:#ffffff; stroke:none;" d="M50 0L50 10L60 10L60 0L50 0M70 0L70 10L80 10L80 0L70 0M20 20L20 80L80 80L80 20L20 20M90 20L90 40L100 40L100 20L90 20M0 30L0 50L10 50L10 30L0 30z"/>
<path style="fill:#000000; stroke:none;" d="M30 40L30 60L40 60L40 70L50 70L50 50L40 50L40 40L30 40M60 40L60 60L70 60L70 40L60 40z"/>
<path style="fill:#ffffff; stroke:none;" d="M0 60L0 70L10 70L10 60L0 60M90 60L90 90L100 90L100 60L90 60M0 80L0 90L10 90L10 80L0 80M10 90L10 100L20 100L20 90L10 90M50 90L50 100L60 100L60 90L50 90z"/>
</svg>
