<?xml version="1.0" standalone="yes"?>
<svg xmlns="http://www.w3.org/2000/svg" width="100" height="100">
<path style="fill:#000000; stroke:none;" d="M0 0L0 10L10 10L10 90L0 90L0 100L20 100L20 90L30 90L30 100L40 100L40 90L50 90L50 100L60 100L60 90L100 90L100 80L90 80L90 30L100 30L100 0L50 0L50 10L30 10L30 0L20 0L20 10L10 10L10 0L0 0z"/>
<path style="fill:#ffffff; stroke:none;" d="M10 0L10 10L20 10L20 0L10 0M30 0L30 10L50 10L50 0L30 0M0 10L0 90L10 90L10 10L0 10M20 20L20 80L80 80L80 20L20 20M90 30L90 80L100 80L100 30L90 30z"/>
<path style="fill:#000000; stroke:none;" d="M40 40L40 50L30 50L30 70L70 70L70 60L60 60L60 50L50 50L50 40L40 40z"/>
<path style="fill:#ffffff; stroke:none;" d="M40 50L40 60L50 60L50 50L40 50M20 90L20 100L30 100L30 90L20 90M40 90L40 100L50 100L50 90L40 90M60 90L60 100L100 100L100 90L60 90z"/>
</svg>
