<?xml version="1.0" standalone="yes"?>
<svg xmlns="http://www.w3.org/2000/svg" width="100" height="100">
<path style="fill:#000000; stroke:none;" d="M0 0L0 50L10 50L10 60L0 60L0 70L10 70L10 90L0 90L0 100L10 100L10 90L20 90L20 100L30 100L30 90L80 90L80 100L90 100L90 50L100 50L100 40L90 40L90 30L100 30L100 10L80 10L80 0L70 0L70 10L60 10L60 0L20 0L20 10L10 10L10 0L0 0z"/>
<path style="fill:#ffffff; stroke:none;" d="M10 0L10 10L20 10L20 0L10 0M60 0L60 10L70 10L70 0L60 0M80 0L80 10L100 10L100 0L80 0M20 20L20 80L80 80L80 20L20 20M90 30L90 40L100 40L100 30L90 30z"/>
<path style="fill:#000000; stroke:none;" d="M40 40L40 50L30 50L30 60L50 60L50 70L70 70L70 40L40 40z"/>
<path style="fill:#ffffff; stroke:none;" d="M0 50L0 60L10 60L10 50L0 50M50 50L50 60L60 60L60 50L50 50M90 50L90 100L100 100L100 50L90 50M0 70L0 90L10 90L10 70L0 70M10 90L10 100L20 100L20 90L10 90M30 90L30 100L80 100L80 90L30 90z"/>
</svg>
