<?xml version="1.0" standalone="yes"?>
<svg xmlns="http://www.w3.org/2000/svg" width="100" height="100">
<path style="fill:#000000; stroke:none;" d="M0 0L0 10L10 10L10 50L0 50L0 60L10 60L10 80L0 80L0 100L40 100L40 90L50 90L50 100L70 100L70 90L90 90L90 100L100 100L100 80L90 80L90 50L100 50L100 30L90 30L90 10L100 10L100 0L90 0L90 10L70 10L70 0L60 0L60 10L50 10L50 0L30 0L30 10L20 10L20 0L0 0z"/>
<path style="fill:#ffffff; stroke:none;" d="M20 0L20 10L30 10L30 0L20 0M50 0L50 10L60 10L60 0L50 0M70 0L70 10L90 10L90 0L70 0M0 10L0 50L10 50L10 10L0 10M90 10L90 30L100 30L100 10L90 10M20 20L20 80L80 80L80 20L20 20z"/>
<path style="fill:#000000; stroke:none;" d="M40 30L40 40L30 40L30 70L40 70L40 60L50 60L50 70L60 70L60 60L70 60L70 40L60 40L60 30L40 30z"/>
<path style="fill:#ffffff; stroke:none;" d="M40 40L40 50L50 50L50 60L60 60L60 50L50 50L50 40L40 40M90 50L90 80L100 80L100 50L90 50M0 60L0 80L10 80L10 60L0 60M40 90L40 100L50 100L50 90L40 90M70 90L70 100L90 100L90 90L70 90z"/>
</svg>
