<?xml version="1.0" standalone="yes"?>
<svg xmlns="http://www.w3.org/2000/svg" width="100" height="100">
<path style="fill:#000000; stroke:none;" d="M0 0L0 10L10 10L10 60L0 60L0 80L10 80L10 90L50 90L50 100L60 100L60 90L70 90L70 100L100 100L100 90L90 90L90 80L100 80L100 70L90 70L90 50L100 50L100 10L60 10L60 0L40 0L40 10L30 10L30 0L20 0L20 10L10 10L10 0L0 0z"/>
<path style="fill:#ffffff; stroke:none;" d="M10 0L10 10L20 10L20 0L10 0M30 0L30 10L40 10L40 0L30 0M60 0L60 10L100 10L100 0L60 0M0 10L0 60L10 60L10 10L0 10M20 20L20 80L80 80L80 20L20 20z"/>
<path style="fill:#000000; stroke:none;" d="M60 30L60 40L50 40L50 50L70 50L70 30L60 30M30 40L30 60L40 60L40 70L50 70L50 60L40 60L40 40L30 40z"/>
<path style="fill:#ffffff; stroke:none;" d="M90 50L90 70L100 70L100 50L90 50M0 80L0 100L50 100L50 90L10 90L10 80L0 80M90 80L90 90L100 90L100 80L90 80M60 90L60 100L70 100L70 90L60 90z"/>
</svg>
