<?xml version="1.0" standalone="yes"?>
<svg xmlns="http://www.w3.org/2000/svg" width="100" height="100">
<path style="fill:#000000; stroke:none;" d="M0 0L0 10L10 10L10 50L0 50L0 60L10 60L10 70L0 70L0 80L10 80L10 90L50 90L50 100L60 100L60 90L90 90L90 100L100 100L100 90L90 90L90 80L100 80L100 60L90 60L90 50L100 50L100 20L90 20L90 10L40 10L40 0L30 0L30 10L10 10L10 0L0 0z"/>
<path style="fill:#ffffff; stroke:none;" d="M10 0L10 10L30 10L30 0L10 0M40 0L40 10L90 10L90 20L100 20L100 0L40 0M0 10L0 50L10 50L10 10L0 10M20 20L20 80L80 80L80 20L20 20z"/>
<path style="fill:#000000; stroke:none;" d="M40 30L40 40L30 40L30 50L40 50L40 60L30 60L30 70L60 70L60 60L50 60L50 40L60 40L60 30L40 30z"/>
<path style="fill:#ffffff; stroke:none;" d="M90 50L90 60L100 60L100 50L90 50M0 60L0 70L10 70L10 60L0 60M0 80L0 100L50 100L50 90L10 90L10 80L0 80M90 80L90 90L100 90L100 80L90 80M60 90L60 100L90 100L90 90L60 90z"/>
</svg>
