<?xml version="1.0" standalone="yes"?>
<svg xmlns="http://www.w3.org/2000/svg" width="100" height="100">
<path style="fill:#000000; stroke:none;" d="M0 0L0 20L10 20L10 30L0 30L0 70L10 70L10 80L0 80L0 90L80 90L80 100L90 100L90 90L100 90L100 50L90 50L90 0L60 0L60 10L10 10L10 0L0 0z"/>
<path style="fill:#ffffff; stroke:none;" d="M10 0L10 10L60 10L60 0L10 0M90 0L90 50L100 50L100 0L90 0M0 20L0 30L10 30L10 20L0 20M20 20L20 80L80 80L80 20L20 20z"/>
<path style="fill:#000000; stroke:none;" d="M30 30L30 50L40 50L40 70L60 70L60 60L50 60L50 50L70 50L70 30L60 30L60 40L50 40L50 30L30 30z"/>
<path style="fill:#ffffff; stroke:none;" d="M40 40L40 50L50 50L50 40L40 40M0 70L0 80L10 80L10 70L0 70M0 90L0 100L80 100L80 90L0 90M90 90L90 100L100 100L100 90L90 90z"/>
</svg>
