<?xml version="1.0" standalone="yes"?>
<svg xmlns="http://www.w3.org/2000/svg" width="100" height="100">
<path style="fill:#ffffff; stroke:none;" d="M0 0L0 90L10 90L10 100L30 100L30 90L10 90L10 0L0 0z"/>
<path style="fill:#000000; stroke:none;" d="M10 0L10 90L30 90L30 100L50 100L50 90L70 90L70 100L90 100L90 80L100 80L100 60L90 60L90 50L100 50L100 30L90 30L90 20L100 20L100 10L80 10L80 0L60 0L60 10L50 10L50 0L10 0z"/>
<path style="fill:#ffffff; stroke:none;" d="M50 0L50 10L60 10L60 0L50 0M80 0L80 10L100 10L100 0L80 0M20 20L20 80L80 80L80 20L20 20M90 20L90 30L100 30L100 20L90 20z"/>
<path style="fill:#000000; stroke:none;" d="M40 30L40 40L30 40L30 60L40 60L40 70L50 70L50 60L40 60L40 50L50 50L50 30L40 30M60 30L60 60L70 60L70 30L60 30z"/>
<path style="fill:#ffffff; stroke:none;" d="M90 50L90 60L100 60L100 50L90 50M90 80L90 100L100 100L100 80L90 80z"/>
<path style="fill:#000000; stroke:none;" d="M0 90L0 100L10 100L10 90L0 90z"/>
<path style="fill:#ffffff; stroke:none;" d="M50 90L50 100L70 100L70 90L50 90z"/>
</svg>
