<?xml version="1.0" standalone="yes"?>
<svg xmlns="http://www.w3.org/2000/svg" width="100" height="100">
<path style="fill:#ffffff; stroke:none;" d="M0 0L0 40L10 40L10 10L60 10L60 0L0 0z"/>
<path style="fill:#000000; stroke:none;" d="M60 0L60 10L10 10L10 40L0 40L0 50L10 50L10 60L0 60L0 70L10 70L10 100L20 100L20 90L30 90L30 100L80 100L80 90L100 90L100 60L90 60L90 50L100 50L100 40L90 40L90 0L60 0z"/>
<path style="fill:#ffffff; stroke:none;" d="M90 0L90 40L100 40L100 0L90 0M20 20L20 80L80 80L80 20L20 20z"/>
<path style="fill:#000000; stroke:none;" d="M60 30L60 40L70 40L70 30L60 30M30 40L30 70L40 70L40 50L50 50L50 60L60 60L60 70L70 70L70 50L50 50L50 40L30 40z"/>
<path style="fill:#ffffff; stroke:none;" d="M0 50L0 60L10 60L10 50L0 50M90 50L90 60L100 60L100 50L90 50M0 70L0 100L10 100L10 70L0 70M20 90L20 100L30 100L30 90L20 90M80 90L80 100L100 100L100 90L80 90z"/>
</svg>
