<?xml version="1.0" standalone="yes"?>
<svg xmlns="http://www.w3.org/2000/svg" width="100" height="100">
<path style="fill:#000000; stroke:none;" d="M0 0L0 20L10 20L10 40L0 40L0 70L10 70L10 100L20 100L20 90L30 90L30 100L70 100L70 90L80 90L80 100L90 100L90 70L100 70L100 60L90 60L90 50L100 50L100 40L90 40L90 30L100 30L100 10L90 10L90 0L80 0L80 10L60 10L60 0L40 0L40 10L30 10L30 0L20 0L20 10L10 10L10 0L0 0z"/>
<path style="fill:#ffffff; stroke:none;" d="M10 0L10 10L20 10L20 0L10 0M30 0L30 10L40 10L40 0L30 0M60 0L60 10L80 10L80 0L60 0M90 0L90 10L100 10L100 0L90 0M0 20L0 40L10 40L10 20L0 20M20 20L20 80L80 80L80 20L20 20z"/>
<path style="fill:#000000; stroke:none;" d="M30 30L30 40L40 40L40 50L30 50L30 60L40 60L40 70L50 70L50 50L60 50L60 60L70 60L70 30L60 30L60 40L50 40L50 30L30 30z"/>
<path style="fill:#ffffff; stroke:none;" d="M90 30L90 40L100 40L100 30L90 30M90 50L90 60L100 60L100 50L90 50M0 70L0 100L10 100L10 70L0 70M90 70L90 100L100 100L100 70L90 70M20 90L20 100L30 100L30 90L20 90M70 90L70 100L80 100L80 90L70 90z"/>
</svg>
