<?xml version="1.0" standalone="yes"?>
<svg xmlns="http://www.w3.org/2000/svg" width="100" height="100">
<path style="fill:#000000; stroke:none;" d="M0 0L0 30L10 30L10 80L0 80L0 90L10 90L10 100L20 100L20 90L30 90L30 100L100 100L100 80L90 80L90 50L100 50L100 10L90 10L90 0L70 0L70 10L20 10L20 0L0 0z"/>
<path style="fill:#ffffff; stroke:none;" d="M20 0L20 10L70 10L70 0L20 0M90 0L90 10L100 10L100 0L90 0M20 20L20 80L80 80L80 20L20 20M0 30L0 80L10 80L10 30L0 30z"/>
<path style="fill:#000000; stroke:none;" d="M50 30L50 50L60 50L60 70L70 70L70 50L60 50L60 40L70 40L70 30L50 30M30 40L30 70L40 70L40 40L30 40z"/>
<path style="fill:#ffffff; stroke:none;" d="M90 50L90 80L100 80L100 50L90 50M0 90L0 100L10 100L10 90L0 90M20 90L20 100L30 100L30 90L20 90z"/>
</svg>
