<?xml version="1.0" standalone="yes"?>
<svg xmlns="http://www.w3.org/2000/svg" width="100" height="100">
<path style="fill:#000000; stroke:none;" d="M0 0L0 10L10 10L10 30L0 30L0 50L10 50L10 70L0 70L0 100L10 100L10 90L20 90L20 100L60 100L60 90L100 90L100 80L90 80L90 50L100 50L100 40L90 40L90 30L100 30L100 20L90 20L90 0L80 0L80 10L70 10L70 0L60 0L60 10L40 10L40 0L30 0L30 10L10 10L10 0L0 0z"/>
<path style="fill:#ffffff; stroke:none;" d="M10 0L10 10L30 10L30 0L10 0M40 0L40 10L60 10L60 0L40 0M70 0L70 10L80 10L80 0L70 0M90 0L90 20L100 20L100 0L90 0M0 10L0 30L10 30L10 10L0 10M20 20L20 80L80 80L80 20L20 20z"/>
<path style="fill:#000000; stroke:none;" d="M60 30L60 40L40 40L40 50L70 50L70 30L60 30z"/>
<path style="fill:#ffffff; stroke:none;" d="M90 30L90 40L100 40L100 30L90 30M0 50L0 70L10 70L10 50L0 50M90 50L90 80L100 80L100 50L90 50z"/>
<path style="fill:#000000; stroke:none;" d="M30 60L30 70L40 70L40 60L30 60z"/>
<path style="fill:#ffffff; stroke:none;" d="M10 90L10 100L20 100L20 90L10 90M60 90L60 100L100 100L100 90L60 90z"/>
</svg>
