<?xml version="1.0" standalone="yes"?>
<svg xmlns="http://www.w3.org/2000/svg" width="100" height="100">
<path style="fill:#000000; stroke:none;" d="M0 0L0 10L10 10L10 20L0 20L0 30L10 30L10 50L0 50L0 70L10 70L10 80L0 80L0 90L40 90L40 100L50 100L50 90L90 90L90 100L100 100L100 90L90 90L90 70L100 70L100 60L90 60L90 50L100 50L100 20L90 20L90 10L100 10L100 0L80 0L80 10L70 10L70 0L60 0L60 10L50 10L50 0L40 0L40 10L10 10L10 0L0 0z"/>
<path style="fill:#ffffff; stroke:none;" d="M10 0L10 10L40 10L40 0L10 0M50 0L50 10L60 10L60 0L50 0M70 0L70 10L80 10L80 0L70 0M0 10L0 20L10 20L10 10L0 10M90 10L90 20L100 20L100 10L90 10M20 20L20 80L80 80L80 20L20 20M0 30L0 50L10 50L10 30L0 30z"/>
<path style="fill:#000000; stroke:none;" d="M60 30L60 40L40 40L40 70L60 70L60 60L50 60L50 50L60 50L60 40L70 40L70 30L60 30z"/>
<path style="fill:#ffffff; stroke:none;" d="M90 50L90 60L100 60L100 50L90 50M0 70L0 80L10 80L10 70L0 70M90 70L90 90L100 90L100 70L90 70M0 90L0 100L40 100L40 90L0 90M50 90L50 100L90 100L90 90L50 90z"/>
</svg>
