<?xml version="1.0" standalone="yes"?>
<svg xmlns="http://www.w3.org/2000/svg" width="100" height="100">
<path style="fill:#ffffff; stroke:none;" d="M0 0L0 30L10 30L10 10L40 10L40 0L0 0z"/>
<path style="fill:#000000; stroke:none;" d="M40 0L40 10L10 10L10 30L0 30L0 40L10 40L10 70L0 70L0 80L10 80L10 90L20 90L20 100L30 100L30 90L100 90L100 10L90 10L90 0L70 0L70 10L50 10L50 0L40 0z"/>
<path style="fill:#ffffff; stroke:none;" d="M50 0L50 10L70 10L70 0L50 0M90 0L90 10L100 10L100 0L90 0M20 20L20 80L80 80L80 20L20 20z"/>
<path style="fill:#000000; stroke:none;" d="M30 30L30 70L40 70L40 40L50 40L50 70L60 70L60 60L70 60L70 50L60 50L60 40L70 40L70 30L30 30z"/>
<path style="fill:#ffffff; stroke:none;" d="M0 40L0 70L10 70L10 40L0 40M0 80L0 100L20 100L20 90L10 90L10 80L0 80M30 90L30 100L100 100L100 90L30 90z"/>
</svg>
