<?xml version="1.0" standalone="yes"?>
<svg xmlns="http://www.w3.org/2000/svg" width="100" height="100">
<path style="fill:#ffffff; stroke:none;" d="M0 0L0 10L50 10L50 0L0 0z"/>
<path style="fill:#000000; stroke:none;" d="M50 0L50 10L0 10L0 30L10 30L10 50L0 50L0 60L10 60L10 90L0 90L0 100L10 100L10 90L30 90L30 100L40 100L40 90L70 90L70 100L90 100L90 40L100 40L100 20L90 20L90 10L100 10L100 0L50 0z"/>
<path style="fill:#ffffff; stroke:none;" d="M90 10L90 20L100 20L100 10L90 10M20 20L20 80L80 80L80 20L20 20M0 30L0 50L10 50L10 30L0 30z"/>
<path style="fill:#000000; stroke:none;" d="M40 30L40 40L30 40L30 60L40 60L40 50L50 50L50 40L60 40L60 70L70 70L70 30L40 30z"/>
<path style="fill:#ffffff; stroke:none;" d="M90 40L90 100L100 100L100 40L90 40M0 60L0 90L10 90L10 60L0 60M10 90L10 100L30 100L30 90L10 90M40 90L40 100L70 100L70 90L40 90z"/>
</svg>
