<?xml version="1.0" standalone="yes"?>
<svg xmlns="http://www.w3.org/2000/svg" width="100" height="100">
<path style="fill:#000000; stroke:none;" d="M0 0L0 10L10 10L10 90L0 90L0 100L20 100L20 90L30 90L30 100L90 100L90 80L100 80L100 30L90 30L90 10L100 10L100 0L90 0L90 10L70 10L70 0L60 0L60 10L40 10L40 0L20 0L20 10L10 10L10 0L0 0z"/>
<path style="fill:#ffffff; stroke:none;" d="M10 0L10 10L20 10L20 0L10 0M40 0L40 10L60 10L60 0L40 0M70 0L70 10L90 10L90 0L70 0M0 10L0 90L10 90L10 10L0 10M90 10L90 30L100 30L100 10L90 10M20 20L20 80L80 80L80 20L20 20z"/>
<path style="fill:#000000; stroke:none;" d="M40 30L40 40L50 40L50 50L40 50L40 70L60 70L60 40L50 40L50 30L40 30z"/>
<path style="fill:#ffffff; stroke:none;" d="M90 80L90 100L100 100L100 80L90 80M20 90L20 100L30 100L30 90L20 90z"/>
</svg>
