<?xml version="1.0" standalone="yes"?>
<svg xmlns="http://www.w3.org/2000/svg" width="100" height="100">
<path style="fill:#ffffff; stroke:none;" d="M0 0L0 40L10 40L10 10L30 10L30 0L0 0z"/>
<path style="fill:#000000; stroke:none;" d="M30 0L30 10L10 10L10 40L0 40L0 60L10 60L10 100L20 100L20 90L30 90L30 100L40 100L40 90L50 90L50 100L90 100L90 90L100 90L100 70L90 70L90 40L100 40L100 20L90 20L90 10L70 10L70 0L30 0z"/>
<path style="fill:#ffffff; stroke:none;" d="M70 0L70 10L90 10L90 20L100 20L100 0L70 0M20 20L20 80L80 80L80 20L20 20z"/>
<path style="fill:#000000; stroke:none;" d="M40 30L40 40L30 40L30 50L40 50L40 70L60 70L60 60L70 60L70 50L60 50L60 40L50 40L50 30L40 30z"/>
<path style="fill:#ffffff; stroke:none;" d="M40 40L40 50L50 50L50 60L60 60L60 50L50 50L50 40L40 40M90 40L90 70L100 70L100 40L90 40M0 60L0 100L10 100L10 60L0 60M20 90L20 100L30 100L30 90L20 90M40 90L40 100L50 100L50 90L40 90M90 90L90 100L100 100L100 90L90 90z"/>
</svg>
