<?xml version="1.0" standalone="yes"?>
<svg xmlns="http://www.w3.org/2000/svg" width="100" height="100">
<path style="fill:#ffffff; stroke:none;" d="M0 0L0 10L40 10L40 0L0 0z"/>
<path style="fill:#000000; stroke:none;" d="M40 0L40 10L0 10L0 30L10 30L10 40L0 40L0 50L10 50L10 90L30 90L30 100L40 100L40 90L90 90L90 100L100 100L100 70L90 70L90 60L100 60L100 10L70 10L70 0L60 0L60 10L50 10L50 0L40 0z"/>
<path style="fill:#ffffff; stroke:none;" d="M50 0L50 10L60 10L60 0L50 0M70 0L70 10L100 10L100 0L70 0M20 20L20 80L80 80L80 20L20 20M0 30L0 40L10 40L10 30L0 30z"/>
<path style="fill:#000000; stroke:none;" d="M30 30L30 40L40 40L40 30L30 30M50 30L50 50L70 50L70 40L60 40L60 30L50 30z"/>
<path style="fill:#ffffff; stroke:none;" d="M0 50L0 100L30 100L30 90L10 90L10 50L0 50z"/>
<path style="fill:#000000; stroke:none;" d="M30 50L30 60L40 60L40 70L50 70L50 60L40 60L40 50L30 50M60 60L60 70L70 70L70 60L60 60z"/>
<path style="fill:#ffffff; stroke:none;" d="M90 60L90 70L100 70L100 60L90 60M40 90L40 100L90 100L90 90L40 90z"/>
</svg>
