<?xml version="1.0" standalone="yes"?>
<svg xmlns="http://www.w3.org/2000/svg" width="100" height="100">
<path style="fill:#ffffff; stroke:none;" d="M0 0L0 60L10 60L10 10L40 10L40 0L0 0z"/>
<path style="fill:#000000; stroke:none;" d="M40 0L40 10L10 10L10 60L0 60L0 100L60 100L60 90L70 90L70 100L100 100L100 80L90 80L90 40L100 40L100 30L90 30L90 20L100 20L100 0L80 0L80 10L70 10L70 0L40 0z"/>
<path style="fill:#ffffff; stroke:none;" d="M70 0L70 10L80 10L80 0L70 0M20 20L20 80L80 80L80 20L20 20M90 20L90 30L100 30L100 20L90 20z"/>
<path style="fill:#000000; stroke:none;" d="M50 30L50 50L60 50L60 40L70 40L70 30L50 30M30 40L30 70L60 70L60 60L40 60L40 40L30 40z"/>
<path style="fill:#ffffff; stroke:none;" d="M90 40L90 80L100 80L100 40L90 40M60 90L60 100L70 100L70 90L60 90z"/>
</svg>
