<?xml version="1.0" standalone="yes"?>
<svg xmlns="http://www.w3.org/2000/svg" width="100" height="100">
<path style="fill:#ffffff; stroke:none;" d="M0 0L0 40L10 40L10 10L50 10L50 0L0 0z"/>
<path style="fill:#000000; stroke:none;" d="M50 0L50 10L10 10L10 40L0 40L0 70L10 70L10 90L40 90L40 100L50 100L50 90L70 90L70 100L80 100L80 90L90 90L90 70L100 70L100 60L90 60L90 50L100 50L100 40L90 40L90 10L60 10L60 0L50 0z"/>
<path style="fill:#ffffff; stroke:none;" d="M60 0L60 10L90 10L90 40L100 40L100 0L60 0M20 20L20 80L80 80L80 20L20 20z"/>
<path style="fill:#000000; stroke:none;" d="M30 30L30 40L40 40L40 50L30 50L30 70L40 70L40 60L50 60L50 70L70 70L70 30L60 30L60 60L50 60L50 30L30 30z"/>
<path style="fill:#ffffff; stroke:none;" d="M90 50L90 60L100 60L100 50L90 50M0 70L0 100L40 100L40 90L10 90L10 70L0 70M90 70L90 90L80 90L80 100L100 100L100 70L90 70M50 90L50 100L70 100L70 90L50 90z"/>
</svg>
