<?xml version="1.0" standalone="yes"?>
<svg xmlns="http://www.w3.org/2000/svg" width="100" height="100">
<path style="fill:#ffffff; stroke:none;" d="M0 0L0 40L10 40L10 10L80 10L80 0L0 0z"/>
<path style="fill:#000000; stroke:none;" d="M80 0L80 10L10 10L10 40L0 40L0 60L10 60L10 70L0 70L0 100L10 100L10 90L40 90L40 100L50 100L50 90L60 90L60 100L100 100L100 80L90 80L90 40L100 40L100 30L90 30L90 20L100 20L100 0L80 0z"/>
<path style="fill:#ffffff; stroke:none;" d="M20 20L20 80L80 80L80 20L20 20M90 20L90 30L100 30L100 20L90 20z"/>
<path style="fill:#000000; stroke:none;" d="M30 30L30 60L50 60L50 50L60 50L60 60L70 60L70 40L60 40L60 30L30 30z"/>
<path style="fill:#ffffff; stroke:none;" d="M40 40L40 50L50 50L50 40L40 40M90 40L90 80L100 80L100 40L90 40M0 60L0 70L10 70L10 60L0 60M10 90L10 100L40 100L40 90L10 90M50 90L50 100L60 100L60 90L50 90z"/>
</svg>
