<?xml version="1.0" standalone="yes"?>
<svg xmlns="http://www.w3.org/2000/svg" width="100" height="100">
<path style="fill:#ffffff; stroke:none;" d="M0 0L0 20L10 20L10 0L0 0z"/>
<path style="fill:#000000; stroke:none;" d="M10 0L10 20L0 20L0 70L10 70L10 80L0 80L0 90L10 90L10 100L20 100L20 90L30 90L30 100L50 100L50 90L70 90L70 100L80 100L80 90L90 90L90 100L100 100L100 80L90 80L90 70L100 70L100 60L90 60L90 20L100 20L100 0L70 0L70 10L60 10L60 0L30 0L30 10L20 10L20 0L10 0z"/>
<path style="fill:#ffffff; stroke:none;" d="M20 0L20 10L30 10L30 0L20 0M60 0L60 10L70 10L70 0L60 0M20 20L20 80L80 80L80 20L20 20M90 20L90 60L100 60L100 20L90 20z"/>
<path style="fill:#000000; stroke:none;" d="M30 30L30 60L40 60L40 70L70 70L70 60L50 60L50 40L40 40L40 30L30 30M60 40L60 50L70 50L70 40L60 40z"/>
<path style="fill:#ffffff; stroke:none;" d="M0 70L0 80L10 80L10 70L0 70M90 70L90 80L100 80L100 70L90 70M0 90L0 100L10 100L10 90L0 90M20 90L20 100L30 100L30 90L20 90M50 90L50 100L70 100L70 90L50 90M80 90L80 100L90 100L90 90L80 90z"/>
</svg>
