<?xml version="1.0" standalone="yes"?>
<svg xmlns="http://www.w3.org/2000/svg" width="100" height="100">
<path style="fill:#000000; stroke:none;" d="M0 0L0 10L10 10L10 20L0 20L0 50L10 50L10 80L0 80L0 90L30 90L30 100L60 100L60 90L90 90L90 80L100 80L100 70L90 70L90 0L80 0L80 10L70 10L70 0L20 0L20 10L10 10L10 0L0 0z"/>
<path style="fill:#ffffff; stroke:none;" d="M10 0L10 10L20 10L20 0L10 0M70 0L70 10L80 10L80 0L70 0M90 0L90 70L100 70L100 0L90 0M0 10L0 20L10 20L10 10L0 10M20 20L20 80L80 80L80 20L20 20z"/>
<path style="fill:#000000; stroke:none;" d="M30 30L30 70L50 70L50 60L60 60L60 70L70 70L70 30L30 30z"/>
<path style="fill:#ffffff; stroke:none;" d="M50 40L50 50L40 50L40 60L50 60L50 50L60 50L60 40L50 40M0 50L0 80L10 80L10 50L0 50M90 80L90 90L60 90L60 100L100 100L100 80L90 80M0 90L0 100L30 100L30 90L0 90z"/>
</svg>
