<?xml version="1.0" standalone="yes"?>
<svg xmlns="http://www.w3.org/2000/svg" width="100" height="100">
<path style="fill:#000000; stroke:none;" d="M0 0L0 10L10 10L10 30L0 30L0 40L10 40L10 50L0 50L0 70L10 70L10 80L0 80L0 100L30 100L30 90L60 90L60 100L90 100L90 80L100 80L100 60L90 60L90 50L100 50L100 20L90 20L90 0L80 0L80 10L70 10L70 0L60 0L60 10L40 10L40 0L0 0z"/>
<path style="fill:#ffffff; stroke:none;" d="M40 0L40 10L60 10L60 0L40 0M70 0L70 10L80 10L80 0L70 0M90 0L90 20L100 20L100 0L90 0M0 10L0 30L10 30L10 10L0 10M20 20L20 80L80 80L80 20L20 20z"/>
<path style="fill:#000000; stroke:none;" d="M30 30L30 40L40 40L40 50L30 50L30 70L40 70L40 50L50 50L50 70L60 70L60 60L70 60L70 50L60 50L60 30L50 30L50 40L40 40L40 30L30 30z"/>
<path style="fill:#ffffff; stroke:none;" d="M0 40L0 50L10 50L10 40L0 40M90 50L90 60L100 60L100 50L90 50M0 70L0 80L10 80L10 70L0 70M90 80L90 100L100 100L100 80L90 80M30 90L30 100L60 100L60 90L30 90z"/>
</svg>
