<?xml version="1.0" standalone="yes"?>
<svg xmlns="http://www.w3.org/2000/svg" width="100" height="100">
<path style="fill:#ffffff; stroke:none;" d="M0 0L0 50L10 50L10 0L0 0z"/>
<path style="fill:#000000; stroke:none;" d="M10 0L10 50L0 50L0 80L10 80L10 90L50 90L50 100L60 100L60 90L70 90L70 100L90 100L90 80L100 80L100 60L90 60L90 50L100 50L100 20L90 20L90 10L70 10L70 0L50 0L50 10L30 10L30 0L10 0z"/>
<path style="fill:#ffffff; stroke:none;" d="M30 0L30 10L50 10L50 0L30 0M70 0L70 10L90 10L90 20L100 20L100 0L70 0M20 20L20 80L80 80L80 20L20 20z"/>
<path style="fill:#000000; stroke:none;" d="M60 30L60 40L70 40L70 30L60 30M30 40L30 50L40 50L40 70L50 70L50 60L60 60L60 50L50 50L50 40L30 40z"/>
<path style="fill:#ffffff; stroke:none;" d="M90 50L90 60L100 60L100 50L90 50M0 80L0 100L50 100L50 90L10 90L10 80L0 80M90 80L90 100L100 100L100 80L90 80M60 90L60 100L70 100L70 90L60 90z"/>
</svg>
