<?xml version="1.0" standalone="yes"?>
<svg xmlns="http://www.w3.org/2000/svg" width="100" height="100">
<path style="fill:#000000; stroke:none;" d="M0 0L0 40L10 40L10 50L0 50L0 70L10 70L10 100L20 100L20 90L50 90L50 100L80 100L80 90L90 90L90 100L100 100L100 70L90 70L90 60L100 60L100 40L90 40L90 30L100 30L100 20L90 20L90 0L70 0L70 10L30 10L30 0L0 0z"/>
<path style="fill:#ffffff; stroke:none;" d="M30 0L30 10L70 10L70 0L30 0M90 0L90 20L100 20L100 0L90 0M20 20L20 80L80 80L80 20L20 20z"/>
<path style="fill:#000000; stroke:none;" d="M30 30L30 40L40 40L40 50L30 50L30 60L50 60L50 30L30 30z"/>
<path style="fill:#ffffff; stroke:none;" d="M90 30L90 40L100 40L100 30L90 30M0 40L0 50L10 50L10 40L0 40z"/>
<path style="fill:#000000; stroke:none;" d="M60 40L60 50L70 50L70 40L60 40z"/>
<path style="fill:#ffffff; stroke:none;" d="M90 60L90 70L100 70L100 60L90 60M0 70L0 100L10 100L10 70L0 70M20 90L20 100L50 100L50 90L20 90M80 90L80 100L90 100L90 90L80 90z"/>
</svg>
