<?xml version="1.0" standalone="yes"?>
<svg xmlns="http://www.w3.org/2000/svg" width="100" height="100">
<path style="fill:#ffffff; stroke:none;" d="M0 0L0 20L10 20L10 0L0 0z"/>
<path style="fill:#000000; stroke:none;" d="M10 0L10 20L0 20L0 50L10 50L10 80L0 80L0 90L10 90L10 100L20 100L20 90L30 90L30 100L40 100L40 90L80 90L80 100L90 100L90 90L100 90L100 80L90 80L90 60L100 60L100 40L90 40L90 20L100 20L100 0L80 0L80 10L70 10L70 0L60 0L60 10L50 10L50 0L40 0L40 10L20 10L20 0L10 0z"/>
<path style="fill:#ffffff; stroke:none;" d="M20 0L20 10L40 10L40 0L20 0M50 0L50 10L60 10L60 0L50 0M70 0L70 10L80 10L80 0L70 0M20 20L20 80L80 80L80 20L20 20M90 20L90 40L100 40L100 20L90 20z"/>
<path style="fill:#000000; stroke:none;" d="M40 40L40 50L60 50L60 60L40 60L40 70L70 70L70 50L60 50L60 40L40 40z"/>
<path style="fill:#ffffff; stroke:none;" d="M0 50L0 80L10 80L10 50L0 50M90 60L90 80L100 80L100 60L90 60M0 90L0 100L10 100L10 90L0 90M20 90L20 100L30 100L30 90L20 90M40 90L40 100L80 100L80 90L40 90M90 90L90 100L100 100L100 90L90 90z"/>
</svg>
