<?xml version="1.0" standalone="yes"?>
<svg xmlns="http://www.w3.org/2000/svg" width="100" height="100">
<path style="fill:#000000; stroke:none;" d="M0 0L0 20L10 20L10 40L0 40L0 50L10 50L10 60L0 60L0 70L10 70L10 80L0 80L0 100L10 100L10 90L60 90L60 100L90 100L90 40L100 40L100 30L90 30L90 0L60 0L60 10L50 10L50 0L0 0z"/>
<path style="fill:#ffffff; stroke:none;" d="M50 0L50 10L60 10L60 0L50 0M90 0L90 30L100 30L100 0L90 0M0 20L0 40L10 40L10 20L0 20M20 20L20 80L80 80L80 20L20 20z"/>
<path style="fill:#000000; stroke:none;" d="M40 30L40 40L30 40L30 70L70 70L70 40L60 40L60 30L40 30z"/>
<path style="fill:#ffffff; stroke:none;" d="M90 40L90 100L100 100L100 40L90 40M0 50L0 60L10 60L10 50L0 50M50 50L50 60L60 60L60 50L50 50M0 70L0 80L10 80L10 70L0 70M10 90L10 100L60 100L60 90L10 90z"/>
</svg>
