<?xml version="1.0" standalone="yes"?>
<svg xmlns="http://www.w3.org/2000/svg" width="100" height="100">
<path style="fill:#000000; stroke:none;" d="M0 0L0 10L10 10L10 30L0 30L0 40L10 40L10 50L0 50L0 100L10 100L10 90L20 90L20 100L60 100L60 90L80 90L80 100L90 100L90 90L100 90L100 80L90 80L90 70L100 70L100 50L90 50L90 10L100 10L100 0L90 0L90 10L50 10L50 0L20 0L20 10L10 10L10 0L0 0z"/>
<path style="fill:#ffffff; stroke:none;" d="M10 0L10 10L20 10L20 0L10 0M50 0L50 10L90 10L90 0L50 0M0 10L0 30L10 30L10 10L0 10M90 10L90 50L100 50L100 10L90 10M20 20L20 80L80 80L80 20L20 20z"/>
<path style="fill:#000000; stroke:none;" d="M30 30L30 70L70 70L70 60L60 60L60 50L40 50L40 40L50 40L50 30L30 30M60 30L60 40L70 40L70 30L60 30z"/>
<path style="fill:#ffffff; stroke:none;" d="M0 40L0 50L10 50L10 40L0 40M90 70L90 80L100 80L100 70L90 70M10 90L10 100L20 100L20 90L10 90M60 90L60 100L80 100L80 90L60 90M90 90L90 100L100 100L100 90L90 90z"/>
</svg>
