<?xml version="1.0" standalone="yes"?>
<svg xmlns="http://www.w3.org/2000/svg" width="100" height="100">
<path style="fill:#000000; stroke:none;" d="M0 0L0 30L10 30L10 60L0 60L0 80L10 80L10 90L0 90L0 100L10 100L10 90L30 90L30 100L40 100L40 90L60 90L60 100L70 100L70 90L80 90L80 100L90 100L90 90L100 90L100 80L90 80L90 10L60 10L60 0L30 0L30 10L20 10L20 0L0 0z"/>
<path style="fill:#ffffff; stroke:none;" d="M20 0L20 10L30 10L30 0L20 0M60 0L60 10L90 10L90 80L100 80L100 0L60 0M20 20L20 80L80 80L80 20L20 20M0 30L0 60L10 60L10 30L0 30z"/>
<path style="fill:#000000; stroke:none;" d="M40 30L40 50L50 50L50 40L70 40L70 30L40 30M60 50L60 70L70 70L70 50L60 50M30 60L30 70L40 70L40 60L30 60z"/>
<path style="fill:#ffffff; stroke:none;" d="M0 80L0 90L10 90L10 80L0 80M10 90L10 100L30 100L30 90L10 90M40 90L40 100L60 100L60 90L40 90M70 90L70 100L80 100L80 90L70 90M90 90L90 100L100 100L100 90L90 90z"/>
</svg>
