<?xml version="1.0" standalone="yes"?>
<svg xmlns="http://www.w3.org/2000/svg" width="100" height="100">
<path style="fill:#000000; stroke:none;" d="M0 0L0 10L10 10L10 40L0 40L0 60L10 60L10 70L0 70L0 80L10 80L10 100L30 100L30 90L60 90L60 100L70 100L70 90L80 90L80 100L100 100L100 80L90 80L90 60L100 60L100 50L90 50L90 40L100 40L100 30L90 30L90 0L80 0L80 10L40 10L40 0L30 0L30 10L10 10L10 0L0 0z"/>
<path style="fill:#ffffff; stroke:none;" d="M10 0L10 10L30 10L30 0L10 0M40 0L40 10L80 10L80 0L40 0M90 0L90 30L100 30L100 0L90 0M0 10L0 40L10 40L10 10L0 10M20 20L20 80L80 80L80 20L20 20z"/>
<path style="fill:#000000; stroke:none;" d="M60 30L60 50L50 50L50 60L30 60L30 70L50 70L50 60L60 60L60 70L70 70L70 30L60 30z"/>
<path style="fill:#ffffff; stroke:none;" d="M90 40L90 50L100 50L100 40L90 40M0 60L0 70L10 70L10 60L0 60M90 60L90 80L100 80L100 60L90 60M0 80L0 100L10 100L10 80L0 80M30 90L30 100L60 100L60 90L30 90M70 90L70 100L80 100L80 90L70 90z"/>
</svg>
