<?xml version="1.0" standalone="yes"?>
<svg xmlns="http://www.w3.org/2000/svg" width="100" height="100">
<path style="fill:#ffffff; stroke:none;" d="M0 0L0 10L40 10L40 0L0 0z"/>
<path style="fill:#000000; stroke:none;" d="M40 0L40 10L0 10L0 50L10 50L10 80L0 80L0 100L20 100L20 90L50 90L50 100L70 100L70 90L90 90L90 100L100 100L100 50L90 50L90 30L100 30L100 10L90 10L90 0L70 0L70 10L60 10L60 0L40 0z"/>
<path style="fill:#ffffff; stroke:none;" d="M60 0L60 10L70 10L70 0L60 0M90 0L90 10L100 10L100 0L90 0M20 20L20 80L80 80L80 20L20 20z"/>
<path style="fill:#000000; stroke:none;" d="M30 30L30 40L60 40L60 70L70 70L70 40L60 40L60 30L30 30z"/>
<path style="fill:#ffffff; stroke:none;" d="M90 30L90 50L100 50L100 30L90 30M0 50L0 80L10 80L10 50L0 50z"/>
<path style="fill:#000000; stroke:none;" d="M30 50L30 60L40 60L40 50L30 50z"/>
<path style="fill:#ffffff; stroke:none;" d="M20 90L20 100L50 100L50 90L20 90M70 90L70 100L90 100L90 90L70 90z"/>
</svg>
