<?xml version="1.0" standalone="yes"?>
<svg xmlns="http://www.w3.org/2000/svg" width="100" height="100">
<path style="fill:#ffffff; stroke:none;" d="M0 0L0 40L10 40L10 10L30 10L30 0L0 0z"/>
<path style="fill:#000000; stroke:none;" d="M30 0L30 10L10 10L10 40L0 40L0 50L10 50L10 80L0 80L0 90L10 90L10 100L30 100L30 90L60 90L60 100L80 100L80 90L100 90L100 60L90 60L90 40L100 40L100 20L90 20L90 0L50 0L50 10L40 10L40 0L30 0z"/>
<path style="fill:#ffffff; stroke:none;" d="M40 0L40 10L50 10L50 0L40 0M90 0L90 20L100 20L100 0L90 0M20 20L20 80L80 80L80 20L20 20z"/>
<path style="fill:#000000; stroke:none;" d="M30 30L30 60L40 60L40 70L60 70L60 60L70 60L70 40L60 40L60 30L30 30z"/>
<path style="fill:#ffffff; stroke:none;" d="M50 40L50 50L40 50L40 60L50 60L50 50L60 50L60 40L50 40M90 40L90 60L100 60L100 40L90 40M0 50L0 80L10 80L10 50L0 50M0 90L0 100L10 100L10 90L0 90M30 90L30 100L60 100L60 90L30 90M80 90L80 100L100 100L100 90L80 90z"/>
</svg>
