<?xml version="1.0" standalone="yes"?>
<svg xmlns="http://www.w3.org/2000/svg" width="100" height="100">
<path style="fill:#ffffff; stroke:none;" d="M0 0L0 30L10 30L10 10L40 10L40 0L0 0z"/>
<path style="fill:#000000; stroke:none;" d="M40 0L40 10L10 10L10 30L0 30L0 40L10 40L10 80L0 80L0 100L20 100L20 90L60 90L60 100L70 100L70 90L90 90L90 80L100 80L100 60L90 60L90 50L100 50L100 0L90 0L90 10L50 10L50 0L40 0z"/>
<path style="fill:#ffffff; stroke:none;" d="M50 0L50 10L90 10L90 0L50 0M20 20L20 80L80 80L80 20L20 20z"/>
<path style="fill:#000000; stroke:none;" d="M40 30L40 40L30 40L30 50L40 50L40 60L50 60L50 50L60 50L60 60L70 60L70 50L60 50L60 30L40 30z"/>
<path style="fill:#ffffff; stroke:none;" d="M0 40L0 80L10 80L10 40L0 40M40 40L40 50L50 50L50 40L40 40M90 50L90 60L100 60L100 50L90 50M90 80L90 90L70 90L70 100L100 100L100 80L90 80M20 90L20 100L60 100L60 90L20 90z"/>
</svg>
