<?xml version="1.0" standalone="yes"?>
<svg xmlns="http://www.w3.org/2000/svg" width="100" height="100">
<path style="fill:#000000; stroke:none;" d="M0 0L0 10L10 10L10 20L0 20L0 30L10 30L10 40L0 40L0 50L10 50L10 60L0 60L0 70L10 70L10 80L0 80L0 100L10 100L10 90L40 90L40 100L60 100L60 90L90 90L90 80L100 80L100 60L90 60L90 50L100 50L100 40L90 40L90 0L80 0L80 10L70 10L70 0L40 0L40 10L10 10L10 0L0 0z"/>
<path style="fill:#ffffff; stroke:none;" d="M10 0L10 10L40 10L40 0L10 0M70 0L70 10L80 10L80 0L70 0M90 0L90 40L100 40L100 0L90 0M0 10L0 20L10 20L10 10L0 10M20 20L20 80L80 80L80 20L20 20M0 30L0 40L10 40L10 30L0 30z"/>
<path style="fill:#000000; stroke:none;" d="M30 30L30 40L70 40L70 30L30 30z"/>
<path style="fill:#ffffff; stroke:none;" d="M0 50L0 60L10 60L10 50L0 50M90 50L90 60L100 60L100 50L90 50z"/>
<path style="fill:#000000; stroke:none;" d="M30 60L30 70L50 70L50 60L30 60z"/>
<path style="fill:#ffffff; stroke:none;" d="M0 70L0 80L10 80L10 70L0 70M90 80L90 90L60 90L60 100L100 100L100 80L90 80M10 90L10 100L40 100L40 90L10 90z"/>
</svg>
