<?xml version="1.0" standalone="yes"?>
<svg xmlns="http://www.w3.org/2000/svg" width="100" height="100">
<path style="fill:#000000; stroke:none;" d="M0 0L0 20L10 20L10 40L0 40L0 60L10 60L10 80L0 80L0 100L30 100L30 90L70 90L70 100L80 100L80 90L100 90L100 80L90 80L90 40L100 40L100 30L90 30L90 0L80 0L80 10L70 10L70 0L40 0L40 10L30 10L30 0L20 0L20 10L10 10L10 0L0 0z"/>
<path style="fill:#ffffff; stroke:none;" d="M10 0L10 10L20 10L20 0L10 0M30 0L30 10L40 10L40 0L30 0M70 0L70 10L80 10L80 0L70 0M90 0L90 30L100 30L100 0L90 0M0 20L0 40L10 40L10 20L0 20M20 20L20 80L80 80L80 20L20 20z"/>
<path style="fill:#000000; stroke:none;" d="M40 30L40 40L30 40L30 70L50 70L50 60L70 60L70 30L60 30L60 40L50 40L50 30L40 30z"/>
<path style="fill:#ffffff; stroke:none;" d="M40 40L40 60L50 60L50 40L40 40M90 40L90 80L100 80L100 40L90 40M0 60L0 80L10 80L10 60L0 60M30 90L30 100L70 100L70 90L30 90M80 90L80 100L100 100L100 90L80 90z"/>
</svg>
