<?xml version="1.0" standalone="yes"?>
<svg xmlns="http://www.w3.org/2000/svg" width="100" height="100">
<path style="fill:#ffffff; stroke:none;" d="M0 0L0 40L10 40L10 0L0 0z"/>
<path style="fill:#000000; stroke:none;" d="M10 0L10 40L0 40L0 60L10 60L10 70L0 70L0 90L50 90L50 100L80 100L80 90L90 90L90 80L100 80L100 60L90 60L90 30L100 30L100 20L90 20L90 10L70 10L70 0L60 0L60 10L50 10L50 0L40 0L40 10L30 10L30 0L10 0z"/>
<path style="fill:#ffffff; stroke:none;" d="M30 0L30 10L40 10L40 0L30 0M50 0L50 10L60 10L60 0L50 0M70 0L70 10L90 10L90 20L100 20L100 0L70 0M20 20L20 80L80 80L80 20L20 20z"/>
<path style="fill:#000000; stroke:none;" d="M30 30L30 40L50 40L50 50L30 50L30 70L40 70L40 60L60 60L60 70L70 70L70 50L60 50L60 40L50 40L50 30L30 30z"/>
<path style="fill:#ffffff; stroke:none;" d="M90 30L90 60L100 60L100 30L90 30M0 60L0 70L10 70L10 60L0 60M90 80L90 90L80 90L80 100L100 100L100 80L90 80M0 90L0 100L50 100L50 90L0 90z"/>
</svg>
