<?xml version="1.0" standalone="yes"?>
<svg xmlns="http://www.w3.org/2000/svg" width="100" height="100">
<path style="fill:#ffffff; stroke:none;" d="M0 0L0 10L90 10L90 60L100 60L100 10L90 10L90 0L0 0z"/>
<path style="fill:#000000; stroke:none;" d="M90 0L90 10L100 10L100 0L90 0M0 10L0 50L10 50L10 60L0 60L0 100L50 100L50 90L100 90L100 80L90 80L90 70L100 70L100 60L90 60L90 10L0 10z"/>
<path style="fill:#ffffff; stroke:none;" d="M20 20L20 80L80 80L80 20L20 20z"/>
<path style="fill:#000000; stroke:none;" d="M40 30L40 40L50 40L50 50L60 50L60 60L50 60L50 70L60 70L60 60L70 60L70 30L60 30L60 40L50 40L50 30L40 30z"/>
<path style="fill:#ffffff; stroke:none;" d="M0 50L0 60L10 60L10 50L0 50M90 70L90 80L100 80L100 70L90 70M50 90L50 100L100 100L100 90L50 90z"/>
</svg>
