<?xml version="1.0" standalone="yes"?>
<svg xmlns="http://www.w3.org/2000/svg" width="100" height="100">
<path style="fill:#000000; stroke:none;" d="M0 0L0 10L10 10L10 40L0 40L0 80L10 80L10 100L30 100L30 90L40 90L40 100L50 100L50 90L90 90L90 100L100 100L100 90L90 90L90 70L100 70L100 10L90 10L90 0L70 0L70 10L40 10L40 0L30 0L30 10L10 10L10 0L0 0z"/>
<path style="fill:#ffffff; stroke:none;" d="M10 0L10 10L30 10L30 0L10 0M40 0L40 10L70 10L70 0L40 0M90 0L90 10L100 10L100 0L90 0M0 10L0 40L10 40L10 10L0 10M20 20L20 80L80 80L80 20L20 20z"/>
<path style="fill:#000000; stroke:none;" d="M60 30L60 50L30 50L30 60L60 60L60 70L70 70L70 30L60 30z"/>
<path style="fill:#ffffff; stroke:none;" d="M90 70L90 90L100 90L100 70L90 70M0 80L0 100L10 100L10 80L0 80M30 90L30 100L40 100L40 90L30 90M50 90L50 100L90 100L90 90L50 90z"/>
</svg>
