<?xml version="1.0" standalone="yes"?>
<svg xmlns="http://www.w3.org/2000/svg" width="100" height="100">
<path style="fill:#000000; stroke:none;" d="M0 0L0 40L10 40L10 80L0 80L0 100L10 100L10 90L50 90L50 100L70 100L70 90L80 90L80 100L100 100L100 90L90 90L90 50L100 50L100 30L90 30L90 20L100 20L100 10L70 10L70 0L60 0L60 10L50 10L50 0L30 0L30 10L10 10L10 0L0 0z"/>
<path style="fill:#ffffff; stroke:none;" d="M10 0L10 10L30 10L30 0L10 0M50 0L50 10L60 10L60 0L50 0M70 0L70 10L100 10L100 0L70 0M20 20L20 80L80 80L80 20L20 20M90 20L90 30L100 30L100 20L90 20z"/>
<path style="fill:#000000; stroke:none;" d="M40 30L40 40L50 40L50 60L70 60L70 30L40 30z"/>
<path style="fill:#ffffff; stroke:none;" d="M0 40L0 80L10 80L10 40L0 40M90 50L90 90L100 90L100 50L90 50z"/>
<path style="fill:#000000; stroke:none;" d="M30 60L30 70L40 70L40 60L30 60z"/>
<path style="fill:#ffffff; stroke:none;" d="M10 90L10 100L50 100L50 90L10 90M70 90L70 100L80 100L80 90L70 90z"/>
</svg>
