<?xml version="1.0" standalone="yes"?>
<svg xmlns="http://www.w3.org/2000/svg" width="100" height="100">
<path style="fill:#000000; stroke:none;" d="M0 0L0 10L10 10L10 30L0 30L0 70L10 70L10 80L0 80L0 90L40 90L40 100L60 100L60 90L70 90L70 100L80 100L80 90L100 90L100 70L90 70L90 50L100 50L100 40L90 40L90 10L100 10L100 0L90 0L90 10L60 10L60 0L50 0L50 10L40 10L40 0L30 0L30 10L20 10L20 0L0 0z"/>
<path style="fill:#ffffff; stroke:none;" d="M20 0L20 10L30 10L30 0L20 0M40 0L40 10L50 10L50 0L40 0M60 0L60 10L90 10L90 0L60 0M0 10L0 30L10 30L10 10L0 10M90 10L90 40L100 40L100 10L90 10M20 20L20 80L80 80L80 20L20 20z"/>
<path style="fill:#000000; stroke:none;" d="M60 30L60 40L70 40L70 30L60 30M30 40L30 50L50 50L50 70L70 70L70 50L50 50L50 40L30 40z"/>
<path style="fill:#ffffff; stroke:none;" d="M90 50L90 70L100 70L100 50L90 50M0 70L0 80L10 80L10 70L0 70M0 90L0 100L40 100L40 90L0 90M60 90L60 100L70 100L70 90L60 90M80 90L80 100L100 100L100 90L80 90z"/>
</svg>
