<?xml version="1.0" standalone="yes"?>
<svg xmlns="http://www.w3.org/2000/svg" width="100" height="100">
<path style="fill:#000000; stroke:none;" d="M0 0L0 10L10 10L10 80L0 80L0 100L10 100L10 90L30 90L30 100L80 100L80 90L90 90L90 0L60 0L60 10L40 10L40 0L20 0L20 10L10 10L10 0L0 0z"/>
<path style="fill:#ffffff; stroke:none;" d="M10 0L10 10L20 10L20 0L10 0M40 0L40 10L60 10L60 0L40 0M90 0L90 90L80 90L80 100L100 100L100 0L90 0M0 10L0 80L10 80L10 10L0 10M20 20L20 80L80 80L80 20L20 20z"/>
<path style="fill:#000000; stroke:none;" d="M30 30L30 50L40 50L40 40L50 40L50 30L30 30M60 40L60 60L70 60L70 40L60 40M40 60L40 70L50 70L50 60L40 60z"/>
<path style="fill:#ffffff; stroke:none;" d="M10 90L10 100L30 100L30 90L10 90z"/>
</svg>
