<?xml version="1.0" standalone="yes"?>
<svg xmlns="http://www.w3.org/2000/svg" width="100" height="100">
<path style="fill:#ffffff; stroke:none;" d="M0 0L0 60L10 60L10 0L0 0z"/>
<path style="fill:#000000; stroke:none;" d="M10 0L10 60L0 60L0 70L10 70L10 90L0 90L0 100L30 100L30 90L50 90L50 100L60 100L60 90L90 90L90 100L100 100L100 90L90 90L90 80L100 80L100 30L90 30L90 10L80 10L80 0L60 0L60 10L40 10L40 0L10 0z"/>
<path style="fill:#ffffff; stroke:none;" d="M40 0L40 10L60 10L60 0L40 0M80 0L80 10L90 10L90 30L100 30L100 0L80 0M20 20L20 80L80 80L80 20L20 20z"/>
<path style="fill:#000000; stroke:none;" d="M40 30L40 40L50 40L50 50L40 50L40 60L30 60L30 70L50 70L50 60L70 60L70 50L60 50L60 30L40 30z"/>
<path style="fill:#ffffff; stroke:none;" d="M0 70L0 90L10 90L10 70L0 70M90 80L90 90L100 90L100 80L90 80M30 90L30 100L50 100L50 90L30 90M60 90L60 100L90 100L90 90L60 90z"/>
</svg>
