<?xml version="1.0" standalone="yes"?>
<svg xmlns="http://www.w3.org/2000/svg" width="100" height="100">
<path style="fill:#000000; stroke:none;" d="M0 0L0 10L10 10L10 40L0 40L0 70L10 70L10 90L0 90L0 100L20 100L20 90L30 90L30 100L40 100L40 90L70 90L70 100L80 100L80 90L90 90L90 70L100 70L100 40L90 40L90 20L100 20L100 0L0 0z"/>
<path style="fill:#ffffff; stroke:none;" d="M0 10L0 40L10 40L10 10L0 10M20 20L20 80L80 80L80 20L20 20M90 20L90 40L100 40L100 20L90 20z"/>
<path style="fill:#000000; stroke:none;" d="M30 30L30 40L40 40L40 30L30 30M60 30L60 40L50 40L50 50L60 50L60 40L70 40L70 30L60 30M30 60L30 70L40 70L40 60L30 60M60 60L60 70L70 70L70 60L60 60z"/>
<path style="fill:#ffffff; stroke:none;" d="M0 70L0 90L10 90L10 70L0 70M90 70L90 90L80 90L80 100L100 100L100 70L90 70M20 90L20 100L30 100L30 90L20 90M40 90L40 100L70 100L70 90L40 90z"/>
</svg>
