<?xml version="1.0" standalone="yes"?>
<svg xmlns="http://www.w3.org/2000/svg" width="100" height="100">
<path style="fill:#ffffff; stroke:none;" d="M0 0L0 30L10 30L10 10L30 10L30 0L0 0z"/>
<path style="fill:#000000; stroke:none;" d="M30 0L30 10L10 10L10 30L0 30L0 40L10 40L10 70L0 70L0 100L10 100L10 90L40 90L40 100L50 100L50 90L80 90L80 100L100 100L100 80L90 80L90 70L100 70L100 60L90 60L90 50L100 50L100 40L90 40L90 30L100 30L100 10L80 10L80 0L60 0L60 10L40 10L40 0L30 0z"/>
<path style="fill:#ffffff; stroke:none;" d="M40 0L40 10L60 10L60 0L40 0M80 0L80 10L100 10L100 0L80 0M20 20L20 80L80 80L80 20L20 20z"/>
<path style="fill:#000000; stroke:none;" d="M60 30L60 40L50 40L50 50L30 50L30 60L50 60L50 50L60 50L60 70L70 70L70 50L60 50L60 40L70 40L70 30L60 30z"/>
<path style="fill:#ffffff; stroke:none;" d="M90 30L90 40L100 40L100 30L90 30M0 40L0 70L10 70L10 40L0 40M90 50L90 60L100 60L100 50L90 50M90 70L90 80L100 80L100 70L90 70M10 90L10 100L40 100L40 90L10 90M50 90L50 100L80 100L80 90L50 90z"/>
</svg>
