<?xml version="1.0" standalone="yes"?>
<svg xmlns="http://www.w3.org/2000/svg" width="100" height="100">
<path style="fill:#000000; stroke:none;" d="M0 0L0 10L10 10L10 40L0 40L0 50L10 50L10 60L0 60L0 90L10 90L10 100L20 100L20 90L30 90L30 100L50 100L50 90L100 90L100 80L90 80L90 70L100 70L100 50L90 50L90 20L100 20L100 0L90 0L90 10L70 10L70 0L50 0L50 10L30 10L30 0L0 0z"/>
<path style="fill:#ffffff; stroke:none;" d="M30 0L30 10L50 10L50 0L30 0M70 0L70 10L90 10L90 0L70 0M0 10L0 40L10 40L10 10L0 10M20 20L20 80L80 80L80 20L20 20M90 20L90 50L100 50L100 20L90 20z"/>
<path style="fill:#000000; stroke:none;" d="M30 30L30 70L40 70L40 60L60 60L60 70L70 70L70 60L60 60L60 50L70 50L70 30L30 30z"/>
<path style="fill:#ffffff; stroke:none;" d="M0 50L0 60L10 60L10 50L0 50M90 70L90 80L100 80L100 70L90 70M0 90L0 100L10 100L10 90L0 90M20 90L20 100L30 100L30 90L20 90M50 90L50 100L100 100L100 90L50 90z"/>
</svg>
