<?xml version="1.0" standalone="yes"?>
<svg xmlns="http://www.w3.org/2000/svg" width="100" height="100">
<path style="fill:#000000; stroke:none;" d="M0 0L0 10L10 10L10 40L0 40L0 50L10 50L10 60L0 60L0 70L10 70L10 80L0 80L0 100L40 100L40 90L50 90L50 100L60 100L60 90L70 90L70 100L80 100L80 90L100 90L100 80L90 80L90 70L100 70L100 30L90 30L90 0L80 0L80 10L60 10L60 0L50 0L50 10L30 10L30 0L20 0L20 10L10 10L10 0L0 0z"/>
<path style="fill:#ffffff; stroke:none;" d="M10 0L10 10L20 10L20 0L10 0M30 0L30 10L50 10L50 0L30 0M60 0L60 10L80 10L80 0L60 0M90 0L90 30L100 30L100 0L90 0M0 10L0 40L10 40L10 10L0 10M20 20L20 80L80 80L80 20L20 20z"/>
<path style="fill:#000000; stroke:none;" d="M30 30L30 50L50 50L50 40L40 40L40 30L30 30M60 30L60 40L70 40L70 30L60 30z"/>
<path style="fill:#ffffff; stroke:none;" d="M0 50L0 60L10 60L10 50L0 50z"/>
<path style="fill:#000000; stroke:none;" d="M60 50L60 60L50 60L50 70L60 70L60 60L70 60L70 50L60 50z"/>
<path style="fill:#ffffff; stroke:none;" d="M0 70L0 80L10 80L10 70L0 70M90 70L90 80L100 80L100 70L90 70M40 90L40 100L50 100L50 90L40 90M60 90L60 100L70 100L70 90L60 90M80 90L80 100L100 100L100 90L80 90z"/>
</svg>
