<?xml version="1.0" standalone="yes"?>
<svg xmlns="http://www.w3.org/2000/svg" width="100" height="100">
<path style="fill:#ffffff; stroke:none;" d="M0 0L0 10L10 10L10 0L0 0z"/>
<path style="fill:#000000; stroke:none;" d="M10 0L10 10L0 10L0 20L10 20L10 90L0 90L0 100L10 100L10 90L30 90L30 100L40 100L40 90L50 90L50 100L60 100L60 90L70 90L70 100L80 100L80 90L100 90L100 80L90 80L90 10L80 10L80 0L40 0L40 10L30 10L30 0L10 0z"/>
<path style="fill:#ffffff; stroke:none;" d="M30 0L30 10L40 10L40 0L30 0M80 0L80 10L90 10L90 80L100 80L100 0L80 0M0 20L0 90L10 90L10 20L0 20M20 20L20 80L80 80L80 20L20 20z"/>
<path style="fill:#000000; stroke:none;" d="M40 30L40 70L70 70L70 40L60 40L60 30L40 30z"/>
<path style="fill:#ffffff; stroke:none;" d="M10 90L10 100L30 100L30 90L10 90M40 90L40 100L50 100L50 90L40 90M60 90L60 100L70 100L70 90L60 90M80 90L80 100L100 100L100 90L80 90z"/>
</svg>
