<?xml version="1.0" standalone="yes"?>
<svg xmlns="http://www.w3.org/2000/svg" width="100" height="100">
<path style="fill:#ffffff; stroke:none;" d="M0 0L0 50L10 50L10 10L20 10L20 0L0 0z"/>
<path style="fill:#000000; stroke:none;" d="M20 0L20 10L10 10L10 50L0 50L0 70L10 70L10 80L0 80L0 90L50 90L50 100L80 100L80 90L90 90L90 80L100 80L100 50L90 50L90 40L100 40L100 0L80 0L80 10L70 10L70 0L60 0L60 10L40 10L40 0L20 0z"/>
<path style="fill:#ffffff; stroke:none;" d="M40 0L40 10L60 10L60 0L40 0M70 0L70 10L80 10L80 0L70 0M20 20L20 80L80 80L80 20L20 20z"/>
<path style="fill:#000000; stroke:none;" d="M30 30L30 40L40 40L40 60L30 60L30 70L70 70L70 40L60 40L60 30L50 30L50 40L40 40L40 30L30 30z"/>
<path style="fill:#ffffff; stroke:none;" d="M90 40L90 50L100 50L100 40L90 40M0 70L0 80L10 80L10 70L0 70M90 80L90 90L80 90L80 100L100 100L100 80L90 80M0 90L0 100L50 100L50 90L0 90z"/>
</svg>
