<?xml version="1.0" standalone="yes"?>
<svg xmlns="http://www.w3.org/2000/svg" width="100" height="100">
<path style="fill:#ffffff; stroke:none;" d="M0 0L0 40L10 40L10 0L0 0z"/>
<path style="fill:#000000; stroke:none;" d="M10 0L10 40L0 40L0 60L10 60L10 70L0 70L0 80L10 80L10 100L20 100L20 90L40 90L40 100L80 100L80 90L100 90L100 60L90 60L90 50L100 50L100 0L80 0L80 10L40 10L40 0L10 0z"/>
<path style="fill:#ffffff; stroke:none;" d="M40 0L40 10L80 10L80 0L40 0M20 20L20 80L80 80L80 20L20 20z"/>
<path style="fill:#000000; stroke:none;" d="M30 30L30 60L40 60L40 40L50 40L50 30L30 30M60 40L60 50L50 50L50 60L70 60L70 40L60 40z"/>
<path style="fill:#ffffff; stroke:none;" d="M90 50L90 60L100 60L100 50L90 50M0 60L0 70L10 70L10 60L0 60M0 80L0 100L10 100L10 80L0 80M20 90L20 100L40 100L40 90L20 90M80 90L80 100L100 100L100 90L80 90z"/>
</svg>
