<?xml version="1.0" standalone="yes"?>
<svg xmlns="http://www.w3.org/2000/svg" width="100" height="100">
<path style="fill:#000000; stroke:none;" d="M0 0L0 40L10 40L10 70L0 70L0 80L10 80L10 90L0 90L0 100L10 100L10 90L30 90L30 100L50 100L50 90L70 90L70 100L80 100L80 90L90 90L90 100L100 100L100 90L90 90L90 60L100 60L100 30L90 30L90 10L70 10L70 0L60 0L60 10L20 10L20 0L0 0z"/>
<path style="fill:#ffffff; stroke:none;" d="M20 0L20 10L60 10L60 0L20 0M70 0L70 10L90 10L90 30L100 30L100 0L70 0M20 20L20 80L80 80L80 20L20 20z"/>
<path style="fill:#000000; stroke:none;" d="M40 30L40 40L30 40L30 60L50 60L50 50L60 50L60 40L70 40L70 30L40 30z"/>
<path style="fill:#ffffff; stroke:none;" d="M0 40L0 70L10 70L10 40L0 40M40 40L40 50L50 50L50 40L40 40z"/>
<path style="fill:#000000; stroke:none;" d="M60 60L60 70L70 70L70 60L60 60z"/>
<path style="fill:#ffffff; stroke:none;" d="M90 60L90 90L100 90L100 60L90 60M0 80L0 90L10 90L10 80L0 80M10 90L10 100L30 100L30 90L10 90M50 90L50 100L70 100L70 90L50 90M80 90L80 100L90 100L90 90L80 90z"/>
</svg>
