<?xml version="1.0" standalone="yes"?>
<svg xmlns="http://www.w3.org/2000/svg" width="100" height="100">
<path style="fill:#000000; stroke:none;" d="M0 0L0 20L10 20L10 100L20 100L20 90L30 90L30 100L60 100L60 90L70 90L70 100L90 100L90 70L100 70L100 60L90 60L90 50L100 50L100 30L90 30L90 0L80 0L80 10L70 10L70 0L20 0L20 10L10 10L10 0L0 0z"/>
<path style="fill:#ffffff; stroke:none;" d="M10 0L10 10L20 10L20 0L10 0M70 0L70 10L80 10L80 0L70 0M90 0L90 30L100 30L100 0L90 0M0 20L0 100L10 100L10 20L0 20M20 20L20 80L80 80L80 20L20 20z"/>
<path style="fill:#000000; stroke:none;" d="M40 30L40 50L70 50L70 30L40 30z"/>
<path style="fill:#ffffff; stroke:none;" d="M90 50L90 60L100 60L100 50L90 50z"/>
<path style="fill:#000000; stroke:none;" d="M40 60L40 70L70 70L70 60L40 60z"/>
<path style="fill:#ffffff; stroke:none;" d="M90 70L90 100L100 100L100 70L90 70M20 90L20 100L30 100L30 90L20 90M60 90L60 100L70 100L70 90L60 90z"/>
</svg>
