<?xml version="1.0" standalone="yes"?>
<svg xmlns="http://www.w3.org/2000/svg" width="100" height="100">
<path style="fill:#000000; stroke:none;" d="M0 0L0 10L10 10L10 40L0 40L0 50L10 50L10 60L0 60L0 70L10 70L10 100L20 100L20 90L80 90L80 100L100 100L100 70L90 70L90 60L100 60L100 40L90 40L90 20L100 20L100 0L70 0L70 10L60 10L60 0L40 0L40 10L10 10L10 0L0 0z"/>
<path style="fill:#ffffff; stroke:none;" d="M10 0L10 10L40 10L40 0L10 0M60 0L60 10L70 10L70 0L60 0M0 10L0 40L10 40L10 10L0 10M20 20L20 80L80 80L80 20L20 20M90 20L90 40L100 40L100 20L90 20z"/>
<path style="fill:#000000; stroke:none;" d="M30 30L30 50L40 50L40 60L30 60L30 70L60 70L60 60L50 60L50 50L70 50L70 40L50 40L50 30L30 30z"/>
<path style="fill:#ffffff; stroke:none;" d="M0 50L0 60L10 60L10 50L0 50M90 60L90 70L100 70L100 60L90 60M0 70L0 100L10 100L10 70L0 70M20 90L20 100L80 100L80 90L20 90z"/>
</svg>
