<?xml version="1.0" standalone="yes"?>
<svg xmlns="http://www.w3.org/2000/svg" width="100" height="100">
<path style="fill:#000000; stroke:none;" d="M0 0L0 20L10 20L10 40L0 40L0 70L10 70L10 90L30 90L30 100L40 100L40 90L50 90L50 100L80 100L80 90L90 90L90 70L100 70L100 60L90 60L90 30L100 30L100 0L80 0L80 10L50 10L50 0L0 0z"/>
<path style="fill:#ffffff; stroke:none;" d="M50 0L50 10L80 10L80 0L50 0M0 20L0 40L10 40L10 20L0 20M20 20L20 80L80 80L80 20L20 20z"/>
<path style="fill:#000000; stroke:none;" d="M30 30L30 50L50 50L50 70L70 70L70 50L50 50L50 30L30 30z"/>
<path style="fill:#ffffff; stroke:none;" d="M90 30L90 60L100 60L100 30L90 30M0 70L0 100L30 100L30 90L10 90L10 70L0 70M90 70L90 90L80 90L80 100L100 100L100 70L90 70M40 90L40 100L50 100L50 90L40 90z"/>
</svg>
