<?xml version="1.0" standalone="yes"?>
<svg xmlns="http://www.w3.org/2000/svg" width="100" height="100">
<path style="fill:#000000; stroke:none;" d="M0 0L0 20L10 20L10 50L0 50L0 60L10 60L10 80L0 80L0 100L10 100L10 90L20 90L20 100L70 100L70 90L100 90L100 80L90 80L90 60L100 60L100 40L90 40L90 10L80 10L80 0L50 0L50 10L30 10L30 0L20 0L20 10L10 10L10 0L0 0z"/>
<path style="fill:#ffffff; stroke:none;" d="M10 0L10 10L20 10L20 0L10 0M30 0L30 10L50 10L50 0L30 0M80 0L80 10L90 10L90 40L100 40L100 0L80 0M0 20L0 50L10 50L10 20L0 20M20 20L20 80L80 80L80 20L20 20z"/>
<path style="fill:#000000; stroke:none;" d="M50 30L50 50L60 50L60 60L70 60L70 30L50 30M30 50L30 60L40 60L40 70L50 70L50 60L40 60L40 50L30 50z"/>
<path style="fill:#ffffff; stroke:none;" d="M0 60L0 80L10 80L10 60L0 60M90 60L90 80L100 80L100 60L90 60M10 90L10 100L20 100L20 90L10 90M70 90L70 100L100 100L100 90L70 90z"/>
</svg>
