<?xml version="1.0" standalone="yes"?>
<svg xmlns="http://www.w3.org/2000/svg" width="100" height="100">
<path style="fill:#ffffff; stroke:none;" d="M0 0L0 10L10 10L10 0L0 0z"/>
<path style="fill:#000000; stroke:none;" d="M10 0L10 10L0 10L0 30L10 30L10 50L0 50L0 70L10 70L10 80L0 80L0 90L10 90L10 100L20 100L20 90L30 90L30 100L40 100L40 90L60 90L60 100L80 100L80 90L90 90L90 40L100 40L100 20L90 20L90 0L80 0L80 10L50 10L50 0L40 0L40 10L20 10L20 0L10 0z"/>
<path style="fill:#ffffff; stroke:none;" d="M20 0L20 10L40 10L40 0L20 0M50 0L50 10L80 10L80 0L50 0M90 0L90 20L100 20L100 0L90 0M20 20L20 80L80 80L80 20L20 20M0 30L0 50L10 50L10 30L0 30z"/>
<path style="fill:#000000; stroke:none;" d="M30 30L30 40L40 40L40 30L30 30M50 30L50 40L60 40L60 30L50 30z"/>
<path style="fill:#ffffff; stroke:none;" d="M90 40L90 90L80 90L80 100L100 100L100 40L90 40z"/>
<path style="fill:#000000; stroke:none;" d="M30 50L30 70L40 70L40 60L70 60L70 50L30 50z"/>
<path style="fill:#ffffff; stroke:none;" d="M0 70L0 80L10 80L10 70L0 70M0 90L0 100L10 100L10 90L0 90M20 90L20 100L30 100L30 90L20 90M40 90L40 100L60 100L60 90L40 90z"/>
</svg>
