<?xml version="1.0" standalone="yes"?>
<svg xmlns="http://www.w3.org/2000/svg" width="100" height="100">
<path style="fill:#000000; stroke:none;" d="M0 0L0 10L10 10L10 30L0 30L0 90L20 90L20 100L30 100L30 90L40 90L40 100L50 100L50 90L70 90L70 100L80 100L80 90L90 90L90 80L100 80L100 50L90 50L90 30L100 30L100 0L90 0L90 10L70 10L70 0L60 0L60 10L40 10L40 0L20 0L20 10L10 10L10 0L0 0z"/>
<path style="fill:#ffffff; stroke:none;" d="M10 0L10 10L20 10L20 0L10 0M40 0L40 10L60 10L60 0L40 0M70 0L70 10L90 10L90 0L70 0M0 10L0 30L10 30L10 10L0 10M20 20L20 80L80 80L80 20L20 20z"/>
<path style="fill:#000000; stroke:none;" d="M30 30L30 40L40 40L40 30L30 30z"/>
<path style="fill:#ffffff; stroke:none;" d="M90 30L90 50L100 50L100 30L90 30z"/>
<path style="fill:#000000; stroke:none;" d="M60 40L60 50L30 50L30 70L60 70L60 60L70 60L70 40L60 40z"/>
<path style="fill:#ffffff; stroke:none;" d="M90 80L90 90L80 90L80 100L100 100L100 80L90 80M0 90L0 100L20 100L20 90L0 90M30 90L30 100L40 100L40 90L30 90M50 90L50 100L70 100L70 90L50 90z"/>
</svg>
