<?xml version="1.0" standalone="yes"?>
<svg xmlns="http://www.w3.org/2000/svg" width="100" height="100">
<path style="fill:#000000; stroke:none;" d="M0 0L0 10L10 10L10 30L0 30L0 70L10 70L10 90L0 90L0 100L20 100L20 90L60 90L60 100L70 100L70 90L90 90L90 80L100 80L100 60L90 60L90 50L100 50L100 30L90 30L90 0L80 0L80 10L70 10L70 0L40 0L40 10L10 10L10 0L0 0z"/>
<path style="fill:#ffffff; stroke:none;" d="M10 0L10 10L40 10L40 0L10 0M70 0L70 10L80 10L80 0L70 0M90 0L90 30L100 30L100 0L90 0M0 10L0 30L10 30L10 10L0 10M20 20L20 80L80 80L80 20L20 20z"/>
<path style="fill:#000000; stroke:none;" d="M30 30L30 60L40 60L40 40L50 40L50 30L30 30M60 30L60 40L70 40L70 30L60 30M60 50L60 70L70 70L70 50L60 50z"/>
<path style="fill:#ffffff; stroke:none;" d="M90 50L90 60L100 60L100 50L90 50M0 70L0 90L10 90L10 70L0 70M90 80L90 90L70 90L70 100L100 100L100 80L90 80M20 90L20 100L60 100L60 90L20 90z"/>
</svg>
