<?xml version="1.0" standalone="yes"?>
<svg xmlns="http://www.w3.org/2000/svg" width="100" height="100">
<path style="fill:#ffffff; stroke:none;" d="M0 0L0 10L50 10L50 0L0 0z"/>
<path style="fill:#000000; stroke:none;" d="M50 0L50 10L0 10L0 40L10 40L10 60L0 60L0 100L10 100L10 90L20 90L20 100L30 100L30 90L80 90L80 100L100 100L100 60L90 60L90 50L100 50L100 30L90 30L90 20L100 20L100 10L90 10L90 0L70 0L70 10L60 10L60 0L50 0z"/>
<path style="fill:#ffffff; stroke:none;" d="M60 0L60 10L70 10L70 0L60 0M90 0L90 10L100 10L100 0L90 0M20 20L20 80L80 80L80 20L20 20M90 20L90 30L100 30L100 20L90 20z"/>
<path style="fill:#000000; stroke:none;" d="M30 30L30 40L40 40L40 50L30 50L30 60L40 60L40 50L50 50L50 60L60 60L60 50L70 50L70 30L60 30L60 50L50 50L50 30L30 30z"/>
<path style="fill:#ffffff; stroke:none;" d="M0 40L0 60L10 60L10 40L0 40M90 50L90 60L100 60L100 50L90 50M10 90L10 100L20 100L20 90L10 90M30 90L30 100L80 100L80 90L30 90z"/>
</svg>
