<?xml version="1.0" standalone="yes"?>
<svg xmlns="http://www.w3.org/2000/svg" width="100" height="100">
<path style="fill:#000000; stroke:none;" d="M0 0L0 40L10 40L10 50L0 50L0 80L10 80L10 90L40 90L40 100L50 100L50 90L70 90L70 100L90 100L90 80L100 80L100 70L90 70L90 50L100 50L100 40L90 40L90 20L100 20L100 0L80 0L80 10L40 10L40 0L20 0L20 10L10 10L10 0L0 0z"/>
<path style="fill:#ffffff; stroke:none;" d="M10 0L10 10L20 10L20 0L10 0M40 0L40 10L80 10L80 0L40 0M20 20L20 80L80 80L80 20L20 20M90 20L90 40L100 40L100 20L90 20z"/>
<path style="fill:#000000; stroke:none;" d="M30 30L30 40L60 40L60 30L30 30z"/>
<path style="fill:#ffffff; stroke:none;" d="M0 40L0 50L10 50L10 40L0 40z"/>
<path style="fill:#000000; stroke:none;" d="M30 50L30 70L70 70L70 50L60 50L60 60L50 60L50 50L30 50z"/>
<path style="fill:#ffffff; stroke:none;" d="M90 50L90 70L100 70L100 50L90 50M0 80L0 100L40 100L40 90L10 90L10 80L0 80M90 80L90 100L100 100L100 80L90 80M50 90L50 100L70 100L70 90L50 90z"/>
</svg>
