<?xml version="1.0" standalone="yes"?>
<svg xmlns="http://www.w3.org/2000/svg" width="100" height="100">
<path style="fill:#ffffff; stroke:none;" d="M0 0L0 50L10 50L10 10L20 10L20 0L0 0z"/>
<path style="fill:#000000; stroke:none;" d="M20 0L20 10L10 10L10 50L0 50L0 60L10 60L10 80L0 80L0 100L20 100L20 90L60 90L60 100L80 100L80 90L100 90L100 80L90 80L90 60L100 60L100 0L70 0L70 10L60 10L60 0L40 0L40 10L30 10L30 0L20 0z"/>
<path style="fill:#ffffff; stroke:none;" d="M30 0L30 10L40 10L40 0L30 0M60 0L60 10L70 10L70 0L60 0M20 20L20 80L80 80L80 20L20 20z"/>
<path style="fill:#000000; stroke:none;" d="M30 30L30 40L50 40L50 50L40 50L40 70L60 70L60 60L70 60L70 40L50 40L50 30L30 30z"/>
<path style="fill:#ffffff; stroke:none;" d="M50 50L50 60L60 60L60 50L50 50M0 60L0 80L10 80L10 60L0 60M90 60L90 80L100 80L100 60L90 60M20 90L20 100L60 100L60 90L20 90M80 90L80 100L100 100L100 90L80 90z"/>
</svg>
