<?xml version="1.0" standalone="yes"?>
<svg xmlns="http://www.w3.org/2000/svg" width="100" height="100">
<path style="fill:#000000; stroke:none;" d="M0 0L0 10L10 10L10 70L0 70L0 80L10 80L10 90L0 90L0 100L10 100L10 90L20 90L20 100L70 100L70 90L80 90L80 100L90 100L90 90L100 90L100 60L90 60L90 50L100 50L100 0L50 0L50 10L40 10L40 0L0 0z"/>
<path style="fill:#ffffff; stroke:none;" d="M40 0L40 10L50 10L50 0L40 0M0 10L0 70L10 70L10 10L0 10M20 20L20 80L80 80L80 20L20 20z"/>
<path style="fill:#000000; stroke:none;" d="M60 30L60 40L30 40L30 50L40 50L40 60L30 60L30 70L40 70L40 60L50 60L50 70L70 70L70 60L60 60L60 40L70 40L70 30L60 30z"/>
<path style="fill:#ffffff; stroke:none;" d="M90 50L90 60L100 60L100 50L90 50M0 80L0 90L10 90L10 80L0 80M10 90L10 100L20 100L20 90L10 90M70 90L70 100L80 100L80 90L70 90M90 90L90 100L100 100L100 90L90 90z"/>
</svg>
