<?xml version="1.0" standalone="yes"?>
<svg xmlns="http://www.w3.org/2000/svg" width="100" height="100">
<path style="fill:#000000; stroke:none;" d="M0 0L0 80L10 80L10 100L30 100L30 90L50 90L50 100L70 100L70 90L80 90L80 100L100 100L100 90L90 90L90 40L100 40L100 30L90 30L90 10L50 10L50 0L20 0L20 10L10 10L10 0L0 0z"/>
<path style="fill:#ffffff; stroke:none;" d="M10 0L10 10L20 10L20 0L10 0M50 0L50 10L90 10L90 30L100 30L100 0L50 0M20 20L20 80L80 80L80 20L20 20z"/>
<path style="fill:#000000; stroke:none;" d="M30 30L30 40L40 40L40 50L50 50L50 30L30 30M60 30L60 60L40 60L40 70L70 70L70 30L60 30z"/>
<path style="fill:#ffffff; stroke:none;" d="M90 40L90 90L100 90L100 40L90 40M0 80L0 100L10 100L10 80L0 80M30 90L30 100L50 100L50 90L30 90M70 90L70 100L80 100L80 90L70 90z"/>
</svg>
