<?xml version="1.0" standalone="yes"?>
<svg xmlns="http://www.w3.org/2000/svg" width="100" height="100">
<path style="fill:#000000; stroke:none;" d="M0 0L0 10L10 10L10 20L0 20L0 40L10 40L10 50L0 50L0 70L10 70L10 90L60 90L60 100L70 100L70 90L90 90L90 100L100 100L100 70L90 70L90 60L100 60L100 50L90 50L90 20L100 20L100 10L90 10L90 0L70 0L70 10L30 10L30 0L0 0z"/>
<path style="fill:#ffffff; stroke:none;" d="M30 0L30 10L70 10L70 0L30 0M90 0L90 10L100 10L100 0L90 0M0 10L0 20L10 20L10 10L0 10M20 20L20 80L80 80L80 20L20 20M90 20L90 50L100 50L100 20L90 20z"/>
<path style="fill:#000000; stroke:none;" d="M50 30L50 40L40 40L40 50L30 50L30 70L60 70L60 60L50 60L50 40L60 40L60 30L50 30z"/>
<path style="fill:#ffffff; stroke:none;" d="M0 40L0 50L10 50L10 40L0 40M90 60L90 70L100 70L100 60L90 60M0 70L0 100L60 100L60 90L10 90L10 70L0 70M70 90L70 100L90 100L90 90L70 90z"/>
</svg>
