<?xml version="1.0" standalone="yes"?>
<svg xmlns="http://www.w3.org/2000/svg" width="100" height="100">
<path style="fill:#000000; stroke:none;" d="M0 0L0 10L10 10L10 30L0 30L0 40L10 40L10 90L0 90L0 100L10 100L10 90L30 90L30 100L60 100L60 90L100 90L100 70L90 70L90 60L100 60L100 30L90 30L90 20L100 20L100 0L90 0L90 10L70 10L70 0L60 0L60 10L10 10L10 0L0 0z"/>
<path style="fill:#ffffff; stroke:none;" d="M10 0L10 10L60 10L60 0L10 0M70 0L70 10L90 10L90 0L70 0M0 10L0 30L10 30L10 10L0 10M20 20L20 80L80 80L80 20L20 20M90 20L90 30L100 30L100 20L90 20z"/>
<path style="fill:#000000; stroke:none;" d="M40 30L40 40L50 40L50 50L30 50L30 60L40 60L40 70L50 70L50 50L60 50L60 60L70 60L70 50L60 50L60 30L40 30z"/>
<path style="fill:#ffffff; stroke:none;" d="M0 40L0 90L10 90L10 40L0 40M90 60L90 70L100 70L100 60L90 60M10 90L10 100L30 100L30 90L10 90M60 90L60 100L100 100L100 90L60 90z"/>
</svg>
