<?xml version="1.0" standalone="yes"?>
<svg xmlns="http://www.w3.org/2000/svg" width="100" height="100">
<path style="fill:#000000; stroke:none;" d="M0 0L0 20L10 20L10 40L0 40L0 90L10 90L10 100L20 100L20 90L50 90L50 100L70 100L70 90L90 90L90 100L100 100L100 70L90 70L90 50L100 50L100 30L90 30L90 20L100 20L100 0L20 0L20 10L10 10L10 0L0 0z"/>
<path style="fill:#ffffff; stroke:none;" d="M10 0L10 10L20 10L20 0L10 0M0 20L0 40L10 40L10 20L0 20M20 20L20 80L80 80L80 20L20 20M90 20L90 30L100 30L100 20L90 20z"/>
<path style="fill:#000000; stroke:none;" d="M50 30L50 50L40 50L40 40L30 40L30 50L40 50L40 60L50 60L50 70L60 70L60 60L70 60L70 50L60 50L60 40L70 40L70 30L50 30z"/>
<path style="fill:#ffffff; stroke:none;" d="M90 50L90 70L100 70L100 50L90 50M0 90L0 100L10 100L10 90L0 90M20 90L20 100L50 100L50 90L20 90M70 90L70 100L90 100L90 90L70 90z"/>
</svg>
