<?xml version="1.0" standalone="yes"?>
<svg xmlns="http://www.w3.org/2000/svg" width="100" height="100">
<path style="fill:#000000; stroke:none;" d="M0 0L0 10L10 10L10 40L0 40L0 60L10 60L10 70L0 70L0 100L10 100L10 90L30 90L30 100L40 100L40 90L80 90L80 100L90 100L90 40L100 40L100 30L90 30L90 10L80 10L80 0L70 0L70 10L10 10L10 0L0 0z"/>
<path style="fill:#ffffff; stroke:none;" d="M10 0L10 10L70 10L70 0L10 0M80 0L80 10L90 10L90 30L100 30L100 0L80 0M0 10L0 40L10 40L10 10L0 10M20 20L20 80L80 80L80 20L20 20z"/>
<path style="fill:#000000; stroke:none;" d="M40 30L40 50L30 50L30 70L40 70L40 60L50 60L50 50L60 50L60 60L70 60L70 50L60 50L60 40L70 40L70 30L60 30L60 40L50 40L50 30L40 30z"/>
<path style="fill:#ffffff; stroke:none;" d="M90 40L90 100L100 100L100 40L90 40M0 60L0 70L10 70L10 60L0 60M10 90L10 100L30 100L30 90L10 90M40 90L40 100L80 100L80 90L40 90z"/>
</svg>
