<?xml version="1.0" standalone="yes"?>
<svg xmlns="http://www.w3.org/2000/svg" width="100" height="100">
<path style="fill:#000000; stroke:none;" d="M0 0L0 30L10 30L10 80L0 80L0 90L20 90L20 100L100 100L100 90L90 90L90 80L100 80L100 40L90 40L90 10L100 10L100 0L90 0L90 10L60 10L60 0L30 0L30 10L10 10L10 0L0 0z"/>
<path style="fill:#ffffff; stroke:none;" d="M10 0L10 10L30 10L30 0L10 0M60 0L60 10L90 10L90 0L60 0M90 10L90 40L100 40L100 10L90 10M20 20L20 80L80 80L80 20L20 20M0 30L0 80L10 80L10 30L0 30z"/>
<path style="fill:#000000; stroke:none;" d="M40 30L40 50L60 50L60 60L70 60L70 50L60 50L60 30L40 30M30 60L30 70L40 70L40 60L30 60z"/>
<path style="fill:#ffffff; stroke:none;" d="M90 80L90 90L100 90L100 80L90 80M0 90L0 100L20 100L20 90L0 90z"/>
</svg>
