<?xml version="1.0" standalone="yes"?>
<svg xmlns="http://www.w3.org/2000/svg" width="100" height="100">
<path style="fill:#000000; stroke:none;" d="M0 0L0 10L10 10L10 40L0 40L0 50L10 50L10 100L30 100L30 90L40 90L40 100L60 100L60 90L90 90L90 100L100 100L100 80L90 80L90 70L100 70L100 50L90 50L90 20L100 20L100 0L60 0L60 10L50 10L50 0L30 0L30 10L10 10L10 0L0 0z"/>
<path style="fill:#ffffff; stroke:none;" d="M10 0L10 10L30 10L30 0L10 0M50 0L50 10L60 10L60 0L50 0M0 10L0 40L10 40L10 10L0 10M20 20L20 80L80 80L80 20L20 20M90 20L90 50L100 50L100 20L90 20z"/>
<path style="fill:#000000; stroke:none;" d="M40 30L40 40L50 40L50 50L40 50L40 60L30 60L30 70L40 70L40 60L50 60L50 50L70 50L70 30L40 30z"/>
<path style="fill:#ffffff; stroke:none;" d="M0 50L0 100L10 100L10 50L0 50M90 70L90 80L100 80L100 70L90 70M30 90L30 100L40 100L40 90L30 90M60 90L60 100L90 100L90 90L60 90z"/>
</svg>
