<?xml version="1.0" standalone="yes"?>
<svg xmlns="http://www.w3.org/2000/svg" width="100" height="100">
<path style="fill:#000000; stroke:none;" d="M0 0L0 60L10 60L10 90L0 90L0 100L20 100L20 90L30 90L30 100L40 100L40 90L90 90L90 60L100 60L100 50L90 50L90 10L80 10L80 0L70 0L70 10L50 10L50 0L0 0z"/>
<path style="fill:#ffffff; stroke:none;" d="M50 0L50 10L70 10L70 0L50 0M80 0L80 10L90 10L90 50L100 50L100 0L80 0M20 20L20 80L80 80L80 20L20 20z"/>
<path style="fill:#000000; stroke:none;" d="M30 30L30 50L40 50L40 30L30 30M50 30L50 50L70 50L70 30L50 30z"/>
<path style="fill:#ffffff; stroke:none;" d="M0 60L0 90L10 90L10 60L0 60z"/>
<path style="fill:#000000; stroke:none;" d="M30 60L30 70L70 70L70 60L30 60z"/>
<path style="fill:#ffffff; stroke:none;" d="M90 60L90 90L40 90L40 100L100 100L100 60L90 60M20 90L20 100L30 100L30 90L20 90z"/>
</svg>
