<?xml version="1.0" standalone="yes"?>
<svg xmlns="http://www.w3.org/2000/svg" width="100" height="100">
<path style="fill:#ffffff; stroke:none;" d="M0 0L0 40L10 40L10 10L40 10L40 0L0 0z"/>
<path style="fill:#000000; stroke:none;" d="M40 0L40 10L10 10L10 40L0 40L0 60L10 60L10 70L0 70L0 80L10 80L10 90L60 90L60 100L80 100L80 90L90 90L90 70L100 70L100 40L90 40L90 10L80 10L80 0L40 0z"/>
<path style="fill:#ffffff; stroke:none;" d="M80 0L80 10L90 10L90 40L100 40L100 0L80 0M20 20L20 80L80 80L80 20L20 20z"/>
<path style="fill:#000000; stroke:none;" d="M30 30L30 50L40 50L40 70L50 70L50 40L60 40L60 50L70 50L70 30L50 30L50 40L40 40L40 30L30 30z"/>
<path style="fill:#ffffff; stroke:none;" d="M0 60L0 70L10 70L10 60L0 60z"/>
<path style="fill:#000000; stroke:none;" d="M60 60L60 70L70 70L70 60L60 60z"/>
<path style="fill:#ffffff; stroke:none;" d="M90 70L90 90L80 90L80 100L100 100L100 70L90 70M0 80L0 100L60 100L60 90L10 90L10 80L0 80z"/>
</svg>
