<?xml version="1.0" standalone="yes"?>
<svg xmlns="http://www.w3.org/2000/svg" width="100" height="100">
<path style="fill:#ffffff; stroke:none;" d="M0 0L0 50L10 50L10 10L40 10L40 0L0 0z"/>
<path style="fill:#000000; stroke:none;" d="M40 0L40 10L10 10L10 50L0 50L0 70L10 70L10 100L40 100L40 90L50 90L50 100L60 100L60 90L90 90L90 100L100 100L100 90L90 90L90 40L100 40L100 20L90 20L90 10L100 10L100 0L70 0L70 10L60 10L60 0L40 0z"/>
<path style="fill:#ffffff; stroke:none;" d="M60 0L60 10L70 10L70 0L60 0M90 10L90 20L100 20L100 10L90 10M20 20L20 80L80 80L80 20L20 20z"/>
<path style="fill:#000000; stroke:none;" d="M40 30L40 50L50 50L50 60L60 60L60 70L70 70L70 50L60 50L60 30L40 30z"/>
<path style="fill:#ffffff; stroke:none;" d="M90 40L90 90L100 90L100 40L90 40M0 70L0 100L10 100L10 70L0 70M40 90L40 100L50 100L50 90L40 90M60 90L60 100L90 100L90 90L60 90z"/>
</svg>
