<?xml version="1.0" standalone="yes"?>
<svg xmlns="http://www.w3.org/2000/svg" width="100" height="100">
<path style="fill:#000000; stroke:none;" d="M0 0L0 10L10 10L10 20L0 20L0 30L10 30L10 40L0 40L0 50L10 50L10 60L0 60L0 70L10 70L10 90L30 90L30 100L50 100L50 90L80 90L80 100L100 100L100 70L90 70L90 40L100 40L100 30L90 30L90 20L100 20L100 10L20 10L20 0L0 0z"/>
<path style="fill:#ffffff; stroke:none;" d="M20 0L20 10L100 10L100 0L20 0M0 10L0 20L10 20L10 10L0 10M20 20L20 80L80 80L80 20L20 20M90 20L90 30L100 30L100 20L90 20M0 30L0 40L10 40L10 30L0 30z"/>
<path style="fill:#000000; stroke:none;" d="M50 30L50 40L30 40L30 50L50 50L50 60L70 60L70 50L60 50L60 30L50 30z"/>
<path style="fill:#ffffff; stroke:none;" d="M90 40L90 70L100 70L100 40L90 40M0 50L0 60L10 60L10 50L0 50z"/>
<path style="fill:#000000; stroke:none;" d="M30 60L30 70L40 70L40 60L30 60z"/>
<path style="fill:#ffffff; stroke:none;" d="M0 70L0 100L30 100L30 90L10 90L10 70L0 70M50 90L50 100L80 100L80 90L50 90z"/>
</svg>
