<?xml version="1.0" standalone="yes"?>
<svg xmlns="http://www.w3.org/2000/svg" width="100" height="100">
<path style="fill:#000000; stroke:none;" d="M0 0L0 30L10 30L10 40L0 40L0 50L10 50L10 70L0 70L0 90L20 90L20 100L30 100L30 90L50 90L50 100L100 100L100 90L90 90L90 60L100 60L100 30L90 30L90 10L100 10L100 0L40 0L40 10L30 10L30 0L20 0L20 10L10 10L10 0L0 0z"/>
<path style="fill:#ffffff; stroke:none;" d="M10 0L10 10L20 10L20 0L10 0M30 0L30 10L40 10L40 0L30 0M90 10L90 30L100 30L100 10L90 10M20 20L20 80L80 80L80 20L20 20M0 30L0 40L10 40L10 30L0 30z"/>
<path style="fill:#000000; stroke:none;" d="M30 30L30 70L70 70L70 30L60 30L60 40L50 40L50 30L30 30z"/>
<path style="fill:#ffffff; stroke:none;" d="M40 40L40 60L60 60L60 50L50 50L50 40L40 40M0 50L0 70L10 70L10 50L0 50M90 60L90 90L100 90L100 60L90 60M0 90L0 100L20 100L20 90L0 90M30 90L30 100L50 100L50 90L30 90z"/>
</svg>
