<?xml version="1.0" standalone="yes"?>
<svg xmlns="http://www.w3.org/2000/svg" width="100" height="100">
<path style="fill:#ffffff; stroke:none;" d="M0 0L0 20L10 20L10 10L60 10L60 0L0 0z"/>
<path style="fill:#000000; stroke:none;" d="M60 0L60 10L10 10L10 20L0 20L0 100L70 100L70 90L80 90L80 100L100 100L100 90L90 90L90 60L100 60L100 50L90 50L90 30L100 30L100 0L60 0z"/>
<path style="fill:#ffffff; stroke:none;" d="M20 20L20 80L80 80L80 20L20 20z"/>
<path style="fill:#000000; stroke:none;" d="M30 30L30 40L40 40L40 50L50 50L50 60L40 60L40 70L60 70L60 60L70 60L70 40L60 40L60 30L50 30L50 40L40 40L40 30L30 30z"/>
<path style="fill:#ffffff; stroke:none;" d="M90 30L90 50L100 50L100 30L90 30M50 40L50 50L60 50L60 40L50 40M90 60L90 90L100 90L100 60L90 60M70 90L70 100L80 100L80 90L70 90z"/>
</svg>
