<?xml version="1.0" standalone="yes"?>
<svg xmlns="http://www.w3.org/2000/svg" width="100" height="100">
<path style="fill:#000000; stroke:none;" d="M0 0L0 10L10 10L10 20L0 20L0 30L10 30L10 40L0 40L0 100L60 100L60 90L70 90L70 100L100 100L100 90L90 90L90 10L80 10L80 0L70 0L70 10L50 10L50 0L40 0L40 10L30 10L30 0L20 0L20 10L10 10L10 0L0 0z"/>
<path style="fill:#ffffff; stroke:none;" d="M10 0L10 10L20 10L20 0L10 0M30 0L30 10L40 10L40 0L30 0M50 0L50 10L70 10L70 0L50 0M80 0L80 10L90 10L90 90L100 90L100 0L80 0M0 10L0 20L10 20L10 10L0 10M20 20L20 80L80 80L80 20L20 20M0 30L0 40L10 40L10 30L0 30z"/>
<path style="fill:#000000; stroke:none;" d="M60 30L60 40L50 40L50 50L60 50L60 40L70 40L70 30L60 30M30 40L30 60L40 60L40 40L30 40M50 60L50 70L70 70L70 60L50 60z"/>
<path style="fill:#ffffff; stroke:none;" d="M60 90L60 100L70 100L70 90L60 90z"/>
</svg>
