<?xml version="1.0" standalone="yes"?>
<svg xmlns="http://www.w3.org/2000/svg" width="100" height="100">
<path style="fill:#000000; stroke:none;" d="M0 0L0 10L10 10L10 20L0 20L0 90L40 90L40 100L50 100L50 90L80 90L80 100L100 100L100 80L90 80L90 70L100 70L100 30L90 30L90 0L80 0L80 10L70 10L70 0L50 0L50 10L40 10L40 0L20 0L20 10L10 10L10 0L0 0z"/>
<path style="fill:#ffffff; stroke:none;" d="M10 0L10 10L20 10L20 0L10 0M40 0L40 10L50 10L50 0L40 0M70 0L70 10L80 10L80 0L70 0M90 0L90 30L100 30L100 0L90 0M0 10L0 20L10 20L10 10L0 10M20 20L20 80L80 80L80 20L20 20z"/>
<path style="fill:#000000; stroke:none;" d="M30 30L30 40L40 40L40 30L30 30M50 30L50 50L40 50L40 60L30 60L30 70L50 70L50 50L60 50L60 40L70 40L70 30L50 30z"/>
<path style="fill:#ffffff; stroke:none;" d="M90 70L90 80L100 80L100 70L90 70M0 90L0 100L40 100L40 90L0 90M50 90L50 100L80 100L80 90L50 90z"/>
</svg>
