<?xml version="1.0" standalone="yes"?>
<svg xmlns="http://www.w3.org/2000/svg" width="100" height="100">
<path style="fill:#000000; stroke:none;" d="M0 0L0 10L10 10L10 80L0 80L0 100L40 100L40 90L90 90L90 70L100 70L100 40L90 40L90 10L60 10L60 0L40 0L40 10L30 10L30 0L20 0L20 10L10 10L10 0L0 0z"/>
<path style="fill:#ffffff; stroke:none;" d="M10 0L10 10L20 10L20 0L10 0M30 0L30 10L40 10L40 0L30 0M60 0L60 10L90 10L90 40L100 40L100 0L60 0M0 10L0 80L10 80L10 10L0 10M20 20L20 80L80 80L80 20L20 20z"/>
<path style="fill:#000000; stroke:none;" d="M50 30L50 40L70 40L70 30L50 30M30 40L30 70L40 70L40 60L60 60L60 70L70 70L70 50L40 50L40 40L30 40z"/>
<path style="fill:#ffffff; stroke:none;" d="M90 70L90 90L40 90L40 100L100 100L100 70L90 70z"/>
</svg>
