<?xml version="1.0" standalone="yes"?>
<svg xmlns="http://www.w3.org/2000/svg" width="100" height="100">
<path style="fill:#000000; stroke:none;" d="M0 0L0 60L10 60L10 70L0 70L0 100L30 100L30 90L40 90L40 100L50 100L50 90L100 90L100 70L90 70L90 60L100 60L100 50L90 50L90 10L100 10L100 0L90 0L90 10L80 10L80 0L70 0L70 10L40 10L40 0L30 0L30 10L10 10L10 0L0 0z"/>
<path style="fill:#ffffff; stroke:none;" d="M10 0L10 10L30 10L30 0L10 0M40 0L40 10L70 10L70 0L40 0M80 0L80 10L90 10L90 0L80 0M90 10L90 50L100 50L100 10L90 10M20 20L20 80L80 80L80 20L20 20z"/>
<path style="fill:#000000; stroke:none;" d="M50 30L50 40L30 40L30 50L40 50L40 60L30 60L30 70L40 70L40 60L50 60L50 50L60 50L60 70L70 70L70 30L50 30z"/>
<path style="fill:#ffffff; stroke:none;" d="M0 60L0 70L10 70L10 60L0 60M90 60L90 70L100 70L100 60L90 60M30 90L30 100L40 100L40 90L30 90M50 90L50 100L100 100L100 90L50 90z"/>
</svg>
