<?xml version="1.0" standalone="yes"?>
<svg xmlns="http://www.w3.org/2000/svg" width="100" height="100">
<path style="fill:#000000; stroke:none;" d="M0 0L0 10L10 10L10 60L0 60L0 90L20 90L20 100L40 100L40 90L50 90L50 100L60 100L60 90L90 90L90 80L100 80L100 70L90 70L90 50L100 50L100 20L90 20L90 0L60 0L60 10L50 10L50 0L0 0z"/>
<path style="fill:#ffffff; stroke:none;" d="M50 0L50 10L60 10L60 0L50 0M90 0L90 20L100 20L100 0L90 0M0 10L0 60L10 60L10 10L0 10M20 20L20 80L80 80L80 20L20 20z"/>
<path style="fill:#000000; stroke:none;" d="M40 30L40 40L30 40L30 60L40 60L40 70L70 70L70 60L50 60L50 40L60 40L60 50L70 50L70 30L40 30z"/>
<path style="fill:#ffffff; stroke:none;" d="M90 50L90 70L100 70L100 50L90 50M90 80L90 90L60 90L60 100L100 100L100 80L90 80M0 90L0 100L20 100L20 90L0 90M40 90L40 100L50 100L50 90L40 90z"/>
</svg>
