<?xml version="1.0" standalone="yes"?>
<svg xmlns="http://www.w3.org/2000/svg" width="100" height="100">
<path style="fill:#ffffff; stroke:none;" d="M0 0L0 20L10 20L10 10L20 10L20 0L0 0z"/>
<path style="fill:#000000; stroke:none;" d="M20 0L20 10L10 10L10 20L0 20L0 30L10 30L10 70L0 70L0 100L10 100L10 90L20 90L20 100L50 100L50 90L60 90L60 100L90 100L90 50L100 50L100 20L90 20L90 10L100 10L100 0L20 0z"/>
<path style="fill:#ffffff; stroke:none;" d="M90 10L90 20L100 20L100 10L90 10M20 20L20 80L80 80L80 20L20 20M0 30L0 70L10 70L10 30L0 30z"/>
<path style="fill:#000000; stroke:none;" d="M30 30L30 40L40 40L40 60L30 60L30 70L40 70L40 60L50 60L50 40L60 40L60 50L70 50L70 40L60 40L60 30L50 30L50 40L40 40L40 30L30 30z"/>
<path style="fill:#ffffff; stroke:none;" d="M90 50L90 100L100 100L100 50L90 50M10 90L10 100L20 100L20 90L10 90M50 90L50 100L60 100L60 90L50 90z"/>
</svg>
