<?xml version="1.0" standalone="yes"?>
<svg xmlns="http://www.w3.org/2000/svg" width="100" height="100">
<path style="fill:#ffffff; stroke:none;" d="M0 0L0 30L10 30L10 10L20 10L20 0L0 0z"/>
<path style="fill:#000000; stroke:none;" d="M20 0L20 10L10 10L10 30L0 30L0 50L10 50L10 80L0 80L0 100L10 100L10 90L30 90L30 100L60 100L60 90L80 90L80 100L90 100L90 70L100 70L100 60L90 60L90 50L100 50L100 30L90 30L90 10L100 10L100 0L40 0L40 10L30 10L30 0L20 0z"/>
<path style="fill:#ffffff; stroke:none;" d="M30 0L30 10L40 10L40 0L30 0M90 10L90 30L100 30L100 10L90 10M20 20L20 80L80 80L80 20L20 20z"/>
<path style="fill:#000000; stroke:none;" d="M40 30L40 40L30 40L30 50L40 50L40 60L30 60L30 70L40 70L40 60L60 60L60 70L70 70L70 60L60 60L60 50L70 50L70 30L40 30z"/>
<path style="fill:#ffffff; stroke:none;" d="M40 40L40 50L50 50L50 40L40 40M0 50L0 80L10 80L10 50L0 50M90 50L90 60L100 60L100 50L90 50M90 70L90 100L100 100L100 70L90 70M10 90L10 100L30 100L30 90L10 90M60 90L60 100L80 100L80 90L60 90z"/>
</svg>
