<?xml version="1.0" standalone="yes"?>
<svg xmlns="http://www.w3.org/2000/svg" width="100" height="100">
<path style="fill:#000000; stroke:none;" d="M0 0L0 20L10 20L10 70L0 70L0 90L30 90L30 100L40 100L40 90L50 90L50 100L60 100L60 90L70 90L70 100L100 100L100 60L90 60L90 50L100 50L100 40L90 40L90 0L70 0L70 10L10 10L10 0L0 0z"/>
<path style="fill:#ffffff; stroke:none;" d="M10 0L10 10L70 10L70 0L10 0M90 0L90 40L100 40L100 0L90 0M0 20L0 70L10 70L10 20L0 20M20 20L20 80L80 80L80 20L20 20z"/>
<path style="fill:#000000; stroke:none;" d="M60 30L60 40L40 40L40 50L50 50L50 60L30 60L30 70L60 70L60 50L70 50L70 30L60 30z"/>
<path style="fill:#ffffff; stroke:none;" d="M90 50L90 60L100 60L100 50L90 50M0 90L0 100L30 100L30 90L0 90M40 90L40 100L50 100L50 90L40 90M60 90L60 100L70 100L70 90L60 90z"/>
</svg>
