<?xml version="1.0" standalone="yes"?>
<svg xmlns="http://www.w3.org/2000/svg" width="100" height="100">
<path style="fill:#000000; stroke:none;" d="M0 0L0 20L10 20L10 30L0 30L0 90L60 90L60 100L90 100L90 90L100 90L100 70L90 70L90 50L100 50L100 40L90 40L90 30L100 30L100 20L90 20L90 10L70 10L70 0L50 0L50 10L30 10L30 0L20 0L20 10L10 10L10 0L0 0z"/>
<path style="fill:#ffffff; stroke:none;" d="M10 0L10 10L20 10L20 0L10 0M30 0L30 10L50 10L50 0L30 0M70 0L70 10L90 10L90 20L100 20L100 0L70 0M0 20L0 30L10 30L10 20L0 20M20 20L20 80L80 80L80 20L20 20z"/>
<path style="fill:#000000; stroke:none;" d="M30 30L30 40L50 40L50 30L30 30z"/>
<path style="fill:#ffffff; stroke:none;" d="M90 30L90 40L100 40L100 30L90 30z"/>
<path style="fill:#000000; stroke:none;" d="M60 40L60 50L70 50L70 40L60 40M30 50L30 70L50 70L50 60L40 60L40 50L30 50z"/>
<path style="fill:#ffffff; stroke:none;" d="M90 50L90 70L100 70L100 50L90 50M0 90L0 100L60 100L60 90L0 90M90 90L90 100L100 100L100 90L90 90z"/>
</svg>
