<?xml version="1.0" standalone="yes"?>
<svg xmlns="http://www.w3.org/2000/svg" width="100" height="100">
<path style="fill:#000000; stroke:none;" d="M0 0L0 10L10 10L10 30L0 30L0 80L10 80L10 100L20 100L20 90L40 90L40 100L50 100L50 90L100 90L100 40L90 40L90 10L80 10L80 0L0 0z"/>
<path style="fill:#ffffff; stroke:none;" d="M80 0L80 10L90 10L90 40L100 40L100 0L80 0M0 10L0 30L10 30L10 10L0 10M20 20L20 80L80 80L80 20L20 20z"/>
<path style="fill:#000000; stroke:none;" d="M40 30L40 50L50 50L50 60L40 60L40 70L60 70L60 50L70 50L70 30L60 30L60 50L50 50L50 30L40 30z"/>
<path style="fill:#ffffff; stroke:none;" d="M0 80L0 100L10 100L10 80L0 80M20 90L20 100L40 100L40 90L20 90M50 90L50 100L100 100L100 90L50 90z"/>
</svg>
