<?xml version="1.0" standalone="yes"?>
<svg xmlns="http://www.w3.org/2000/svg" width="100" height="100">
<path style="fill:#ffffff; stroke:none;" d="M0 0L0 20L10 20L10 0L0 0z"/>
<path style="fill:#000000; stroke:none;" d="M10 0L10 20L0 20L0 40L10 40L10 50L0 50L0 100L20 100L20 90L60 90L60 100L90 100L90 70L100 70L100 20L90 20L90 0L80 0L80 10L70 10L70 0L60 0L60 10L50 10L50 0L30 0L30 10L20 10L20 0L10 0z"/>
<path style="fill:#ffffff; stroke:none;" d="M20 0L20 10L30 10L30 0L20 0M50 0L50 10L60 10L60 0L50 0M70 0L70 10L80 10L80 0L70 0M90 0L90 20L100 20L100 0L90 0M20 20L20 80L80 80L80 20L20 20z"/>
<path style="fill:#000000; stroke:none;" d="M40 30L40 40L50 40L50 50L40 50L40 70L60 70L60 60L50 60L50 50L60 50L60 30L40 30z"/>
<path style="fill:#ffffff; stroke:none;" d="M0 40L0 50L10 50L10 40L0 40M90 70L90 100L100 100L100 70L90 70M20 90L20 100L60 100L60 90L20 90z"/>
</svg>
