<?xml version="1.0" standalone="yes"?>
<svg xmlns="http://www.w3.org/2000/svg" width="100" height="100">
<path style="fill:#000000; stroke:none;" d="M0 0L0 10L10 10L10 20L0 20L0 50L10 50L10 90L0 90L0 100L60 100L60 90L70 90L70 100L80 100L80 90L100 90L100 60L90 60L90 50L100 50L100 30L90 30L90 20L100 20L100 10L80 10L80 0L60 0L60 10L50 10L50 0L40 0L40 10L30 10L30 0L20 0L20 10L10 10L10 0L0 0z"/>
<path style="fill:#ffffff; stroke:none;" d="M10 0L10 10L20 10L20 0L10 0M30 0L30 10L40 10L40 0L30 0M50 0L50 10L60 10L60 0L50 0M80 0L80 10L100 10L100 0L80 0M0 10L0 20L10 20L10 10L0 10M20 20L20 80L80 80L80 20L20 20M90 20L90 30L100 30L100 20L90 20z"/>
<path style="fill:#000000; stroke:none;" d="M40 30L40 50L30 50L30 70L50 70L50 30L40 30M60 30L60 70L70 70L70 30L60 30z"/>
<path style="fill:#ffffff; stroke:none;" d="M0 50L0 90L10 90L10 50L0 50M90 50L90 60L100 60L100 50L90 50M60 90L60 100L70 100L70 90L60 90M80 90L80 100L100 100L100 90L80 90z"/>
</svg>
