<?xml version="1.0" standalone="yes"?>
<svg xmlns="http://www.w3.org/2000/svg" width="100" height="100">
<path style="fill:#ffffff; stroke:none;" d="M0 0L0 40L10 40L10 10L30 10L30 0L0 0z"/>
<path style="fill:#000000; stroke:none;" d="M30 0L30 10L10 10L10 40L0 40L0 100L10 100L10 90L50 90L50 100L80 100L80 90L100 90L100 80L90 80L90 70L100 70L100 50L90 50L90 30L100 30L100 10L80 10L80 0L70 0L70 10L50 10L50 0L30 0z"/>
<path style="fill:#ffffff; stroke:none;" d="M50 0L50 10L70 10L70 0L50 0M80 0L80 10L100 10L100 0L80 0M20 20L20 80L80 80L80 20L20 20z"/>
<path style="fill:#000000; stroke:none;" d="M30 30L30 60L40 60L40 70L70 70L70 40L60 40L60 30L50 30L50 60L40 60L40 30L30 30z"/>
<path style="fill:#ffffff; stroke:none;" d="M90 30L90 50L100 50L100 30L90 30M90 70L90 80L100 80L100 70L90 70M10 90L10 100L50 100L50 90L10 90M80 90L80 100L100 100L100 90L80 90z"/>
</svg>
