<?xml version="1.0" standalone="yes"?>
<svg xmlns="http://www.w3.org/2000/svg" width="100" height="100">
<path style="fill:#000000; stroke:none;" d="M0 0L0 10L10 10L10 70L0 70L0 100L10 100L10 90L20 90L20 100L50 100L50 90L90 90L90 100L100 100L100 90L90 90L90 80L100 80L100 70L90 70L90 60L100 60L100 10L90 10L90 0L70 0L70 10L60 10L60 0L40 0L40 10L30 10L30 0L0 0z"/>
<path style="fill:#ffffff; stroke:none;" d="M30 0L30 10L40 10L40 0L30 0M60 0L60 10L70 10L70 0L60 0M90 0L90 10L100 10L100 0L90 0M0 10L0 70L10 70L10 10L0 10M20 20L20 80L80 80L80 20L20 20z"/>
<path style="fill:#000000; stroke:none;" d="M30 50L30 60L40 60L40 50L30 50M50 50L50 60L60 60L60 70L70 70L70 60L60 60L60 50L50 50z"/>
<path style="fill:#ffffff; stroke:none;" d="M90 60L90 70L100 70L100 60L90 60M90 80L90 90L100 90L100 80L90 80M10 90L10 100L20 100L20 90L10 90M50 90L50 100L90 100L90 90L50 90z"/>
</svg>
