<?xml version="1.0" standalone="yes"?>
<svg xmlns="http://www.w3.org/2000/svg" width="100" height="100">
<path style="fill:#000000; stroke:none;" d="M0 0L0 10L10 10L10 30L0 30L0 40L10 40L10 50L0 50L0 70L10 70L10 80L0 80L0 100L20 100L20 90L30 90L30 100L80 100L80 90L100 90L100 80L90 80L90 70L100 70L100 40L90 40L90 30L100 30L100 20L90 20L90 10L100 10L100 0L90 0L90 10L80 10L80 0L20 0L20 10L10 10L10 0L0 0z"/>
<path style="fill:#ffffff; stroke:none;" d="M10 0L10 10L20 10L20 0L10 0M80 0L80 10L90 10L90 0L80 0M0 10L0 30L10 30L10 10L0 10M90 10L90 20L100 20L100 10L90 10M20 20L20 80L80 80L80 20L20 20z"/>
<path style="fill:#000000; stroke:none;" d="M30 30L30 50L40 50L40 40L50 40L50 50L60 50L60 30L30 30z"/>
<path style="fill:#ffffff; stroke:none;" d="M90 30L90 40L100 40L100 30L90 30M0 40L0 50L10 50L10 40L0 40z"/>
<path style="fill:#000000; stroke:none;" d="M60 60L60 70L70 70L70 60L60 60z"/>
<path style="fill:#ffffff; stroke:none;" d="M0 70L0 80L10 80L10 70L0 70M90 70L90 80L100 80L100 70L90 70M20 90L20 100L30 100L30 90L20 90M80 90L80 100L100 100L100 90L80 90z"/>
</svg>
