<?xml version="1.0" standalone="yes"?>
<svg xmlns="http://www.w3.org/2000/svg" width="100" height="100">
<path style="fill:#ffffff; stroke:none;" d="M0 0L0 10L50 10L50 0L0 0z"/>
<path style="fill:#000000; stroke:none;" d="M50 0L50 10L0 10L0 20L10 20L10 60L0 60L0 80L10 80L10 100L20 100L20 90L30 90L30 100L70 100L70 90L80 90L80 100L100 100L100 90L90 90L90 80L100 80L100 70L90 70L90 50L100 50L100 0L50 0z"/>
<path style="fill:#ffffff; stroke:none;" d="M0 20L0 60L10 60L10 20L0 20M20 20L20 80L80 80L80 20L20 20z"/>
<path style="fill:#000000; stroke:none;" d="M50 30L50 40L40 40L40 50L50 50L50 40L60 40L60 60L70 60L70 40L60 40L60 30L50 30z"/>
<path style="fill:#ffffff; stroke:none;" d="M90 50L90 70L100 70L100 50L90 50z"/>
<path style="fill:#000000; stroke:none;" d="M30 60L30 70L50 70L50 60L30 60z"/>
<path style="fill:#ffffff; stroke:none;" d="M0 80L0 100L10 100L10 80L0 80M90 80L90 90L100 90L100 80L90 80M20 90L20 100L30 100L30 90L20 90M70 90L70 100L80 100L80 90L70 90z"/>
</svg>
