<?xml version="1.0" standalone="yes"?>
<svg xmlns="http://www.w3.org/2000/svg" width="100" height="100">
<path style="fill:#ffffff; stroke:none;" d="M0 0L0 40L10 40L10 10L40 10L40 0L0 0z"/>
<path style="fill:#000000; stroke:none;" d="M40 0L40 10L10 10L10 40L0 40L0 60L10 60L10 90L0 90L0 100L10 100L10 90L90 90L90 70L100 70L100 50L90 50L90 0L80 0L80 10L50 10L50 0L40 0z"/>
<path style="fill:#ffffff; stroke:none;" d="M50 0L50 10L80 10L80 0L50 0M90 0L90 50L100 50L100 0L90 0M20 20L20 80L80 80L80 20L20 20z"/>
<path style="fill:#000000; stroke:none;" d="M30 30L30 50L40 50L40 40L60 40L60 50L50 50L50 60L40 60L40 70L60 70L60 60L70 60L70 30L30 30z"/>
<path style="fill:#ffffff; stroke:none;" d="M0 60L0 90L10 90L10 60L0 60M90 70L90 90L10 90L10 100L100 100L100 70L90 70z"/>
</svg>
