<?xml version="1.0" standalone="yes"?>
<svg xmlns="http://www.w3.org/2000/svg" width="100" height="100">
<path style="fill:#ffffff; stroke:none;" d="M0 0L0 10L30 10L30 0L0 0z"/>
<path style="fill:#000000; stroke:none;" d="M30 0L30 10L0 10L0 50L10 50L10 90L30 90L30 100L40 100L40 90L60 90L60 100L70 100L70 90L80 90L80 100L100 100L100 70L90 70L90 20L100 20L100 0L70 0L70 10L60 10L60 0L30 0z"/>
<path style="fill:#ffffff; stroke:none;" d="M60 0L60 10L70 10L70 0L60 0M20 20L20 80L80 80L80 20L20 20M90 20L90 70L100 70L100 20L90 20z"/>
<path style="fill:#000000; stroke:none;" d="M50 30L50 50L40 50L40 60L30 60L30 70L50 70L50 60L60 60L60 30L50 30z"/>
<path style="fill:#ffffff; stroke:none;" d="M0 50L0 100L30 100L30 90L10 90L10 50L0 50M40 90L40 100L60 100L60 90L40 90M70 90L70 100L80 100L80 90L70 90z"/>
</svg>
