<?xml version="1.0" standalone="yes"?>
<svg xmlns="http://www.w3.org/2000/svg" width="100" height="100">
<path style="fill:#ffffff; stroke:none;" d="M0 0L0 10L10 10L10 0L0 0z"/>
<path style="fill:#000000; stroke:none;" d="M10 0L10 10L0 10L0 30L10 30L10 50L0 50L0 60L10 60L10 100L30 100L30 90L40 90L40 100L50 100L50 90L80 90L80 100L100 100L100 80L90 80L90 60L100 60L100 40L90 40L90 0L60 0L60 10L40 10L40 0L10 0z"/>
<path style="fill:#ffffff; stroke:none;" d="M40 0L40 10L60 10L60 0L40 0M90 0L90 40L100 40L100 0L90 0M20 20L20 80L80 80L80 20L20 20M0 30L0 50L10 50L10 30L0 30z"/>
<path style="fill:#000000; stroke:none;" d="M40 30L40 40L60 40L60 30L40 30M40 50L40 70L50 70L50 60L60 60L60 50L40 50z"/>
<path style="fill:#ffffff; stroke:none;" d="M0 60L0 100L10 100L10 60L0 60M90 60L90 80L100 80L100 60L90 60M30 90L30 100L40 100L40 90L30 90M50 90L50 100L80 100L80 90L50 90z"/>
</svg>
