<?xml version="1.0" standalone="yes"?>
<svg xmlns="http://www.w3.org/2000/svg" width="100" height="100">
<path style="fill:#000000; stroke:none;" d="M0 0L0 40L10 40L10 50L0 50L0 70L10 70L10 90L0 90L0 100L20 100L20 90L50 90L50 100L60 100L60 90L70 90L70 100L100 100L100 50L90 50L90 30L100 30L100 10L90 10L90 0L80 0L80 10L70 10L70 0L30 0L30 10L20 10L20 0L0 0z"/>
<path style="fill:#ffffff; stroke:none;" d="M20 0L20 10L30 10L30 0L20 0M70 0L70 10L80 10L80 0L70 0M90 0L90 10L100 10L100 0L90 0M20 20L20 80L80 80L80 20L20 20z"/>
<path style="fill:#000000; stroke:none;" d="M40 30L40 40L30 40L30 60L40 60L40 40L60 40L60 50L70 50L70 30L40 30z"/>
<path style="fill:#ffffff; stroke:none;" d="M90 30L90 50L100 50L100 30L90 30M0 40L0 50L10 50L10 40L0 40M0 70L0 90L10 90L10 70L0 70M20 90L20 100L50 100L50 90L20 90M60 90L60 100L70 100L70 90L60 90z"/>
</svg>
