<?xml version="1.0" standalone="yes"?>
<svg xmlns="http://www.w3.org/2000/svg" width="100" height="100">
<path style="fill:#ffffff; stroke:none;" d="M0 0L0 10L30 10L30 0L0 0z"/>
<path style="fill:#000000; stroke:none;" d="M30 0L30 10L0 10L0 30L10 30L10 40L0 40L0 50L10 50L10 90L0 90L0 100L10 100L10 90L30 90L30 100L60 100L60 90L90 90L90 100L100 100L100 60L90 60L90 50L100 50L100 30L90 30L90 20L100 20L100 0L50 0L50 10L40 10L40 0L30 0z"/>
<path style="fill:#ffffff; stroke:none;" d="M40 0L40 10L50 10L50 0L40 0M20 20L20 80L80 80L80 20L20 20M90 20L90 30L100 30L100 20L90 20M0 30L0 40L10 40L10 30L0 30z"/>
<path style="fill:#000000; stroke:none;" d="M30 30L30 50L50 50L50 60L60 60L60 70L70 70L70 60L60 60L60 50L50 50L50 40L70 40L70 30L50 30L50 40L40 40L40 30L30 30z"/>
<path style="fill:#ffffff; stroke:none;" d="M0 50L0 90L10 90L10 50L0 50M90 50L90 60L100 60L100 50L90 50z"/>
<path style="fill:#000000; stroke:none;" d="M30 60L30 70L40 70L40 60L30 60z"/>
<path style="fill:#ffffff; stroke:none;" d="M10 90L10 100L30 100L30 90L10 90M60 90L60 100L90 100L90 90L60 90z"/>
</svg>
