<?xml version="1.0" standalone="yes"?>
<svg xmlns="http://www.w3.org/2000/svg" width="100" height="100">
<path style="fill:#000000; stroke:none;" d="M0 0L0 10L10 10L10 20L0 20L0 40L10 40L10 50L0 50L0 70L10 70L10 80L0 80L0 90L20 90L20 100L30 100L30 90L50 90L50 100L70 100L70 90L90 90L90 100L100 100L100 90L90 90L90 10L10 10L10 0L0 0z"/>
<path style="fill:#ffffff; stroke:none;" d="M10 0L10 10L90 10L90 90L100 90L100 0L10 0M0 10L0 20L10 20L10 10L0 10M20 20L20 80L80 80L80 20L20 20z"/>
<path style="fill:#000000; stroke:none;" d="M60 30L60 40L70 40L70 30L60 30z"/>
<path style="fill:#ffffff; stroke:none;" d="M0 40L0 50L10 50L10 40L0 40z"/>
<path style="fill:#000000; stroke:none;" d="M30 50L30 70L40 70L40 60L50 60L50 70L60 70L60 60L50 60L50 50L30 50z"/>
<path style="fill:#ffffff; stroke:none;" d="M0 70L0 80L10 80L10 70L0 70M0 90L0 100L20 100L20 90L0 90M30 90L30 100L50 100L50 90L30 90M70 90L70 100L90 100L90 90L70 90z"/>
</svg>
