<?xml version="1.0" standalone="yes"?>
<svg xmlns="http://www.w3.org/2000/svg" width="100" height="100">
<path style="fill:#000000; stroke:none;" d="M0 0L0 30L10 30L10 50L0 50L0 100L10 100L10 90L30 90L30 100L60 100L60 90L80 90L80 100L90 100L90 80L100 80L100 60L90 60L90 20L100 20L100 0L90 0L90 10L80 10L80 0L70 0L70 10L50 10L50 0L30 0L30 10L20 10L20 0L0 0z"/>
<path style="fill:#ffffff; stroke:none;" d="M20 0L20 10L30 10L30 0L20 0M50 0L50 10L70 10L70 0L50 0M80 0L80 10L90 10L90 0L80 0M20 20L20 80L80 80L80 20L20 20M90 20L90 60L100 60L100 20L90 20M0 30L0 50L10 50L10 30L0 30z"/>
<path style="fill:#000000; stroke:none;" d="M40 30L40 40L50 40L50 70L70 70L70 50L60 50L60 40L50 40L50 30L40 30M30 50L30 70L40 70L40 50L30 50z"/>
<path style="fill:#ffffff; stroke:none;" d="M90 80L90 100L100 100L100 80L90 80M10 90L10 100L30 100L30 90L10 90M60 90L60 100L80 100L80 90L60 90z"/>
</svg>
