<?xml version="1.0" standalone="yes"?>
<svg xmlns="http://www.w3.org/2000/svg" width="100" height="100">
<path style="fill:#000000; stroke:none;" d="M0 0L0 10L10 10L10 20L0 20L0 30L10 30L10 80L0 80L0 100L10 100L10 90L20 90L20 100L50 100L50 90L70 90L70 100L80 100L80 90L100 90L100 70L90 70L90 60L100 60L100 30L90 30L90 20L100 20L100 10L50 10L50 0L40 0L40 10L30 10L30 0L0 0z"/>
<path style="fill:#ffffff; stroke:none;" d="M30 0L30 10L40 10L40 0L30 0M50 0L50 10L100 10L100 0L50 0M0 10L0 20L10 20L10 10L0 10M20 20L20 80L80 80L80 20L20 20M90 20L90 30L100 30L100 20L90 20M0 30L0 80L10 80L10 30L0 30z"/>
<path style="fill:#000000; stroke:none;" d="M40 40L40 50L50 50L50 70L70 70L70 40L60 40L60 50L50 50L50 40L40 40M30 60L30 70L40 70L40 60L30 60z"/>
<path style="fill:#ffffff; stroke:none;" d="M90 60L90 70L100 70L100 60L90 60M10 90L10 100L20 100L20 90L10 90M50 90L50 100L70 100L70 90L50 90M80 90L80 100L100 100L100 90L80 90z"/>
</svg>
