<?xml version="1.0" standalone="yes"?>
<svg xmlns="http://www.w3.org/2000/svg" width="100" height="100">
<path style="fill:#ffffff; stroke:none;" d="M0 0L0 10L30 10L30 0L0 0z"/>
<path style="fill:#000000; stroke:none;" d="M30 0L30 10L0 10L0 30L10 30L10 50L0 50L0 60L10 60L10 100L20 100L20 90L90 90L90 100L100 100L100 90L90 90L90 70L100 70L100 60L90 60L90 0L80 0L80 10L40 10L40 0L30 0z"/>
<path style="fill:#ffffff; stroke:none;" d="M40 0L40 10L80 10L80 0L40 0M90 0L90 60L100 60L100 0L90 0M20 20L20 80L80 80L80 20L20 20M0 30L0 50L10 50L10 30L0 30z"/>
<path style="fill:#000000; stroke:none;" d="M50 30L50 40L40 40L40 50L30 50L30 70L40 70L40 60L50 60L50 70L70 70L70 50L60 50L60 60L50 60L50 40L70 40L70 30L50 30z"/>
<path style="fill:#ffffff; stroke:none;" d="M0 60L0 100L10 100L10 60L0 60M90 70L90 90L100 90L100 70L90 70M20 90L20 100L90 100L90 90L20 90z"/>
</svg>
