<?xml version="1.0" standalone="yes"?>
<svg xmlns="http://www.w3.org/2000/svg" width="100" height="100">
<path style="fill:#ffffff; stroke:none;" d="M0 0L0 10L10 10L10 0L0 0z"/>
<path style="fill:#000000; stroke:none;" d="M10 0L10 10L0 10L0 30L10 30L10 50L0 50L0 60L10 60L10 80L0 80L0 100L10 100L10 90L30 90L30 100L50 100L50 90L70 90L70 100L100 100L100 60L90 60L90 50L100 50L100 40L90 40L90 0L70 0L70 10L60 10L60 0L40 0L40 10L20 10L20 0L10 0z"/>
<path style="fill:#ffffff; stroke:none;" d="M20 0L20 10L40 10L40 0L20 0M60 0L60 10L70 10L70 0L60 0M90 0L90 40L100 40L100 0L90 0M20 20L20 80L80 80L80 20L20 20M0 30L0 50L10 50L10 30L0 30z"/>
<path style="fill:#000000; stroke:none;" d="M50 30L50 40L40 40L40 50L50 50L50 60L40 60L40 70L70 70L70 40L60 40L60 30L50 30z"/>
<path style="fill:#ffffff; stroke:none;" d="M50 40L50 50L60 50L60 40L50 40M90 50L90 60L100 60L100 50L90 50M0 60L0 80L10 80L10 60L0 60M10 90L10 100L30 100L30 90L10 90M50 90L50 100L70 100L70 90L50 90z"/>
</svg>
