<?xml version="1.0" standalone="yes"?>
<svg xmlns="http://www.w3.org/2000/svg" width="100" height="100">
<path style="fill:#ffffff; stroke:none;" d="M0 0L0 40L10 40L10 0L0 0z"/>
<path style="fill:#000000; stroke:none;" d="M10 0L10 40L0 40L0 60L10 60L10 70L0 70L0 80L10 80L10 90L20 90L20 100L30 100L30 90L70 90L70 100L80 100L80 90L100 90L100 50L90 50L90 20L100 20L100 10L90 10L90 0L80 0L80 10L40 10L40 0L30 0L30 10L20 10L20 0L10 0z"/>
<path style="fill:#ffffff; stroke:none;" d="M20 0L20 10L30 10L30 0L20 0M40 0L40 10L80 10L80 0L40 0M90 0L90 10L100 10L100 0L90 0M20 20L20 80L80 80L80 20L20 20M90 20L90 50L100 50L100 20L90 20z"/>
<path style="fill:#000000; stroke:none;" d="M40 30L40 50L30 50L30 70L50 70L50 60L40 60L40 50L50 50L50 30L40 30z"/>
<path style="fill:#ffffff; stroke:none;" d="M0 60L0 70L10 70L10 60L0 60z"/>
<path style="fill:#000000; stroke:none;" d="M60 60L60 70L70 70L70 60L60 60z"/>
<path style="fill:#ffffff; stroke:none;" d="M0 80L0 100L20 100L20 90L10 90L10 80L0 80M30 90L30 100L70 100L70 90L30 90M80 90L80 100L100 100L100 90L80 90z"/>
</svg>
