<?xml version="1.0" standalone="yes"?>
<svg xmlns="http://www.w3.org/2000/svg" width="100" height="100">
<path style="fill:#000000; stroke:none;" d="M0 0L0 30L10 30L10 40L0 40L0 50L10 50L10 100L40 100L40 90L70 90L70 100L100 100L100 90L90 90L90 80L100 80L100 60L90 60L90 30L100 30L100 10L90 10L90 0L70 0L70 10L50 10L50 0L40 0L40 10L10 10L10 0L0 0z"/>
<path style="fill:#ffffff; stroke:none;" d="M10 0L10 10L40 10L40 0L10 0M50 0L50 10L70 10L70 0L50 0M90 0L90 10L100 10L100 0L90 0M20 20L20 80L80 80L80 20L20 20M0 30L0 40L10 40L10 30L0 30z"/>
<path style="fill:#000000; stroke:none;" d="M30 30L30 40L50 40L50 60L40 60L40 50L30 50L30 70L60 70L60 60L70 60L70 50L60 50L60 30L30 30z"/>
<path style="fill:#ffffff; stroke:none;" d="M90 30L90 60L100 60L100 30L90 30M0 50L0 100L10 100L10 50L0 50M90 80L90 90L100 90L100 80L90 80M40 90L40 100L70 100L70 90L40 90z"/>
</svg>
