<?xml version="1.0" standalone="yes"?>
<svg xmlns="http://www.w3.org/2000/svg" width="100" height="100">
<path style="fill:#ffffff; stroke:none;" d="M0 0L0 20L10 20L10 0L0 0z"/>
<path style="fill:#000000; stroke:none;" d="M10 0L10 20L0 20L0 60L10 60L10 70L0 70L0 100L10 100L10 90L30 90L30 100L40 100L40 90L100 90L100 80L90 80L90 70L100 70L100 50L90 50L90 30L100 30L100 10L70 10L70 0L40 0L40 10L30 10L30 0L10 0z"/>
<path style="fill:#ffffff; stroke:none;" d="M30 0L30 10L40 10L40 0L30 0M70 0L70 10L100 10L100 0L70 0M20 20L20 80L80 80L80 20L20 20z"/>
<path style="fill:#000000; stroke:none;" d="M30 30L30 40L60 40L60 30L30 30z"/>
<path style="fill:#ffffff; stroke:none;" d="M90 30L90 50L100 50L100 30L90 30z"/>
<path style="fill:#000000; stroke:none;" d="M30 50L30 70L40 70L40 60L50 60L50 50L30 50z"/>
<path style="fill:#ffffff; stroke:none;" d="M0 60L0 70L10 70L10 60L0 60M90 70L90 80L100 80L100 70L90 70M10 90L10 100L30 100L30 90L10 90M40 90L40 100L100 100L100 90L40 90z"/>
</svg>
