<?xml version="1.0" standalone="yes"?>
<svg xmlns="http://www.w3.org/2000/svg" width="100" height="100">
<path style="fill:#000000; stroke:none;" d="M0 0L0 10L10 10L10 40L0 40L0 60L10 60L10 90L30 90L30 100L50 100L50 90L70 90L70 100L80 100L80 90L100 90L100 80L90 80L90 60L100 60L100 40L90 40L90 0L60 0L60 10L40 10L40 0L30 0L30 10L10 10L10 0L0 0z"/>
<path style="fill:#ffffff; stroke:none;" d="M10 0L10 10L30 10L30 0L10 0M40 0L40 10L60 10L60 0L40 0M90 0L90 40L100 40L100 0L90 0M0 10L0 40L10 40L10 10L0 10M20 20L20 80L80 80L80 20L20 20z"/>
<path style="fill:#000000; stroke:none;" d="M30 30L30 40L50 40L50 50L70 50L70 40L50 40L50 30L30 30z"/>
<path style="fill:#ffffff; stroke:none;" d="M0 60L0 100L30 100L30 90L10 90L10 60L0 60z"/>
<path style="fill:#000000; stroke:none;" d="M30 60L30 70L40 70L40 60L30 60M60 60L60 70L70 70L70 60L60 60z"/>
<path style="fill:#ffffff; stroke:none;" d="M90 60L90 80L100 80L100 60L90 60M50 90L50 100L70 100L70 90L50 90M80 90L80 100L100 100L100 90L80 90z"/>
</svg>
