<?xml version="1.0" standalone="yes"?>
<svg xmlns="http://www.w3.org/2000/svg" width="100" height="100">
<path style="fill:#000000; stroke:none;" d="M0 0L0 20L10 20L10 100L20 100L20 90L30 90L30 100L40 100L40 90L60 90L60 100L100 100L100 90L90 90L90 70L100 70L100 40L90 40L90 30L100 30L100 10L70 10L70 0L20 0L20 10L10 10L10 0L0 0z"/>
<path style="fill:#ffffff; stroke:none;" d="M10 0L10 10L20 10L20 0L10 0M70 0L70 10L100 10L100 0L70 0M0 20L0 100L10 100L10 20L0 20M20 20L20 80L80 80L80 20L20 20z"/>
<path style="fill:#000000; stroke:none;" d="M40 30L40 40L30 40L30 50L40 50L40 60L30 60L30 70L40 70L40 60L50 60L50 70L60 70L60 60L70 60L70 30L40 30z"/>
<path style="fill:#ffffff; stroke:none;" d="M90 30L90 40L100 40L100 30L90 30M40 40L40 50L50 50L50 60L60 60L60 50L50 50L50 40L40 40M90 70L90 90L100 90L100 70L90 70M20 90L20 100L30 100L30 90L20 90M40 90L40 100L60 100L60 90L40 90z"/>
</svg>
