<?xml version="1.0" standalone="yes"?>
<svg xmlns="http://www.w3.org/2000/svg" width="100" height="100">
<path style="fill:#ffffff; stroke:none;" d="M0 0L0 40L10 40L10 0L0 0z"/>
<path style="fill:#000000; stroke:none;" d="M10 0L10 40L0 40L0 50L10 50L10 60L0 60L0 80L10 80L10 100L50 100L50 90L60 90L60 100L80 100L80 90L100 90L100 80L90 80L90 70L100 70L100 60L90 60L90 50L100 50L100 0L80 0L80 10L70 10L70 0L50 0L50 10L30 10L30 0L10 0z"/>
<path style="fill:#ffffff; stroke:none;" d="M30 0L30 10L50 10L50 0L30 0M70 0L70 10L80 10L80 0L70 0M20 20L20 80L80 80L80 20L20 20z"/>
<path style="fill:#000000; stroke:none;" d="M30 30L30 40L40 40L40 30L30 30M50 30L50 50L40 50L40 60L30 60L30 70L50 70L50 50L70 50L70 30L50 30z"/>
<path style="fill:#ffffff; stroke:none;" d="M0 50L0 60L10 60L10 50L0 50M90 50L90 60L100 60L100 50L90 50M90 70L90 80L100 80L100 70L90 70M0 80L0 100L10 100L10 80L0 80M50 90L50 100L60 100L60 90L50 90M80 90L80 100L100 100L100 90L80 90z"/>
</svg>
