<?xml version="1.0" standalone="yes"?>
<svg xmlns="http://www.w3.org/2000/svg" width="100" height="100">
<path style="fill:#ffffff; stroke:none;" d="M0 0L0 20L10 20L10 10L20 10L20 0L0 0z"/>
<path style="fill:#000000; stroke:none;" d="M20 0L20 10L10 10L10 20L0 20L0 40L10 40L10 100L30 100L30 90L90 90L90 100L100 100L100 90L90 90L90 70L100 70L100 60L90 60L90 30L100 30L100 10L70 10L70 0L40 0L40 10L30 10L30 0L20 0z"/>
<path style="fill:#ffffff; stroke:none;" d="M30 0L30 10L40 10L40 0L30 0M70 0L70 10L100 10L100 0L70 0M20 20L20 80L80 80L80 20L20 20z"/>
<path style="fill:#000000; stroke:none;" d="M30 30L30 40L40 40L40 30L30 30M50 30L50 40L60 40L60 50L70 50L70 40L60 40L60 30L50 30z"/>
<path style="fill:#ffffff; stroke:none;" d="M90 30L90 60L100 60L100 30L90 30M0 40L0 100L10 100L10 40L0 40z"/>
<path style="fill:#000000; stroke:none;" d="M40 50L40 70L50 70L50 50L40 50z"/>
<path style="fill:#ffffff; stroke:none;" d="M90 70L90 90L100 90L100 70L90 70M30 90L30 100L90 100L90 90L30 90z"/>
</svg>
