<?xml version="1.0" standalone="yes"?>
<svg xmlns="http://www.w3.org/2000/svg" width="100" height="100">
<path style="fill:#000000; stroke:none;" d="M0 0L0 30L10 30L10 40L0 40L0 60L10 60L10 90L0 90L0 100L10 100L10 90L70 90L70 100L80 100L80 90L90 90L90 80L100 80L100 60L90 60L90 50L100 50L100 40L90 40L90 10L100 10L100 0L90 0L90 10L50 10L50 0L0 0z"/>
<path style="fill:#ffffff; stroke:none;" d="M50 0L50 10L90 10L90 0L50 0M90 10L90 40L100 40L100 10L90 10M20 20L20 80L80 80L80 20L20 20M0 30L0 40L10 40L10 30L0 30z"/>
<path style="fill:#000000; stroke:none;" d="M30 30L30 60L40 60L40 50L70 50L70 40L60 40L60 30L30 30z"/>
<path style="fill:#ffffff; stroke:none;" d="M90 50L90 60L100 60L100 50L90 50M0 60L0 90L10 90L10 60L0 60z"/>
<path style="fill:#000000; stroke:none;" d="M50 60L50 70L70 70L70 60L50 60z"/>
<path style="fill:#ffffff; stroke:none;" d="M90 80L90 90L80 90L80 100L100 100L100 80L90 80M10 90L10 100L70 100L70 90L10 90z"/>
</svg>
