<?xml version="1.0" standalone="yes"?>
<svg xmlns="http://www.w3.org/2000/svg" width="100" height="100">
<path style="fill:#000000; stroke:none;" d="M0 0L0 10L10 10L10 30L0 30L0 40L10 40L10 60L0 60L0 90L30 90L30 100L60 100L60 90L90 90L90 100L100 100L100 90L90 90L90 80L100 80L100 50L90 50L90 30L100 30L100 0L90 0L90 10L70 10L70 0L50 0L50 10L40 10L40 0L0 0z"/>
<path style="fill:#ffffff; stroke:none;" d="M40 0L40 10L50 10L50 0L40 0M70 0L70 10L90 10L90 0L70 0M0 10L0 30L10 30L10 10L0 10M20 20L20 80L80 80L80 20L20 20z"/>
<path style="fill:#000000; stroke:none;" d="M40 30L40 40L30 40L30 50L40 50L40 60L70 60L70 40L50 40L50 30L40 30z"/>
<path style="fill:#ffffff; stroke:none;" d="M90 30L90 50L100 50L100 30L90 30M0 40L0 60L10 60L10 40L0 40M40 40L40 50L50 50L50 40L40 40M90 80L90 90L100 90L100 80L90 80M0 90L0 100L30 100L30 90L0 90M60 90L60 100L90 100L90 90L60 90z"/>
</svg>
