<?xml version="1.0" standalone="yes"?>
<svg xmlns="http://www.w3.org/2000/svg" width="100" height="100">
<path style="fill:#000000; stroke:none;" d="M0 0L0 10L10 10L10 50L0 50L0 60L10 60L10 70L0 70L0 80L10 80L10 100L20 100L20 90L40 90L40 100L60 100L60 90L80 90L80 100L90 100L90 90L100 90L100 80L90 80L90 70L100 70L100 60L90 60L90 40L100 40L100 30L90 30L90 10L70 10L70 0L50 0L50 10L10 10L10 0L0 0z"/>
<path style="fill:#ffffff; stroke:none;" d="M10 0L10 10L50 10L50 0L10 0M70 0L70 10L90 10L90 30L100 30L100 0L70 0M0 10L0 50L10 50L10 10L0 10M20 20L20 80L80 80L80 20L20 20z"/>
<path style="fill:#000000; stroke:none;" d="M30 30L30 60L40 60L40 30L30 30M50 30L50 40L60 40L60 60L70 60L70 30L50 30z"/>
<path style="fill:#ffffff; stroke:none;" d="M90 40L90 60L100 60L100 40L90 40M0 60L0 70L10 70L10 60L0 60M90 70L90 80L100 80L100 70L90 70M0 80L0 100L10 100L10 80L0 80M20 90L20 100L40 100L40 90L20 90M60 90L60 100L80 100L80 90L60 90M90 90L90 100L100 100L100 90L90 90z"/>
</svg>
