<?xml version="1.0" standalone="yes"?>
<svg xmlns="http://www.w3.org/2000/svg" width="100" height="100">
<path style="fill:#000000; stroke:none;" d="M0 0L0 10L10 10L10 30L0 30L0 50L10 50L10 80L0 80L0 100L20 100L20 90L30 90L30 100L60 100L60 90L80 90L80 100L90 100L90 90L100 90L100 80L90 80L90 60L100 60L100 50L90 50L90 30L100 30L100 20L90 20L90 10L80 10L80 0L70 0L70 10L60 10L60 0L50 0L50 10L10 10L10 0L0 0z"/>
<path style="fill:#ffffff; stroke:none;" d="M10 0L10 10L50 10L50 0L10 0M60 0L60 10L70 10L70 0L60 0M80 0L80 10L90 10L90 20L100 20L100 0L80 0M0 10L0 30L10 30L10 10L0 10M20 20L20 80L80 80L80 20L20 20z"/>
<path style="fill:#000000; stroke:none;" d="M30 30L30 70L50 70L50 50L60 50L60 60L70 60L70 30L50 30L50 50L40 50L40 30L30 30z"/>
<path style="fill:#ffffff; stroke:none;" d="M90 30L90 50L100 50L100 30L90 30M0 50L0 80L10 80L10 50L0 50M90 60L90 80L100 80L100 60L90 60M20 90L20 100L30 100L30 90L20 90M60 90L60 100L80 100L80 90L60 90M90 90L90 100L100 100L100 90L90 90z"/>
</svg>
