<?xml version="1.0" standalone="yes"?>
<svg xmlns="http://www.w3.org/2000/svg" width="100" height="100">
<path style="fill:#000000; stroke:none;" d="M0 0L0 50L10 50L10 100L60 100L60 90L80 90L80 100L100 100L100 90L90 90L90 40L100 40L100 20L90 20L90 10L80 10L80 0L40 0L40 10L30 10L30 0L0 0z"/>
<path style="fill:#ffffff; stroke:none;" d="M30 0L30 10L40 10L40 0L30 0M80 0L80 10L90 10L90 20L100 20L100 0L80 0M20 20L20 80L80 80L80 20L20 20z"/>
<path style="fill:#000000; stroke:none;" d="M50 30L50 40L40 40L40 50L30 50L30 60L40 60L40 70L50 70L50 40L60 40L60 70L70 70L70 30L50 30z"/>
<path style="fill:#ffffff; stroke:none;" d="M90 40L90 90L100 90L100 40L90 40M0 50L0 100L10 100L10 50L0 50M60 90L60 100L80 100L80 90L60 90z"/>
</svg>
