<?xml version="1.0" standalone="yes"?>
<svg xmlns="http://www.w3.org/2000/svg" width="100" height="100">
<path style="fill:#000000; stroke:none;" d="M0 0L0 10L10 10L10 20L0 20L0 40L10 40L10 80L0 80L0 100L60 100L60 90L70 90L70 100L80 100L80 90L90 90L90 70L100 70L100 40L90 40L90 0L80 0L80 10L70 10L70 0L60 0L60 10L50 10L50 0L30 0L30 10L10 10L10 0L0 0z"/>
<path style="fill:#ffffff; stroke:none;" d="M10 0L10 10L30 10L30 0L10 0M50 0L50 10L60 10L60 0L50 0M70 0L70 10L80 10L80 0L70 0M90 0L90 40L100 40L100 0L90 0M0 10L0 20L10 20L10 10L0 10M20 20L20 80L80 80L80 20L20 20z"/>
<path style="fill:#000000; stroke:none;" d="M40 30L40 40L30 40L30 50L40 50L40 60L30 60L30 70L50 70L50 50L60 50L60 40L70 40L70 30L40 30z"/>
<path style="fill:#ffffff; stroke:none;" d="M0 40L0 80L10 80L10 40L0 40M40 40L40 50L50 50L50 40L40 40z"/>
<path style="fill:#000000; stroke:none;" d="M60 60L60 70L70 70L70 60L60 60z"/>
<path style="fill:#ffffff; stroke:none;" d="M90 70L90 90L80 90L80 100L100 100L100 70L90 70M60 90L60 100L70 100L70 90L60 90z"/>
</svg>
