<?xml version="1.0" standalone="yes"?>
<svg xmlns="http://www.w3.org/2000/svg" width="100" height="100">
<path style="fill:#000000; stroke:none;" d="M0 0L0 10L10 10L10 50L0 50L0 70L10 70L10 90L0 90L0 100L30 100L30 90L50 90L50 100L70 100L70 90L100 90L100 50L90 50L90 30L100 30L100 0L70 0L70 10L50 10L50 0L30 0L30 10L10 10L10 0L0 0z"/>
<path style="fill:#ffffff; stroke:none;" d="M10 0L10 10L30 10L30 0L10 0M50 0L50 10L70 10L70 0L50 0M0 10L0 50L10 50L10 10L0 10M20 20L20 80L80 80L80 20L20 20M90 30L90 50L100 50L100 30L90 30z"/>
<path style="fill:#000000; stroke:none;" d="M40 40L40 50L60 50L60 60L40 60L40 70L60 70L60 60L70 60L70 40L40 40z"/>
<path style="fill:#ffffff; stroke:none;" d="M0 70L0 90L10 90L10 70L0 70M30 90L30 100L50 100L50 90L30 90M70 90L70 100L100 100L100 90L70 90z"/>
</svg>
