<?xml version="1.0" standalone="yes"?>
<svg xmlns="http://www.w3.org/2000/svg" width="100" height="100">
<path style="fill:#000000; stroke:none;" d="M0 0L0 20L10 20L10 30L0 30L0 40L10 40L10 60L0 60L0 90L50 90L50 100L80 100L80 90L90 90L90 60L100 60L100 50L90 50L90 40L100 40L100 10L90 10L90 0L70 0L70 10L60 10L60 0L40 0L40 10L10 10L10 0L0 0z"/>
<path style="fill:#ffffff; stroke:none;" d="M10 0L10 10L40 10L40 0L10 0M60 0L60 10L70 10L70 0L60 0M90 0L90 10L100 10L100 0L90 0M0 20L0 30L10 30L10 20L0 20M20 20L20 80L80 80L80 20L20 20z"/>
<path style="fill:#000000; stroke:none;" d="M30 30L30 60L40 60L40 70L50 70L50 60L40 60L40 30L30 30M60 30L60 40L50 40L50 50L70 50L70 30L60 30z"/>
<path style="fill:#ffffff; stroke:none;" d="M0 40L0 60L10 60L10 40L0 40M90 40L90 50L100 50L100 40L90 40M90 60L90 90L80 90L80 100L100 100L100 60L90 60M0 90L0 100L50 100L50 90L0 90z"/>
</svg>
