<?xml version="1.0" standalone="yes"?>
<svg xmlns="http://www.w3.org/2000/svg" width="100" height="100">
<path style="fill:#000000; stroke:none;" d="M0 0L0 40L10 40L10 70L0 70L0 90L20 90L20 100L30 100L30 90L70 90L70 100L100 100L100 80L90 80L90 50L100 50L100 40L90 40L90 10L80 10L80 0L20 0L20 10L10 10L10 0L0 0z"/>
<path style="fill:#ffffff; stroke:none;" d="M10 0L10 10L20 10L20 0L10 0M80 0L80 10L90 10L90 40L100 40L100 0L80 0M20 20L20 80L80 80L80 20L20 20z"/>
<path style="fill:#000000; stroke:none;" d="M40 30L40 40L30 40L30 70L40 70L40 60L50 60L50 50L60 50L60 70L70 70L70 40L60 40L60 30L40 30z"/>
<path style="fill:#ffffff; stroke:none;" d="M0 40L0 70L10 70L10 40L0 40M40 40L40 50L50 50L50 40L40 40M90 50L90 80L100 80L100 50L90 50M0 90L0 100L20 100L20 90L0 90M30 90L30 100L70 100L70 90L30 90z"/>
</svg>
