<?xml version="1.0" standalone="yes"?>
<svg xmlns="http://www.w3.org/2000/svg" width="100" height="100">
<path style="fill:#ffffff; stroke:none;" d="M0 0L0 10L10 10L10 0L0 0z"/>
<path style="fill:#000000; stroke:none;" d="M10 0L10 10L0 10L0 20L10 20L10 30L0 30L0 40L10 40L10 80L0 80L0 100L10 100L10 90L20 90L20 100L30 100L30 90L40 90L40 100L50 100L50 90L90 90L90 100L100 100L100 90L90 90L90 80L100 80L100 60L90 60L90 10L100 10L100 0L80 0L80 10L70 10L70 0L60 0L60 10L40 10L40 0L10 0z"/>
<path style="fill:#ffffff; stroke:none;" d="M40 0L40 10L60 10L60 0L40 0M70 0L70 10L80 10L80 0L70 0M90 10L90 60L100 60L100 10L90 10M0 20L0 30L10 30L10 20L0 20M20 20L20 80L80 80L80 20L20 20z"/>
<path style="fill:#000000; stroke:none;" d="M30 30L30 40L50 40L50 30L30 30M60 30L60 70L70 70L70 30L60 30z"/>
<path style="fill:#ffffff; stroke:none;" d="M0 40L0 80L10 80L10 40L0 40z"/>
<path style="fill:#000000; stroke:none;" d="M30 50L30 70L50 70L50 60L40 60L40 50L30 50z"/>
<path style="fill:#ffffff; stroke:none;" d="M90 80L90 90L100 90L100 80L90 80M10 90L10 100L20 100L20 90L10 90M30 90L30 100L40 100L40 90L30 90M50 90L50 100L90 100L90 90L50 90z"/>
</svg>
