<?xml version="1.0" standalone="yes"?>
<svg xmlns="http://www.w3.org/2000/svg" width="100" height="100">
<path style="fill:#000000; stroke:none;" d="M0 0L0 10L10 10L10 20L0 20L0 60L10 60L10 80L0 80L0 90L10 90L10 100L20 100L20 90L30 90L30 100L90 100L90 70L100 70L100 60L90 60L90 50L100 50L100 10L70 10L70 0L40 0L40 10L30 10L30 0L20 0L20 10L10 10L10 0L0 0z"/>
<path style="fill:#ffffff; stroke:none;" d="M10 0L10 10L20 10L20 0L10 0M30 0L30 10L40 10L40 0L30 0M70 0L70 10L100 10L100 0L70 0M0 10L0 20L10 20L10 10L0 10M20 20L20 80L80 80L80 20L20 20z"/>
<path style="fill:#000000; stroke:none;" d="M50 30L50 70L60 70L60 60L70 60L70 50L60 50L60 40L70 40L70 30L50 30M30 50L30 60L40 60L40 50L30 50z"/>
<path style="fill:#ffffff; stroke:none;" d="M90 50L90 60L100 60L100 50L90 50M0 60L0 80L10 80L10 60L0 60M90 70L90 100L100 100L100 70L90 70M0 90L0 100L10 100L10 90L0 90M20 90L20 100L30 100L30 90L20 90z"/>
</svg>
