<?xml version="1.0" standalone="yes"?>
<svg xmlns="http://www.w3.org/2000/svg" width="100" height="100">
<path style="fill:#000000; stroke:none;" d="M0 0L0 30L10 30L10 50L0 50L0 90L30 90L30 100L40 100L40 90L50 90L50 100L60 100L60 90L80 90L80 100L100 100L100 90L90 90L90 80L100 80L100 50L90 50L90 40L100 40L100 0L90 0L90 10L80 10L80 0L30 0L30 10L10 10L10 0L0 0z"/>
<path style="fill:#ffffff; stroke:none;" d="M10 0L10 10L30 10L30 0L10 0M80 0L80 10L90 10L90 0L80 0M20 20L20 80L80 80L80 20L20 20M0 30L0 50L10 50L10 30L0 30z"/>
<path style="fill:#000000; stroke:none;" d="M30 30L30 60L40 60L40 50L50 50L50 70L70 70L70 50L50 50L50 40L40 40L40 30L30 30M60 30L60 40L70 40L70 30L60 30z"/>
<path style="fill:#ffffff; stroke:none;" d="M90 40L90 50L100 50L100 40L90 40M90 80L90 90L100 90L100 80L90 80M0 90L0 100L30 100L30 90L0 90M40 90L40 100L50 100L50 90L40 90M60 90L60 100L80 100L80 90L60 90z"/>
</svg>
