<?xml version="1.0" standalone="yes"?>
<svg xmlns="http://www.w3.org/2000/svg" width="100" height="100">
<path style="fill:#000000; stroke:none;" d="M0 0L0 50L10 50L10 80L0 80L0 100L20 100L20 90L40 90L40 100L70 100L70 90L90 90L90 100L100 100L100 90L90 90L90 60L100 60L100 50L90 50L90 30L100 30L100 10L70 10L70 0L0 0z"/>
<path style="fill:#ffffff; stroke:none;" d="M70 0L70 10L100 10L100 0L70 0M20 20L20 80L80 80L80 20L20 20M90 30L90 50L100 50L100 30L90 30z"/>
<path style="fill:#000000; stroke:none;" d="M30 40L30 60L60 60L60 70L70 70L70 60L60 60L60 50L70 50L70 40L60 40L60 50L50 50L50 40L30 40z"/>
<path style="fill:#ffffff; stroke:none;" d="M0 50L0 80L10 80L10 50L0 50M90 60L90 90L100 90L100 60L90 60M20 90L20 100L40 100L40 90L20 90M70 90L70 100L90 100L90 90L70 90z"/>
</svg>
