<?xml version="1.0" standalone="yes"?>
<svg xmlns="http://www.w3.org/2000/svg" width="100" height="100">
<path style="fill:#000000; stroke:none;" d="M0 0L0 30L10 30L10 40L0 40L0 70L10 70L10 80L0 80L0 100L20 100L20 90L50 90L50 100L80 100L80 90L100 90L100 80L90 80L90 60L100 60L100 50L90 50L90 20L100 20L100 0L90 0L90 10L50 10L50 0L40 0L40 10L30 10L30 0L20 0L20 10L10 10L10 0L0 0z"/>
<path style="fill:#ffffff; stroke:none;" d="M10 0L10 10L20 10L20 0L10 0M30 0L30 10L40 10L40 0L30 0M50 0L50 10L90 10L90 0L50 0M20 20L20 80L80 80L80 20L20 20M90 20L90 50L100 50L100 20L90 20M0 30L0 40L10 40L10 30L0 30z"/>
<path style="fill:#000000; stroke:none;" d="M30 30L30 50L40 50L40 70L60 70L60 50L50 50L50 30L30 30z"/>
<path style="fill:#ffffff; stroke:none;" d="M90 60L90 80L100 80L100 60L90 60M0 70L0 80L10 80L10 70L0 70M20 90L20 100L50 100L50 90L20 90M80 90L80 100L100 100L100 90L80 90z"/>
</svg>
