<?xml version="1.0" standalone="yes"?>
<svg xmlns="http://www.w3.org/2000/svg" width="100" height="100">
<path style="fill:#ffffff; stroke:none;" d="M0 0L0 40L10 40L10 10L20 10L20 0L0 0z"/>
<path style="fill:#000000; stroke:none;" d="M20 0L20 10L10 10L10 40L0 40L0 50L10 50L10 80L0 80L0 90L10 90L10 100L20 100L20 90L60 90L60 100L100 100L100 90L90 90L90 70L100 70L100 50L90 50L90 20L100 20L100 0L90 0L90 10L80 10L80 0L20 0z"/>
<path style="fill:#ffffff; stroke:none;" d="M80 0L80 10L90 10L90 0L80 0M20 20L20 80L80 80L80 20L20 20M90 20L90 50L100 50L100 20L90 20z"/>
<path style="fill:#000000; stroke:none;" d="M60 30L60 60L50 60L50 40L40 40L40 60L50 60L50 70L60 70L60 60L70 60L70 30L60 30z"/>
<path style="fill:#ffffff; stroke:none;" d="M0 50L0 80L10 80L10 50L0 50M90 70L90 90L100 90L100 70L90 70M0 90L0 100L10 100L10 90L0 90M20 90L20 100L60 100L60 90L20 90z"/>
</svg>
