<?xml version="1.0" standalone="yes"?>
<svg xmlns="http://www.w3.org/2000/svg" width="100" height="100">
<path style="fill:#000000; stroke:none;" d="M0 0L0 50L10 50L10 70L0 70L0 100L60 100L60 90L80 90L80 100L100 100L100 90L90 90L90 80L100 80L100 60L90 60L90 50L100 50L100 10L80 10L80 0L20 0L20 10L10 10L10 0L0 0z"/>
<path style="fill:#ffffff; stroke:none;" d="M10 0L10 10L20 10L20 0L10 0M80 0L80 10L100 10L100 0L80 0M20 20L20 80L80 80L80 20L20 20z"/>
<path style="fill:#000000; stroke:none;" d="M30 30L30 60L40 60L40 70L50 70L50 50L60 50L60 60L70 60L70 50L60 50L60 40L70 40L70 30L60 30L60 40L50 40L50 30L30 30z"/>
<path style="fill:#ffffff; stroke:none;" d="M40 40L40 50L50 50L50 40L40 40M0 50L0 70L10 70L10 50L0 50M90 50L90 60L100 60L100 50L90 50M90 80L90 90L100 90L100 80L90 80M60 90L60 100L80 100L80 90L60 90z"/>
</svg>
