<?xml version="1.0" standalone="yes"?>
<svg xmlns="http://www.w3.org/2000/svg" width="100" height="100">
<path style="fill:#000000; stroke:none;" d="M0 0L0 40L10 40L10 50L0 50L0 100L10 100L10 90L20 90L20 100L30 100L30 90L90 90L90 100L100 100L100 80L90 80L90 50L100 50L100 40L90 40L90 30L100 30L100 20L90 20L90 10L50 10L50 0L40 0L40 10L30 10L30 0L0 0z"/>
<path style="fill:#ffffff; stroke:none;" d="M30 0L30 10L40 10L40 0L30 0M50 0L50 10L90 10L90 20L100 20L100 0L50 0M20 20L20 80L80 80L80 20L20 20z"/>
<path style="fill:#000000; stroke:none;" d="M40 30L40 40L30 40L30 70L40 70L40 40L50 40L50 50L60 50L60 30L40 30z"/>
<path style="fill:#ffffff; stroke:none;" d="M90 30L90 40L100 40L100 30L90 30M0 40L0 50L10 50L10 40L0 40M90 50L90 80L100 80L100 50L90 50z"/>
<path style="fill:#000000; stroke:none;" d="M50 60L50 70L60 70L60 60L50 60z"/>
<path style="fill:#ffffff; stroke:none;" d="M10 90L10 100L20 100L20 90L10 90M30 90L30 100L90 100L90 90L30 90z"/>
</svg>
