<?xml version="1.0" standalone="yes"?>
<svg xmlns="http://www.w3.org/2000/svg" width="100" height="100">
<path style="fill:#000000; stroke:none;" d="M0 0L0 10L10 10L10 40L0 40L0 50L10 50L10 70L0 70L0 80L10 80L10 90L0 90L0 100L10 100L10 90L20 90L20 100L30 100L30 90L40 90L40 100L60 100L60 90L70 90L70 100L90 100L90 80L100 80L100 40L90 40L90 10L80 10L80 0L60 0L60 10L50 10L50 0L20 0L20 10L10 10L10 0L0 0z"/>
<path style="fill:#ffffff; stroke:none;" d="M10 0L10 10L20 10L20 0L10 0M50 0L50 10L60 10L60 0L50 0M80 0L80 10L90 10L90 40L100 40L100 0L80 0M0 10L0 40L10 40L10 10L0 10M20 20L20 80L80 80L80 20L20 20z"/>
<path style="fill:#000000; stroke:none;" d="M30 40L30 50L40 50L40 40L30 40M60 40L60 50L50 50L50 60L40 60L40 70L50 70L50 60L70 60L70 40L60 40z"/>
<path style="fill:#ffffff; stroke:none;" d="M0 50L0 70L10 70L10 50L0 50M0 80L0 90L10 90L10 80L0 80M90 80L90 100L100 100L100 80L90 80M10 90L10 100L20 100L20 90L10 90M30 90L30 100L40 100L40 90L30 90M60 90L60 100L70 100L70 90L60 90z"/>
</svg>
