<?xml version="1.0" standalone="yes"?>
<svg xmlns="http://www.w3.org/2000/svg" width="100" height="100">
<path style="fill:#ffffff; stroke:none;" d="M0 0L0 10L10 10L10 0L0 0z"/>
<path style="fill:#000000; stroke:none;" d="M10 0L10 10L0 10L0 30L10 30L10 60L0 60L0 70L10 70L10 90L20 90L20 100L40 100L40 90L50 90L50 100L100 100L100 60L90 60L90 40L100 40L100 10L80 10L80 0L70 0L70 10L50 10L50 0L40 0L40 10L30 10L30 0L10 0z"/>
<path style="fill:#ffffff; stroke:none;" d="M30 0L30 10L40 10L40 0L30 0M50 0L50 10L70 10L70 0L50 0M80 0L80 10L100 10L100 0L80 0M20 20L20 80L80 80L80 20L20 20M0 30L0 60L10 60L10 30L0 30z"/>
<path style="fill:#000000; stroke:none;" d="M30 40L30 50L40 50L40 60L30 60L30 70L40 70L40 60L50 60L50 50L60 50L60 40L30 40z"/>
<path style="fill:#ffffff; stroke:none;" d="M90 40L90 60L100 60L100 40L90 40z"/>
<path style="fill:#000000; stroke:none;" d="M60 60L60 70L70 70L70 60L60 60z"/>
<path style="fill:#ffffff; stroke:none;" d="M0 70L0 100L20 100L20 90L10 90L10 70L0 70M40 90L40 100L50 100L50 90L40 90z"/>
</svg>
