<?xml version="1.0" standalone="yes"?>
<svg xmlns="http://www.w3.org/2000/svg" width="100" height="100">
<path style="fill:#ffffff; stroke:none;" d="M0 0L0 10L30 10L30 0L0 0z"/>
<path style="fill:#000000; stroke:none;" d="M30 0L30 10L0 10L0 20L10 20L10 40L0 40L0 50L10 50L10 90L30 90L30 100L40 100L40 90L50 90L50 100L60 100L60 90L90 90L90 80L100 80L100 70L90 70L90 30L100 30L100 0L80 0L80 10L40 10L40 0L30 0z"/>
<path style="fill:#ffffff; stroke:none;" d="M40 0L40 10L80 10L80 0L40 0M0 20L0 40L10 40L10 20L0 20M20 20L20 80L80 80L80 20L20 20z"/>
<path style="fill:#000000; stroke:none;" d="M30 30L30 60L40 60L40 70L60 70L60 60L70 60L70 40L50 40L50 30L30 30z"/>
<path style="fill:#ffffff; stroke:none;" d="M90 30L90 70L100 70L100 30L90 30M0 50L0 100L30 100L30 90L10 90L10 50L0 50M40 50L40 60L60 60L60 50L40 50M90 80L90 90L60 90L60 100L100 100L100 80L90 80M40 90L40 100L50 100L50 90L40 90z"/>
</svg>
