<?xml version="1.0" standalone="yes"?>
<svg xmlns="http://www.w3.org/2000/svg" width="100" height="100">
<path style="fill:#ffffff; stroke:none;" d="M0 0L0 20L10 20L10 0L0 0z"/>
<path style="fill:#000000; stroke:none;" d="M10 0L10 20L0 20L0 60L10 60L10 80L0 80L0 100L10 100L10 90L30 90L30 100L40 100L40 90L70 90L70 100L100 100L100 30L90 30L90 10L50 10L50 0L30 0L30 10L20 10L20 0L10 0z"/>
<path style="fill:#ffffff; stroke:none;" d="M20 0L20 10L30 10L30 0L20 0M50 0L50 10L90 10L90 30L100 30L100 0L50 0M20 20L20 80L80 80L80 20L20 20z"/>
<path style="fill:#000000; stroke:none;" d="M30 30L30 40L40 40L40 50L30 50L30 60L40 60L40 70L60 70L60 60L70 60L70 30L50 30L50 40L40 40L40 30L30 30z"/>
<path style="fill:#ffffff; stroke:none;" d="M50 40L50 60L60 60L60 40L50 40M0 60L0 80L10 80L10 60L0 60M10 90L10 100L30 100L30 90L10 90M40 90L40 100L70 100L70 90L40 90z"/>
</svg>
