<?xml version="1.0" standalone="yes"?>
<svg xmlns="http://www.w3.org/2000/svg" width="100" height="100">
<path style="fill:#000000; stroke:none;" d="M0 0L0 60L10 60L10 70L0 70L0 80L10 80L10 90L30 90L30 100L40 100L40 90L50 90L50 100L60 100L60 90L70 90L70 100L100 100L100 70L90 70L90 50L100 50L100 20L90 20L90 0L70 0L70 10L60 10L60 0L40 0L40 10L30 10L30 0L20 0L20 10L10 10L10 0L0 0z"/>
<path style="fill:#ffffff; stroke:none;" d="M10 0L10 10L20 10L20 0L10 0M30 0L30 10L40 10L40 0L30 0M60 0L60 10L70 10L70 0L60 0M90 0L90 20L100 20L100 0L90 0M20 20L20 80L80 80L80 20L20 20z"/>
<path style="fill:#000000; stroke:none;" d="M40 30L40 40L50 40L50 60L60 60L60 40L70 40L70 30L40 30M30 50L30 70L40 70L40 50L30 50z"/>
<path style="fill:#ffffff; stroke:none;" d="M90 50L90 70L100 70L100 50L90 50M0 60L0 70L10 70L10 60L0 60M0 80L0 100L30 100L30 90L10 90L10 80L0 80M40 90L40 100L50 100L50 90L40 90M60 90L60 100L70 100L70 90L60 90z"/>
</svg>
