<?xml version="1.0" standalone="yes"?>
<svg xmlns="http://www.w3.org/2000/svg" width="100" height="100">
<path style="fill:#ffffff; stroke:none;" d="M0 0L0 40L10 40L10 10L90 10L90 20L100 20L100 10L90 10L90 0L0 0z"/>
<path style="fill:#000000; stroke:none;" d="M90 0L90 10L100 10L100 0L90 0M10 10L10 40L0 40L0 50L10 50L10 60L0 60L0 80L10 80L10 90L0 90L0 100L20 100L20 90L40 90L40 100L50 100L50 90L60 90L60 100L80 100L80 90L90 90L90 100L100 100L100 80L90 80L90 70L100 70L100 40L90 40L90 30L100 30L100 20L90 20L90 10L10 10z"/>
<path style="fill:#ffffff; stroke:none;" d="M20 20L20 80L80 80L80 20L20 20z"/>
<path style="fill:#000000; stroke:none;" d="M30 30L30 50L40 50L40 60L50 60L50 50L40 50L40 30L30 30M50 30L50 40L60 40L60 50L70 50L70 30L50 30z"/>
<path style="fill:#ffffff; stroke:none;" d="M90 30L90 40L100 40L100 30L90 30M0 50L0 60L10 60L10 50L0 50M90 70L90 80L100 80L100 70L90 70M0 80L0 90L10 90L10 80L0 80M20 90L20 100L40 100L40 90L20 90M50 90L50 100L60 100L60 90L50 90M80 90L80 100L90 100L90 90L80 90z"/>
</svg>
