<?xml version="1.0" standalone="yes"?>
<svg xmlns="http://www.w3.org/2000/svg" width="100" height="100">
<path style="fill:#000000; stroke:none;" d="M0 0L0 70L10 70L10 90L20 90L20 100L30 100L30 90L90 90L90 100L100 100L100 90L90 90L90 80L100 80L100 70L90 70L90 60L100 60L100 40L90 40L90 30L100 30L100 20L90 20L90 10L60 10L60 0L40 0L40 10L20 10L20 0L0 0z"/>
<path style="fill:#ffffff; stroke:none;" d="M20 0L20 10L40 10L40 0L20 0M60 0L60 10L90 10L90 20L100 20L100 0L60 0M20 20L20 80L80 80L80 20L20 20z"/>
<path style="fill:#000000; stroke:none;" d="M40 30L40 60L50 60L50 70L70 70L70 60L60 60L60 50L50 50L50 40L70 40L70 30L40 30z"/>
<path style="fill:#ffffff; stroke:none;" d="M90 30L90 40L100 40L100 30L90 30M90 60L90 70L100 70L100 60L90 60M0 70L0 100L20 100L20 90L10 90L10 70L0 70M90 80L90 90L100 90L100 80L90 80M30 90L30 100L90 100L90 90L30 90z"/>
</svg>
