<?xml version="1.0" standalone="yes"?>
<svg xmlns="http://www.w3.org/2000/svg" width="100" height="100">
<path style="fill:#000000; stroke:none;" d="M0 0L0 10L10 10L10 40L0 40L0 90L10 90L10 100L20 100L20 90L80 90L80 100L100 100L100 90L90 90L90 70L100 70L100 60L90 60L90 10L100 10L100 0L90 0L90 10L70 10L70 0L60 0L60 10L20 10L20 0L0 0z"/>
<path style="fill:#ffffff; stroke:none;" d="M20 0L20 10L60 10L60 0L20 0M70 0L70 10L90 10L90 0L70 0M0 10L0 40L10 40L10 10L0 10M90 10L90 60L100 60L100 10L90 10M20 20L20 80L80 80L80 20L20 20z"/>
<path style="fill:#000000; stroke:none;" d="M30 30L30 40L40 40L40 30L30 30M40 50L40 70L70 70L70 60L60 60L60 50L40 50z"/>
<path style="fill:#ffffff; stroke:none;" d="M90 70L90 90L100 90L100 70L90 70M0 90L0 100L10 100L10 90L0 90M20 90L20 100L80 100L80 90L20 90z"/>
</svg>
