<?xml version="1.0" standalone="yes"?>
<svg xmlns="http://www.w3.org/2000/svg" width="100" height="100">
<path style="fill:#ffffff; stroke:none;" d="M0 0L0 80L10 80L10 0L0 0z"/>
<path style="fill:#000000; stroke:none;" d="M10 0L10 80L0 80L0 100L20 100L20 90L30 90L30 100L50 100L50 90L60 90L60 100L90 100L90 60L100 60L100 50L90 50L90 10L100 10L100 0L70 0L70 10L60 10L60 0L50 0L50 10L40 10L40 0L30 0L30 10L20 10L20 0L10 0z"/>
<path style="fill:#ffffff; stroke:none;" d="M20 0L20 10L30 10L30 0L20 0M40 0L40 10L50 10L50 0L40 0M60 0L60 10L70 10L70 0L60 0M90 10L90 50L100 50L100 10L90 10M20 20L20 80L80 80L80 20L20 20z"/>
<path style="fill:#000000; stroke:none;" d="M30 30L30 70L60 70L60 40L70 40L70 30L30 30z"/>
<path style="fill:#ffffff; stroke:none;" d="M40 40L40 60L50 60L50 40L40 40M90 60L90 100L100 100L100 60L90 60M20 90L20 100L30 100L30 90L20 90M50 90L50 100L60 100L60 90L50 90z"/>
</svg>
