<?xml version="1.0" standalone="yes"?>
<svg xmlns="http://www.w3.org/2000/svg" width="100" height="100">
<path style="fill:#ffffff; stroke:none;" d="M0 0L0 40L10 40L10 10L70 10L70 0L0 0z"/>
<path style="fill:#000000; stroke:none;" d="M70 0L70 10L10 10L10 40L0 40L0 50L10 50L10 90L50 90L50 100L80 100L80 90L100 90L100 50L90 50L90 40L100 40L100 30L90 30L90 0L70 0z"/>
<path style="fill:#ffffff; stroke:none;" d="M90 0L90 30L100 30L100 0L90 0M20 20L20 80L80 80L80 20L20 20z"/>
<path style="fill:#000000; stroke:none;" d="M40 30L40 40L30 40L30 70L70 70L70 60L50 60L50 50L70 50L70 40L50 40L50 30L40 30z"/>
<path style="fill:#ffffff; stroke:none;" d="M40 40L40 50L50 50L50 40L40 40M90 40L90 50L100 50L100 40L90 40M0 50L0 100L50 100L50 90L10 90L10 50L0 50M80 90L80 100L100 100L100 90L80 90z"/>
</svg>
