<?xml version="1.0" standalone="yes"?>
<svg xmlns="http://www.w3.org/2000/svg" width="100" height="100">
<path style="fill:#000000; stroke:none;" d="M0 0L0 30L10 30L10 70L0 70L0 100L20 100L20 90L50 90L50 100L70 100L70 90L90 90L90 100L100 100L100 70L90 70L90 60L100 60L100 50L90 50L90 40L100 40L100 30L90 30L90 10L100 10L100 0L90 0L90 10L80 10L80 0L70 0L70 10L60 10L60 0L20 0L20 10L10 10L10 0L0 0z"/>
<path style="fill:#ffffff; stroke:none;" d="M10 0L10 10L20 10L20 0L10 0M60 0L60 10L70 10L70 0L60 0M80 0L80 10L90 10L90 0L80 0M90 10L90 30L100 30L100 10L90 10M20 20L20 80L80 80L80 20L20 20M0 30L0 70L10 70L10 30L0 30z"/>
<path style="fill:#000000; stroke:none;" d="M40 30L40 40L30 40L30 50L50 50L50 60L30 60L30 70L50 70L50 60L60 60L60 50L50 50L50 40L70 40L70 30L40 30z"/>
<path style="fill:#ffffff; stroke:none;" d="M90 40L90 50L100 50L100 40L90 40M90 60L90 70L100 70L100 60L90 60M20 90L20 100L50 100L50 90L20 90M70 90L70 100L90 100L90 90L70 90z"/>
</svg>
