<?xml version="1.0" standalone="yes"?>
<svg xmlns="http://www.w3.org/2000/svg" width="100" height="100">
<path style="fill:#ffffff; stroke:none;" d="M0 0L0 40L10 40L10 10L20 10L20 0L0 0z"/>
<path style="fill:#000000; stroke:none;" d="M20 0L20 10L10 10L10 40L0 40L0 70L10 70L10 80L0 80L0 90L10 90L10 100L20 100L20 90L40 90L40 100L50 100L50 90L90 90L90 70L100 70L100 40L90 40L90 10L50 10L50 0L20 0z"/>
<path style="fill:#ffffff; stroke:none;" d="M50 0L50 10L90 10L90 40L100 40L100 0L50 0M20 20L20 80L80 80L80 20L20 20z"/>
<path style="fill:#000000; stroke:none;" d="M40 30L40 40L30 40L30 60L40 60L40 40L50 40L50 70L60 70L60 60L70 60L70 40L50 40L50 30L40 30z"/>
<path style="fill:#ffffff; stroke:none;" d="M0 70L0 80L10 80L10 70L0 70M90 70L90 90L50 90L50 100L100 100L100 70L90 70M0 90L0 100L10 100L10 90L0 90M20 90L20 100L40 100L40 90L20 90z"/>
</svg>
