<?xml version="1.0" standalone="yes"?>
<svg xmlns="http://www.w3.org/2000/svg" width="100" height="100">
<path style="fill:#000000; stroke:none;" d="M0 0L0 20L10 20L10 50L0 50L0 60L10 60L10 80L0 80L0 90L30 90L30 100L40 100L40 90L70 90L70 100L80 100L80 90L90 90L90 60L100 60L100 40L90 40L90 30L100 30L100 20L90 20L90 10L100 10L100 0L50 0L50 10L30 10L30 0L20 0L20 10L10 10L10 0L0 0z"/>
<path style="fill:#ffffff; stroke:none;" d="M10 0L10 10L20 10L20 0L10 0M30 0L30 10L50 10L50 0L30 0M90 10L90 20L100 20L100 10L90 10M0 20L0 50L10 50L10 20L0 20M20 20L20 80L80 80L80 20L20 20M90 30L90 40L100 40L100 30L90 30z"/>
<path style="fill:#000000; stroke:none;" d="M30 40L30 50L40 50L40 40L30 40M60 40L60 50L70 50L70 40L60 40z"/>
<path style="fill:#ffffff; stroke:none;" d="M0 60L0 80L10 80L10 60L0 60z"/>
<path style="fill:#000000; stroke:none;" d="M30 60L30 70L50 70L50 60L30 60z"/>
<path style="fill:#ffffff; stroke:none;" d="M90 60L90 90L80 90L80 100L100 100L100 60L90 60M0 90L0 100L30 100L30 90L0 90M40 90L40 100L70 100L70 90L40 90z"/>
</svg>
