<?xml version="1.0" standalone="yes"?>
<svg xmlns="http://www.w3.org/2000/svg" width="100" height="100">
<path style="fill:#000000; stroke:none;" d="M0 0L0 10L10 10L10 20L0 20L0 60L10 60L10 80L0 80L0 90L30 90L30 100L40 100L40 90L60 90L60 100L100 100L100 40L90 40L90 10L100 10L100 0L70 0L70 10L60 10L60 0L40 0L40 10L30 10L30 0L0 0z"/>
<path style="fill:#ffffff; stroke:none;" d="M30 0L30 10L40 10L40 0L30 0M60 0L60 10L70 10L70 0L60 0M0 10L0 20L10 20L10 10L0 10M90 10L90 40L100 40L100 10L90 10M20 20L20 80L80 80L80 20L20 20z"/>
<path style="fill:#000000; stroke:none;" d="M30 30L30 60L40 60L40 70L50 70L50 60L40 60L40 30L30 30M60 30L60 60L70 60L70 30L60 30z"/>
<path style="fill:#ffffff; stroke:none;" d="M0 60L0 80L10 80L10 60L0 60M0 90L0 100L30 100L30 90L0 90M40 90L40 100L60 100L60 90L40 90z"/>
</svg>
