<?xml version="1.0" standalone="yes"?>
<svg xmlns="http://www.w3.org/2000/svg" width="100" height="100">
<path style="fill:#ffffff; stroke:none;" d="M0 0L0 40L10 40L10 0L0 0z"/>
<path style="fill:#000000; stroke:none;" d="M10 0L10 40L0 40L0 70L10 70L10 80L0 80L0 100L10 100L10 90L40 90L40 100L60 100L60 90L80 90L80 100L90 100L90 50L100 50L100 40L90 40L90 20L100 20L100 0L90 0L90 10L60 10L60 0L40 0L40 10L20 10L20 0L10 0z"/>
<path style="fill:#ffffff; stroke:none;" d="M20 0L20 10L40 10L40 0L20 0M60 0L60 10L90 10L90 0L60 0M20 20L20 80L80 80L80 20L20 20M90 20L90 40L100 40L100 20L90 20z"/>
<path style="fill:#000000; stroke:none;" d="M40 30L40 40L30 40L30 70L40 70L40 40L60 40L60 30L40 30M50 50L50 70L70 70L70 60L60 60L60 50L50 50z"/>
<path style="fill:#ffffff; stroke:none;" d="M90 50L90 100L100 100L100 50L90 50M0 70L0 80L10 80L10 70L0 70M10 90L10 100L40 100L40 90L10 90M60 90L60 100L80 100L80 90L60 90z"/>
</svg>
