<?xml version="1.0" standalone="yes"?>
<svg xmlns="http://www.w3.org/2000/svg" width="100" height="100">
<path style="fill:#000000; stroke:none;" d="M0 0L0 50L10 50L10 60L0 60L0 80L10 80L10 90L20 90L20 100L40 100L40 90L50 90L50 100L60 100L60 90L70 90L70 100L90 100L90 90L100 90L100 80L90 80L90 70L100 70L100 60L90 60L90 40L100 40L100 30L90 30L90 20L100 20L100 10L90 10L90 0L50 0L50 10L40 10L40 0L20 0L20 10L10 10L10 0L0 0z"/>
<path style="fill:#ffffff; stroke:none;" d="M10 0L10 10L20 10L20 0L10 0M40 0L40 10L50 10L50 0L40 0M90 0L90 10L100 10L100 0L90 0M20 20L20 80L80 80L80 20L20 20M90 20L90 30L100 30L100 20L90 20z"/>
<path style="fill:#000000; stroke:none;" d="M30 30L30 40L50 40L50 30L30 30M60 40L60 50L50 50L50 70L60 70L60 60L70 60L70 40L60 40z"/>
<path style="fill:#ffffff; stroke:none;" d="M90 40L90 60L100 60L100 40L90 40M0 50L0 60L10 60L10 50L0 50z"/>
<path style="fill:#000000; stroke:none;" d="M30 60L30 70L40 70L40 60L30 60z"/>
<path style="fill:#ffffff; stroke:none;" d="M90 70L90 80L100 80L100 70L90 70M0 80L0 100L20 100L20 90L10 90L10 80L0 80M40 90L40 100L50 100L50 90L40 90M60 90L60 100L70 100L70 90L60 90M90 90L90 100L100 100L100 90L90 90z"/>
</svg>
