<?xml version="1.0" standalone="yes"?>
<svg xmlns="http://www.w3.org/2000/svg" width="100" height="100">
<path style="fill:#000000; stroke:none;" d="M0 0L0 20L10 20L10 40L0 40L0 60L10 60L10 70L0 70L0 90L60 90L60 100L70 100L70 90L90 90L90 100L100 100L100 80L90 80L90 40L100 40L100 20L90 20L90 10L80 10L80 0L60 0L60 10L50 10L50 0L30 0L30 10L10 10L10 0L0 0z"/>
<path style="fill:#ffffff; stroke:none;" d="M10 0L10 10L30 10L30 0L10 0M50 0L50 10L60 10L60 0L50 0M80 0L80 10L90 10L90 20L100 20L100 0L80 0M0 20L0 40L10 40L10 20L0 20M20 20L20 80L80 80L80 20L20 20z"/>
<path style="fill:#000000; stroke:none;" d="M30 30L30 70L40 70L40 60L50 60L50 50L40 50L40 30L30 30M60 30L60 50L70 50L70 30L60 30z"/>
<path style="fill:#ffffff; stroke:none;" d="M90 40L90 80L100 80L100 40L90 40M0 60L0 70L10 70L10 60L0 60M0 90L0 100L60 100L60 90L0 90M70 90L70 100L90 100L90 90L70 90z"/>
</svg>
