<?xml version="1.0" standalone="yes"?>
<svg xmlns="http://www.w3.org/2000/svg" width="100" height="100">
<path style="fill:#ffffff; stroke:none;" d="M0 0L0 30L10 30L10 10L20 10L20 0L0 0z"/>
<path style="fill:#000000; stroke:none;" d="M20 0L20 10L10 10L10 30L0 30L0 70L10 70L10 80L0 80L0 90L20 90L20 100L90 100L90 60L100 60L100 50L90 50L90 10L30 10L30 0L20 0z"/>
<path style="fill:#ffffff; stroke:none;" d="M30 0L30 10L90 10L90 50L100 50L100 0L30 0M20 20L20 80L80 80L80 20L20 20z"/>
<path style="fill:#000000; stroke:none;" d="M30 30L30 40L40 40L40 30L30 30M50 40L50 50L30 50L30 70L40 70L40 60L50 60L50 70L70 70L70 60L50 60L50 50L60 50L60 40L50 40z"/>
<path style="fill:#ffffff; stroke:none;" d="M90 60L90 100L100 100L100 60L90 60M0 70L0 80L10 80L10 70L0 70M0 90L0 100L20 100L20 90L0 90z"/>
</svg>
