<?xml version="1.0" standalone="yes"?>
<svg xmlns="http://www.w3.org/2000/svg" width="100" height="100">
<path style="fill:#ffffff; stroke:none;" d="M0 0L0 60L10 60L10 0L0 0z"/>
<path style="fill:#000000; stroke:none;" d="M10 0L10 60L0 60L0 70L10 70L10 80L0 80L0 90L10 90L10 100L50 100L50 90L60 90L60 100L90 100L90 70L100 70L100 60L90 60L90 50L100 50L100 40L90 40L90 10L100 10L100 0L10 0z"/>
<path style="fill:#ffffff; stroke:none;" d="M90 10L90 40L100 40L100 10L90 10M20 20L20 80L80 80L80 20L20 20z"/>
<path style="fill:#000000; stroke:none;" d="M30 30L30 70L40 70L40 40L50 40L50 50L60 50L60 60L50 60L50 70L60 70L60 60L70 60L70 30L60 30L60 40L50 40L50 30L30 30z"/>
<path style="fill:#ffffff; stroke:none;" d="M90 50L90 60L100 60L100 50L90 50M0 70L0 80L10 80L10 70L0 70M90 70L90 100L100 100L100 70L90 70M0 90L0 100L10 100L10 90L0 90M50 90L50 100L60 100L60 90L50 90z"/>
</svg>
