<?xml version="1.0" standalone="yes"?>
<svg xmlns="http://www.w3.org/2000/svg" width="100" height="100">
<path style="fill:#000000; stroke:none;" d="M0 0L0 10L10 10L10 20L0 20L0 30L10 30L10 40L0 40L0 50L10 50L10 60L0 60L0 70L10 70L10 90L0 90L0 100L30 100L30 90L70 90L70 100L80 100L80 90L90 90L90 80L100 80L100 50L90 50L90 0L20 0L20 10L10 10L10 0L0 0z"/>
<path style="fill:#ffffff; stroke:none;" d="M10 0L10 10L20 10L20 0L10 0M90 0L90 50L100 50L100 0L90 0M0 10L0 20L10 20L10 10L0 10M20 20L20 80L80 80L80 20L20 20M0 30L0 40L10 40L10 30L0 30z"/>
<path style="fill:#000000; stroke:none;" d="M30 40L30 60L50 60L50 70L70 70L70 40L30 40z"/>
<path style="fill:#ffffff; stroke:none;" d="M0 50L0 60L10 60L10 50L0 50M0 70L0 90L10 90L10 70L0 70M90 80L90 90L80 90L80 100L100 100L100 80L90 80M30 90L30 100L70 100L70 90L30 90z"/>
</svg>
