<?xml version="1.0" standalone="yes"?>
<svg xmlns="http://www.w3.org/2000/svg" width="100" height="100">
<path style="fill:#ffffff; stroke:none;" d="M0 0L0 40L10 40L10 0L0 0z"/>
<path style="fill:#000000; stroke:none;" d="M10 0L10 40L0 40L0 100L10 100L10 90L20 90L20 100L30 100L30 90L60 90L60 100L70 100L70 90L80 90L80 100L100 100L100 80L90 80L90 20L100 20L100 10L80 10L80 0L10 0z"/>
<path style="fill:#ffffff; stroke:none;" d="M80 0L80 10L100 10L100 0L80 0M20 20L20 80L80 80L80 20L20 20M90 20L90 80L100 80L100 20L90 20z"/>
<path style="fill:#000000; stroke:none;" d="M60 30L60 40L50 40L50 60L60 60L60 70L70 70L70 30L60 30M30 40L30 70L40 70L40 40L30 40z"/>
<path style="fill:#ffffff; stroke:none;" d="M10 90L10 100L20 100L20 90L10 90M30 90L30 100L60 100L60 90L30 90M70 90L70 100L80 100L80 90L70 90z"/>
</svg>
