<?xml version="1.0" standalone="yes"?>
<svg xmlns="http://www.w3.org/2000/svg" width="100" height="100">
<path style="fill:#000000; stroke:none;" d="M0 0L0 20L10 20L10 50L0 50L0 60L10 60L10 80L0 80L0 100L20 100L20 90L40 90L40 100L90 100L90 80L100 80L100 70L90 70L90 30L100 30L100 10L90 10L90 0L80 0L80 10L70 10L70 0L40 0L40 10L20 10L20 0L0 0z"/>
<path style="fill:#ffffff; stroke:none;" d="M20 0L20 10L40 10L40 0L20 0M70 0L70 10L80 10L80 0L70 0M90 0L90 10L100 10L100 0L90 0M0 20L0 50L10 50L10 20L0 20M20 20L20 80L80 80L80 20L20 20z"/>
<path style="fill:#000000; stroke:none;" d="M30 30L30 50L40 50L40 40L50 40L50 60L30 60L30 70L70 70L70 50L60 50L60 30L30 30z"/>
<path style="fill:#ffffff; stroke:none;" d="M90 30L90 70L100 70L100 30L90 30M0 60L0 80L10 80L10 60L0 60M90 80L90 100L100 100L100 80L90 80M20 90L20 100L40 100L40 90L20 90z"/>
</svg>
