<?xml version="1.0" standalone="yes"?>
<svg xmlns="http://www.w3.org/2000/svg" width="100" height="100">
<path style="fill:#ffffff; stroke:none;" d="M0 0L0 30L10 30L10 10L30 10L30 0L0 0z"/>
<path style="fill:#000000; stroke:none;" d="M30 0L30 10L10 10L10 30L0 30L0 40L10 40L10 50L0 50L0 100L10 100L10 90L30 90L30 100L50 100L50 90L90 90L90 100L100 100L100 90L90 90L90 80L100 80L100 10L80 10L80 0L70 0L70 10L40 10L40 0L30 0z"/>
<path style="fill:#ffffff; stroke:none;" d="M40 0L40 10L70 10L70 0L40 0M80 0L80 10L100 10L100 0L80 0M20 20L20 80L80 80L80 20L20 20z"/>
<path style="fill:#000000; stroke:none;" d="M60 30L60 40L50 40L50 50L40 50L40 40L30 40L30 50L40 50L40 70L70 70L70 60L60 60L60 40L70 40L70 30L60 30z"/>
<path style="fill:#ffffff; stroke:none;" d="M0 40L0 50L10 50L10 40L0 40M90 80L90 90L100 90L100 80L90 80M10 90L10 100L30 100L30 90L10 90M50 90L50 100L90 100L90 90L50 90z"/>
</svg>
