<?xml version="1.0" standalone="yes"?>
<svg xmlns="http://www.w3.org/2000/svg" width="100" height="100">
<path style="fill:#ffffff; stroke:none;" d="M0 0L0 10L20 10L20 0L0 0z"/>
<path style="fill:#000000; stroke:none;" d="M20 0L20 10L0 10L0 60L10 60L10 90L20 90L20 100L40 100L40 90L50 90L50 100L70 100L70 90L100 90L100 80L90 80L90 70L100 70L100 50L90 50L90 20L100 20L100 10L60 10L60 0L20 0z"/>
<path style="fill:#ffffff; stroke:none;" d="M60 0L60 10L100 10L100 0L60 0M20 20L20 80L80 80L80 20L20 20M90 20L90 50L100 50L100 20L90 20z"/>
<path style="fill:#000000; stroke:none;" d="M40 30L40 40L30 40L30 50L40 50L40 60L30 60L30 70L40 70L40 60L50 60L50 30L40 30M60 30L60 50L70 50L70 30L60 30z"/>
<path style="fill:#ffffff; stroke:none;" d="M0 60L0 100L20 100L20 90L10 90L10 60L0 60z"/>
<path style="fill:#000000; stroke:none;" d="M60 60L60 70L70 70L70 60L60 60z"/>
<path style="fill:#ffffff; stroke:none;" d="M90 70L90 80L100 80L100 70L90 70M40 90L40 100L50 100L50 90L40 90M70 90L70 100L100 100L100 90L70 90z"/>
</svg>
