<?xml version="1.0" standalone="yes"?>
<svg xmlns="http://www.w3.org/2000/svg" width="100" height="100">
<path style="fill:#ffffff; stroke:none;" d="M0 0L0 10L10 10L10 0L0 0z"/>
<path style="fill:#000000; stroke:none;" d="M10 0L10 10L0 10L0 20L10 20L10 40L0 40L0 50L10 50L10 60L0 60L0 80L10 80L10 100L30 100L30 90L40 90L40 100L50 100L50 90L60 90L60 100L70 100L70 90L100 90L100 50L90 50L90 40L100 40L100 0L90 0L90 10L40 10L40 0L10 0z"/>
<path style="fill:#ffffff; stroke:none;" d="M40 0L40 10L90 10L90 0L40 0M0 20L0 40L10 40L10 20L0 20M20 20L20 80L80 80L80 20L20 20M90 40L90 50L100 50L100 40L90 40M0 50L0 60L10 60L10 50L0 50z"/>
<path style="fill:#000000; stroke:none;" d="M30 50L30 60L50 60L50 70L60 70L60 60L70 60L70 50L30 50z"/>
<path style="fill:#ffffff; stroke:none;" d="M0 80L0 100L10 100L10 80L0 80M30 90L30 100L40 100L40 90L30 90M50 90L50 100L60 100L60 90L50 90M70 90L70 100L100 100L100 90L70 90z"/>
</svg>
