<?xml version="1.0" standalone="yes"?>
<svg xmlns="http://www.w3.org/2000/svg" width="100" height="100">
<path style="fill:#000000; stroke:none;" d="M0 0L0 50L10 50L10 70L0 70L0 100L20 100L20 90L30 90L30 100L70 100L70 90L100 90L100 80L90 80L90 70L100 70L100 30L90 30L90 10L60 10L60 0L20 0L20 10L10 10L10 0L0 0z"/>
<path style="fill:#ffffff; stroke:none;" d="M10 0L10 10L20 10L20 0L10 0M60 0L60 10L90 10L90 30L100 30L100 0L60 0M20 20L20 80L80 80L80 20L20 20z"/>
<path style="fill:#000000; stroke:none;" d="M50 30L50 40L40 40L40 60L50 60L50 70L70 70L70 40L60 40L60 30L50 30z"/>
<path style="fill:#ffffff; stroke:none;" d="M50 40L50 60L60 60L60 40L50 40M0 50L0 70L10 70L10 50L0 50M90 70L90 80L100 80L100 70L90 70M20 90L20 100L30 100L30 90L20 90M70 90L70 100L100 100L100 90L70 90z"/>
</svg>
