<?xml version="1.0" standalone="yes"?>
<svg xmlns="http://www.w3.org/2000/svg" width="100" height="100">
<path style="fill:#000000; stroke:none;" d="M0 0L0 30L10 30L10 50L0 50L0 70L10 70L10 90L20 90L20 100L40 100L40 90L60 90L60 100L70 100L70 90L80 90L80 100L100 100L100 80L90 80L90 60L100 60L100 40L90 40L90 0L80 0L80 10L70 10L70 0L20 0L20 10L10 10L10 0L0 0z"/>
<path style="fill:#ffffff; stroke:none;" d="M10 0L10 10L20 10L20 0L10 0M70 0L70 10L80 10L80 0L70 0M90 0L90 40L100 40L100 0L90 0M20 20L20 80L80 80L80 20L20 20M0 30L0 50L10 50L10 30L0 30z"/>
<path style="fill:#000000; stroke:none;" d="M30 30L30 40L40 40L40 50L60 50L60 30L50 30L50 40L40 40L40 30L30 30M50 60L50 70L70 70L70 60L50 60z"/>
<path style="fill:#ffffff; stroke:none;" d="M90 60L90 80L100 80L100 60L90 60M0 70L0 100L20 100L20 90L10 90L10 70L0 70M40 90L40 100L60 100L60 90L40 90M70 90L70 100L80 100L80 90L70 90z"/>
</svg>
