<?xml version="1.0" standalone="yes"?>
<svg xmlns="http://www.w3.org/2000/svg" width="100" height="100">
<path style="fill:#000000; stroke:none;" d="M0 0L0 30L10 30L10 40L0 40L0 50L10 50L10 60L0 60L0 70L10 70L10 80L0 80L0 90L20 90L20 100L40 100L40 90L50 90L50 100L60 100L60 90L70 90L70 100L100 100L100 80L90 80L90 70L100 70L100 50L90 50L90 30L100 30L100 0L90 0L90 10L10 10L10 0L0 0z"/>
<path style="fill:#ffffff; stroke:none;" d="M10 0L10 10L90 10L90 0L10 0M20 20L20 80L80 80L80 20L20 20M0 30L0 40L10 40L10 30L0 30z"/>
<path style="fill:#000000; stroke:none;" d="M30 30L30 40L40 40L40 70L70 70L70 60L60 60L60 50L70 50L70 40L60 40L60 50L50 50L50 30L30 30z"/>
<path style="fill:#ffffff; stroke:none;" d="M90 30L90 50L100 50L100 30L90 30M0 50L0 60L10 60L10 50L0 50M0 70L0 80L10 80L10 70L0 70M90 70L90 80L100 80L100 70L90 70M0 90L0 100L20 100L20 90L0 90M40 90L40 100L50 100L50 90L40 90M60 90L60 100L70 100L70 90L60 90z"/>
</svg>
