<?xml version="1.0" standalone="yes"?>
<svg xmlns="http://www.w3.org/2000/svg" width="100" height="100">
<path style="fill:#ffffff; stroke:none;" d="M0 0L0 40L10 40L10 10L20 10L20 0L0 0z"/>
<path style="fill:#000000; stroke:none;" d="M20 0L20 10L10 10L10 40L0 40L0 60L10 60L10 70L0 70L0 100L10 100L10 90L40 90L40 100L50 100L50 90L80 90L80 100L90 100L90 80L100 80L100 60L90 60L90 20L100 20L100 0L40 0L40 10L30 10L30 0L20 0z"/>
<path style="fill:#ffffff; stroke:none;" d="M30 0L30 10L40 10L40 0L30 0M20 20L20 80L80 80L80 20L20 20M90 20L90 60L100 60L100 20L90 20z"/>
<path style="fill:#000000; stroke:none;" d="M30 30L30 40L50 40L50 30L30 30M60 30L60 40L70 40L70 30L60 30M30 50L30 60L40 60L40 50L30 50M50 50L50 60L70 60L70 50L50 50z"/>
<path style="fill:#ffffff; stroke:none;" d="M0 60L0 70L10 70L10 60L0 60M90 80L90 100L100 100L100 80L90 80M10 90L10 100L40 100L40 90L10 90M50 90L50 100L80 100L80 90L50 90z"/>
</svg>
