<?xml version="1.0" standalone="yes"?>
<svg xmlns="http://www.w3.org/2000/svg" width="100" height="100">
<path style="fill:#ffffff; stroke:none;" d="M0 0L0 10L10 10L10 0L0 0z"/>
<path style="fill:#000000; stroke:none;" d="M10 0L10 10L0 10L0 20L10 20L10 30L0 30L0 90L20 90L20 100L30 100L30 90L50 90L50 100L60 100L60 90L90 90L90 80L100 80L100 60L90 60L90 40L100 40L100 20L90 20L90 10L70 10L70 0L40 0L40 10L30 10L30 0L10 0z"/>
<path style="fill:#ffffff; stroke:none;" d="M30 0L30 10L40 10L40 0L30 0M70 0L70 10L90 10L90 20L100 20L100 0L70 0M0 20L0 30L10 30L10 20L0 20M20 20L20 80L80 80L80 20L20 20z"/>
<path style="fill:#000000; stroke:none;" d="M40 30L40 60L30 60L30 70L70 70L70 60L60 60L60 50L70 50L70 40L60 40L60 50L50 50L50 30L40 30z"/>
<path style="fill:#ffffff; stroke:none;" d="M90 40L90 60L100 60L100 40L90 40M90 80L90 90L60 90L60 100L100 100L100 80L90 80M0 90L0 100L20 100L20 90L0 90M30 90L30 100L50 100L50 90L30 90z"/>
</svg>
