<?xml version="1.0" standalone="yes"?>
<svg xmlns="http://www.w3.org/2000/svg" width="100" height="100">
<path style="fill:#000000; stroke:none;" d="M0 0L0 20L10 20L10 70L0 70L0 80L10 80L10 90L0 90L0 100L50 100L50 90L60 90L60 100L70 100L70 90L100 90L100 50L90 50L90 10L100 10L100 0L60 0L60 10L30 10L30 0L0 0z"/>
<path style="fill:#ffffff; stroke:none;" d="M30 0L30 10L60 10L60 0L30 0M90 10L90 50L100 50L100 10L90 10M0 20L0 70L10 70L10 20L0 20M20 20L20 80L80 80L80 20L20 20z"/>
<path style="fill:#000000; stroke:none;" d="M40 30L40 40L50 40L50 30L40 30M60 30L60 50L50 50L50 60L40 60L40 70L50 70L50 60L60 60L60 70L70 70L70 30L60 30z"/>
<path style="fill:#ffffff; stroke:none;" d="M0 80L0 90L10 90L10 80L0 80M50 90L50 100L60 100L60 90L50 90M70 90L70 100L100 100L100 90L70 90z"/>
</svg>
