<?xml version="1.0" standalone="yes"?>
<svg xmlns="http://www.w3.org/2000/svg" width="100" height="100">
<path style="fill:#ffffff; stroke:none;" d="M0 0L0 10L40 10L40 0L0 0z"/>
<path style="fill:#000000; stroke:none;" d="M40 0L40 10L0 10L0 40L10 40L10 50L0 50L0 60L10 60L10 80L0 80L0 100L20 100L20 90L30 90L30 100L60 100L60 90L100 90L100 50L90 50L90 40L100 40L100 30L90 30L90 0L40 0z"/>
<path style="fill:#ffffff; stroke:none;" d="M90 0L90 30L100 30L100 0L90 0M20 20L20 80L80 80L80 20L20 20z"/>
<path style="fill:#000000; stroke:none;" d="M30 30L30 40L40 40L40 50L50 50L50 40L60 40L60 60L70 60L70 40L60 40L60 30L50 30L50 40L40 40L40 30L30 30z"/>
<path style="fill:#ffffff; stroke:none;" d="M0 40L0 50L10 50L10 40L0 40M90 40L90 50L100 50L100 40L90 40M0 60L0 80L10 80L10 60L0 60z"/>
<path style="fill:#000000; stroke:none;" d="M30 60L30 70L50 70L50 60L30 60z"/>
<path style="fill:#ffffff; stroke:none;" d="M20 90L20 100L30 100L30 90L20 90M60 90L60 100L100 100L100 90L60 90z"/>
</svg>
