<?xml version="1.0" standalone="yes"?>
<svg xmlns="http://www.w3.org/2000/svg" width="100" height="100">
<path style="fill:#000000; stroke:none;" d="M0 0L0 20L10 20L10 90L20 90L20 100L30 100L30 90L40 90L40 100L50 100L50 90L90 90L90 100L100 100L100 90L90 90L90 60L100 60L100 40L90 40L90 10L100 10L100 0L90 0L90 10L70 10L70 0L20 0L20 10L10 10L10 0L0 0z"/>
<path style="fill:#ffffff; stroke:none;" d="M10 0L10 10L20 10L20 0L10 0M70 0L70 10L90 10L90 0L70 0M90 10L90 40L100 40L100 10L90 10M0 20L0 100L20 100L20 90L10 90L10 20L0 20M20 20L20 80L80 80L80 20L20 20z"/>
<path style="fill:#000000; stroke:none;" d="M50 30L50 40L40 40L40 50L30 50L30 60L70 60L70 50L60 50L60 30L50 30z"/>
<path style="fill:#ffffff; stroke:none;" d="M90 60L90 90L100 90L100 60L90 60M30 90L30 100L40 100L40 90L30 90M50 90L50 100L90 100L90 90L50 90z"/>
</svg>
