<?xml version="1.0" standalone="yes"?>
<svg xmlns="http://www.w3.org/2000/svg" width="100" height="100">
<path style="fill:#000000; stroke:none;" d="M0 0L0 30L10 30L10 80L0 80L0 100L20 100L20 90L30 90L30 100L40 100L40 90L90 90L90 100L100 100L100 90L90 90L90 60L100 60L100 0L40 0L40 10L10 10L10 0L0 0z"/>
<path style="fill:#ffffff; stroke:none;" d="M10 0L10 10L40 10L40 0L10 0M20 20L20 80L80 80L80 20L20 20M0 30L0 80L10 80L10 30L0 30z"/>
<path style="fill:#000000; stroke:none;" d="M30 30L30 60L40 60L40 70L50 70L50 50L60 50L60 40L70 40L70 30L50 30L50 50L40 50L40 30L30 30z"/>
<path style="fill:#ffffff; stroke:none;" d="M90 60L90 90L100 90L100 60L90 60M20 90L20 100L30 100L30 90L20 90M40 90L40 100L90 100L90 90L40 90z"/>
</svg>
