<?xml version="1.0" standalone="yes"?>
<svg xmlns="http://www.w3.org/2000/svg" width="100" height="100">
<path style="fill:#ffffff; stroke:none;" d="M0 0L0 10L10 10L10 0L0 0z"/>
<path style="fill:#000000; stroke:none;" d="M10 0L10 10L0 10L0 50L10 50L10 60L0 60L0 70L10 70L10 80L0 80L0 90L20 90L20 100L30 100L30 90L70 90L70 100L80 100L80 90L90 90L90 80L100 80L100 70L90 70L90 50L100 50L100 30L90 30L90 0L60 0L60 10L50 10L50 0L30 0L30 10L20 10L20 0L10 0z"/>
<path style="fill:#ffffff; stroke:none;" d="M20 0L20 10L30 10L30 0L20 0M50 0L50 10L60 10L60 0L50 0M90 0L90 30L100 30L100 0L90 0M20 20L20 80L80 80L80 20L20 20z"/>
<path style="fill:#000000; stroke:none;" d="M30 30L30 60L50 60L50 50L60 50L60 70L70 70L70 40L60 40L60 30L30 30z"/>
<path style="fill:#ffffff; stroke:none;" d="M0 50L0 60L10 60L10 50L0 50M90 50L90 70L100 70L100 50L90 50M0 70L0 80L10 80L10 70L0 70M90 80L90 90L80 90L80 100L100 100L100 80L90 80M0 90L0 100L20 100L20 90L0 90M30 90L30 100L70 100L70 90L30 90z"/>
</svg>
