<?xml version="1.0" standalone="yes"?>
<svg xmlns="http://www.w3.org/2000/svg" width="100" height="100">
<path style="fill:#000000; stroke:none;" d="M0 0L0 20L10 20L10 80L0 80L0 90L10 90L10 100L30 100L30 90L40 90L40 100L60 100L60 90L90 90L90 100L100 100L100 90L90 90L90 80L100 80L100 30L90 30L90 20L100 20L100 10L80 10L80 0L30 0L30 10L20 10L20 0L0 0z"/>
<path style="fill:#ffffff; stroke:none;" d="M20 0L20 10L30 10L30 0L20 0M80 0L80 10L100 10L100 0L80 0M0 20L0 80L10 80L10 20L0 20M20 20L20 80L80 80L80 20L20 20M90 20L90 30L100 30L100 20L90 20z"/>
<path style="fill:#000000; stroke:none;" d="M30 30L30 40L40 40L40 30L30 30M60 30L60 50L40 50L40 70L60 70L60 60L70 60L70 30L60 30z"/>
<path style="fill:#ffffff; stroke:none;" d="M90 80L90 90L100 90L100 80L90 80M0 90L0 100L10 100L10 90L0 90M30 90L30 100L40 100L40 90L30 90M60 90L60 100L90 100L90 90L60 90z"/>
</svg>
