<?xml version="1.0" standalone="yes"?>
<svg xmlns="http://www.w3.org/2000/svg" width="100" height="100">
<path style="fill:#000000; stroke:none;" d="M0 0L0 10L10 10L10 50L0 50L0 100L20 100L20 90L50 90L50 100L90 100L90 50L100 50L100 40L90 40L90 30L100 30L100 0L70 0L70 10L40 10L40 0L20 0L20 10L10 10L10 0L0 0z"/>
<path style="fill:#ffffff; stroke:none;" d="M10 0L10 10L20 10L20 0L10 0M40 0L40 10L70 10L70 0L40 0M0 10L0 50L10 50L10 10L0 10M20 20L20 80L80 80L80 20L20 20z"/>
<path style="fill:#000000; stroke:none;" d="M40 30L40 40L70 40L70 30L40 30z"/>
<path style="fill:#ffffff; stroke:none;" d="M90 30L90 40L100 40L100 30L90 30z"/>
<path style="fill:#000000; stroke:none;" d="M30 50L30 70L50 70L50 50L30 50z"/>
<path style="fill:#ffffff; stroke:none;" d="M90 50L90 100L100 100L100 50L90 50M20 90L20 100L50 100L50 90L20 90z"/>
</svg>
