<?xml version="1.0" standalone="yes"?>
<svg xmlns="http://www.w3.org/2000/svg" width="100" height="100">
<path style="fill:#ffffff; stroke:none;" d="M0 0L0 10L40 10L40 0L0 0z"/>
<path style="fill:#000000; stroke:none;" d="M40 0L40 10L0 10L0 40L10 40L10 50L0 50L0 60L10 60L10 70L0 70L0 80L10 80L10 100L30 100L30 90L50 90L50 100L70 100L70 90L100 90L100 70L90 70L90 60L100 60L100 0L70 0L70 10L50 10L50 0L40 0z"/>
<path style="fill:#ffffff; stroke:none;" d="M50 0L50 10L70 10L70 0L50 0M20 20L20 80L80 80L80 20L20 20z"/>
<path style="fill:#000000; stroke:none;" d="M40 30L40 40L30 40L30 70L50 70L50 50L60 50L60 60L70 60L70 30L40 30z"/>
<path style="fill:#ffffff; stroke:none;" d="M0 40L0 50L10 50L10 40L0 40M40 40L40 50L50 50L50 40L40 40M0 60L0 70L10 70L10 60L0 60M90 60L90 70L100 70L100 60L90 60M0 80L0 100L10 100L10 80L0 80M30 90L30 100L50 100L50 90L30 90M70 90L70 100L100 100L100 90L70 90z"/>
</svg>
