<?xml version="1.0" standalone="yes"?>
<svg xmlns="http://www.w3.org/2000/svg" width="100" height="100">
<path style="fill:#000000; stroke:none;" d="M0 0L0 10L10 10L10 30L0 30L0 40L10 40L10 70L0 70L0 80L10 80L10 100L30 100L30 90L50 90L50 100L70 100L70 90L100 90L100 80L90 80L90 10L100 10L100 0L90 0L90 10L80 10L80 0L30 0L30 10L20 10L20 0L0 0z"/>
<path style="fill:#ffffff; stroke:none;" d="M20 0L20 10L30 10L30 0L20 0M80 0L80 10L90 10L90 0L80 0M0 10L0 30L10 30L10 10L0 10M90 10L90 80L100 80L100 10L90 10M20 20L20 80L80 80L80 20L20 20z"/>
<path style="fill:#000000; stroke:none;" d="M60 30L60 50L70 50L70 30L60 30z"/>
<path style="fill:#ffffff; stroke:none;" d="M0 40L0 70L10 70L10 40L0 40z"/>
<path style="fill:#000000; stroke:none;" d="M30 40L30 60L50 60L50 40L30 40M60 60L60 70L70 70L70 60L60 60z"/>
<path style="fill:#ffffff; stroke:none;" d="M0 80L0 100L10 100L10 80L0 80M30 90L30 100L50 100L50 90L30 90M70 90L70 100L100 100L100 90L70 90z"/>
</svg>
