<?xml version="1.0" standalone="yes"?>
<svg xmlns="http://www.w3.org/2000/svg" width="100" height="100">
<path style="fill:#000000; stroke:none;" d="M0 0L0 10L10 10L10 40L0 40L0 50L10 50L10 60L0 60L0 70L10 70L10 80L0 80L0 90L10 90L10 100L30 100L30 90L80 90L80 100L100 100L100 80L90 80L90 50L100 50L100 40L90 40L90 10L80 10L80 0L60 0L60 10L10 10L10 0L0 0z"/>
<path style="fill:#ffffff; stroke:none;" d="M10 0L10 10L60 10L60 0L10 0M80 0L80 10L90 10L90 40L100 40L100 0L80 0M0 10L0 40L10 40L10 10L0 10M20 20L20 80L80 80L80 20L20 20z"/>
<path style="fill:#000000; stroke:none;" d="M40 30L40 40L30 40L30 70L40 70L40 60L70 60L70 40L50 40L50 30L40 30z"/>
<path style="fill:#ffffff; stroke:none;" d="M40 40L40 50L50 50L50 40L40 40M0 50L0 60L10 60L10 50L0 50M90 50L90 80L100 80L100 50L90 50M0 70L0 80L10 80L10 70L0 70M0 90L0 100L10 100L10 90L0 90M30 90L30 100L80 100L80 90L30 90z"/>
</svg>
