<?xml version="1.0" standalone="yes"?>
<svg xmlns="http://www.w3.org/2000/svg" width="100" height="100">
<path style="fill:#ffffff; stroke:none;" d="M0 0L0 60L10 60L10 10L50 10L50 0L0 0z"/>
<path style="fill:#000000; stroke:none;" d="M50 0L50 10L10 10L10 60L0 60L0 70L10 70L10 90L20 90L20 100L60 100L60 90L100 90L100 60L90 60L90 40L100 40L100 20L90 20L90 0L70 0L70 10L60 10L60 0L50 0z"/>
<path style="fill:#ffffff; stroke:none;" d="M60 0L60 10L70 10L70 0L60 0M90 0L90 20L100 20L100 0L90 0M20 20L20 80L80 80L80 20L20 20z"/>
<path style="fill:#000000; stroke:none;" d="M50 30L50 40L30 40L30 50L60 50L60 30L50 30z"/>
<path style="fill:#ffffff; stroke:none;" d="M90 40L90 60L100 60L100 40L90 40z"/>
<path style="fill:#000000; stroke:none;" d="M40 60L40 70L70 70L70 60L40 60z"/>
<path style="fill:#ffffff; stroke:none;" d="M0 70L0 100L20 100L20 90L10 90L10 70L0 70M60 90L60 100L100 100L100 90L60 90z"/>
</svg>
