<?xml version="1.0" standalone="yes"?>
<svg xmlns="http://www.w3.org/2000/svg" width="100" height="100">
<path style="fill:#ffffff; stroke:none;" d="M0 0L0 50L10 50L10 0L0 0z"/>
<path style="fill:#000000; stroke:none;" d="M10 0L10 50L0 50L0 70L10 70L10 80L0 80L0 100L20 100L20 90L70 90L70 100L80 100L80 90L90 90L90 80L100 80L100 70L90 70L90 50L100 50L100 30L90 30L90 20L100 20L100 0L60 0L60 10L40 10L40 0L10 0z"/>
<path style="fill:#ffffff; stroke:none;" d="M40 0L40 10L60 10L60 0L40 0M20 20L20 80L80 80L80 20L20 20M90 20L90 30L100 30L100 20L90 20z"/>
<path style="fill:#000000; stroke:none;" d="M40 30L40 70L70 70L70 60L50 60L50 50L60 50L60 40L70 40L70 30L60 30L60 40L50 40L50 30L40 30z"/>
<path style="fill:#ffffff; stroke:none;" d="M90 50L90 70L100 70L100 50L90 50M0 70L0 80L10 80L10 70L0 70M90 80L90 90L80 90L80 100L100 100L100 80L90 80M20 90L20 100L70 100L70 90L20 90z"/>
</svg>
