<?xml version="1.0" standalone="yes"?>
<svg xmlns="http://www.w3.org/2000/svg" width="100" height="100">
<path style="fill:#ffffff; stroke:none;" d="M0 0L0 20L10 20L10 10L40 10L40 0L0 0z"/>
<path style="fill:#000000; stroke:none;" d="M40 0L40 10L10 10L10 20L0 20L0 50L10 50L10 90L0 90L0 100L20 100L20 90L40 90L40 100L60 100L60 90L70 90L70 100L100 100L100 70L90 70L90 60L100 60L100 40L90 40L90 20L100 20L100 10L80 10L80 0L40 0z"/>
<path style="fill:#ffffff; stroke:none;" d="M80 0L80 10L100 10L100 0L80 0M20 20L20 80L80 80L80 20L20 20M90 20L90 40L100 40L100 20L90 20z"/>
<path style="fill:#000000; stroke:none;" d="M50 30L50 50L30 50L30 70L40 70L40 60L60 60L60 70L70 70L70 60L60 60L60 30L50 30z"/>
<path style="fill:#ffffff; stroke:none;" d="M0 50L0 90L10 90L10 50L0 50M90 60L90 70L100 70L100 60L90 60M20 90L20 100L40 100L40 90L20 90M60 90L60 100L70 100L70 90L60 90z"/>
</svg>
