<?xml version="1.0" standalone="yes"?>
<svg xmlns="http://www.w3.org/2000/svg" width="100" height="100">
<path style="fill:#000000; stroke:none;" d="M0 0L0 20L10 20L10 40L0 40L0 60L10 60L10 70L0 70L0 80L10 80L10 100L20 100L20 90L50 90L50 100L60 100L60 90L90 90L90 100L100 100L100 60L90 60L90 30L100 30L100 20L90 20L90 10L100 10L100 0L60 0L60 10L30 10L30 0L20 0L20 10L10 10L10 0L0 0z"/>
<path style="fill:#ffffff; stroke:none;" d="M10 0L10 10L20 10L20 0L10 0M30 0L30 10L60 10L60 0L30 0M90 10L90 20L100 20L100 10L90 10M0 20L0 40L10 40L10 20L0 20M20 20L20 80L80 80L80 20L20 20z"/>
<path style="fill:#000000; stroke:none;" d="M30 30L30 40L50 40L50 70L60 70L60 60L70 60L70 40L60 40L60 30L30 30z"/>
<path style="fill:#ffffff; stroke:none;" d="M90 30L90 60L100 60L100 30L90 30M0 60L0 70L10 70L10 60L0 60z"/>
<path style="fill:#000000; stroke:none;" d="M30 60L30 70L40 70L40 60L30 60z"/>
<path style="fill:#ffffff; stroke:none;" d="M0 80L0 100L10 100L10 80L0 80M20 90L20 100L50 100L50 90L20 90M60 90L60 100L90 100L90 90L60 90z"/>
</svg>
