<?xml version="1.0" standalone="yes"?>
<svg xmlns="http://www.w3.org/2000/svg" width="100" height="100">
<path style="fill:#000000; stroke:none;" d="M0 0L0 10L10 10L10 30L0 30L0 50L10 50L10 100L30 100L30 90L50 90L50 100L70 100L70 90L80 90L80 100L100 100L100 50L90 50L90 40L100 40L100 30L90 30L90 10L100 10L100 0L70 0L70 10L50 10L50 0L0 0z"/>
<path style="fill:#ffffff; stroke:none;" d="M50 0L50 10L70 10L70 0L50 0M0 10L0 30L10 30L10 10L0 10M90 10L90 30L100 30L100 10L90 10M20 20L20 80L80 80L80 20L20 20z"/>
<path style="fill:#000000; stroke:none;" d="M30 30L30 50L40 50L40 40L50 40L50 30L30 30z"/>
<path style="fill:#ffffff; stroke:none;" d="M90 40L90 50L100 50L100 40L90 40M0 50L0 100L10 100L10 50L0 50z"/>
<path style="fill:#000000; stroke:none;" d="M60 50L60 60L70 60L70 50L60 50M40 60L40 70L50 70L50 60L40 60z"/>
<path style="fill:#ffffff; stroke:none;" d="M30 90L30 100L50 100L50 90L30 90M70 90L70 100L80 100L80 90L70 90z"/>
</svg>
