<?xml version="1.0" standalone="yes"?>
<svg xmlns="http://www.w3.org/2000/svg" width="100" height="100">
<path style="fill:#ffffff; stroke:none;" d="M0 0L0 20L10 20L10 0L0 0z"/>
<path style="fill:#000000; stroke:none;" d="M10 0L10 20L0 20L0 40L10 40L10 80L0 80L0 100L30 100L30 90L60 90L60 100L70 100L70 90L90 90L90 100L100 100L100 90L90 90L90 80L100 80L100 40L90 40L90 30L100 30L100 0L10 0z"/>
<path style="fill:#ffffff; stroke:none;" d="M20 20L20 80L80 80L80 20L20 20z"/>
<path style="fill:#000000; stroke:none;" d="M30 30L30 50L40 50L40 60L30 60L30 70L60 70L60 60L70 60L70 50L40 50L40 30L30 30M60 30L60 40L70 40L70 30L60 30z"/>
<path style="fill:#ffffff; stroke:none;" d="M90 30L90 40L100 40L100 30L90 30M0 40L0 80L10 80L10 40L0 40M90 80L90 90L100 90L100 80L90 80M30 90L30 100L60 100L60 90L30 90M70 90L70 100L90 100L90 90L70 90z"/>
</svg>
