<?xml version="1.0" standalone="yes"?>
<svg xmlns="http://www.w3.org/2000/svg" width="100" height="100">
<path style="fill:#ffffff; stroke:none;" d="M0 0L0 10L10 10L10 0L0 0z"/>
<path style="fill:#000000; stroke:none;" d="M10 0L10 10L0 10L0 20L10 20L10 80L0 80L0 90L30 90L30 100L50 100L50 90L70 90L70 100L100 100L100 80L90 80L90 70L100 70L100 60L90 60L90 50L100 50L100 20L90 20L90 0L80 0L80 10L60 10L60 0L40 0L40 10L30 10L30 0L10 0z"/>
<path style="fill:#ffffff; stroke:none;" d="M30 0L30 10L40 10L40 0L30 0M60 0L60 10L80 10L80 0L60 0M90 0L90 20L100 20L100 0L90 0M0 20L0 80L10 80L10 20L0 20M20 20L20 80L80 80L80 20L20 20z"/>
<path style="fill:#000000; stroke:none;" d="M30 30L30 50L40 50L40 60L30 60L30 70L50 70L50 60L60 60L60 70L70 70L70 60L60 60L60 50L70 50L70 30L60 30L60 40L50 40L50 30L30 30z"/>
<path style="fill:#ffffff; stroke:none;" d="M40 40L40 50L50 50L50 40L40 40M90 50L90 60L100 60L100 50L90 50M90 70L90 80L100 80L100 70L90 70M0 90L0 100L30 100L30 90L0 90M50 90L50 100L70 100L70 90L50 90z"/>
</svg>
