<?xml version="1.0" standalone="yes"?>
<svg xmlns="http://www.w3.org/2000/svg" width="100" height="100">
<path style="fill:#000000; stroke:none;" d="M0 0L0 10L10 10L10 20L0 20L0 50L10 50L10 80L0 80L0 100L10 100L10 90L40 90L40 100L80 100L80 90L90 90L90 80L100 80L100 70L90 70L90 60L100 60L100 50L90 50L90 20L100 20L100 0L70 0L70 10L60 10L60 0L50 0L50 10L40 10L40 0L20 0L20 10L10 10L10 0L0 0z"/>
<path style="fill:#ffffff; stroke:none;" d="M10 0L10 10L20 10L20 0L10 0M40 0L40 10L50 10L50 0L40 0M60 0L60 10L70 10L70 0L60 0M0 10L0 20L10 20L10 10L0 10M20 20L20 80L80 80L80 20L20 20M90 20L90 50L100 50L100 20L90 20z"/>
<path style="fill:#000000; stroke:none;" d="M30 30L30 50L40 50L40 60L30 60L30 70L40 70L40 60L50 60L50 70L70 70L70 60L60 60L60 50L70 50L70 40L60 40L60 50L40 50L40 30L30 30z"/>
<path style="fill:#ffffff; stroke:none;" d="M0 50L0 80L10 80L10 50L0 50M90 60L90 70L100 70L100 60L90 60M90 80L90 90L80 90L80 100L100 100L100 80L90 80M10 90L10 100L40 100L40 90L10 90z"/>
</svg>
