<?xml version="1.0" standalone="yes"?>
<svg xmlns="http://www.w3.org/2000/svg" width="100" height="100">
<path style="fill:#ffffff; stroke:none;" d="M0 0L0 50L10 50L10 10L90 10L90 40L100 40L100 10L90 10L90 0L0 0z"/>
<path style="fill:#000000; stroke:none;" d="M90 0L90 10L100 10L100 0L90 0M10 10L10 50L0 50L0 70L10 70L10 100L20 100L20 90L40 90L40 100L100 100L100 90L90 90L90 70L100 70L100 40L90 40L90 10L10 10z"/>
<path style="fill:#ffffff; stroke:none;" d="M20 20L20 80L80 80L80 20L20 20z"/>
<path style="fill:#000000; stroke:none;" d="M40 30L40 40L30 40L30 60L40 60L40 70L50 70L50 50L70 50L70 30L60 30L60 40L50 40L50 30L40 30z"/>
<path style="fill:#ffffff; stroke:none;" d="M40 40L40 50L50 50L50 40L40 40M0 70L0 100L10 100L10 70L0 70M90 70L90 90L100 90L100 70L90 70M20 90L20 100L40 100L40 90L20 90z"/>
</svg>
