<?xml version="1.0" standalone="yes"?>
<svg xmlns="http://www.w3.org/2000/svg" width="100" height="100">
<path style="fill:#000000; stroke:none;" d="M0 0L0 10L10 10L10 60L0 60L0 70L10 70L10 90L0 90L0 100L20 100L20 90L30 90L30 100L40 100L40 90L80 90L80 100L90 100L90 80L100 80L100 60L90 60L90 20L100 20L100 0L70 0L70 10L60 10L60 0L50 0L50 10L40 10L40 0L20 0L20 10L10 10L10 0L0 0z"/>
<path style="fill:#ffffff; stroke:none;" d="M10 0L10 10L20 10L20 0L10 0M40 0L40 10L50 10L50 0L40 0M60 0L60 10L70 10L70 0L60 0M0 10L0 60L10 60L10 10L0 10M20 20L20 80L80 80L80 20L20 20M90 20L90 60L100 60L100 20L90 20z"/>
<path style="fill:#000000; stroke:none;" d="M30 30L30 40L50 40L50 50L30 50L30 70L40 70L40 60L50 60L50 50L70 50L70 40L50 40L50 30L30 30z"/>
<path style="fill:#ffffff; stroke:none;" d="M0 70L0 90L10 90L10 70L0 70M90 80L90 100L100 100L100 80L90 80M20 90L20 100L30 100L30 90L20 90M40 90L40 100L80 100L80 90L40 90z"/>
</svg>
