<?xml version="1.0" standalone="yes"?>
<svg xmlns="http://www.w3.org/2000/svg" width="100" height="100">
<path style="fill:#000000; stroke:none;" d="M0 0L0 50L10 50L10 90L40 90L40 100L60 100L60 90L90 90L90 80L100 80L100 70L90 70L90 20L100 20L100 0L90 0L90 10L80 10L80 0L20 0L20 10L10 10L10 0L0 0z"/>
<path style="fill:#ffffff; stroke:none;" d="M10 0L10 10L20 10L20 0L10 0M80 0L80 10L90 10L90 0L80 0M20 20L20 80L80 80L80 20L20 20M90 20L90 70L100 70L100 20L90 20z"/>
<path style="fill:#000000; stroke:none;" d="M30 30L30 50L50 50L50 70L60 70L60 30L30 30z"/>
<path style="fill:#ffffff; stroke:none;" d="M0 50L0 100L40 100L40 90L10 90L10 50L0 50z"/>
<path style="fill:#000000; stroke:none;" d="M30 60L30 70L40 70L40 60L30 60z"/>
<path style="fill:#ffffff; stroke:none;" d="M90 80L90 90L60 90L60 100L100 100L100 80L90 80z"/>
</svg>
