<?xml version="1.0" standalone="yes"?>
<svg xmlns="http://www.w3.org/2000/svg" width="100" height="100">
<path style="fill:#000000; stroke:none;" d="M0 0L0 20L10 20L10 30L0 30L0 40L10 40L10 60L0 60L0 70L10 70L10 90L0 90L0 100L40 100L40 90L60 90L60 100L80 100L80 90L90 90L90 80L100 80L100 60L90 60L90 50L100 50L100 30L90 30L90 10L100 10L100 0L70 0L70 10L40 10L40 0L30 0L30 10L10 10L10 0L0 0z"/>
<path style="fill:#ffffff; stroke:none;" d="M10 0L10 10L30 10L30 0L10 0M40 0L40 10L70 10L70 0L40 0M90 10L90 30L100 30L100 10L90 10M0 20L0 30L10 30L10 20L0 20M20 20L20 80L80 80L80 20L20 20z"/>
<path style="fill:#000000; stroke:none;" d="M30 30L30 40L40 40L40 50L30 50L30 70L40 70L40 50L50 50L50 40L40 40L40 30L30 30z"/>
<path style="fill:#ffffff; stroke:none;" d="M0 40L0 60L10 60L10 40L0 40z"/>
<path style="fill:#000000; stroke:none;" d="M60 40L60 70L70 70L70 40L60 40z"/>
<path style="fill:#ffffff; stroke:none;" d="M90 50L90 60L100 60L100 50L90 50M0 70L0 90L10 90L10 70L0 70M90 80L90 90L80 90L80 100L100 100L100 80L90 80M40 90L40 100L60 100L60 90L40 90z"/>
</svg>
