<?xml version="1.0" standalone="yes"?>
<svg xmlns="http://www.w3.org/2000/svg" width="100" height="100">
<path style="fill:#000000; stroke:none;" d="M0 0L0 30L10 30L10 50L0 50L0 70L10 70L10 100L30 100L30 90L40 90L40 100L60 100L60 90L90 90L90 100L100 100L100 90L90 90L90 60L100 60L100 40L90 40L90 20L100 20L100 10L10 10L10 0L0 0z"/>
<path style="fill:#ffffff; stroke:none;" d="M10 0L10 10L100 10L100 0L10 0M20 20L20 80L80 80L80 20L20 20M90 20L90 40L100 40L100 20L90 20M0 30L0 50L10 50L10 30L0 30z"/>
<path style="fill:#000000; stroke:none;" d="M30 30L30 60L40 60L40 70L50 70L50 60L40 60L40 30L30 30M60 30L60 40L50 40L50 50L70 50L70 30L60 30z"/>
<path style="fill:#ffffff; stroke:none;" d="M90 60L90 90L100 90L100 60L90 60M0 70L0 100L10 100L10 70L0 70M30 90L30 100L40 100L40 90L30 90M60 90L60 100L90 100L90 90L60 90z"/>
</svg>
