<?xml version="1.0" standalone="yes"?>
<svg xmlns="http://www.w3.org/2000/svg" width="100" height="100">
<path style="fill:#000000; stroke:none;" d="M0 0L0 30L10 30L10 40L0 40L0 50L10 50L10 80L0 80L0 90L10 90L10 100L40 100L40 90L60 90L60 100L100 100L100 80L90 80L90 70L100 70L100 60L90 60L90 10L80 10L80 0L70 0L70 10L60 10L60 0L50 0L50 10L10 10L10 0L0 0z"/>
<path style="fill:#ffffff; stroke:none;" d="M10 0L10 10L50 10L50 0L10 0M60 0L60 10L70 10L70 0L60 0M80 0L80 10L90 10L90 60L100 60L100 0L80 0M20 20L20 80L80 80L80 20L20 20M0 30L0 40L10 40L10 30L0 30z"/>
<path style="fill:#000000; stroke:none;" d="M40 40L40 50L30 50L30 70L40 70L40 50L50 50L50 60L70 60L70 40L40 40z"/>
<path style="fill:#ffffff; stroke:none;" d="M0 50L0 80L10 80L10 50L0 50M90 70L90 80L100 80L100 70L90 70M0 90L0 100L10 100L10 90L0 90M40 90L40 100L60 100L60 90L40 90z"/>
</svg>
