<?xml version="1.0" standalone="yes"?>
<svg xmlns="http://www.w3.org/2000/svg" width="100" height="100">
<path style="fill:#000000; stroke:none;" d="M0 0L0 20L10 20L10 30L0 30L0 50L10 50L10 70L0 70L0 90L10 90L10 100L20 100L20 90L30 90L30 100L40 100L40 90L80 90L80 100L100 100L100 90L90 90L90 60L100 60L100 10L70 10L70 0L30 0L30 10L10 10L10 0L0 0z"/>
<path style="fill:#ffffff; stroke:none;" d="M10 0L10 10L30 10L30 0L10 0M70 0L70 10L100 10L100 0L70 0M0 20L0 30L10 30L10 20L0 20M20 20L20 80L80 80L80 20L20 20z"/>
<path style="fill:#000000; stroke:none;" d="M30 40L30 50L40 50L40 40L30 40z"/>
<path style="fill:#ffffff; stroke:none;" d="M0 50L0 70L10 70L10 50L0 50z"/>
<path style="fill:#000000; stroke:none;" d="M60 50L60 60L50 60L50 70L60 70L60 60L70 60L70 50L60 50M30 60L30 70L40 70L40 60L30 60z"/>
<path style="fill:#ffffff; stroke:none;" d="M90 60L90 90L100 90L100 60L90 60M0 90L0 100L10 100L10 90L0 90M20 90L20 100L30 100L30 90L20 90M40 90L40 100L80 100L80 90L40 90z"/>
</svg>
