<?xml version="1.0" standalone="yes"?>
<svg xmlns="http://www.w3.org/2000/svg" width="100" height="100">
<path style="fill:#ffffff; stroke:none;" d="M0 0L0 10L10 10L10 0L0 0z"/>
<path style="fill:#000000; stroke:none;" d="M10 0L10 10L0 10L0 70L10 70L10 80L0 80L0 100L10 100L10 90L20 90L20 100L50 100L50 90L80 90L80 100L90 100L90 80L100 80L100 70L90 70L90 60L100 60L100 50L90 50L90 20L100 20L100 0L50 0L50 10L40 10L40 0L10 0z"/>
<path style="fill:#ffffff; stroke:none;" d="M40 0L40 10L50 10L50 0L40 0M20 20L20 80L80 80L80 20L20 20M90 20L90 50L100 50L100 20L90 20z"/>
<path style="fill:#000000; stroke:none;" d="M60 30L60 40L40 40L40 50L30 50L30 60L40 60L40 70L60 70L60 50L70 50L70 30L60 30z"/>
<path style="fill:#ffffff; stroke:none;" d="M90 60L90 70L100 70L100 60L90 60M0 70L0 80L10 80L10 70L0 70M90 80L90 100L100 100L100 80L90 80M10 90L10 100L20 100L20 90L10 90M50 90L50 100L80 100L80 90L50 90z"/>
</svg>
