<?xml version="1.0" standalone="yes"?>
<svg xmlns="http://www.w3.org/2000/svg" width="100" height="100">
<path style="fill:#ffffff; stroke:none;" d="M0 0L0 40L10 40L10 0L0 0z"/>
<path style="fill:#000000; stroke:none;" d="M10 0L10 40L0 40L0 50L10 50L10 80L0 80L0 100L20 100L20 90L30 90L30 100L40 100L40 90L70 90L70 100L90 100L90 90L100 90L100 70L90 70L90 50L100 50L100 0L10 0z"/>
<path style="fill:#ffffff; stroke:none;" d="M20 20L20 80L80 80L80 20L20 20z"/>
<path style="fill:#000000; stroke:none;" d="M30 30L30 60L40 60L40 70L60 70L60 60L70 60L70 50L60 50L60 60L40 60L40 50L50 50L50 40L60 40L60 30L50 30L50 40L40 40L40 30L30 30z"/>
<path style="fill:#ffffff; stroke:none;" d="M0 50L0 80L10 80L10 50L0 50M90 50L90 70L100 70L100 50L90 50M20 90L20 100L30 100L30 90L20 90M40 90L40 100L70 100L70 90L40 90M90 90L90 100L100 100L100 90L90 90z"/>
</svg>
