<?xml version="1.0" standalone="yes"?>
<svg xmlns="http://www.w3.org/2000/svg" width="100" height="100">
<path style="fill:#ffffff; stroke:none;" d="M0 0L0 10L50 10L50 0L0 0z"/>
<path style="fill:#000000; stroke:none;" d="M50 0L50 10L0 10L0 20L10 20L10 40L0 40L0 70L10 70L10 80L0 80L0 100L10 100L10 90L20 90L20 100L60 100L60 90L80 90L80 100L90 100L90 80L100 80L100 70L90 70L90 60L100 60L100 30L90 30L90 10L80 10L80 0L50 0z"/>
<path style="fill:#ffffff; stroke:none;" d="M80 0L80 10L90 10L90 30L100 30L100 0L80 0M0 20L0 40L10 40L10 20L0 20M20 20L20 80L80 80L80 20L20 20z"/>
<path style="fill:#000000; stroke:none;" d="M30 30L30 50L40 50L40 30L30 30M50 30L50 50L60 50L60 70L70 70L70 40L60 40L60 30L50 30M30 60L30 70L50 70L50 60L30 60z"/>
<path style="fill:#ffffff; stroke:none;" d="M90 60L90 70L100 70L100 60L90 60M0 70L0 80L10 80L10 70L0 70M90 80L90 100L100 100L100 80L90 80M10 90L10 100L20 100L20 90L10 90M60 90L60 100L80 100L80 90L60 90z"/>
</svg>
