<?xml version="1.0" standalone="yes"?>
<svg xmlns="http://www.w3.org/2000/svg" width="100" height="100">
<path style="fill:#000000; stroke:none;" d="M0 0L0 60L10 60L10 100L40 100L40 90L50 90L50 100L60 100L60 90L80 90L80 100L100 100L100 80L90 80L90 60L100 60L100 0L60 0L60 10L40 10L40 0L30 0L30 10L20 10L20 0L0 0z"/>
<path style="fill:#ffffff; stroke:none;" d="M20 0L20 10L30 10L30 0L20 0M40 0L40 10L60 10L60 0L40 0M20 20L20 80L80 80L80 20L20 20z"/>
<path style="fill:#000000; stroke:none;" d="M50 30L50 40L70 40L70 30L50 30M30 40L30 60L40 60L40 40L30 40M50 50L50 70L70 70L70 60L60 60L60 50L50 50z"/>
<path style="fill:#ffffff; stroke:none;" d="M0 60L0 100L10 100L10 60L0 60M90 60L90 80L100 80L100 60L90 60M40 90L40 100L50 100L50 90L40 90M60 90L60 100L80 100L80 90L60 90z"/>
</svg>
