<?xml version="1.0" standalone="yes"?>
<svg xmlns="http://www.w3.org/2000/svg" width="100" height="100">
<path style="fill:#000000; stroke:none;" d="M0 0L0 30L10 30L10 50L0 50L0 80L10 80L10 90L0 90L0 100L20 100L20 90L60 90L60 100L80 100L80 90L100 90L100 70L90 70L90 40L100 40L100 30L90 30L90 20L100 20L100 10L90 10L90 0L20 0L20 10L10 10L10 0L0 0z"/>
<path style="fill:#ffffff; stroke:none;" d="M10 0L10 10L20 10L20 0L10 0M90 0L90 10L100 10L100 0L90 0M20 20L20 80L80 80L80 20L20 20M90 20L90 30L100 30L100 20L90 20M0 30L0 50L10 50L10 30L0 30z"/>
<path style="fill:#000000; stroke:none;" d="M50 30L50 40L40 40L40 60L50 60L50 70L60 70L60 60L70 60L70 40L60 40L60 30L50 30z"/>
<path style="fill:#ffffff; stroke:none;" d="M90 40L90 70L100 70L100 40L90 40M50 50L50 60L60 60L60 50L50 50M0 80L0 90L10 90L10 80L0 80M20 90L20 100L60 100L60 90L20 90M80 90L80 100L100 100L100 90L80 90z"/>
</svg>
