<?xml version="1.0" standalone="yes"?>
<svg xmlns="http://www.w3.org/2000/svg" width="100" height="100">
<path style="fill:#000000; stroke:none;" d="M0 0L0 10L10 10L10 50L0 50L0 90L10 90L10 100L20 100L20 90L60 90L60 100L80 100L80 90L100 90L100 80L90 80L90 20L100 20L100 0L60 0L60 10L50 10L50 0L20 0L20 10L10 10L10 0L0 0z"/>
<path style="fill:#ffffff; stroke:none;" d="M10 0L10 10L20 10L20 0L10 0M50 0L50 10L60 10L60 0L50 0M0 10L0 50L10 50L10 10L0 10M20 20L20 80L80 80L80 20L20 20M90 20L90 80L100 80L100 20L90 20z"/>
<path style="fill:#000000; stroke:none;" d="M30 30L30 50L50 50L50 60L30 60L30 70L60 70L60 60L70 60L70 50L60 50L60 40L70 40L70 30L60 30L60 40L50 40L50 30L30 30z"/>
<path style="fill:#ffffff; stroke:none;" d="M0 90L0 100L10 100L10 90L0 90M20 90L20 100L60 100L60 90L20 90M80 90L80 100L100 100L100 90L80 90z"/>
</svg>
