<?xml version="1.0" standalone="yes"?>
<svg xmlns="http://www.w3.org/2000/svg" width="100" height="100">
<path style="fill:#ffffff; stroke:none;" d="M0 0L0 20L10 20L10 0L0 0z"/>
<path style="fill:#000000; stroke:none;" d="M10 0L10 20L0 20L0 30L10 30L10 40L0 40L0 50L10 50L10 70L0 70L0 80L10 80L10 90L0 90L0 100L10 100L10 90L20 90L20 100L50 100L50 90L60 90L60 100L70 100L70 90L100 90L100 70L90 70L90 50L100 50L100 30L90 30L90 20L100 20L100 0L80 0L80 10L60 10L60 0L50 0L50 10L20 10L20 0L10 0z"/>
<path style="fill:#ffffff; stroke:none;" d="M20 0L20 10L50 10L50 0L20 0M60 0L60 10L80 10L80 0L60 0M20 20L20 80L80 80L80 20L20 20M90 20L90 30L100 30L100 20L90 20M0 30L0 40L10 40L10 30L0 30z"/>
<path style="fill:#000000; stroke:none;" d="M40 30L40 40L30 40L30 60L40 60L40 70L50 70L50 60L60 60L60 40L70 40L70 30L40 30z"/>
<path style="fill:#ffffff; stroke:none;" d="M40 40L40 60L50 60L50 40L40 40M0 50L0 70L10 70L10 50L0 50M90 50L90 70L100 70L100 50L90 50M0 80L0 90L10 90L10 80L0 80M10 90L10 100L20 100L20 90L10 90M50 90L50 100L60 100L60 90L50 90M70 90L70 100L100 100L100 90L70 90z"/>
</svg>
