<?xml version="1.0" standalone="yes"?>
<svg xmlns="http://www.w3.org/2000/svg" width="100" height="100">
<path style="fill:#ffffff; stroke:none;" d="M0 0L0 10L20 10L20 0L0 0z"/>
<path style="fill:#000000; stroke:none;" d="M20 0L20 10L0 10L0 30L10 30L10 40L0 40L0 50L10 50L10 70L0 70L0 100L30 100L30 90L50 90L50 100L70 100L70 90L100 90L100 40L90 40L90 10L100 10L100 0L90 0L90 10L60 10L60 0L50 0L50 10L30 10L30 0L20 0z"/>
<path style="fill:#ffffff; stroke:none;" d="M30 0L30 10L50 10L50 0L30 0M60 0L60 10L90 10L90 0L60 0M90 10L90 40L100 40L100 10L90 10M20 20L20 80L80 80L80 20L20 20M0 30L0 40L10 40L10 30L0 30z"/>
<path style="fill:#000000; stroke:none;" d="M50 30L50 40L60 40L60 30L50 30z"/>
<path style="fill:#ffffff; stroke:none;" d="M0 50L0 70L10 70L10 50L0 50z"/>
<path style="fill:#000000; stroke:none;" d="M30 50L30 60L60 60L60 70L70 70L70 50L30 50z"/>
<path style="fill:#ffffff; stroke:none;" d="M30 90L30 100L50 100L50 90L30 90M70 90L70 100L100 100L100 90L70 90z"/>
</svg>
