<?xml version="1.0" standalone="yes"?>
<svg xmlns="http://www.w3.org/2000/svg" width="100" height="100">
<path style="fill:#000000; stroke:none;" d="M0 0L0 20L10 20L10 60L0 60L0 100L10 100L10 90L80 90L80 100L90 100L90 10L50 10L50 0L30 0L30 10L10 10L10 0L0 0z"/>
<path style="fill:#ffffff; stroke:none;" d="M10 0L10 10L30 10L30 0L10 0M50 0L50 10L90 10L90 100L100 100L100 0L50 0M0 20L0 60L10 60L10 20L0 20M20 20L20 80L80 80L80 20L20 20z"/>
<path style="fill:#000000; stroke:none;" d="M30 30L30 60L40 60L40 50L50 50L50 60L60 60L60 30L30 30z"/>
<path style="fill:#ffffff; stroke:none;" d="M10 90L10 100L80 100L80 90L10 90z"/>
</svg>
