<?xml version="1.0" standalone="yes"?>
<svg xmlns="http://www.w3.org/2000/svg" width="100" height="100">
<path style="fill:#ffffff; stroke:none;" d="M0 0L0 10L10 10L10 0L0 0z"/>
<path style="fill:#000000; stroke:none;" d="M10 0L10 10L0 10L0 30L10 30L10 70L0 70L0 100L20 100L20 90L40 90L40 100L80 100L80 90L100 90L100 60L90 60L90 30L100 30L100 10L80 10L80 0L10 0z"/>
<path style="fill:#ffffff; stroke:none;" d="M80 0L80 10L100 10L100 0L80 0M20 20L20 80L80 80L80 20L20 20M0 30L0 70L10 70L10 30L0 30z"/>
<path style="fill:#000000; stroke:none;" d="M30 30L30 50L40 50L40 60L30 60L30 70L60 70L60 60L70 60L70 30L60 30L60 60L50 60L50 50L40 50L40 30L30 30z"/>
<path style="fill:#ffffff; stroke:none;" d="M90 30L90 60L100 60L100 30L90 30M20 90L20 100L40 100L40 90L20 90M80 90L80 100L100 100L100 90L80 90z"/>
</svg>
