<?xml version="1.0" standalone="yes"?>
<svg xmlns="http://www.w3.org/2000/svg" width="100" height="100">
<path style="fill:#ffffff; stroke:none;" d="M0 0L0 10L20 10L20 0L0 0z"/>
<path style="fill:#000000; stroke:none;" d="M20 0L20 10L0 10L0 30L10 30L10 70L0 70L0 80L10 80L10 100L20 100L20 90L50 90L50 100L70 100L70 90L90 90L90 100L100 100L100 80L90 80L90 10L100 10L100 0L90 0L90 10L70 10L70 0L50 0L50 10L40 10L40 0L20 0z"/>
<path style="fill:#ffffff; stroke:none;" d="M40 0L40 10L50 10L50 0L40 0M70 0L70 10L90 10L90 0L70 0M90 10L90 80L100 80L100 10L90 10M20 20L20 80L80 80L80 20L20 20M0 30L0 70L10 70L10 30L0 30z"/>
<path style="fill:#000000; stroke:none;" d="M30 30L30 40L40 40L40 50L30 50L30 70L50 70L50 60L60 60L60 50L70 50L70 30L60 30L60 40L50 40L50 30L30 30z"/>
<path style="fill:#ffffff; stroke:none;" d="M40 50L40 60L50 60L50 50L40 50M0 80L0 100L10 100L10 80L0 80M20 90L20 100L50 100L50 90L20 90M70 90L70 100L90 100L90 90L70 90z"/>
</svg>
