<?xml version="1.0" standalone="yes"?>
<svg xmlns="http://www.w3.org/2000/svg" width="100" height="100">
<path style="fill:#ffffff; stroke:none;" d="M0 0L0 10L10 10L10 0L0 0z"/>
<path style="fill:#000000; stroke:none;" d="M10 0L10 10L0 10L0 20L10 20L10 80L0 80L0 100L10 100L10 90L30 90L30 100L40 100L40 90L70 90L70 100L80 100L80 90L90 90L90 100L100 100L100 70L90 70L90 60L100 60L100 50L90 50L90 0L80 0L80 10L70 10L70 0L50 0L50 10L40 10L40 0L10 0z"/>
<path style="fill:#ffffff; stroke:none;" d="M40 0L40 10L50 10L50 0L40 0M70 0L70 10L80 10L80 0L70 0M90 0L90 50L100 50L100 0L90 0M0 20L0 80L10 80L10 20L0 20M20 20L20 80L80 80L80 20L20 20z"/>
<path style="fill:#000000; stroke:none;" d="M40 30L40 40L50 40L50 50L40 50L40 60L30 60L30 70L40 70L40 60L50 60L50 70L60 70L60 30L40 30z"/>
<path style="fill:#ffffff; stroke:none;" d="M90 60L90 70L100 70L100 60L90 60M10 90L10 100L30 100L30 90L10 90M40 90L40 100L70 100L70 90L40 90M80 90L80 100L90 100L90 90L80 90z"/>
</svg>
