<?xml version="1.0" standalone="yes"?>
<svg xmlns="http://www.w3.org/2000/svg" width="100" height="100">
<path style="fill:#ffffff; stroke:none;" d="M0 0L0 50L10 50L10 10L60 10L60 0L0 0z"/>
<path style="fill:#000000; stroke:none;" d="M60 0L60 10L10 10L10 50L0 50L0 100L10 100L10 90L30 90L30 100L50 100L50 90L60 90L60 100L90 100L90 70L100 70L100 60L90 60L90 40L100 40L100 30L90 30L90 10L100 10L100 0L80 0L80 10L70 10L70 0L60 0z"/>
<path style="fill:#ffffff; stroke:none;" d="M70 0L70 10L80 10L80 0L70 0M90 10L90 30L100 30L100 10L90 10M20 20L20 80L80 80L80 20L20 20z"/>
<path style="fill:#000000; stroke:none;" d="M30 30L30 50L40 50L40 30L30 30M60 30L60 40L50 40L50 60L40 60L40 70L50 70L50 60L60 60L60 70L70 70L70 50L60 50L60 40L70 40L70 30L60 30z"/>
<path style="fill:#ffffff; stroke:none;" d="M90 40L90 60L100 60L100 40L90 40M90 70L90 100L100 100L100 70L90 70M10 90L10 100L30 100L30 90L10 90M50 90L50 100L60 100L60 90L50 90z"/>
</svg>
