<?xml version="1.0" standalone="yes"?>
<svg xmlns="http://www.w3.org/2000/svg" width="100" height="100">
<path style="fill:#000000; stroke:none;" d="M0 0L0 10L10 10L10 20L0 20L0 40L10 40L10 50L0 50L0 60L10 60L10 70L0 70L0 90L20 90L20 100L30 100L30 90L60 90L60 100L90 100L90 90L100 90L100 70L90 70L90 60L100 60L100 50L90 50L90 30L100 30L100 20L90 20L90 0L80 0L80 10L70 10L70 0L60 0L60 10L50 10L50 0L30 0L30 10L10 10L10 0L0 0z"/>
<path style="fill:#ffffff; stroke:none;" d="M10 0L10 10L30 10L30 0L10 0M50 0L50 10L60 10L60 0L50 0M70 0L70 10L80 10L80 0L70 0M90 0L90 20L100 20L100 0L90 0M0 10L0 20L10 20L10 10L0 10M20 20L20 80L80 80L80 20L20 20z"/>
<path style="fill:#000000; stroke:none;" d="M50 30L50 40L40 40L40 50L30 50L30 60L40 60L40 50L50 50L50 70L70 70L70 30L50 30z"/>
<path style="fill:#ffffff; stroke:none;" d="M90 30L90 50L100 50L100 30L90 30M0 40L0 50L10 50L10 40L0 40M50 40L50 50L60 50L60 40L50 40M0 60L0 70L10 70L10 60L0 60M90 60L90 70L100 70L100 60L90 60M0 90L0 100L20 100L20 90L0 90M30 90L30 100L60 100L60 90L30 90M90 90L90 100L100 100L100 90L90 90z"/>
</svg>
