<?xml version="1.0" standalone="yes"?>
<svg xmlns="http://www.w3.org/2000/svg" width="100" height="100">
<path style="fill:#000000; stroke:none;" d="M0 0L0 20L10 20L10 50L0 50L0 60L10 60L10 70L0 70L0 90L30 90L30 100L100 100L100 80L90 80L90 20L100 20L100 0L80 0L80 10L70 10L70 0L50 0L50 10L10 10L10 0L0 0z"/>
<path style="fill:#ffffff; stroke:none;" d="M10 0L10 10L50 10L50 0L10 0M70 0L70 10L80 10L80 0L70 0M0 20L0 50L10 50L10 20L0 20M20 20L20 80L80 80L80 20L20 20M90 20L90 80L100 80L100 20L90 20z"/>
<path style="fill:#000000; stroke:none;" d="M30 30L30 40L40 40L40 30L30 30M50 30L50 40L60 40L60 50L70 50L70 40L60 40L60 30L50 30M40 50L40 60L50 60L50 50L40 50z"/>
<path style="fill:#ffffff; stroke:none;" d="M0 60L0 70L10 70L10 60L0 60M0 90L0 100L30 100L30 90L0 90z"/>
</svg>
