<?xml version="1.0" standalone="yes"?>
<svg xmlns="http://www.w3.org/2000/svg" width="100" height="100">
<path style="fill:#ffffff; stroke:none;" d="M0 0L0 10L10 10L10 0L0 0z"/>
<path style="fill:#000000; stroke:none;" d="M10 0L10 10L0 10L0 40L10 40L10 50L0 50L0 60L10 60L10 90L40 90L40 100L60 100L60 90L70 90L70 100L100 100L100 80L90 80L90 60L100 60L100 50L90 50L90 30L100 30L100 0L90 0L90 10L50 10L50 0L10 0z"/>
<path style="fill:#ffffff; stroke:none;" d="M50 0L50 10L90 10L90 0L50 0M20 20L20 80L80 80L80 20L20 20z"/>
<path style="fill:#000000; stroke:none;" d="M30 30L30 50L40 50L40 60L50 60L50 70L70 70L70 50L60 50L60 60L50 60L50 50L40 50L40 30L30 30M50 30L50 40L70 40L70 30L50 30z"/>
<path style="fill:#ffffff; stroke:none;" d="M90 30L90 50L100 50L100 30L90 30M0 40L0 50L10 50L10 40L0 40M0 60L0 100L40 100L40 90L10 90L10 60L0 60M90 60L90 80L100 80L100 60L90 60M60 90L60 100L70 100L70 90L60 90z"/>
</svg>
