<?xml version="1.0" standalone="yes"?>
<svg xmlns="http://www.w3.org/2000/svg" width="100" height="100">
<path style="fill:#000000; stroke:none;" d="M0 0L0 10L10 10L10 30L0 30L0 70L10 70L10 100L50 100L50 90L60 90L60 100L70 100L70 90L80 90L80 100L90 100L90 90L100 90L100 80L90 80L90 70L100 70L100 30L90 30L90 0L70 0L70 10L10 10L10 0L0 0z"/>
<path style="fill:#ffffff; stroke:none;" d="M10 0L10 10L70 10L70 0L10 0M90 0L90 30L100 30L100 0L90 0M0 10L0 30L10 30L10 10L0 10M20 20L20 80L80 80L80 20L20 20z"/>
<path style="fill:#000000; stroke:none;" d="M40 30L40 40L30 40L30 50L40 50L40 60L60 60L60 70L70 70L70 60L60 60L60 50L70 50L70 30L40 30z"/>
<path style="fill:#ffffff; stroke:none;" d="M40 40L40 50L50 50L50 40L40 40M0 70L0 100L10 100L10 70L0 70M90 70L90 80L100 80L100 70L90 70M50 90L50 100L60 100L60 90L50 90M70 90L70 100L80 100L80 90L70 90M90 90L90 100L100 100L100 90L90 90z"/>
</svg>
