<?xml version="1.0" standalone="yes"?>
<svg xmlns="http://www.w3.org/2000/svg" width="100" height="100">
<path style="fill:#000000; stroke:none;" d="M0 0L0 40L10 40L10 50L0 50L0 70L10 70L10 80L0 80L0 100L50 100L50 90L80 90L80 100L90 100L90 80L100 80L100 70L90 70L90 60L100 60L100 30L90 30L90 20L100 20L100 10L90 10L90 0L60 0L60 10L10 10L10 0L0 0z"/>
<path style="fill:#ffffff; stroke:none;" d="M10 0L10 10L60 10L60 0L10 0M90 0L90 10L100 10L100 0L90 0M20 20L20 80L80 80L80 20L20 20M90 20L90 30L100 30L100 20L90 20z"/>
<path style="fill:#000000; stroke:none;" d="M40 30L40 60L30 60L30 70L40 70L40 60L50 60L50 70L60 70L60 60L70 60L70 30L60 30L60 40L50 40L50 30L40 30z"/>
<path style="fill:#ffffff; stroke:none;" d="M0 40L0 50L10 50L10 40L0 40M90 60L90 70L100 70L100 60L90 60M0 70L0 80L10 80L10 70L0 70M90 80L90 100L100 100L100 80L90 80M50 90L50 100L80 100L80 90L50 90z"/>
</svg>
