<?xml version="1.0" standalone="yes"?>
<svg xmlns="http://www.w3.org/2000/svg" width="100" height="100">
<path style="fill:#000000; stroke:none;" d="M0 0L0 70L10 70L10 80L0 80L0 90L10 90L10 100L30 100L30 90L40 90L40 100L60 100L60 90L70 90L70 100L100 100L100 90L90 90L90 70L100 70L100 60L90 60L90 50L100 50L100 10L80 10L80 0L70 0L70 10L60 10L60 0L50 0L50 10L10 10L10 0L0 0z"/>
<path style="fill:#ffffff; stroke:none;" d="M10 0L10 10L50 10L50 0L10 0M60 0L60 10L70 10L70 0L60 0M80 0L80 10L100 10L100 0L80 0M20 20L20 80L80 80L80 20L20 20z"/>
<path style="fill:#000000; stroke:none;" d="M50 30L50 40L70 40L70 30L50 30M30 40L30 50L40 50L40 60L50 60L50 50L40 50L40 40L30 40M60 50L60 60L70 60L70 50L60 50z"/>
<path style="fill:#ffffff; stroke:none;" d="M90 50L90 60L100 60L100 50L90 50M0 70L0 80L10 80L10 70L0 70M90 70L90 90L100 90L100 70L90 70M0 90L0 100L10 100L10 90L0 90M30 90L30 100L40 100L40 90L30 90M60 90L60 100L70 100L70 90L60 90z"/>
</svg>
