<?xml version="1.0" standalone="yes"?>
<svg xmlns="http://www.w3.org/2000/svg" width="100" height="100">
<path style="fill:#ffffff; stroke:none;" d="M0 0L0 20L10 20L10 10L60 10L60 0L0 0z"/>
<path style="fill:#000000; stroke:none;" d="M60 0L60 10L10 10L10 20L0 20L0 40L10 40L10 80L0 80L0 90L10 90L10 100L20 100L20 90L90 90L90 80L100 80L100 70L90 70L90 50L100 50L100 40L90 40L90 20L100 20L100 10L80 10L80 0L60 0z"/>
<path style="fill:#ffffff; stroke:none;" d="M80 0L80 10L100 10L100 0L80 0M20 20L20 80L80 80L80 20L20 20M90 20L90 40L100 40L100 20L90 20z"/>
<path style="fill:#000000; stroke:none;" d="M30 30L30 50L50 50L50 70L70 70L70 50L60 50L60 30L50 30L50 40L40 40L40 30L30 30z"/>
<path style="fill:#ffffff; stroke:none;" d="M0 40L0 80L10 80L10 40L0 40M90 50L90 70L100 70L100 50L90 50z"/>
<path style="fill:#000000; stroke:none;" d="M30 60L30 70L40 70L40 60L30 60z"/>
<path style="fill:#ffffff; stroke:none;" d="M90 80L90 90L20 90L20 100L100 100L100 80L90 80M0 90L0 100L10 100L10 90L0 90z"/>
</svg>
