<?xml version="1.0" standalone="yes"?>
<svg xmlns="http://www.w3.org/2000/svg" width="100" height="100">
<path style="fill:#ffffff; stroke:none;" d="M0 0L0 10L10 10L10 0L0 0z"/>
<path style="fill:#000000; stroke:none;" d="M10 0L10 10L0 10L0 70L10 70L10 90L20 90L20 100L40 100L40 90L80 90L80 100L100 100L100 70L90 70L90 40L100 40L100 10L90 10L90 0L50 0L50 10L40 10L40 0L10 0z"/>
<path style="fill:#ffffff; stroke:none;" d="M40 0L40 10L50 10L50 0L40 0M90 0L90 10L100 10L100 0L90 0M20 20L20 80L80 80L80 20L20 20z"/>
<path style="fill:#000000; stroke:none;" d="M30 30L30 40L40 40L40 50L30 50L30 60L40 60L40 70L70 70L70 60L60 60L60 50L50 50L50 30L30 30M60 30L60 40L70 40L70 30L60 30z"/>
<path style="fill:#ffffff; stroke:none;" d="M90 40L90 70L100 70L100 40L90 40M0 70L0 100L20 100L20 90L10 90L10 70L0 70M40 90L40 100L80 100L80 90L40 90z"/>
</svg>
