<?xml version="1.0" standalone="yes"?>
<svg xmlns="http://www.w3.org/2000/svg" width="100" height="100">
<path style="fill:#ffffff; stroke:none;" d="M0 0L0 60L10 60L10 0L0 0z"/>
<path style="fill:#000000; stroke:none;" d="M10 0L10 60L0 60L0 70L10 70L10 80L0 80L0 90L50 90L50 100L70 100L70 90L80 90L80 100L90 100L90 80L100 80L100 40L90 40L90 20L100 20L100 10L90 10L90 0L40 0L40 10L30 10L30 0L10 0z"/>
<path style="fill:#ffffff; stroke:none;" d="M30 0L30 10L40 10L40 0L30 0M90 0L90 10L100 10L100 0L90 0M20 20L20 80L80 80L80 20L20 20M90 20L90 40L100 40L100 20L90 20z"/>
<path style="fill:#000000; stroke:none;" d="M40 30L40 60L30 60L30 70L40 70L40 60L50 60L50 50L60 50L60 60L70 60L70 50L60 50L60 40L70 40L70 30L40 30z"/>
<path style="fill:#ffffff; stroke:none;" d="M0 70L0 80L10 80L10 70L0 70M90 80L90 100L100 100L100 80L90 80M0 90L0 100L50 100L50 90L0 90M70 90L70 100L80 100L80 90L70 90z"/>
</svg>
