<?xml version="1.0" standalone="yes"?>
<svg xmlns="http://www.w3.org/2000/svg" width="100" height="100">
<path style="fill:#ffffff; stroke:none;" d="M0 0L0 70L10 70L10 10L30 10L30 0L0 0z"/>
<path style="fill:#000000; stroke:none;" d="M30 0L30 10L10 10L10 70L0 70L0 80L10 80L10 90L0 90L0 100L70 100L70 90L90 90L90 80L100 80L100 30L90 30L90 10L70 10L70 0L50 0L50 10L40 10L40 0L30 0z"/>
<path style="fill:#ffffff; stroke:none;" d="M40 0L40 10L50 10L50 0L40 0M70 0L70 10L90 10L90 30L100 30L100 0L70 0M20 20L20 80L80 80L80 20L20 20z"/>
<path style="fill:#000000; stroke:none;" d="M30 30L30 40L50 40L50 30L30 30M60 40L60 60L50 60L50 50L30 50L30 60L40 60L40 70L60 70L60 60L70 60L70 40L60 40z"/>
<path style="fill:#ffffff; stroke:none;" d="M0 80L0 90L10 90L10 80L0 80M90 80L90 90L70 90L70 100L100 100L100 80L90 80z"/>
</svg>
