<?xml version="1.0" standalone="yes"?>
<svg xmlns="http://www.w3.org/2000/svg" width="100" height="100">
<path style="fill:#ffffff; stroke:none;" d="M0 0L0 10L10 10L10 0L0 0z"/>
<path style="fill:#000000; stroke:none;" d="M10 0L10 10L0 10L0 20L10 20L10 40L0 40L0 60L10 60L10 80L0 80L0 100L30 100L30 90L60 90L60 100L80 100L80 90L90 90L90 70L100 70L100 40L90 40L90 10L100 10L100 0L70 0L70 10L30 10L30 0L10 0z"/>
<path style="fill:#ffffff; stroke:none;" d="M30 0L30 10L70 10L70 0L30 0M90 10L90 40L100 40L100 10L90 10M0 20L0 40L10 40L10 20L0 20M20 20L20 80L80 80L80 20L20 20z"/>
<path style="fill:#000000; stroke:none;" d="M30 30L30 70L60 70L60 40L70 40L70 30L60 30L60 40L50 40L50 30L30 30z"/>
<path style="fill:#ffffff; stroke:none;" d="M40 40L40 60L50 60L50 40L40 40M0 60L0 80L10 80L10 60L0 60M90 70L90 90L80 90L80 100L100 100L100 70L90 70M30 90L30 100L60 100L60 90L30 90z"/>
</svg>
