<?xml version="1.0" standalone="yes"?>
<svg xmlns="http://www.w3.org/2000/svg" width="100" height="100">
<path style="fill:#000000; stroke:none;" d="M0 0L0 20L10 20L10 50L0 50L0 70L10 70L10 90L0 90L0 100L40 100L40 90L50 90L50 100L70 100L70 90L80 90L80 100L90 100L90 90L100 90L100 80L90 80L90 70L100 70L100 50L90 50L90 30L100 30L100 20L90 20L90 10L80 10L80 0L70 0L70 10L60 10L60 0L20 0L20 10L10 10L10 0L0 0z"/>
<path style="fill:#ffffff; stroke:none;" d="M10 0L10 10L20 10L20 0L10 0M60 0L60 10L70 10L70 0L60 0M80 0L80 10L90 10L90 20L100 20L100 0L80 0M0 20L0 50L10 50L10 20L0 20M20 20L20 80L80 80L80 20L20 20z"/>
<path style="fill:#000000; stroke:none;" d="M50 30L50 50L30 50L30 60L40 60L40 70L60 70L60 30L50 30z"/>
<path style="fill:#ffffff; stroke:none;" d="M90 30L90 50L100 50L100 30L90 30M0 70L0 90L10 90L10 70L0 70M90 70L90 80L100 80L100 70L90 70M40 90L40 100L50 100L50 90L40 90M70 90L70 100L80 100L80 90L70 90M90 90L90 100L100 100L100 90L90 90z"/>
</svg>
