<?xml version="1.0" standalone="yes"?>
<svg xmlns="http://www.w3.org/2000/svg" width="100" height="100">
<path style="fill:#ffffff; stroke:none;" d="M0 0L0 10L10 10L10 0L0 0z"/>
<path style="fill:#000000; stroke:none;" d="M10 0L10 10L0 10L0 70L10 70L10 90L30 90L30 100L40 100L40 90L50 90L50 100L60 100L60 90L80 90L80 100L90 100L90 80L100 80L100 70L90 70L90 30L100 30L100 20L90 20L90 0L70 0L70 10L60 10L60 0L50 0L50 10L40 10L40 0L10 0z"/>
<path style="fill:#ffffff; stroke:none;" d="M40 0L40 10L50 10L50 0L40 0M60 0L60 10L70 10L70 0L60 0M90 0L90 20L100 20L100 0L90 0M20 20L20 80L80 80L80 20L20 20z"/>
<path style="fill:#000000; stroke:none;" d="M40 30L40 40L30 40L30 50L40 50L40 60L30 60L30 70L40 70L40 60L60 60L60 70L70 70L70 60L60 60L60 50L70 50L70 30L40 30z"/>
<path style="fill:#ffffff; stroke:none;" d="M90 30L90 70L100 70L100 30L90 30M50 40L50 50L60 50L60 40L50 40M0 70L0 100L30 100L30 90L10 90L10 70L0 70M90 80L90 100L100 100L100 80L90 80M40 90L40 100L50 100L50 90L40 90M60 90L60 100L80 100L80 90L60 90z"/>
</svg>
