<?xml version="1.0" standalone="yes"?>
<svg xmlns="http://www.w3.org/2000/svg" width="100" height="100">
<path style="fill:#ffffff; stroke:none;" d="M0 0L0 40L10 40L10 10L20 10L20 0L0 0z"/>
<path style="fill:#000000; stroke:none;" d="M20 0L20 10L10 10L10 40L0 40L0 70L10 70L10 90L0 90L0 100L20 100L20 90L50 90L50 100L80 100L80 90L90 90L90 70L100 70L100 60L90 60L90 40L100 40L100 20L90 20L90 10L50 10L50 0L40 0L40 10L30 10L30 0L20 0z"/>
<path style="fill:#ffffff; stroke:none;" d="M30 0L30 10L40 10L40 0L30 0M50 0L50 10L90 10L90 20L100 20L100 0L50 0M20 20L20 80L80 80L80 20L20 20z"/>
<path style="fill:#000000; stroke:none;" d="M50 30L50 40L30 40L30 50L50 50L50 40L60 40L60 30L50 30z"/>
<path style="fill:#ffffff; stroke:none;" d="M90 40L90 60L100 60L100 40L90 40M0 70L0 90L10 90L10 70L0 70M90 70L90 90L80 90L80 100L100 100L100 70L90 70M20 90L20 100L50 100L50 90L20 90z"/>
</svg>
