<?xml version="1.0" standalone="yes"?>
<svg xmlns="http://www.w3.org/2000/svg" width="100" height="100">
<path style="fill:#ffffff; stroke:none;" d="M0 0L0 40L10 40L10 0L0 0z"/>
<path style="fill:#000000; stroke:none;" d="M10 0L10 40L0 40L0 50L10 50L10 60L0 60L0 80L10 80L10 100L30 100L30 90L40 90L40 100L80 100L80 90L90 90L90 100L100 100L100 90L90 90L90 70L100 70L100 40L90 40L90 10L100 10L100 0L90 0L90 10L70 10L70 0L40 0L40 10L20 10L20 0L10 0z"/>
<path style="fill:#ffffff; stroke:none;" d="M20 0L20 10L40 10L40 0L20 0M70 0L70 10L90 10L90 0L70 0M90 10L90 40L100 40L100 10L90 10M20 20L20 80L80 80L80 20L20 20z"/>
<path style="fill:#000000; stroke:none;" d="M40 30L40 50L30 50L30 60L40 60L40 70L60 70L60 60L40 60L40 50L50 50L50 40L60 40L60 50L70 50L70 30L40 30z"/>
<path style="fill:#ffffff; stroke:none;" d="M0 50L0 60L10 60L10 50L0 50M90 70L90 90L100 90L100 70L90 70M0 80L0 100L10 100L10 80L0 80M30 90L30 100L40 100L40 90L30 90M80 90L80 100L90 100L90 90L80 90z"/>
</svg>
