<?xml version="1.0" standalone="yes"?>
<svg xmlns="http://www.w3.org/2000/svg" width="100" height="100">
<path style="fill:#ffffff; stroke:none;" d="M0 0L0 80L10 80L10 0L0 0z"/>
<path style="fill:#000000; stroke:none;" d="M10 0L10 80L0 80L0 90L70 90L70 100L100 100L100 90L90 90L90 80L100 80L100 70L90 70L90 10L80 10L80 0L60 0L60 10L50 10L50 0L10 0z"/>
<path style="fill:#ffffff; stroke:none;" d="M50 0L50 10L60 10L60 0L50 0M80 0L80 10L90 10L90 70L100 70L100 0L80 0M20 20L20 80L80 80L80 20L20 20z"/>
<path style="fill:#000000; stroke:none;" d="M50 30L50 50L30 50L30 70L50 70L50 50L70 50L70 30L50 30M60 60L60 70L70 70L70 60L60 60z"/>
<path style="fill:#ffffff; stroke:none;" d="M90 80L90 90L100 90L100 80L90 80M0 90L0 100L70 100L70 90L0 90z"/>
</svg>
