<?xml version="1.0" standalone="yes"?>
<svg xmlns="http://www.w3.org/2000/svg" width="100" height="100">
<path style="fill:#000000; stroke:none;" d="M0 0L0 20L10 20L10 40L0 40L0 50L10 50L10 80L0 80L0 90L10 90L10 100L20 100L20 90L40 90L40 100L70 100L70 90L80 90L80 100L100 100L100 90L90 90L90 70L100 70L100 50L90 50L90 40L100 40L100 20L90 20L90 0L80 0L80 10L60 10L60 0L50 0L50 10L10 10L10 0L0 0z"/>
<path style="fill:#ffffff; stroke:none;" d="M10 0L10 10L50 10L50 0L10 0M60 0L60 10L80 10L80 0L60 0M90 0L90 20L100 20L100 0L90 0M0 20L0 40L10 40L10 20L0 20M20 20L20 80L80 80L80 20L20 20z"/>
<path style="fill:#000000; stroke:none;" d="M50 30L50 40L40 40L40 50L30 50L30 70L40 70L40 60L50 60L50 70L70 70L70 30L50 30z"/>
<path style="fill:#ffffff; stroke:none;" d="M50 40L50 60L60 60L60 40L50 40M90 40L90 50L100 50L100 40L90 40M0 50L0 80L10 80L10 50L0 50M90 70L90 90L100 90L100 70L90 70M0 90L0 100L10 100L10 90L0 90M20 90L20 100L40 100L40 90L20 90M70 90L70 100L80 100L80 90L70 90z"/>
</svg>
