<?xml version="1.0" standalone="yes"?>
<svg xmlns="http://www.w3.org/2000/svg" width="100" height="100">
<path style="fill:#000000; stroke:none;" d="M0 0L0 10L10 10L10 40L0 40L0 80L10 80L10 90L20 90L20 100L40 100L40 90L60 90L60 100L70 100L70 90L90 90L90 100L100 100L100 50L90 50L90 30L100 30L100 0L90 0L90 10L60 10L60 0L20 0L20 10L10 10L10 0L0 0z"/>
<path style="fill:#ffffff; stroke:none;" d="M10 0L10 10L20 10L20 0L10 0M60 0L60 10L90 10L90 0L60 0M0 10L0 40L10 40L10 10L0 10M20 20L20 80L80 80L80 20L20 20z"/>
<path style="fill:#000000; stroke:none;" d="M50 30L50 40L40 40L40 60L30 60L30 70L40 70L40 60L50 60L50 70L70 70L70 30L50 30z"/>
<path style="fill:#ffffff; stroke:none;" d="M90 30L90 50L100 50L100 30L90 30M50 50L50 60L60 60L60 50L50 50M0 80L0 100L20 100L20 90L10 90L10 80L0 80M40 90L40 100L60 100L60 90L40 90M70 90L70 100L90 100L90 90L70 90z"/>
</svg>
