<?xml version="1.0" standalone="yes"?>
<svg xmlns="http://www.w3.org/2000/svg" width="100" height="100">
<path style="fill:#000000; stroke:none;" d="M0 0L0 10L10 10L10 30L0 30L0 40L10 40L10 50L0 50L0 70L10 70L10 80L0 80L0 100L30 100L30 90L80 90L80 100L100 100L100 90L90 90L90 70L100 70L100 20L90 20L90 0L50 0L50 10L20 10L20 0L0 0z"/>
<path style="fill:#ffffff; stroke:none;" d="M20 0L20 10L50 10L50 0L20 0M90 0L90 20L100 20L100 0L90 0M0 10L0 30L10 30L10 10L0 10M20 20L20 80L80 80L80 20L20 20z"/>
<path style="fill:#000000; stroke:none;" d="M30 30L30 40L40 40L40 60L60 60L60 50L70 50L70 30L30 30z"/>
<path style="fill:#ffffff; stroke:none;" d="M0 40L0 50L10 50L10 40L0 40M50 40L50 50L60 50L60 40L50 40M0 70L0 80L10 80L10 70L0 70M90 70L90 90L100 90L100 70L90 70M30 90L30 100L80 100L80 90L30 90z"/>
</svg>
