<?xml version="1.0" standalone="yes"?>
<svg xmlns="http://www.w3.org/2000/svg" width="100" height="100">
<path style="fill:#000000; stroke:none;" d="M0 0L0 50L10 50L10 70L0 70L0 90L20 90L20 100L50 100L50 90L60 90L60 100L100 100L100 50L90 50L90 10L100 10L100 0L70 0L70 10L50 10L50 0L20 0L20 10L10 10L10 0L0 0z"/>
<path style="fill:#ffffff; stroke:none;" d="M10 0L10 10L20 10L20 0L10 0M50 0L50 10L70 10L70 0L50 0M90 10L90 50L100 50L100 10L90 10M20 20L20 80L80 80L80 20L20 20z"/>
<path style="fill:#000000; stroke:none;" d="M60 30L60 40L30 40L30 70L40 70L40 50L50 50L50 70L70 70L70 30L60 30z"/>
<path style="fill:#ffffff; stroke:none;" d="M0 50L0 70L10 70L10 50L0 50M0 90L0 100L20 100L20 90L0 90M50 90L50 100L60 100L60 90L50 90z"/>
</svg>
