<?xml version="1.0" standalone="yes"?>
<svg xmlns="http://www.w3.org/2000/svg" width="100" height="100">
<path style="fill:#000000; stroke:none;" d="M0 0L0 10L10 10L10 50L0 50L0 100L10 100L10 90L20 90L20 100L40 100L40 90L60 90L60 100L90 100L90 30L100 30L100 20L90 20L90 10L100 10L100 0L90 0L90 10L70 10L70 0L20 0L20 10L10 10L10 0L0 0z"/>
<path style="fill:#ffffff; stroke:none;" d="M10 0L10 10L20 10L20 0L10 0M70 0L70 10L90 10L90 0L70 0M0 10L0 50L10 50L10 10L0 10M90 10L90 20L100 20L100 10L90 10M20 20L20 80L80 80L80 20L20 20z"/>
<path style="fill:#000000; stroke:none;" d="M50 30L50 50L40 50L40 70L50 70L50 60L60 60L60 30L50 30z"/>
<path style="fill:#ffffff; stroke:none;" d="M90 30L90 100L100 100L100 30L90 30M10 90L10 100L20 100L20 90L10 90M40 90L40 100L60 100L60 90L40 90z"/>
</svg>
