<?xml version="1.0" standalone="yes"?>
<svg xmlns="http://www.w3.org/2000/svg" width="100" height="100">
<path style="fill:#ffffff; stroke:none;" d="M0 0L0 50L10 50L10 0L0 0z"/>
<path style="fill:#000000; stroke:none;" d="M10 0L10 50L0 50L0 70L10 70L10 80L0 80L0 100L10 100L10 90L20 90L20 100L100 100L100 90L90 90L90 20L100 20L100 0L90 0L90 10L50 10L50 0L10 0z"/>
<path style="fill:#ffffff; stroke:none;" d="M50 0L50 10L90 10L90 0L50 0M20 20L20 80L80 80L80 20L20 20M90 20L90 90L100 90L100 20L90 20z"/>
<path style="fill:#000000; stroke:none;" d="M40 30L40 40L50 40L50 30L40 30M60 30L60 50L40 50L40 70L70 70L70 60L60 60L60 50L70 50L70 30L60 30z"/>
<path style="fill:#ffffff; stroke:none;" d="M0 70L0 80L10 80L10 70L0 70M10 90L10 100L20 100L20 90L10 90z"/>
</svg>
