<?xml version="1.0" standalone="yes"?>
<svg xmlns="http://www.w3.org/2000/svg" width="100" height="100">
<path style="fill:#000000; stroke:none;" d="M0 0L0 20L10 20L10 30L0 30L0 40L10 40L10 70L0 70L0 80L10 80L10 90L0 90L0 100L20 100L20 90L30 90L30 100L70 100L70 90L80 90L80 100L100 100L100 90L90 90L90 60L100 60L100 30L90 30L90 0L80 0L80 10L50 10L50 0L20 0L20 10L10 10L10 0L0 0z"/>
<path style="fill:#ffffff; stroke:none;" d="M10 0L10 10L20 10L20 0L10 0M50 0L50 10L80 10L80 0L50 0M90 0L90 30L100 30L100 0L90 0M0 20L0 30L10 30L10 20L0 20M20 20L20 80L80 80L80 20L20 20z"/>
<path style="fill:#000000; stroke:none;" d="M30 30L30 40L40 40L40 60L30 60L30 70L40 70L40 60L50 60L50 70L60 70L60 50L70 50L70 30L60 30L60 50L50 50L50 40L40 40L40 30L30 30z"/>
<path style="fill:#ffffff; stroke:none;" d="M0 40L0 70L10 70L10 40L0 40M90 60L90 90L100 90L100 60L90 60M0 80L0 90L10 90L10 80L0 80M20 90L20 100L30 100L30 90L20 90M70 90L70 100L80 100L80 90L70 90z"/>
</svg>
