<?xml version="1.0" standalone="yes"?>
<svg xmlns="http://www.w3.org/2000/svg" width="100" height="100">
<path style="fill:#000000; stroke:none;" d="M0 0L0 10L10 10L10 30L0 30L0 60L10 60L10 70L0 70L0 80L10 80L10 90L0 90L0 100L10 100L10 90L30 90L30 100L50 100L50 90L70 90L70 100L100 100L100 90L90 90L90 80L100 80L100 50L90 50L90 40L100 40L100 30L90 30L90 20L100 20L100 10L70 10L70 0L50 0L50 10L40 10L40 0L20 0L20 10L10 10L10 0L0 0z"/>
<path style="fill:#ffffff; stroke:none;" d="M10 0L10 10L20 10L20 0L10 0M40 0L40 10L50 10L50 0L40 0M70 0L70 10L100 10L100 0L70 0M0 10L0 30L10 30L10 10L0 10M20 20L20 80L80 80L80 20L20 20M90 20L90 30L100 30L100 20L90 20z"/>
<path style="fill:#000000; stroke:none;" d="M30 30L30 40L40 40L40 50L50 50L50 70L70 70L70 60L60 60L60 50L70 50L70 30L60 30L60 40L40 40L40 30L30 30z"/>
<path style="fill:#ffffff; stroke:none;" d="M90 40L90 50L100 50L100 40L90 40M0 60L0 70L10 70L10 60L0 60z"/>
<path style="fill:#000000; stroke:none;" d="M30 60L30 70L40 70L40 60L30 60z"/>
<path style="fill:#ffffff; stroke:none;" d="M0 80L0 90L10 90L10 80L0 80M90 80L90 90L100 90L100 80L90 80M10 90L10 100L30 100L30 90L10 90M50 90L50 100L70 100L70 90L50 90z"/>
</svg>
