<?xml version="1.0" standalone="yes"?>
<svg xmlns="http://www.w3.org/2000/svg" width="100" height="100">
<path style="fill:#000000; stroke:none;" d="M0 0L0 10L10 10L10 40L0 40L0 60L10 60L10 80L0 80L0 100L30 100L30 90L40 90L40 100L50 100L50 90L80 90L80 100L100 100L100 90L90 90L90 70L100 70L100 40L90 40L90 30L100 30L100 10L60 10L60 0L40 0L40 10L10 10L10 0L0 0z"/>
<path style="fill:#ffffff; stroke:none;" d="M10 0L10 10L40 10L40 0L10 0M60 0L60 10L100 10L100 0L60 0M0 10L0 40L10 40L10 10L0 10M20 20L20 80L80 80L80 20L20 20z"/>
<path style="fill:#000000; stroke:none;" d="M40 30L40 40L30 40L30 50L40 50L40 60L60 60L60 70L70 70L70 60L60 60L60 50L70 50L70 30L60 30L60 40L50 40L50 30L40 30z"/>
<path style="fill:#ffffff; stroke:none;" d="M90 30L90 40L100 40L100 30L90 30M40 40L40 50L50 50L50 40L40 40M0 60L0 80L10 80L10 60L0 60M90 70L90 90L100 90L100 70L90 70M30 90L30 100L40 100L40 90L30 90M50 90L50 100L80 100L80 90L50 90z"/>
</svg>
