<?xml version="1.0" standalone="yes"?>
<svg xmlns="http://www.w3.org/2000/svg" width="100" height="100">
<path style="fill:#000000; stroke:none;" d="M0 0L0 20L10 20L10 40L0 40L0 70L10 70L10 80L0 80L0 100L10 100L10 90L20 90L20 100L60 100L60 90L70 90L70 100L100 100L100 70L90 70L90 60L100 60L100 40L90 40L90 10L80 10L80 0L60 0L60 10L50 10L50 0L40 0L40 10L30 10L30 0L0 0z"/>
<path style="fill:#ffffff; stroke:none;" d="M30 0L30 10L40 10L40 0L30 0M50 0L50 10L60 10L60 0L50 0M80 0L80 10L90 10L90 40L100 40L100 0L80 0M0 20L0 40L10 40L10 20L0 20M20 20L20 80L80 80L80 20L20 20z"/>
<path style="fill:#000000; stroke:none;" d="M30 30L30 50L50 50L50 40L60 40L60 30L30 30M60 50L60 60L40 60L40 70L60 70L60 60L70 60L70 50L60 50z"/>
<path style="fill:#ffffff; stroke:none;" d="M90 60L90 70L100 70L100 60L90 60M0 70L0 80L10 80L10 70L0 70M10 90L10 100L20 100L20 90L10 90M60 90L60 100L70 100L70 90L60 90z"/>
</svg>
