<?xml version="1.0" standalone="yes"?>
<svg xmlns="http://www.w3.org/2000/svg" width="100" height="100">
<path style="fill:#000000; stroke:none;" d="M0 0L0 20L10 20L10 40L0 40L0 100L40 100L40 90L50 90L50 100L90 100L90 90L100 90L100 60L90 60L90 50L100 50L100 40L90 40L90 0L60 0L60 10L40 10L40 0L30 0L30 10L10 10L10 0L0 0z"/>
<path style="fill:#ffffff; stroke:none;" d="M10 0L10 10L30 10L30 0L10 0M40 0L40 10L60 10L60 0L40 0M90 0L90 40L100 40L100 0L90 0M0 20L0 40L10 40L10 20L0 20M20 20L20 80L80 80L80 20L20 20z"/>
<path style="fill:#000000; stroke:none;" d="M30 40L30 60L50 60L50 70L60 70L60 60L70 60L70 40L60 40L60 60L50 60L50 50L40 50L40 40L30 40z"/>
<path style="fill:#ffffff; stroke:none;" d="M90 50L90 60L100 60L100 50L90 50M40 90L40 100L50 100L50 90L40 90M90 90L90 100L100 100L100 90L90 90z"/>
</svg>
