<?xml version="1.0" standalone="yes"?>
<svg xmlns="http://www.w3.org/2000/svg" width="100" height="100">
<path style="fill:#000000; stroke:none;" d="M0 0L0 20L10 20L10 30L0 30L0 50L10 50L10 70L0 70L0 80L10 80L10 90L50 90L50 100L60 100L60 90L80 90L80 100L100 100L100 80L90 80L90 40L100 40L100 10L90 10L90 0L80 0L80 10L10 10L10 0L0 0z"/>
<path style="fill:#ffffff; stroke:none;" d="M10 0L10 10L80 10L80 0L10 0M90 0L90 10L100 10L100 0L90 0M0 20L0 30L10 30L10 20L0 20M20 20L20 80L80 80L80 20L20 20z"/>
<path style="fill:#000000; stroke:none;" d="M30 30L30 40L40 40L40 30L30 30M60 30L60 40L50 40L50 50L30 50L30 60L50 60L50 50L60 50L60 40L70 40L70 30L60 30z"/>
<path style="fill:#ffffff; stroke:none;" d="M90 40L90 80L100 80L100 40L90 40M0 50L0 70L10 70L10 50L0 50z"/>
<path style="fill:#000000; stroke:none;" d="M60 60L60 70L70 70L70 60L60 60z"/>
<path style="fill:#ffffff; stroke:none;" d="M0 80L0 100L50 100L50 90L10 90L10 80L0 80M60 90L60 100L80 100L80 90L60 90z"/>
</svg>
