<?xml version="1.0" standalone="yes"?>
<svg xmlns="http://www.w3.org/2000/svg" width="100" height="100">
<path style="fill:#000000; stroke:none;" d="M0 0L0 10L10 10L10 80L0 80L0 100L40 100L40 90L60 90L60 100L90 100L90 90L100 90L100 70L90 70L90 30L100 30L100 0L90 0L90 10L70 10L70 0L60 0L60 10L40 10L40 0L0 0z"/>
<path style="fill:#ffffff; stroke:none;" d="M40 0L40 10L60 10L60 0L40 0M70 0L70 10L90 10L90 0L70 0M0 10L0 80L10 80L10 10L0 10M20 20L20 80L80 80L80 20L20 20z"/>
<path style="fill:#000000; stroke:none;" d="M40 30L40 40L30 40L30 70L70 70L70 60L50 60L50 40L60 40L60 50L70 50L70 40L60 40L60 30L40 30z"/>
<path style="fill:#ffffff; stroke:none;" d="M90 30L90 70L100 70L100 30L90 30M40 90L40 100L60 100L60 90L40 90M90 90L90 100L100 100L100 90L90 90z"/>
</svg>
