<?xml version="1.0" standalone="yes"?>
<svg xmlns="http://www.w3.org/2000/svg" width="100" height="100">
<path style="fill:#000000; stroke:none;" d="M0 0L0 20L10 20L10 40L0 40L0 50L10 50L10 60L0 60L0 70L10 70L10 90L0 90L0 100L10 100L10 90L20 90L20 100L60 100L60 90L80 90L80 100L90 100L90 70L100 70L100 40L90 40L90 0L60 0L60 10L50 10L50 0L30 0L30 10L20 10L20 0L0 0z"/>
<path style="fill:#ffffff; stroke:none;" d="M20 0L20 10L30 10L30 0L20 0M50 0L50 10L60 10L60 0L50 0M90 0L90 40L100 40L100 0L90 0M0 20L0 40L10 40L10 20L0 20M20 20L20 80L80 80L80 20L20 20z"/>
<path style="fill:#000000; stroke:none;" d="M30 30L30 50L40 50L40 60L50 60L50 70L60 70L60 30L50 30L50 50L40 50L40 30L30 30z"/>
<path style="fill:#ffffff; stroke:none;" d="M0 50L0 60L10 60L10 50L0 50M0 70L0 90L10 90L10 70L0 70M90 70L90 100L100 100L100 70L90 70M10 90L10 100L20 100L20 90L10 90M60 90L60 100L80 100L80 90L60 90z"/>
</svg>
