<?xml version="1.0" standalone="yes"?>
<svg xmlns="http://www.w3.org/2000/svg" width="100" height="100">
<path style="fill:#000000; stroke:none;" d="M0 0L0 10L10 10L10 30L0 30L0 50L10 50L10 60L0 60L0 70L10 70L10 80L0 80L0 100L20 100L20 90L40 90L40 100L100 100L100 70L90 70L90 30L100 30L100 20L90 20L90 0L80 0L80 10L60 10L60 0L30 0L30 10L10 10L10 0L0 0z"/>
<path style="fill:#ffffff; stroke:none;" d="M10 0L10 10L30 10L30 0L10 0M60 0L60 10L80 10L80 0L60 0M90 0L90 20L100 20L100 0L90 0M0 10L0 30L10 30L10 10L0 10M20 20L20 80L80 80L80 20L20 20z"/>
<path style="fill:#000000; stroke:none;" d="M50 30L50 40L60 40L60 50L50 50L50 60L40 60L40 70L70 70L70 40L60 40L60 30L50 30z"/>
<path style="fill:#ffffff; stroke:none;" d="M90 30L90 70L100 70L100 30L90 30M0 50L0 60L10 60L10 50L0 50M0 70L0 80L10 80L10 70L0 70M20 90L20 100L40 100L40 90L20 90z"/>
</svg>
