<?xml version="1.0" standalone="yes"?>
<svg xmlns="http://www.w3.org/2000/svg" width="100" height="100">
<path style="fill:#ffffff; stroke:none;" d="M0 0L0 60L10 60L10 10L20 10L20 0L0 0z"/>
<path style="fill:#000000; stroke:none;" d="M20 0L20 10L10 10L10 60L0 60L0 70L10 70L10 80L0 80L0 90L10 90L10 100L20 100L20 90L40 90L40 100L60 100L60 90L100 90L100 80L90 80L90 70L100 70L100 50L90 50L90 20L100 20L100 10L70 10L70 0L20 0z"/>
<path style="fill:#ffffff; stroke:none;" d="M70 0L70 10L100 10L100 0L70 0M20 20L20 80L80 80L80 20L20 20M90 20L90 50L100 50L100 20L90 20z"/>
<path style="fill:#000000; stroke:none;" d="M40 30L40 40L50 40L50 50L60 50L60 70L70 70L70 30L40 30M30 60L30 70L50 70L50 60L30 60z"/>
<path style="fill:#ffffff; stroke:none;" d="M0 70L0 80L10 80L10 70L0 70M90 70L90 80L100 80L100 70L90 70M0 90L0 100L10 100L10 90L0 90M20 90L20 100L40 100L40 90L20 90M60 90L60 100L100 100L100 90L60 90z"/>
</svg>
