<?xml version="1.0" standalone="yes"?>
<svg xmlns="http://www.w3.org/2000/svg" width="100" height="100">
<path style="fill:#ffffff; stroke:none;" d="M0 0L0 10L10 10L10 0L0 0z"/>
<path style="fill:#000000; stroke:none;" d="M10 0L10 10L0 10L0 40L10 40L10 60L0 60L0 70L10 70L10 80L0 80L0 90L20 90L20 100L40 100L40 90L70 90L70 100L90 100L90 90L100 90L100 40L90 40L90 10L80 10L80 0L70 0L70 10L60 10L60 0L50 0L50 10L40 10L40 0L10 0z"/>
<path style="fill:#ffffff; stroke:none;" d="M40 0L40 10L50 10L50 0L40 0M60 0L60 10L70 10L70 0L60 0M80 0L80 10L90 10L90 40L100 40L100 0L80 0M20 20L20 80L80 80L80 20L20 20z"/>
<path style="fill:#000000; stroke:none;" d="M30 30L30 40L40 40L40 60L60 60L60 50L70 50L70 30L60 30L60 50L50 50L50 30L30 30z"/>
<path style="fill:#ffffff; stroke:none;" d="M0 40L0 60L10 60L10 40L0 40M0 70L0 80L10 80L10 70L0 70M0 90L0 100L20 100L20 90L0 90M40 90L40 100L70 100L70 90L40 90M90 90L90 100L100 100L100 90L90 90z"/>
</svg>
