<?xml version="1.0" standalone="yes"?>
<svg xmlns="http://www.w3.org/2000/svg" width="100" height="100">
<path style="fill:#000000; stroke:none;" d="M0 0L0 40L10 40L10 60L0 60L0 70L10 70L10 90L0 90L0 100L10 100L10 90L90 90L90 100L100 100L100 70L90 70L90 60L100 60L100 40L90 40L90 30L100 30L100 0L90 0L90 10L10 10L10 0L0 0z"/>
<path style="fill:#ffffff; stroke:none;" d="M10 0L10 10L90 10L90 0L10 0M20 20L20 80L80 80L80 20L20 20z"/>
<path style="fill:#000000; stroke:none;" d="M40 30L40 50L30 50L30 70L40 70L40 50L60 50L60 60L70 60L70 40L60 40L60 30L40 30z"/>
<path style="fill:#ffffff; stroke:none;" d="M90 30L90 40L100 40L100 30L90 30M0 40L0 60L10 60L10 40L0 40M90 60L90 70L100 70L100 60L90 60M0 70L0 90L10 90L10 70L0 70M10 90L10 100L90 100L90 90L10 90z"/>
</svg>
