<?xml version="1.0" standalone="yes"?>
<svg xmlns="http://www.w3.org/2000/svg" width="100" height="100">
<path style="fill:#ffffff; stroke:none;" d="M0 0L0 30L10 30L10 0L0 0z"/>
<path style="fill:#000000; stroke:none;" d="M10 0L10 30L0 30L0 40L10 40L10 50L0 50L0 60L10 60L10 70L0 70L0 100L10 100L10 90L20 90L20 100L30 100L30 90L70 90L70 100L100 100L100 70L90 70L90 60L100 60L100 40L90 40L90 30L100 30L100 10L80 10L80 0L10 0z"/>
<path style="fill:#ffffff; stroke:none;" d="M80 0L80 10L100 10L100 0L80 0M20 20L20 80L80 80L80 20L20 20z"/>
<path style="fill:#000000; stroke:none;" d="M40 30L40 40L50 40L50 50L40 50L40 60L30 60L30 70L40 70L40 60L50 60L50 50L60 50L60 60L70 60L70 50L60 50L60 30L40 30z"/>
<path style="fill:#ffffff; stroke:none;" d="M90 30L90 40L100 40L100 30L90 30M0 40L0 50L10 50L10 40L0 40M0 60L0 70L10 70L10 60L0 60M90 60L90 70L100 70L100 60L90 60M10 90L10 100L20 100L20 90L10 90M30 90L30 100L70 100L70 90L30 90z"/>
</svg>
