<?xml version="1.0" standalone="yes"?>
<svg xmlns="http://www.w3.org/2000/svg" width="100" height="100">
<path style="fill:#000000; stroke:none;" d="M0 0L0 10L10 10L10 20L0 20L0 50L10 50L10 70L0 70L0 90L40 90L40 100L50 100L50 90L60 90L60 100L80 100L80 90L90 90L90 40L100 40L100 30L90 30L90 10L80 10L80 0L70 0L70 10L50 10L50 0L30 0L30 10L10 10L10 0L0 0z"/>
<path style="fill:#ffffff; stroke:none;" d="M10 0L10 10L30 10L30 0L10 0M50 0L50 10L70 10L70 0L50 0M80 0L80 10L90 10L90 30L100 30L100 0L80 0M0 10L0 20L10 20L10 10L0 10M20 20L20 80L80 80L80 20L20 20z"/>
<path style="fill:#000000; stroke:none;" d="M30 30L30 70L60 70L60 60L70 60L70 50L50 50L50 40L40 40L40 30L30 30z"/>
<path style="fill:#ffffff; stroke:none;" d="M90 40L90 90L80 90L80 100L100 100L100 40L90 40M0 50L0 70L10 70L10 50L0 50M40 50L40 60L50 60L50 50L40 50M0 90L0 100L40 100L40 90L0 90M50 90L50 100L60 100L60 90L50 90z"/>
</svg>
