<?xml version="1.0" standalone="yes"?>
<svg xmlns="http://www.w3.org/2000/svg" width="100" height="100">
<path style="fill:#000000; stroke:none;" d="M0 0L0 10L10 10L10 50L0 50L0 60L10 60L10 70L0 70L0 90L10 90L10 100L60 100L60 90L70 90L70 100L90 100L90 90L100 90L100 50L90 50L90 40L100 40L100 30L90 30L90 20L100 20L100 0L90 0L90 10L80 10L80 0L50 0L50 10L10 10L10 0L0 0z"/>
<path style="fill:#ffffff; stroke:none;" d="M10 0L10 10L50 10L50 0L10 0M80 0L80 10L90 10L90 0L80 0M0 10L0 50L10 50L10 10L0 10M20 20L20 80L80 80L80 20L20 20M90 20L90 30L100 30L100 20L90 20z"/>
<path style="fill:#000000; stroke:none;" d="M60 30L60 40L70 40L70 30L60 30M30 40L30 50L50 50L50 60L40 60L40 70L70 70L70 50L50 50L50 40L30 40z"/>
<path style="fill:#ffffff; stroke:none;" d="M90 40L90 50L100 50L100 40L90 40M0 60L0 70L10 70L10 60L0 60M0 90L0 100L10 100L10 90L0 90M60 90L60 100L70 100L70 90L60 90M90 90L90 100L100 100L100 90L90 90z"/>
</svg>
