<?xml version="1.0" standalone="yes"?>
<svg xmlns="http://www.w3.org/2000/svg" width="100" height="100">
<path style="fill:#ffffff; stroke:none;" d="M0 0L0 10L30 10L30 0L0 0z"/>
<path style="fill:#000000; stroke:none;" d="M30 0L30 10L0 10L0 20L10 20L10 50L0 50L0 70L10 70L10 80L0 80L0 90L40 90L40 100L90 100L90 90L100 90L100 80L90 80L90 70L100 70L100 60L90 60L90 50L100 50L100 0L90 0L90 10L80 10L80 0L70 0L70 10L60 10L60 0L30 0z"/>
<path style="fill:#ffffff; stroke:none;" d="M60 0L60 10L70 10L70 0L60 0M80 0L80 10L90 10L90 0L80 0M0 20L0 50L10 50L10 20L0 20M20 20L20 80L80 80L80 20L20 20z"/>
<path style="fill:#000000; stroke:none;" d="M30 30L30 50L40 50L40 60L50 60L50 40L60 40L60 30L50 30L50 40L40 40L40 30L30 30M60 50L60 70L70 70L70 50L60 50z"/>
<path style="fill:#ffffff; stroke:none;" d="M90 50L90 60L100 60L100 50L90 50M0 70L0 80L10 80L10 70L0 70M90 70L90 80L100 80L100 70L90 70M0 90L0 100L40 100L40 90L0 90M90 90L90 100L100 100L100 90L90 90z"/>
</svg>
