<?xml version="1.0" standalone="yes"?>
<svg xmlns="http://www.w3.org/2000/svg" width="100" height="100">
<path style="fill:#ffffff; stroke:none;" d="M0 0L0 10L10 10L10 0L0 0z"/>
<path style="fill:#000000; stroke:none;" d="M10 0L10 10L0 10L0 20L10 20L10 40L0 40L0 80L10 80L10 90L50 90L50 100L60 100L60 90L70 90L70 100L100 100L100 70L90 70L90 60L100 60L100 40L90 40L90 30L100 30L100 20L90 20L90 10L30 10L30 0L10 0z"/>
<path style="fill:#ffffff; stroke:none;" d="M30 0L30 10L90 10L90 20L100 20L100 0L30 0M0 20L0 40L10 40L10 20L0 20M20 20L20 80L80 80L80 20L20 20z"/>
<path style="fill:#000000; stroke:none;" d="M30 30L30 40L40 40L40 70L50 70L50 60L70 60L70 50L60 50L60 40L40 40L40 30L30 30z"/>
<path style="fill:#ffffff; stroke:none;" d="M90 30L90 40L100 40L100 30L90 30M90 60L90 70L100 70L100 60L90 60M0 80L0 100L50 100L50 90L10 90L10 80L0 80M60 90L60 100L70 100L70 90L60 90z"/>
</svg>
