<?xml version="1.0" standalone="yes"?>
<svg xmlns="http://www.w3.org/2000/svg" width="100" height="100">
<path style="fill:#000000; stroke:none;" d="M0 0L0 30L10 30L10 50L0 50L0 90L30 90L30 100L40 100L40 90L50 90L50 100L80 100L80 90L100 90L100 70L90 70L90 60L100 60L100 50L90 50L90 40L100 40L100 0L70 0L70 10L40 10L40 0L30 0L30 10L20 10L20 0L0 0z"/>
<path style="fill:#ffffff; stroke:none;" d="M20 0L20 10L30 10L30 0L20 0M40 0L40 10L70 10L70 0L40 0M20 20L20 80L80 80L80 20L20 20M0 30L0 50L10 50L10 30L0 30z"/>
<path style="fill:#000000; stroke:none;" d="M60 30L60 40L70 40L70 30L60 30M30 40L30 70L60 70L60 60L70 60L70 50L50 50L50 40L30 40z"/>
<path style="fill:#ffffff; stroke:none;" d="M90 40L90 50L100 50L100 40L90 40M40 50L40 60L50 60L50 50L40 50M90 60L90 70L100 70L100 60L90 60M0 90L0 100L30 100L30 90L0 90M40 90L40 100L50 100L50 90L40 90M80 90L80 100L100 100L100 90L80 90z"/>
</svg>
