<?xml version="1.0" standalone="yes"?>
<svg xmlns="http://www.w3.org/2000/svg" width="100" height="100">
<path style="fill:#000000; stroke:none;" d="M0 0L0 10L10 10L10 60L0 60L0 70L10 70L10 80L0 80L0 90L10 90L10 100L40 100L40 90L70 90L70 100L80 100L80 90L90 90L90 100L100 100L100 70L90 70L90 20L100 20L100 10L70 10L70 0L20 0L20 10L10 10L10 0L0 0z"/>
<path style="fill:#ffffff; stroke:none;" d="M10 0L10 10L20 10L20 0L10 0M70 0L70 10L100 10L100 0L70 0M0 10L0 60L10 60L10 10L0 10M20 20L20 80L80 80L80 20L20 20M90 20L90 70L100 70L100 20L90 20z"/>
<path style="fill:#000000; stroke:none;" d="M30 30L30 40L40 40L40 50L30 50L30 70L70 70L70 50L60 50L60 60L50 60L50 40L60 40L60 30L30 30z"/>
<path style="fill:#ffffff; stroke:none;" d="M0 70L0 80L10 80L10 70L0 70M0 90L0 100L10 100L10 90L0 90M40 90L40 100L70 100L70 90L40 90M80 90L80 100L90 100L90 90L80 90z"/>
</svg>
