<?xml version="1.0" standalone="yes"?>
<svg xmlns="http://www.w3.org/2000/svg" width="100" height="100">
<path style="fill:#000000; stroke:none;" d="M0 0L0 10L10 10L10 30L0 30L0 40L10 40L10 70L0 70L0 100L20 100L20 90L30 90L30 100L40 100L40 90L50 90L50 100L70 100L70 90L80 90L80 100L90 100L90 50L100 50L100 40L90 40L90 20L100 20L100 0L90 0L90 10L40 10L40 0L30 0L30 10L10 10L10 0L0 0z"/>
<path style="fill:#ffffff; stroke:none;" d="M10 0L10 10L30 10L30 0L10 0M40 0L40 10L90 10L90 0L40 0M0 10L0 30L10 30L10 10L0 10M20 20L20 80L80 80L80 20L20 20M90 20L90 40L100 40L100 20L90 20z"/>
<path style="fill:#000000; stroke:none;" d="M30 30L30 40L40 40L40 50L60 50L60 60L50 60L50 70L70 70L70 50L60 50L60 30L30 30z"/>
<path style="fill:#ffffff; stroke:none;" d="M0 40L0 70L10 70L10 40L0 40M90 50L90 100L100 100L100 50L90 50M20 90L20 100L30 100L30 90L20 90M40 90L40 100L50 100L50 90L40 90M70 90L70 100L80 100L80 90L70 90z"/>
</svg>
