<?xml version="1.0" standalone="yes"?>
<svg xmlns="http://www.w3.org/2000/svg" width="100" height="100">
<path style="fill:#000000; stroke:none;" d="M0 0L0 30L10 30L10 40L0 40L0 70L10 70L10 80L0 80L0 100L10 100L10 90L40 90L40 100L50 100L50 90L70 90L70 100L80 100L80 90L100 90L100 70L90 70L90 60L100 60L100 50L90 50L90 10L100 10L100 0L50 0L50 10L40 10L40 0L30 0L30 10L20 10L20 0L0 0z"/>
<path style="fill:#ffffff; stroke:none;" d="M20 0L20 10L30 10L30 0L20 0M40 0L40 10L50 10L50 0L40 0M90 10L90 50L100 50L100 10L90 10M20 20L20 80L80 80L80 20L20 20M0 30L0 40L10 40L10 30L0 30z"/>
<path style="fill:#000000; stroke:none;" d="M30 30L30 40L40 40L40 30L30 30M50 40L50 50L30 50L30 60L40 60L40 70L60 70L60 40L50 40z"/>
<path style="fill:#ffffff; stroke:none;" d="M90 60L90 70L100 70L100 60L90 60M0 70L0 80L10 80L10 70L0 70M10 90L10 100L40 100L40 90L10 90M50 90L50 100L70 100L70 90L50 90M80 90L80 100L100 100L100 90L80 90z"/>
</svg>
