<?xml version="1.0" standalone="yes"?>
<svg xmlns="http://www.w3.org/2000/svg" width="100" height="100">
<path style="fill:#ffffff; stroke:none;" d="M0 0L0 10L40 10L40 0L0 0z"/>
<path style="fill:#000000; stroke:none;" d="M40 0L40 10L0 10L0 40L10 40L10 80L0 80L0 100L40 100L40 90L60 90L60 100L90 100L90 90L100 90L100 70L90 70L90 50L100 50L100 40L90 40L90 30L100 30L100 10L50 10L50 0L40 0z"/>
<path style="fill:#ffffff; stroke:none;" d="M50 0L50 10L100 10L100 0L50 0M20 20L20 80L80 80L80 20L20 20z"/>
<path style="fill:#000000; stroke:none;" d="M50 30L50 40L70 40L70 30L50 30z"/>
<path style="fill:#ffffff; stroke:none;" d="M90 30L90 40L100 40L100 30L90 30M0 40L0 80L10 80L10 40L0 40z"/>
<path style="fill:#000000; stroke:none;" d="M30 40L30 50L40 50L40 60L30 60L30 70L40 70L40 60L50 60L50 70L70 70L70 60L60 60L60 50L40 50L40 40L30 40z"/>
<path style="fill:#ffffff; stroke:none;" d="M90 50L90 70L100 70L100 50L90 50M40 90L40 100L60 100L60 90L40 90M90 90L90 100L100 100L100 90L90 90z"/>
</svg>
