<?xml version="1.0" standalone="yes"?>
<svg xmlns="http://www.w3.org/2000/svg" width="100" height="100">
<path style="fill:#ffffff; stroke:none;" d="M0 0L0 30L10 30L10 10L40 10L40 0L0 0z"/>
<path style="fill:#000000; stroke:none;" d="M40 0L40 10L10 10L10 30L0 30L0 50L10 50L10 80L0 80L0 100L20 100L20 90L30 90L30 100L40 100L40 90L50 90L50 100L90 100L90 90L100 90L100 70L90 70L90 60L100 60L100 30L90 30L90 20L100 20L100 0L90 0L90 10L80 10L80 0L70 0L70 10L60 10L60 0L40 0z"/>
<path style="fill:#ffffff; stroke:none;" d="M60 0L60 10L70 10L70 0L60 0M80 0L80 10L90 10L90 0L80 0M20 20L20 80L80 80L80 20L20 20M90 20L90 30L100 30L100 20L90 20z"/>
<path style="fill:#000000; stroke:none;" d="M50 30L50 40L40 40L40 50L70 50L70 40L60 40L60 30L50 30z"/>
<path style="fill:#ffffff; stroke:none;" d="M0 50L0 80L10 80L10 50L0 50z"/>
<path style="fill:#000000; stroke:none;" d="M30 60L30 70L60 70L60 60L30 60z"/>
<path style="fill:#ffffff; stroke:none;" d="M90 60L90 70L100 70L100 60L90 60M20 90L20 100L30 100L30 90L20 90M40 90L40 100L50 100L50 90L40 90M90 90L90 100L100 100L100 90L90 90z"/>
</svg>
