<?xml version="1.0" standalone="yes"?>
<svg xmlns="http://www.w3.org/2000/svg" width="100" height="100">
<path style="fill:#ffffff; stroke:none;" d="M0 0L0 90L10 90L10 100L40 100L40 90L10 90L10 10L40 10L40 0L0 0z"/>
<path style="fill:#000000; stroke:none;" d="M40 0L40 10L10 10L10 90L40 90L40 100L50 100L50 90L80 90L80 100L100 100L100 90L90 90L90 60L100 60L100 40L90 40L90 30L100 30L100 20L90 20L90 10L100 10L100 0L80 0L80 10L70 10L70 0L40 0z"/>
<path style="fill:#ffffff; stroke:none;" d="M70 0L70 10L80 10L80 0L70 0M90 10L90 20L100 20L100 10L90 10M20 20L20 80L80 80L80 20L20 20z"/>
<path style="fill:#000000; stroke:none;" d="M60 30L60 40L40 40L40 60L30 60L30 70L50 70L50 50L60 50L60 60L70 60L70 30L60 30z"/>
<path style="fill:#ffffff; stroke:none;" d="M90 30L90 40L100 40L100 30L90 30M90 60L90 90L100 90L100 60L90 60z"/>
<path style="fill:#000000; stroke:none;" d="M0 90L0 100L10 100L10 90L0 90z"/>
<path style="fill:#ffffff; stroke:none;" d="M50 90L50 100L80 100L80 90L50 90z"/>
</svg>
