<?xml version="1.0" standalone="yes"?>
<svg xmlns="http://www.w3.org/2000/svg" width="100" height="100">
<path style="fill:#ffffff; stroke:none;" d="M0 0L0 30L10 30L10 10L20 10L20 0L0 0z"/>
<path style="fill:#000000; stroke:none;" d="M20 0L20 10L10 10L10 30L0 30L0 40L10 40L10 50L0 50L0 60L10 60L10 90L20 90L20 100L40 100L40 90L60 90L60 100L80 100L80 90L90 90L90 70L100 70L100 60L90 60L90 50L100 50L100 40L90 40L90 10L100 10L100 0L50 0L50 10L30 10L30 0L20 0z"/>
<path style="fill:#ffffff; stroke:none;" d="M30 0L30 10L50 10L50 0L30 0M90 10L90 40L100 40L100 10L90 10M20 20L20 80L80 80L80 20L20 20z"/>
<path style="fill:#000000; stroke:none;" d="M30 30L30 50L40 50L40 70L60 70L60 60L70 60L70 50L60 50L60 40L70 40L70 30L30 30z"/>
<path style="fill:#ffffff; stroke:none;" d="M0 40L0 50L10 50L10 40L0 40M50 50L50 60L60 60L60 50L50 50M90 50L90 60L100 60L100 50L90 50M0 60L0 100L20 100L20 90L10 90L10 60L0 60M90 70L90 90L80 90L80 100L100 100L100 70L90 70M40 90L40 100L60 100L60 90L40 90z"/>
</svg>
