<?xml version="1.0" standalone="yes"?>
<svg xmlns="http://www.w3.org/2000/svg" width="100" height="100">
<path style="fill:#000000; stroke:none;" d="M0 0L0 30L10 30L10 40L0 40L0 100L50 100L50 90L60 90L60 100L70 100L70 90L80 90L80 100L90 100L90 90L100 90L100 80L90 80L90 70L100 70L100 50L90 50L90 30L100 30L100 20L90 20L90 0L80 0L80 10L40 10L40 0L30 0L30 10L10 10L10 0L0 0z"/>
<path style="fill:#ffffff; stroke:none;" d="M10 0L10 10L30 10L30 0L10 0M40 0L40 10L80 10L80 0L40 0M90 0L90 20L100 20L100 0L90 0M20 20L20 80L80 80L80 20L20 20M0 30L0 40L10 40L10 30L0 30M90 30L90 50L100 50L100 30L90 30z"/>
<path style="fill:#000000; stroke:none;" d="M30 40L30 60L40 60L40 70L60 70L60 60L40 60L40 50L60 50L60 40L30 40z"/>
<path style="fill:#ffffff; stroke:none;" d="M90 70L90 80L100 80L100 70L90 70M50 90L50 100L60 100L60 90L50 90M70 90L70 100L80 100L80 90L70 90M90 90L90 100L100 100L100 90L90 90z"/>
</svg>
