<?xml version="1.0" standalone="yes"?>
<svg xmlns="http://www.w3.org/2000/svg" width="100" height="100">
<path style="fill:#ffffff; stroke:none;" d="M0 0L0 30L10 30L10 0L0 0z"/>
<path style="fill:#000000; stroke:none;" d="M10 0L10 30L0 30L0 40L10 40L10 50L0 50L0 60L10 60L10 70L0 70L0 100L10 100L10 90L20 90L20 100L40 100L40 90L50 90L50 100L80 100L80 90L100 90L100 60L90 60L90 40L100 40L100 30L90 30L90 0L70 0L70 10L40 10L40 0L30 0L30 10L20 10L20 0L10 0z"/>
<path style="fill:#ffffff; stroke:none;" d="M20 0L20 10L30 10L30 0L20 0M40 0L40 10L70 10L70 0L40 0M90 0L90 30L100 30L100 0L90 0M20 20L20 80L80 80L80 20L20 20z"/>
<path style="fill:#000000; stroke:none;" d="M30 30L30 40L40 40L40 50L30 50L30 60L50 60L50 50L70 50L70 30L60 30L60 40L50 40L50 30L30 30z"/>
<path style="fill:#ffffff; stroke:none;" d="M0 40L0 50L10 50L10 40L0 40M90 40L90 60L100 60L100 40L90 40M0 60L0 70L10 70L10 60L0 60M10 90L10 100L20 100L20 90L10 90M40 90L40 100L50 100L50 90L40 90M80 90L80 100L100 100L100 90L80 90z"/>
</svg>
