<?xml version="1.0" standalone="yes"?>
<svg xmlns="http://www.w3.org/2000/svg" width="100" height="100">
<path style="fill:#000000; stroke:none;" d="M0 0L0 20L10 20L10 50L0 50L0 70L10 70L10 90L0 90L0 100L30 100L30 90L40 90L40 100L60 100L60 90L70 90L70 100L100 100L100 90L90 90L90 60L100 60L100 50L90 50L90 30L100 30L100 10L90 10L90 0L50 0L50 10L40 10L40 0L20 0L20 10L10 10L10 0L0 0z"/>
<path style="fill:#ffffff; stroke:none;" d="M10 0L10 10L20 10L20 0L10 0M40 0L40 10L50 10L50 0L40 0M90 0L90 10L100 10L100 0L90 0M0 20L0 50L10 50L10 20L0 20M20 20L20 80L80 80L80 20L20 20z"/>
<path style="fill:#000000; stroke:none;" d="M40 30L40 50L50 50L50 60L40 60L40 70L50 70L50 60L60 60L60 50L50 50L50 40L60 40L60 30L40 30z"/>
<path style="fill:#ffffff; stroke:none;" d="M90 30L90 50L100 50L100 30L90 30M90 60L90 90L100 90L100 60L90 60M0 70L0 90L10 90L10 70L0 70M30 90L30 100L40 100L40 90L30 90M60 90L60 100L70 100L70 90L60 90z"/>
</svg>
