<?xml version="1.0" standalone="yes"?>
<svg xmlns="http://www.w3.org/2000/svg" width="100" height="100">
<path style="fill:#000000; stroke:none;" d="M0 0L0 10L10 10L10 40L0 40L0 50L10 50L10 90L20 90L20 100L30 100L30 90L70 90L70 100L80 100L80 90L90 90L90 100L100 100L100 90L90 90L90 70L100 70L100 60L90 60L90 0L70 0L70 10L30 10L30 0L20 0L20 10L10 10L10 0L0 0z"/>
<path style="fill:#ffffff; stroke:none;" d="M10 0L10 10L20 10L20 0L10 0M30 0L30 10L70 10L70 0L30 0M90 0L90 60L100 60L100 0L90 0M0 10L0 40L10 40L10 10L0 10M20 20L20 80L80 80L80 20L20 20z"/>
<path style="fill:#000000; stroke:none;" d="M30 30L30 40L40 40L40 30L30 30M50 30L50 60L60 60L60 70L70 70L70 60L60 60L60 40L70 40L70 30L50 30z"/>
<path style="fill:#ffffff; stroke:none;" d="M0 50L0 100L20 100L20 90L10 90L10 50L0 50z"/>
<path style="fill:#000000; stroke:none;" d="M30 50L30 60L40 60L40 50L30 50z"/>
<path style="fill:#ffffff; stroke:none;" d="M90 70L90 90L100 90L100 70L90 70M30 90L30 100L70 100L70 90L30 90M80 90L80 100L90 100L90 90L80 90z"/>
</svg>
