<?xml version="1.0" standalone="yes"?>
<svg xmlns="http://www.w3.org/2000/svg" width="100" height="100">
<path style="fill:#000000; stroke:none;" d="M0 0L0 10L10 10L10 40L0 40L0 70L10 70L10 90L0 90L0 100L40 100L40 90L50 90L50 100L80 100L80 90L100 90L100 80L90 80L90 30L100 30L100 20L90 20L90 10L100 10L100 0L90 0L90 10L60 10L60 0L40 0L40 10L30 10L30 0L0 0z"/>
<path style="fill:#ffffff; stroke:none;" d="M30 0L30 10L40 10L40 0L30 0M60 0L60 10L90 10L90 0L60 0M0 10L0 40L10 40L10 10L0 10M90 10L90 20L100 20L100 10L90 10M20 20L20 80L80 80L80 20L20 20z"/>
<path style="fill:#000000; stroke:none;" d="M60 30L60 50L40 50L40 60L60 60L60 70L70 70L70 60L60 60L60 50L70 50L70 30L60 30z"/>
<path style="fill:#ffffff; stroke:none;" d="M90 30L90 80L100 80L100 30L90 30M0 70L0 90L10 90L10 70L0 70M40 90L40 100L50 100L50 90L40 90M80 90L80 100L100 100L100 90L80 90z"/>
</svg>
