<?xml version="1.0" standalone="yes"?>
<svg xmlns="http://www.w3.org/2000/svg" width="100" height="100">
<path style="fill:#000000; stroke:none;" d="M0 0L0 10L10 10L10 30L0 30L0 50L10 50L10 80L0 80L0 100L60 100L60 90L70 90L70 100L100 100L100 90L90 90L90 60L100 60L100 40L90 40L90 30L100 30L100 10L70 10L70 0L60 0L60 10L50 10L50 0L20 0L20 10L10 10L10 0L0 0z"/>
<path style="fill:#ffffff; stroke:none;" d="M10 0L10 10L20 10L20 0L10 0M50 0L50 10L60 10L60 0L50 0M70 0L70 10L100 10L100 0L70 0M0 10L0 30L10 30L10 10L0 10M20 20L20 80L80 80L80 20L20 20z"/>
<path style="fill:#000000; stroke:none;" d="M30 30L30 50L40 50L40 60L30 60L30 70L40 70L40 60L50 60L50 70L60 70L60 60L70 60L70 50L60 50L60 40L70 40L70 30L50 30L50 50L40 50L40 30L30 30z"/>
<path style="fill:#ffffff; stroke:none;" d="M90 30L90 40L100 40L100 30L90 30M0 50L0 80L10 80L10 50L0 50M50 50L50 60L60 60L60 50L50 50M90 60L90 90L100 90L100 60L90 60M60 90L60 100L70 100L70 90L60 90z"/>
</svg>
