<?xml version="1.0" standalone="yes"?>
<svg xmlns="http://www.w3.org/2000/svg" width="100" height="100">
<path style="fill:#ffffff; stroke:none;" d="M0 0L0 40L10 40L10 0L0 0z"/>
<path style="fill:#000000; stroke:none;" d="M10 0L10 40L0 40L0 80L10 80L10 90L20 90L20 100L30 100L30 90L70 90L70 100L100 100L100 80L90 80L90 30L100 30L100 0L90 0L90 10L70 10L70 0L60 0L60 10L50 10L50 0L10 0z"/>
<path style="fill:#ffffff; stroke:none;" d="M50 0L50 10L60 10L60 0L50 0M70 0L70 10L90 10L90 0L70 0M20 20L20 80L80 80L80 20L20 20z"/>
<path style="fill:#000000; stroke:none;" d="M50 30L50 50L60 50L60 60L50 60L50 70L60 70L60 60L70 60L70 50L60 50L60 30L50 30z"/>
<path style="fill:#ffffff; stroke:none;" d="M90 30L90 80L100 80L100 30L90 30z"/>
<path style="fill:#000000; stroke:none;" d="M30 40L30 70L40 70L40 40L30 40z"/>
<path style="fill:#ffffff; stroke:none;" d="M0 80L0 100L20 100L20 90L10 90L10 80L0 80M30 90L30 100L70 100L70 90L30 90z"/>
</svg>
