<?xml version="1.0" standalone="yes"?>
<svg xmlns="http://www.w3.org/2000/svg" width="100" height="100">
<path style="fill:#000000; stroke:none;" d="M0 0L0 10L10 10L10 20L0 20L0 50L10 50L10 60L0 60L0 80L10 80L10 90L20 90L20 100L40 100L40 90L50 90L50 100L70 100L70 90L90 90L90 100L100 100L100 90L90 90L90 50L100 50L100 30L90 30L90 10L100 10L100 0L90 0L90 10L60 10L60 0L40 0L40 10L20 10L20 0L0 0z"/>
<path style="fill:#ffffff; stroke:none;" d="M20 0L20 10L40 10L40 0L20 0M60 0L60 10L90 10L90 0L60 0M0 10L0 20L10 20L10 10L0 10M90 10L90 30L100 30L100 10L90 10M20 20L20 80L80 80L80 20L20 20z"/>
<path style="fill:#000000; stroke:none;" d="M40 30L40 40L30 40L30 70L40 70L40 60L50 60L50 70L60 70L60 50L70 50L70 40L60 40L60 30L40 30z"/>
<path style="fill:#ffffff; stroke:none;" d="M40 40L40 50L60 50L60 40L40 40M0 50L0 60L10 60L10 50L0 50M90 50L90 90L100 90L100 50L90 50M0 80L0 100L20 100L20 90L10 90L10 80L0 80M40 90L40 100L50 100L50 90L40 90M70 90L70 100L90 100L90 90L70 90z"/>
</svg>
