<?xml version="1.0" standalone="yes"?>
<svg xmlns="http://www.w3.org/2000/svg" width="100" height="100">
<path style="fill:#000000; stroke:none;" d="M0 0L0 40L10 40L10 50L0 50L0 90L10 90L10 100L20 100L20 90L40 90L40 100L50 100L50 90L80 90L80 100L100 100L100 90L90 90L90 80L100 80L100 70L90 70L90 30L100 30L100 20L90 20L90 10L70 10L70 0L60 0L60 10L30 10L30 0L0 0z"/>
<path style="fill:#ffffff; stroke:none;" d="M30 0L30 10L60 10L60 0L30 0M70 0L70 10L90 10L90 20L100 20L100 0L70 0M20 20L20 80L80 80L80 20L20 20z"/>
<path style="fill:#000000; stroke:none;" d="M40 30L40 40L50 40L50 50L30 50L30 70L70 70L70 50L60 50L60 30L40 30z"/>
<path style="fill:#ffffff; stroke:none;" d="M90 30L90 70L100 70L100 30L90 30M0 40L0 50L10 50L10 40L0 40M50 50L50 60L60 60L60 50L50 50M90 80L90 90L100 90L100 80L90 80M0 90L0 100L10 100L10 90L0 90M20 90L20 100L40 100L40 90L20 90M50 90L50 100L80 100L80 90L50 90z"/>
</svg>
