<?xml version="1.0" standalone="yes"?>
<svg xmlns="http://www.w3.org/2000/svg" width="100" height="100">
<path style="fill:#000000; stroke:none;" d="M0 0L0 10L10 10L10 30L0 30L0 40L10 40L10 50L0 50L0 70L10 70L10 100L40 100L40 90L70 90L70 100L80 100L80 90L90 90L90 100L100 100L100 90L90 90L90 80L100 80L100 60L90 60L90 30L100 30L100 10L60 10L60 0L50 0L50 10L40 10L40 0L20 0L20 10L10 10L10 0L0 0z"/>
<path style="fill:#ffffff; stroke:none;" d="M10 0L10 10L20 10L20 0L10 0M40 0L40 10L50 10L50 0L40 0M60 0L60 10L100 10L100 0L60 0M0 10L0 30L10 30L10 10L0 10M20 20L20 80L80 80L80 20L20 20z"/>
<path style="fill:#000000; stroke:none;" d="M50 30L50 40L40 40L40 50L50 50L50 40L60 40L60 60L50 60L50 70L70 70L70 30L50 30z"/>
<path style="fill:#ffffff; stroke:none;" d="M90 30L90 60L100 60L100 30L90 30M0 40L0 50L10 50L10 40L0 40M0 70L0 100L10 100L10 70L0 70M90 80L90 90L100 90L100 80L90 80M40 90L40 100L70 100L70 90L40 90M80 90L80 100L90 100L90 90L80 90z"/>
</svg>
