<?xml version="1.0" standalone="yes"?>
<svg xmlns="http://www.w3.org/2000/svg" width="100" height="100">
<path style="fill:#000000; stroke:none;" d="M0 0L0 10L10 10L10 40L0 40L0 90L20 90L20 100L50 100L50 90L60 90L60 100L70 100L70 90L100 90L100 70L90 70L90 30L100 30L100 0L80 0L80 10L70 10L70 0L30 0L30 10L20 10L20 0L0 0z"/>
<path style="fill:#ffffff; stroke:none;" d="M20 0L20 10L30 10L30 0L20 0M70 0L70 10L80 10L80 0L70 0M0 10L0 40L10 40L10 10L0 10M20 20L20 80L80 80L80 20L20 20z"/>
<path style="fill:#000000; stroke:none;" d="M30 30L30 40L70 40L70 30L30 30z"/>
<path style="fill:#ffffff; stroke:none;" d="M90 30L90 70L100 70L100 30L90 30z"/>
<path style="fill:#000000; stroke:none;" d="M30 50L30 60L40 60L40 50L30 50M50 50L50 60L60 60L60 50L50 50z"/>
<path style="fill:#ffffff; stroke:none;" d="M0 90L0 100L20 100L20 90L0 90M50 90L50 100L60 100L60 90L50 90M70 90L70 100L100 100L100 90L70 90z"/>
</svg>
