<?xml version="1.0" standalone="yes"?>
<svg xmlns="http://www.w3.org/2000/svg" width="100" height="100">
<path style="fill:#000000; stroke:none;" d="M0 0L0 30L10 30L10 40L0 40L0 50L10 50L10 80L0 80L0 90L20 90L20 100L30 100L30 90L50 90L50 100L80 100L80 90L100 90L100 70L90 70L90 60L100 60L100 30L90 30L90 10L80 10L80 0L40 0L40 10L10 10L10 0L0 0z"/>
<path style="fill:#ffffff; stroke:none;" d="M10 0L10 10L40 10L40 0L10 0M80 0L80 10L90 10L90 30L100 30L100 0L80 0M20 20L20 80L80 80L80 20L20 20M0 30L0 40L10 40L10 30L0 30z"/>
<path style="fill:#000000; stroke:none;" d="M40 30L40 60L50 60L50 70L60 70L60 60L50 60L50 50L60 50L60 40L50 40L50 30L40 30z"/>
<path style="fill:#ffffff; stroke:none;" d="M0 50L0 80L10 80L10 50L0 50M90 60L90 70L100 70L100 60L90 60M0 90L0 100L20 100L20 90L0 90M30 90L30 100L50 100L50 90L30 90M80 90L80 100L100 100L100 90L80 90z"/>
</svg>
