<?xml version="1.0" standalone="yes"?>
<svg xmlns="http://www.w3.org/2000/svg" width="100" height="100">
<path style="fill:#000000; stroke:none;" d="M0 0L0 10L10 10L10 30L0 30L0 40L10 40L10 50L0 50L0 60L10 60L10 90L20 90L20 100L40 100L40 90L70 90L70 100L80 100L80 90L90 90L90 40L100 40L100 30L90 30L90 20L100 20L100 0L90 0L90 10L60 10L60 0L50 0L50 10L30 10L30 0L0 0z"/>
<path style="fill:#ffffff; stroke:none;" d="M30 0L30 10L50 10L50 0L30 0M60 0L60 10L90 10L90 0L60 0M0 10L0 30L10 30L10 10L0 10M20 20L20 80L80 80L80 20L20 20M90 20L90 30L100 30L100 20L90 20z"/>
<path style="fill:#000000; stroke:none;" d="M40 30L40 40L30 40L30 70L40 70L40 50L50 50L50 70L60 70L60 50L50 50L50 40L70 40L70 30L40 30z"/>
<path style="fill:#ffffff; stroke:none;" d="M0 40L0 50L10 50L10 40L0 40M90 40L90 90L80 90L80 100L100 100L100 40L90 40M0 60L0 100L20 100L20 90L10 90L10 60L0 60M40 90L40 100L70 100L70 90L40 90z"/>
</svg>
