<?xml version="1.0" standalone="yes"?>
<svg xmlns="http://www.w3.org/2000/svg" width="100" height="100">
<path style="fill:#000000; stroke:none;" d="M0 0L0 20L10 20L10 30L0 30L0 50L10 50L10 80L0 80L0 100L20 100L20 90L60 90L60 100L70 100L70 90L80 90L80 100L100 100L100 70L90 70L90 60L100 60L100 20L90 20L90 0L70 0L70 10L50 10L50 0L30 0L30 10L20 10L20 0L0 0z"/>
<path style="fill:#ffffff; stroke:none;" d="M20 0L20 10L30 10L30 0L20 0M50 0L50 10L70 10L70 0L50 0M90 0L90 20L100 20L100 0L90 0M0 20L0 30L10 30L10 20L0 20M20 20L20 80L80 80L80 20L20 20z"/>
<path style="fill:#000000; stroke:none;" d="M30 30L30 40L50 40L50 50L60 50L60 60L40 60L40 50L30 50L30 60L40 60L40 70L60 70L60 60L70 60L70 40L60 40L60 30L30 30z"/>
<path style="fill:#ffffff; stroke:none;" d="M0 50L0 80L10 80L10 50L0 50M90 60L90 70L100 70L100 60L90 60M20 90L20 100L60 100L60 90L20 90M70 90L70 100L80 100L80 90L70 90z"/>
</svg>
