<?xml version="1.0" standalone="yes"?>
<svg xmlns="http://www.w3.org/2000/svg" width="100" height="100">
<path style="fill:#000000; stroke:none;" d="M0 0L0 10L10 10L10 20L0 20L0 30L10 30L10 100L20 100L20 90L30 90L30 100L40 100L40 90L60 90L60 100L70 100L70 90L80 90L80 100L90 100L90 90L100 90L100 50L90 50L90 30L100 30L100 10L70 10L70 0L60 0L60 10L50 10L50 0L20 0L20 10L10 10L10 0L0 0z"/>
<path style="fill:#ffffff; stroke:none;" d="M10 0L10 10L20 10L20 0L10 0M50 0L50 10L60 10L60 0L50 0M70 0L70 10L100 10L100 0L70 0M0 10L0 20L10 20L10 10L0 10M20 20L20 80L80 80L80 20L20 20M0 30L0 100L10 100L10 30L0 30z"/>
<path style="fill:#000000; stroke:none;" d="M30 30L30 40L40 40L40 60L30 60L30 70L70 70L70 50L60 50L60 40L40 40L40 30L30 30z"/>
<path style="fill:#ffffff; stroke:none;" d="M90 30L90 50L100 50L100 30L90 30M50 50L50 60L60 60L60 50L50 50M20 90L20 100L30 100L30 90L20 90M40 90L40 100L60 100L60 90L40 90M70 90L70 100L80 100L80 90L70 90M90 90L90 100L100 100L100 90L90 90z"/>
</svg>
