<?xml version="1.0" standalone="yes"?>
<svg xmlns="http://www.w3.org/2000/svg" width="100" height="100">
<path style="fill:#000000; stroke:none;" d="M0 0L0 40L10 40L10 80L0 80L0 100L10 100L10 90L20 90L20 100L50 100L50 90L70 90L70 100L90 100L90 60L100 60L100 20L90 20L90 0L80 0L80 10L70 10L70 0L40 0L40 10L10 10L10 0L0 0z"/>
<path style="fill:#ffffff; stroke:none;" d="M10 0L10 10L40 10L40 0L10 0M70 0L70 10L80 10L80 0L70 0M90 0L90 20L100 20L100 0L90 0M20 20L20 80L80 80L80 20L20 20z"/>
<path style="fill:#000000; stroke:none;" d="M40 30L40 50L30 50L30 60L60 60L60 70L70 70L70 50L60 50L60 40L70 40L70 30L60 30L60 40L50 40L50 30L40 30z"/>
<path style="fill:#ffffff; stroke:none;" d="M0 40L0 80L10 80L10 40L0 40M90 60L90 100L100 100L100 60L90 60M10 90L10 100L20 100L20 90L10 90M50 90L50 100L70 100L70 90L50 90z"/>
</svg>
