<?xml version="1.0" standalone="yes"?>
<svg xmlns="http://www.w3.org/2000/svg" width="100" height="100">
<path style="fill:#ffffff; stroke:none;" d="M0 0L0 10L10 10L10 0L0 0z"/>
<path style="fill:#000000; stroke:none;" d="M10 0L10 10L0 10L0 60L10 60L10 70L0 70L0 90L10 90L10 100L30 100L30 90L40 90L40 100L60 100L60 90L80 90L80 100L100 100L100 60L90 60L90 50L100 50L100 40L90 40L90 30L100 30L100 0L80 0L80 10L70 10L70 0L60 0L60 10L50 10L50 0L10 0z"/>
<path style="fill:#ffffff; stroke:none;" d="M50 0L50 10L60 10L60 0L50 0M70 0L70 10L80 10L80 0L70 0M20 20L20 80L80 80L80 20L20 20z"/>
<path style="fill:#000000; stroke:none;" d="M30 30L30 50L60 50L60 60L30 60L30 70L60 70L60 60L70 60L70 40L60 40L60 30L30 30z"/>
<path style="fill:#ffffff; stroke:none;" d="M90 30L90 40L100 40L100 30L90 30M90 50L90 60L100 60L100 50L90 50M0 60L0 70L10 70L10 60L0 60M0 90L0 100L10 100L10 90L0 90M30 90L30 100L40 100L40 90L30 90M60 90L60 100L80 100L80 90L60 90z"/>
</svg>
