<?xml version="1.0" standalone="yes"?>
<svg xmlns="http://www.w3.org/2000/svg" width="100" height="100">
<path style="fill:#ffffff; stroke:none;" d="M0 0L0 10L10 10L10 0L0 0z"/>
<path style="fill:#000000; stroke:none;" d="M10 0L10 10L0 10L0 40L10 40L10 60L0 60L0 70L10 70L10 90L20 90L20 100L50 100L50 90L80 90L80 100L100 100L100 90L90 90L90 70L100 70L100 60L90 60L90 30L100 30L100 20L90 20L90 10L100 10L100 0L90 0L90 10L80 10L80 0L10 0z"/>
<path style="fill:#ffffff; stroke:none;" d="M80 0L80 10L90 10L90 0L80 0M90 10L90 20L100 20L100 10L90 10M20 20L20 80L80 80L80 20L20 20z"/>
<path style="fill:#000000; stroke:none;" d="M40 30L40 50L30 50L30 70L50 70L50 30L40 30M60 30L60 50L70 50L70 30L60 30z"/>
<path style="fill:#ffffff; stroke:none;" d="M90 30L90 60L100 60L100 30L90 30M0 40L0 60L10 60L10 40L0 40M0 70L0 100L20 100L20 90L10 90L10 70L0 70M90 70L90 90L100 90L100 70L90 70M50 90L50 100L80 100L80 90L50 90z"/>
</svg>
