<?xml version="1.0" standalone="yes"?>
<svg xmlns="http://www.w3.org/2000/svg" width="100" height="100">
<path style="fill:#000000; stroke:none;" d="M0 0L0 10L10 10L10 20L0 20L0 30L10 30L10 40L0 40L0 70L10 70L10 80L0 80L0 100L70 100L70 90L90 90L90 80L100 80L100 60L90 60L90 50L100 50L100 30L90 30L90 10L100 10L100 0L90 0L90 10L60 10L60 0L40 0L40 10L20 10L20 0L0 0z"/>
<path style="fill:#ffffff; stroke:none;" d="M20 0L20 10L40 10L40 0L20 0M60 0L60 10L90 10L90 0L60 0M0 10L0 20L10 20L10 10L0 10M90 10L90 30L100 30L100 10L90 10M20 20L20 80L80 80L80 20L20 20M0 30L0 40L10 40L10 30L0 30z"/>
<path style="fill:#000000; stroke:none;" d="M40 30L40 50L30 50L30 70L50 70L50 60L60 60L60 50L70 50L70 40L60 40L60 50L50 50L50 30L40 30z"/>
<path style="fill:#ffffff; stroke:none;" d="M90 50L90 60L100 60L100 50L90 50M0 70L0 80L10 80L10 70L0 70M90 80L90 90L70 90L70 100L100 100L100 80L90 80z"/>
</svg>
