<?xml version="1.0" standalone="yes"?>
<svg xmlns="http://www.w3.org/2000/svg" width="100" height="100">
<path style="fill:#ffffff; stroke:none;" d="M0 0L0 10L50 10L50 0L0 0z"/>
<path style="fill:#000000; stroke:none;" d="M50 0L50 10L0 10L0 40L10 40L10 90L0 90L0 100L10 100L10 90L20 90L20 100L50 100L50 90L60 90L60 100L80 100L80 90L90 90L90 70L100 70L100 60L90 60L90 10L100 10L100 0L50 0z"/>
<path style="fill:#ffffff; stroke:none;" d="M90 10L90 60L100 60L100 10L90 10M20 20L20 80L80 80L80 20L20 20z"/>
<path style="fill:#000000; stroke:none;" d="M60 30L60 40L50 40L50 50L30 50L30 70L70 70L70 30L60 30z"/>
<path style="fill:#ffffff; stroke:none;" d="M0 40L0 90L10 90L10 40L0 40M90 70L90 90L80 90L80 100L100 100L100 70L90 70M10 90L10 100L20 100L20 90L10 90M50 90L50 100L60 100L60 90L50 90z"/>
</svg>
