<?xml version="1.0" standalone="yes"?>
<svg xmlns="http://www.w3.org/2000/svg" width="100" height="100">
<path style="fill:#ffffff; stroke:none;" d="M0 0L0 50L10 50L10 0L0 0z"/>
<path style="fill:#000000; stroke:none;" d="M10 0L10 50L0 50L0 90L10 90L10 100L20 100L20 90L30 90L30 100L40 100L40 90L70 90L70 100L80 100L80 90L90 90L90 70L100 70L100 60L90 60L90 40L100 40L100 30L90 30L90 20L100 20L100 10L70 10L70 0L10 0z"/>
<path style="fill:#ffffff; stroke:none;" d="M70 0L70 10L100 10L100 0L70 0M20 20L20 80L80 80L80 20L20 20M90 20L90 30L100 30L100 20L90 20z"/>
<path style="fill:#000000; stroke:none;" d="M40 30L40 40L30 40L30 70L60 70L60 60L70 60L70 50L60 50L60 30L40 30z"/>
<path style="fill:#ffffff; stroke:none;" d="M90 40L90 60L100 60L100 40L90 40M40 50L40 60L60 60L60 50L40 50M90 70L90 90L80 90L80 100L100 100L100 70L90 70M0 90L0 100L10 100L10 90L0 90M20 90L20 100L30 100L30 90L20 90M40 90L40 100L70 100L70 90L40 90z"/>
</svg>
