<?xml version="1.0" standalone="yes"?>
<svg xmlns="http://www.w3.org/2000/svg" width="100" height="100">
<path style="fill:#000000; stroke:none;" d="M0 0L0 10L10 10L10 50L0 50L0 80L10 80L10 90L40 90L40 100L60 100L60 90L70 90L70 100L100 100L100 90L90 90L90 80L100 80L100 60L90 60L90 50L100 50L100 40L90 40L90 30L100 30L100 20L90 20L90 10L70 10L70 0L20 0L20 10L10 10L10 0L0 0z"/>
<path style="fill:#ffffff; stroke:none;" d="M10 0L10 10L20 10L20 0L10 0M70 0L70 10L90 10L90 20L100 20L100 0L70 0M0 10L0 50L10 50L10 10L0 10M20 20L20 80L80 80L80 20L20 20z"/>
<path style="fill:#000000; stroke:none;" d="M30 30L30 60L50 60L50 50L60 50L60 70L70 70L70 50L60 50L60 40L70 40L70 30L60 30L60 40L40 40L40 30L30 30z"/>
<path style="fill:#ffffff; stroke:none;" d="M90 30L90 40L100 40L100 30L90 30M90 50L90 60L100 60L100 50L90 50M0 80L0 100L40 100L40 90L10 90L10 80L0 80M90 80L90 90L100 90L100 80L90 80M60 90L60 100L70 100L70 90L60 90z"/>
</svg>
