<?xml version="1.0" standalone="yes"?>
<svg xmlns="http://www.w3.org/2000/svg" width="100" height="100">
<path style="fill:#000000; stroke:none;" d="M0 0L0 10L10 10L10 40L0 40L0 60L10 60L10 90L20 90L20 100L30 100L30 90L70 90L70 100L80 100L80 90L90 90L90 100L100 100L100 90L90 90L90 50L100 50L100 30L90 30L90 10L100 10L100 0L60 0L60 10L30 10L30 0L0 0z"/>
<path style="fill:#ffffff; stroke:none;" d="M30 0L30 10L60 10L60 0L30 0M0 10L0 40L10 40L10 10L0 10M90 10L90 30L100 30L100 10L90 10M20 20L20 80L80 80L80 20L20 20z"/>
<path style="fill:#000000; stroke:none;" d="M60 30L60 70L70 70L70 30L60 30M30 40L30 50L50 50L50 40L30 40z"/>
<path style="fill:#ffffff; stroke:none;" d="M90 50L90 90L100 90L100 50L90 50M0 60L0 100L20 100L20 90L10 90L10 60L0 60z"/>
<path style="fill:#000000; stroke:none;" d="M30 60L30 70L40 70L40 60L30 60z"/>
<path style="fill:#ffffff; stroke:none;" d="M30 90L30 100L70 100L70 90L30 90M80 90L80 100L90 100L90 90L80 90z"/>
</svg>
