<?xml version="1.0" standalone="yes"?>
<svg xmlns="http://www.w3.org/2000/svg" width="100" height="100">
<path style="fill:#000000; stroke:none;" d="M0 0L0 40L10 40L10 70L0 70L0 90L10 90L10 100L20 100L20 90L50 90L50 100L60 100L60 90L90 90L90 80L100 80L100 70L90 70L90 60L100 60L100 50L90 50L90 40L100 40L100 10L60 10L60 0L30 0L30 10L10 10L10 0L0 0z"/>
<path style="fill:#ffffff; stroke:none;" d="M10 0L10 10L30 10L30 0L10 0M60 0L60 10L100 10L100 0L60 0M20 20L20 80L80 80L80 20L20 20z"/>
<path style="fill:#000000; stroke:none;" d="M30 30L30 40L50 40L50 30L30 30z"/>
<path style="fill:#ffffff; stroke:none;" d="M0 40L0 70L10 70L10 40L0 40z"/>
<path style="fill:#000000; stroke:none;" d="M60 40L60 50L30 50L30 70L50 70L50 60L60 60L60 70L70 70L70 40L60 40z"/>
<path style="fill:#ffffff; stroke:none;" d="M90 40L90 50L100 50L100 40L90 40M90 60L90 70L100 70L100 60L90 60M90 80L90 90L60 90L60 100L100 100L100 80L90 80M0 90L0 100L10 100L10 90L0 90M20 90L20 100L50 100L50 90L20 90z"/>
</svg>
