<?xml version="1.0" standalone="yes"?>
<svg xmlns="http://www.w3.org/2000/svg" width="100" height="100">
<path style="fill:#000000; stroke:none;" d="M0 0L0 60L10 60L10 100L20 100L20 90L90 90L90 100L100 100L100 90L90 90L90 80L100 80L100 70L90 70L90 40L100 40L100 20L90 20L90 10L100 10L100 0L50 0L50 10L30 10L30 0L0 0z"/>
<path style="fill:#ffffff; stroke:none;" d="M30 0L30 10L50 10L50 0L30 0M90 10L90 20L100 20L100 10L90 10M20 20L20 80L80 80L80 20L20 20z"/>
<path style="fill:#000000; stroke:none;" d="M30 30L30 40L50 40L50 30L30 30M60 30L60 50L30 50L30 60L50 60L50 70L70 70L70 30L60 30z"/>
<path style="fill:#ffffff; stroke:none;" d="M90 40L90 70L100 70L100 40L90 40M0 60L0 100L10 100L10 60L0 60M90 80L90 90L100 90L100 80L90 80M20 90L20 100L90 100L90 90L20 90z"/>
</svg>
