<?xml version="1.0" standalone="yes"?>
<svg xmlns="http://www.w3.org/2000/svg" width="100" height="100">
<path style="fill:#000000; stroke:none;" d="M0 0L0 10L10 10L10 80L0 80L0 100L10 100L10 90L20 90L20 100L30 100L30 90L40 90L40 100L60 100L60 90L100 90L100 80L90 80L90 70L100 70L100 30L90 30L90 20L100 20L100 0L40 0L40 10L10 10L10 0L0 0z"/>
<path style="fill:#ffffff; stroke:none;" d="M10 0L10 10L40 10L40 0L10 0M0 10L0 80L10 80L10 10L0 10M20 20L20 80L80 80L80 20L20 20M90 20L90 30L100 30L100 20L90 20z"/>
<path style="fill:#000000; stroke:none;" d="M50 30L50 40L30 40L30 50L50 50L50 60L40 60L40 70L50 70L50 60L60 60L60 70L70 70L70 30L50 30z"/>
<path style="fill:#ffffff; stroke:none;" d="M90 70L90 80L100 80L100 70L90 70M10 90L10 100L20 100L20 90L10 90M30 90L30 100L40 100L40 90L30 90M60 90L60 100L100 100L100 90L60 90z"/>
</svg>
