<?xml version="1.0" standalone="yes"?>
<svg xmlns="http://www.w3.org/2000/svg" width="100" height="100">
<path style="fill:#ffffff; stroke:none;" d="M0 0L0 10L10 10L10 0L0 0z"/>
<path style="fill:#000000; stroke:none;" d="M10 0L10 10L0 10L0 70L10 70L10 90L50 90L50 100L60 100L60 90L90 90L90 100L100 100L100 90L90 90L90 80L100 80L100 50L90 50L90 20L100 20L100 0L60 0L60 10L30 10L30 0L10 0z"/>
<path style="fill:#ffffff; stroke:none;" d="M30 0L30 10L60 10L60 0L30 0M20 20L20 80L80 80L80 20L20 20M90 20L90 50L100 50L100 20L90 20z"/>
<path style="fill:#000000; stroke:none;" d="M30 30L30 50L40 50L40 60L60 60L60 70L70 70L70 30L30 30z"/>
<path style="fill:#ffffff; stroke:none;" d="M0 70L0 100L50 100L50 90L10 90L10 70L0 70M90 80L90 90L100 90L100 80L90 80M60 90L60 100L90 100L90 90L60 90z"/>
</svg>
