<?xml version="1.0" standalone="yes"?>
<svg xmlns="http://www.w3.org/2000/svg" width="100" height="100">
<path style="fill:#ffffff; stroke:none;" d="M0 0L0 10L10 10L10 0L0 0z"/>
<path style="fill:#000000; stroke:none;" d="M10 0L10 10L0 10L0 50L10 50L10 80L0 80L0 100L10 100L10 90L20 90L20 100L40 100L40 90L50 90L50 100L80 100L80 90L100 90L100 60L90 60L90 40L100 40L100 0L80 0L80 10L70 10L70 0L60 0L60 10L50 10L50 0L10 0z"/>
<path style="fill:#ffffff; stroke:none;" d="M50 0L50 10L60 10L60 0L50 0M70 0L70 10L80 10L80 0L70 0M20 20L20 80L80 80L80 20L20 20z"/>
<path style="fill:#000000; stroke:none;" d="M40 30L40 70L70 70L70 40L60 40L60 30L40 30z"/>
<path style="fill:#ffffff; stroke:none;" d="M50 40L50 60L60 60L60 40L50 40M90 40L90 60L100 60L100 40L90 40M0 50L0 80L10 80L10 50L0 50M10 90L10 100L20 100L20 90L10 90M40 90L40 100L50 100L50 90L40 90M80 90L80 100L100 100L100 90L80 90z"/>
</svg>
