<?xml version="1.0" standalone="yes"?>
<svg xmlns="http://www.w3.org/2000/svg" width="100" height="100">
<path style="fill:#000000; stroke:none;" d="M0 0L0 40L10 40L10 80L0 80L0 90L10 90L10 100L40 100L40 90L50 90L50 100L60 100L60 90L70 90L70 100L100 100L100 60L90 60L90 40L100 40L100 30L90 30L90 20L100 20L100 10L50 10L50 0L20 0L20 10L10 10L10 0L0 0z"/>
<path style="fill:#ffffff; stroke:none;" d="M10 0L10 10L20 10L20 0L10 0M50 0L50 10L100 10L100 0L50 0M20 20L20 80L80 80L80 20L20 20M90 20L90 30L100 30L100 20L90 20z"/>
<path style="fill:#000000; stroke:none;" d="M60 30L60 40L50 40L50 50L30 50L30 70L40 70L40 60L60 60L60 50L70 50L70 30L60 30z"/>
<path style="fill:#ffffff; stroke:none;" d="M0 40L0 80L10 80L10 40L0 40M90 40L90 60L100 60L100 40L90 40M0 90L0 100L10 100L10 90L0 90M40 90L40 100L50 100L50 90L40 90M60 90L60 100L70 100L70 90L60 90z"/>
</svg>
