<?xml version="1.0" standalone="yes"?>
<svg xmlns="http://www.w3.org/2000/svg" width="100" height="100">
<path style="fill:#ffffff; stroke:none;" d="M0 0L0 10L10 10L10 0L0 0z"/>
<path style="fill:#000000; stroke:none;" d="M10 0L10 10L0 10L0 70L10 70L10 80L0 80L0 90L40 90L40 100L60 100L60 90L70 90L70 100L90 100L90 70L100 70L100 60L90 60L90 40L100 40L100 30L90 30L90 20L100 20L100 10L90 10L90 0L40 0L40 10L20 10L20 0L10 0z"/>
<path style="fill:#ffffff; stroke:none;" d="M20 0L20 10L40 10L40 0L20 0M90 0L90 10L100 10L100 0L90 0M20 20L20 80L80 80L80 20L20 20M90 20L90 30L100 30L100 20L90 20z"/>
<path style="fill:#000000; stroke:none;" d="M30 30L30 50L40 50L40 40L50 40L50 30L30 30M60 30L60 40L70 40L70 30L60 30z"/>
<path style="fill:#ffffff; stroke:none;" d="M90 40L90 60L100 60L100 40L90 40z"/>
<path style="fill:#000000; stroke:none;" d="M50 50L50 70L60 70L60 50L50 50M30 60L30 70L40 70L40 60L30 60z"/>
<path style="fill:#ffffff; stroke:none;" d="M0 70L0 80L10 80L10 70L0 70M90 70L90 100L100 100L100 70L90 70M0 90L0 100L40 100L40 90L0 90M60 90L60 100L70 100L70 90L60 90z"/>
</svg>
