<?xml version="1.0" standalone="yes"?>
<svg xmlns="http://www.w3.org/2000/svg" width="100" height="100">
<path style="fill:#000000; stroke:none;" d="M0 0L0 40L10 40L10 60L0 60L0 70L10 70L10 90L50 90L50 100L70 100L70 90L90 90L90 100L100 100L100 90L90 90L90 80L100 80L100 60L90 60L90 50L100 50L100 40L90 40L90 20L100 20L100 10L90 10L90 0L80 0L80 10L30 10L30 0L20 0L20 10L10 10L10 0L0 0z"/>
<path style="fill:#ffffff; stroke:none;" d="M10 0L10 10L20 10L20 0L10 0M30 0L30 10L80 10L80 0L30 0M90 0L90 10L100 10L100 0L90 0M20 20L20 80L80 80L80 20L20 20M90 20L90 40L100 40L100 20L90 20z"/>
<path style="fill:#000000; stroke:none;" d="M50 30L50 50L60 50L60 30L50 30z"/>
<path style="fill:#ffffff; stroke:none;" d="M0 40L0 60L10 60L10 40L0 40z"/>
<path style="fill:#000000; stroke:none;" d="M30 50L30 60L40 60L40 70L50 70L50 60L40 60L40 50L30 50z"/>
<path style="fill:#ffffff; stroke:none;" d="M90 50L90 60L100 60L100 50L90 50M0 70L0 100L50 100L50 90L10 90L10 70L0 70M90 80L90 90L100 90L100 80L90 80M70 90L70 100L90 100L90 90L70 90z"/>
</svg>
