<?xml version="1.0" standalone="yes"?>
<svg xmlns="http://www.w3.org/2000/svg" width="100" height="100">
<path style="fill:#000000; stroke:none;" d="M0 0L0 40L10 40L10 50L0 50L0 60L10 60L10 90L0 90L0 100L20 100L20 90L50 90L50 100L70 100L70 90L80 90L80 100L100 100L100 90L90 90L90 80L100 80L100 60L90 60L90 50L100 50L100 40L90 40L90 30L100 30L100 10L70 10L70 0L50 0L50 10L40 10L40 0L0 0z"/>
<path style="fill:#ffffff; stroke:none;" d="M40 0L40 10L50 10L50 0L40 0M70 0L70 10L100 10L100 0L70 0M20 20L20 80L80 80L80 20L20 20z"/>
<path style="fill:#000000; stroke:none;" d="M30 30L30 40L40 40L40 60L60 60L60 50L50 50L50 40L60 40L60 30L50 30L50 40L40 40L40 30L30 30z"/>
<path style="fill:#ffffff; stroke:none;" d="M90 30L90 40L100 40L100 30L90 30M0 40L0 50L10 50L10 40L0 40M90 50L90 60L100 60L100 50L90 50M0 60L0 90L10 90L10 60L0 60M90 80L90 90L100 90L100 80L90 80M20 90L20 100L50 100L50 90L20 90M70 90L70 100L80 100L80 90L70 90z"/>
</svg>
