<?xml version="1.0" standalone="yes"?>
<svg xmlns="http://www.w3.org/2000/svg" width="100" height="100">
<path style="fill:#ffffff; stroke:none;" d="M0 0L0 40L10 40L10 0L0 0z"/>
<path style="fill:#000000; stroke:none;" d="M10 0L10 40L0 40L0 60L10 60L10 70L0 70L0 90L20 90L20 100L30 100L30 90L50 90L50 100L60 100L60 90L90 90L90 100L100 100L100 80L90 80L90 50L100 50L100 40L90 40L90 10L100 10L100 0L90 0L90 10L40 10L40 0L10 0z"/>
<path style="fill:#ffffff; stroke:none;" d="M40 0L40 10L90 10L90 0L40 0M90 10L90 40L100 40L100 10L90 10M20 20L20 80L80 80L80 20L20 20z"/>
<path style="fill:#000000; stroke:none;" d="M30 30L30 40L40 40L40 50L30 50L30 70L50 70L50 60L70 60L70 30L60 30L60 50L50 50L50 40L40 40L40 30L30 30z"/>
<path style="fill:#ffffff; stroke:none;" d="M40 50L40 60L50 60L50 50L40 50M90 50L90 80L100 80L100 50L90 50M0 60L0 70L10 70L10 60L0 60M0 90L0 100L20 100L20 90L0 90M30 90L30 100L50 100L50 90L30 90M60 90L60 100L90 100L90 90L60 90z"/>
</svg>
