<?xml version="1.0" standalone="yes"?>
<svg xmlns="http://www.w3.org/2000/svg" width="100" height="100">
<path style="fill:#ffffff; stroke:none;" d="M0 0L0 90L10 90L10 100L40 100L40 90L10 90L10 10L20 10L20 0L0 0z"/>
<path style="fill:#000000; stroke:none;" d="M20 0L20 10L10 10L10 90L40 90L40 100L70 100L70 90L90 90L90 80L100 80L100 70L90 70L90 60L100 60L100 50L90 50L90 20L100 20L100 10L90 10L90 0L20 0z"/>
<path style="fill:#ffffff; stroke:none;" d="M90 0L90 10L100 10L100 0L90 0M20 20L20 80L80 80L80 20L20 20M90 20L90 50L100 50L100 20L90 20z"/>
<path style="fill:#000000; stroke:none;" d="M30 30L30 40L40 40L40 30L30 30M50 30L50 50L60 50L60 60L40 60L40 50L30 50L30 60L40 60L40 70L60 70L60 60L70 60L70 50L60 50L60 40L70 40L70 30L50 30z"/>
<path style="fill:#ffffff; stroke:none;" d="M90 60L90 70L100 70L100 60L90 60M90 80L90 90L70 90L70 100L100 100L100 80L90 80z"/>
<path style="fill:#000000; stroke:none;" d="M0 90L0 100L10 100L10 90L0 90z"/>
</svg>
