<?xml version="1.0" standalone="yes"?>
<svg xmlns="http://www.w3.org/2000/svg" width="100" height="100">
<path style="fill:#ffffff; stroke:none;" d="M0 0L0 10L10 10L10 0L0 0z"/>
<path style="fill:#000000; stroke:none;" d="M10 0L10 10L0 10L0 30L10 30L10 50L0 50L0 70L10 70L10 90L0 90L0 100L40 100L40 90L70 90L70 100L100 100L100 90L90 90L90 50L100 50L100 0L80 0L80 10L70 10L70 0L50 0L50 10L40 10L40 0L10 0z"/>
<path style="fill:#ffffff; stroke:none;" d="M40 0L40 10L50 10L50 0L40 0M70 0L70 10L80 10L80 0L70 0M20 20L20 80L80 80L80 20L20 20M0 30L0 50L10 50L10 30L0 30z"/>
<path style="fill:#000000; stroke:none;" d="M40 30L40 40L30 40L30 60L40 60L40 70L50 70L50 60L60 60L60 70L70 70L70 60L60 60L60 50L50 50L50 30L40 30M60 30L60 40L70 40L70 30L60 30z"/>
<path style="fill:#ffffff; stroke:none;" d="M40 50L40 60L50 60L50 50L40 50M90 50L90 90L100 90L100 50L90 50M0 70L0 90L10 90L10 70L0 70M40 90L40 100L70 100L70 90L40 90z"/>
</svg>
