<?xml version="1.0" standalone="yes"?>
<svg xmlns="http://www.w3.org/2000/svg" width="100" height="100">
<path style="fill:#000000; stroke:none;" d="M0 0L0 10L10 10L10 40L0 40L0 60L10 60L10 80L0 80L0 90L80 90L80 100L100 100L100 90L90 90L90 70L100 70L100 50L90 50L90 10L100 10L100 0L90 0L90 10L70 10L70 0L50 0L50 10L40 10L40 0L0 0z"/>
<path style="fill:#ffffff; stroke:none;" d="M40 0L40 10L50 10L50 0L40 0M70 0L70 10L90 10L90 0L70 0M0 10L0 40L10 40L10 10L0 10M90 10L90 50L100 50L100 10L90 10M20 20L20 80L80 80L80 20L20 20z"/>
<path style="fill:#000000; stroke:none;" d="M40 30L40 40L50 40L50 50L30 50L30 70L70 70L70 40L50 40L50 30L40 30z"/>
<path style="fill:#ffffff; stroke:none;" d="M50 50L50 60L60 60L60 50L50 50M0 60L0 80L10 80L10 60L0 60M90 70L90 90L100 90L100 70L90 70M0 90L0 100L80 100L80 90L0 90z"/>
</svg>
