<?xml version="1.0" standalone="yes"?>
<svg xmlns="http://www.w3.org/2000/svg" width="100" height="100">
<path style="fill:#000000; stroke:none;" d="M0 0L0 30L10 30L10 70L0 70L0 90L60 90L60 100L70 100L70 90L100 90L100 80L90 80L90 20L100 20L100 10L50 10L50 0L30 0L30 10L10 10L10 0L0 0z"/>
<path style="fill:#ffffff; stroke:none;" d="M10 0L10 10L30 10L30 0L10 0M50 0L50 10L100 10L100 0L50 0M20 20L20 80L80 80L80 20L20 20M90 20L90 80L100 80L100 20L90 20M0 30L0 70L10 70L10 30L0 30z"/>
<path style="fill:#000000; stroke:none;" d="M40 30L40 40L30 40L30 50L40 50L40 60L30 60L30 70L60 70L60 50L70 50L70 40L60 40L60 30L40 30z"/>
<path style="fill:#ffffff; stroke:none;" d="M40 40L40 50L60 50L60 40L40 40M0 90L0 100L60 100L60 90L0 90M70 90L70 100L100 100L100 90L70 90z"/>
</svg>
