<?xml version="1.0" standalone="yes"?>
<svg xmlns="http://www.w3.org/2000/svg" width="100" height="100">
<path style="fill:#000000; stroke:none;" d="M0 0L0 50L10 50L10 60L0 60L0 70L10 70L10 80L0 80L0 100L10 100L10 90L20 90L20 100L40 100L40 90L50 90L50 100L90 100L90 90L100 90L100 80L90 80L90 60L100 60L100 50L90 50L90 40L100 40L100 20L90 20L90 10L100 10L100 0L70 0L70 10L60 10L60 0L20 0L20 10L10 10L10 0L0 0z"/>
<path style="fill:#ffffff; stroke:none;" d="M10 0L10 10L20 10L20 0L10 0M60 0L60 10L70 10L70 0L60 0M90 10L90 20L100 20L100 10L90 10M20 20L20 80L80 80L80 20L20 20z"/>
<path style="fill:#000000; stroke:none;" d="M50 30L50 40L40 40L40 50L30 50L30 60L40 60L40 70L50 70L50 50L70 50L70 30L50 30z"/>
<path style="fill:#ffffff; stroke:none;" d="M90 40L90 50L100 50L100 40L90 40M0 50L0 60L10 60L10 50L0 50M90 60L90 80L100 80L100 60L90 60M0 70L0 80L10 80L10 70L0 70M10 90L10 100L20 100L20 90L10 90M40 90L40 100L50 100L50 90L40 90M90 90L90 100L100 100L100 90L90 90z"/>
</svg>
