<?xml version="1.0" standalone="yes"?>
<svg xmlns="http://www.w3.org/2000/svg" width="100" height="100">
<path style="fill:#000000; stroke:none;" d="M0 0L0 10L10 10L10 40L0 40L0 80L10 80L10 100L20 100L20 90L30 90L30 100L40 100L40 90L60 90L60 100L70 100L70 90L80 90L80 100L100 100L100 80L90 80L90 30L100 30L100 20L90 20L90 10L100 10L100 0L90 0L90 10L80 10L80 0L70 0L70 10L60 10L60 0L50 0L50 10L20 10L20 0L0 0z"/>
<path style="fill:#ffffff; stroke:none;" d="M20 0L20 10L50 10L50 0L20 0M60 0L60 10L70 10L70 0L60 0M80 0L80 10L90 10L90 0L80 0M0 10L0 40L10 40L10 10L0 10M90 10L90 20L100 20L100 10L90 10M20 20L20 80L80 80L80 20L20 20z"/>
<path style="fill:#000000; stroke:none;" d="M50 30L50 40L40 40L40 50L50 50L50 60L60 60L60 50L50 50L50 40L60 40L60 30L50 30z"/>
<path style="fill:#ffffff; stroke:none;" d="M90 30L90 80L100 80L100 30L90 30M0 80L0 100L10 100L10 80L0 80M20 90L20 100L30 100L30 90L20 90M40 90L40 100L60 100L60 90L40 90M70 90L70 100L80 100L80 90L70 90z"/>
</svg>
