<?xml version="1.0" standalone="yes"?>
<svg xmlns="http://www.w3.org/2000/svg" width="100" height="100">
<path style="fill:#000000; stroke:none;" d="M0 0L0 10L10 10L10 60L0 60L0 100L10 100L10 90L20 90L20 100L30 100L30 90L60 90L60 100L80 100L80 90L90 90L90 100L100 100L100 90L90 90L90 50L100 50L100 40L90 40L90 30L100 30L100 10L90 10L90 0L50 0L50 10L40 10L40 0L20 0L20 10L10 10L10 0L0 0z"/>
<path style="fill:#ffffff; stroke:none;" d="M10 0L10 10L20 10L20 0L10 0M40 0L40 10L50 10L50 0L40 0M90 0L90 10L100 10L100 0L90 0M0 10L0 60L10 60L10 10L0 10M20 20L20 80L80 80L80 20L20 20z"/>
<path style="fill:#000000; stroke:none;" d="M30 30L30 40L40 40L40 30L30 30M50 30L50 40L70 40L70 30L50 30z"/>
<path style="fill:#ffffff; stroke:none;" d="M90 30L90 40L100 40L100 30L90 30z"/>
<path style="fill:#000000; stroke:none;" d="M50 50L50 60L30 60L30 70L50 70L50 60L60 60L60 50L50 50z"/>
<path style="fill:#ffffff; stroke:none;" d="M90 50L90 90L100 90L100 50L90 50M10 90L10 100L20 100L20 90L10 90M30 90L30 100L60 100L60 90L30 90M80 90L80 100L90 100L90 90L80 90z"/>
</svg>
