<?xml version="1.0" standalone="yes"?>
<svg xmlns="http://www.w3.org/2000/svg" width="100" height="100">
<path style="fill:#ffffff; stroke:none;" d="M0 0L0 10L10 10L10 0L0 0z"/>
<path style="fill:#000000; stroke:none;" d="M10 0L10 10L0 10L0 20L10 20L10 40L0 40L0 50L10 50L10 60L0 60L0 70L10 70L10 80L0 80L0 90L20 90L20 100L50 100L50 90L60 90L60 100L70 100L70 90L80 90L80 100L90 100L90 90L100 90L100 50L90 50L90 40L100 40L100 0L80 0L80 10L50 10L50 0L10 0z"/>
<path style="fill:#ffffff; stroke:none;" d="M50 0L50 10L80 10L80 0L50 0M0 20L0 40L10 40L10 20L0 20M20 20L20 80L80 80L80 20L20 20z"/>
<path style="fill:#000000; stroke:none;" d="M30 30L30 40L70 40L70 30L30 30z"/>
<path style="fill:#ffffff; stroke:none;" d="M90 40L90 50L100 50L100 40L90 40M0 50L0 60L10 60L10 50L0 50z"/>
<path style="fill:#000000; stroke:none;" d="M50 50L50 70L70 70L70 50L50 50M30 60L30 70L40 70L40 60L30 60z"/>
<path style="fill:#ffffff; stroke:none;" d="M0 70L0 80L10 80L10 70L0 70M0 90L0 100L20 100L20 90L0 90M50 90L50 100L60 100L60 90L50 90M70 90L70 100L80 100L80 90L70 90M90 90L90 100L100 100L100 90L90 90z"/>
</svg>
