<?xml version="1.0" standalone="yes"?>
<svg xmlns="http://www.w3.org/2000/svg" width="100" height="100">
<path style="fill:#000000; stroke:none;" d="M0 0L0 10L10 10L10 20L0 20L0 40L10 40L10 80L0 80L0 90L10 90L10 100L30 100L30 90L50 90L50 100L60 100L60 90L80 90L80 100L100 100L100 90L90 90L90 80L100 80L100 60L90 60L90 20L100 20L100 10L90 10L90 0L80 0L80 10L70 10L70 0L20 0L20 10L10 10L10 0L0 0z"/>
<path style="fill:#ffffff; stroke:none;" d="M10 0L10 10L20 10L20 0L10 0M70 0L70 10L80 10L80 0L70 0M90 0L90 10L100 10L100 0L90 0M0 10L0 20L10 20L10 10L0 10M20 20L20 80L80 80L80 20L20 20M90 20L90 60L100 60L100 20L90 20z"/>
<path style="fill:#000000; stroke:none;" d="M40 30L40 40L30 40L30 50L40 50L40 40L60 40L60 50L50 50L50 60L60 60L60 70L70 70L70 60L60 60L60 50L70 50L70 30L40 30z"/>
<path style="fill:#ffffff; stroke:none;" d="M0 40L0 80L10 80L10 40L0 40M90 80L90 90L100 90L100 80L90 80M0 90L0 100L10 100L10 90L0 90M30 90L30 100L50 100L50 90L30 90M60 90L60 100L80 100L80 90L60 90z"/>
</svg>
