<?xml version="1.0" standalone="yes"?>
<svg xmlns="http://www.w3.org/2000/svg" width="100" height="100">
<path style="fill:#000000; stroke:none;" d="M0 0L0 10L10 10L10 30L0 30L0 60L10 60L10 100L30 100L30 90L60 90L60 100L100 100L100 70L90 70L90 60L100 60L100 30L90 30L90 20L100 20L100 10L70 10L70 0L60 0L60 10L30 10L30 0L20 0L20 10L10 10L10 0L0 0z"/>
<path style="fill:#ffffff; stroke:none;" d="M10 0L10 10L20 10L20 0L10 0M30 0L30 10L60 10L60 0L30 0M70 0L70 10L100 10L100 0L70 0M0 10L0 30L10 30L10 10L0 10M20 20L20 80L80 80L80 20L20 20M90 20L90 30L100 30L100 20L90 20z"/>
<path style="fill:#000000; stroke:none;" d="M50 30L50 40L40 40L40 50L50 50L50 60L60 60L60 70L70 70L70 40L60 40L60 30L50 30z"/>
<path style="fill:#ffffff; stroke:none;" d="M50 40L50 50L60 50L60 40L50 40M0 60L0 100L10 100L10 60L0 60z"/>
<path style="fill:#000000; stroke:none;" d="M30 60L30 70L40 70L40 60L30 60z"/>
<path style="fill:#ffffff; stroke:none;" d="M90 60L90 70L100 70L100 60L90 60M30 90L30 100L60 100L60 90L30 90z"/>
</svg>
