<?xml version="1.0" standalone="yes"?>
<svg xmlns="http://www.w3.org/2000/svg" width="100" height="100">
<path style="fill:#ffffff; stroke:none;" d="M0 0L0 70L10 70L10 10L30 10L30 0L0 0z"/>
<path style="fill:#000000; stroke:none;" d="M30 0L30 10L10 10L10 70L0 70L0 80L10 80L10 90L50 90L50 100L100 100L100 90L90 90L90 0L70 0L70 10L50 10L50 0L30 0z"/>
<path style="fill:#ffffff; stroke:none;" d="M50 0L50 10L70 10L70 0L50 0M90 0L90 90L100 90L100 0L90 0M20 20L20 80L80 80L80 20L20 20z"/>
<path style="fill:#000000; stroke:none;" d="M40 30L40 40L30 40L30 70L40 70L40 40L50 40L50 30L40 30M60 40L60 50L50 50L50 60L60 60L60 50L70 50L70 40L60 40z"/>
<path style="fill:#ffffff; stroke:none;" d="M0 80L0 100L50 100L50 90L10 90L10 80L0 80z"/>
</svg>
