<?xml version="1.0" standalone="yes"?>
<svg xmlns="http://www.w3.org/2000/svg" width="100" height="100">
<path style="fill:#ffffff; stroke:none;" d="M0 0L0 10L10 10L10 0L0 0z"/>
<path style="fill:#000000; stroke:none;" d="M10 0L10 10L0 10L0 30L10 30L10 40L0 40L0 50L10 50L10 80L0 80L0 100L10 100L10 90L20 90L20 100L50 100L50 90L100 90L100 80L90 80L90 50L100 50L100 10L30 10L30 0L10 0z"/>
<path style="fill:#ffffff; stroke:none;" d="M30 0L30 10L100 10L100 0L30 0M20 20L20 80L80 80L80 20L20 20M0 30L0 40L10 40L10 30L0 30z"/>
<path style="fill:#000000; stroke:none;" d="M30 30L30 40L40 40L40 30L30 30M50 30L50 50L30 50L30 60L50 60L50 70L60 70L60 60L70 60L70 50L60 50L60 40L70 40L70 30L50 30z"/>
<path style="fill:#ffffff; stroke:none;" d="M0 50L0 80L10 80L10 50L0 50M90 50L90 80L100 80L100 50L90 50M10 90L10 100L20 100L20 90L10 90M50 90L50 100L100 100L100 90L50 90z"/>
</svg>
