<?xml version="1.0" standalone="yes"?>
<svg xmlns="http://www.w3.org/2000/svg" width="100" height="100">
<path style="fill:#ffffff; stroke:none;" d="M0 0L0 10L50 10L50 0L0 0z"/>
<path style="fill:#000000; stroke:none;" d="M50 0L50 10L0 10L0 40L10 40L10 60L0 60L0 80L10 80L10 90L30 90L30 100L70 100L70 90L90 90L90 50L100 50L100 40L90 40L90 30L100 30L100 10L70 10L70 0L50 0z"/>
<path style="fill:#ffffff; stroke:none;" d="M70 0L70 10L100 10L100 0L70 0M20 20L20 80L80 80L80 20L20 20z"/>
<path style="fill:#000000; stroke:none;" d="M30 30L30 50L40 50L40 60L50 60L50 70L60 70L60 60L70 60L70 30L30 30z"/>
<path style="fill:#ffffff; stroke:none;" d="M90 30L90 40L100 40L100 30L90 30M0 40L0 60L10 60L10 40L0 40M50 40L50 50L60 50L60 40L50 40M90 50L90 90L70 90L70 100L100 100L100 50L90 50M0 80L0 100L30 100L30 90L10 90L10 80L0 80z"/>
</svg>
