<?xml version="1.0" standalone="yes"?>
<svg xmlns="http://www.w3.org/2000/svg" width="100" height="100">
<path style="fill:#000000; stroke:none;" d="M0 0L0 20L10 20L10 30L0 30L0 40L10 40L10 70L0 70L0 100L10 100L10 90L60 90L60 100L80 100L80 90L90 90L90 80L100 80L100 60L90 60L90 50L100 50L100 0L90 0L90 10L30 10L30 0L0 0z"/>
<path style="fill:#ffffff; stroke:none;" d="M30 0L30 10L90 10L90 0L30 0M0 20L0 30L10 30L10 20L0 20M20 20L20 80L80 80L80 20L20 20z"/>
<path style="fill:#000000; stroke:none;" d="M40 30L40 40L30 40L30 60L40 60L40 70L70 70L70 40L60 40L60 30L40 30z"/>
<path style="fill:#ffffff; stroke:none;" d="M0 40L0 70L10 70L10 40L0 40M40 40L40 60L50 60L50 40L40 40M90 50L90 60L100 60L100 50L90 50M90 80L90 90L80 90L80 100L100 100L100 80L90 80M10 90L10 100L60 100L60 90L10 90z"/>
</svg>
