<?xml version="1.0" standalone="yes"?>
<svg xmlns="http://www.w3.org/2000/svg" width="100" height="100">
<path style="fill:#000000; stroke:none;" d="M0 0L0 20L10 20L10 30L0 30L0 40L10 40L10 60L0 60L0 90L20 90L20 100L30 100L30 90L50 90L50 100L60 100L60 90L80 90L80 100L90 100L90 90L100 90L100 70L90 70L90 50L100 50L100 30L90 30L90 0L60 0L60 10L50 10L50 0L20 0L20 10L10 10L10 0L0 0z"/>
<path style="fill:#ffffff; stroke:none;" d="M10 0L10 10L20 10L20 0L10 0M50 0L50 10L60 10L60 0L50 0M90 0L90 30L100 30L100 0L90 0M0 20L0 30L10 30L10 20L0 20M20 20L20 80L80 80L80 20L20 20z"/>
<path style="fill:#000000; stroke:none;" d="M30 30L30 40L50 40L50 50L60 50L60 70L70 70L70 50L60 50L60 30L30 30z"/>
<path style="fill:#ffffff; stroke:none;" d="M0 40L0 60L10 60L10 40L0 40z"/>
<path style="fill:#000000; stroke:none;" d="M30 50L30 60L40 60L40 70L50 70L50 60L40 60L40 50L30 50z"/>
<path style="fill:#ffffff; stroke:none;" d="M90 50L90 70L100 70L100 50L90 50M0 90L0 100L20 100L20 90L0 90M30 90L30 100L50 100L50 90L30 90M60 90L60 100L80 100L80 90L60 90M90 90L90 100L100 100L100 90L90 90z"/>
</svg>
