<?xml version="1.0" standalone="yes"?>
<svg xmlns="http://www.w3.org/2000/svg" width="100" height="100">
<path style="fill:#000000; stroke:none;" d="M0 0L0 10L10 10L10 40L0 40L0 50L10 50L10 60L0 60L0 70L10 70L10 90L30 90L30 100L50 100L50 90L60 90L60 100L70 100L70 90L90 90L90 50L100 50L100 40L90 40L90 10L100 10L100 0L60 0L60 10L50 10L50 0L20 0L20 10L10 10L10 0L0 0z"/>
<path style="fill:#ffffff; stroke:none;" d="M10 0L10 10L20 10L20 0L10 0M50 0L50 10L60 10L60 0L50 0M0 10L0 40L10 40L10 10L0 10M90 10L90 40L100 40L100 10L90 10M20 20L20 80L80 80L80 20L20 20z"/>
<path style="fill:#000000; stroke:none;" d="M30 30L30 70L60 70L60 60L70 60L70 50L60 50L60 60L40 60L40 40L70 40L70 30L30 30z"/>
<path style="fill:#ffffff; stroke:none;" d="M0 50L0 60L10 60L10 50L0 50M90 50L90 90L70 90L70 100L100 100L100 50L90 50M0 70L0 100L30 100L30 90L10 90L10 70L0 70M50 90L50 100L60 100L60 90L50 90z"/>
</svg>
