<?xml version="1.0" standalone="yes"?>
<svg xmlns="http://www.w3.org/2000/svg" width="100" height="100">
<path style="fill:#000000; stroke:none;" d="M0 0L0 50L10 50L10 60L0 60L0 80L10 80L10 100L30 100L30 90L40 90L40 100L100 100L100 60L90 60L90 50L100 50L100 40L90 40L90 30L100 30L100 20L90 20L90 10L100 10L100 0L90 0L90 10L80 10L80 0L70 0L70 10L50 10L50 0L40 0L40 10L10 10L10 0L0 0z"/>
<path style="fill:#ffffff; stroke:none;" d="M10 0L10 10L40 10L40 0L10 0M50 0L50 10L70 10L70 0L50 0M80 0L80 10L90 10L90 0L80 0M90 10L90 20L100 20L100 10L90 10M20 20L20 80L80 80L80 20L20 20z"/>
<path style="fill:#000000; stroke:none;" d="M30 30L30 40L50 40L50 30L30 30M60 30L60 50L40 50L40 70L60 70L60 60L70 60L70 30L60 30z"/>
<path style="fill:#ffffff; stroke:none;" d="M90 30L90 40L100 40L100 30L90 30M0 50L0 60L10 60L10 50L0 50M90 50L90 60L100 60L100 50L90 50M0 80L0 100L10 100L10 80L0 80M30 90L30 100L40 100L40 90L30 90z"/>
</svg>
