<?xml version="1.0" standalone="yes"?>
<svg xmlns="http://www.w3.org/2000/svg" width="100" height="100">
<path style="fill:#ffffff; stroke:none;" d="M0 0L0 10L10 10L10 0L0 0z"/>
<path style="fill:#000000; stroke:none;" d="M10 0L10 10L0 10L0 40L10 40L10 50L0 50L0 60L10 60L10 90L0 90L0 100L10 100L10 90L20 90L20 100L30 100L30 90L60 90L60 100L100 100L100 80L90 80L90 70L100 70L100 50L90 50L90 40L100 40L100 10L60 10L60 0L50 0L50 10L40 10L40 0L10 0z"/>
<path style="fill:#ffffff; stroke:none;" d="M40 0L40 10L50 10L50 0L40 0M60 0L60 10L100 10L100 0L60 0M20 20L20 80L80 80L80 20L20 20z"/>
<path style="fill:#000000; stroke:none;" d="M30 30L30 40L40 40L40 50L30 50L30 70L50 70L50 60L60 60L60 70L70 70L70 50L60 50L60 30L50 30L50 40L40 40L40 30L30 30z"/>
<path style="fill:#ffffff; stroke:none;" d="M0 40L0 50L10 50L10 40L0 40M90 40L90 50L100 50L100 40L90 40M40 50L40 60L50 60L50 50L40 50M0 60L0 90L10 90L10 60L0 60M90 70L90 80L100 80L100 70L90 70M10 90L10 100L20 100L20 90L10 90M30 90L30 100L60 100L60 90L30 90z"/>
</svg>
