<?xml version="1.0" standalone="yes"?>
<svg xmlns="http://www.w3.org/2000/svg" width="100" height="100">
<path style="fill:#000000; stroke:none;" d="M0 0L0 10L10 10L10 30L0 30L0 60L10 60L10 70L0 70L0 80L10 80L10 100L30 100L30 90L40 90L40 100L50 100L50 90L70 90L70 100L100 100L100 90L90 90L90 80L100 80L100 40L90 40L90 10L100 10L100 0L90 0L90 10L80 10L80 0L70 0L70 10L50 10L50 0L30 0L30 10L20 10L20 0L0 0z"/>
<path style="fill:#ffffff; stroke:none;" d="M20 0L20 10L30 10L30 0L20 0M50 0L50 10L70 10L70 0L50 0M80 0L80 10L90 10L90 0L80 0M0 10L0 30L10 30L10 10L0 10M90 10L90 40L100 40L100 10L90 10M20 20L20 80L80 80L80 20L20 20z"/>
<path style="fill:#000000; stroke:none;" d="M30 30L30 40L40 40L40 30L30 30M50 30L50 40L60 40L60 30L50 30M40 50L40 60L50 60L50 50L40 50M60 50L60 60L70 60L70 50L60 50z"/>
<path style="fill:#ffffff; stroke:none;" d="M0 60L0 70L10 70L10 60L0 60M0 80L0 100L10 100L10 80L0 80M90 80L90 90L100 90L100 80L90 80M30 90L30 100L40 100L40 90L30 90M50 90L50 100L70 100L70 90L50 90z"/>
</svg>
