<?xml version="1.0" standalone="yes"?>
<svg xmlns="http://www.w3.org/2000/svg" width="100" height="100">
<path style="fill:#ffffff; stroke:none;" d="M0 0L0 20L10 20L10 0L0 0z"/>
<path style="fill:#000000; stroke:none;" d="M10 0L10 20L0 20L0 30L10 30L10 50L0 50L0 80L10 80L10 90L0 90L0 100L40 100L40 90L60 90L60 100L100 100L100 90L90 90L90 80L100 80L100 50L90 50L90 10L100 10L100 0L70 0L70 10L60 10L60 0L40 0L40 10L20 10L20 0L10 0z"/>
<path style="fill:#ffffff; stroke:none;" d="M20 0L20 10L40 10L40 0L20 0M60 0L60 10L70 10L70 0L60 0M90 10L90 50L100 50L100 10L90 10M20 20L20 80L80 80L80 20L20 20M0 30L0 50L10 50L10 30L0 30z"/>
<path style="fill:#000000; stroke:none;" d="M30 30L30 40L40 40L40 50L30 50L30 60L40 60L40 50L50 50L50 70L60 70L60 60L70 60L70 30L50 30L50 40L40 40L40 30L30 30z"/>
<path style="fill:#ffffff; stroke:none;" d="M0 80L0 90L10 90L10 80L0 80M90 80L90 90L100 90L100 80L90 80M40 90L40 100L60 100L60 90L40 90z"/>
</svg>
