<?xml version="1.0" standalone="yes"?>
<svg xmlns="http://www.w3.org/2000/svg" width="100" height="100">
<path style="fill:#ffffff; stroke:none;" d="M0 0L0 50L10 50L10 10L30 10L30 0L0 0z"/>
<path style="fill:#000000; stroke:none;" d="M30 0L30 10L10 10L10 50L0 50L0 100L30 100L30 90L40 90L40 100L50 100L50 90L100 90L100 70L90 70L90 60L100 60L100 20L90 20L90 0L70 0L70 10L40 10L40 0L30 0z"/>
<path style="fill:#ffffff; stroke:none;" d="M40 0L40 10L70 10L70 0L40 0M90 0L90 20L100 20L100 0L90 0M20 20L20 80L80 80L80 20L20 20z"/>
<path style="fill:#000000; stroke:none;" d="M30 30L30 70L40 70L40 50L50 50L50 60L60 60L60 50L70 50L70 40L60 40L60 30L30 30z"/>
<path style="fill:#ffffff; stroke:none;" d="M50 40L50 50L60 50L60 40L50 40M90 60L90 70L100 70L100 60L90 60M30 90L30 100L40 100L40 90L30 90M50 90L50 100L100 100L100 90L50 90z"/>
</svg>
