<?xml version="1.0" standalone="yes"?>
<svg xmlns="http://www.w3.org/2000/svg" width="100" height="100">
<path style="fill:#000000; stroke:none;" d="M0 0L0 30L10 30L10 40L0 40L0 70L10 70L10 90L50 90L50 100L100 100L100 90L90 90L90 70L100 70L100 50L90 50L90 20L100 20L100 0L90 0L90 10L70 10L70 0L30 0L30 10L10 10L10 0L0 0z"/>
<path style="fill:#ffffff; stroke:none;" d="M10 0L10 10L30 10L30 0L10 0M70 0L70 10L90 10L90 0L70 0M20 20L20 80L80 80L80 20L20 20M90 20L90 50L100 50L100 20L90 20M0 30L0 40L10 40L10 30L0 30z"/>
<path style="fill:#000000; stroke:none;" d="M40 30L40 40L30 40L30 50L40 50L40 40L50 40L50 70L60 70L60 40L50 40L50 30L40 30M30 60L30 70L40 70L40 60L30 60z"/>
<path style="fill:#ffffff; stroke:none;" d="M0 70L0 100L50 100L50 90L10 90L10 70L0 70M90 70L90 90L100 90L100 70L90 70z"/>
</svg>
