<?xml version="1.0" standalone="yes"?>
<svg xmlns="http://www.w3.org/2000/svg" width="100" height="100">
<path style="fill:#000000; stroke:none;" d="M0 0L0 30L10 30L10 40L0 40L0 50L10 50L10 60L0 60L0 90L10 90L10 100L20 100L20 90L60 90L60 100L70 100L70 90L80 90L80 100L100 100L100 80L90 80L90 30L100 30L100 10L60 10L60 0L50 0L50 10L40 10L40 0L20 0L20 10L10 10L10 0L0 0z"/>
<path style="fill:#ffffff; stroke:none;" d="M10 0L10 10L20 10L20 0L10 0M40 0L40 10L50 10L50 0L40 0M60 0L60 10L100 10L100 0L60 0M20 20L20 80L80 80L80 20L20 20M0 30L0 40L10 40L10 30L0 30z"/>
<path style="fill:#000000; stroke:none;" d="M30 30L30 40L40 40L40 50L50 50L50 40L40 40L40 30L30 30M60 30L60 70L70 70L70 30L60 30z"/>
<path style="fill:#ffffff; stroke:none;" d="M90 30L90 80L100 80L100 30L90 30M0 50L0 60L10 60L10 50L0 50z"/>
<path style="fill:#000000; stroke:none;" d="M30 60L30 70L40 70L40 60L30 60z"/>
<path style="fill:#ffffff; stroke:none;" d="M0 90L0 100L10 100L10 90L0 90M20 90L20 100L60 100L60 90L20 90M70 90L70 100L80 100L80 90L70 90z"/>
</svg>
