<?xml version="1.0" standalone="yes"?>
<svg xmlns="http://www.w3.org/2000/svg" width="100" height="100">
<path style="fill:#000000; stroke:none;" d="M0 0L0 10L10 10L10 40L0 40L0 60L10 60L10 70L0 70L0 80L10 80L10 90L30 90L30 100L40 100L40 90L70 90L70 100L90 100L90 90L100 90L100 80L90 80L90 60L100 60L100 10L90 10L90 0L70 0L70 10L60 10L60 0L20 0L20 10L10 10L10 0L0 0z"/>
<path style="fill:#ffffff; stroke:none;" d="M10 0L10 10L20 10L20 0L10 0M60 0L60 10L70 10L70 0L60 0M90 0L90 10L100 10L100 0L90 0M0 10L0 40L10 40L10 10L0 10M20 20L20 80L80 80L80 20L20 20z"/>
<path style="fill:#000000; stroke:none;" d="M40 30L40 50L30 50L30 60L40 60L40 50L50 50L50 40L60 40L60 30L40 30z"/>
<path style="fill:#ffffff; stroke:none;" d="M0 60L0 70L10 70L10 60L0 60z"/>
<path style="fill:#000000; stroke:none;" d="M60 60L60 70L70 70L70 60L60 60z"/>
<path style="fill:#ffffff; stroke:none;" d="M90 60L90 80L100 80L100 60L90 60M0 80L0 100L30 100L30 90L10 90L10 80L0 80M40 90L40 100L70 100L70 90L40 90M90 90L90 100L100 100L100 90L90 90z"/>
</svg>
