<?xml version="1.0" standalone="yes"?>
<svg xmlns="http://www.w3.org/2000/svg" width="100" height="100">
<path style="fill:#000000; stroke:none;" d="M0 0L0 10L10 10L10 60L0 60L0 70L10 70L10 80L0 80L0 90L20 90L20 100L50 100L50 90L70 90L70 100L80 100L80 90L100 90L100 10L90 10L90 0L70 0L70 10L10 10L10 0L0 0z"/>
<path style="fill:#ffffff; stroke:none;" d="M10 0L10 10L70 10L70 0L10 0M90 0L90 10L100 10L100 0L90 0M0 10L0 60L10 60L10 10L0 10M20 20L20 80L80 80L80 20L20 20z"/>
<path style="fill:#000000; stroke:none;" d="M30 30L30 50L50 50L50 40L40 40L40 30L30 30M60 40L60 60L70 60L70 40L60 40M40 60L40 70L50 70L50 60L40 60z"/>
<path style="fill:#ffffff; stroke:none;" d="M0 70L0 80L10 80L10 70L0 70M0 90L0 100L20 100L20 90L0 90M50 90L50 100L70 100L70 90L50 90M80 90L80 100L100 100L100 90L80 90z"/>
</svg>
