<?xml version="1.0" standalone="yes"?>
<svg xmlns="http://www.w3.org/2000/svg" width="100" height="100">
<path style="fill:#000000; stroke:none;" d="M0 0L0 50L10 50L10 60L0 60L0 90L10 90L10 100L40 100L40 90L60 90L60 100L70 100L70 90L90 90L90 100L100 100L100 80L90 80L90 60L100 60L100 50L90 50L90 10L80 10L80 0L70 0L70 10L50 10L50 0L20 0L20 10L10 10L10 0L0 0z"/>
<path style="fill:#ffffff; stroke:none;" d="M10 0L10 10L20 10L20 0L10 0M50 0L50 10L70 10L70 0L50 0M80 0L80 10L90 10L90 50L100 50L100 0L80 0M20 20L20 80L80 80L80 20L20 20z"/>
<path style="fill:#000000; stroke:none;" d="M30 30L30 50L50 50L50 40L40 40L40 30L30 30z"/>
<path style="fill:#ffffff; stroke:none;" d="M0 50L0 60L10 60L10 50L0 50z"/>
<path style="fill:#000000; stroke:none;" d="M40 60L40 70L50 70L50 60L40 60z"/>
<path style="fill:#ffffff; stroke:none;" d="M90 60L90 80L100 80L100 60L90 60M0 90L0 100L10 100L10 90L0 90M40 90L40 100L60 100L60 90L40 90M70 90L70 100L90 100L90 90L70 90z"/>
</svg>
