<?xml version="1.0" standalone="yes"?>
<svg xmlns="http://www.w3.org/2000/svg" width="100" height="100">
<path style="fill:#000000; stroke:none;" d="M0 0L0 30L10 30L10 40L0 40L0 50L10 50L10 60L0 60L0 70L10 70L10 80L0 80L0 90L20 90L20 100L30 100L30 90L50 90L50 100L70 100L70 90L90 90L90 100L100 100L100 90L90 90L90 70L100 70L100 60L90 60L90 30L100 30L100 20L90 20L90 10L80 10L80 0L70 0L70 10L60 10L60 0L40 0L40 10L30 10L30 0L0 0z"/>
<path style="fill:#ffffff; stroke:none;" d="M30 0L30 10L40 10L40 0L30 0M60 0L60 10L70 10L70 0L60 0M80 0L80 10L90 10L90 20L100 20L100 0L80 0M20 20L20 80L80 80L80 20L20 20M0 30L0 40L10 40L10 30L0 30z"/>
<path style="fill:#000000; stroke:none;" d="M40 30L40 50L30 50L30 70L40 70L40 50L70 50L70 30L40 30z"/>
<path style="fill:#ffffff; stroke:none;" d="M90 30L90 60L100 60L100 30L90 30M0 50L0 60L10 60L10 50L0 50z"/>
<path style="fill:#000000; stroke:none;" d="M60 60L60 70L70 70L70 60L60 60z"/>
<path style="fill:#ffffff; stroke:none;" d="M0 70L0 80L10 80L10 70L0 70M90 70L90 90L100 90L100 70L90 70M0 90L0 100L20 100L20 90L0 90M30 90L30 100L50 100L50 90L30 90M70 90L70 100L90 100L90 90L70 90z"/>
</svg>
