<?xml version="1.0" standalone="yes"?>
<svg xmlns="http://www.w3.org/2000/svg" width="100" height="100">
<path style="fill:#ffffff; stroke:none;" d="M0 0L0 10L10 10L10 0L0 0z"/>
<path style="fill:#000000; stroke:none;" d="M10 0L10 10L0 10L0 20L10 20L10 30L0 30L0 50L10 50L10 60L0 60L0 90L10 90L10 100L20 100L20 90L50 90L50 100L60 100L60 90L70 90L70 100L90 100L90 80L100 80L100 70L90 70L90 60L100 60L100 0L90 0L90 10L70 10L70 0L60 0L60 10L30 10L30 0L10 0z"/>
<path style="fill:#ffffff; stroke:none;" d="M30 0L30 10L60 10L60 0L30 0M70 0L70 10L90 10L90 0L70 0M0 20L0 30L10 30L10 20L0 20M20 20L20 80L80 80L80 20L20 20z"/>
<path style="fill:#000000; stroke:none;" d="M40 30L40 50L30 50L30 70L70 70L70 40L50 40L50 30L40 30z"/>
<path style="fill:#ffffff; stroke:none;" d="M0 50L0 60L10 60L10 50L0 50M40 50L40 60L50 60L50 50L40 50M90 60L90 70L100 70L100 60L90 60M90 80L90 100L100 100L100 80L90 80M0 90L0 100L10 100L10 90L0 90M20 90L20 100L50 100L50 90L20 90M60 90L60 100L70 100L70 90L60 90z"/>
</svg>
