<?xml version="1.0" standalone="yes"?>
<svg xmlns="http://www.w3.org/2000/svg" width="100" height="100">
<path style="fill:#ffffff; stroke:none;" d="M0 0L0 30L10 30L10 0L0 0z"/>
<path style="fill:#000000; stroke:none;" d="M10 0L10 30L0 30L0 40L10 40L10 50L0 50L0 100L20 100L20 90L40 90L40 100L50 100L50 90L90 90L90 100L100 100L100 90L90 90L90 70L100 70L100 40L90 40L90 20L100 20L100 10L60 10L60 0L50 0L50 10L40 10L40 0L10 0z"/>
<path style="fill:#ffffff; stroke:none;" d="M40 0L40 10L50 10L50 0L40 0M60 0L60 10L100 10L100 0L60 0M20 20L20 80L80 80L80 20L20 20M90 20L90 40L100 40L100 20L90 20z"/>
<path style="fill:#000000; stroke:none;" d="M60 30L60 40L30 40L30 70L60 70L60 40L70 40L70 30L60 30z"/>
<path style="fill:#ffffff; stroke:none;" d="M0 40L0 50L10 50L10 40L0 40M90 70L90 90L100 90L100 70L90 70M20 90L20 100L40 100L40 90L20 90M50 90L50 100L90 100L90 90L50 90z"/>
</svg>
