<?xml version="1.0" standalone="yes"?>
<svg xmlns="http://www.w3.org/2000/svg" width="100" height="100">
<path style="fill:#000000; stroke:none;" d="M0 0L0 10L10 10L10 30L0 30L0 50L10 50L10 60L0 60L0 70L10 70L10 90L20 90L20 100L50 100L50 90L80 90L80 100L90 100L90 90L100 90L100 30L90 30L90 0L50 0L50 10L40 10L40 0L30 0L30 10L10 10L10 0L0 0z"/>
<path style="fill:#ffffff; stroke:none;" d="M10 0L10 10L30 10L30 0L10 0M40 0L40 10L50 10L50 0L40 0M90 0L90 30L100 30L100 0L90 0M0 10L0 30L10 30L10 10L0 10M20 20L20 80L80 80L80 20L20 20z"/>
<path style="fill:#000000; stroke:none;" d="M60 30L60 40L50 40L50 50L40 50L40 60L50 60L50 70L60 70L60 60L70 60L70 30L60 30z"/>
<path style="fill:#ffffff; stroke:none;" d="M0 50L0 60L10 60L10 50L0 50M0 70L0 100L20 100L20 90L10 90L10 70L0 70M50 90L50 100L80 100L80 90L50 90M90 90L90 100L100 100L100 90L90 90z"/>
</svg>
