<?xml version="1.0" standalone="yes"?>
<svg xmlns="http://www.w3.org/2000/svg" width="100" height="100">
<path style="fill:#000000; stroke:none;" d="M0 0L0 10L10 10L10 30L0 30L0 50L10 50L10 60L0 60L0 80L10 80L10 90L30 90L30 100L60 100L60 90L70 90L70 100L100 100L100 90L90 90L90 70L100 70L100 60L90 60L90 50L100 50L100 20L90 20L90 10L70 10L70 0L50 0L50 10L20 10L20 0L0 0z"/>
<path style="fill:#ffffff; stroke:none;" d="M20 0L20 10L50 10L50 0L20 0M70 0L70 10L90 10L90 20L100 20L100 0L70 0M0 10L0 30L10 30L10 10L0 10M20 20L20 80L80 80L80 20L20 20z"/>
<path style="fill:#000000; stroke:none;" d="M50 30L50 40L30 40L30 70L70 70L70 30L50 30z"/>
<path style="fill:#ffffff; stroke:none;" d="M0 50L0 60L10 60L10 50L0 50M40 50L40 60L50 60L50 50L40 50M90 50L90 60L100 60L100 50L90 50M90 70L90 90L100 90L100 70L90 70M0 80L0 100L30 100L30 90L10 90L10 80L0 80M60 90L60 100L70 100L70 90L60 90z"/>
</svg>
