<?xml version="1.0" standalone="yes"?>
<svg xmlns="http://www.w3.org/2000/svg" width="100" height="100">
<path style="fill:#000000; stroke:none;" d="M0 0L0 10L10 10L10 60L0 60L0 90L10 90L10 100L50 100L50 90L60 90L60 100L90 100L90 90L100 90L100 60L90 60L90 50L100 50L100 10L90 10L90 0L80 0L80 10L70 10L70 0L20 0L20 10L10 10L10 0L0 0z"/>
<path style="fill:#ffffff; stroke:none;" d="M10 0L10 10L20 10L20 0L10 0M70 0L70 10L80 10L80 0L70 0M90 0L90 10L100 10L100 0L90 0M0 10L0 60L10 60L10 10L0 10M20 20L20 80L80 80L80 20L20 20z"/>
<path style="fill:#000000; stroke:none;" d="M40 30L40 40L50 40L50 50L40 50L40 60L30 60L30 70L60 70L60 50L70 50L70 40L60 40L60 30L40 30z"/>
<path style="fill:#ffffff; stroke:none;" d="M90 50L90 60L100 60L100 50L90 50M0 90L0 100L10 100L10 90L0 90M50 90L50 100L60 100L60 90L50 90M90 90L90 100L100 100L100 90L90 90z"/>
</svg>
