<?xml version="1.0" standalone="yes"?>
<svg xmlns="http://www.w3.org/2000/svg" width="100" height="100">
<path style="fill:#000000; stroke:none;" d="M0 0L0 20L10 20L10 70L0 70L0 80L10 80L10 100L20 100L20 90L40 90L40 100L50 100L50 90L70 90L70 100L80 100L80 90L90 90L90 100L100 100L100 80L90 80L90 50L100 50L100 40L90 40L90 0L70 0L70 10L50 10L50 0L40 0L40 10L30 10L30 0L20 0L20 10L10 10L10 0L0 0z"/>
<path style="fill:#ffffff; stroke:none;" d="M10 0L10 10L20 10L20 0L10 0M30 0L30 10L40 10L40 0L30 0M50 0L50 10L70 10L70 0L50 0M90 0L90 40L100 40L100 0L90 0M0 20L0 70L10 70L10 20L0 20M20 20L20 80L80 80L80 20L20 20z"/>
<path style="fill:#000000; stroke:none;" d="M40 30L40 40L50 40L50 30L40 30M60 30L60 40L70 40L70 30L60 30z"/>
<path style="fill:#ffffff; stroke:none;" d="M90 50L90 80L100 80L100 50L90 50z"/>
<path style="fill:#000000; stroke:none;" d="M30 60L30 70L50 70L50 60L30 60z"/>
<path style="fill:#ffffff; stroke:none;" d="M0 80L0 100L10 100L10 80L0 80M20 90L20 100L40 100L40 90L20 90M50 90L50 100L70 100L70 90L50 90M80 90L80 100L90 100L90 90L80 90z"/>
</svg>
