<?xml version="1.0" standalone="yes"?>
<svg xmlns="http://www.w3.org/2000/svg" width="100" height="100">
<path style="fill:#ffffff; stroke:none;" d="M0 0L0 10L90 10L90 0L0 0z"/>
<path style="fill:#000000; stroke:none;" d="M90 0L90 10L0 10L0 40L10 40L10 50L0 50L0 60L10 60L10 80L0 80L0 90L10 90L10 100L30 100L30 90L40 90L40 100L50 100L50 90L80 90L80 100L100 100L100 80L90 80L90 60L100 60L100 40L90 40L90 20L100 20L100 0L90 0z"/>
<path style="fill:#ffffff; stroke:none;" d="M20 20L20 80L80 80L80 20L20 20M90 20L90 40L100 40L100 20L90 20z"/>
<path style="fill:#000000; stroke:none;" d="M40 30L40 40L30 40L30 50L40 50L40 60L30 60L30 70L40 70L40 60L50 60L50 70L70 70L70 60L50 60L50 30L40 30M60 30L60 40L70 40L70 30L60 30z"/>
<path style="fill:#ffffff; stroke:none;" d="M0 40L0 50L10 50L10 40L0 40M0 60L0 80L10 80L10 60L0 60M90 60L90 80L100 80L100 60L90 60M0 90L0 100L10 100L10 90L0 90M30 90L30 100L40 100L40 90L30 90M50 90L50 100L80 100L80 90L50 90z"/>
</svg>
