<?xml version="1.0" standalone="yes"?>
<svg xmlns="http://www.w3.org/2000/svg" width="100" height="100">
<path style="fill:#000000; stroke:none;" d="M0 0L0 40L10 40L10 70L0 70L0 80L10 80L10 90L0 90L0 100L20 100L20 90L40 90L40 100L100 100L100 90L90 90L90 60L100 60L100 50L90 50L90 20L100 20L100 10L80 10L80 0L50 0L50 10L40 10L40 0L0 0z"/>
<path style="fill:#ffffff; stroke:none;" d="M40 0L40 10L50 10L50 0L40 0M80 0L80 10L100 10L100 0L80 0M20 20L20 80L80 80L80 20L20 20M90 20L90 50L100 50L100 20L90 20z"/>
<path style="fill:#000000; stroke:none;" d="M40 30L40 60L30 60L30 70L50 70L50 50L60 50L60 60L70 60L70 50L60 50L60 40L70 40L70 30L60 30L60 40L50 40L50 30L40 30z"/>
<path style="fill:#ffffff; stroke:none;" d="M0 40L0 70L10 70L10 40L0 40M90 60L90 90L100 90L100 60L90 60M0 80L0 90L10 90L10 80L0 80M20 90L20 100L40 100L40 90L20 90z"/>
</svg>
