<?xml version="1.0" standalone="yes"?>
<svg xmlns="http://www.w3.org/2000/svg" width="100" height="100">
<path style="fill:#000000; stroke:none;" d="M0 0L0 40L10 40L10 50L0 50L0 90L10 90L10 100L30 100L30 90L40 90L40 100L90 100L90 80L100 80L100 60L90 60L90 50L100 50L100 20L90 20L90 10L70 10L70 0L60 0L60 10L50 10L50 0L20 0L20 10L10 10L10 0L0 0z"/>
<path style="fill:#ffffff; stroke:none;" d="M10 0L10 10L20 10L20 0L10 0M50 0L50 10L60 10L60 0L50 0M70 0L70 10L90 10L90 20L100 20L100 0L70 0M20 20L20 80L80 80L80 20L20 20z"/>
<path style="fill:#000000; stroke:none;" d="M30 30L30 40L40 40L40 30L30 30M50 30L50 60L60 60L60 70L70 70L70 60L60 60L60 50L70 50L70 30L50 30z"/>
<path style="fill:#ffffff; stroke:none;" d="M0 40L0 50L10 50L10 40L0 40z"/>
<path style="fill:#000000; stroke:none;" d="M30 50L30 60L40 60L40 50L30 50z"/>
<path style="fill:#ffffff; stroke:none;" d="M90 50L90 60L100 60L100 50L90 50M90 80L90 100L100 100L100 80L90 80M0 90L0 100L10 100L10 90L0 90M30 90L30 100L40 100L40 90L30 90z"/>
</svg>
