<?xml version="1.0" standalone="yes"?>
<svg xmlns="http://www.w3.org/2000/svg" width="100" height="100">
<path style="fill:#000000; stroke:none;" d="M0 0L0 10L10 10L10 30L0 30L0 40L10 40L10 70L0 70L0 80L10 80L10 90L20 90L20 100L30 100L30 90L70 90L70 100L90 100L90 80L100 80L100 30L90 30L90 20L100 20L100 10L90 10L90 0L20 0L20 10L10 10L10 0L0 0z"/>
<path style="fill:#ffffff; stroke:none;" d="M10 0L10 10L20 10L20 0L10 0M90 0L90 10L100 10L100 0L90 0M0 10L0 30L10 30L10 10L0 10M20 20L20 80L80 80L80 20L20 20M90 20L90 30L100 30L100 20L90 20z"/>
<path style="fill:#000000; stroke:none;" d="M50 30L50 40L30 40L30 60L40 60L40 70L50 70L50 40L60 40L60 70L70 70L70 30L50 30z"/>
<path style="fill:#ffffff; stroke:none;" d="M0 40L0 70L10 70L10 40L0 40M0 80L0 100L20 100L20 90L10 90L10 80L0 80M90 80L90 100L100 100L100 80L90 80M30 90L30 100L70 100L70 90L30 90z"/>
</svg>
