<?xml version="1.0" standalone="yes"?>
<svg xmlns="http://www.w3.org/2000/svg" width="100" height="100">
<path style="fill:#000000; stroke:none;" d="M0 0L0 30L10 30L10 70L0 70L0 100L20 100L20 90L40 90L40 100L100 100L100 70L90 70L90 60L100 60L100 40L90 40L90 10L100 10L100 0L90 0L90 10L60 10L60 0L50 0L50 10L40 10L40 0L30 0L30 10L10 10L10 0L0 0z"/>
<path style="fill:#ffffff; stroke:none;" d="M10 0L10 10L30 10L30 0L10 0M40 0L40 10L50 10L50 0L40 0M60 0L60 10L90 10L90 0L60 0M90 10L90 40L100 40L100 10L90 10M20 20L20 80L80 80L80 20L20 20M0 30L0 70L10 70L10 30L0 30z"/>
<path style="fill:#000000; stroke:none;" d="M60 30L60 60L70 60L70 30L60 30M30 50L30 70L50 70L50 50L30 50z"/>
<path style="fill:#ffffff; stroke:none;" d="M90 60L90 70L100 70L100 60L90 60M20 90L20 100L40 100L40 90L20 90z"/>
</svg>
