<?xml version="1.0" standalone="yes"?>
<svg xmlns="http://www.w3.org/2000/svg" width="100" height="100">
<path style="fill:#ffffff; stroke:none;" d="M0 0L0 40L10 40L10 10L70 10L70 0L0 0z"/>
<path style="fill:#000000; stroke:none;" d="M70 0L70 10L10 10L10 40L0 40L0 50L10 50L10 80L0 80L0 100L50 100L50 90L60 90L60 100L90 100L90 90L100 90L100 70L90 70L90 60L100 60L100 50L90 50L90 40L100 40L100 30L90 30L90 20L100 20L100 10L80 10L80 0L70 0z"/>
<path style="fill:#ffffff; stroke:none;" d="M80 0L80 10L100 10L100 0L80 0M20 20L20 80L80 80L80 20L20 20M90 20L90 30L100 30L100 20L90 20z"/>
<path style="fill:#000000; stroke:none;" d="M30 30L30 50L60 50L60 60L30 60L30 70L70 70L70 50L60 50L60 40L70 40L70 30L60 30L60 40L50 40L50 30L30 30z"/>
<path style="fill:#ffffff; stroke:none;" d="M90 40L90 50L100 50L100 40L90 40M0 50L0 80L10 80L10 50L0 50M90 60L90 70L100 70L100 60L90 60M50 90L50 100L60 100L60 90L50 90M90 90L90 100L100 100L100 90L90 90z"/>
</svg>
