<?xml version="1.0" standalone="yes"?>
<svg xmlns="http://www.w3.org/2000/svg" width="490" height="690">
<path style="fill:#ffffff; stroke:none;" d="M0 0L0 90L90 90L90 0L0 0z"/>
<path style="fill:#000000; stroke:none;" d="M90 0L90 90L0 90L0 100L90 100L90 190L0 190L0 200L90 200L90 290L0 290L0 300L90 300L90 390L0 390L0 400L90 400L90 490L0 490L0 500L90 500L90 590L0 590L0 600L90 600L90 690L100 690L100 600L190 600L190 690L200 690L200 600L290 600L290 690L300 690L300 600L390 600L390 690L400 690L400 600L490 600L490 590L400 590L400 500L490 500L490 490L400 490L400 400L490 400L490 390L400 390L400 300L490 300L490 290L400 290L400 200L490 200L490 190L400 190L400 100L490 100L490 90L400 90L400 0L390 0L390 90L300 90L300 0L290 0L290 90L200 90L200 0L190 0L190 90L100 90L100 0L90 0z"/>
<path style="fill:#ffffff; stroke:none;" d="M100 0L100 90L190 90L190 0L100 0M200 0L200 90L290 90L290 0L200 0M300 0L300 90L390 90L390 0L300 0M400 0L400 90L490 90L490 0L400 0z"/>
<path style="fill:#000000; stroke:none;" d="M10 10L10 80L80 80L80 10L10 10M110 10L110 80L180 80L180 10L110 10M210 10L210 80L280 80L280 10L210 10M310 10L310 80L380 80L380 10L310 10M410 10L410 80L480 80L480 10L410 10z"/>
<path style="fill:#ffffff; stroke:none;" d="M20 20L20 30L30 30L30 40L20 40L20 70L30 70L30 60L60 60L60 70L70 70L70 50L60 50L60 40L70 40L70 20L60 20L60 30L50 30L50 20L40 20L40 30L30 30L30 20L20 20M120 20L120 30L130 30L130 40L120 40L120 50L130 50L130 60L120 60L120 70L130 70L130 60L140 60L140 70L160 70L160 60L170 60L170 50L160 50L160 60L150 60L150 40L140 40L140 30L160 30L160 40L170 40L170 30L160 30L160 20L120 20M220 20L220 40L230 40L230 20L220 20M240 20L240 40L250 40L250 60L270 60L270 50L260 50L260 30L270 30L270 20L240 20M320 20L320 50L330 50L330 70L350 70L350 60L360 60L360 70L370 70L370 60L360 60L360 40L370 40L370 30L360 30L360 20L320 20M420 20L420 40L440 40L440 60L430 60L430 70L460 70L460 50L470 50L470 40L460 40L460 50L450 50L450 30L460 30L460 20L450 20L450 30L430 30L430 20L420 20z"/>
<path style="fill:#000000; stroke:none;" d="M40 30L40 40L30 40L30 50L50 50L50 30L40 30M330 30L330 50L350 50L350 40L360 40L360 30L350 30L350 40L340 40L340 30L330 30M130 40L130 50L140 50L140 40L130 40z"/>
<path style="fill:#ffffff; stroke:none;" d="M220 50L220 60L230 60L230 70L240 70L240 50L220 50M0 100L0 190L90 190L90 100L0 100M100 100L100 190L190 190L190 100L100 100M200 100L200 190L290 190L290 100L200 100M300 100L300 190L390 190L390 100L300 100M400 100L400 190L490 190L490 100L400 100z"/>
<path style="fill:#000000; stroke:none;" d="M10 110L10 180L80 180L80 110L10 110M110 110L110 180L180 180L180 110L110 110M210 110L210 180L280 180L280 110L210 110M310 110L310 180L380 180L380 110L310 110M410 110L410 180L480 180L480 110L410 110z"/>
<path style="fill:#ffffff; stroke:none;" d="M50 120L50 150L40 150L40 160L20 160L20 170L40 170L40 160L50 160L50 170L70 170L70 150L60 150L60 130L70 130L70 120L50 120M140 120L140 130L130 130L130 140L120 140L120 160L140 160L140 170L160 170L160 160L170 160L170 140L160 140L160 130L170 130L170 120L140 120M220 120L220 130L230 130L230 140L220 140L220 150L230 150L230 170L240 170L240 160L250 160L250 170L270 170L270 140L250 140L250 130L230 130L230 120L220 120M320 120L320 140L330 140L330 150L320 150L320 160L330 160L330 150L340 150L340 170L370 170L370 150L340 150L340 140L350 140L350 130L360 130L360 140L370 140L370 120L350 120L350 130L340 130L340 120L320 120M430 120L430 130L420 130L420 140L430 140L430 150L420 150L420 160L430 160L430 170L440 170L440 160L450 160L450 150L440 150L440 140L450 140L450 120L430 120M460 120L460 150L470 150L470 120L460 120M30 130L30 140L20 140L20 150L30 150L30 140L40 140L40 130L30 130z"/>
<path style="fill:#000000; stroke:none;" d="M330 130L330 140L340 140L340 130L330 130M130 140L130 150L140 150L140 140L130 140M150 140L150 150L160 150L160 140L150 140M230 140L230 150L240 150L240 140L230 140M50 150L50 160L60 160L60 150L50 150M250 150L250 160L260 160L260 150L250 150M430 150L430 160L440 160L440 150L430 150z"/>
<path style="fill:#ffffff; stroke:none;" d="M0 200L0 290L90 290L90 200L0 200M100 200L100 290L190 290L190 200L100 200M200 200L200 290L290 290L290 200L200 200M300 200L300 290L390 290L390 200L300 200M400 200L400 290L490 290L490 200L400 200z"/>
<path style="fill:#000000; stroke:none;" d="M10 210L10 280L80 280L80 210L10 210M110 210L110 280L180 280L180 210L110 210M210 210L210 280L280 280L280 210L210 210M310 210L310 280L380 280L380 210L310 210M410 210L410 280L480 280L480 210L410 210z"/>
<path style="fill:#ffffff; stroke:none;" d="M30 220L30 230L40 230L40 220L30 220M140 220L140 230L150 230L150 240L130 240L130 250L120 250L120 260L130 260L130 250L150 250L150 260L160 260L160 270L170 270L170 260L160 260L160 250L150 250L150 240L170 240L170 220L160 220L160 230L150 230L150 220L140 220M230 220L230 230L220 230L220 250L230 250L230 230L240 230L240 240L250 240L250 250L240 250L240 260L230 260L230 270L260 270L260 260L270 260L270 250L260 250L260 240L270 240L270 220L260 220L260 230L250 230L250 220L230 220M320 220L320 230L330 230L330 240L340 240L340 230L350 230L350 250L370 250L370 240L360 240L360 220L320 220M420 220L420 240L430 240L430 220L420 220M440 220L440 230L450 230L450 220L440 220M460 220L460 230L470 230L470 220L460 220M50 230L50 240L40 240L40 250L30 250L30 240L20 240L20 250L30 250L30 260L40 260L40 270L70 270L70 250L60 250L60 240L70 240L70 230L50 230M440 240L440 250L430 250L430 260L420 260L420 270L430 270L430 260L450 260L450 270L460 270L460 240L440 240z"/>
<path style="fill:#000000; stroke:none;" d="M40 250L40 260L60 260L60 250L40 250M250 250L250 260L260 260L260 250L250 250z"/>
<path style="fill:#ffffff; stroke:none;" d="M320 250L320 270L340 270L340 260L330 260L330 250L320 250M360 260L360 270L370 270L370 260L360 260M0 300L0 390L90 390L90 300L0 300M100 300L100 390L190 390L190 300L100 300M200 300L200 390L290 390L290 300L200 300M300 300L300 390L390 390L390 300L300 300M400 300L400 390L490 390L490 300L400 300z"/>
<path style="fill:#000000; stroke:none;" d="M10 310L10 380L80 380L80 310L10 310M110 310L110 380L180 380L180 310L110 310M210 310L210 380L280 380L280 310L210 310M310 310L310 380L380 380L380 310L310 310M410 310L410 380L480 380L480 310L410 310z"/>
<path style="fill:#ffffff; stroke:none;" d="M20 320L20 340L40 340L40 330L50 330L50 340L70 340L70 330L60 330L60 320L40 320L40 330L30 330L30 320L20 320M120 320L120 330L130 330L130 320L120 320M140 320L140 340L120 340L120 350L140 350L140 340L170 340L170 330L160 330L160 320L140 320M230 320L230 330L220 330L220 340L240 340L240 350L220 350L220 360L250 360L250 350L260 350L260 340L270 340L270 320L260 320L260 330L250 330L250 340L240 340L240 320L230 320M320 320L320 330L330 330L330 320L320 320M340 320L340 340L320 340L320 360L330 360L330 350L340 350L340 370L350 370L350 360L360 360L360 350L370 350L370 320L340 320M430 320L430 330L420 330L420 340L430 340L430 350L420 350L420 360L430 360L430 370L440 370L440 360L430 360L430 350L460 350L460 340L450 340L450 330L460 330L460 320L450 320L450 330L440 330L440 320L430 320z"/>
<path style="fill:#000000; stroke:none;" d="M340 340L340 350L350 350L350 340L340 340z"/>
<path style="fill:#ffffff; stroke:none;" d="M20 350L20 360L30 360L30 350L20 350M40 350L40 360L50 360L50 370L60 370L60 360L50 360L50 350L40 350M160 350L160 370L170 370L170 350L160 350M120 360L120 370L130 370L130 360L120 360M140 360L140 370L150 370L150 360L140 360M260 360L260 370L270 370L270 360L260 360M460 360L460 370L470 370L470 360L460 360M0 400L0 490L90 490L90 400L0 400M100 400L100 490L190 490L190 400L100 400M200 400L200 490L290 490L290 400L200 400M300 400L300 490L390 490L390 400L300 400M400 400L400 490L490 490L490 400L400 400z"/>
<path style="fill:#000000; stroke:none;" d="M10 410L10 480L80 480L80 410L10 410M110 410L110 480L180 480L180 410L110 410M210 410L210 480L280 480L280 410L210 410M310 410L310 480L380 480L380 410L310 410M410 410L410 480L480 480L480 410L410 410z"/>
<path style="fill:#ffffff; stroke:none;" d="M40 420L40 430L20 430L20 450L50 450L50 460L60 460L60 470L70 470L70 460L60 460L60 450L70 450L70 440L60 440L60 430L70 430L70 420L60 420L60 430L50 430L50 420L40 420M120 420L120 430L140 430L140 420L120 420M150 420L150 440L130 440L130 450L120 450L120 470L150 470L150 460L170 460L170 440L160 440L160 420L150 420M230 420L230 430L220 430L220 440L240 440L240 450L230 450L230 460L240 460L240 450L250 450L250 470L260 470L260 460L270 460L270 420L260 420L260 450L250 450L250 440L240 440L240 430L250 430L250 420L230 420M320 420L320 430L340 430L340 420L320 420M420 420L420 430L440 430L440 450L450 450L450 440L460 440L460 460L470 460L470 440L460 440L460 430L450 430L450 420L420 420z"/>
<path style="fill:#000000; stroke:none;" d="M150 440L150 450L160 450L160 440L150 440z"/>
<path style="fill:#ffffff; stroke:none;" d="M330 440L330 450L320 450L320 460L330 460L330 450L340 450L340 440L330 440M350 440L350 460L340 460L340 470L350 470L350 460L360 460L360 470L370 470L370 460L360 460L360 450L370 450L370 440L350 440M420 440L420 450L430 450L430 440L420 440M20 460L20 470L30 470L30 460L20 460M430 460L430 470L450 470L450 460L430 460M0 500L0 590L90 590L90 500L0 500M100 500L100 590L190 590L190 500L100 500M200 500L200 590L290 590L290 500L200 500M300 500L300 590L390 590L390 500L300 500M400 500L400 590L490 590L490 500L400 500z"/>
<path style="fill:#000000; stroke:none;" d="M10 510L10 580L80 580L80 510L10 510M110 510L110 580L180 580L180 510L110 510M210 510L210 580L280 580L280 510L210 510M310 510L310 580L380 580L380 510L310 510M410 510L410 580L480 580L480 510L410 510z"/>
<path style="fill:#ffffff; stroke:none;" d="M30 520L30 540L50 540L50 550L20 550L20 560L40 560L40 570L50 570L50 550L60 550L60 560L70 560L70 540L60 540L60 530L40 530L40 520L30 520M130 520L130 530L140 530L140 520L130 520M160 520L160 530L150 530L150 540L160 540L160 550L170 550L170 540L160 540L160 530L170 530L170 520L160 520M220 520L220 530L230 530L230 540L250 540L250 530L260 530L260 550L240 550L240 560L270 560L270 530L260 530L260 520L240 520L240 530L230 530L230 520L220 520M330 520L330 530L320 530L320 560L330 560L330 550L340 550L340 570L350 570L350 540L330 540L330 530L350 530L350 520L330 520M430 520L430 530L440 530L440 540L430 540L430 550L420 550L420 570L440 570L440 560L450 560L450 570L470 570L470 540L460 540L460 530L440 530L440 520L430 520M360 530L360 540L370 540L370 530L360 530M120 540L120 560L130 560L130 570L140 570L140 550L130 550L130 540L120 540M360 550L360 570L370 570L370 550L360 550z"/>
<path style="fill:#000000; stroke:none;" d="M430 550L430 560L440 560L440 550L430 550M450 550L450 560L460 560L460 550L450 550z"/>
<path style="fill:#ffffff; stroke:none;" d="M160 560L160 570L170 570L170 560L160 560M220 560L220 570L230 570L230 560L220 560M0 600L0 690L90 690L90 600L0 600M100 600L100 690L190 690L190 600L100 600M200 600L200 690L290 690L290 600L200 600M300 600L300 690L390 690L390 600L300 600M400 600L400 690L490 690L490 600L400 600z"/>
<path style="fill:#000000; stroke:none;" d="M10 610L10 680L80 680L80 610L10 610M110 610L110 680L180 680L180 610L110 610M210 610L210 680L280 680L280 610L210 610M310 610L310 680L380 680L380 610L310 610M410 610L410 680L480 680L480 610L410 610z"/>
<path style="fill:#ffffff; stroke:none;" d="M40 620L40 630L50 630L50 640L30 640L30 630L20 630L20 650L30 650L30 660L20 660L20 670L70 670L70 650L50 650L50 640L60 640L60 630L70 630L70 620L60 620L60 630L50 630L50 620L40 620M120 620L120 650L130 650L130 640L140 640L140 650L150 650L150 660L160 660L160 650L150 650L150 640L140 640L140 630L130 630L130 620L120 620M150 620L150 630L160 630L160 640L170 640L170 620L150 620M230 620L230 630L220 630L220 640L230 640L230 630L240 630L240 640L250 640L250 650L240 650L240 660L260 660L260 670L270 670L270 660L260 660L260 640L250 640L250 630L270 630L270 620L230 620M320 620L320 630L330 630L330 640L320 640L320 670L330 670L330 660L350 660L350 650L340 650L340 640L360 640L360 630L370 630L370 620L350 620L350 630L340 630L340 620L320 620M430 620L430 630L420 630L420 640L430 640L430 630L440 630L440 620L430 620M450 620L450 640L440 640L440 650L430 650L430 670L460 670L460 650L450 650L450 640L470 640L470 620L450 620z"/>
<path style="fill:#000000; stroke:none;" d="M40 650L40 660L50 660L50 650L40 650z"/>
<path style="fill:#ffffff; stroke:none;" d="M220 650L220 670L230 670L230 650L220 650M360 650L360 660L370 660L370 650L360 650M120 660L120 670L130 670L130 660L120 660z"/>
</svg>
