<?xml version="1.0" standalone="yes"?>
<svg xmlns="http://www.w3.org/2000/svg" width="90" height="90">
<path style="fill:#ffffff; stroke:none;" d="M0 0L0 90L90 90L90 0L0 0z"/>
<path style="fill:#000000; stroke:none;" d="M10 10L10 80L80 80L80 10L10 10z"/>
<path style="fill:#ffffff; stroke:none;" d="M30 20L30 30L40 30L40 20L30 20M60 20L60 30L50 30L50 40L60 40L60 50L70 50L70 40L60 40L60 30L70 30L70 20L60 20M20 40L20 60L30 60L30 70L40 70L40 50L30 50L30 40L20 40M60 60L60 70L70 70L70 60L60 60z"/>
</svg>
