<?xml version="1.0" standalone="yes"?>
<svg xmlns="http://www.w3.org/2000/svg" width="100" height="100">
<path style="fill:#ffffff; stroke:none;" d="M0 0L0 20L10 20L10 0L0 0z"/>
<path style="fill:#000000; stroke:none;" d="M10 0L10 20L0 20L0 60L10 60L10 70L0 70L0 80L10 80L10 90L30 90L30 100L70 100L70 90L80 90L80 100L100 100L100 90L90 90L90 70L100 70L100 30L90 30L90 20L100 20L100 10L90 10L90 0L60 0L60 10L50 10L50 0L40 0L40 10L30 10L30 0L10 0z"/>
<path style="fill:#ffffff; stroke:none;" d="M30 0L30 10L40 10L40 0L30 0M50 0L50 10L60 10L60 0L50 0M90 0L90 10L100 10L100 0L90 0M20 20L20 80L80 80L80 20L20 20M90 20L90 30L100 30L100 20L90 20z"/>
<path style="fill:#000000; stroke:none;" d="M30 30L30 70L60 70L60 30L50 30L50 40L40 40L40 30L30 30z"/>
<path style="fill:#ffffff; stroke:none;" d="M0 60L0 70L10 70L10 60L0 60M90 70L90 90L100 90L100 70L90 70M0 80L0 100L30 100L30 90L10 90L10 80L0 80M70 90L70 100L80 100L80 90L70 90z"/>
</svg>
