<?xml version="1.0" standalone="yes"?>
<svg xmlns="http://www.w3.org/2000/svg" width="100" height="100">
<path style="fill:#000000; stroke:none;" d="M0 0L0 10L10 10L10 20L0 20L0 60L10 60L10 90L0 90L0 100L10 100L10 90L30 90L30 100L40 100L40 90L60 90L60 100L80 100L80 90L90 90L90 80L100 80L100 50L90 50L90 30L100 30L100 10L50 10L50 0L30 0L30 10L10 10L10 0L0 0z"/>
<path style="fill:#ffffff; stroke:none;" d="M10 0L10 10L30 10L30 0L10 0M50 0L50 10L100 10L100 0L50 0M0 10L0 20L10 20L10 10L0 10M20 20L20 80L80 80L80 20L20 20z"/>
<path style="fill:#000000; stroke:none;" d="M50 30L50 40L40 40L40 50L30 50L30 60L40 60L40 70L50 70L50 60L60 60L60 50L70 50L70 30L50 30z"/>
<path style="fill:#ffffff; stroke:none;" d="M90 30L90 50L100 50L100 30L90 30M0 60L0 90L10 90L10 60L0 60M90 80L90 90L80 90L80 100L100 100L100 80L90 80M10 90L10 100L30 100L30 90L10 90M40 90L40 100L60 100L60 90L40 90z"/>
</svg>
