<?xml version="1.0" standalone="yes"?>
<svg xmlns="http://www.w3.org/2000/svg" width="100" height="100">
<path style="fill:#ffffff; stroke:none;" d="M0 0L0 30L10 30L10 10L20 10L20 0L0 0z"/>
<path style="fill:#000000; stroke:none;" d="M20 0L20 10L10 10L10 30L0 30L0 40L10 40L10 50L0 50L0 80L10 80L10 90L0 90L0 100L10 100L10 90L50 90L50 100L60 100L60 90L90 90L90 100L100 100L100 80L90 80L90 60L100 60L100 50L90 50L90 10L100 10L100 0L80 0L80 10L60 10L60 0L50 0L50 10L40 10L40 0L20 0z"/>
<path style="fill:#ffffff; stroke:none;" d="M40 0L40 10L50 10L50 0L40 0M60 0L60 10L80 10L80 0L60 0M90 10L90 50L100 50L100 10L90 10M20 20L20 80L80 80L80 20L20 20z"/>
<path style="fill:#000000; stroke:none;" d="M50 30L50 40L40 40L40 50L30 50L30 70L50 70L50 60L60 60L60 70L70 70L70 60L60 60L60 50L70 50L70 30L50 30z"/>
<path style="fill:#ffffff; stroke:none;" d="M0 40L0 50L10 50L10 40L0 40M90 60L90 80L100 80L100 60L90 60M0 80L0 90L10 90L10 80L0 80M10 90L10 100L50 100L50 90L10 90M60 90L60 100L90 100L90 90L60 90z"/>
</svg>
