<?xml version="1.0" standalone="yes"?>
<svg xmlns="http://www.w3.org/2000/svg" width="100" height="100">
<path style="fill:#ffffff; stroke:none;" d="M0 0L0 30L10 30L10 10L20 10L20 0L0 0z"/>
<path style="fill:#000000; stroke:none;" d="M20 0L20 10L10 10L10 30L0 30L0 40L10 40L10 90L20 90L20 100L30 100L30 90L40 90L40 100L50 100L50 90L70 90L70 100L80 100L80 90L100 90L100 70L90 70L90 60L100 60L100 50L90 50L90 40L100 40L100 30L90 30L90 0L80 0L80 10L60 10L60 0L40 0L40 10L30 10L30 0L20 0z"/>
<path style="fill:#ffffff; stroke:none;" d="M30 0L30 10L40 10L40 0L30 0M60 0L60 10L80 10L80 0L60 0M90 0L90 30L100 30L100 0L90 0M20 20L20 80L80 80L80 20L20 20z"/>
<path style="fill:#000000; stroke:none;" d="M40 30L40 50L30 50L30 60L50 60L50 70L70 70L70 60L60 60L60 50L70 50L70 30L40 30z"/>
<path style="fill:#ffffff; stroke:none;" d="M0 40L0 100L20 100L20 90L10 90L10 40L0 40M90 40L90 50L100 50L100 40L90 40M90 60L90 70L100 70L100 60L90 60M30 90L30 100L40 100L40 90L30 90M50 90L50 100L70 100L70 90L50 90M80 90L80 100L100 100L100 90L80 90z"/>
</svg>
