<?xml version="1.0" standalone="yes"?>
<svg xmlns="http://www.w3.org/2000/svg" width="100" height="100">
<path style="fill:#000000; stroke:none;" d="M0 0L0 50L10 50L10 60L0 60L0 70L10 70L10 90L50 90L50 100L70 100L70 90L80 90L80 100L100 100L100 80L90 80L90 30L100 30L100 10L30 10L30 0L20 0L20 10L10 10L10 0L0 0z"/>
<path style="fill:#ffffff; stroke:none;" d="M10 0L10 10L20 10L20 0L10 0M30 0L30 10L100 10L100 0L30 0M20 20L20 80L80 80L80 20L20 20z"/>
<path style="fill:#000000; stroke:none;" d="M40 30L40 60L60 60L60 50L70 50L70 30L60 30L60 40L50 40L50 30L40 30z"/>
<path style="fill:#ffffff; stroke:none;" d="M90 30L90 80L100 80L100 30L90 30M0 50L0 60L10 60L10 50L0 50M0 70L0 100L50 100L50 90L10 90L10 70L0 70M70 90L70 100L80 100L80 90L70 90z"/>
</svg>
