<?xml version="1.0" standalone="yes"?>
<svg xmlns="http://www.w3.org/2000/svg" width="100" height="100">
<path style="fill:#ffffff; stroke:none;" d="M0 0L0 10L80 10L80 0L0 0z"/>
<path style="fill:#000000; stroke:none;" d="M80 0L80 10L0 10L0 60L10 60L10 70L0 70L0 100L10 100L10 90L20 90L20 100L40 100L40 90L60 90L60 100L70 100L70 90L90 90L90 100L100 100L100 50L90 50L90 20L100 20L100 0L80 0z"/>
<path style="fill:#ffffff; stroke:none;" d="M20 20L20 80L80 80L80 20L20 20M90 20L90 50L100 50L100 20L90 20z"/>
<path style="fill:#000000; stroke:none;" d="M40 30L40 60L30 60L30 70L50 70L50 60L70 60L70 50L60 50L60 40L70 40L70 30L40 30z"/>
<path style="fill:#ffffff; stroke:none;" d="M0 60L0 70L10 70L10 60L0 60M10 90L10 100L20 100L20 90L10 90M40 90L40 100L60 100L60 90L40 90M70 90L70 100L90 100L90 90L70 90z"/>
</svg>
