<?xml version="1.0" standalone="yes"?>
<svg xmlns="http://www.w3.org/2000/svg" width="100" height="100">
<path style="fill:#ffffff; stroke:none;" d="M0 0L0 30L10 30L10 0L0 0z"/>
<path style="fill:#000000; stroke:none;" d="M10 0L10 30L0 30L0 40L10 40L10 50L0 50L0 70L10 70L10 90L0 90L0 100L10 100L10 90L20 90L20 100L90 100L90 90L100 90L100 70L90 70L90 60L100 60L100 0L80 0L80 10L70 10L70 0L60 0L60 10L20 10L20 0L10 0z"/>
<path style="fill:#ffffff; stroke:none;" d="M20 0L20 10L60 10L60 0L20 0M70 0L70 10L80 10L80 0L70 0M20 20L20 80L80 80L80 20L20 20z"/>
<path style="fill:#000000; stroke:none;" d="M40 30L40 40L30 40L30 70L40 70L40 60L60 60L60 70L70 70L70 30L40 30z"/>
<path style="fill:#ffffff; stroke:none;" d="M0 40L0 50L10 50L10 40L0 40M90 60L90 70L100 70L100 60L90 60M0 70L0 90L10 90L10 70L0 70M10 90L10 100L20 100L20 90L10 90M90 90L90 100L100 100L100 90L90 90z"/>
</svg>
