<?xml version="1.0" standalone="yes"?>
<svg xmlns="http://www.w3.org/2000/svg" width="100" height="100">
<path style="fill:#000000; stroke:none;" d="M0 0L0 10L10 10L10 20L0 20L0 40L10 40L10 80L0 80L0 90L10 90L10 100L30 100L30 90L50 90L50 100L80 100L80 90L90 90L90 80L100 80L100 20L90 20L90 10L60 10L60 0L50 0L50 10L20 10L20 0L0 0z"/>
<path style="fill:#ffffff; stroke:none;" d="M20 0L20 10L50 10L50 0L20 0M60 0L60 10L90 10L90 20L100 20L100 0L60 0M0 10L0 20L10 20L10 10L0 10M20 20L20 80L80 80L80 20L20 20z"/>
<path style="fill:#000000; stroke:none;" d="M30 30L30 40L40 40L40 60L50 60L50 70L70 70L70 60L60 60L60 40L70 40L70 30L60 30L60 40L40 40L40 30L30 30z"/>
<path style="fill:#ffffff; stroke:none;" d="M0 40L0 80L10 80L10 40L0 40M90 80L90 90L80 90L80 100L100 100L100 80L90 80M0 90L0 100L10 100L10 90L0 90M30 90L30 100L50 100L50 90L30 90z"/>
</svg>
