<?xml version="1.0" standalone="yes"?>
<svg xmlns="http://www.w3.org/2000/svg" width="100" height="100">
<path style="fill:#ffffff; stroke:none;" d="M0 0L0 10L10 10L10 0L0 0z"/>
<path style="fill:#000000; stroke:none;" d="M10 0L10 10L0 10L0 30L10 30L10 60L0 60L0 80L10 80L10 90L0 90L0 100L10 100L10 90L40 90L40 100L50 100L50 90L80 90L80 100L90 100L90 90L100 90L100 70L90 70L90 60L100 60L100 50L90 50L90 40L100 40L100 0L90 0L90 10L80 10L80 0L60 0L60 10L50 10L50 0L10 0z"/>
<path style="fill:#ffffff; stroke:none;" d="M50 0L50 10L60 10L60 0L50 0M80 0L80 10L90 10L90 0L80 0M20 20L20 80L80 80L80 20L20 20M0 30L0 60L10 60L10 30L0 30z"/>
<path style="fill:#000000; stroke:none;" d="M50 30L50 40L30 40L30 50L40 50L40 60L30 60L30 70L60 70L60 60L70 60L70 40L60 40L60 30L50 30z"/>
<path style="fill:#ffffff; stroke:none;" d="M90 40L90 50L100 50L100 40L90 40M90 60L90 70L100 70L100 60L90 60M0 80L0 90L10 90L10 80L0 80M10 90L10 100L40 100L40 90L10 90M50 90L50 100L80 100L80 90L50 90M90 90L90 100L100 100L100 90L90 90z"/>
</svg>
