<?xml version="1.0" standalone="yes"?>
<svg xmlns="http://www.w3.org/2000/svg" width="100" height="100">
<path style="fill:#000000; stroke:none;" d="M0 0L0 10L10 10L10 40L0 40L0 50L10 50L10 70L0 70L0 80L10 80L10 90L60 90L60 100L100 100L100 90L90 90L90 50L100 50L100 0L90 0L90 10L70 10L70 0L50 0L50 10L30 10L30 0L0 0z"/>
<path style="fill:#ffffff; stroke:none;" d="M30 0L30 10L50 10L50 0L30 0M70 0L70 10L90 10L90 0L70 0M0 10L0 40L10 40L10 10L0 10M20 20L20 80L80 80L80 20L20 20z"/>
<path style="fill:#000000; stroke:none;" d="M30 30L30 70L40 70L40 60L50 60L50 70L60 70L60 50L70 50L70 40L60 40L60 30L50 30L50 40L40 40L40 30L30 30z"/>
<path style="fill:#ffffff; stroke:none;" d="M0 50L0 70L10 70L10 50L0 50M90 50L90 90L100 90L100 50L90 50M0 80L0 100L60 100L60 90L10 90L10 80L0 80z"/>
</svg>
