<?xml version="1.0" standalone="yes"?>
<svg xmlns="http://www.w3.org/2000/svg" width="100" height="100">
<path style="fill:#ffffff; stroke:none;" d="M0 0L0 10L20 10L20 0L0 0z"/>
<path style="fill:#000000; stroke:none;" d="M20 0L20 10L0 10L0 20L10 20L10 30L0 30L0 100L40 100L40 90L60 90L60 100L70 100L70 90L90 90L90 100L100 100L100 90L90 90L90 80L100 80L100 60L90 60L90 50L100 50L100 20L90 20L90 10L100 10L100 0L80 0L80 10L70 10L70 0L60 0L60 10L30 10L30 0L20 0z"/>
<path style="fill:#ffffff; stroke:none;" d="M30 0L30 10L60 10L60 0L30 0M70 0L70 10L80 10L80 0L70 0M90 10L90 20L100 20L100 10L90 10M0 20L0 30L10 30L10 20L0 20M20 20L20 80L80 80L80 20L20 20z"/>
<path style="fill:#000000; stroke:none;" d="M30 30L30 40L40 40L40 70L60 70L60 40L70 40L70 30L50 30L50 40L40 40L40 30L30 30z"/>
<path style="fill:#ffffff; stroke:none;" d="M90 50L90 60L100 60L100 50L90 50M90 80L90 90L100 90L100 80L90 80M40 90L40 100L60 100L60 90L40 90M70 90L70 100L90 100L90 90L70 90z"/>
</svg>
