<?xml version="1.0" standalone="yes"?>
<svg xmlns="http://www.w3.org/2000/svg" width="100" height="100">
<path style="fill:#000000; stroke:none;" d="M0 0L0 10L10 10L10 30L0 30L0 40L10 40L10 60L0 60L0 70L10 70L10 80L0 80L0 100L10 100L10 90L40 90L40 100L60 100L60 90L70 90L70 100L90 100L90 90L100 90L100 80L90 80L90 50L100 50L100 20L90 20L90 0L80 0L80 10L70 10L70 0L40 0L40 10L20 10L20 0L0 0z"/>
<path style="fill:#ffffff; stroke:none;" d="M20 0L20 10L40 10L40 0L20 0M70 0L70 10L80 10L80 0L70 0M90 0L90 20L100 20L100 0L90 0M0 10L0 30L10 30L10 10L0 10M20 20L20 80L80 80L80 20L20 20z"/>
<path style="fill:#000000; stroke:none;" d="M30 30L30 60L40 60L40 70L50 70L50 60L70 60L70 50L60 50L60 30L30 30z"/>
<path style="fill:#ffffff; stroke:none;" d="M0 40L0 60L10 60L10 40L0 40M90 50L90 80L100 80L100 50L90 50M0 70L0 80L10 80L10 70L0 70M10 90L10 100L40 100L40 90L10 90M60 90L60 100L70 100L70 90L60 90M90 90L90 100L100 100L100 90L90 90z"/>
</svg>
