<?xml version="1.0" standalone="yes"?>
<svg xmlns="http://www.w3.org/2000/svg" width="100" height="100">
<path style="fill:#000000; stroke:none;" d="M0 0L0 30L10 30L10 40L0 40L0 50L10 50L10 60L0 60L0 70L10 70L10 90L0 90L0 100L40 100L40 90L50 90L50 100L60 100L60 90L90 90L90 100L100 100L100 90L90 90L90 50L100 50L100 40L90 40L90 30L100 30L100 0L50 0L50 10L30 10L30 0L0 0z"/>
<path style="fill:#ffffff; stroke:none;" d="M30 0L30 10L50 10L50 0L30 0M20 20L20 80L80 80L80 20L20 20M0 30L0 40L10 40L10 30L0 30z"/>
<path style="fill:#000000; stroke:none;" d="M30 30L30 60L40 60L40 70L70 70L70 60L60 60L60 50L70 50L70 40L50 40L50 30L30 30z"/>
<path style="fill:#ffffff; stroke:none;" d="M90 30L90 40L100 40L100 30L90 30M0 50L0 60L10 60L10 50L0 50M90 50L90 90L100 90L100 50L90 50M0 70L0 90L10 90L10 70L0 70M40 90L40 100L50 100L50 90L40 90M60 90L60 100L90 100L90 90L60 90z"/>
</svg>
