<?xml version="1.0" standalone="yes"?>
<svg xmlns="http://www.w3.org/2000/svg" width="100" height="100">
<path style="fill:#000000; stroke:none;" d="M0 0L0 10L10 10L10 20L0 20L0 40L10 40L10 90L0 90L0 100L10 100L10 90L30 90L30 100L40 100L40 90L50 90L50 100L60 100L60 90L90 90L90 100L100 100L100 0L40 0L40 10L10 10L10 0L0 0z"/>
<path style="fill:#ffffff; stroke:none;" d="M10 0L10 10L40 10L40 0L10 0M0 10L0 20L10 20L10 10L0 10M20 20L20 80L80 80L80 20L20 20z"/>
<path style="fill:#000000; stroke:none;" d="M60 30L60 40L40 40L40 60L30 60L30 70L50 70L50 60L60 60L60 70L70 70L70 60L60 60L60 40L70 40L70 30L60 30z"/>
<path style="fill:#ffffff; stroke:none;" d="M0 40L0 90L10 90L10 40L0 40M10 90L10 100L30 100L30 90L10 90M40 90L40 100L50 100L50 90L40 90M60 90L60 100L90 100L90 90L60 90z"/>
</svg>
