<?xml version="1.0" standalone="yes"?>
<svg xmlns="http://www.w3.org/2000/svg" width="100" height="100">
<path style="fill:#000000; stroke:none;" d="M0 0L0 10L10 10L10 30L0 30L0 40L10 40L10 90L0 90L0 100L10 100L10 90L20 90L20 100L40 100L40 90L60 90L60 100L80 100L80 90L90 90L90 100L100 100L100 90L90 90L90 60L100 60L100 50L90 50L90 40L100 40L100 10L90 10L90 0L40 0L40 10L10 10L10 0L0 0z"/>
<path style="fill:#ffffff; stroke:none;" d="M10 0L10 10L40 10L40 0L10 0M90 0L90 10L100 10L100 0L90 0M0 10L0 30L10 30L10 10L0 10M20 20L20 80L80 80L80 20L20 20z"/>
<path style="fill:#000000; stroke:none;" d="M30 30L30 70L40 70L40 60L60 60L60 40L40 40L40 30L30 30z"/>
<path style="fill:#ffffff; stroke:none;" d="M0 40L0 90L10 90L10 40L0 40M90 40L90 50L100 50L100 40L90 40M90 60L90 90L100 90L100 60L90 60M10 90L10 100L20 100L20 90L10 90M40 90L40 100L60 100L60 90L40 90M80 90L80 100L90 100L90 90L80 90z"/>
</svg>
