<?xml version="1.0" standalone="yes"?>
<svg xmlns="http://www.w3.org/2000/svg" width="100" height="100">
<path style="fill:#000000; stroke:none;" d="M0 0L0 10L10 10L10 20L0 20L0 30L10 30L10 70L0 70L0 80L10 80L10 90L0 90L0 100L30 100L30 90L40 90L40 100L50 100L50 90L60 90L60 100L80 100L80 90L100 90L100 80L90 80L90 70L100 70L100 60L90 60L90 30L100 30L100 20L90 20L90 0L60 0L60 10L40 10L40 0L30 0L30 10L20 10L20 0L0 0z"/>
<path style="fill:#ffffff; stroke:none;" d="M20 0L20 10L30 10L30 0L20 0M40 0L40 10L60 10L60 0L40 0M90 0L90 20L100 20L100 0L90 0M0 10L0 20L10 20L10 10L0 10M20 20L20 80L80 80L80 20L20 20M0 30L0 70L10 70L10 30L0 30z"/>
<path style="fill:#000000; stroke:none;" d="M30 30L30 70L40 70L40 60L50 60L50 70L60 70L60 60L70 60L70 50L60 50L60 40L40 40L40 30L30 30z"/>
<path style="fill:#ffffff; stroke:none;" d="M90 30L90 60L100 60L100 30L90 30M90 70L90 80L100 80L100 70L90 70M0 80L0 90L10 90L10 80L0 80M30 90L30 100L40 100L40 90L30 90M50 90L50 100L60 100L60 90L50 90M80 90L80 100L100 100L100 90L80 90z"/>
</svg>
