<?xml version="1.0" standalone="yes"?>
<svg xmlns="http://www.w3.org/2000/svg" width="100" height="100">
<path style="fill:#ffffff; stroke:none;" d="M0 0L0 100L40 100L40 90L10 90L10 10L20 10L20 0L0 0z"/>
<path style="fill:#000000; stroke:none;" d="M20 0L20 10L10 10L10 90L40 90L40 100L50 100L50 90L70 90L70 100L100 100L100 90L90 90L90 60L100 60L100 50L90 50L90 30L100 30L100 20L90 20L90 10L100 10L100 0L70 0L70 10L60 10L60 0L20 0z"/>
<path style="fill:#ffffff; stroke:none;" d="M60 0L60 10L70 10L70 0L60 0M90 10L90 20L100 20L100 10L90 10M20 20L20 80L80 80L80 20L20 20M90 30L90 50L100 50L100 30L90 30z"/>
<path style="fill:#000000; stroke:none;" d="M30 40L30 60L50 60L50 70L60 70L60 60L70 60L70 50L60 50L60 40L30 40z"/>
<path style="fill:#ffffff; stroke:none;" d="M90 60L90 90L100 90L100 60L90 60M50 90L50 100L70 100L70 90L50 90z"/>
</svg>
