<?xml version="1.0" standalone="yes"?>
<svg xmlns="http://www.w3.org/2000/svg" width="100" height="100">
<path style="fill:#000000; stroke:none;" d="M0 0L0 10L10 10L10 20L0 20L0 60L10 60L10 70L0 70L0 80L10 80L10 90L20 90L20 100L40 100L40 90L50 90L50 100L60 100L60 90L90 90L90 100L100 100L100 50L90 50L90 10L70 10L70 0L60 0L60 10L50 10L50 0L30 0L30 10L20 10L20 0L0 0z"/>
<path style="fill:#ffffff; stroke:none;" d="M20 0L20 10L30 10L30 0L20 0M50 0L50 10L60 10L60 0L50 0M70 0L70 10L90 10L90 50L100 50L100 0L70 0M0 10L0 20L10 20L10 10L0 10M20 20L20 80L80 80L80 20L20 20z"/>
<path style="fill:#000000; stroke:none;" d="M30 30L30 60L50 60L50 70L60 70L60 50L70 50L70 40L60 40L60 30L30 30z"/>
<path style="fill:#ffffff; stroke:none;" d="M0 60L0 70L10 70L10 60L0 60M0 80L0 100L20 100L20 90L10 90L10 80L0 80M40 90L40 100L50 100L50 90L40 90M60 90L60 100L90 100L90 90L60 90z"/>
</svg>
