<?xml version="1.0" standalone="yes"?>
<svg xmlns="http://www.w3.org/2000/svg" width="100" height="100">
<path style="fill:#ffffff; stroke:none;" d="M0 0L0 60L10 60L10 10L30 10L30 0L0 0z"/>
<path style="fill:#000000; stroke:none;" d="M30 0L30 10L10 10L10 60L0 60L0 70L10 70L10 90L40 90L40 100L80 100L80 90L90 90L90 100L100 100L100 90L90 90L90 80L100 80L100 60L90 60L90 10L100 10L100 0L90 0L90 10L40 10L40 0L30 0z"/>
<path style="fill:#ffffff; stroke:none;" d="M40 0L40 10L90 10L90 0L40 0M90 10L90 60L100 60L100 10L90 10M20 20L20 80L80 80L80 20L20 20z"/>
<path style="fill:#000000; stroke:none;" d="M30 30L30 40L40 40L40 50L30 50L30 70L40 70L40 60L50 60L50 70L70 70L70 30L60 30L60 40L50 40L50 30L30 30z"/>
<path style="fill:#ffffff; stroke:none;" d="M0 70L0 100L40 100L40 90L10 90L10 70L0 70M90 80L90 90L100 90L100 80L90 80M80 90L80 100L90 100L90 90L80 90z"/>
</svg>
