<?xml version="1.0" standalone="yes"?>
<svg xmlns="http://www.w3.org/2000/svg" width="100" height="100">
<path style="fill:#000000; stroke:none;" d="M0 0L0 40L10 40L10 50L0 50L0 70L10 70L10 90L0 90L0 100L20 100L20 90L90 90L90 100L100 100L100 90L90 90L90 70L100 70L100 50L90 50L90 40L100 40L100 30L90 30L90 0L70 0L70 10L60 10L60 0L50 0L50 10L40 10L40 0L0 0z"/>
<path style="fill:#ffffff; stroke:none;" d="M40 0L40 10L50 10L50 0L40 0M60 0L60 10L70 10L70 0L60 0M90 0L90 30L100 30L100 0L90 0M20 20L20 80L80 80L80 20L20 20z"/>
<path style="fill:#000000; stroke:none;" d="M60 30L60 40L30 40L30 70L50 70L50 60L60 60L60 70L70 70L70 50L60 50L60 40L70 40L70 30L60 30z"/>
<path style="fill:#ffffff; stroke:none;" d="M0 40L0 50L10 50L10 40L0 40M90 40L90 50L100 50L100 40L90 40M0 70L0 90L10 90L10 70L0 70M90 70L90 90L100 90L100 70L90 70M20 90L20 100L90 100L90 90L20 90z"/>
</svg>
