<?xml version="1.0" standalone="yes"?>
<svg xmlns="http://www.w3.org/2000/svg" width="100" height="100">
<path style="fill:#ffffff; stroke:none;" d="M0 0L0 50L10 50L10 0L0 0z"/>
<path style="fill:#000000; stroke:none;" d="M10 0L10 50L0 50L0 70L10 70L10 90L0 90L0 100L30 100L30 90L70 90L70 100L100 100L100 90L90 90L90 70L100 70L100 50L90 50L90 10L70 10L70 0L60 0L60 10L40 10L40 0L10 0z"/>
<path style="fill:#ffffff; stroke:none;" d="M40 0L40 10L60 10L60 0L40 0M70 0L70 10L90 10L90 50L100 50L100 0L70 0M20 20L20 80L80 80L80 20L20 20z"/>
<path style="fill:#000000; stroke:none;" d="M30 30L30 50L40 50L40 60L30 60L30 70L40 70L40 60L50 60L50 70L70 70L70 50L60 50L60 40L70 40L70 30L30 30z"/>
<path style="fill:#ffffff; stroke:none;" d="M0 70L0 90L10 90L10 70L0 70M90 70L90 90L100 90L100 70L90 70M30 90L30 100L70 100L70 90L30 90z"/>
</svg>
