<?xml version="1.0" standalone="yes"?>
<svg xmlns="http://www.w3.org/2000/svg" width="100" height="100">
<path style="fill:#000000; stroke:none;" d="M0 0L0 10L10 10L10 20L0 20L0 60L10 60L10 90L0 90L0 100L10 100L10 90L30 90L30 100L50 100L50 90L80 90L80 100L100 100L100 40L90 40L90 30L100 30L100 20L90 20L90 10L100 10L100 0L80 0L80 10L10 10L10 0L0 0z"/>
<path style="fill:#ffffff; stroke:none;" d="M10 0L10 10L80 10L80 0L10 0M0 10L0 20L10 20L10 10L0 10M90 10L90 20L100 20L100 10L90 10M20 20L20 80L80 80L80 20L20 20z"/>
<path style="fill:#000000; stroke:none;" d="M40 30L40 40L30 40L30 70L40 70L40 60L60 60L60 40L70 40L70 30L60 30L60 40L50 40L50 30L40 30z"/>
<path style="fill:#ffffff; stroke:none;" d="M90 30L90 40L100 40L100 30L90 30M0 60L0 90L10 90L10 60L0 60M10 90L10 100L30 100L30 90L10 90M50 90L50 100L80 100L80 90L50 90z"/>
</svg>
