<?xml version="1.0" standalone="yes"?>
<svg xmlns="http://www.w3.org/2000/svg" width="100" height="100">
<path style="fill:#ffffff; stroke:none;" d="M0 0L0 10L10 10L10 0L0 0z"/>
<path style="fill:#000000; stroke:none;" d="M10 0L10 10L0 10L0 30L10 30L10 50L0 50L0 60L10 60L10 70L0 70L0 100L10 100L10 90L40 90L40 100L70 100L70 90L90 90L90 100L100 100L100 90L90 90L90 70L100 70L100 60L90 60L90 40L100 40L100 30L90 30L90 10L100 10L100 0L70 0L70 10L60 10L60 0L10 0z"/>
<path style="fill:#ffffff; stroke:none;" d="M60 0L60 10L70 10L70 0L60 0M90 10L90 30L100 30L100 10L90 10M20 20L20 80L80 80L80 20L20 20M0 30L0 50L10 50L10 30L0 30z"/>
<path style="fill:#000000; stroke:none;" d="M30 30L30 40L40 40L40 60L60 60L60 70L70 70L70 50L60 50L60 40L40 40L40 30L30 30z"/>
<path style="fill:#ffffff; stroke:none;" d="M90 40L90 60L100 60L100 40L90 40M0 60L0 70L10 70L10 60L0 60M90 70L90 90L100 90L100 70L90 70M10 90L10 100L40 100L40 90L10 90M70 90L70 100L90 100L90 90L70 90z"/>
</svg>
