<?xml version="1.0" standalone="yes"?>
<svg xmlns="http://www.w3.org/2000/svg" width="100" height="100">
<path style="fill:#000000; stroke:none;" d="M0 0L0 10L10 10L10 20L0 20L0 30L10 30L10 40L0 40L0 60L10 60L10 70L0 70L0 100L50 100L50 90L80 90L80 100L90 100L90 90L100 90L100 80L90 80L90 70L100 70L100 20L90 20L90 10L70 10L70 0L0 0z"/>
<path style="fill:#ffffff; stroke:none;" d="M70 0L70 10L90 10L90 20L100 20L100 0L70 0M0 10L0 20L10 20L10 10L0 10M20 20L20 80L80 80L80 20L20 20M0 30L0 40L10 40L10 30L0 30z"/>
<path style="fill:#000000; stroke:none;" d="M30 30L30 70L70 70L70 50L60 50L60 40L70 40L70 30L60 30L60 40L40 40L40 30L30 30z"/>
<path style="fill:#ffffff; stroke:none;" d="M0 60L0 70L10 70L10 60L0 60M90 70L90 80L100 80L100 70L90 70M50 90L50 100L80 100L80 90L50 90M90 90L90 100L100 100L100 90L90 90z"/>
</svg>
