<?xml version="1.0" standalone="yes"?>
<svg xmlns="http://www.w3.org/2000/svg" width="100" height="100">
<path style="fill:#000000; stroke:none;" d="M0 0L0 50L10 50L10 70L0 70L0 100L20 100L20 90L50 90L50 100L90 100L90 90L100 90L100 80L90 80L90 60L100 60L100 50L90 50L90 40L100 40L100 30L90 30L90 20L100 20L100 0L90 0L90 10L80 10L80 0L70 0L70 10L30 10L30 0L0 0z"/>
<path style="fill:#ffffff; stroke:none;" d="M30 0L30 10L70 10L70 0L30 0M80 0L80 10L90 10L90 0L80 0M20 20L20 80L80 80L80 20L20 20M90 20L90 30L100 30L100 20L90 20z"/>
<path style="fill:#000000; stroke:none;" d="M30 30L30 40L40 40L40 50L30 50L30 60L40 60L40 70L70 70L70 60L60 60L60 30L30 30z"/>
<path style="fill:#ffffff; stroke:none;" d="M90 40L90 50L100 50L100 40L90 40M0 50L0 70L10 70L10 50L0 50M90 60L90 80L100 80L100 60L90 60M20 90L20 100L50 100L50 90L20 90M90 90L90 100L100 100L100 90L90 90z"/>
</svg>
