<?xml version="1.0" standalone="yes"?>
<svg xmlns="http://www.w3.org/2000/svg" width="100" height="100">
<path style="fill:#ffffff; stroke:none;" d="M0 0L0 80L10 80L10 10L40 10L40 0L0 0z"/>
<path style="fill:#000000; stroke:none;" d="M40 0L40 10L10 10L10 80L0 80L0 100L10 100L10 90L90 90L90 80L100 80L100 50L90 50L90 20L100 20L100 0L80 0L80 10L70 10L70 0L40 0z"/>
<path style="fill:#ffffff; stroke:none;" d="M70 0L70 10L80 10L80 0L70 0M20 20L20 80L80 80L80 20L20 20M90 20L90 50L100 50L100 20L90 20z"/>
<path style="fill:#000000; stroke:none;" d="M40 30L40 70L60 70L60 60L70 60L70 30L40 30z"/>
<path style="fill:#ffffff; stroke:none;" d="M90 80L90 90L10 90L10 100L100 100L100 80L90 80z"/>
</svg>
