<?xml version="1.0" standalone="yes"?>
<svg xmlns="http://www.w3.org/2000/svg" width="100" height="100">
<path style="fill:#ffffff; stroke:none;" d="M0 0L0 40L10 40L10 10L40 10L40 0L0 0z"/>
<path style="fill:#000000; stroke:none;" d="M40 0L40 10L10 10L10 40L0 40L0 50L10 50L10 70L0 70L0 100L20 100L20 90L30 90L30 100L50 100L50 90L70 90L70 100L90 100L90 90L100 90L100 70L90 70L90 50L100 50L100 40L90 40L90 20L100 20L100 0L40 0z"/>
<path style="fill:#ffffff; stroke:none;" d="M20 20L20 80L80 80L80 20L20 20M90 20L90 40L100 40L100 20L90 20z"/>
<path style="fill:#000000; stroke:none;" d="M60 30L60 40L40 40L40 50L30 50L30 70L60 70L60 60L70 60L70 30L60 30z"/>
<path style="fill:#ffffff; stroke:none;" d="M0 50L0 70L10 70L10 50L0 50M90 50L90 70L100 70L100 50L90 50M20 90L20 100L30 100L30 90L20 90M50 90L50 100L70 100L70 90L50 90M90 90L90 100L100 100L100 90L90 90z"/>
</svg>
