<?xml version="1.0" standalone="yes"?>
<svg xmlns="http://www.w3.org/2000/svg" width="100" height="100">
<path style="fill:#000000; stroke:none;" d="M0 0L0 10L10 10L10 30L0 30L0 40L10 40L10 50L0 50L0 60L10 60L10 70L0 70L0 80L10 80L10 90L0 90L0 100L10 100L10 90L20 90L20 100L30 100L30 90L50 90L50 100L100 100L100 60L90 60L90 40L100 40L100 10L80 10L80 0L40 0L40 10L30 10L30 0L20 0L20 10L10 10L10 0L0 0z"/>
<path style="fill:#ffffff; stroke:none;" d="M10 0L10 10L20 10L20 0L10 0M30 0L30 10L40 10L40 0L30 0M80 0L80 10L100 10L100 0L80 0M0 10L0 30L10 30L10 10L0 10M20 20L20 80L80 80L80 20L20 20z"/>
<path style="fill:#000000; stroke:none;" d="M50 30L50 40L30 40L30 50L40 50L40 60L30 60L30 70L50 70L50 60L70 60L70 30L50 30z"/>
<path style="fill:#ffffff; stroke:none;" d="M0 40L0 50L10 50L10 40L0 40M90 40L90 60L100 60L100 40L90 40M0 60L0 70L10 70L10 60L0 60M0 80L0 90L10 90L10 80L0 80M10 90L10 100L20 100L20 90L10 90M30 90L30 100L50 100L50 90L30 90z"/>
</svg>
