<?xml version="1.0" standalone="yes"?>
<svg xmlns="http://www.w3.org/2000/svg" width="100" height="100">
<path style="fill:#ffffff; stroke:none;" d="M0 0L0 10L50 10L50 0L0 0z"/>
<path style="fill:#000000; stroke:none;" d="M50 0L50 10L0 10L0 40L10 40L10 80L0 80L0 100L10 100L10 90L20 90L20 100L70 100L70 90L90 90L90 100L100 100L100 60L90 60L90 50L100 50L100 40L90 40L90 30L100 30L100 10L70 10L70 0L50 0z"/>
<path style="fill:#ffffff; stroke:none;" d="M70 0L70 10L100 10L100 0L70 0M20 20L20 80L80 80L80 20L20 20z"/>
<path style="fill:#000000; stroke:none;" d="M50 30L50 40L30 40L30 50L40 50L40 60L50 60L50 70L60 70L60 50L70 50L70 40L60 40L60 30L50 30z"/>
<path style="fill:#ffffff; stroke:none;" d="M90 30L90 40L100 40L100 30L90 30M0 40L0 80L10 80L10 40L0 40M90 50L90 60L100 60L100 50L90 50M10 90L10 100L20 100L20 90L10 90M70 90L70 100L90 100L90 90L70 90z"/>
</svg>
