<?xml version="1.0" standalone="yes"?>
<svg xmlns="http://www.w3.org/2000/svg" width="100" height="100">
<path style="fill:#000000; stroke:none;" d="M0 0L0 10L10 10L10 40L0 40L0 90L30 90L30 100L50 100L50 90L60 90L60 100L70 100L70 90L90 90L90 100L100 100L100 90L90 90L90 70L100 70L100 60L90 60L90 30L100 30L100 0L70 0L70 10L40 10L40 0L20 0L20 10L10 10L10 0L0 0z"/>
<path style="fill:#ffffff; stroke:none;" d="M10 0L10 10L20 10L20 0L10 0M40 0L40 10L70 10L70 0L40 0M0 10L0 40L10 40L10 10L0 10M20 20L20 80L80 80L80 20L20 20z"/>
<path style="fill:#000000; stroke:none;" d="M60 30L60 40L30 40L30 50L40 50L40 60L30 60L30 70L40 70L40 60L60 60L60 40L70 40L70 30L60 30z"/>
<path style="fill:#ffffff; stroke:none;" d="M90 30L90 60L100 60L100 30L90 30M90 70L90 90L100 90L100 70L90 70M0 90L0 100L30 100L30 90L0 90M50 90L50 100L60 100L60 90L50 90M70 90L70 100L90 100L90 90L70 90z"/>
</svg>
