<?xml version="1.0" standalone="yes"?>
<svg xmlns="http://www.w3.org/2000/svg" width="100" height="100">
<path style="fill:#ffffff; stroke:none;" d="M0 0L0 10L90 10L90 30L100 30L100 0L0 0z"/>
<path style="fill:#000000; stroke:none;" d="M0 10L0 40L10 40L10 70L0 70L0 80L10 80L10 100L20 100L20 90L40 90L40 100L80 100L80 90L90 90L90 100L100 100L100 80L90 80L90 70L100 70L100 30L90 30L90 10L0 10z"/>
<path style="fill:#ffffff; stroke:none;" d="M20 20L20 80L80 80L80 20L20 20z"/>
<path style="fill:#000000; stroke:none;" d="M40 30L40 40L30 40L30 60L40 60L40 70L70 70L70 40L50 40L50 30L40 30z"/>
<path style="fill:#ffffff; stroke:none;" d="M0 40L0 70L10 70L10 40L0 40M90 70L90 80L100 80L100 70L90 70M0 80L0 100L10 100L10 80L0 80M20 90L20 100L40 100L40 90L20 90M80 90L80 100L90 100L90 90L80 90z"/>
</svg>
