<?xml version="1.0" standalone="yes"?>
<svg xmlns="http://www.w3.org/2000/svg" width="100" height="100">
<path style="fill:#ffffff; stroke:none;" d="M0 0L0 50L10 50L10 10L90 10L90 50L100 50L100 0L0 0z"/>
<path style="fill:#000000; stroke:none;" d="M10 10L10 50L0 50L0 70L10 70L10 80L0 80L0 90L60 90L60 100L100 100L100 90L90 90L90 70L100 70L100 50L90 50L90 10L10 10z"/>
<path style="fill:#ffffff; stroke:none;" d="M20 20L20 80L80 80L80 20L20 20z"/>
<path style="fill:#000000; stroke:none;" d="M30 30L30 40L40 40L40 60L30 60L30 70L70 70L70 40L50 40L50 30L30 30z"/>
<path style="fill:#ffffff; stroke:none;" d="M0 70L0 80L10 80L10 70L0 70M90 70L90 90L100 90L100 70L90 70M0 90L0 100L60 100L60 90L0 90z"/>
</svg>
