<?xml version="1.0" standalone="yes"?>
<svg xmlns="http://www.w3.org/2000/svg" width="100" height="100">
<path style="fill:#000000; stroke:none;" d="M0 0L0 10L10 10L10 30L0 30L0 40L10 40L10 70L0 70L0 90L10 90L10 100L40 100L40 90L50 90L50 100L70 100L70 90L90 90L90 100L100 100L100 80L90 80L90 70L100 70L100 60L90 60L90 50L100 50L100 40L90 40L90 10L100 10L100 0L90 0L90 10L80 10L80 0L60 0L60 10L20 10L20 0L0 0z"/>
<path style="fill:#ffffff; stroke:none;" d="M20 0L20 10L60 10L60 0L20 0M80 0L80 10L90 10L90 0L80 0M0 10L0 30L10 30L10 10L0 10M90 10L90 40L100 40L100 10L90 10M20 20L20 80L80 80L80 20L20 20z"/>
<path style="fill:#000000; stroke:none;" d="M30 30L30 70L70 70L70 60L60 60L60 40L70 40L70 30L30 30z"/>
<path style="fill:#ffffff; stroke:none;" d="M0 40L0 70L10 70L10 40L0 40M90 50L90 60L100 60L100 50L90 50M90 70L90 80L100 80L100 70L90 70M0 90L0 100L10 100L10 90L0 90M40 90L40 100L50 100L50 90L40 90M70 90L70 100L90 100L90 90L70 90z"/>
</svg>
