<?xml version="1.0" standalone="yes"?>
<svg xmlns="http://www.w3.org/2000/svg" width="100" height="100">
<path style="fill:#ffffff; stroke:none;" d="M0 0L0 20L10 20L10 0L0 0z"/>
<path style="fill:#000000; stroke:none;" d="M10 0L10 20L0 20L0 40L10 40L10 50L0 50L0 70L10 70L10 90L0 90L0 100L30 100L30 90L40 90L40 100L80 100L80 90L100 90L100 80L90 80L90 60L100 60L100 40L90 40L90 10L100 10L100 0L80 0L80 10L70 10L70 0L40 0L40 10L20 10L20 0L10 0z"/>
<path style="fill:#ffffff; stroke:none;" d="M20 0L20 10L40 10L40 0L20 0M70 0L70 10L80 10L80 0L70 0M90 10L90 40L100 40L100 10L90 10M20 20L20 80L80 80L80 20L20 20M0 40L0 50L10 50L10 40L0 40z"/>
<path style="fill:#000000; stroke:none;" d="M40 40L40 60L30 60L30 70L40 70L40 60L70 60L70 40L40 40z"/>
<path style="fill:#ffffff; stroke:none;" d="M90 60L90 80L100 80L100 60L90 60M0 70L0 90L10 90L10 70L0 70M30 90L30 100L40 100L40 90L30 90M80 90L80 100L100 100L100 90L80 90z"/>
</svg>
