<?xml version="1.0" standalone="yes"?>
<svg xmlns="http://www.w3.org/2000/svg" width="100" height="100">
<path style="fill:#000000; stroke:none;" d="M0 0L0 40L10 40L10 50L0 50L0 70L10 70L10 80L0 80L0 90L60 90L60 100L80 100L80 90L90 90L90 70L100 70L100 50L90 50L90 20L100 20L100 0L80 0L80 10L30 10L30 0L0 0z"/>
<path style="fill:#ffffff; stroke:none;" d="M30 0L30 10L80 10L80 0L30 0M20 20L20 80L80 80L80 20L20 20M90 20L90 50L100 50L100 20L90 20z"/>
<path style="fill:#000000; stroke:none;" d="M30 30L30 50L40 50L40 60L30 60L30 70L40 70L40 60L50 60L50 70L60 70L60 60L70 60L70 30L60 30L60 40L40 40L40 30L30 30z"/>
<path style="fill:#ffffff; stroke:none;" d="M0 40L0 50L10 50L10 40L0 40M0 70L0 80L10 80L10 70L0 70M90 70L90 90L80 90L80 100L100 100L100 70L90 70M0 90L0 100L60 100L60 90L0 90z"/>
</svg>
