<?xml version="1.0" standalone="yes"?>
<svg xmlns="http://www.w3.org/2000/svg" width="100" height="100">
<path style="fill:#ffffff; stroke:none;" d="M0 0L0 50L10 50L10 10L40 10L40 0L0 0z"/>
<path style="fill:#000000; stroke:none;" d="M40 0L40 10L10 10L10 50L0 50L0 100L10 100L10 90L30 90L30 100L50 100L50 90L60 90L60 100L100 100L100 90L90 90L90 80L100 80L100 70L90 70L90 0L80 0L80 10L50 10L50 0L40 0z"/>
<path style="fill:#ffffff; stroke:none;" d="M50 0L50 10L80 10L80 0L50 0M90 0L90 70L100 70L100 0L90 0M20 20L20 80L80 80L80 20L20 20z"/>
<path style="fill:#000000; stroke:none;" d="M40 30L40 50L30 50L30 60L40 60L40 70L50 70L50 60L60 60L60 50L70 50L70 30L60 30L60 40L50 40L50 30L40 30z"/>
<path style="fill:#ffffff; stroke:none;" d="M90 80L90 90L100 90L100 80L90 80M10 90L10 100L30 100L30 90L10 90M50 90L50 100L60 100L60 90L50 90z"/>
</svg>
