<?xml version="1.0" standalone="yes"?>
<svg xmlns="http://www.w3.org/2000/svg" width="100" height="100">
<path style="fill:#000000; stroke:none;" d="M0 0L0 30L10 30L10 40L0 40L0 50L10 50L10 90L0 90L0 100L20 100L20 90L30 90L30 100L50 100L50 90L60 90L60 100L70 100L70 90L80 90L80 100L100 100L100 90L90 90L90 70L100 70L100 40L90 40L90 30L100 30L100 0L90 0L90 10L70 10L70 0L30 0L30 10L20 10L20 0L0 0z"/>
<path style="fill:#ffffff; stroke:none;" d="M20 0L20 10L30 10L30 0L20 0M70 0L70 10L90 10L90 0L70 0M20 20L20 80L80 80L80 20L20 20M0 30L0 40L10 40L10 30L0 30z"/>
<path style="fill:#000000; stroke:none;" d="M50 30L50 40L40 40L40 50L30 50L30 60L40 60L40 70L60 70L60 40L70 40L70 30L50 30z"/>
<path style="fill:#ffffff; stroke:none;" d="M90 30L90 40L100 40L100 30L90 30M0 50L0 90L10 90L10 50L0 50M90 70L90 90L100 90L100 70L90 70M20 90L20 100L30 100L30 90L20 90M50 90L50 100L60 100L60 90L50 90M70 90L70 100L80 100L80 90L70 90z"/>
</svg>
