<?xml version="1.0" standalone="yes"?>
<svg xmlns="http://www.w3.org/2000/svg" width="100" height="100">
<path style="fill:#000000; stroke:none;" d="M0 0L0 10L10 10L10 50L0 50L0 60L10 60L10 70L0 70L0 80L10 80L10 100L20 100L20 90L30 90L30 100L50 100L50 90L70 90L70 100L100 100L100 70L90 70L90 20L100 20L100 10L30 10L30 0L20 0L20 10L10 10L10 0L0 0z"/>
<path style="fill:#ffffff; stroke:none;" d="M10 0L10 10L20 10L20 0L10 0M30 0L30 10L100 10L100 0L30 0M0 10L0 50L10 50L10 10L0 10M20 20L20 80L80 80L80 20L20 20M90 20L90 70L100 70L100 20L90 20z"/>
<path style="fill:#000000; stroke:none;" d="M30 30L30 50L40 50L40 60L30 60L30 70L40 70L40 60L50 60L50 70L60 70L60 50L70 50L70 40L60 40L60 30L50 30L50 40L40 40L40 30L30 30z"/>
<path style="fill:#ffffff; stroke:none;" d="M0 60L0 70L10 70L10 60L0 60M0 80L0 100L10 100L10 80L0 80M20 90L20 100L30 100L30 90L20 90M50 90L50 100L70 100L70 90L50 90z"/>
</svg>
