<?xml version="1.0" standalone="yes"?>
<svg xmlns="http://www.w3.org/2000/svg" width="100" height="100">
<path style="fill:#ffffff; stroke:none;" d="M0 0L0 10L70 10L70 0L0 0z"/>
<path style="fill:#000000; stroke:none;" d="M70 0L70 10L0 10L0 20L10 20L10 50L0 50L0 80L10 80L10 90L0 90L0 100L10 100L10 90L40 90L40 100L50 100L50 90L80 90L80 100L100 100L100 90L90 90L90 70L100 70L100 50L90 50L90 40L100 40L100 20L90 20L90 10L80 10L80 0L70 0z"/>
<path style="fill:#ffffff; stroke:none;" d="M80 0L80 10L90 10L90 20L100 20L100 0L80 0M0 20L0 50L10 50L10 20L0 20M20 20L20 80L80 80L80 20L20 20z"/>
<path style="fill:#000000; stroke:none;" d="M60 30L60 40L40 40L40 50L30 50L30 60L40 60L40 70L50 70L50 60L60 60L60 50L70 50L70 30L60 30z"/>
<path style="fill:#ffffff; stroke:none;" d="M90 40L90 50L100 50L100 40L90 40M90 70L90 90L100 90L100 70L90 70M0 80L0 90L10 90L10 80L0 80M10 90L10 100L40 100L40 90L10 90M50 90L50 100L80 100L80 90L50 90z"/>
</svg>
