<?xml version="1.0" standalone="yes"?>
<svg xmlns="http://www.w3.org/2000/svg" width="100" height="100">
<path style="fill:#000000; stroke:none;" d="M0 0L0 10L10 10L10 40L0 40L0 50L10 50L10 90L20 90L20 100L50 100L50 90L80 90L80 100L100 100L100 70L90 70L90 60L100 60L100 30L90 30L90 20L100 20L100 10L10 10L10 0L0 0z"/>
<path style="fill:#ffffff; stroke:none;" d="M10 0L10 10L100 10L100 0L10 0M0 10L0 40L10 40L10 10L0 10M20 20L20 80L80 80L80 20L20 20M90 20L90 30L100 30L100 20L90 20z"/>
<path style="fill:#000000; stroke:none;" d="M30 30L30 70L60 70L60 50L70 50L70 30L30 30z"/>
<path style="fill:#ffffff; stroke:none;" d="M0 50L0 100L20 100L20 90L10 90L10 50L0 50M90 60L90 70L100 70L100 60L90 60M50 90L50 100L80 100L80 90L50 90z"/>
</svg>
