<?xml version="1.0" standalone="yes"?>
<svg xmlns="http://www.w3.org/2000/svg" width="100" height="100">
<path style="fill:#ffffff; stroke:none;" d="M0 0L0 20L10 20L10 10L40 10L40 0L0 0z"/>
<path style="fill:#000000; stroke:none;" d="M40 0L40 10L10 10L10 20L0 20L0 40L10 40L10 90L0 90L0 100L40 100L40 90L50 90L50 100L60 100L60 90L70 90L70 100L80 100L80 90L90 90L90 70L100 70L100 60L90 60L90 50L100 50L100 40L90 40L90 0L80 0L80 10L70 10L70 0L60 0L60 10L50 10L50 0L40 0z"/>
<path style="fill:#ffffff; stroke:none;" d="M50 0L50 10L60 10L60 0L50 0M70 0L70 10L80 10L80 0L70 0M90 0L90 40L100 40L100 0L90 0M20 20L20 80L80 80L80 20L20 20z"/>
<path style="fill:#000000; stroke:none;" d="M60 30L60 40L40 40L40 50L30 50L30 60L40 60L40 70L50 70L50 60L60 60L60 70L70 70L70 30L60 30z"/>
<path style="fill:#ffffff; stroke:none;" d="M0 40L0 90L10 90L10 40L0 40M90 50L90 60L100 60L100 50L90 50M90 70L90 90L80 90L80 100L100 100L100 70L90 70M40 90L40 100L50 100L50 90L40 90M60 90L60 100L70 100L70 90L60 90z"/>
</svg>
