<?xml version="1.0" standalone="yes"?>
<svg xmlns="http://www.w3.org/2000/svg" width="100" height="100">
<path style="fill:#000000; stroke:none;" d="M0 0L0 40L10 40L10 50L0 50L0 70L10 70L10 80L0 80L0 100L10 100L10 90L30 90L30 100L40 100L40 90L60 90L60 100L100 100L100 90L90 90L90 60L100 60L100 50L90 50L90 30L100 30L100 10L70 10L70 0L60 0L60 10L40 10L40 0L20 0L20 10L10 10L10 0L0 0z"/>
<path style="fill:#ffffff; stroke:none;" d="M10 0L10 10L20 10L20 0L10 0M40 0L40 10L60 10L60 0L40 0M70 0L70 10L100 10L100 0L70 0M20 20L20 80L80 80L80 20L20 20z"/>
<path style="fill:#000000; stroke:none;" d="M30 30L30 40L40 40L40 50L30 50L30 70L40 70L40 60L50 60L50 70L70 70L70 50L60 50L60 30L30 30z"/>
<path style="fill:#ffffff; stroke:none;" d="M90 30L90 50L100 50L100 30L90 30M0 40L0 50L10 50L10 40L0 40M90 60L90 90L100 90L100 60L90 60M0 70L0 80L10 80L10 70L0 70M10 90L10 100L30 100L30 90L10 90M40 90L40 100L60 100L60 90L40 90z"/>
</svg>
