<?xml version="1.0" standalone="yes"?>
<svg xmlns="http://www.w3.org/2000/svg" width="100" height="100">
<path style="fill:#ffffff; stroke:none;" d="M0 0L0 10L20 10L20 0L0 0z"/>
<path style="fill:#000000; stroke:none;" d="M20 0L20 10L0 10L0 30L10 30L10 40L0 40L0 50L10 50L10 70L0 70L0 90L20 90L20 100L30 100L30 90L40 90L40 100L80 100L80 90L100 90L100 80L90 80L90 70L100 70L100 60L90 60L90 50L100 50L100 0L90 0L90 10L60 10L60 0L50 0L50 10L40 10L40 0L20 0z"/>
<path style="fill:#ffffff; stroke:none;" d="M40 0L40 10L50 10L50 0L40 0M60 0L60 10L90 10L90 0L60 0M20 20L20 80L80 80L80 20L20 20M0 30L0 40L10 40L10 30L0 30z"/>
<path style="fill:#000000; stroke:none;" d="M30 30L30 40L40 40L40 60L30 60L30 70L50 70L50 60L70 60L70 50L60 50L60 40L70 40L70 30L30 30z"/>
<path style="fill:#ffffff; stroke:none;" d="M0 50L0 70L10 70L10 50L0 50M90 50L90 60L100 60L100 50L90 50M90 70L90 80L100 80L100 70L90 70M0 90L0 100L20 100L20 90L0 90M30 90L30 100L40 100L40 90L30 90M80 90L80 100L100 100L100 90L80 90z"/>
</svg>
