<?xml version="1.0" standalone="yes"?>
<svg xmlns="http://www.w3.org/2000/svg" width="100" height="100">
<path style="fill:#ffffff; stroke:none;" d="M0 0L0 10L40 10L40 0L0 0z"/>
<path style="fill:#000000; stroke:none;" d="M40 0L40 10L0 10L0 40L10 40L10 100L20 100L20 90L40 90L40 100L90 100L90 90L100 90L100 70L90 70L90 60L100 60L100 50L90 50L90 40L100 40L100 30L90 30L90 10L80 10L80 0L40 0z"/>
<path style="fill:#ffffff; stroke:none;" d="M80 0L80 10L90 10L90 30L100 30L100 0L80 0M20 20L20 80L80 80L80 20L20 20z"/>
<path style="fill:#000000; stroke:none;" d="M40 30L40 40L30 40L30 60L60 60L60 70L70 70L70 60L60 60L60 50L70 50L70 40L60 40L60 30L40 30z"/>
<path style="fill:#ffffff; stroke:none;" d="M0 40L0 100L10 100L10 40L0 40M90 40L90 50L100 50L100 40L90 40M90 60L90 70L100 70L100 60L90 60M20 90L20 100L40 100L40 90L20 90M90 90L90 100L100 100L100 90L90 90z"/>
</svg>
