<?xml version="1.0" standalone="yes"?>
<svg xmlns="http://www.w3.org/2000/svg" width="100" height="100">
<path style="fill:#ffffff; stroke:none;" d="M0 0L0 30L10 30L10 10L40 10L40 0L0 0z"/>
<path style="fill:#000000; stroke:none;" d="M40 0L40 10L10 10L10 30L0 30L0 40L10 40L10 50L0 50L0 70L10 70L10 90L0 90L0 100L10 100L10 90L80 90L80 100L100 100L100 90L90 90L90 50L100 50L100 10L50 10L50 0L40 0z"/>
<path style="fill:#ffffff; stroke:none;" d="M50 0L50 10L100 10L100 0L50 0M20 20L20 80L80 80L80 20L20 20z"/>
<path style="fill:#000000; stroke:none;" d="M40 30L40 50L30 50L30 60L40 60L40 70L60 70L60 60L70 60L70 30L60 30L60 40L50 40L50 30L40 30z"/>
<path style="fill:#ffffff; stroke:none;" d="M0 40L0 50L10 50L10 40L0 40M90 50L90 90L100 90L100 50L90 50M0 70L0 90L10 90L10 70L0 70M10 90L10 100L80 100L80 90L10 90z"/>
</svg>
