<?xml version="1.0" standalone="yes"?>
<svg xmlns="http://www.w3.org/2000/svg" width="100" height="100">
<path style="fill:#ffffff; stroke:none;" d="M0 0L0 10L30 10L30 0L0 0z"/>
<path style="fill:#000000; stroke:none;" d="M30 0L30 10L0 10L0 20L10 20L10 40L0 40L0 70L10 70L10 90L40 90L40 100L80 100L80 90L90 90L90 100L100 100L100 80L90 80L90 50L100 50L100 10L80 10L80 0L70 0L70 10L50 10L50 0L30 0z"/>
<path style="fill:#ffffff; stroke:none;" d="M50 0L50 10L70 10L70 0L50 0M80 0L80 10L100 10L100 0L80 0M0 20L0 40L10 40L10 20L0 20M20 20L20 80L80 80L80 20L20 20z"/>
<path style="fill:#000000; stroke:none;" d="M50 30L50 40L30 40L30 50L40 50L40 70L60 70L60 60L70 60L70 40L60 40L60 30L50 30z"/>
<path style="fill:#ffffff; stroke:none;" d="M90 50L90 80L100 80L100 50L90 50M0 70L0 100L40 100L40 90L10 90L10 70L0 70M80 90L80 100L90 100L90 90L80 90z"/>
</svg>
