<?xml version="1.0" standalone="yes"?>
<svg xmlns="http://www.w3.org/2000/svg" width="100" height="100">
<path style="fill:#ffffff; stroke:none;" d="M0 0L0 10L10 10L10 0L0 0z"/>
<path style="fill:#000000; stroke:none;" d="M10 0L10 10L0 10L0 20L10 20L10 60L0 60L0 70L10 70L10 80L0 80L0 100L10 100L10 90L40 90L40 100L80 100L80 90L90 90L90 100L100 100L100 90L90 90L90 70L100 70L100 10L80 10L80 0L50 0L50 10L30 10L30 0L10 0z"/>
<path style="fill:#ffffff; stroke:none;" d="M30 0L30 10L50 10L50 0L30 0M80 0L80 10L100 10L100 0L80 0M0 20L0 60L10 60L10 20L0 20M20 20L20 80L80 80L80 20L20 20z"/>
<path style="fill:#000000; stroke:none;" d="M30 30L30 50L40 50L40 70L50 70L50 60L60 60L60 70L70 70L70 60L60 60L60 50L70 50L70 30L50 30L50 40L40 40L40 30L30 30z"/>
<path style="fill:#ffffff; stroke:none;" d="M0 70L0 80L10 80L10 70L0 70M90 70L90 90L100 90L100 70L90 70M10 90L10 100L40 100L40 90L10 90M80 90L80 100L90 100L90 90L80 90z"/>
</svg>
