<?xml version="1.0" standalone="yes"?>
<svg xmlns="http://www.w3.org/2000/svg" width="100" height="100">
<path style="fill:#000000; stroke:none;" d="M0 0L0 40L10 40L10 60L0 60L0 70L10 70L10 80L0 80L0 100L10 100L10 90L40 90L40 100L50 100L50 90L100 90L100 80L90 80L90 70L100 70L100 60L90 60L90 40L100 40L100 30L90 30L90 10L70 10L70 0L50 0L50 10L40 10L40 0L30 0L30 10L10 10L10 0L0 0z"/>
<path style="fill:#ffffff; stroke:none;" d="M10 0L10 10L30 10L30 0L10 0M40 0L40 10L50 10L50 0L40 0M70 0L70 10L90 10L90 30L100 30L100 0L70 0M20 20L20 80L80 80L80 20L20 20z"/>
<path style="fill:#000000; stroke:none;" d="M30 30L30 40L40 40L40 50L30 50L30 60L50 60L50 70L60 70L60 60L70 60L70 50L60 50L60 40L50 40L50 30L30 30z"/>
<path style="fill:#ffffff; stroke:none;" d="M0 40L0 60L10 60L10 40L0 40M90 40L90 60L100 60L100 40L90 40M0 70L0 80L10 80L10 70L0 70M90 70L90 80L100 80L100 70L90 70M10 90L10 100L40 100L40 90L10 90M50 90L50 100L100 100L100 90L50 90z"/>
</svg>
