<?xml version="1.0" standalone="yes"?>
<svg xmlns="http://www.w3.org/2000/svg" width="100" height="100">
<path style="fill:#ffffff; stroke:none;" d="M0 0L0 40L10 40L10 10L30 10L30 0L0 0z"/>
<path style="fill:#000000; stroke:none;" d="M30 0L30 10L10 10L10 40L0 40L0 50L10 50L10 70L0 70L0 90L30 90L30 100L50 100L50 90L60 90L60 100L70 100L70 90L100 90L100 80L90 80L90 70L100 70L100 50L90 50L90 40L100 40L100 30L90 30L90 10L60 10L60 0L50 0L50 10L40 10L40 0L30 0z"/>
<path style="fill:#ffffff; stroke:none;" d="M40 0L40 10L50 10L50 0L40 0M60 0L60 10L90 10L90 30L100 30L100 0L60 0M20 20L20 80L80 80L80 20L20 20z"/>
<path style="fill:#000000; stroke:none;" d="M30 30L30 60L70 60L70 30L50 30L50 40L40 40L40 30L30 30z"/>
<path style="fill:#ffffff; stroke:none;" d="M90 40L90 50L100 50L100 40L90 40M0 50L0 70L10 70L10 50L0 50M90 70L90 80L100 80L100 70L90 70M0 90L0 100L30 100L30 90L0 90M50 90L50 100L60 100L60 90L50 90M70 90L70 100L100 100L100 90L70 90z"/>
</svg>
