<?xml version="1.0" standalone="yes"?>
<svg xmlns="http://www.w3.org/2000/svg" width="100" height="100">
<path style="fill:#000000; stroke:none;" d="M0 0L0 20L10 20L10 30L0 30L0 40L10 40L10 60L0 60L0 70L10 70L10 90L0 90L0 100L20 100L20 90L40 90L40 100L50 100L50 90L60 90L60 100L70 100L70 90L100 90L100 60L90 60L90 50L100 50L100 40L90 40L90 30L100 30L100 20L90 20L90 10L100 10L100 0L90 0L90 10L80 10L80 0L70 0L70 10L60 10L60 0L50 0L50 10L30 10L30 0L20 0L20 10L10 10L10 0L0 0z"/>
<path style="fill:#ffffff; stroke:none;" d="M10 0L10 10L20 10L20 0L10 0M30 0L30 10L50 10L50 0L30 0M60 0L60 10L70 10L70 0L60 0M80 0L80 10L90 10L90 0L80 0M90 10L90 20L100 20L100 10L90 10M0 20L0 30L10 30L10 20L0 20M20 20L20 80L80 80L80 20L20 20z"/>
<path style="fill:#000000; stroke:none;" d="M30 30L30 40L40 40L40 60L50 60L50 70L60 70L60 50L70 50L70 30L60 30L60 40L40 40L40 30L30 30z"/>
<path style="fill:#ffffff; stroke:none;" d="M90 30L90 40L100 40L100 30L90 30M0 40L0 60L10 60L10 40L0 40M90 50L90 60L100 60L100 50L90 50M0 70L0 90L10 90L10 70L0 70M20 90L20 100L40 100L40 90L20 90M50 90L50 100L60 100L60 90L50 90M70 90L70 100L100 100L100 90L70 90z"/>
</svg>
