<?xml version="1.0" standalone="yes"?>
<svg xmlns="http://www.w3.org/2000/svg" width="100" height="100">
<path style="fill:#000000; stroke:none;" d="M0 0L0 30L10 30L10 40L0 40L0 80L10 80L10 90L0 90L0 100L10 100L10 90L30 90L30 100L80 100L80 90L100 90L100 80L90 80L90 60L100 60L100 20L90 20L90 0L60 0L60 10L50 10L50 0L40 0L40 10L20 10L20 0L0 0z"/>
<path style="fill:#ffffff; stroke:none;" d="M20 0L20 10L40 10L40 0L20 0M50 0L50 10L60 10L60 0L50 0M90 0L90 20L100 20L100 0L90 0M20 20L20 80L80 80L80 20L20 20M0 30L0 40L10 40L10 30L0 30z"/>
<path style="fill:#000000; stroke:none;" d="M30 30L30 50L40 50L40 60L30 60L30 70L40 70L40 60L70 60L70 30L60 30L60 40L40 40L40 30L30 30z"/>
<path style="fill:#ffffff; stroke:none;" d="M90 60L90 80L100 80L100 60L90 60M0 80L0 90L10 90L10 80L0 80M10 90L10 100L30 100L30 90L10 90M80 90L80 100L100 100L100 90L80 90z"/>
</svg>
