<?xml version="1.0" standalone="yes"?>
<svg xmlns="http://www.w3.org/2000/svg" width="100" height="100">
<path style="fill:#ffffff; stroke:none;" d="M0 0L0 10L20 10L20 0L0 0z"/>
<path style="fill:#000000; stroke:none;" d="M20 0L20 10L0 10L0 20L10 20L10 80L0 80L0 90L20 90L20 100L30 100L30 90L70 90L70 100L100 100L100 90L90 90L90 80L100 80L100 70L90 70L90 0L80 0L80 10L70 10L70 0L20 0z"/>
<path style="fill:#ffffff; stroke:none;" d="M70 0L70 10L80 10L80 0L70 0M90 0L90 70L100 70L100 0L90 0M0 20L0 80L10 80L10 20L0 20M20 20L20 80L80 80L80 20L20 20z"/>
<path style="fill:#000000; stroke:none;" d="M40 40L40 50L30 50L30 60L70 60L70 40L40 40z"/>
<path style="fill:#ffffff; stroke:none;" d="M90 80L90 90L100 90L100 80L90 80M0 90L0 100L20 100L20 90L0 90M30 90L30 100L70 100L70 90L30 90z"/>
</svg>
