<?xml version="1.0" standalone="yes"?>
<svg xmlns="http://www.w3.org/2000/svg" width="100" height="100">
<path style="fill:#000000; stroke:none;" d="M0 0L0 10L10 10L10 30L0 30L0 40L10 40L10 50L0 50L0 70L10 70L10 90L40 90L40 100L60 100L60 90L80 90L80 100L90 100L90 60L100 60L100 40L90 40L90 20L100 20L100 10L90 10L90 0L70 0L70 10L50 10L50 0L30 0L30 10L20 10L20 0L0 0z"/>
<path style="fill:#ffffff; stroke:none;" d="M20 0L20 10L30 10L30 0L20 0M50 0L50 10L70 10L70 0L50 0M90 0L90 10L100 10L100 0L90 0M0 10L0 30L10 30L10 10L0 10M20 20L20 80L80 80L80 20L20 20M90 20L90 40L100 40L100 20L90 20z"/>
<path style="fill:#000000; stroke:none;" d="M50 30L50 40L30 40L30 60L40 60L40 70L50 70L50 60L70 60L70 50L60 50L60 40L70 40L70 30L50 30z"/>
<path style="fill:#ffffff; stroke:none;" d="M0 40L0 50L10 50L10 40L0 40M90 60L90 100L100 100L100 60L90 60M0 70L0 100L40 100L40 90L10 90L10 70L0 70M60 90L60 100L80 100L80 90L60 90z"/>
</svg>
