<?xml version="1.0" standalone="yes"?>
<svg xmlns="http://www.w3.org/2000/svg" width="100" height="100">
<path style="fill:#000000; stroke:none;" d="M0 0L0 30L10 30L10 60L0 60L0 70L10 70L10 80L0 80L0 100L30 100L30 90L60 90L60 100L70 100L70 90L90 90L90 50L100 50L100 40L90 40L90 20L100 20L100 0L90 0L90 10L60 10L60 0L30 0L30 10L10 10L10 0L0 0z"/>
<path style="fill:#ffffff; stroke:none;" d="M10 0L10 10L30 10L30 0L10 0M60 0L60 10L90 10L90 0L60 0M20 20L20 80L80 80L80 20L20 20M90 20L90 40L100 40L100 20L90 20M0 30L0 60L10 60L10 30L0 30z"/>
<path style="fill:#000000; stroke:none;" d="M60 30L60 40L30 40L30 50L40 50L40 60L30 60L30 70L40 70L40 60L70 60L70 50L60 50L60 40L70 40L70 30L60 30z"/>
<path style="fill:#ffffff; stroke:none;" d="M90 50L90 90L70 90L70 100L100 100L100 50L90 50M0 70L0 80L10 80L10 70L0 70M30 90L30 100L60 100L60 90L30 90z"/>
</svg>
