<?xml version="1.0" standalone="yes"?>
<svg xmlns="http://www.w3.org/2000/svg" width="100" height="100">
<path style="fill:#ffffff; stroke:none;" d="M0 0L0 10L10 10L10 0L0 0z"/>
<path style="fill:#000000; stroke:none;" d="M10 0L10 10L0 10L0 40L10 40L10 70L0 70L0 100L10 100L10 90L20 90L20 100L50 100L50 90L60 90L60 100L70 100L70 90L90 90L90 70L100 70L100 40L90 40L90 30L100 30L100 0L60 0L60 10L30 10L30 0L10 0z"/>
<path style="fill:#ffffff; stroke:none;" d="M30 0L30 10L60 10L60 0L30 0M20 20L20 80L80 80L80 20L20 20z"/>
<path style="fill:#000000; stroke:none;" d="M40 30L40 60L30 60L30 70L40 70L40 60L50 60L50 70L60 70L60 40L70 40L70 30L60 30L60 40L50 40L50 30L40 30z"/>
<path style="fill:#ffffff; stroke:none;" d="M90 30L90 40L100 40L100 30L90 30M0 40L0 70L10 70L10 40L0 40M90 70L90 90L70 90L70 100L100 100L100 70L90 70M10 90L10 100L20 100L20 90L10 90M50 90L50 100L60 100L60 90L50 90z"/>
</svg>
