<?xml version="1.0" standalone="yes"?>
<svg xmlns="http://www.w3.org/2000/svg" width="100" height="100">
<path style="fill:#000000; stroke:none;" d="M0 0L0 30L10 30L10 40L0 40L0 80L10 80L10 90L0 90L0 100L10 100L10 90L30 90L30 100L40 100L40 90L70 90L70 100L80 100L80 90L100 90L100 60L90 60L90 50L100 50L100 40L90 40L90 30L100 30L100 20L90 20L90 10L100 10L100 0L80 0L80 10L40 10L40 0L0 0z"/>
<path style="fill:#ffffff; stroke:none;" d="M40 0L40 10L80 10L80 0L40 0M90 10L90 20L100 20L100 10L90 10M20 20L20 80L80 80L80 20L20 20M0 30L0 40L10 40L10 30L0 30z"/>
<path style="fill:#000000; stroke:none;" d="M50 30L50 40L40 40L40 50L30 50L30 70L60 70L60 60L70 60L70 40L60 40L60 30L50 30z"/>
<path style="fill:#ffffff; stroke:none;" d="M90 30L90 40L100 40L100 30L90 30M90 50L90 60L100 60L100 50L90 50M0 80L0 90L10 90L10 80L0 80M10 90L10 100L30 100L30 90L10 90M40 90L40 100L70 100L70 90L40 90M80 90L80 100L100 100L100 90L80 90z"/>
</svg>
