<?xml version="1.0" standalone="yes"?>
<svg xmlns="http://www.w3.org/2000/svg" width="100" height="100">
<path style="fill:#ffffff; stroke:none;" d="M0 0L0 10L10 10L10 0L0 0z"/>
<path style="fill:#000000; stroke:none;" d="M10 0L10 10L0 10L0 20L10 20L10 40L0 40L0 50L10 50L10 60L0 60L0 70L10 70L10 100L50 100L50 90L60 90L60 100L80 100L80 90L90 90L90 100L100 100L100 70L90 70L90 50L100 50L100 30L90 30L90 10L100 10L100 0L80 0L80 10L70 10L70 0L60 0L60 10L50 10L50 0L10 0z"/>
<path style="fill:#ffffff; stroke:none;" d="M50 0L50 10L60 10L60 0L50 0M70 0L70 10L80 10L80 0L70 0M90 10L90 30L100 30L100 10L90 10M0 20L0 40L10 40L10 20L0 20M20 20L20 80L80 80L80 20L20 20z"/>
<path style="fill:#000000; stroke:none;" d="M40 30L40 60L60 60L60 70L70 70L70 40L50 40L50 30L40 30z"/>
<path style="fill:#ffffff; stroke:none;" d="M0 50L0 60L10 60L10 50L0 50M90 50L90 70L100 70L100 50L90 50M0 70L0 100L10 100L10 70L0 70M50 90L50 100L60 100L60 90L50 90M80 90L80 100L90 100L90 90L80 90z"/>
</svg>
