<?xml version="1.0" standalone="yes"?>
<svg xmlns="http://www.w3.org/2000/svg" width="100" height="100">
<path style="fill:#ffffff; stroke:none;" d="M0 0L0 10L30 10L30 0L0 0z"/>
<path style="fill:#000000; stroke:none;" d="M30 0L30 10L0 10L0 40L10 40L10 70L0 70L0 90L40 90L40 100L60 100L60 90L70 90L70 100L100 100L100 60L90 60L90 40L100 40L100 20L90 20L90 0L80 0L80 10L70 10L70 0L60 0L60 10L40 10L40 0L30 0z"/>
<path style="fill:#ffffff; stroke:none;" d="M40 0L40 10L60 10L60 0L40 0M70 0L70 10L80 10L80 0L70 0M90 0L90 20L100 20L100 0L90 0M20 20L20 80L80 80L80 20L20 20z"/>
<path style="fill:#000000; stroke:none;" d="M40 30L40 50L30 50L30 60L40 60L40 70L60 70L60 30L40 30z"/>
<path style="fill:#ffffff; stroke:none;" d="M0 40L0 70L10 70L10 40L0 40M90 40L90 60L100 60L100 40L90 40M0 90L0 100L40 100L40 90L0 90M60 90L60 100L70 100L70 90L60 90z"/>
</svg>
