<?xml version="1.0" standalone="yes"?>
<svg xmlns="http://www.w3.org/2000/svg" width="100" height="100">
<path style="fill:#ffffff; stroke:none;" d="M0 0L0 10L50 10L50 0L0 0z"/>
<path style="fill:#000000; stroke:none;" d="M50 0L50 10L0 10L0 50L10 50L10 70L0 70L0 90L60 90L60 100L80 100L80 90L90 90L90 100L100 100L100 90L90 90L90 80L100 80L100 70L90 70L90 10L80 10L80 0L50 0z"/>
<path style="fill:#ffffff; stroke:none;" d="M80 0L80 10L90 10L90 70L100 70L100 0L80 0M20 20L20 80L80 80L80 20L20 20z"/>
<path style="fill:#000000; stroke:none;" d="M30 30L30 40L40 40L40 60L50 60L50 70L60 70L60 60L70 60L70 40L60 40L60 30L30 30z"/>
<path style="fill:#ffffff; stroke:none;" d="M0 50L0 70L10 70L10 50L0 50M90 80L90 90L100 90L100 80L90 80M0 90L0 100L60 100L60 90L0 90M80 90L80 100L90 100L90 90L80 90z"/>
</svg>
