<?xml version="1.0" standalone="yes"?>
<svg xmlns="http://www.w3.org/2000/svg" width="100" height="100">
<path style="fill:#ffffff; stroke:none;" d="M0 0L0 30L10 30L10 10L20 10L20 0L0 0z"/>
<path style="fill:#000000; stroke:none;" d="M20 0L20 10L10 10L10 30L0 30L0 40L10 40L10 50L0 50L0 90L10 90L10 100L20 100L20 90L30 90L30 100L60 100L60 90L80 90L80 100L90 100L90 80L100 80L100 70L90 70L90 60L100 60L100 50L90 50L90 40L100 40L100 0L80 0L80 10L30 10L30 0L20 0z"/>
<path style="fill:#ffffff; stroke:none;" d="M30 0L30 10L80 10L80 0L30 0M20 20L20 80L80 80L80 20L20 20z"/>
<path style="fill:#000000; stroke:none;" d="M30 30L30 70L40 70L40 60L50 60L50 70L60 70L60 40L70 40L70 30L50 30L50 40L40 40L40 30L30 30z"/>
<path style="fill:#ffffff; stroke:none;" d="M0 40L0 50L10 50L10 40L0 40M90 40L90 50L100 50L100 40L90 40M90 60L90 70L100 70L100 60L90 60M90 80L90 100L100 100L100 80L90 80M0 90L0 100L10 100L10 90L0 90M20 90L20 100L30 100L30 90L20 90M60 90L60 100L80 100L80 90L60 90z"/>
</svg>
