<?xml version="1.0" standalone="yes"?>
<svg xmlns="http://www.w3.org/2000/svg" width="100" height="100">
<path style="fill:#ffffff; stroke:none;" d="M0 0L0 10L20 10L20 0L0 0z"/>
<path style="fill:#000000; stroke:none;" d="M20 0L20 10L0 10L0 50L10 50L10 100L20 100L20 90L40 90L40 100L50 100L50 90L60 90L60 100L70 100L70 90L80 90L80 100L90 100L90 70L100 70L100 30L90 30L90 20L100 20L100 0L80 0L80 10L70 10L70 0L50 0L50 10L30 10L30 0L20 0z"/>
<path style="fill:#ffffff; stroke:none;" d="M30 0L30 10L50 10L50 0L30 0M70 0L70 10L80 10L80 0L70 0M20 20L20 80L80 80L80 20L20 20M90 20L90 30L100 30L100 20L90 20z"/>
<path style="fill:#000000; stroke:none;" d="M50 30L50 40L40 40L40 50L30 50L30 70L50 70L50 60L60 60L60 50L70 50L70 30L50 30z"/>
<path style="fill:#ffffff; stroke:none;" d="M0 50L0 100L10 100L10 50L0 50M90 70L90 100L100 100L100 70L90 70M20 90L20 100L40 100L40 90L20 90M50 90L50 100L60 100L60 90L50 90M70 90L70 100L80 100L80 90L70 90z"/>
</svg>
