<?xml version="1.0" standalone="yes"?>
<svg xmlns="http://www.w3.org/2000/svg" width="100" height="100">
<path style="fill:#ffffff; stroke:none;" d="M0 0L0 20L10 20L10 10L20 10L20 0L0 0z"/>
<path style="fill:#000000; stroke:none;" d="M20 0L20 10L10 10L10 20L0 20L0 40L10 40L10 50L0 50L0 60L10 60L10 80L0 80L0 90L10 90L10 100L20 100L20 90L70 90L70 100L80 100L80 90L90 90L90 100L100 100L100 80L90 80L90 50L100 50L100 30L90 30L90 20L100 20L100 0L80 0L80 10L60 10L60 0L40 0L40 10L30 10L30 0L20 0z"/>
<path style="fill:#ffffff; stroke:none;" d="M30 0L30 10L40 10L40 0L30 0M60 0L60 10L80 10L80 0L60 0M20 20L20 80L80 80L80 20L20 20M90 20L90 30L100 30L100 20L90 20z"/>
<path style="fill:#000000; stroke:none;" d="M30 30L30 40L40 40L40 60L30 60L30 70L40 70L40 60L50 60L50 70L60 70L60 50L70 50L70 30L60 30L60 40L40 40L40 30L30 30z"/>
<path style="fill:#ffffff; stroke:none;" d="M0 40L0 50L10 50L10 40L0 40M90 50L90 80L100 80L100 50L90 50M0 60L0 80L10 80L10 60L0 60M0 90L0 100L10 100L10 90L0 90M20 90L20 100L70 100L70 90L20 90M80 90L80 100L90 100L90 90L80 90z"/>
</svg>
