<?xml version="1.0" standalone="yes"?>
<svg xmlns="http://www.w3.org/2000/svg" width="100" height="100">
<path style="fill:#ffffff; stroke:none;" d="M0 0L0 30L10 30L10 10L30 10L30 0L0 0z"/>
<path style="fill:#000000; stroke:none;" d="M30 0L30 10L10 10L10 30L0 30L0 40L10 40L10 50L0 50L0 70L10 70L10 90L50 90L50 100L70 100L70 90L90 90L90 70L100 70L100 60L90 60L90 50L100 50L100 30L90 30L90 0L30 0z"/>
<path style="fill:#ffffff; stroke:none;" d="M90 0L90 30L100 30L100 0L90 0M20 20L20 80L80 80L80 20L20 20z"/>
<path style="fill:#000000; stroke:none;" d="M30 30L30 40L40 40L40 50L30 50L30 60L60 60L60 70L70 70L70 60L60 60L60 50L70 50L70 40L60 40L60 30L30 30z"/>
<path style="fill:#ffffff; stroke:none;" d="M0 40L0 50L10 50L10 40L0 40M90 50L90 60L100 60L100 50L90 50M0 70L0 100L50 100L50 90L10 90L10 70L0 70M90 70L90 90L70 90L70 100L100 100L100 70L90 70z"/>
</svg>
