<?xml version="1.0" standalone="yes"?>
<svg xmlns="http://www.w3.org/2000/svg" width="100" height="100">
<path style="fill:#ffffff; stroke:none;" d="M0 0L0 10L20 10L20 0L0 0z"/>
<path style="fill:#000000; stroke:none;" d="M20 0L20 10L0 10L0 20L10 20L10 40L0 40L0 60L10 60L10 70L0 70L0 90L10 90L10 100L30 100L30 90L40 90L40 100L50 100L50 90L80 90L80 100L100 100L100 60L90 60L90 40L100 40L100 30L90 30L90 10L100 10L100 0L80 0L80 10L40 10L40 0L20 0z"/>
<path style="fill:#ffffff; stroke:none;" d="M40 0L40 10L80 10L80 0L40 0M90 10L90 30L100 30L100 10L90 10M0 20L0 40L10 40L10 20L0 20M20 20L20 80L80 80L80 20L20 20z"/>
<path style="fill:#000000; stroke:none;" d="M60 30L60 40L40 40L40 60L30 60L30 70L70 70L70 30L60 30z"/>
<path style="fill:#ffffff; stroke:none;" d="M90 40L90 60L100 60L100 40L90 40M0 60L0 70L10 70L10 60L0 60M0 90L0 100L10 100L10 90L0 90M30 90L30 100L40 100L40 90L30 90M50 90L50 100L80 100L80 90L50 90z"/>
</svg>
