<?xml version="1.0" standalone="yes"?>
<svg xmlns="http://www.w3.org/2000/svg" width="100" height="100">
<path style="fill:#ffffff; stroke:none;" d="M0 0L0 10L40 10L40 0L0 0z"/>
<path style="fill:#000000; stroke:none;" d="M40 0L40 10L0 10L0 60L10 60L10 80L0 80L0 90L40 90L40 100L50 100L50 90L80 90L80 100L90 100L90 90L100 90L100 80L90 80L90 70L100 70L100 30L90 30L90 10L100 10L100 0L80 0L80 10L70 10L70 0L40 0z"/>
<path style="fill:#ffffff; stroke:none;" d="M70 0L70 10L80 10L80 0L70 0M90 10L90 30L100 30L100 10L90 10M20 20L20 80L80 80L80 20L20 20z"/>
<path style="fill:#000000; stroke:none;" d="M40 30L40 70L50 70L50 60L60 60L60 70L70 70L70 50L60 50L60 30L40 30z"/>
<path style="fill:#ffffff; stroke:none;" d="M0 60L0 80L10 80L10 60L0 60M90 70L90 80L100 80L100 70L90 70M0 90L0 100L40 100L40 90L0 90M50 90L50 100L80 100L80 90L50 90M90 90L90 100L100 100L100 90L90 90z"/>
</svg>
