<?xml version="1.0" standalone="yes"?>
<svg xmlns="http://www.w3.org/2000/svg" width="100" height="100">
<path style="fill:#ffffff; stroke:none;" d="M0 0L0 50L10 50L10 0L0 0z"/>
<path style="fill:#000000; stroke:none;" d="M10 0L10 50L0 50L0 60L10 60L10 80L0 80L0 90L10 90L10 100L40 100L40 90L70 90L70 100L80 100L80 90L90 90L90 100L100 100L100 50L90 50L90 40L100 40L100 20L90 20L90 10L100 10L100 0L50 0L50 10L40 10L40 0L30 0L30 10L20 10L20 0L10 0z"/>
<path style="fill:#ffffff; stroke:none;" d="M20 0L20 10L30 10L30 0L20 0M40 0L40 10L50 10L50 0L40 0M90 10L90 20L100 20L100 10L90 10M20 20L20 80L80 80L80 20L20 20z"/>
<path style="fill:#000000; stroke:none;" d="M40 30L40 70L50 70L50 60L60 60L60 70L70 70L70 60L60 60L60 40L50 40L50 30L40 30z"/>
<path style="fill:#ffffff; stroke:none;" d="M90 40L90 50L100 50L100 40L90 40M0 60L0 80L10 80L10 60L0 60M0 90L0 100L10 100L10 90L0 90M40 90L40 100L70 100L70 90L40 90M80 90L80 100L90 100L90 90L80 90z"/>
</svg>
