<?xml version="1.0" standalone="yes"?>
<svg xmlns="http://www.w3.org/2000/svg" width="100" height="100">
<path style="fill:#ffffff; stroke:none;" d="M0 0L0 20L10 20L10 10L20 10L20 0L0 0z"/>
<path style="fill:#000000; stroke:none;" d="M20 0L20 10L10 10L10 20L0 20L0 70L10 70L10 80L0 80L0 100L40 100L40 90L50 90L50 100L70 100L70 90L90 90L90 80L100 80L100 60L90 60L90 50L100 50L100 40L90 40L90 10L80 10L80 0L60 0L60 10L30 10L30 0L20 0z"/>
<path style="fill:#ffffff; stroke:none;" d="M30 0L30 10L60 10L60 0L30 0M80 0L80 10L90 10L90 40L100 40L100 0L80 0M20 20L20 80L80 80L80 20L20 20z"/>
<path style="fill:#000000; stroke:none;" d="M30 30L30 50L40 50L40 70L50 70L50 60L60 60L60 70L70 70L70 40L50 40L50 30L30 30z"/>
<path style="fill:#ffffff; stroke:none;" d="M90 50L90 60L100 60L100 50L90 50M0 70L0 80L10 80L10 70L0 70M90 80L90 90L70 90L70 100L100 100L100 80L90 80M40 90L40 100L50 100L50 90L40 90z"/>
</svg>
