<?xml version="1.0" standalone="yes"?>
<svg xmlns="http://www.w3.org/2000/svg" width="100" height="100">
<path style="fill:#000000; stroke:none;" d="M0 0L0 10L10 10L10 40L0 40L0 80L10 80L10 90L0 90L0 100L20 100L20 90L40 90L40 100L70 100L70 90L100 90L100 80L90 80L90 50L100 50L100 20L90 20L90 10L60 10L60 0L50 0L50 10L40 10L40 0L0 0z"/>
<path style="fill:#ffffff; stroke:none;" d="M40 0L40 10L50 10L50 0L40 0M60 0L60 10L90 10L90 20L100 20L100 0L60 0M0 10L0 40L10 40L10 10L0 10M20 20L20 80L80 80L80 20L20 20z"/>
<path style="fill:#000000; stroke:none;" d="M40 30L40 60L30 60L30 70L70 70L70 60L60 60L60 50L70 50L70 30L60 30L60 40L50 40L50 30L40 30z"/>
<path style="fill:#ffffff; stroke:none;" d="M90 50L90 80L100 80L100 50L90 50M0 80L0 90L10 90L10 80L0 80M20 90L20 100L40 100L40 90L20 90M70 90L70 100L100 100L100 90L70 90z"/>
</svg>
