<?xml version="1.0" standalone="yes"?>
<svg xmlns="http://www.w3.org/2000/svg" width="100" height="100">
<path style="fill:#ffffff; stroke:none;" d="M0 0L0 30L10 30L10 10L50 10L50 0L0 0z"/>
<path style="fill:#000000; stroke:none;" d="M50 0L50 10L10 10L10 30L0 30L0 60L10 60L10 80L0 80L0 90L60 90L60 100L100 100L100 90L90 90L90 60L100 60L100 50L90 50L90 30L100 30L100 0L90 0L90 10L80 10L80 0L50 0z"/>
<path style="fill:#ffffff; stroke:none;" d="M80 0L80 10L90 10L90 0L80 0M20 20L20 80L80 80L80 20L20 20M90 30L90 50L100 50L100 30L90 30z"/>
<path style="fill:#000000; stroke:none;" d="M40 40L40 50L30 50L30 70L70 70L70 50L60 50L60 40L40 40z"/>
<path style="fill:#ffffff; stroke:none;" d="M0 60L0 80L10 80L10 60L0 60M90 60L90 90L100 90L100 60L90 60M0 90L0 100L60 100L60 90L0 90z"/>
</svg>
