<?xml version="1.0" standalone="yes"?>
<svg xmlns="http://www.w3.org/2000/svg" width="100" height="100">
<path style="fill:#000000; stroke:none;" d="M0 0L0 20L10 20L10 40L0 40L0 50L10 50L10 80L0 80L0 100L10 100L10 90L20 90L20 100L40 100L40 90L60 90L60 100L70 100L70 90L90 90L90 100L100 100L100 80L90 80L90 60L100 60L100 10L90 10L90 0L70 0L70 10L40 10L40 0L0 0z"/>
<path style="fill:#ffffff; stroke:none;" d="M40 0L40 10L70 10L70 0L40 0M90 0L90 10L100 10L100 0L90 0M0 20L0 40L10 40L10 20L0 20M20 20L20 80L80 80L80 20L20 20z"/>
<path style="fill:#000000; stroke:none;" d="M30 30L30 40L40 40L40 50L30 50L30 70L40 70L40 60L60 60L60 40L50 40L50 30L30 30z"/>
<path style="fill:#ffffff; stroke:none;" d="M0 50L0 80L10 80L10 50L0 50M90 60L90 80L100 80L100 60L90 60M10 90L10 100L20 100L20 90L10 90M40 90L40 100L60 100L60 90L40 90M70 90L70 100L90 100L90 90L70 90z"/>
</svg>
