<?xml version="1.0" standalone="yes"?>
<svg xmlns="http://www.w3.org/2000/svg" width="100" height="100">
<path style="fill:#ffffff; stroke:none;" d="M0 0L0 10L20 10L20 0L0 0z"/>
<path style="fill:#000000; stroke:none;" d="M20 0L20 10L0 10L0 20L10 20L10 30L0 30L0 40L10 40L10 80L0 80L0 90L30 90L30 100L40 100L40 90L50 90L50 100L60 100L60 90L70 90L70 100L80 100L80 90L90 90L90 100L100 100L100 90L90 90L90 70L100 70L100 30L90 30L90 20L100 20L100 0L90 0L90 10L80 10L80 0L60 0L60 10L50 10L50 0L20 0z"/>
<path style="fill:#ffffff; stroke:none;" d="M50 0L50 10L60 10L60 0L50 0M80 0L80 10L90 10L90 0L80 0M0 20L0 30L10 30L10 20L0 20M20 20L20 80L80 80L80 20L20 20M90 20L90 30L100 30L100 20L90 20z"/>
<path style="fill:#000000; stroke:none;" d="M60 30L60 40L30 40L30 70L40 70L40 60L60 60L60 70L70 70L70 60L60 60L60 40L70 40L70 30L60 30z"/>
<path style="fill:#ffffff; stroke:none;" d="M0 40L0 80L10 80L10 40L0 40M90 70L90 90L100 90L100 70L90 70M0 90L0 100L30 100L30 90L0 90M40 90L40 100L50 100L50 90L40 90M60 90L60 100L70 100L70 90L60 90M80 90L80 100L90 100L90 90L80 90z"/>
</svg>
