<?xml version="1.0" standalone="yes"?>
<svg xmlns="http://www.w3.org/2000/svg" width="100" height="100">
<path style="fill:#ffffff; stroke:none;" d="M0 0L0 80L10 80L10 0L0 0z"/>
<path style="fill:#000000; stroke:none;" d="M10 0L10 80L0 80L0 90L10 90L10 100L20 100L20 90L70 90L70 100L80 100L80 90L90 90L90 100L100 100L100 80L90 80L90 0L80 0L80 10L40 10L40 0L10 0z"/>
<path style="fill:#ffffff; stroke:none;" d="M40 0L40 10L80 10L80 0L40 0M90 0L90 80L100 80L100 0L90 0M20 20L20 80L80 80L80 20L20 20z"/>
<path style="fill:#000000; stroke:none;" d="M40 30L40 50L30 50L30 70L50 70L50 60L70 60L70 40L50 40L50 30L40 30z"/>
<path style="fill:#ffffff; stroke:none;" d="M0 90L0 100L10 100L10 90L0 90M20 90L20 100L70 100L70 90L20 90M80 90L80 100L90 100L90 90L80 90z"/>
</svg>
