<?xml version="1.0" standalone="yes"?>
<svg xmlns="http://www.w3.org/2000/svg" width="100" height="100">
<path style="fill:#000000; stroke:none;" d="M0 0L0 10L10 10L10 40L0 40L0 80L10 80L10 100L30 100L30 90L50 90L50 100L80 100L80 90L90 90L90 70L100 70L100 50L90 50L90 40L100 40L100 30L90 30L90 10L100 10L100 0L90 0L90 10L80 10L80 0L60 0L60 10L40 10L40 0L30 0L30 10L20 10L20 0L0 0z"/>
<path style="fill:#ffffff; stroke:none;" d="M20 0L20 10L30 10L30 0L20 0M40 0L40 10L60 10L60 0L40 0M80 0L80 10L90 10L90 0L80 0M0 10L0 40L10 40L10 10L0 10M90 10L90 30L100 30L100 10L90 10M20 20L20 80L80 80L80 20L20 20z"/>
<path style="fill:#000000; stroke:none;" d="M30 30L30 70L40 70L40 60L60 60L60 70L70 70L70 60L60 60L60 50L70 50L70 40L40 40L40 30L30 30z"/>
<path style="fill:#ffffff; stroke:none;" d="M90 40L90 50L100 50L100 40L90 40M90 70L90 90L80 90L80 100L100 100L100 70L90 70M0 80L0 100L10 100L10 80L0 80M30 90L30 100L50 100L50 90L30 90z"/>
</svg>
