<?xml version="1.0" standalone="yes"?>
<svg xmlns="http://www.w3.org/2000/svg" width="100" height="100">
<path style="fill:#000000; stroke:none;" d="M0 0L0 50L10 50L10 60L0 60L0 80L10 80L10 100L50 100L50 90L60 90L60 100L70 100L70 90L80 90L80 100L90 100L90 90L100 90L100 80L90 80L90 70L100 70L100 60L90 60L90 50L100 50L100 40L90 40L90 30L100 30L100 0L80 0L80 10L30 10L30 0L20 0L20 10L10 10L10 0L0 0z"/>
<path style="fill:#ffffff; stroke:none;" d="M10 0L10 10L20 10L20 0L10 0M30 0L30 10L80 10L80 0L30 0M20 20L20 80L80 80L80 20L20 20z"/>
<path style="fill:#000000; stroke:none;" d="M40 30L40 40L30 40L30 50L40 50L40 60L30 60L30 70L70 70L70 40L50 40L50 30L40 30z"/>
<path style="fill:#ffffff; stroke:none;" d="M90 30L90 40L100 40L100 30L90 30M0 50L0 60L10 60L10 50L0 50M90 50L90 60L100 60L100 50L90 50M90 70L90 80L100 80L100 70L90 70M0 80L0 100L10 100L10 80L0 80M50 90L50 100L60 100L60 90L50 90M70 90L70 100L80 100L80 90L70 90M90 90L90 100L100 100L100 90L90 90z"/>
</svg>
