<?xml version="1.0" standalone="yes"?>
<svg xmlns="http://www.w3.org/2000/svg" width="100" height="100">
<path style="fill:#ffffff; stroke:none;" d="M0 0L0 10L20 10L20 0L0 0z"/>
<path style="fill:#000000; stroke:none;" d="M20 0L20 10L0 10L0 50L10 50L10 60L0 60L0 70L10 70L10 80L0 80L0 100L20 100L20 90L40 90L40 100L60 100L60 90L70 90L70 100L90 100L90 60L100 60L100 50L90 50L90 30L100 30L100 10L30 10L30 0L20 0z"/>
<path style="fill:#ffffff; stroke:none;" d="M30 0L30 10L100 10L100 0L30 0M20 20L20 80L80 80L80 20L20 20z"/>
<path style="fill:#000000; stroke:none;" d="M40 30L40 60L50 60L50 70L60 70L60 60L70 60L70 50L60 50L60 40L50 40L50 30L40 30z"/>
<path style="fill:#ffffff; stroke:none;" d="M90 30L90 50L100 50L100 30L90 30M0 50L0 60L10 60L10 50L0 50M90 60L90 100L100 100L100 60L90 60M0 70L0 80L10 80L10 70L0 70M20 90L20 100L40 100L40 90L20 90M60 90L60 100L70 100L70 90L60 90z"/>
</svg>
