<?xml version="1.0" standalone="yes"?>
<svg xmlns="http://www.w3.org/2000/svg" width="100" height="100">
<path style="fill:#ffffff; stroke:none;" d="M0 0L0 50L10 50L10 10L40 10L40 0L0 0z"/>
<path style="fill:#000000; stroke:none;" d="M40 0L40 10L10 10L10 50L0 50L0 70L10 70L10 80L0 80L0 90L20 90L20 100L40 100L40 90L60 90L60 100L70 100L70 90L80 90L80 100L90 100L90 90L100 90L100 80L90 80L90 50L100 50L100 30L90 30L90 10L100 10L100 0L90 0L90 10L70 10L70 0L60 0L60 10L50 10L50 0L40 0z"/>
<path style="fill:#ffffff; stroke:none;" d="M50 0L50 10L60 10L60 0L50 0M70 0L70 10L90 10L90 0L70 0M90 10L90 30L100 30L100 10L90 10M20 20L20 80L80 80L80 20L20 20z"/>
<path style="fill:#000000; stroke:none;" d="M30 30L30 50L40 50L40 60L70 60L70 40L40 40L40 30L30 30z"/>
<path style="fill:#ffffff; stroke:none;" d="M90 50L90 80L100 80L100 50L90 50M0 70L0 80L10 80L10 70L0 70M0 90L0 100L20 100L20 90L0 90M40 90L40 100L60 100L60 90L40 90M70 90L70 100L80 100L80 90L70 90M90 90L90 100L100 100L100 90L90 90z"/>
</svg>
