<?xml version="1.0" standalone="yes"?>
<svg xmlns="http://www.w3.org/2000/svg" width="100" height="100">
<path style="fill:#ffffff; stroke:none;" d="M0 0L0 50L10 50L10 10L40 10L40 0L0 0z"/>
<path style="fill:#000000; stroke:none;" d="M40 0L40 10L10 10L10 50L0 50L0 80L10 80L10 100L20 100L20 90L30 90L30 100L50 100L50 90L60 90L60 100L100 100L100 80L90 80L90 70L100 70L100 60L90 60L90 10L60 10L60 0L40 0z"/>
<path style="fill:#ffffff; stroke:none;" d="M60 0L60 10L90 10L90 60L100 60L100 0L60 0M20 20L20 80L80 80L80 20L20 20z"/>
<path style="fill:#000000; stroke:none;" d="M30 30L30 50L40 50L40 60L70 60L70 40L50 40L50 30L30 30z"/>
<path style="fill:#ffffff; stroke:none;" d="M90 70L90 80L100 80L100 70L90 70M0 80L0 100L10 100L10 80L0 80M20 90L20 100L30 100L30 90L20 90M50 90L50 100L60 100L60 90L50 90z"/>
</svg>
