<?xml version="1.0" standalone="yes"?>
<svg xmlns="http://www.w3.org/2000/svg" width="100" height="100">
<path style="fill:#ffffff; stroke:none;" d="M0 0L0 20L10 20L10 10L30 10L30 0L0 0z"/>
<path style="fill:#000000; stroke:none;" d="M30 0L30 10L10 10L10 20L0 20L0 30L10 30L10 50L0 50L0 70L10 70L10 80L0 80L0 100L10 100L10 90L20 90L20 100L30 100L30 90L50 90L50 100L80 100L80 90L90 90L90 100L100 100L100 80L90 80L90 70L100 70L100 50L90 50L90 20L100 20L100 0L90 0L90 10L80 10L80 0L60 0L60 10L50 10L50 0L30 0z"/>
<path style="fill:#ffffff; stroke:none;" d="M50 0L50 10L60 10L60 0L50 0M80 0L80 10L90 10L90 0L80 0M20 20L20 80L80 80L80 20L20 20M90 20L90 50L100 50L100 20L90 20M0 30L0 50L10 50L10 30L0 30z"/>
<path style="fill:#000000; stroke:none;" d="M30 30L30 60L40 60L40 70L60 70L60 60L70 60L70 50L60 50L60 40L50 40L50 30L30 30z"/>
<path style="fill:#ffffff; stroke:none;" d="M0 70L0 80L10 80L10 70L0 70M90 70L90 80L100 80L100 70L90 70M10 90L10 100L20 100L20 90L10 90M30 90L30 100L50 100L50 90L30 90M80 90L80 100L90 100L90 90L80 90z"/>
</svg>
