<?xml version="1.0" standalone="yes"?>
<svg xmlns="http://www.w3.org/2000/svg" width="100" height="100">
<path style="fill:#000000; stroke:none;" d="M0 0L0 10L10 10L10 30L0 30L0 50L10 50L10 80L0 80L0 100L20 100L20 90L50 90L50 100L70 100L70 90L80 90L80 100L100 100L100 80L90 80L90 20L100 20L100 0L90 0L90 10L60 10L60 0L50 0L50 10L30 10L30 0L0 0z"/>
<path style="fill:#ffffff; stroke:none;" d="M30 0L30 10L50 10L50 0L30 0M60 0L60 10L90 10L90 0L60 0M0 10L0 30L10 30L10 10L0 10M20 20L20 80L80 80L80 20L20 20M90 20L90 80L100 80L100 20L90 20z"/>
<path style="fill:#000000; stroke:none;" d="M60 30L60 40L30 40L30 50L40 50L40 60L30 60L30 70L40 70L40 60L50 60L50 70L60 70L60 50L70 50L70 30L60 30z"/>
<path style="fill:#ffffff; stroke:none;" d="M0 50L0 80L10 80L10 50L0 50M20 90L20 100L50 100L50 90L20 90M70 90L70 100L80 100L80 90L70 90z"/>
</svg>
