<?xml version="1.0" standalone="yes"?>
<svg xmlns="http://www.w3.org/2000/svg" width="100" height="100">
<path style="fill:#ffffff; stroke:none;" d="M0 0L0 10L20 10L20 0L0 0z"/>
<path style="fill:#000000; stroke:none;" d="M20 0L20 10L0 10L0 40L10 40L10 50L0 50L0 60L10 60L10 70L0 70L0 80L10 80L10 100L40 100L40 90L60 90L60 100L100 100L100 90L90 90L90 70L100 70L100 60L90 60L90 30L100 30L100 20L90 20L90 10L50 10L50 0L40 0L40 10L30 10L30 0L20 0z"/>
<path style="fill:#ffffff; stroke:none;" d="M30 0L30 10L40 10L40 0L30 0M50 0L50 10L90 10L90 20L100 20L100 0L50 0M20 20L20 80L80 80L80 20L20 20z"/>
<path style="fill:#000000; stroke:none;" d="M30 30L30 50L40 50L40 70L60 70L60 60L70 60L70 40L60 40L60 30L30 30z"/>
<path style="fill:#ffffff; stroke:none;" d="M90 30L90 60L100 60L100 30L90 30M0 40L0 50L10 50L10 40L0 40M0 60L0 70L10 70L10 60L0 60M90 70L90 90L100 90L100 70L90 70M0 80L0 100L10 100L10 80L0 80M40 90L40 100L60 100L60 90L40 90z"/>
</svg>
