<?xml version="1.0" standalone="yes"?>
<svg xmlns="http://www.w3.org/2000/svg" width="100" height="100">
<path style="fill:#ffffff; stroke:none;" d="M0 0L0 10L20 10L20 0L0 0z"/>
<path style="fill:#000000; stroke:none;" d="M20 0L20 10L0 10L0 40L10 40L10 70L0 70L0 80L10 80L10 90L0 90L0 100L10 100L10 90L50 90L50 100L70 100L70 90L90 90L90 100L100 100L100 50L90 50L90 20L100 20L100 0L80 0L80 10L70 10L70 0L60 0L60 10L40 10L40 0L20 0z"/>
<path style="fill:#ffffff; stroke:none;" d="M40 0L40 10L60 10L60 0L40 0M70 0L70 10L80 10L80 0L70 0M20 20L20 80L80 80L80 20L20 20M90 20L90 50L100 50L100 20L90 20z"/>
<path style="fill:#000000; stroke:none;" d="M60 30L60 40L30 40L30 70L40 70L40 60L50 60L50 70L60 70L60 40L70 40L70 30L60 30z"/>
<path style="fill:#ffffff; stroke:none;" d="M0 40L0 70L10 70L10 40L0 40M0 80L0 90L10 90L10 80L0 80M10 90L10 100L50 100L50 90L10 90M70 90L70 100L90 100L90 90L70 90z"/>
</svg>
