<?xml version="1.0" standalone="yes"?>
<svg xmlns="http://www.w3.org/2000/svg" width="100" height="100">
<path style="fill:#000000; stroke:none;" d="M0 0L0 10L10 10L10 40L0 40L0 50L10 50L10 100L20 100L20 90L30 90L30 100L90 100L90 90L100 90L100 80L90 80L90 60L100 60L100 40L90 40L90 20L100 20L100 10L90 10L90 0L80 0L80 10L70 10L70 0L50 0L50 10L10 10L10 0L0 0z"/>
<path style="fill:#ffffff; stroke:none;" d="M10 0L10 10L50 10L50 0L10 0M70 0L70 10L80 10L80 0L70 0M90 0L90 10L100 10L100 0L90 0M0 10L0 40L10 40L10 10L0 10M20 20L20 80L80 80L80 20L20 20M90 20L90 40L100 40L100 20L90 20z"/>
<path style="fill:#000000; stroke:none;" d="M50 30L50 40L30 40L30 70L50 70L50 60L60 60L60 50L70 50L70 30L50 30z"/>
<path style="fill:#ffffff; stroke:none;" d="M0 50L0 100L10 100L10 50L0 50M90 60L90 80L100 80L100 60L90 60M20 90L20 100L30 100L30 90L20 90M90 90L90 100L100 100L100 90L90 90z"/>
</svg>
