<?xml version="1.0" standalone="yes"?>
<svg xmlns="http://www.w3.org/2000/svg" width="100" height="100">
<path style="fill:#ffffff; stroke:none;" d="M0 0L0 10L10 10L10 0L0 0z"/>
<path style="fill:#000000; stroke:none;" d="M10 0L10 10L0 10L0 30L10 30L10 40L0 40L0 50L10 50L10 70L0 70L0 100L10 100L10 90L60 90L60 100L70 100L70 90L80 90L80 100L100 100L100 70L90 70L90 0L80 0L80 10L70 10L70 0L10 0z"/>
<path style="fill:#ffffff; stroke:none;" d="M70 0L70 10L80 10L80 0L70 0M90 0L90 70L100 70L100 0L90 0M20 20L20 80L80 80L80 20L20 20M0 30L0 40L10 40L10 30L0 30z"/>
<path style="fill:#000000; stroke:none;" d="M30 30L30 60L40 60L40 70L50 70L50 60L60 60L60 30L50 30L50 40L40 40L40 30L30 30z"/>
<path style="fill:#ffffff; stroke:none;" d="M0 50L0 70L10 70L10 50L0 50M10 90L10 100L60 100L60 90L10 90M70 90L70 100L80 100L80 90L70 90z"/>
</svg>
