<?xml version="1.0" standalone="yes"?>
<svg xmlns="http://www.w3.org/2000/svg" width="100" height="100">
<path style="fill:#ffffff; stroke:none;" d="M0 0L0 10L40 10L40 0L0 0z"/>
<path style="fill:#000000; stroke:none;" d="M40 0L40 10L0 10L0 30L10 30L10 60L0 60L0 70L10 70L10 90L0 90L0 100L10 100L10 90L30 90L30 100L50 100L50 90L80 90L80 100L100 100L100 80L90 80L90 50L100 50L100 0L90 0L90 10L80 10L80 0L60 0L60 10L50 10L50 0L40 0z"/>
<path style="fill:#ffffff; stroke:none;" d="M50 0L50 10L60 10L60 0L50 0M80 0L80 10L90 10L90 0L80 0M20 20L20 80L80 80L80 20L20 20M0 30L0 60L10 60L10 30L0 30z"/>
<path style="fill:#000000; stroke:none;" d="M30 30L30 50L40 50L40 60L70 60L70 50L60 50L60 40L50 40L50 30L30 30z"/>
<path style="fill:#ffffff; stroke:none;" d="M90 50L90 80L100 80L100 50L90 50M0 70L0 90L10 90L10 70L0 70M10 90L10 100L30 100L30 90L10 90M50 90L50 100L80 100L80 90L50 90z"/>
</svg>
