<?xml version="1.0" standalone="yes"?>
<svg xmlns="http://www.w3.org/2000/svg" width="100" height="100">
<path style="fill:#000000; stroke:none;" d="M0 0L0 20L10 20L10 60L0 60L0 80L10 80L10 90L0 90L0 100L10 100L10 90L40 90L40 100L70 100L70 90L80 90L80 100L90 100L90 90L100 90L100 70L90 70L90 50L100 50L100 0L90 0L90 10L30 10L30 0L0 0z"/>
<path style="fill:#ffffff; stroke:none;" d="M30 0L30 10L90 10L90 0L30 0M0 20L0 60L10 60L10 20L0 20M20 20L20 80L80 80L80 20L20 20z"/>
<path style="fill:#000000; stroke:none;" d="M40 30L40 40L30 40L30 50L40 50L40 60L30 60L30 70L70 70L70 60L60 60L60 40L70 40L70 30L60 30L60 40L50 40L50 30L40 30z"/>
<path style="fill:#ffffff; stroke:none;" d="M90 50L90 70L100 70L100 50L90 50M0 80L0 90L10 90L10 80L0 80M10 90L10 100L40 100L40 90L10 90M70 90L70 100L80 100L80 90L70 90M90 90L90 100L100 100L100 90L90 90z"/>
</svg>
