<?xml version="1.0" standalone="yes"?>
<svg xmlns="http://www.w3.org/2000/svg" width="100" height="100">
<path style="fill:#ffffff; stroke:none;" d="M0 0L0 20L10 20L10 10L30 10L30 0L0 0z"/>
<path style="fill:#000000; stroke:none;" d="M30 0L30 10L10 10L10 20L0 20L0 30L10 30L10 40L0 40L0 70L10 70L10 80L0 80L0 100L10 100L10 90L40 90L40 100L70 100L70 90L90 90L90 70L100 70L100 50L90 50L90 30L100 30L100 10L80 10L80 0L70 0L70 10L60 10L60 0L50 0L50 10L40 10L40 0L30 0z"/>
<path style="fill:#ffffff; stroke:none;" d="M40 0L40 10L50 10L50 0L40 0M60 0L60 10L70 10L70 0L60 0M80 0L80 10L100 10L100 0L80 0M20 20L20 80L80 80L80 20L20 20M0 30L0 40L10 40L10 30L0 30z"/>
<path style="fill:#000000; stroke:none;" d="M50 30L50 40L40 40L40 60L30 60L30 70L40 70L40 60L50 60L50 70L70 70L70 60L60 60L60 50L70 50L70 40L60 40L60 30L50 30z"/>
<path style="fill:#ffffff; stroke:none;" d="M90 30L90 50L100 50L100 30L90 30M0 70L0 80L10 80L10 70L0 70M90 70L90 90L70 90L70 100L100 100L100 70L90 70M10 90L10 100L40 100L40 90L10 90z"/>
</svg>
