<?xml version="1.0" standalone="yes"?>
<svg xmlns="http://www.w3.org/2000/svg" width="100" height="100">
<path style="fill:#ffffff; stroke:none;" d="M0 0L0 10L20 10L20 0L0 0z"/>
<path style="fill:#000000; stroke:none;" d="M20 0L20 10L0 10L0 80L10 80L10 90L30 90L30 100L60 100L60 90L80 90L80 100L90 100L90 70L100 70L100 60L90 60L90 10L100 10L100 0L90 0L90 10L80 10L80 0L60 0L60 10L40 10L40 0L20 0z"/>
<path style="fill:#ffffff; stroke:none;" d="M40 0L40 10L60 10L60 0L40 0M80 0L80 10L90 10L90 0L80 0M90 10L90 60L100 60L100 10L90 10M20 20L20 80L80 80L80 20L20 20z"/>
<path style="fill:#000000; stroke:none;" d="M50 30L50 40L30 40L30 50L40 50L40 70L50 70L50 60L60 60L60 70L70 70L70 60L60 60L60 50L70 50L70 30L50 30z"/>
<path style="fill:#ffffff; stroke:none;" d="M90 70L90 100L100 100L100 70L90 70M0 80L0 100L30 100L30 90L10 90L10 80L0 80M60 90L60 100L80 100L80 90L60 90z"/>
</svg>
