<?xml version="1.0" standalone="yes"?>
<svg xmlns="http://www.w3.org/2000/svg" width="100" height="100">
<path style="fill:#ffffff; stroke:none;" d="M0 0L0 30L10 30L10 0L0 0z"/>
<path style="fill:#000000; stroke:none;" d="M10 0L10 30L0 30L0 50L10 50L10 90L0 90L0 100L10 100L10 90L90 90L90 100L100 100L100 80L90 80L90 50L100 50L100 30L90 30L90 20L100 20L100 0L90 0L90 10L60 10L60 0L10 0z"/>
<path style="fill:#ffffff; stroke:none;" d="M60 0L60 10L90 10L90 0L60 0M20 20L20 80L80 80L80 20L20 20M90 20L90 30L100 30L100 20L90 20z"/>
<path style="fill:#000000; stroke:none;" d="M30 30L30 40L40 40L40 50L30 50L30 70L40 70L40 60L50 60L50 70L60 70L60 60L70 60L70 50L60 50L60 40L70 40L70 30L60 30L60 40L50 40L50 30L30 30z"/>
<path style="fill:#ffffff; stroke:none;" d="M0 50L0 90L10 90L10 50L0 50M90 50L90 80L100 80L100 50L90 50M10 90L10 100L90 100L90 90L10 90z"/>
</svg>
