<?xml version="1.0" standalone="yes"?>
<svg xmlns="http://www.w3.org/2000/svg" width="100" height="100">
<path style="fill:#000000; stroke:none;" d="M0 0L0 30L10 30L10 40L0 40L0 70L10 70L10 80L0 80L0 90L10 90L10 100L30 100L30 90L60 90L60 100L70 100L70 90L100 90L100 80L90 80L90 50L100 50L100 30L90 30L90 10L100 10L100 0L0 0z"/>
<path style="fill:#ffffff; stroke:none;" d="M90 10L90 30L100 30L100 10L90 10M20 20L20 80L80 80L80 20L20 20M0 30L0 40L10 40L10 30L0 30z"/>
<path style="fill:#000000; stroke:none;" d="M30 30L30 50L40 50L40 60L30 60L30 70L40 70L40 60L50 60L50 70L60 70L60 40L70 40L70 30L30 30z"/>
<path style="fill:#ffffff; stroke:none;" d="M90 50L90 80L100 80L100 50L90 50M0 70L0 80L10 80L10 70L0 70M0 90L0 100L10 100L10 90L0 90M30 90L30 100L60 100L60 90L30 90M70 90L70 100L100 100L100 90L70 90z"/>
</svg>
