<?xml version="1.0" standalone="yes"?>
<svg xmlns="http://www.w3.org/2000/svg" width="100" height="100">
<path style="fill:#000000; stroke:none;" d="M0 0L0 10L10 10L10 40L0 40L0 60L10 60L10 70L0 70L0 100L10 100L10 90L20 90L20 100L60 100L60 90L80 90L80 100L100 100L100 90L90 90L90 80L100 80L100 60L90 60L90 10L100 10L100 0L50 0L50 10L40 10L40 0L0 0z"/>
<path style="fill:#ffffff; stroke:none;" d="M40 0L40 10L50 10L50 0L40 0M0 10L0 40L10 40L10 10L0 10M90 10L90 60L100 60L100 10L90 10M20 20L20 80L80 80L80 20L20 20z"/>
<path style="fill:#000000; stroke:none;" d="M40 30L40 40L30 40L30 70L50 70L50 60L60 60L60 50L70 50L70 30L60 30L60 40L50 40L50 30L40 30z"/>
<path style="fill:#ffffff; stroke:none;" d="M0 60L0 70L10 70L10 60L0 60M90 80L90 90L100 90L100 80L90 80M10 90L10 100L20 100L20 90L10 90M60 90L60 100L80 100L80 90L60 90z"/>
</svg>
