<?xml version="1.0" standalone="yes"?>
<svg xmlns="http://www.w3.org/2000/svg" width="100" height="100">
<path style="fill:#ffffff; stroke:none;" d="M0 0L0 50L10 50L10 0L0 0z"/>
<path style="fill:#000000; stroke:none;" d="M10 0L10 50L0 50L0 70L10 70L10 80L0 80L0 90L20 90L20 100L50 100L50 90L70 90L70 100L100 100L100 90L90 90L90 80L100 80L100 40L90 40L90 30L100 30L100 0L90 0L90 10L70 10L70 0L10 0z"/>
<path style="fill:#ffffff; stroke:none;" d="M70 0L70 10L90 10L90 0L70 0M20 20L20 80L80 80L80 20L20 20z"/>
<path style="fill:#000000; stroke:none;" d="M30 30L30 50L40 50L40 60L30 60L30 70L40 70L40 60L50 60L50 70L60 70L60 60L70 60L70 30L30 30z"/>
<path style="fill:#ffffff; stroke:none;" d="M90 30L90 40L100 40L100 30L90 30M0 70L0 80L10 80L10 70L0 70M90 80L90 90L100 90L100 80L90 80M0 90L0 100L20 100L20 90L0 90M50 90L50 100L70 100L70 90L50 90z"/>
</svg>
