<?xml version="1.0" standalone="yes"?>
<svg xmlns="http://www.w3.org/2000/svg" width="100" height="100">
<path style="fill:#ffffff; stroke:none;" d="M0 0L0 30L10 30L10 0L0 0z"/>
<path style="fill:#000000; stroke:none;" d="M10 0L10 30L0 30L0 40L10 40L10 60L0 60L0 80L10 80L10 100L60 100L60 90L70 90L70 100L100 100L100 80L90 80L90 60L100 60L100 40L90 40L90 10L70 10L70 0L60 0L60 10L40 10L40 0L30 0L30 10L20 10L20 0L10 0z"/>
<path style="fill:#ffffff; stroke:none;" d="M20 0L20 10L30 10L30 0L20 0M40 0L40 10L60 10L60 0L40 0M70 0L70 10L90 10L90 40L100 40L100 0L70 0M20 20L20 80L80 80L80 20L20 20z"/>
<path style="fill:#000000; stroke:none;" d="M60 30L60 40L40 40L40 60L30 60L30 70L40 70L40 60L50 60L50 70L70 70L70 60L60 60L60 40L70 40L70 30L60 30z"/>
<path style="fill:#ffffff; stroke:none;" d="M0 40L0 60L10 60L10 40L0 40M90 60L90 80L100 80L100 60L90 60M0 80L0 100L10 100L10 80L0 80M60 90L60 100L70 100L70 90L60 90z"/>
</svg>
