<?xml version="1.0" standalone="yes"?>
<svg xmlns="http://www.w3.org/2000/svg" width="100" height="100">
<path style="fill:#000000; stroke:none;" d="M0 0L0 50L10 50L10 80L0 80L0 90L20 90L20 100L40 100L40 90L60 90L60 100L80 100L80 90L90 90L90 100L100 100L100 90L90 90L90 70L100 70L100 40L90 40L90 30L100 30L100 10L70 10L70 0L60 0L60 10L40 10L40 0L30 0L30 10L20 10L20 0L0 0z"/>
<path style="fill:#ffffff; stroke:none;" d="M20 0L20 10L30 10L30 0L20 0M40 0L40 10L60 10L60 0L40 0M70 0L70 10L100 10L100 0L70 0M20 20L20 80L80 80L80 20L20 20z"/>
<path style="fill:#000000; stroke:none;" d="M40 30L40 40L30 40L30 50L40 50L40 60L50 60L50 70L60 70L60 40L50 40L50 30L40 30z"/>
<path style="fill:#ffffff; stroke:none;" d="M90 30L90 40L100 40L100 30L90 30M0 50L0 80L10 80L10 50L0 50M90 70L90 90L100 90L100 70L90 70M0 90L0 100L20 100L20 90L0 90M40 90L40 100L60 100L60 90L40 90M80 90L80 100L90 100L90 90L80 90z"/>
</svg>
