<?xml version="1.0" standalone="yes"?>
<svg xmlns="http://www.w3.org/2000/svg" width="100" height="100">
<path style="fill:#ffffff; stroke:none;" d="M0 0L0 30L10 30L10 10L30 10L30 0L0 0z"/>
<path style="fill:#000000; stroke:none;" d="M30 0L30 10L10 10L10 30L0 30L0 40L10 40L10 50L0 50L0 60L10 60L10 70L0 70L0 90L30 90L30 100L40 100L40 90L50 90L50 100L70 100L70 90L100 90L100 70L90 70L90 20L100 20L100 0L80 0L80 10L70 10L70 0L60 0L60 10L40 10L40 0L30 0z"/>
<path style="fill:#ffffff; stroke:none;" d="M40 0L40 10L60 10L60 0L40 0M70 0L70 10L80 10L80 0L70 0M20 20L20 80L80 80L80 20L20 20M90 20L90 70L100 70L100 20L90 20z"/>
<path style="fill:#000000; stroke:none;" d="M40 30L40 40L30 40L30 70L50 70L50 60L70 60L70 50L60 50L60 30L40 30z"/>
<path style="fill:#ffffff; stroke:none;" d="M0 40L0 50L10 50L10 40L0 40M0 60L0 70L10 70L10 60L0 60M0 90L0 100L30 100L30 90L0 90M40 90L40 100L50 100L50 90L40 90M70 90L70 100L100 100L100 90L70 90z"/>
</svg>
