<?xml version="1.0" standalone="yes"?>
<svg xmlns="http://www.w3.org/2000/svg" width="100" height="100">
<path style="fill:#ffffff; stroke:none;" d="M0 0L0 40L10 40L10 10L40 10L40 0L0 0z"/>
<path style="fill:#000000; stroke:none;" d="M40 0L40 10L10 10L10 40L0 40L0 70L10 70L10 80L0 80L0 100L10 100L10 90L30 90L30 100L60 100L60 90L80 90L80 100L90 100L90 70L100 70L100 60L90 60L90 50L100 50L100 40L90 40L90 30L100 30L100 10L90 10L90 0L70 0L70 10L50 10L50 0L40 0z"/>
<path style="fill:#ffffff; stroke:none;" d="M50 0L50 10L70 10L70 0L50 0M90 0L90 10L100 10L100 0L90 0M20 20L20 80L80 80L80 20L20 20z"/>
<path style="fill:#000000; stroke:none;" d="M40 30L40 40L30 40L30 60L50 60L50 70L70 70L70 50L60 50L60 40L70 40L70 30L60 30L60 40L50 40L50 30L40 30z"/>
<path style="fill:#ffffff; stroke:none;" d="M90 30L90 40L100 40L100 30L90 30M90 50L90 60L100 60L100 50L90 50M0 70L0 80L10 80L10 70L0 70M90 70L90 100L100 100L100 70L90 70M10 90L10 100L30 100L30 90L10 90M60 90L60 100L80 100L80 90L60 90z"/>
</svg>
