<?xml version="1.0" standalone="yes"?>
<svg xmlns="http://www.w3.org/2000/svg" width="100" height="100">
<path style="fill:#000000; stroke:none;" d="M0 0L0 40L10 40L10 60L0 60L0 100L10 100L10 90L30 90L30 100L50 100L50 90L70 90L70 100L90 100L90 90L100 90L100 80L90 80L90 70L100 70L100 30L90 30L90 20L100 20L100 0L90 0L90 10L60 10L60 0L50 0L50 10L30 10L30 0L0 0z"/>
<path style="fill:#ffffff; stroke:none;" d="M30 0L30 10L50 10L50 0L30 0M60 0L60 10L90 10L90 0L60 0M20 20L20 80L80 80L80 20L20 20M90 20L90 30L100 30L100 20L90 20z"/>
<path style="fill:#000000; stroke:none;" d="M40 30L40 40L30 40L30 60L40 60L40 70L60 70L60 40L70 40L70 30L40 30z"/>
<path style="fill:#ffffff; stroke:none;" d="M0 40L0 60L10 60L10 40L0 40M90 70L90 80L100 80L100 70L90 70M10 90L10 100L30 100L30 90L10 90M50 90L50 100L70 100L70 90L50 90M90 90L90 100L100 100L100 90L90 90z"/>
</svg>
