<?xml version="1.0" standalone="yes"?>
<svg xmlns="http://www.w3.org/2000/svg" width="100" height="100">
<path style="fill:#000000; stroke:none;" d="M0 0L0 10L10 10L10 40L0 40L0 50L10 50L10 70L0 70L0 80L10 80L10 100L20 100L20 90L60 90L60 100L100 100L100 90L90 90L90 40L100 40L100 20L90 20L90 10L80 10L80 0L0 0z"/>
<path style="fill:#ffffff; stroke:none;" d="M80 0L80 10L90 10L90 20L100 20L100 0L80 0M0 10L0 40L10 40L10 10L0 10M20 20L20 80L80 80L80 20L20 20z"/>
<path style="fill:#000000; stroke:none;" d="M30 40L30 60L60 60L60 70L70 70L70 60L60 60L60 50L70 50L70 40L30 40z"/>
<path style="fill:#ffffff; stroke:none;" d="M90 40L90 90L100 90L100 40L90 40M0 50L0 70L10 70L10 50L0 50M0 80L0 100L10 100L10 80L0 80M20 90L20 100L60 100L60 90L20 90z"/>
</svg>
