<?xml version="1.0" standalone="yes"?>
<svg xmlns="http://www.w3.org/2000/svg" width="100" height="100">
<path style="fill:#ffffff; stroke:none;" d="M0 0L0 10L30 10L30 0L0 0z"/>
<path style="fill:#000000; stroke:none;" d="M30 0L30 10L0 10L0 20L10 20L10 40L0 40L0 60L10 60L10 90L0 90L0 100L20 100L20 90L40 90L40 100L50 100L50 90L80 90L80 100L100 100L100 90L90 90L90 70L100 70L100 50L90 50L90 30L100 30L100 20L90 20L90 10L100 10L100 0L70 0L70 10L50 10L50 0L30 0z"/>
<path style="fill:#ffffff; stroke:none;" d="M50 0L50 10L70 10L70 0L50 0M90 10L90 20L100 20L100 10L90 10M0 20L0 40L10 40L10 20L0 20M20 20L20 80L80 80L80 20L20 20z"/>
<path style="fill:#000000; stroke:none;" d="M30 30L30 60L60 60L60 40L40 40L40 30L30 30z"/>
<path style="fill:#ffffff; stroke:none;" d="M90 30L90 50L100 50L100 30L90 30M0 60L0 90L10 90L10 60L0 60M90 70L90 90L100 90L100 70L90 70M20 90L20 100L40 100L40 90L20 90M50 90L50 100L80 100L80 90L50 90z"/>
</svg>
