<?xml version="1.0" standalone="yes"?>
<svg xmlns="http://www.w3.org/2000/svg" width="100" height="100">
<path style="fill:#ffffff; stroke:none;" d="M0 0L0 20L10 20L10 10L20 10L20 0L0 0z"/>
<path style="fill:#000000; stroke:none;" d="M20 0L20 10L10 10L10 20L0 20L0 60L10 60L10 70L0 70L0 80L10 80L10 90L0 90L0 100L30 100L30 90L40 90L40 100L60 100L60 90L90 90L90 80L100 80L100 60L90 60L90 50L100 50L100 30L90 30L90 20L100 20L100 0L80 0L80 10L70 10L70 0L60 0L60 10L50 10L50 0L40 0L40 10L30 10L30 0L20 0z"/>
<path style="fill:#ffffff; stroke:none;" d="M30 0L30 10L40 10L40 0L30 0M50 0L50 10L60 10L60 0L50 0M70 0L70 10L80 10L80 0L70 0M20 20L20 80L80 80L80 20L20 20M90 20L90 30L100 30L100 20L90 20z"/>
<path style="fill:#000000; stroke:none;" d="M40 30L40 50L30 50L30 70L50 70L50 60L60 60L60 70L70 70L70 40L50 40L50 30L40 30z"/>
<path style="fill:#ffffff; stroke:none;" d="M90 50L90 60L100 60L100 50L90 50M0 60L0 70L10 70L10 60L0 60M0 80L0 90L10 90L10 80L0 80M90 80L90 90L60 90L60 100L100 100L100 80L90 80M30 90L30 100L40 100L40 90L30 90z"/>
</svg>
