<?xml version="1.0" standalone="yes"?>
<svg xmlns="http://www.w3.org/2000/svg" width="100" height="100">
<path style="fill:#000000; stroke:none;" d="M0 0L0 70L10 70L10 90L20 90L20 100L40 100L40 90L50 90L50 100L60 100L60 90L70 90L70 100L100 100L100 90L90 90L90 70L100 70L100 50L90 50L90 30L100 30L100 20L90 20L90 10L100 10L100 0L80 0L80 10L70 10L70 0L60 0L60 10L40 10L40 0L0 0z"/>
<path style="fill:#ffffff; stroke:none;" d="M40 0L40 10L60 10L60 0L40 0M70 0L70 10L80 10L80 0L70 0M90 10L90 20L100 20L100 10L90 10M20 20L20 80L80 80L80 20L20 20z"/>
<path style="fill:#000000; stroke:none;" d="M30 30L30 70L40 70L40 60L60 60L60 70L70 70L70 60L60 60L60 50L70 50L70 40L60 40L60 30L50 30L50 40L40 40L40 30L30 30z"/>
<path style="fill:#ffffff; stroke:none;" d="M90 30L90 50L100 50L100 30L90 30M0 70L0 100L20 100L20 90L10 90L10 70L0 70M90 70L90 90L100 90L100 70L90 70M40 90L40 100L50 100L50 90L40 90M60 90L60 100L70 100L70 90L60 90z"/>
</svg>
