<?xml version="1.0" standalone="yes"?>
<svg xmlns="http://www.w3.org/2000/svg" width="100" height="100">
<path style="fill:#ffffff; stroke:none;" d="M0 0L0 20L10 20L10 0L0 0z"/>
<path style="fill:#000000; stroke:none;" d="M10 0L10 20L0 20L0 60L10 60L10 70L0 70L0 80L10 80L10 90L0 90L0 100L60 100L60 90L80 90L80 100L100 100L100 80L90 80L90 50L100 50L100 30L90 30L90 10L100 10L100 0L80 0L80 10L70 10L70 0L60 0L60 10L50 10L50 0L40 0L40 10L30 10L30 0L10 0z"/>
<path style="fill:#ffffff; stroke:none;" d="M30 0L30 10L40 10L40 0L30 0M50 0L50 10L60 10L60 0L50 0M70 0L70 10L80 10L80 0L70 0M90 10L90 30L100 30L100 10L90 10M20 20L20 80L80 80L80 20L20 20z"/>
<path style="fill:#000000; stroke:none;" d="M40 30L40 60L30 60L30 70L40 70L40 60L70 60L70 40L60 40L60 30L40 30z"/>
<path style="fill:#ffffff; stroke:none;" d="M90 50L90 80L100 80L100 50L90 50M0 60L0 70L10 70L10 60L0 60M0 80L0 90L10 90L10 80L0 80M60 90L60 100L80 100L80 90L60 90z"/>
</svg>
