<?xml version="1.0" standalone="yes"?>
<svg xmlns="http://www.w3.org/2000/svg" width="100" height="100">
<path style="fill:#ffffff; stroke:none;" d="M0 0L0 30L10 30L10 0L0 0z"/>
<path style="fill:#000000; stroke:none;" d="M10 0L10 30L0 30L0 40L10 40L10 50L0 50L0 70L10 70L10 80L0 80L0 100L30 100L30 90L80 90L80 100L100 100L100 40L90 40L90 10L100 10L100 0L90 0L90 10L60 10L60 0L10 0z"/>
<path style="fill:#ffffff; stroke:none;" d="M60 0L60 10L90 10L90 0L60 0M90 10L90 40L100 40L100 10L90 10M20 20L20 80L80 80L80 20L20 20z"/>
<path style="fill:#000000; stroke:none;" d="M30 30L30 40L40 40L40 50L30 50L30 60L40 60L40 70L70 70L70 50L60 50L60 40L70 40L70 30L30 30z"/>
<path style="fill:#ffffff; stroke:none;" d="M0 40L0 50L10 50L10 40L0 40M0 70L0 80L10 80L10 70L0 70M30 90L30 100L80 100L80 90L30 90z"/>
</svg>
