<?xml version="1.0" standalone="yes"?>
<svg xmlns="http://www.w3.org/2000/svg" width="100" height="100">
<path style="fill:#000000; stroke:none;" d="M0 0L0 50L10 50L10 60L0 60L0 80L10 80L10 100L20 100L20 90L40 90L40 100L50 100L50 90L90 90L90 100L100 100L100 60L90 60L90 40L100 40L100 30L90 30L90 10L100 10L100 0L70 0L70 10L40 10L40 0L20 0L20 10L10 10L10 0L0 0z"/>
<path style="fill:#ffffff; stroke:none;" d="M10 0L10 10L20 10L20 0L10 0M40 0L40 10L70 10L70 0L40 0M90 10L90 30L100 30L100 10L90 10M20 20L20 80L80 80L80 20L20 20z"/>
<path style="fill:#000000; stroke:none;" d="M30 30L30 40L40 40L40 60L50 60L50 70L70 70L70 50L60 50L60 30L30 30z"/>
<path style="fill:#ffffff; stroke:none;" d="M90 40L90 60L100 60L100 40L90 40M0 50L0 60L10 60L10 50L0 50M0 80L0 100L10 100L10 80L0 80M20 90L20 100L40 100L40 90L20 90M50 90L50 100L90 100L90 90L50 90z"/>
</svg>
