<?xml version="1.0" standalone="yes"?>
<svg xmlns="http://www.w3.org/2000/svg" width="100" height="100">
<path style="fill:#ffffff; stroke:none;" d="M0 0L0 10L20 10L20 0L0 0z"/>
<path style="fill:#000000; stroke:none;" d="M20 0L20 10L0 10L0 20L10 20L10 60L0 60L0 80L10 80L10 90L0 90L0 100L50 100L50 90L70 90L70 100L90 100L90 90L100 90L100 80L90 80L90 70L100 70L100 60L90 60L90 30L100 30L100 20L90 20L90 10L100 10L100 0L70 0L70 10L60 10L60 0L20 0z"/>
<path style="fill:#ffffff; stroke:none;" d="M60 0L60 10L70 10L70 0L60 0M90 10L90 20L100 20L100 10L90 10M0 20L0 60L10 60L10 20L0 20M20 20L20 80L80 80L80 20L20 20z"/>
<path style="fill:#000000; stroke:none;" d="M40 30L40 50L30 50L30 60L40 60L40 70L70 70L70 40L50 40L50 30L40 30z"/>
<path style="fill:#ffffff; stroke:none;" d="M90 30L90 60L100 60L100 30L90 30M90 70L90 80L100 80L100 70L90 70M0 80L0 90L10 90L10 80L0 80M50 90L50 100L70 100L70 90L50 90M90 90L90 100L100 100L100 90L90 90z"/>
</svg>
