<?xml version="1.0" standalone="yes"?>
<svg xmlns="http://www.w3.org/2000/svg" width="100" height="100">
<path style="fill:#000000; stroke:none;" d="M0 0L0 10L10 10L10 20L0 20L0 30L10 30L10 50L0 50L0 60L10 60L10 70L0 70L0 90L50 90L50 100L70 100L70 90L100 90L100 70L90 70L90 40L100 40L100 30L90 30L90 0L80 0L80 10L70 10L70 0L0 0z"/>
<path style="fill:#ffffff; stroke:none;" d="M70 0L70 10L80 10L80 0L70 0M90 0L90 30L100 30L100 0L90 0M0 10L0 20L10 20L10 10L0 10M20 20L20 80L80 80L80 20L20 20M0 30L0 50L10 50L10 30L0 30z"/>
<path style="fill:#000000; stroke:none;" d="M50 30L50 40L40 40L40 60L50 60L50 70L70 70L70 50L60 50L60 30L50 30z"/>
<path style="fill:#ffffff; stroke:none;" d="M90 40L90 70L100 70L100 40L90 40M0 60L0 70L10 70L10 60L0 60M0 90L0 100L50 100L50 90L0 90M70 90L70 100L100 100L100 90L70 90z"/>
</svg>
