<?xml version="1.0" standalone="yes"?>
<svg xmlns="http://www.w3.org/2000/svg" width="100" height="100">
<path style="fill:#ffffff; stroke:none;" d="M0 0L0 10L10 10L10 0L0 0z"/>
<path style="fill:#000000; stroke:none;" d="M10 0L10 10L0 10L0 30L10 30L10 100L30 100L30 90L40 90L40 100L60 100L60 90L70 90L70 100L90 100L90 70L100 70L100 40L90 40L90 20L100 20L100 0L70 0L70 10L50 10L50 0L10 0z"/>
<path style="fill:#ffffff; stroke:none;" d="M50 0L50 10L70 10L70 0L50 0M20 20L20 80L80 80L80 20L20 20M90 20L90 40L100 40L100 20L90 20M0 30L0 100L10 100L10 30L0 30z"/>
<path style="fill:#000000; stroke:none;" d="M40 30L40 40L30 40L30 50L40 50L40 60L30 60L30 70L40 70L40 60L60 60L60 70L70 70L70 40L50 40L50 30L40 30z"/>
<path style="fill:#ffffff; stroke:none;" d="M90 70L90 100L100 100L100 70L90 70M30 90L30 100L40 100L40 90L30 90M60 90L60 100L70 100L70 90L60 90z"/>
</svg>
