<?xml version="1.0" standalone="yes"?>
<svg xmlns="http://www.w3.org/2000/svg" width="100" height="100">
<path style="fill:#ffffff; stroke:none;" d="M0 0L0 60L10 60L10 0L0 0z"/>
<path style="fill:#000000; stroke:none;" d="M10 0L10 60L0 60L0 70L10 70L10 100L50 100L50 90L70 90L70 100L90 100L90 90L100 90L100 60L90 60L90 20L100 20L100 0L90 0L90 10L80 10L80 0L60 0L60 10L30 10L30 0L10 0z"/>
<path style="fill:#ffffff; stroke:none;" d="M30 0L30 10L60 10L60 0L30 0M80 0L80 10L90 10L90 0L80 0M20 20L20 80L80 80L80 20L20 20M90 20L90 60L100 60L100 20L90 20z"/>
<path style="fill:#000000; stroke:none;" d="M40 30L40 50L30 50L30 60L40 60L40 70L50 70L50 60L60 60L60 40L70 40L70 30L40 30z"/>
<path style="fill:#ffffff; stroke:none;" d="M0 70L0 100L10 100L10 70L0 70M50 90L50 100L70 100L70 90L50 90M90 90L90 100L100 100L100 90L90 90z"/>
</svg>
