<?xml version="1.0" standalone="yes"?>
<svg xmlns="http://www.w3.org/2000/svg" width="100" height="100">
<path style="fill:#ffffff; stroke:none;" d="M0 0L0 30L10 30L10 10L20 10L20 0L0 0z"/>
<path style="fill:#000000; stroke:none;" d="M20 0L20 10L10 10L10 30L0 30L0 40L10 40L10 70L0 70L0 80L10 80L10 90L0 90L0 100L10 100L10 90L50 90L50 100L60 100L60 90L70 90L70 100L90 100L90 90L100 90L100 60L90 60L90 30L100 30L100 0L90 0L90 10L80 10L80 0L70 0L70 10L50 10L50 0L40 0L40 10L30 10L30 0L20 0z"/>
<path style="fill:#ffffff; stroke:none;" d="M30 0L30 10L40 10L40 0L30 0M50 0L50 10L70 10L70 0L50 0M80 0L80 10L90 10L90 0L80 0M20 20L20 80L80 80L80 20L20 20z"/>
<path style="fill:#000000; stroke:none;" d="M40 30L40 40L30 40L30 60L40 60L40 70L60 70L60 30L40 30z"/>
<path style="fill:#ffffff; stroke:none;" d="M90 30L90 60L100 60L100 30L90 30M0 40L0 70L10 70L10 40L0 40M0 80L0 90L10 90L10 80L0 80M10 90L10 100L50 100L50 90L10 90M60 90L60 100L70 100L70 90L60 90M90 90L90 100L100 100L100 90L90 90z"/>
</svg>
