<?xml version="1.0" standalone="yes"?>
<svg xmlns="http://www.w3.org/2000/svg" width="100" height="100">
<path style="fill:#000000; stroke:none;" d="M0 0L0 10L10 10L10 40L0 40L0 90L10 90L10 100L20 100L20 90L60 90L60 100L90 100L90 90L100 90L100 80L90 80L90 60L100 60L100 40L90 40L90 20L100 20L100 0L80 0L80 10L60 10L60 0L20 0L20 10L10 10L10 0L0 0z"/>
<path style="fill:#ffffff; stroke:none;" d="M10 0L10 10L20 10L20 0L10 0M60 0L60 10L80 10L80 0L60 0M0 10L0 40L10 40L10 10L0 10M20 20L20 80L80 80L80 20L20 20M90 20L90 40L100 40L100 20L90 20z"/>
<path style="fill:#000000; stroke:none;" d="M30 30L30 50L40 50L40 70L50 70L50 60L60 60L60 50L70 50L70 40L40 40L40 30L30 30z"/>
<path style="fill:#ffffff; stroke:none;" d="M90 60L90 80L100 80L100 60L90 60M0 90L0 100L10 100L10 90L0 90M20 90L20 100L60 100L60 90L20 90M90 90L90 100L100 100L100 90L90 90z"/>
</svg>
