<?xml version="1.0" standalone="yes"?>
<svg xmlns="http://www.w3.org/2000/svg" width="100" height="100">
<path style="fill:#000000; stroke:none;" d="M0 0L0 50L10 50L10 90L0 90L0 100L10 100L10 90L40 90L40 100L60 100L60 90L70 90L70 100L90 100L90 70L100 70L100 30L90 30L90 0L60 0L60 10L50 10L50 0L40 0L40 10L20 10L20 0L0 0z"/>
<path style="fill:#ffffff; stroke:none;" d="M20 0L20 10L40 10L40 0L20 0M50 0L50 10L60 10L60 0L50 0M90 0L90 30L100 30L100 0L90 0M20 20L20 80L80 80L80 20L20 20z"/>
<path style="fill:#000000; stroke:none;" d="M50 30L50 40L40 40L40 50L30 50L30 70L70 70L70 40L60 40L60 30L50 30z"/>
<path style="fill:#ffffff; stroke:none;" d="M0 50L0 90L10 90L10 50L0 50M90 70L90 100L100 100L100 70L90 70M10 90L10 100L40 100L40 90L10 90M60 90L60 100L70 100L70 90L60 90z"/>
</svg>
