<?xml version="1.0" standalone="yes"?>
<svg xmlns="http://www.w3.org/2000/svg" width="100" height="100">
<path style="fill:#ffffff; stroke:none;" d="M0 0L0 100L50 100L50 90L10 90L10 10L30 10L30 0L0 0z"/>
<path style="fill:#000000; stroke:none;" d="M30 0L30 10L10 10L10 90L50 90L50 100L60 100L60 90L90 90L90 100L100 100L100 80L90 80L90 70L100 70L100 60L90 60L90 40L100 40L100 30L90 30L90 10L100 10L100 0L30 0z"/>
<path style="fill:#ffffff; stroke:none;" d="M90 10L90 30L100 30L100 10L90 10M20 20L20 80L80 80L80 20L20 20z"/>
<path style="fill:#000000; stroke:none;" d="M30 30L30 70L40 70L40 60L60 60L60 50L70 50L70 30L30 30z"/>
<path style="fill:#ffffff; stroke:none;" d="M90 40L90 60L100 60L100 40L90 40M90 70L90 80L100 80L100 70L90 70M60 90L60 100L90 100L90 90L60 90z"/>
</svg>
