<?xml version="1.0" standalone="yes"?>
<svg xmlns="http://www.w3.org/2000/svg" width="100" height="100">
<path style="fill:#ffffff; stroke:none;" d="M0 0L0 10L20 10L20 0L0 0z"/>
<path style="fill:#000000; stroke:none;" d="M20 0L20 10L0 10L0 40L10 40L10 60L0 60L0 80L10 80L10 90L0 90L0 100L70 100L70 90L90 90L90 80L100 80L100 70L90 70L90 20L100 20L100 0L70 0L70 10L30 10L30 0L20 0z"/>
<path style="fill:#ffffff; stroke:none;" d="M30 0L30 10L70 10L70 0L30 0M20 20L20 80L80 80L80 20L20 20M90 20L90 70L100 70L100 20L90 20z"/>
<path style="fill:#000000; stroke:none;" d="M30 30L30 40L40 40L40 50L30 50L30 70L60 70L60 50L70 50L70 30L30 30z"/>
<path style="fill:#ffffff; stroke:none;" d="M0 40L0 60L10 60L10 40L0 40M0 80L0 90L10 90L10 80L0 80M90 80L90 90L70 90L70 100L100 100L100 80L90 80z"/>
</svg>
