<?xml version="1.0" standalone="yes"?>
<svg xmlns="http://www.w3.org/2000/svg" width="100" height="100">
<path style="fill:#000000; stroke:none;" d="M0 0L0 10L10 10L10 70L0 70L0 90L40 90L40 100L50 100L50 90L60 90L60 100L80 100L80 90L90 90L90 100L100 100L100 60L90 60L90 30L100 30L100 10L90 10L90 0L50 0L50 10L40 10L40 0L30 0L30 10L10 10L10 0L0 0z"/>
<path style="fill:#ffffff; stroke:none;" d="M10 0L10 10L30 10L30 0L10 0M40 0L40 10L50 10L50 0L40 0M90 0L90 10L100 10L100 0L90 0M0 10L0 70L10 70L10 10L0 10M20 20L20 80L80 80L80 20L20 20z"/>
<path style="fill:#000000; stroke:none;" d="M40 30L40 60L60 60L60 70L70 70L70 40L50 40L50 30L40 30z"/>
<path style="fill:#ffffff; stroke:none;" d="M90 30L90 60L100 60L100 30L90 30M0 90L0 100L40 100L40 90L0 90M50 90L50 100L60 100L60 90L50 90M80 90L80 100L90 100L90 90L80 90z"/>
</svg>
