<?xml version="1.0" standalone="yes"?>
<svg xmlns="http://www.w3.org/2000/svg" width="100" height="100">
<path style="fill:#000000; stroke:none;" d="M0 0L0 10L10 10L10 40L0 40L0 60L10 60L10 70L0 70L0 100L10 100L10 90L20 90L20 100L40 100L40 90L50 90L50 100L60 100L60 90L80 90L80 100L100 100L100 90L90 90L90 80L100 80L100 60L90 60L90 30L100 30L100 20L90 20L90 0L70 0L70 10L60 10L60 0L0 0z"/>
<path style="fill:#ffffff; stroke:none;" d="M60 0L60 10L70 10L70 0L60 0M90 0L90 20L100 20L100 0L90 0M0 10L0 40L10 40L10 10L0 10M20 20L20 80L80 80L80 20L20 20z"/>
<path style="fill:#000000; stroke:none;" d="M50 30L50 40L40 40L40 50L30 50L30 70L40 70L40 60L50 60L50 70L70 70L70 30L50 30z"/>
<path style="fill:#ffffff; stroke:none;" d="M90 30L90 60L100 60L100 30L90 30M0 60L0 70L10 70L10 60L0 60M90 80L90 90L100 90L100 80L90 80M10 90L10 100L20 100L20 90L10 90M40 90L40 100L50 100L50 90L40 90M60 90L60 100L80 100L80 90L60 90z"/>
</svg>
