<?xml version="1.0" standalone="yes"?>
<svg xmlns="http://www.w3.org/2000/svg" width="100" height="100">
<path style="fill:#ffffff; stroke:none;" d="M0 0L0 30L10 30L10 10L30 10L30 0L0 0z"/>
<path style="fill:#000000; stroke:none;" d="M30 0L30 10L10 10L10 30L0 30L0 40L10 40L10 80L0 80L0 100L10 100L10 90L20 90L20 100L30 100L30 90L50 90L50 100L60 100L60 90L70 90L70 100L80 100L80 90L90 90L90 80L100 80L100 70L90 70L90 40L100 40L100 30L90 30L90 20L100 20L100 10L90 10L90 0L80 0L80 10L60 10L60 0L50 0L50 10L40 10L40 0L30 0z"/>
<path style="fill:#ffffff; stroke:none;" d="M40 0L40 10L50 10L50 0L40 0M60 0L60 10L80 10L80 0L60 0M90 0L90 10L100 10L100 0L90 0M20 20L20 80L80 80L80 20L20 20M90 20L90 30L100 30L100 20L90 20z"/>
<path style="fill:#000000; stroke:none;" d="M40 30L40 50L30 50L30 70L50 70L50 60L60 60L60 70L70 70L70 60L60 60L60 40L70 40L70 30L40 30z"/>
<path style="fill:#ffffff; stroke:none;" d="M0 40L0 80L10 80L10 40L0 40M90 40L90 70L100 70L100 40L90 40M90 80L90 90L80 90L80 100L100 100L100 80L90 80M10 90L10 100L20 100L20 90L10 90M30 90L30 100L50 100L50 90L30 90M60 90L60 100L70 100L70 90L60 90z"/>
</svg>
