<?xml version="1.0" standalone="yes"?>
<svg xmlns="http://www.w3.org/2000/svg" width="100" height="100">
<path style="fill:#000000; stroke:none;" d="M0 0L0 20L10 20L10 40L0 40L0 50L10 50L10 70L0 70L0 80L10 80L10 90L50 90L50 100L60 100L60 90L80 90L80 100L90 100L90 90L100 90L100 80L90 80L90 70L100 70L100 60L90 60L90 50L100 50L100 40L90 40L90 20L100 20L100 10L80 10L80 0L70 0L70 10L50 10L50 0L30 0L30 10L10 10L10 0L0 0z"/>
<path style="fill:#ffffff; stroke:none;" d="M10 0L10 10L30 10L30 0L10 0M50 0L50 10L70 10L70 0L50 0M80 0L80 10L100 10L100 0L80 0M0 20L0 40L10 40L10 20L0 20M20 20L20 80L80 80L80 20L20 20M90 20L90 40L100 40L100 20L90 20z"/>
<path style="fill:#000000; stroke:none;" d="M40 30L40 40L30 40L30 60L50 60L50 70L60 70L60 60L70 60L70 50L60 50L60 40L70 40L70 30L60 30L60 40L50 40L50 30L40 30z"/>
<path style="fill:#ffffff; stroke:none;" d="M0 50L0 70L10 70L10 50L0 50M90 50L90 60L100 60L100 50L90 50M90 70L90 80L100 80L100 70L90 70M0 80L0 100L50 100L50 90L10 90L10 80L0 80M60 90L60 100L80 100L80 90L60 90M90 90L90 100L100 100L100 90L90 90z"/>
</svg>
