<?xml version="1.0" standalone="yes"?>
<svg xmlns="http://www.w3.org/2000/svg" width="100" height="100">
<path style="fill:#ffffff; stroke:none;" d="M0 0L0 20L10 20L10 0L0 0z"/>
<path style="fill:#000000; stroke:none;" d="M10 0L10 20L0 20L0 80L10 80L10 100L20 100L20 90L50 90L50 100L80 100L80 90L90 90L90 70L100 70L100 60L90 60L90 50L100 50L100 30L90 30L90 0L60 0L60 10L30 10L30 0L10 0z"/>
<path style="fill:#ffffff; stroke:none;" d="M30 0L30 10L60 10L60 0L30 0M90 0L90 30L100 30L100 0L90 0M20 20L20 80L80 80L80 20L20 20z"/>
<path style="fill:#000000; stroke:none;" d="M40 30L40 40L30 40L30 50L40 50L40 60L60 60L60 70L70 70L70 50L60 50L60 40L70 40L70 30L60 30L60 40L50 40L50 30L40 30z"/>
<path style="fill:#ffffff; stroke:none;" d="M90 50L90 60L100 60L100 50L90 50M90 70L90 90L80 90L80 100L100 100L100 70L90 70M0 80L0 100L10 100L10 80L0 80M20 90L20 100L50 100L50 90L20 90z"/>
</svg>
