<?xml version="1.0" standalone="yes"?>
<svg xmlns="http://www.w3.org/2000/svg" width="100" height="100">
<path style="fill:#000000; stroke:none;" d="M0 0L0 40L10 40L10 90L0 90L0 100L20 100L20 90L70 90L70 100L80 100L80 90L90 90L90 10L70 10L70 0L0 0z"/>
<path style="fill:#ffffff; stroke:none;" d="M70 0L70 10L90 10L90 90L80 90L80 100L100 100L100 0L70 0M20 20L20 80L80 80L80 20L20 20z"/>
<path style="fill:#000000; stroke:none;" d="M40 30L40 40L30 40L30 50L40 50L40 70L70 70L70 50L60 50L60 40L50 40L50 30L40 30z"/>
<path style="fill:#ffffff; stroke:none;" d="M0 40L0 90L10 90L10 40L0 40M20 90L20 100L70 100L70 90L20 90z"/>
</svg>
