<?xml version="1.0" standalone="yes"?>
<svg xmlns="http://www.w3.org/2000/svg" width="100" height="100">
<path style="fill:#000000; stroke:none;" d="M0 0L0 40L10 40L10 50L0 50L0 70L10 70L10 90L20 90L20 100L40 100L40 90L50 90L50 100L60 100L60 90L100 90L100 70L90 70L90 0L50 0L50 10L30 10L30 0L20 0L20 10L10 10L10 0L0 0z"/>
<path style="fill:#ffffff; stroke:none;" d="M10 0L10 10L20 10L20 0L10 0M30 0L30 10L50 10L50 0L30 0M90 0L90 70L100 70L100 0L90 0M20 20L20 80L80 80L80 20L20 20z"/>
<path style="fill:#000000; stroke:none;" d="M50 30L50 40L30 40L30 70L40 70L40 60L50 60L50 70L60 70L60 30L50 30z"/>
<path style="fill:#ffffff; stroke:none;" d="M0 40L0 50L10 50L10 40L0 40M0 70L0 100L20 100L20 90L10 90L10 70L0 70M40 90L40 100L50 100L50 90L40 90M60 90L60 100L100 100L100 90L60 90z"/>
</svg>
