<?xml version="1.0" standalone="yes"?>
<svg xmlns="http://www.w3.org/2000/svg" width="100" height="100">
<path style="fill:#000000; stroke:none;" d="M0 0L0 10L10 10L10 30L0 30L0 70L10 70L10 90L0 90L0 100L10 100L10 90L40 90L40 100L50 100L50 90L90 90L90 50L100 50L100 40L90 40L90 30L100 30L100 0L90 0L90 10L80 10L80 0L70 0L70 10L60 10L60 0L0 0z"/>
<path style="fill:#ffffff; stroke:none;" d="M60 0L60 10L70 10L70 0L60 0M80 0L80 10L90 10L90 0L80 0M0 10L0 30L10 30L10 10L0 10M20 20L20 80L80 80L80 20L20 20M90 30L90 40L100 40L100 30L90 30z"/>
<path style="fill:#000000; stroke:none;" d="M30 40L30 70L50 70L50 60L70 60L70 40L30 40z"/>
<path style="fill:#ffffff; stroke:none;" d="M90 50L90 90L50 90L50 100L100 100L100 50L90 50M0 70L0 90L10 90L10 70L0 70M10 90L10 100L40 100L40 90L10 90z"/>
</svg>
