<?xml version="1.0" standalone="yes"?>
<svg xmlns="http://www.w3.org/2000/svg" width="100" height="100">
<path style="fill:#ffffff; stroke:none;" d="M0 0L0 10L40 10L40 0L0 0z"/>
<path style="fill:#000000; stroke:none;" d="M40 0L40 10L0 10L0 50L10 50L10 70L0 70L0 100L20 100L20 90L40 90L40 100L50 100L50 90L60 90L60 100L70 100L70 90L90 90L90 100L100 100L100 60L90 60L90 50L100 50L100 30L90 30L90 20L100 20L100 10L90 10L90 0L80 0L80 10L70 10L70 0L60 0L60 10L50 10L50 0L40 0z"/>
<path style="fill:#ffffff; stroke:none;" d="M50 0L50 10L60 10L60 0L50 0M70 0L70 10L80 10L80 0L70 0M90 0L90 10L100 10L100 0L90 0M20 20L20 80L80 80L80 20L20 20M90 20L90 30L100 30L100 20L90 20z"/>
<path style="fill:#000000; stroke:none;" d="M40 30L40 50L30 50L30 70L40 70L40 60L50 60L50 70L60 70L60 60L70 60L70 50L60 50L60 40L70 40L70 30L40 30z"/>
<path style="fill:#ffffff; stroke:none;" d="M0 50L0 70L10 70L10 50L0 50M90 50L90 60L100 60L100 50L90 50M20 90L20 100L40 100L40 90L20 90M50 90L50 100L60 100L60 90L50 90M70 90L70 100L90 100L90 90L70 90z"/>
</svg>
