<?xml version="1.0" standalone="yes"?>
<svg xmlns="http://www.w3.org/2000/svg" width="100" height="100">
<path style="fill:#ffffff; stroke:none;" d="M0 0L0 10L30 10L30 0L0 0z"/>
<path style="fill:#000000; stroke:none;" d="M30 0L30 10L0 10L0 30L10 30L10 40L0 40L0 50L10 50L10 100L20 100L20 90L60 90L60 100L80 100L80 90L100 90L100 60L90 60L90 40L100 40L100 30L90 30L90 20L100 20L100 10L40 10L40 0L30 0z"/>
<path style="fill:#ffffff; stroke:none;" d="M40 0L40 10L100 10L100 0L40 0M20 20L20 80L80 80L80 20L20 20M90 20L90 30L100 30L100 20L90 20M0 30L0 40L10 40L10 30L0 30z"/>
<path style="fill:#000000; stroke:none;" d="M30 30L30 50L40 50L40 60L30 60L30 70L70 70L70 40L50 40L50 30L30 30z"/>
<path style="fill:#ffffff; stroke:none;" d="M90 40L90 60L100 60L100 40L90 40M0 50L0 100L10 100L10 50L0 50M20 90L20 100L60 100L60 90L20 90M80 90L80 100L100 100L100 90L80 90z"/>
</svg>
