<?xml version="1.0" standalone="yes"?>
<svg xmlns="http://www.w3.org/2000/svg" width="100" height="100">
<path style="fill:#000000; stroke:none;" d="M0 0L0 10L10 10L10 60L0 60L0 70L10 70L10 90L0 90L0 100L10 100L10 90L20 90L20 100L70 100L70 90L80 90L80 100L90 100L90 70L100 70L100 0L70 0L70 10L30 10L30 0L0 0z"/>
<path style="fill:#ffffff; stroke:none;" d="M30 0L30 10L70 10L70 0L30 0M0 10L0 60L10 60L10 10L0 10M20 20L20 80L80 80L80 20L20 20z"/>
<path style="fill:#000000; stroke:none;" d="M30 30L30 60L60 60L60 70L70 70L70 60L60 60L60 50L70 50L70 40L50 40L50 30L30 30z"/>
<path style="fill:#ffffff; stroke:none;" d="M0 70L0 90L10 90L10 70L0 70M90 70L90 100L100 100L100 70L90 70M10 90L10 100L20 100L20 90L10 90M70 90L70 100L80 100L80 90L70 90z"/>
</svg>
