<?xml version="1.0" standalone="yes"?>
<svg xmlns="http://www.w3.org/2000/svg" width="100" height="100">
<path style="fill:#000000; stroke:none;" d="M0 0L0 20L10 20L10 40L0 40L0 50L10 50L10 70L0 70L0 80L10 80L10 90L0 90L0 100L10 100L10 90L30 90L30 100L40 100L40 90L50 90L50 100L70 100L70 90L80 90L80 100L100 100L100 90L90 90L90 70L100 70L100 30L90 30L90 20L100 20L100 0L90 0L90 10L70 10L70 0L50 0L50 10L30 10L30 0L20 0L20 10L10 10L10 0L0 0z"/>
<path style="fill:#ffffff; stroke:none;" d="M10 0L10 10L20 10L20 0L10 0M30 0L30 10L50 10L50 0L30 0M70 0L70 10L90 10L90 0L70 0M0 20L0 40L10 40L10 20L0 20M20 20L20 80L80 80L80 20L20 20M90 20L90 30L100 30L100 20L90 20z"/>
<path style="fill:#000000; stroke:none;" d="M40 30L40 40L30 40L30 50L40 50L40 60L30 60L30 70L40 70L40 60L60 60L60 50L70 50L70 40L50 40L50 30L40 30z"/>
<path style="fill:#ffffff; stroke:none;" d="M0 50L0 70L10 70L10 50L0 50M90 70L90 90L100 90L100 70L90 70M0 80L0 90L10 90L10 80L0 80M10 90L10 100L30 100L30 90L10 90M40 90L40 100L50 100L50 90L40 90M70 90L70 100L80 100L80 90L70 90z"/>
</svg>
