<?xml version="1.0" standalone="yes"?>
<svg xmlns="http://www.w3.org/2000/svg" width="100" height="100">
<path style="fill:#000000; stroke:none;" d="M0 0L0 40L10 40L10 70L0 70L0 80L10 80L10 100L30 100L30 90L50 90L50 100L70 100L70 90L80 90L80 100L100 100L100 70L90 70L90 20L100 20L100 10L70 10L70 0L60 0L60 10L50 10L50 0L40 0L40 10L20 10L20 0L0 0z"/>
<path style="fill:#ffffff; stroke:none;" d="M20 0L20 10L40 10L40 0L20 0M50 0L50 10L60 10L60 0L50 0M70 0L70 10L100 10L100 0L70 0M20 20L20 80L80 80L80 20L20 20M90 20L90 70L100 70L100 20L90 20z"/>
<path style="fill:#000000; stroke:none;" d="M40 30L40 60L30 60L30 70L60 70L60 60L70 60L70 50L60 50L60 30L40 30z"/>
<path style="fill:#ffffff; stroke:none;" d="M0 40L0 70L10 70L10 40L0 40M0 80L0 100L10 100L10 80L0 80M30 90L30 100L50 100L50 90L30 90M70 90L70 100L80 100L80 90L70 90z"/>
</svg>
