<?xml version="1.0" standalone="yes"?>
<svg xmlns="http://www.w3.org/2000/svg" width="100" height="100">
<path style="fill:#ffffff; stroke:none;" d="M0 0L0 10L10 10L10 0L0 0z"/>
<path style="fill:#000000; stroke:none;" d="M10 0L10 10L0 10L0 20L10 20L10 90L20 90L20 100L40 100L40 90L60 90L60 100L80 100L80 90L100 90L100 70L90 70L90 50L100 50L100 20L90 20L90 0L70 0L70 10L60 10L60 0L40 0L40 10L30 10L30 0L10 0z"/>
<path style="fill:#ffffff; stroke:none;" d="M30 0L30 10L40 10L40 0L30 0M60 0L60 10L70 10L70 0L60 0M90 0L90 20L100 20L100 0L90 0M0 20L0 100L20 100L20 90L10 90L10 20L0 20M20 20L20 80L80 80L80 20L20 20z"/>
<path style="fill:#000000; stroke:none;" d="M60 30L60 40L40 40L40 50L30 50L30 60L50 60L50 70L60 70L60 40L70 40L70 30L60 30z"/>
<path style="fill:#ffffff; stroke:none;" d="M90 50L90 70L100 70L100 50L90 50M40 90L40 100L60 100L60 90L40 90M80 90L80 100L100 100L100 90L80 90z"/>
</svg>
