<?xml version="1.0" standalone="yes"?>
<svg xmlns="http://www.w3.org/2000/svg" width="100" height="100">
<path style="fill:#000000; stroke:none;" d="M0 0L0 40L10 40L10 50L0 50L0 70L10 70L10 80L0 80L0 90L10 90L10 100L40 100L40 90L50 90L50 100L70 100L70 90L90 90L90 70L100 70L100 50L90 50L90 40L100 40L100 20L90 20L90 10L100 10L100 0L70 0L70 10L60 10L60 0L30 0L30 10L20 10L20 0L0 0z"/>
<path style="fill:#ffffff; stroke:none;" d="M20 0L20 10L30 10L30 0L20 0M60 0L60 10L70 10L70 0L60 0M90 10L90 20L100 20L100 10L90 10M20 20L20 80L80 80L80 20L20 20z"/>
<path style="fill:#000000; stroke:none;" d="M40 30L40 40L30 40L30 60L50 60L50 70L60 70L60 50L70 50L70 30L60 30L60 40L50 40L50 30L40 30z"/>
<path style="fill:#ffffff; stroke:none;" d="M0 40L0 50L10 50L10 40L0 40M90 40L90 50L100 50L100 40L90 40M0 70L0 80L10 80L10 70L0 70M90 70L90 90L70 90L70 100L100 100L100 70L90 70M0 90L0 100L10 100L10 90L0 90M40 90L40 100L50 100L50 90L40 90z"/>
</svg>
