<?xml version="1.0" standalone="yes"?>
<svg xmlns="http://www.w3.org/2000/svg" width="100" height="100">
<path style="fill:#000000; stroke:none;" d="M0 0L0 10L10 10L10 20L0 20L0 40L10 40L10 60L0 60L0 70L10 70L10 90L0 90L0 100L10 100L10 90L20 90L20 100L30 100L30 90L50 90L50 100L60 100L60 90L80 90L80 100L100 100L100 90L90 90L90 40L100 40L100 30L90 30L90 20L100 20L100 0L90 0L90 10L80 10L80 0L70 0L70 10L60 10L60 0L40 0L40 10L30 10L30 0L20 0L20 10L10 10L10 0L0 0z"/>
<path style="fill:#ffffff; stroke:none;" d="M10 0L10 10L20 10L20 0L10 0M30 0L30 10L40 10L40 0L30 0M60 0L60 10L70 10L70 0L60 0M80 0L80 10L90 10L90 0L80 0M0 10L0 20L10 20L10 10L0 10M20 20L20 80L80 80L80 20L20 20M90 20L90 30L100 30L100 20L90 20z"/>
<path style="fill:#000000; stroke:none;" d="M40 30L40 50L30 50L30 60L40 60L40 70L50 70L50 60L60 60L60 40L50 40L50 30L40 30z"/>
<path style="fill:#ffffff; stroke:none;" d="M0 40L0 60L10 60L10 40L0 40M90 40L90 90L100 90L100 40L90 40M0 70L0 90L10 90L10 70L0 70M10 90L10 100L20 100L20 90L10 90M30 90L30 100L50 100L50 90L30 90M60 90L60 100L80 100L80 90L60 90z"/>
</svg>
