<?xml version="1.0" standalone="yes"?>
<svg xmlns="http://www.w3.org/2000/svg" width="100" height="100">
<path style="fill:#ffffff; stroke:none;" d="M0 0L0 20L10 20L10 0L0 0z"/>
<path style="fill:#000000; stroke:none;" d="M10 0L10 20L0 20L0 30L10 30L10 50L0 50L0 60L10 60L10 80L0 80L0 100L20 100L20 90L60 90L60 100L80 100L80 90L100 90L100 80L90 80L90 70L100 70L100 10L50 10L50 0L10 0z"/>
<path style="fill:#ffffff; stroke:none;" d="M50 0L50 10L100 10L100 0L50 0M20 20L20 80L80 80L80 20L20 20M0 30L0 50L10 50L10 30L0 30z"/>
<path style="fill:#000000; stroke:none;" d="M30 30L30 40L40 40L40 70L70 70L70 50L60 50L60 40L40 40L40 30L30 30z"/>
<path style="fill:#ffffff; stroke:none;" d="M0 60L0 80L10 80L10 60L0 60M90 70L90 80L100 80L100 70L90 70M20 90L20 100L60 100L60 90L20 90M80 90L80 100L100 100L100 90L80 90z"/>
</svg>
