<?xml version="1.0" standalone="yes"?>
<svg xmlns="http://www.w3.org/2000/svg" width="100" height="100">
<path style="fill:#000000; stroke:none;" d="M0 0L0 10L10 10L10 30L0 30L0 50L10 50L10 60L0 60L0 70L10 70L10 90L0 90L0 100L20 100L20 90L30 90L30 100L90 100L90 60L100 60L100 50L90 50L90 30L100 30L100 10L70 10L70 0L60 0L60 10L30 10L30 0L0 0z"/>
<path style="fill:#ffffff; stroke:none;" d="M30 0L30 10L60 10L60 0L30 0M70 0L70 10L100 10L100 0L70 0M0 10L0 30L10 30L10 10L0 10M20 20L20 80L80 80L80 20L20 20z"/>
<path style="fill:#000000; stroke:none;" d="M30 30L30 50L40 50L40 60L30 60L30 70L70 70L70 50L60 50L60 40L70 40L70 30L50 30L50 40L40 40L40 30L30 30z"/>
<path style="fill:#ffffff; stroke:none;" d="M90 30L90 50L100 50L100 30L90 30M0 50L0 60L10 60L10 50L0 50M90 60L90 100L100 100L100 60L90 60M0 70L0 90L10 90L10 70L0 70M20 90L20 100L30 100L30 90L20 90z"/>
</svg>
