<?xml version="1.0" standalone="yes"?>
<svg xmlns="http://www.w3.org/2000/svg" width="100" height="100">
<path style="fill:#ffffff; stroke:none;" d="M0 0L0 10L10 10L10 0L0 0z"/>
<path style="fill:#000000; stroke:none;" d="M10 0L10 10L0 10L0 30L10 30L10 70L0 70L0 80L10 80L10 90L0 90L0 100L10 100L10 90L20 90L20 100L30 100L30 90L40 90L40 100L70 100L70 90L90 90L90 100L100 100L100 80L90 80L90 70L100 70L100 60L90 60L90 50L100 50L100 40L90 40L90 30L100 30L100 10L40 10L40 0L10 0z"/>
<path style="fill:#ffffff; stroke:none;" d="M40 0L40 10L100 10L100 0L40 0M20 20L20 80L80 80L80 20L20 20M0 30L0 70L10 70L10 30L0 30z"/>
<path style="fill:#000000; stroke:none;" d="M30 30L30 70L50 70L50 60L60 60L60 70L70 70L70 50L60 50L60 30L50 30L50 40L40 40L40 30L30 30z"/>
<path style="fill:#ffffff; stroke:none;" d="M90 30L90 40L100 40L100 30L90 30M90 50L90 60L100 60L100 50L90 50M90 70L90 80L100 80L100 70L90 70M0 80L0 90L10 90L10 80L0 80M10 90L10 100L20 100L20 90L10 90M30 90L30 100L40 100L40 90L30 90M70 90L70 100L90 100L90 90L70 90z"/>
</svg>
