<?xml version="1.0" standalone="yes"?>
<svg xmlns="http://www.w3.org/2000/svg" width="100" height="100">
<path style="fill:#ffffff; stroke:none;" d="M0 0L0 10L10 10L10 0L0 0z"/>
<path style="fill:#000000; stroke:none;" d="M10 0L10 10L0 10L0 50L10 50L10 80L0 80L0 100L10 100L10 90L40 90L40 100L50 100L50 90L90 90L90 100L100 100L100 80L90 80L90 70L100 70L100 60L90 60L90 40L100 40L100 20L90 20L90 10L80 10L80 0L70 0L70 10L50 10L50 0L10 0z"/>
<path style="fill:#ffffff; stroke:none;" d="M50 0L50 10L70 10L70 0L50 0M80 0L80 10L90 10L90 20L100 20L100 0L80 0M20 20L20 80L80 80L80 20L20 20z"/>
<path style="fill:#000000; stroke:none;" d="M40 30L40 60L30 60L30 70L40 70L40 60L70 60L70 30L40 30z"/>
<path style="fill:#ffffff; stroke:none;" d="M90 40L90 60L100 60L100 40L90 40M0 50L0 80L10 80L10 50L0 50M90 70L90 80L100 80L100 70L90 70M10 90L10 100L40 100L40 90L10 90M50 90L50 100L90 100L90 90L50 90z"/>
</svg>
