<?xml version="1.0" standalone="yes"?>
<svg xmlns="http://www.w3.org/2000/svg" width="100" height="100">
<path style="fill:#000000; stroke:none;" d="M0 0L0 50L10 50L10 80L0 80L0 100L10 100L10 90L20 90L20 100L30 100L30 90L40 90L40 100L60 100L60 90L70 90L70 100L100 100L100 80L90 80L90 60L100 60L100 50L90 50L90 20L100 20L100 10L80 10L80 0L60 0L60 10L40 10L40 0L0 0z"/>
<path style="fill:#ffffff; stroke:none;" d="M40 0L40 10L60 10L60 0L40 0M80 0L80 10L100 10L100 0L80 0M20 20L20 80L80 80L80 20L20 20M90 20L90 50L100 50L100 20L90 20z"/>
<path style="fill:#000000; stroke:none;" d="M30 30L30 40L40 40L40 60L50 60L50 70L60 70L60 60L70 60L70 50L60 50L60 40L70 40L70 30L30 30z"/>
<path style="fill:#ffffff; stroke:none;" d="M0 50L0 80L10 80L10 50L0 50M90 60L90 80L100 80L100 60L90 60M10 90L10 100L20 100L20 90L10 90M30 90L30 100L40 100L40 90L30 90M60 90L60 100L70 100L70 90L60 90z"/>
</svg>
