<?xml version="1.0" standalone="yes"?>
<svg xmlns="http://www.w3.org/2000/svg" width="100" height="100">
<path style="fill:#ffffff; stroke:none;" d="M0 0L0 30L10 30L10 0L0 0z"/>
<path style="fill:#000000; stroke:none;" d="M10 0L10 30L0 30L0 40L10 40L10 70L0 70L0 80L10 80L10 100L40 100L40 90L50 90L50 100L60 100L60 90L90 90L90 70L100 70L100 50L90 50L90 20L100 20L100 0L60 0L60 10L50 10L50 0L10 0z"/>
<path style="fill:#ffffff; stroke:none;" d="M50 0L50 10L60 10L60 0L50 0M20 20L20 80L80 80L80 20L20 20M90 20L90 50L100 50L100 20L90 20M0 40L0 70L10 70L10 40L0 40z"/>
<path style="fill:#000000; stroke:none;" d="M30 40L30 50L40 50L40 70L70 70L70 40L30 40z"/>
<path style="fill:#ffffff; stroke:none;" d="M90 70L90 90L60 90L60 100L100 100L100 70L90 70M0 80L0 100L10 100L10 80L0 80M40 90L40 100L50 100L50 90L40 90z"/>
</svg>
