<?xml version="1.0" standalone="yes"?>
<svg xmlns="http://www.w3.org/2000/svg" width="100" height="100">
<path style="fill:#000000; stroke:none;" d="M0 0L0 40L10 40L10 50L0 50L0 70L10 70L10 90L0 90L0 100L10 100L10 90L50 90L50 100L60 100L60 90L70 90L70 100L80 100L80 90L90 90L90 100L100 100L100 60L90 60L90 50L100 50L100 20L90 20L90 10L80 10L80 0L70 0L70 10L40 10L40 0L0 0z"/>
<path style="fill:#ffffff; stroke:none;" d="M40 0L40 10L70 10L70 0L40 0M80 0L80 10L90 10L90 20L100 20L100 0L80 0M20 20L20 80L80 80L80 20L20 20z"/>
<path style="fill:#000000; stroke:none;" d="M30 30L30 40L40 40L40 50L30 50L30 70L50 70L50 60L60 60L60 70L70 70L70 60L60 60L60 40L40 40L40 30L30 30z"/>
<path style="fill:#ffffff; stroke:none;" d="M0 40L0 50L10 50L10 40L0 40M90 50L90 60L100 60L100 50L90 50M0 70L0 90L10 90L10 70L0 70M10 90L10 100L50 100L50 90L10 90M60 90L60 100L70 100L70 90L60 90M80 90L80 100L90 100L90 90L80 90z"/>
</svg>
