<?xml version="1.0" standalone="yes"?>
<svg xmlns="http://www.w3.org/2000/svg" width="100" height="100">
<path style="fill:#ffffff; stroke:none;" d="M0 0L0 40L10 40L10 10L50 10L50 0L0 0z"/>
<path style="fill:#000000; stroke:none;" d="M50 0L50 10L10 10L10 40L0 40L0 50L10 50L10 70L0 70L0 80L10 80L10 90L0 90L0 100L10 100L10 90L70 90L70 100L100 100L100 80L90 80L90 30L100 30L100 0L50 0z"/>
<path style="fill:#ffffff; stroke:none;" d="M20 20L20 80L80 80L80 20L20 20M90 30L90 80L100 80L100 30L90 30z"/>
<path style="fill:#000000; stroke:none;" d="M30 40L30 70L50 70L50 60L60 60L60 50L70 50L70 40L30 40z"/>
<path style="fill:#ffffff; stroke:none;" d="M0 50L0 70L10 70L10 50L0 50M0 80L0 90L10 90L10 80L0 80M10 90L10 100L70 100L70 90L10 90z"/>
</svg>
