<?xml version="1.0" standalone="yes"?>
<svg xmlns="http://www.w3.org/2000/svg" width="100" height="100">
<path style="fill:#ffffff; stroke:none;" d="M0 0L0 10L50 10L50 0L0 0z"/>
<path style="fill:#000000; stroke:none;" d="M50 0L50 10L0 10L0 40L10 40L10 50L0 50L0 80L10 80L10 90L20 90L20 100L50 100L50 90L80 90L80 100L100 100L100 60L90 60L90 50L100 50L100 20L90 20L90 0L80 0L80 10L70 10L70 0L50 0z"/>
<path style="fill:#ffffff; stroke:none;" d="M70 0L70 10L80 10L80 0L70 0M90 0L90 20L100 20L100 0L90 0M20 20L20 80L80 80L80 20L20 20z"/>
<path style="fill:#000000; stroke:none;" d="M30 30L30 40L40 40L40 60L30 60L30 70L60 70L60 50L70 50L70 30L60 30L60 40L50 40L50 30L30 30z"/>
<path style="fill:#ffffff; stroke:none;" d="M0 40L0 50L10 50L10 40L0 40M90 50L90 60L100 60L100 50L90 50M0 80L0 100L20 100L20 90L10 90L10 80L0 80M50 90L50 100L80 100L80 90L50 90z"/>
</svg>
