<?xml version="1.0" standalone="yes"?>
<svg xmlns="http://www.w3.org/2000/svg" width="100" height="100">
<path style="fill:#000000; stroke:none;" d="M0 0L0 60L10 60L10 100L20 100L20 90L40 90L40 100L50 100L50 90L60 90L60 100L80 100L80 90L90 90L90 70L100 70L100 60L90 60L90 10L100 10L100 0L90 0L90 10L70 10L70 0L50 0L50 10L40 10L40 0L20 0L20 10L10 10L10 0L0 0z"/>
<path style="fill:#ffffff; stroke:none;" d="M10 0L10 10L20 10L20 0L10 0M40 0L40 10L50 10L50 0L40 0M70 0L70 10L90 10L90 0L70 0M90 10L90 60L100 60L100 10L90 10M20 20L20 80L80 80L80 20L20 20z"/>
<path style="fill:#000000; stroke:none;" d="M50 30L50 40L30 40L30 50L40 50L40 70L60 70L60 50L70 50L70 40L60 40L60 30L50 30z"/>
<path style="fill:#ffffff; stroke:none;" d="M0 60L0 100L10 100L10 60L0 60M90 70L90 90L80 90L80 100L100 100L100 70L90 70M20 90L20 100L40 100L40 90L20 90M50 90L50 100L60 100L60 90L50 90z"/>
</svg>
