<?xml version="1.0" standalone="yes"?>
<svg xmlns="http://www.w3.org/2000/svg" width="100" height="100">
<path style="fill:#ffffff; stroke:none;" d="M0 0L0 10L20 10L20 0L0 0z"/>
<path style="fill:#000000; stroke:none;" d="M20 0L20 10L0 10L0 30L10 30L10 40L0 40L0 60L10 60L10 90L60 90L60 100L70 100L70 90L90 90L90 60L100 60L100 50L90 50L90 30L100 30L100 10L90 10L90 0L60 0L60 10L50 10L50 0L40 0L40 10L30 10L30 0L20 0z"/>
<path style="fill:#ffffff; stroke:none;" d="M30 0L30 10L40 10L40 0L30 0M50 0L50 10L60 10L60 0L50 0M90 0L90 10L100 10L100 0L90 0M20 20L20 80L80 80L80 20L20 20M0 30L0 40L10 40L10 30L0 30M90 30L90 50L100 50L100 30L90 30z"/>
<path style="fill:#000000; stroke:none;" d="M30 40L30 50L40 50L40 60L30 60L30 70L60 70L60 60L70 60L70 40L30 40z"/>
<path style="fill:#ffffff; stroke:none;" d="M0 60L0 100L60 100L60 90L10 90L10 60L0 60M90 60L90 90L70 90L70 100L100 100L100 60L90 60z"/>
</svg>
