<?xml version="1.0" standalone="yes"?>
<svg xmlns="http://www.w3.org/2000/svg" width="100" height="100">
<path style="fill:#000000; stroke:none;" d="M0 0L0 10L10 10L10 20L0 20L0 40L10 40L10 80L0 80L0 100L10 100L10 90L20 90L20 100L70 100L70 90L80 90L80 100L100 100L100 90L90 90L90 70L100 70L100 60L90 60L90 50L100 50L100 40L90 40L90 30L100 30L100 20L90 20L90 10L100 10L100 0L60 0L60 10L30 10L30 0L0 0z"/>
<path style="fill:#ffffff; stroke:none;" d="M30 0L30 10L60 10L60 0L30 0M0 10L0 20L10 20L10 10L0 10M90 10L90 20L100 20L100 10L90 10M20 20L20 80L80 80L80 20L20 20z"/>
<path style="fill:#000000; stroke:none;" d="M50 30L50 40L40 40L40 60L30 60L30 70L40 70L40 60L60 60L60 70L70 70L70 60L60 60L60 50L70 50L70 40L60 40L60 30L50 30z"/>
<path style="fill:#ffffff; stroke:none;" d="M90 30L90 40L100 40L100 30L90 30M0 40L0 80L10 80L10 40L0 40M90 50L90 60L100 60L100 50L90 50M90 70L90 90L100 90L100 70L90 70M10 90L10 100L20 100L20 90L10 90M70 90L70 100L80 100L80 90L70 90z"/>
</svg>
