<?xml version="1.0" standalone="yes"?>
<svg xmlns="http://www.w3.org/2000/svg" width="100" height="100">
<path style="fill:#000000; stroke:none;" d="M0 0L0 40L10 40L10 50L0 50L0 60L10 60L10 80L0 80L0 90L40 90L40 100L80 100L80 90L90 90L90 100L100 100L100 80L90 80L90 70L100 70L100 50L90 50L90 40L100 40L100 20L90 20L90 10L70 10L70 0L30 0L30 10L20 10L20 0L0 0z"/>
<path style="fill:#ffffff; stroke:none;" d="M20 0L20 10L30 10L30 0L20 0M70 0L70 10L90 10L90 20L100 20L100 0L70 0M20 20L20 80L80 80L80 20L20 20z"/>
<path style="fill:#000000; stroke:none;" d="M60 30L60 40L40 40L40 60L30 60L30 70L40 70L40 60L50 60L50 70L70 70L70 30L60 30z"/>
<path style="fill:#ffffff; stroke:none;" d="M0 40L0 50L10 50L10 40L0 40M90 40L90 50L100 50L100 40L90 40M0 60L0 80L10 80L10 60L0 60M90 70L90 80L100 80L100 70L90 70M0 90L0 100L40 100L40 90L0 90M80 90L80 100L90 100L90 90L80 90z"/>
</svg>
