<?xml version="1.0" standalone="yes"?>
<svg xmlns="http://www.w3.org/2000/svg" width="100" height="100">
<path style="fill:#ffffff; stroke:none;" d="M0 0L0 50L10 50L10 10L20 10L20 0L0 0z"/>
<path style="fill:#000000; stroke:none;" d="M20 0L20 10L10 10L10 50L0 50L0 70L10 70L10 80L0 80L0 100L10 100L10 90L30 90L30 100L50 100L50 90L90 90L90 100L100 100L100 60L90 60L90 20L100 20L100 0L80 0L80 10L70 10L70 0L60 0L60 10L30 10L30 0L20 0z"/>
<path style="fill:#ffffff; stroke:none;" d="M30 0L30 10L60 10L60 0L30 0M70 0L70 10L80 10L80 0L70 0M20 20L20 80L80 80L80 20L20 20M90 20L90 60L100 60L100 20L90 20z"/>
<path style="fill:#000000; stroke:none;" d="M30 30L30 40L40 40L40 60L30 60L30 70L60 70L60 50L70 50L70 30L60 30L60 40L40 40L40 30L30 30z"/>
<path style="fill:#ffffff; stroke:none;" d="M0 70L0 80L10 80L10 70L0 70M10 90L10 100L30 100L30 90L10 90M50 90L50 100L90 100L90 90L50 90z"/>
</svg>
