<?xml version="1.0" standalone="yes"?>
<svg xmlns="http://www.w3.org/2000/svg" width="100" height="100">
<path style="fill:#ffffff; stroke:none;" d="M0 0L0 30L10 30L10 10L60 10L60 0L0 0z"/>
<path style="fill:#000000; stroke:none;" d="M60 0L60 10L10 10L10 30L0 30L0 50L10 50L10 60L0 60L0 90L10 90L10 100L40 100L40 90L50 90L50 100L90 100L90 80L100 80L100 70L90 70L90 60L100 60L100 40L90 40L90 20L100 20L100 0L90 0L90 10L70 10L70 0L60 0z"/>
<path style="fill:#ffffff; stroke:none;" d="M70 0L70 10L90 10L90 0L70 0M20 20L20 80L80 80L80 20L20 20M90 20L90 40L100 40L100 20L90 20z"/>
<path style="fill:#000000; stroke:none;" d="M30 30L30 40L40 40L40 50L30 50L30 70L60 70L60 60L70 60L70 50L60 50L60 40L50 40L50 30L30 30z"/>
<path style="fill:#ffffff; stroke:none;" d="M0 50L0 60L10 60L10 50L0 50M90 60L90 70L100 70L100 60L90 60M90 80L90 100L100 100L100 80L90 80M0 90L0 100L10 100L10 90L0 90M40 90L40 100L50 100L50 90L40 90z"/>
</svg>
