<?xml version="1.0" standalone="yes"?>
<svg xmlns="http://www.w3.org/2000/svg" width="100" height="100">
<path style="fill:#ffffff; stroke:none;" d="M0 0L0 10L100 10L100 0L0 0z"/>
<path style="fill:#000000; stroke:none;" d="M0 10L0 40L10 40L10 90L30 90L30 100L40 100L40 90L50 90L50 100L70 100L70 90L80 90L80 100L90 100L90 50L100 50L100 10L0 10z"/>
<path style="fill:#ffffff; stroke:none;" d="M20 20L20 80L80 80L80 20L20 20z"/>
<path style="fill:#000000; stroke:none;" d="M30 30L30 50L40 50L40 60L30 60L30 70L40 70L40 60L50 60L50 70L60 70L60 40L40 40L40 30L30 30z"/>
<path style="fill:#ffffff; stroke:none;" d="M0 40L0 100L30 100L30 90L10 90L10 40L0 40M90 50L90 100L100 100L100 50L90 50M40 90L40 100L50 100L50 90L40 90M70 90L70 100L80 100L80 90L70 90z"/>
</svg>
