<?xml version="1.0" standalone="yes"?>
<svg xmlns="http://www.w3.org/2000/svg" width="100" height="100">
<path style="fill:#000000; stroke:none;" d="M0 0L0 20L10 20L10 30L0 30L0 90L10 90L10 100L20 100L20 90L30 90L30 100L50 100L50 90L80 90L80 100L90 100L90 40L100 40L100 30L90 30L90 10L80 10L80 0L70 0L70 10L10 10L10 0L0 0z"/>
<path style="fill:#ffffff; stroke:none;" d="M10 0L10 10L70 10L70 0L10 0M80 0L80 10L90 10L90 30L100 30L100 0L80 0M0 20L0 30L10 30L10 20L0 20M20 20L20 80L80 80L80 20L20 20z"/>
<path style="fill:#000000; stroke:none;" d="M30 30L30 70L50 70L50 60L60 60L60 70L70 70L70 40L60 40L60 30L50 30L50 40L40 40L40 30L30 30z"/>
<path style="fill:#ffffff; stroke:none;" d="M90 40L90 100L100 100L100 40L90 40M0 90L0 100L10 100L10 90L0 90M20 90L20 100L30 100L30 90L20 90M50 90L50 100L80 100L80 90L50 90z"/>
</svg>
