<?xml version="1.0" standalone="yes"?>
<svg xmlns="http://www.w3.org/2000/svg" width="100" height="100">
<path style="fill:#ffffff; stroke:none;" d="M0 0L0 70L10 70L10 10L50 10L50 0L0 0z"/>
<path style="fill:#000000; stroke:none;" d="M50 0L50 10L10 10L10 70L0 70L0 90L30 90L30 100L70 100L70 90L80 90L80 100L90 100L90 50L100 50L100 20L90 20L90 10L100 10L100 0L50 0z"/>
<path style="fill:#ffffff; stroke:none;" d="M90 10L90 20L100 20L100 10L90 10M20 20L20 80L80 80L80 20L20 20z"/>
<path style="fill:#000000; stroke:none;" d="M30 30L30 50L40 50L40 70L50 70L50 60L60 60L60 70L70 70L70 40L50 40L50 30L30 30z"/>
<path style="fill:#ffffff; stroke:none;" d="M90 50L90 100L100 100L100 50L90 50M0 90L0 100L30 100L30 90L0 90M70 90L70 100L80 100L80 90L70 90z"/>
</svg>
