<?xml version="1.0" standalone="yes"?>
<svg xmlns="http://www.w3.org/2000/svg" width="100" height="100">
<path style="fill:#ffffff; stroke:none;" d="M0 0L0 10L30 10L30 0L0 0z"/>
<path style="fill:#000000; stroke:none;" d="M30 0L30 10L0 10L0 30L10 30L10 80L0 80L0 90L10 90L10 100L20 100L20 90L70 90L70 100L80 100L80 90L90 90L90 60L100 60L100 0L70 0L70 10L60 10L60 0L50 0L50 10L40 10L40 0L30 0z"/>
<path style="fill:#ffffff; stroke:none;" d="M40 0L40 10L50 10L50 0L40 0M60 0L60 10L70 10L70 0L60 0M20 20L20 80L80 80L80 20L20 20M0 30L0 80L10 80L10 30L0 30z"/>
<path style="fill:#000000; stroke:none;" d="M40 30L40 40L30 40L30 70L50 70L50 60L60 60L60 70L70 70L70 50L60 50L60 40L50 40L50 30L40 30z"/>
<path style="fill:#ffffff; stroke:none;" d="M90 60L90 90L80 90L80 100L100 100L100 60L90 60M0 90L0 100L10 100L10 90L0 90M20 90L20 100L70 100L70 90L20 90z"/>
</svg>
