<?xml version="1.0" standalone="yes"?>
<svg xmlns="http://www.w3.org/2000/svg" width="100" height="100">
<path style="fill:#000000; stroke:none;" d="M0 0L0 10L10 10L10 30L0 30L0 40L10 40L10 60L0 60L0 70L10 70L10 90L0 90L0 100L10 100L10 90L30 90L30 100L40 100L40 90L100 90L100 60L90 60L90 50L100 50L100 20L90 20L90 0L80 0L80 10L70 10L70 0L60 0L60 10L50 10L50 0L40 0L40 10L20 10L20 0L0 0z"/>
<path style="fill:#ffffff; stroke:none;" d="M20 0L20 10L40 10L40 0L20 0M50 0L50 10L60 10L60 0L50 0M70 0L70 10L80 10L80 0L70 0M90 0L90 20L100 20L100 0L90 0M0 10L0 30L10 30L10 10L0 10M20 20L20 80L80 80L80 20L20 20z"/>
<path style="fill:#000000; stroke:none;" d="M40 30L40 50L30 50L30 60L40 60L40 70L50 70L50 60L60 60L60 40L70 40L70 30L60 30L60 40L50 40L50 30L40 30z"/>
<path style="fill:#ffffff; stroke:none;" d="M0 40L0 60L10 60L10 40L0 40M90 50L90 60L100 60L100 50L90 50M0 70L0 90L10 90L10 70L0 70M10 90L10 100L30 100L30 90L10 90M40 90L40 100L100 100L100 90L40 90z"/>
</svg>
