<?xml version="1.0" standalone="yes"?>
<svg xmlns="http://www.w3.org/2000/svg" width="100" height="100">
<path style="fill:#ffffff; stroke:none;" d="M0 0L0 40L10 40L10 10L30 10L30 0L0 0z"/>
<path style="fill:#000000; stroke:none;" d="M30 0L30 10L10 10L10 40L0 40L0 50L10 50L10 60L0 60L0 90L10 90L10 100L40 100L40 90L50 90L50 100L80 100L80 90L90 90L90 100L100 100L100 60L90 60L90 20L100 20L100 10L80 10L80 0L60 0L60 10L40 10L40 0L30 0z"/>
<path style="fill:#ffffff; stroke:none;" d="M40 0L40 10L60 10L60 0L40 0M80 0L80 10L100 10L100 0L80 0M20 20L20 80L80 80L80 20L20 20M90 20L90 60L100 60L100 20L90 20z"/>
<path style="fill:#000000; stroke:none;" d="M30 30L30 40L40 40L40 50L30 50L30 60L50 60L50 70L60 70L60 60L70 60L70 50L60 50L60 40L50 40L50 30L30 30z"/>
<path style="fill:#ffffff; stroke:none;" d="M0 50L0 60L10 60L10 50L0 50M0 90L0 100L10 100L10 90L0 90M40 90L40 100L50 100L50 90L40 90M80 90L80 100L90 100L90 90L80 90z"/>
</svg>
