<?xml version="1.0" standalone="yes"?>
<svg xmlns="http://www.w3.org/2000/svg" width="100" height="100">
<path style="fill:#ffffff; stroke:none;" d="M0 0L0 20L10 20L10 0L0 0z"/>
<path style="fill:#000000; stroke:none;" d="M10 0L10 20L0 20L0 40L10 40L10 80L0 80L0 100L10 100L10 90L20 90L20 100L30 100L30 90L40 90L40 100L50 100L50 90L60 90L60 100L70 100L70 90L90 90L90 100L100 100L100 30L90 30L90 20L100 20L100 10L60 10L60 0L50 0L50 10L40 10L40 0L30 0L30 10L20 10L20 0L10 0z"/>
<path style="fill:#ffffff; stroke:none;" d="M20 0L20 10L30 10L30 0L20 0M40 0L40 10L50 10L50 0L40 0M60 0L60 10L100 10L100 0L60 0M20 20L20 80L80 80L80 20L20 20M90 20L90 30L100 30L100 20L90 20z"/>
<path style="fill:#000000; stroke:none;" d="M30 30L30 50L40 50L40 60L30 60L30 70L60 70L60 30L30 30z"/>
<path style="fill:#ffffff; stroke:none;" d="M0 40L0 80L10 80L10 40L0 40M10 90L10 100L20 100L20 90L10 90M30 90L30 100L40 100L40 90L30 90M50 90L50 100L60 100L60 90L50 90M70 90L70 100L90 100L90 90L70 90z"/>
</svg>
