<?xml version="1.0" standalone="yes"?>
<svg xmlns="http://www.w3.org/2000/svg" width="100" height="100">
<path style="fill:#000000; stroke:none;" d="M0 0L0 40L10 40L10 50L0 50L0 80L10 80L10 90L30 90L30 100L40 100L40 90L50 90L50 100L80 100L80 90L100 90L100 70L90 70L90 50L100 50L100 10L50 10L50 0L0 0z"/>
<path style="fill:#ffffff; stroke:none;" d="M50 0L50 10L100 10L100 0L50 0M20 20L20 80L80 80L80 20L20 20z"/>
<path style="fill:#000000; stroke:none;" d="M30 30L30 40L40 40L40 50L30 50L30 70L60 70L60 60L70 60L70 30L30 30z"/>
<path style="fill:#ffffff; stroke:none;" d="M0 40L0 50L10 50L10 40L0 40M90 50L90 70L100 70L100 50L90 50M0 80L0 100L30 100L30 90L10 90L10 80L0 80M40 90L40 100L50 100L50 90L40 90M80 90L80 100L100 100L100 90L80 90z"/>
</svg>
