<?xml version="1.0" standalone="yes"?>
<svg xmlns="http://www.w3.org/2000/svg" width="100" height="100">
<path style="fill:#ffffff; stroke:none;" d="M0 0L0 10L30 10L30 0L0 0z"/>
<path style="fill:#000000; stroke:none;" d="M30 0L30 10L0 10L0 20L10 20L10 50L0 50L0 60L10 60L10 80L0 80L0 100L20 100L20 90L30 90L30 100L40 100L40 90L90 90L90 70L100 70L100 40L90 40L90 30L100 30L100 0L80 0L80 10L70 10L70 0L30 0z"/>
<path style="fill:#ffffff; stroke:none;" d="M70 0L70 10L80 10L80 0L70 0M0 20L0 50L10 50L10 20L0 20M20 20L20 80L80 80L80 20L20 20z"/>
<path style="fill:#000000; stroke:none;" d="M30 30L30 70L50 70L50 60L60 60L60 50L70 50L70 30L60 30L60 40L40 40L40 30L30 30z"/>
<path style="fill:#ffffff; stroke:none;" d="M90 30L90 40L100 40L100 30L90 30M0 60L0 80L10 80L10 60L0 60M90 70L90 90L40 90L40 100L100 100L100 70L90 70M20 90L20 100L30 100L30 90L20 90z"/>
</svg>
