<?xml version="1.0" standalone="yes"?>
<svg xmlns="http://www.w3.org/2000/svg" width="100" height="100">
<path style="fill:#000000; stroke:none;" d="M0 0L0 40L10 40L10 80L0 80L0 90L30 90L30 100L40 100L40 90L50 90L50 100L80 100L80 90L100 90L100 10L60 10L60 0L40 0L40 10L30 10L30 0L0 0z"/>
<path style="fill:#ffffff; stroke:none;" d="M30 0L30 10L40 10L40 0L30 0M60 0L60 10L100 10L100 0L60 0M20 20L20 80L80 80L80 20L20 20z"/>
<path style="fill:#000000; stroke:none;" d="M30 30L30 40L40 40L40 50L30 50L30 60L60 60L60 70L70 70L70 50L60 50L60 40L70 40L70 30L60 30L60 40L50 40L50 30L30 30z"/>
<path style="fill:#ffffff; stroke:none;" d="M0 40L0 80L10 80L10 40L0 40M0 90L0 100L30 100L30 90L0 90M40 90L40 100L50 100L50 90L40 90M80 90L80 100L100 100L100 90L80 90z"/>
</svg>
