<?xml version="1.0" standalone="yes"?>
<svg xmlns="http://www.w3.org/2000/svg" width="100" height="100">
<path style="fill:#000000; stroke:none;" d="M0 0L0 10L10 10L10 30L0 30L0 50L10 50L10 90L0 90L0 100L20 100L20 90L40 90L40 100L60 100L60 90L80 90L80 100L90 100L90 90L100 90L100 30L90 30L90 10L80 10L80 0L50 0L50 10L40 10L40 0L0 0z"/>
<path style="fill:#ffffff; stroke:none;" d="M40 0L40 10L50 10L50 0L40 0M80 0L80 10L90 10L90 30L100 30L100 0L80 0M0 10L0 30L10 30L10 10L0 10M20 20L20 80L80 80L80 20L20 20z"/>
<path style="fill:#000000; stroke:none;" d="M40 30L40 40L30 40L30 70L60 70L60 30L40 30z"/>
<path style="fill:#ffffff; stroke:none;" d="M0 50L0 90L10 90L10 50L0 50M20 90L20 100L40 100L40 90L20 90M60 90L60 100L80 100L80 90L60 90M90 90L90 100L100 100L100 90L90 90z"/>
</svg>
