<?xml version="1.0" standalone="yes"?>
<svg xmlns="http://www.w3.org/2000/svg" width="100" height="100">
<path style="fill:#000000; stroke:none;" d="M0 0L0 10L10 10L10 60L0 60L0 70L10 70L10 80L0 80L0 100L30 100L30 90L40 90L40 100L50 100L50 90L60 90L60 100L70 100L70 90L100 90L100 80L90 80L90 70L100 70L100 30L90 30L90 20L100 20L100 0L90 0L90 10L80 10L80 0L50 0L50 10L10 10L10 0L0 0z"/>
<path style="fill:#ffffff; stroke:none;" d="M10 0L10 10L50 10L50 0L10 0M80 0L80 10L90 10L90 0L80 0M0 10L0 60L10 60L10 10L0 10M20 20L20 80L80 80L80 20L20 20M90 20L90 30L100 30L100 20L90 20z"/>
<path style="fill:#000000; stroke:none;" d="M30 30L30 60L40 60L40 70L50 70L50 60L60 60L60 70L70 70L70 60L60 60L60 40L70 40L70 30L60 30L60 40L50 40L50 30L30 30z"/>
<path style="fill:#ffffff; stroke:none;" d="M0 70L0 80L10 80L10 70L0 70M90 70L90 80L100 80L100 70L90 70M30 90L30 100L40 100L40 90L30 90M50 90L50 100L60 100L60 90L50 90M70 90L70 100L100 100L100 90L70 90z"/>
</svg>
