<?xml version="1.0" standalone="yes"?>
<svg xmlns="http://www.w3.org/2000/svg" width="100" height="100">
<path style="fill:#ffffff; stroke:none;" d="M0 0L0 10L10 10L10 0L0 0z"/>
<path style="fill:#000000; stroke:none;" d="M10 0L10 10L0 10L0 20L10 20L10 30L0 30L0 60L10 60L10 80L0 80L0 90L10 90L10 100L20 100L20 90L30 90L30 100L60 100L60 90L70 90L70 100L80 100L80 90L90 90L90 60L100 60L100 30L90 30L90 10L50 10L50 0L40 0L40 10L20 10L20 0L10 0z"/>
<path style="fill:#ffffff; stroke:none;" d="M20 0L20 10L40 10L40 0L20 0M50 0L50 10L90 10L90 30L100 30L100 0L50 0M0 20L0 30L10 30L10 20L0 20M20 20L20 80L80 80L80 20L20 20z"/>
<path style="fill:#000000; stroke:none;" d="M30 30L30 40L40 40L40 50L30 50L30 70L50 70L50 60L60 60L60 70L70 70L70 40L50 40L50 30L30 30z"/>
<path style="fill:#ffffff; stroke:none;" d="M0 60L0 80L10 80L10 60L0 60M90 60L90 90L80 90L80 100L100 100L100 60L90 60M0 90L0 100L10 100L10 90L0 90M20 90L20 100L30 100L30 90L20 90M60 90L60 100L70 100L70 90L60 90z"/>
</svg>
