<?xml version="1.0" standalone="yes"?>
<svg xmlns="http://www.w3.org/2000/svg" width="100" height="100">
<path style="fill:#ffffff; stroke:none;" d="M0 0L0 10L20 10L20 0L0 0z"/>
<path style="fill:#000000; stroke:none;" d="M20 0L20 10L0 10L0 20L10 20L10 40L0 40L0 50L10 50L10 60L0 60L0 70L10 70L10 90L30 90L30 100L70 100L70 90L100 90L100 80L90 80L90 70L100 70L100 50L90 50L90 0L40 0L40 10L30 10L30 0L20 0z"/>
<path style="fill:#ffffff; stroke:none;" d="M30 0L30 10L40 10L40 0L30 0M90 0L90 50L100 50L100 0L90 0M0 20L0 40L10 40L10 20L0 20M20 20L20 80L80 80L80 20L20 20z"/>
<path style="fill:#000000; stroke:none;" d="M40 40L40 50L30 50L30 70L40 70L40 60L60 60L60 50L70 50L70 40L40 40z"/>
<path style="fill:#ffffff; stroke:none;" d="M0 50L0 60L10 60L10 50L0 50M0 70L0 100L30 100L30 90L10 90L10 70L0 70M90 70L90 80L100 80L100 70L90 70M70 90L70 100L100 100L100 90L70 90z"/>
</svg>
