<?xml version="1.0" standalone="yes"?>
<svg xmlns="http://www.w3.org/2000/svg" width="100" height="100">
<path style="fill:#000000; stroke:none;" d="M0 0L0 40L10 40L10 90L20 90L20 100L30 100L30 90L40 90L40 100L70 100L70 90L90 90L90 80L100 80L100 0L90 0L90 10L80 10L80 0L70 0L70 10L60 10L60 0L40 0L40 10L20 10L20 0L0 0z"/>
<path style="fill:#ffffff; stroke:none;" d="M20 0L20 10L40 10L40 0L20 0M60 0L60 10L70 10L70 0L60 0M80 0L80 10L90 10L90 0L80 0M20 20L20 80L80 80L80 20L20 20z"/>
<path style="fill:#000000; stroke:none;" d="M30 30L30 60L40 60L40 70L60 70L60 60L70 60L70 50L60 50L60 40L70 40L70 30L60 30L60 40L40 40L40 30L30 30z"/>
<path style="fill:#ffffff; stroke:none;" d="M0 40L0 100L20 100L20 90L10 90L10 40L0 40M90 80L90 90L70 90L70 100L100 100L100 80L90 80M30 90L30 100L40 100L40 90L30 90z"/>
</svg>
