<?xml version="1.0" standalone="yes"?>
<svg xmlns="http://www.w3.org/2000/svg" width="100" height="100">
<path style="fill:#ffffff; stroke:none;" d="M0 0L0 90L10 90L10 100L20 100L20 90L10 90L10 0L0 0z"/>
<path style="fill:#000000; stroke:none;" d="M10 0L10 90L20 90L20 100L30 100L30 90L40 90L40 100L50 100L50 90L70 90L70 100L100 100L100 80L90 80L90 20L100 20L100 0L70 0L70 10L60 10L60 0L50 0L50 10L20 10L20 0L10 0z"/>
<path style="fill:#ffffff; stroke:none;" d="M20 0L20 10L50 10L50 0L20 0M60 0L60 10L70 10L70 0L60 0M20 20L20 80L80 80L80 20L20 20M90 20L90 80L100 80L100 20L90 20z"/>
<path style="fill:#000000; stroke:none;" d="M30 30L30 40L40 40L40 60L30 60L30 70L40 70L40 60L60 60L60 70L70 70L70 60L60 60L60 50L70 50L70 40L60 40L60 30L30 30M0 90L0 100L10 100L10 90L0 90z"/>
<path style="fill:#ffffff; stroke:none;" d="M30 90L30 100L40 100L40 90L30 90M50 90L50 100L70 100L70 90L50 90z"/>
</svg>
