<?xml version="1.0" standalone="yes"?>
<svg xmlns="http://www.w3.org/2000/svg" width="100" height="100">
<path style="fill:#000000; stroke:none;" d="M0 0L0 20L10 20L10 70L0 70L0 90L10 90L10 100L20 100L20 90L40 90L40 100L80 100L80 90L90 90L90 100L100 100L100 90L90 90L90 60L100 60L100 50L90 50L90 40L100 40L100 20L90 20L90 0L60 0L60 10L50 10L50 0L0 0z"/>
<path style="fill:#ffffff; stroke:none;" d="M50 0L50 10L60 10L60 0L50 0M90 0L90 20L100 20L100 0L90 0M0 20L0 70L10 70L10 20L0 20M20 20L20 80L80 80L80 20L20 20z"/>
<path style="fill:#000000; stroke:none;" d="M40 30L40 50L30 50L30 60L70 60L70 50L60 50L60 40L70 40L70 30L60 30L60 40L50 40L50 30L40 30z"/>
<path style="fill:#ffffff; stroke:none;" d="M90 40L90 50L100 50L100 40L90 40M90 60L90 90L100 90L100 60L90 60M0 90L0 100L10 100L10 90L0 90M20 90L20 100L40 100L40 90L20 90M80 90L80 100L90 100L90 90L80 90z"/>
</svg>
