<?xml version="1.0" standalone="yes"?>
<svg xmlns="http://www.w3.org/2000/svg" width="100" height="100">
<path style="fill:#ffffff; stroke:none;" d="M0 0L0 10L30 10L30 0L0 0z"/>
<path style="fill:#000000; stroke:none;" d="M30 0L30 10L0 10L0 20L10 20L10 30L0 30L0 40L10 40L10 50L0 50L0 60L10 60L10 70L0 70L0 90L20 90L20 100L30 100L30 90L80 90L80 100L100 100L100 30L90 30L90 10L70 10L70 0L30 0z"/>
<path style="fill:#ffffff; stroke:none;" d="M70 0L70 10L90 10L90 30L100 30L100 0L70 0M0 20L0 30L10 30L10 20L0 20M20 20L20 80L80 80L80 20L20 20z"/>
<path style="fill:#000000; stroke:none;" d="M40 30L40 40L30 40L30 50L40 50L40 60L50 60L50 70L60 70L60 50L70 50L70 40L60 40L60 30L40 30z"/>
<path style="fill:#ffffff; stroke:none;" d="M0 40L0 50L10 50L10 40L0 40M0 60L0 70L10 70L10 60L0 60M0 90L0 100L20 100L20 90L0 90M30 90L30 100L80 100L80 90L30 90z"/>
</svg>
