<?xml version="1.0" standalone="yes"?>
<svg xmlns="http://www.w3.org/2000/svg" width="100" height="100">
<path style="fill:#000000; stroke:none;" d="M0 0L0 40L10 40L10 60L0 60L0 70L10 70L10 80L0 80L0 90L20 90L20 100L40 100L40 90L50 90L50 100L60 100L60 90L90 90L90 70L100 70L100 60L90 60L90 50L100 50L100 40L90 40L90 30L100 30L100 10L90 10L90 0L80 0L80 10L40 10L40 0L0 0z"/>
<path style="fill:#ffffff; stroke:none;" d="M40 0L40 10L80 10L80 0L40 0M90 0L90 10L100 10L100 0L90 0M20 20L20 80L80 80L80 20L20 20z"/>
<path style="fill:#000000; stroke:none;" d="M30 30L30 40L40 40L40 70L60 70L60 50L70 50L70 40L60 40L60 30L50 30L50 40L40 40L40 30L30 30z"/>
<path style="fill:#ffffff; stroke:none;" d="M90 30L90 40L100 40L100 30L90 30M0 40L0 60L10 60L10 40L0 40M90 50L90 60L100 60L100 50L90 50M0 70L0 80L10 80L10 70L0 70M90 70L90 90L60 90L60 100L100 100L100 70L90 70M0 90L0 100L20 100L20 90L0 90M40 90L40 100L50 100L50 90L40 90z"/>
</svg>
