<?xml version="1.0" standalone="yes"?>
<svg xmlns="http://www.w3.org/2000/svg" width="100" height="100">
<path style="fill:#000000; stroke:none;" d="M0 0L0 10L10 10L10 20L0 20L0 30L10 30L10 80L0 80L0 100L10 100L10 90L80 90L80 100L100 100L100 90L90 90L90 70L100 70L100 50L90 50L90 20L100 20L100 0L90 0L90 10L80 10L80 0L60 0L60 10L50 10L50 0L40 0L40 10L10 10L10 0L0 0z"/>
<path style="fill:#ffffff; stroke:none;" d="M10 0L10 10L40 10L40 0L10 0M50 0L50 10L60 10L60 0L50 0M80 0L80 10L90 10L90 0L80 0M0 10L0 20L10 20L10 10L0 10M20 20L20 80L80 80L80 20L20 20M90 20L90 50L100 50L100 20L90 20M0 30L0 80L10 80L10 30L0 30z"/>
<path style="fill:#000000; stroke:none;" d="M50 30L50 40L40 40L40 60L30 60L30 70L50 70L50 60L70 60L70 50L60 50L60 30L50 30z"/>
<path style="fill:#ffffff; stroke:none;" d="M90 70L90 90L100 90L100 70L90 70M10 90L10 100L80 100L80 90L10 90z"/>
</svg>
