<?xml version="1.0" standalone="yes"?>
<svg xmlns="http://www.w3.org/2000/svg" width="100" height="100">
<path style="fill:#ffffff; stroke:none;" d="M0 0L0 30L10 30L10 10L20 10L20 0L0 0z"/>
<path style="fill:#000000; stroke:none;" d="M20 0L20 10L10 10L10 30L0 30L0 40L10 40L10 70L0 70L0 100L10 100L10 90L40 90L40 100L70 100L70 90L90 90L90 60L100 60L100 50L90 50L90 0L80 0L80 10L40 10L40 0L20 0z"/>
<path style="fill:#ffffff; stroke:none;" d="M40 0L40 10L80 10L80 0L40 0M90 0L90 50L100 50L100 0L90 0M20 20L20 80L80 80L80 20L20 20z"/>
<path style="fill:#000000; stroke:none;" d="M30 30L30 40L40 40L40 50L30 50L30 60L40 60L40 70L60 70L60 40L40 40L40 30L30 30z"/>
<path style="fill:#ffffff; stroke:none;" d="M0 40L0 70L10 70L10 40L0 40M90 60L90 90L70 90L70 100L100 100L100 60L90 60M10 90L10 100L40 100L40 90L10 90z"/>
</svg>
