<?xml version="1.0" standalone="yes"?>
<svg xmlns="http://www.w3.org/2000/svg" width="100" height="100">
<path style="fill:#ffffff; stroke:none;" d="M0 0L0 10L90 10L90 30L100 30L100 0L0 0z"/>
<path style="fill:#000000; stroke:none;" d="M0 10L0 20L10 20L10 30L0 30L0 40L10 40L10 100L30 100L30 90L50 90L50 100L60 100L60 90L70 90L70 100L100 100L100 60L90 60L90 50L100 50L100 30L90 30L90 10L0 10z"/>
<path style="fill:#ffffff; stroke:none;" d="M0 20L0 30L10 30L10 20L0 20M20 20L20 80L80 80L80 20L20 20z"/>
<path style="fill:#000000; stroke:none;" d="M30 30L30 70L50 70L50 60L60 60L60 50L70 50L70 30L60 30L60 40L50 40L50 30L30 30z"/>
<path style="fill:#ffffff; stroke:none;" d="M0 40L0 100L10 100L10 40L0 40M90 50L90 60L100 60L100 50L90 50M30 90L30 100L50 100L50 90L30 90M60 90L60 100L70 100L70 90L60 90z"/>
</svg>
