<?xml version="1.0" standalone="yes"?>
<svg xmlns="http://www.w3.org/2000/svg" width="100" height="100">
<path style="fill:#ffffff; stroke:none;" d="M0 0L0 40L10 40L10 0L0 0z"/>
<path style="fill:#000000; stroke:none;" d="M10 0L10 40L0 40L0 60L10 60L10 70L0 70L0 100L30 100L30 90L90 90L90 100L100 100L100 80L90 80L90 60L100 60L100 40L90 40L90 30L100 30L100 20L90 20L90 10L30 10L30 0L10 0z"/>
<path style="fill:#ffffff; stroke:none;" d="M30 0L30 10L90 10L90 20L100 20L100 0L30 0M20 20L20 80L80 80L80 20L20 20z"/>
<path style="fill:#000000; stroke:none;" d="M60 30L60 40L40 40L40 60L30 60L30 70L40 70L40 60L50 60L50 70L60 70L60 40L70 40L70 30L60 30z"/>
<path style="fill:#ffffff; stroke:none;" d="M90 30L90 40L100 40L100 30L90 30M0 60L0 70L10 70L10 60L0 60M90 60L90 80L100 80L100 60L90 60M30 90L30 100L90 100L90 90L30 90z"/>
</svg>
