<?xml version="1.0" standalone="yes"?>
<svg xmlns="http://www.w3.org/2000/svg" width="100" height="100">
<path style="fill:#ffffff; stroke:none;" d="M0 0L0 50L10 50L10 10L20 10L20 0L0 0z"/>
<path style="fill:#000000; stroke:none;" d="M20 0L20 10L10 10L10 50L0 50L0 70L10 70L10 90L0 90L0 100L10 100L10 90L50 90L50 100L70 100L70 90L80 90L80 100L90 100L90 50L100 50L100 30L90 30L90 10L100 10L100 0L70 0L70 10L60 10L60 0L50 0L50 10L30 10L30 0L20 0z"/>
<path style="fill:#ffffff; stroke:none;" d="M30 0L30 10L50 10L50 0L30 0M60 0L60 10L70 10L70 0L60 0M90 10L90 30L100 30L100 10L90 10M20 20L20 80L80 80L80 20L20 20z"/>
<path style="fill:#000000; stroke:none;" d="M30 40L30 50L40 50L40 60L30 60L30 70L50 70L50 60L60 60L60 50L70 50L70 40L30 40z"/>
<path style="fill:#ffffff; stroke:none;" d="M90 50L90 100L100 100L100 50L90 50M0 70L0 90L10 90L10 70L0 70M10 90L10 100L50 100L50 90L10 90M70 90L70 100L80 100L80 90L70 90z"/>
</svg>
