<?xml version="1.0" standalone="yes"?>
<svg xmlns="http://www.w3.org/2000/svg" width="100" height="100">
<path style="fill:#ffffff; stroke:none;" d="M0 0L0 70L10 70L10 10L50 10L50 0L0 0z"/>
<path style="fill:#000000; stroke:none;" d="M50 0L50 10L10 10L10 70L0 70L0 80L10 80L10 90L20 90L20 100L60 100L60 90L90 90L90 100L100 100L100 70L90 70L90 0L70 0L70 10L60 10L60 0L50 0z"/>
<path style="fill:#ffffff; stroke:none;" d="M60 0L60 10L70 10L70 0L60 0M90 0L90 70L100 70L100 0L90 0M20 20L20 80L80 80L80 20L20 20z"/>
<path style="fill:#000000; stroke:none;" d="M30 30L30 70L50 70L50 60L60 60L60 70L70 70L70 60L60 60L60 50L70 50L70 40L50 40L50 30L30 30z"/>
<path style="fill:#ffffff; stroke:none;" d="M0 80L0 100L20 100L20 90L10 90L10 80L0 80M60 90L60 100L90 100L90 90L60 90z"/>
</svg>
