<?xml version="1.0" standalone="yes"?>
<svg xmlns="http://www.w3.org/2000/svg" width="100" height="100">
<path style="fill:#ffffff; stroke:none;" d="M0 0L0 10L10 10L10 0L0 0z"/>
<path style="fill:#000000; stroke:none;" d="M10 0L10 10L0 10L0 20L10 20L10 30L0 30L0 40L10 40L10 50L0 50L0 80L10 80L10 90L20 90L20 100L40 100L40 90L90 90L90 30L100 30L100 0L80 0L80 10L60 10L60 0L50 0L50 10L40 10L40 0L30 0L30 10L20 10L20 0L10 0z"/>
<path style="fill:#ffffff; stroke:none;" d="M20 0L20 10L30 10L30 0L20 0M40 0L40 10L50 10L50 0L40 0M60 0L60 10L80 10L80 0L60 0M0 20L0 30L10 30L10 20L0 20M20 20L20 80L80 80L80 20L20 20z"/>
<path style="fill:#000000; stroke:none;" d="M40 30L40 40L30 40L30 70L50 70L50 60L60 60L60 70L70 70L70 50L60 50L60 40L50 40L50 30L40 30z"/>
<path style="fill:#ffffff; stroke:none;" d="M90 30L90 90L40 90L40 100L100 100L100 30L90 30M0 40L0 50L10 50L10 40L0 40M0 80L0 100L20 100L20 90L10 90L10 80L0 80z"/>
</svg>
