<?xml version="1.0" standalone="yes"?>
<svg xmlns="http://www.w3.org/2000/svg" width="100" height="100">
<path style="fill:#ffffff; stroke:none;" d="M0 0L0 10L10 10L10 0L0 0z"/>
<path style="fill:#000000; stroke:none;" d="M10 0L10 10L0 10L0 40L10 40L10 60L0 60L0 80L10 80L10 100L30 100L30 90L40 90L40 100L50 100L50 90L100 90L100 80L90 80L90 70L100 70L100 50L90 50L90 40L100 40L100 30L90 30L90 20L100 20L100 10L60 10L60 0L10 0z"/>
<path style="fill:#ffffff; stroke:none;" d="M60 0L60 10L100 10L100 0L60 0M20 20L20 80L80 80L80 20L20 20M90 20L90 30L100 30L100 20L90 20z"/>
<path style="fill:#000000; stroke:none;" d="M30 30L30 50L40 50L40 70L50 70L50 60L70 60L70 50L60 50L60 40L70 40L70 30L60 30L60 40L40 40L40 30L30 30z"/>
<path style="fill:#ffffff; stroke:none;" d="M0 40L0 60L10 60L10 40L0 40M90 40L90 50L100 50L100 40L90 40M90 70L90 80L100 80L100 70L90 70M0 80L0 100L10 100L10 80L0 80M30 90L30 100L40 100L40 90L30 90M50 90L50 100L100 100L100 90L50 90z"/>
</svg>
