<?xml version="1.0" standalone="yes"?>
<svg xmlns="http://www.w3.org/2000/svg" width="100" height="100">
<path style="fill:#ffffff; stroke:none;" d="M0 0L0 40L10 40L10 0L0 0z"/>
<path style="fill:#000000; stroke:none;" d="M10 0L10 40L0 40L0 60L10 60L10 70L0 70L0 90L10 90L10 100L70 100L70 90L80 90L80 100L100 100L100 80L90 80L90 60L100 60L100 50L90 50L90 40L100 40L100 20L90 20L90 10L70 10L70 0L50 0L50 10L40 10L40 0L10 0z"/>
<path style="fill:#ffffff; stroke:none;" d="M40 0L40 10L50 10L50 0L40 0M70 0L70 10L90 10L90 20L100 20L100 0L70 0M20 20L20 80L80 80L80 20L20 20z"/>
<path style="fill:#000000; stroke:none;" d="M40 30L40 40L30 40L30 60L70 60L70 50L60 50L60 40L70 40L70 30L40 30z"/>
<path style="fill:#ffffff; stroke:none;" d="M90 40L90 50L100 50L100 40L90 40M0 60L0 70L10 70L10 60L0 60M90 60L90 80L100 80L100 60L90 60M0 90L0 100L10 100L10 90L0 90M70 90L70 100L80 100L80 90L70 90z"/>
</svg>
