<?xml version="1.0" standalone="yes"?>
<svg xmlns="http://www.w3.org/2000/svg" width="100" height="100">
<path style="fill:#ffffff; stroke:none;" d="M0 0L0 70L10 70L10 0L0 0z"/>
<path style="fill:#000000; stroke:none;" d="M10 0L10 70L0 70L0 80L10 80L10 90L0 90L0 100L10 100L10 90L20 90L20 100L40 100L40 90L90 90L90 100L100 100L100 90L90 90L90 60L100 60L100 50L90 50L90 40L100 40L100 10L80 10L80 0L60 0L60 10L50 10L50 0L10 0z"/>
<path style="fill:#ffffff; stroke:none;" d="M50 0L50 10L60 10L60 0L50 0M80 0L80 10L100 10L100 0L80 0M20 20L20 80L80 80L80 20L20 20z"/>
<path style="fill:#000000; stroke:none;" d="M30 30L30 40L40 40L40 60L30 60L30 70L40 70L40 60L50 60L50 70L70 70L70 30L50 30L50 40L40 40L40 30L30 30z"/>
<path style="fill:#ffffff; stroke:none;" d="M90 40L90 50L100 50L100 40L90 40M90 60L90 90L100 90L100 60L90 60M0 80L0 90L10 90L10 80L0 80M10 90L10 100L20 100L20 90L10 90M40 90L40 100L90 100L90 90L40 90z"/>
</svg>
