<?xml version="1.0" standalone="yes"?>
<svg xmlns="http://www.w3.org/2000/svg" width="100" height="100">
<path style="fill:#ffffff; stroke:none;" d="M0 0L0 10L60 10L60 0L0 0z"/>
<path style="fill:#000000; stroke:none;" d="M60 0L60 10L0 10L0 20L10 20L10 80L0 80L0 100L10 100L10 90L40 90L40 100L60 100L60 90L70 90L70 100L90 100L90 80L100 80L100 30L90 30L90 10L100 10L100 0L80 0L80 10L70 10L70 0L60 0z"/>
<path style="fill:#ffffff; stroke:none;" d="M70 0L70 10L80 10L80 0L70 0M90 10L90 30L100 30L100 10L90 10M0 20L0 80L10 80L10 20L0 20M20 20L20 80L80 80L80 20L20 20z"/>
<path style="fill:#000000; stroke:none;" d="M40 30L40 50L30 50L30 60L50 60L50 70L60 70L60 50L70 50L70 40L50 40L50 30L40 30z"/>
<path style="fill:#ffffff; stroke:none;" d="M90 80L90 100L100 100L100 80L90 80M10 90L10 100L40 100L40 90L10 90M60 90L60 100L70 100L70 90L60 90z"/>
</svg>
