<?xml version="1.0" standalone="yes"?>
<svg xmlns="http://www.w3.org/2000/svg" width="100" height="100">
<path style="fill:#000000; stroke:none;" d="M0 0L0 10L10 10L10 30L0 30L0 40L10 40L10 50L0 50L0 60L10 60L10 90L40 90L40 100L50 100L50 90L60 90L60 100L80 100L80 90L90 90L90 80L100 80L100 70L90 70L90 60L100 60L100 50L90 50L90 40L100 40L100 10L80 10L80 0L50 0L50 10L40 10L40 0L0 0z"/>
<path style="fill:#ffffff; stroke:none;" d="M40 0L40 10L50 10L50 0L40 0M80 0L80 10L100 10L100 0L80 0M0 10L0 30L10 30L10 10L0 10M20 20L20 80L80 80L80 20L20 20z"/>
<path style="fill:#000000; stroke:none;" d="M40 30L40 70L70 70L70 50L60 50L60 30L40 30z"/>
<path style="fill:#ffffff; stroke:none;" d="M0 40L0 50L10 50L10 40L0 40M90 40L90 50L100 50L100 40L90 40M0 60L0 100L40 100L40 90L10 90L10 60L0 60M90 60L90 70L100 70L100 60L90 60M90 80L90 90L80 90L80 100L100 100L100 80L90 80M50 90L50 100L60 100L60 90L50 90z"/>
</svg>
