<?xml version="1.0" standalone="yes"?>
<svg xmlns="http://www.w3.org/2000/svg" width="100" height="100">
<path style="fill:#ffffff; stroke:none;" d="M0 0L0 30L10 30L10 10L50 10L50 0L0 0z"/>
<path style="fill:#000000; stroke:none;" d="M50 0L50 10L10 10L10 30L0 30L0 50L10 50L10 60L0 60L0 80L10 80L10 90L0 90L0 100L50 100L50 90L60 90L60 100L70 100L70 90L100 90L100 70L90 70L90 30L100 30L100 0L90 0L90 10L80 10L80 0L70 0L70 10L60 10L60 0L50 0z"/>
<path style="fill:#ffffff; stroke:none;" d="M60 0L60 10L70 10L70 0L60 0M80 0L80 10L90 10L90 0L80 0M20 20L20 80L80 80L80 20L20 20z"/>
<path style="fill:#000000; stroke:none;" d="M30 30L30 50L40 50L40 60L30 60L30 70L50 70L50 60L60 60L60 50L70 50L70 30L30 30z"/>
<path style="fill:#ffffff; stroke:none;" d="M90 30L90 70L100 70L100 30L90 30M0 50L0 60L10 60L10 50L0 50M0 80L0 90L10 90L10 80L0 80M50 90L50 100L60 100L60 90L50 90M70 90L70 100L100 100L100 90L70 90z"/>
</svg>
