<?xml version="1.0" standalone="yes"?>
<svg xmlns="http://www.w3.org/2000/svg" width="100" height="100">
<path style="fill:#ffffff; stroke:none;" d="M0 0L0 20L10 20L10 10L40 10L40 0L0 0z"/>
<path style="fill:#000000; stroke:none;" d="M40 0L40 10L10 10L10 20L0 20L0 30L10 30L10 40L0 40L0 90L30 90L30 100L60 100L60 90L70 90L70 100L100 100L100 90L90 90L90 60L100 60L100 50L90 50L90 40L100 40L100 30L90 30L90 10L100 10L100 0L90 0L90 10L80 10L80 0L60 0L60 10L50 10L50 0L40 0z"/>
<path style="fill:#ffffff; stroke:none;" d="M50 0L50 10L60 10L60 0L50 0M80 0L80 10L90 10L90 0L80 0M90 10L90 30L100 30L100 10L90 10M20 20L20 80L80 80L80 20L20 20M0 30L0 40L10 40L10 30L0 30z"/>
<path style="fill:#000000; stroke:none;" d="M30 30L30 70L60 70L60 60L70 60L70 30L60 30L60 40L40 40L40 30L30 30z"/>
<path style="fill:#ffffff; stroke:none;" d="M90 40L90 50L100 50L100 40L90 40M90 60L90 90L100 90L100 60L90 60M0 90L0 100L30 100L30 90L0 90M60 90L60 100L70 100L70 90L60 90z"/>
</svg>
