<?xml version="1.0" standalone="yes"?>
<svg xmlns="http://www.w3.org/2000/svg" width="100" height="100">
<path style="fill:#000000; stroke:none;" d="M0 0L0 40L10 40L10 80L0 80L0 100L10 100L10 90L20 90L20 100L50 100L50 90L90 90L90 100L100 100L100 90L90 90L90 50L100 50L100 30L90 30L90 0L80 0L80 10L70 10L70 0L40 0L40 10L30 10L30 0L20 0L20 10L10 10L10 0L0 0z"/>
<path style="fill:#ffffff; stroke:none;" d="M10 0L10 10L20 10L20 0L10 0M30 0L30 10L40 10L40 0L30 0M70 0L70 10L80 10L80 0L70 0M90 0L90 30L100 30L100 0L90 0M20 20L20 80L80 80L80 20L20 20z"/>
<path style="fill:#000000; stroke:none;" d="M40 30L40 60L30 60L30 70L50 70L50 60L60 60L60 30L40 30z"/>
<path style="fill:#ffffff; stroke:none;" d="M0 40L0 80L10 80L10 40L0 40M90 50L90 90L100 90L100 50L90 50M10 90L10 100L20 100L20 90L10 90M50 90L50 100L90 100L90 90L50 90z"/>
</svg>
