<?xml version="1.0" standalone="yes"?>
<svg xmlns="http://www.w3.org/2000/svg" width="100" height="100">
<path style="fill:#000000; stroke:none;" d="M0 0L0 10L10 10L10 40L0 40L0 70L10 70L10 90L0 90L0 100L10 100L10 90L40 90L40 100L50 100L50 90L80 90L80 100L100 100L100 80L90 80L90 70L100 70L100 50L90 50L90 40L100 40L100 0L80 0L80 10L30 10L30 0L0 0z"/>
<path style="fill:#ffffff; stroke:none;" d="M30 0L30 10L80 10L80 0L30 0M0 10L0 40L10 40L10 10L0 10M20 20L20 80L80 80L80 20L20 20z"/>
<path style="fill:#000000; stroke:none;" d="M40 30L40 60L30 60L30 70L40 70L40 60L60 60L60 70L70 70L70 60L60 60L60 40L70 40L70 30L40 30z"/>
<path style="fill:#ffffff; stroke:none;" d="M90 40L90 50L100 50L100 40L90 40M0 70L0 90L10 90L10 70L0 70M90 70L90 80L100 80L100 70L90 70M10 90L10 100L40 100L40 90L10 90M50 90L50 100L80 100L80 90L50 90z"/>
</svg>
