<?xml version="1.0" standalone="yes"?>
<svg xmlns="http://www.w3.org/2000/svg" width="100" height="100">
<path style="fill:#ffffff; stroke:none;" d="M0 0L0 10L20 10L20 0L0 0z"/>
<path style="fill:#000000; stroke:none;" d="M20 0L20 10L0 10L0 30L10 30L10 40L0 40L0 80L10 80L10 90L20 90L20 100L30 100L30 90L40 90L40 100L100 100L100 90L90 90L90 50L100 50L100 30L90 30L90 10L100 10L100 0L90 0L90 10L70 10L70 0L50 0L50 10L40 10L40 0L20 0z"/>
<path style="fill:#ffffff; stroke:none;" d="M40 0L40 10L50 10L50 0L40 0M70 0L70 10L90 10L90 0L70 0M90 10L90 30L100 30L100 10L90 10M20 20L20 80L80 80L80 20L20 20M0 30L0 40L10 40L10 30L0 30z"/>
<path style="fill:#000000; stroke:none;" d="M40 30L40 50L30 50L30 70L70 70L70 60L60 60L60 50L70 50L70 30L40 30z"/>
<path style="fill:#ffffff; stroke:none;" d="M90 50L90 90L100 90L100 50L90 50M0 80L0 100L20 100L20 90L10 90L10 80L0 80M30 90L30 100L40 100L40 90L30 90z"/>
</svg>
