<?xml version="1.0" standalone="yes"?>
<svg xmlns="http://www.w3.org/2000/svg" width="100" height="100">
<path style="fill:#ffffff; stroke:none;" d="M0 0L0 40L10 40L10 10L50 10L50 0L0 0z"/>
<path style="fill:#000000; stroke:none;" d="M50 0L50 10L10 10L10 40L0 40L0 60L10 60L10 70L0 70L0 80L10 80L10 90L0 90L0 100L10 100L10 90L70 90L70 100L100 100L100 90L90 90L90 80L100 80L100 60L90 60L90 20L100 20L100 10L80 10L80 0L70 0L70 10L60 10L60 0L50 0z"/>
<path style="fill:#ffffff; stroke:none;" d="M60 0L60 10L70 10L70 0L60 0M80 0L80 10L100 10L100 0L80 0M20 20L20 80L80 80L80 20L20 20M90 20L90 60L100 60L100 20L90 20z"/>
<path style="fill:#000000; stroke:none;" d="M40 30L40 50L30 50L30 70L60 70L60 60L70 60L70 40L50 40L50 30L40 30z"/>
<path style="fill:#ffffff; stroke:none;" d="M0 60L0 70L10 70L10 60L0 60M0 80L0 90L10 90L10 80L0 80M90 80L90 90L100 90L100 80L90 80M10 90L10 100L70 100L70 90L10 90z"/>
</svg>
