<?xml version="1.0" standalone="yes"?>
<svg xmlns="http://www.w3.org/2000/svg" width="100" height="100">
<path style="fill:#ffffff; stroke:none;" d="M0 0L0 10L10 10L10 0L0 0z"/>
<path style="fill:#000000; stroke:none;" d="M10 0L10 10L0 10L0 20L10 20L10 30L0 30L0 40L10 40L10 50L0 50L0 80L10 80L10 90L20 90L20 100L30 100L30 90L50 90L50 100L60 100L60 90L70 90L70 100L80 100L80 90L100 90L100 80L90 80L90 70L100 70L100 0L80 0L80 10L60 10L60 0L40 0L40 10L20 10L20 0L10 0z"/>
<path style="fill:#ffffff; stroke:none;" d="M20 0L20 10L40 10L40 0L20 0M60 0L60 10L80 10L80 0L60 0M0 20L0 30L10 30L10 20L0 20M20 20L20 80L80 80L80 20L20 20M0 40L0 50L10 50L10 40L0 40z"/>
<path style="fill:#000000; stroke:none;" d="M30 40L30 60L70 60L70 50L60 50L60 40L30 40z"/>
<path style="fill:#ffffff; stroke:none;" d="M90 70L90 80L100 80L100 70L90 70M0 80L0 100L20 100L20 90L10 90L10 80L0 80M30 90L30 100L50 100L50 90L30 90M60 90L60 100L70 100L70 90L60 90M80 90L80 100L100 100L100 90L80 90z"/>
</svg>
