<?xml version="1.0" standalone="yes"?>
<svg xmlns="http://www.w3.org/2000/svg" width="100" height="100">
<path style="fill:#ffffff; stroke:none;" d="M0 0L0 30L10 30L10 10L30 10L30 0L0 0z"/>
<path style="fill:#000000; stroke:none;" d="M30 0L30 10L10 10L10 30L0 30L0 50L10 50L10 60L0 60L0 70L10 70L10 80L0 80L0 100L10 100L10 90L40 90L40 100L70 100L70 90L90 90L90 100L100 100L100 90L90 90L90 30L100 30L100 0L70 0L70 10L60 10L60 0L30 0z"/>
<path style="fill:#ffffff; stroke:none;" d="M60 0L60 10L70 10L70 0L60 0M20 20L20 80L80 80L80 20L20 20z"/>
<path style="fill:#000000; stroke:none;" d="M30 30L30 40L40 40L40 60L60 60L60 70L70 70L70 60L60 60L60 40L70 40L70 30L60 30L60 40L40 40L40 30L30 30z"/>
<path style="fill:#ffffff; stroke:none;" d="M90 30L90 90L100 90L100 30L90 30M0 50L0 60L10 60L10 50L0 50M0 70L0 80L10 80L10 70L0 70M10 90L10 100L40 100L40 90L10 90M70 90L70 100L90 100L90 90L70 90z"/>
</svg>
