<?xml version="1.0" standalone="yes"?>
<svg xmlns="http://www.w3.org/2000/svg" width="100" height="100">
<path style="fill:#000000; stroke:none;" d="M0 0L0 10L10 10L10 40L0 40L0 60L10 60L10 90L20 90L20 100L30 100L30 90L50 90L50 100L60 100L60 90L90 90L90 80L100 80L100 70L90 70L90 40L100 40L100 20L90 20L90 10L50 10L50 0L0 0z"/>
<path style="fill:#ffffff; stroke:none;" d="M50 0L50 10L90 10L90 20L100 20L100 0L50 0M0 10L0 40L10 40L10 10L0 10M20 20L20 80L80 80L80 20L20 20z"/>
<path style="fill:#000000; stroke:none;" d="M30 30L30 40L40 40L40 60L50 60L50 70L70 70L70 40L40 40L40 30L30 30z"/>
<path style="fill:#ffffff; stroke:none;" d="M90 40L90 70L100 70L100 40L90 40M0 60L0 100L20 100L20 90L10 90L10 60L0 60M90 80L90 90L60 90L60 100L100 100L100 80L90 80M30 90L30 100L50 100L50 90L30 90z"/>
</svg>
