<?xml version="1.0" standalone="yes"?>
<svg xmlns="http://www.w3.org/2000/svg" width="100" height="100">
<path style="fill:#000000; stroke:none;" d="M0 0L0 10L10 10L10 30L0 30L0 50L10 50L10 90L0 90L0 100L30 100L30 90L70 90L70 100L90 100L90 80L100 80L100 70L90 70L90 0L60 0L60 10L50 10L50 0L30 0L30 10L20 10L20 0L0 0z"/>
<path style="fill:#ffffff; stroke:none;" d="M20 0L20 10L30 10L30 0L20 0M50 0L50 10L60 10L60 0L50 0M90 0L90 70L100 70L100 0L90 0M0 10L0 30L10 30L10 10L0 10M20 20L20 80L80 80L80 20L20 20z"/>
<path style="fill:#000000; stroke:none;" d="M30 30L30 50L40 50L40 70L70 70L70 30L30 30z"/>
<path style="fill:#ffffff; stroke:none;" d="M0 50L0 90L10 90L10 50L0 50M90 80L90 100L100 100L100 80L90 80M30 90L30 100L70 100L70 90L30 90z"/>
</svg>
