<?xml version="1.0" standalone="yes"?>
<svg xmlns="http://www.w3.org/2000/svg" width="100" height="100">
<path style="fill:#ffffff; stroke:none;" d="M0 0L0 70L10 70L10 10L30 10L30 0L0 0z"/>
<path style="fill:#000000; stroke:none;" d="M30 0L30 10L10 10L10 70L0 70L0 90L20 90L20 100L40 100L40 90L60 90L60 100L80 100L80 90L100 90L100 80L90 80L90 50L100 50L100 40L90 40L90 30L100 30L100 10L80 10L80 0L30 0z"/>
<path style="fill:#ffffff; stroke:none;" d="M80 0L80 10L100 10L100 0L80 0M20 20L20 80L80 80L80 20L20 20z"/>
<path style="fill:#000000; stroke:none;" d="M30 30L30 40L40 40L40 50L30 50L30 70L40 70L40 60L50 60L50 70L70 70L70 60L60 60L60 40L40 40L40 30L30 30z"/>
<path style="fill:#ffffff; stroke:none;" d="M90 30L90 40L100 40L100 30L90 30M90 50L90 80L100 80L100 50L90 50M0 90L0 100L20 100L20 90L0 90M40 90L40 100L60 100L60 90L40 90M80 90L80 100L100 100L100 90L80 90z"/>
</svg>
