<?xml version="1.0" standalone="yes"?>
<svg xmlns="http://www.w3.org/2000/svg" width="100" height="100">
<path style="fill:#000000; stroke:none;" d="M0 0L0 20L10 20L10 30L0 30L0 50L10 50L10 80L0 80L0 100L10 100L10 90L70 90L70 100L80 100L80 90L90 90L90 100L100 100L100 90L90 90L90 30L100 30L100 0L80 0L80 10L70 10L70 0L40 0L40 10L30 10L30 0L0 0z"/>
<path style="fill:#ffffff; stroke:none;" d="M30 0L30 10L40 10L40 0L30 0M70 0L70 10L80 10L80 0L70 0M0 20L0 30L10 30L10 20L0 20M20 20L20 80L80 80L80 20L20 20z"/>
<path style="fill:#000000; stroke:none;" d="M50 30L50 40L40 40L40 50L30 50L30 70L50 70L50 60L60 60L60 30L50 30z"/>
<path style="fill:#ffffff; stroke:none;" d="M90 30L90 90L100 90L100 30L90 30M0 50L0 80L10 80L10 50L0 50M10 90L10 100L70 100L70 90L10 90M80 90L80 100L90 100L90 90L80 90z"/>
</svg>
