<?xml version="1.0" standalone="yes"?>
<svg xmlns="http://www.w3.org/2000/svg" width="100" height="100">
<path style="fill:#ffffff; stroke:none;" d="M0 0L0 30L10 30L10 0L0 0z"/>
<path style="fill:#000000; stroke:none;" d="M10 0L10 30L0 30L0 50L10 50L10 60L0 60L0 70L10 70L10 100L20 100L20 90L50 90L50 100L90 100L90 90L100 90L100 60L90 60L90 50L100 50L100 40L90 40L90 20L100 20L100 10L90 10L90 0L60 0L60 10L50 10L50 0L10 0z"/>
<path style="fill:#ffffff; stroke:none;" d="M50 0L50 10L60 10L60 0L50 0M90 0L90 10L100 10L100 0L90 0M20 20L20 80L80 80L80 20L20 20M90 20L90 40L100 40L100 20L90 20z"/>
<path style="fill:#000000; stroke:none;" d="M40 30L40 40L30 40L30 70L40 70L40 60L60 60L60 70L70 70L70 60L60 60L60 50L70 50L70 40L60 40L60 30L40 30z"/>
<path style="fill:#ffffff; stroke:none;" d="M0 50L0 60L10 60L10 50L0 50M90 50L90 60L100 60L100 50L90 50M0 70L0 100L10 100L10 70L0 70M20 90L20 100L50 100L50 90L20 90M90 90L90 100L100 100L100 90L90 90z"/>
</svg>
