<?xml version="1.0" standalone="yes"?>
<svg xmlns="http://www.w3.org/2000/svg" width="100" height="100">
<path style="fill:#000000; stroke:none;" d="M0 0L0 40L10 40L10 60L0 60L0 70L10 70L10 80L0 80L0 90L10 90L10 100L30 100L30 90L40 90L40 100L70 100L70 90L90 90L90 100L100 100L100 90L90 90L90 60L100 60L100 10L90 10L90 0L60 0L60 10L40 10L40 0L0 0z"/>
<path style="fill:#ffffff; stroke:none;" d="M40 0L40 10L60 10L60 0L40 0M90 0L90 10L100 10L100 0L90 0M20 20L20 80L80 80L80 20L20 20z"/>
<path style="fill:#000000; stroke:none;" d="M60 30L60 40L30 40L30 50L40 50L40 60L30 60L30 70L40 70L40 60L60 60L60 70L70 70L70 60L60 60L60 40L70 40L70 30L60 30z"/>
<path style="fill:#ffffff; stroke:none;" d="M0 40L0 60L10 60L10 40L0 40M90 60L90 90L100 90L100 60L90 60M0 70L0 80L10 80L10 70L0 70M0 90L0 100L10 100L10 90L0 90M30 90L30 100L40 100L40 90L30 90M70 90L70 100L90 100L90 90L70 90z"/>
</svg>
