<?xml version="1.0" standalone="yes"?>
<svg xmlns="http://www.w3.org/2000/svg" width="100" height="100">
<path style="fill:#000000; stroke:none;" d="M0 0L0 10L10 10L10 40L0 40L0 80L10 80L10 100L20 100L20 90L30 90L30 100L50 100L50 90L60 90L60 100L70 100L70 90L80 90L80 100L100 100L100 90L90 90L90 80L100 80L100 70L90 70L90 50L100 50L100 40L90 40L90 20L100 20L100 10L80 10L80 0L50 0L50 10L30 10L30 0L0 0z"/>
<path style="fill:#ffffff; stroke:none;" d="M30 0L30 10L50 10L50 0L30 0M80 0L80 10L100 10L100 0L80 0M0 10L0 40L10 40L10 10L0 10M20 20L20 80L80 80L80 20L20 20M90 20L90 40L100 40L100 20L90 20z"/>
<path style="fill:#000000; stroke:none;" d="M60 30L60 40L40 40L40 50L30 50L30 70L40 70L40 60L50 60L50 70L60 70L60 40L70 40L70 30L60 30z"/>
<path style="fill:#ffffff; stroke:none;" d="M90 50L90 70L100 70L100 50L90 50M0 80L0 100L10 100L10 80L0 80M90 80L90 90L100 90L100 80L90 80M20 90L20 100L30 100L30 90L20 90M50 90L50 100L60 100L60 90L50 90M70 90L70 100L80 100L80 90L70 90z"/>
</svg>
