<?xml version="1.0" standalone="yes"?>
<svg xmlns="http://www.w3.org/2000/svg" width="100" height="100">
<path style="fill:#ffffff; stroke:none;" d="M0 0L0 10L20 10L20 0L0 0z"/>
<path style="fill:#000000; stroke:none;" d="M20 0L20 10L0 10L0 60L10 60L10 90L0 90L0 100L10 100L10 90L30 90L30 100L80 100L80 90L100 90L100 80L90 80L90 70L100 70L100 40L90 40L90 30L100 30L100 10L90 10L90 0L20 0z"/>
<path style="fill:#ffffff; stroke:none;" d="M90 0L90 10L100 10L100 0L90 0M20 20L20 80L80 80L80 20L20 20z"/>
<path style="fill:#000000; stroke:none;" d="M30 30L30 40L40 40L40 60L30 60L30 70L40 70L40 60L60 60L60 70L70 70L70 60L60 60L60 50L70 50L70 30L30 30z"/>
<path style="fill:#ffffff; stroke:none;" d="M90 30L90 40L100 40L100 30L90 30M0 60L0 90L10 90L10 60L0 60M90 70L90 80L100 80L100 70L90 70M10 90L10 100L30 100L30 90L10 90M80 90L80 100L100 100L100 90L80 90z"/>
</svg>
