<?xml version="1.0" standalone="yes"?>
<svg xmlns="http://www.w3.org/2000/svg" width="100" height="100">
<path style="fill:#ffffff; stroke:none;" d="M0 0L0 10L60 10L60 0L0 0z"/>
<path style="fill:#000000; stroke:none;" d="M60 0L60 10L0 10L0 30L10 30L10 50L0 50L0 80L10 80L10 90L20 90L20 100L30 100L30 90L50 90L50 100L60 100L60 90L70 90L70 100L90 100L90 70L100 70L100 60L90 60L90 30L100 30L100 20L90 20L90 10L100 10L100 0L60 0z"/>
<path style="fill:#ffffff; stroke:none;" d="M90 10L90 20L100 20L100 10L90 10M20 20L20 80L80 80L80 20L20 20M0 30L0 50L10 50L10 30L0 30z"/>
<path style="fill:#000000; stroke:none;" d="M30 30L30 70L40 70L40 60L50 60L50 70L60 70L60 50L70 50L70 30L60 30L60 40L50 40L50 30L30 30z"/>
<path style="fill:#ffffff; stroke:none;" d="M90 30L90 60L100 60L100 30L90 30M90 70L90 100L100 100L100 70L90 70M0 80L0 100L20 100L20 90L10 90L10 80L0 80M30 90L30 100L50 100L50 90L30 90M60 90L60 100L70 100L70 90L60 90z"/>
</svg>
