<?xml version="1.0" standalone="yes"?>
<svg xmlns="http://www.w3.org/2000/svg" width="100" height="100">
<path style="fill:#000000; stroke:none;" d="M0 0L0 20L10 20L10 40L0 40L0 50L10 50L10 60L0 60L0 90L30 90L30 100L50 100L50 90L80 90L80 100L90 100L90 90L100 90L100 60L90 60L90 50L100 50L100 0L80 0L80 10L70 10L70 0L60 0L60 10L50 10L50 0L40 0L40 10L30 10L30 0L20 0L20 10L10 10L10 0L0 0z"/>
<path style="fill:#ffffff; stroke:none;" d="M10 0L10 10L20 10L20 0L10 0M30 0L30 10L40 10L40 0L30 0M50 0L50 10L60 10L60 0L50 0M70 0L70 10L80 10L80 0L70 0M0 20L0 40L10 40L10 20L0 20M20 20L20 80L80 80L80 20L20 20z"/>
<path style="fill:#000000; stroke:none;" d="M30 30L30 50L40 50L40 60L70 60L70 50L60 50L60 40L50 40L50 30L30 30z"/>
<path style="fill:#ffffff; stroke:none;" d="M0 50L0 60L10 60L10 50L0 50M90 50L90 60L100 60L100 50L90 50M0 90L0 100L30 100L30 90L0 90M50 90L50 100L80 100L80 90L50 90M90 90L90 100L100 100L100 90L90 90z"/>
</svg>
