<?xml version="1.0" standalone="yes"?>
<svg xmlns="http://www.w3.org/2000/svg" width="100" height="100">
<path style="fill:#000000; stroke:none;" d="M0 0L0 10L10 10L10 40L0 40L0 60L10 60L10 70L0 70L0 80L10 80L10 90L0 90L0 100L40 100L40 90L80 90L80 100L100 100L100 70L90 70L90 60L100 60L100 50L90 50L90 40L100 40L100 0L90 0L90 10L60 10L60 0L40 0L40 10L20 10L20 0L0 0z"/>
<path style="fill:#ffffff; stroke:none;" d="M20 0L20 10L40 10L40 0L20 0M60 0L60 10L90 10L90 0L60 0M0 10L0 40L10 40L10 10L0 10M20 20L20 80L80 80L80 20L20 20z"/>
<path style="fill:#000000; stroke:none;" d="M30 40L30 50L40 50L40 60L30 60L30 70L60 70L60 60L70 60L70 50L60 50L60 40L30 40z"/>
<path style="fill:#ffffff; stroke:none;" d="M90 40L90 50L100 50L100 40L90 40M0 60L0 70L10 70L10 60L0 60M90 60L90 70L100 70L100 60L90 60M0 80L0 90L10 90L10 80L0 80M40 90L40 100L80 100L80 90L40 90z"/>
</svg>
