<?xml version="1.0" standalone="yes"?>
<svg xmlns="http://www.w3.org/2000/svg" width="100" height="100">
<path style="fill:#ffffff; stroke:none;" d="M0 0L0 20L10 20L10 0L0 0z"/>
<path style="fill:#000000; stroke:none;" d="M10 0L10 20L0 20L0 40L10 40L10 60L0 60L0 70L10 70L10 90L0 90L0 100L10 100L10 90L20 90L20 100L30 100L30 90L60 90L60 100L90 100L90 90L100 90L100 30L90 30L90 10L100 10L100 0L80 0L80 10L70 10L70 0L60 0L60 10L50 10L50 0L10 0z"/>
<path style="fill:#ffffff; stroke:none;" d="M50 0L50 10L60 10L60 0L50 0M70 0L70 10L80 10L80 0L70 0M90 10L90 30L100 30L100 10L90 10M20 20L20 80L80 80L80 20L20 20z"/>
<path style="fill:#000000; stroke:none;" d="M30 30L30 60L40 60L40 70L50 70L50 60L60 60L60 70L70 70L70 50L60 50L60 40L70 40L70 30L50 30L50 40L40 40L40 30L30 30z"/>
<path style="fill:#ffffff; stroke:none;" d="M0 40L0 60L10 60L10 40L0 40M0 70L0 90L10 90L10 70L0 70M10 90L10 100L20 100L20 90L10 90M30 90L30 100L60 100L60 90L30 90M90 90L90 100L100 100L100 90L90 90z"/>
</svg>
