<?xml version="1.0" standalone="yes"?>
<svg xmlns="http://www.w3.org/2000/svg" width="100" height="100">
<path style="fill:#000000; stroke:none;" d="M0 0L0 20L10 20L10 50L0 50L0 60L10 60L10 70L0 70L0 100L10 100L10 90L40 90L40 100L50 100L50 90L60 90L60 100L70 100L70 90L80 90L80 100L90 100L90 60L100 60L100 50L90 50L90 30L100 30L100 20L90 20L90 10L100 10L100 0L90 0L90 10L70 10L70 0L60 0L60 10L50 10L50 0L30 0L30 10L20 10L20 0L0 0z"/>
<path style="fill:#ffffff; stroke:none;" d="M20 0L20 10L30 10L30 0L20 0M50 0L50 10L60 10L60 0L50 0M70 0L70 10L90 10L90 0L70 0M90 10L90 20L100 20L100 10L90 10M0 20L0 50L10 50L10 20L0 20M20 20L20 80L80 80L80 20L20 20z"/>
<path style="fill:#000000; stroke:none;" d="M50 30L50 40L30 40L30 60L40 60L40 70L70 70L70 30L50 30z"/>
<path style="fill:#ffffff; stroke:none;" d="M90 30L90 50L100 50L100 30L90 30M0 60L0 70L10 70L10 60L0 60M90 60L90 100L100 100L100 60L90 60M10 90L10 100L40 100L40 90L10 90M50 90L50 100L60 100L60 90L50 90M70 90L70 100L80 100L80 90L70 90z"/>
</svg>
