<?xml version="1.0" standalone="yes"?>
<svg xmlns="http://www.w3.org/2000/svg" width="100" height="100">
<path style="fill:#ffffff; stroke:none;" d="M0 0L0 70L10 70L10 0L0 0z"/>
<path style="fill:#000000; stroke:none;" d="M10 0L10 70L0 70L0 80L10 80L10 90L50 90L50 100L90 100L90 70L100 70L100 40L90 40L90 20L100 20L100 10L60 10L60 0L30 0L30 10L20 10L20 0L10 0z"/>
<path style="fill:#ffffff; stroke:none;" d="M20 0L20 10L30 10L30 0L20 0M60 0L60 10L100 10L100 0L60 0M20 20L20 80L80 80L80 20L20 20M90 20L90 40L100 40L100 20L90 20z"/>
<path style="fill:#000000; stroke:none;" d="M40 30L40 50L30 50L30 60L50 60L50 70L70 70L70 50L60 50L60 30L40 30z"/>
<path style="fill:#ffffff; stroke:none;" d="M90 70L90 100L100 100L100 70L90 70M0 80L0 100L50 100L50 90L10 90L10 80L0 80z"/>
</svg>
