<?xml version="1.0" standalone="yes"?>
<svg xmlns="http://www.w3.org/2000/svg" width="100" height="100">
<path style="fill:#ffffff; stroke:none;" d="M0 0L0 10L90 10L90 20L100 20L100 10L90 10L90 0L0 0z"/>
<path style="fill:#000000; stroke:none;" d="M90 0L90 10L100 10L100 0L90 0M0 10L0 80L10 80L10 100L20 100L20 90L50 90L50 100L60 100L60 90L80 90L80 100L100 100L100 90L90 90L90 60L100 60L100 50L90 50L90 30L100 30L100 20L90 20L90 10L0 10z"/>
<path style="fill:#ffffff; stroke:none;" d="M20 20L20 80L80 80L80 20L20 20z"/>
<path style="fill:#000000; stroke:none;" d="M30 30L30 40L40 40L40 50L30 50L30 60L50 60L50 70L70 70L70 60L60 60L60 50L70 50L70 40L40 40L40 30L30 30z"/>
<path style="fill:#ffffff; stroke:none;" d="M90 30L90 50L100 50L100 30L90 30M90 60L90 90L100 90L100 60L90 60M0 80L0 100L10 100L10 80L0 80M20 90L20 100L50 100L50 90L20 90M60 90L60 100L80 100L80 90L60 90z"/>
</svg>
