<?xml version="1.0" standalone="yes"?>
<svg xmlns="http://www.w3.org/2000/svg" width="100" height="100">
<path style="fill:#ffffff; stroke:none;" d="M0 0L0 10L10 10L10 0L0 0z"/>
<path style="fill:#000000; stroke:none;" d="M10 0L10 10L0 10L0 40L10 40L10 60L0 60L0 80L10 80L10 90L0 90L0 100L10 100L10 90L50 90L50 100L90 100L90 90L100 90L100 80L90 80L90 70L100 70L100 60L90 60L90 30L100 30L100 10L60 10L60 0L10 0z"/>
<path style="fill:#ffffff; stroke:none;" d="M60 0L60 10L100 10L100 0L60 0M20 20L20 80L80 80L80 20L20 20z"/>
<path style="fill:#000000; stroke:none;" d="M50 30L50 40L30 40L30 50L40 50L40 70L50 70L50 60L60 60L60 70L70 70L70 60L60 60L60 40L70 40L70 30L50 30z"/>
<path style="fill:#ffffff; stroke:none;" d="M90 30L90 60L100 60L100 30L90 30M0 40L0 60L10 60L10 40L0 40M90 70L90 80L100 80L100 70L90 70M0 80L0 90L10 90L10 80L0 80M10 90L10 100L50 100L50 90L10 90M90 90L90 100L100 100L100 90L90 90z"/>
</svg>
