<?xml version="1.0" standalone="yes"?>
<svg xmlns="http://www.w3.org/2000/svg" width="100" height="100">
<path style="fill:#000000; stroke:none;" d="M0 0L0 30L10 30L10 40L0 40L0 60L10 60L10 90L20 90L20 100L40 100L40 90L90 90L90 100L100 100L100 90L90 90L90 70L100 70L100 40L90 40L90 20L100 20L100 0L90 0L90 10L80 10L80 0L70 0L70 10L20 10L20 0L0 0z"/>
<path style="fill:#ffffff; stroke:none;" d="M20 0L20 10L70 10L70 0L20 0M80 0L80 10L90 10L90 0L80 0M20 20L20 80L80 80L80 20L20 20M90 20L90 40L100 40L100 20L90 20M0 30L0 40L10 40L10 30L0 30z"/>
<path style="fill:#000000; stroke:none;" d="M30 30L30 70L40 70L40 60L50 60L50 70L60 70L60 40L70 40L70 30L60 30L60 40L40 40L40 30L30 30z"/>
<path style="fill:#ffffff; stroke:none;" d="M0 60L0 100L20 100L20 90L10 90L10 60L0 60M90 70L90 90L100 90L100 70L90 70M40 90L40 100L90 100L90 90L40 90z"/>
</svg>
