<?xml version="1.0" standalone="yes"?>
<svg xmlns="http://www.w3.org/2000/svg" width="100" height="100">
<path style="fill:#ffffff; stroke:none;" d="M0 0L0 20L10 20L10 10L30 10L30 0L0 0z"/>
<path style="fill:#000000; stroke:none;" d="M30 0L30 10L10 10L10 20L0 20L0 30L10 30L10 40L0 40L0 70L10 70L10 80L0 80L0 100L10 100L10 90L40 90L40 100L50 100L50 90L60 90L60 100L100 100L100 90L90 90L90 80L100 80L100 70L90 70L90 60L100 60L100 40L90 40L90 10L100 10L100 0L80 0L80 10L40 10L40 0L30 0z"/>
<path style="fill:#ffffff; stroke:none;" d="M40 0L40 10L80 10L80 0L40 0M90 10L90 40L100 40L100 10L90 10M20 20L20 80L80 80L80 20L20 20M0 30L0 40L10 40L10 30L0 30z"/>
<path style="fill:#000000; stroke:none;" d="M30 30L30 40L40 40L40 50L30 50L30 70L40 70L40 60L60 60L60 70L70 70L70 30L60 30L60 40L40 40L40 30L30 30z"/>
<path style="fill:#ffffff; stroke:none;" d="M90 60L90 70L100 70L100 60L90 60M0 70L0 80L10 80L10 70L0 70M90 80L90 90L100 90L100 80L90 80M10 90L10 100L40 100L40 90L10 90M50 90L50 100L60 100L60 90L50 90z"/>
</svg>
