<?xml version="1.0" standalone="yes"?>
<svg xmlns="http://www.w3.org/2000/svg" width="100" height="100">
<path style="fill:#000000; stroke:none;" d="M0 0L0 30L10 30L10 90L0 90L0 100L10 100L10 90L40 90L40 100L70 100L70 90L80 90L80 100L100 100L100 70L90 70L90 60L100 60L100 50L90 50L90 0L70 0L70 10L50 10L50 0L0 0z"/>
<path style="fill:#ffffff; stroke:none;" d="M50 0L50 10L70 10L70 0L50 0M90 0L90 50L100 50L100 0L90 0M20 20L20 80L80 80L80 20L20 20M0 30L0 90L10 90L10 30L0 30z"/>
<path style="fill:#000000; stroke:none;" d="M50 30L50 40L30 40L30 70L50 70L50 60L60 60L60 70L70 70L70 50L60 50L60 30L50 30z"/>
<path style="fill:#ffffff; stroke:none;" d="M90 60L90 70L100 70L100 60L90 60M10 90L10 100L40 100L40 90L10 90M70 90L70 100L80 100L80 90L70 90z"/>
</svg>
