<?xml version="1.0" standalone="yes"?>
<svg xmlns="http://www.w3.org/2000/svg" width="100" height="100">
<path style="fill:#000000; stroke:none;" d="M0 0L0 60L10 60L10 80L0 80L0 100L10 100L10 90L20 90L20 100L30 100L30 90L90 90L90 100L100 100L100 90L90 90L90 30L100 30L100 10L60 10L60 0L50 0L50 10L20 10L20 0L0 0z"/>
<path style="fill:#ffffff; stroke:none;" d="M20 0L20 10L50 10L50 0L20 0M60 0L60 10L100 10L100 0L60 0M20 20L20 80L80 80L80 20L20 20z"/>
<path style="fill:#000000; stroke:none;" d="M60 30L60 40L30 40L30 70L50 70L50 60L60 60L60 70L70 70L70 50L60 50L60 40L70 40L70 30L60 30z"/>
<path style="fill:#ffffff; stroke:none;" d="M90 30L90 90L100 90L100 30L90 30M0 60L0 80L10 80L10 60L0 60M10 90L10 100L20 100L20 90L10 90M30 90L30 100L90 100L90 90L30 90z"/>
</svg>
