<?xml version="1.0" standalone="yes"?>
<svg xmlns="http://www.w3.org/2000/svg" width="100" height="100">
<path style="fill:#ffffff; stroke:none;" d="M0 0L0 50L10 50L10 10L40 10L40 0L0 0z"/>
<path style="fill:#000000; stroke:none;" d="M40 0L40 10L10 10L10 50L0 50L0 100L10 100L10 90L30 90L30 100L40 100L40 90L50 90L50 100L80 100L80 90L90 90L90 60L100 60L100 50L90 50L90 10L100 10L100 0L90 0L90 10L50 10L50 0L40 0z"/>
<path style="fill:#ffffff; stroke:none;" d="M50 0L50 10L90 10L90 0L50 0M90 10L90 50L100 50L100 10L90 10M20 20L20 80L80 80L80 20L20 20z"/>
<path style="fill:#000000; stroke:none;" d="M40 30L40 40L30 40L30 50L40 50L40 60L50 60L50 70L60 70L60 60L70 60L70 50L60 50L60 30L40 30z"/>
<path style="fill:#ffffff; stroke:none;" d="M90 60L90 90L80 90L80 100L100 100L100 60L90 60M10 90L10 100L30 100L30 90L10 90M40 90L40 100L50 100L50 90L40 90z"/>
</svg>
