<?xml version="1.0" standalone="yes"?>
<svg xmlns="http://www.w3.org/2000/svg" width="100" height="100">
<path style="fill:#ffffff; stroke:none;" d="M0 0L0 30L10 30L10 10L20 10L20 0L0 0z"/>
<path style="fill:#000000; stroke:none;" d="M20 0L20 10L10 10L10 30L0 30L0 60L10 60L10 70L0 70L0 100L10 100L10 90L40 90L40 100L60 100L60 90L90 90L90 100L100 100L100 90L90 90L90 70L100 70L100 60L90 60L90 50L100 50L100 40L90 40L90 30L100 30L100 20L90 20L90 0L60 0L60 10L30 10L30 0L20 0z"/>
<path style="fill:#ffffff; stroke:none;" d="M30 0L30 10L60 10L60 0L30 0M90 0L90 20L100 20L100 0L90 0M20 20L20 80L80 80L80 20L20 20z"/>
<path style="fill:#000000; stroke:none;" d="M30 30L30 70L60 70L60 60L70 60L70 40L60 40L60 30L30 30z"/>
<path style="fill:#ffffff; stroke:none;" d="M90 30L90 40L100 40L100 30L90 30M90 50L90 60L100 60L100 50L90 50M0 60L0 70L10 70L10 60L0 60M90 70L90 90L100 90L100 70L90 70M10 90L10 100L40 100L40 90L10 90M60 90L60 100L90 100L90 90L60 90z"/>
</svg>
