<?xml version="1.0" standalone="yes"?>
<svg xmlns="http://www.w3.org/2000/svg" width="100" height="100">
<path style="fill:#ffffff; stroke:none;" d="M0 0L0 10L30 10L30 0L0 0z"/>
<path style="fill:#000000; stroke:none;" d="M30 0L30 10L0 10L0 20L10 20L10 40L0 40L0 70L10 70L10 90L0 90L0 100L20 100L20 90L60 90L60 100L90 100L90 10L80 10L80 0L60 0L60 10L40 10L40 0L30 0z"/>
<path style="fill:#ffffff; stroke:none;" d="M40 0L40 10L60 10L60 0L40 0M80 0L80 10L90 10L90 100L100 100L100 0L80 0M0 20L0 40L10 40L10 20L0 20M20 20L20 80L80 80L80 20L20 20z"/>
<path style="fill:#000000; stroke:none;" d="M40 30L40 50L30 50L30 60L70 60L70 40L60 40L60 30L40 30z"/>
<path style="fill:#ffffff; stroke:none;" d="M0 70L0 90L10 90L10 70L0 70M20 90L20 100L60 100L60 90L20 90z"/>
</svg>
