<?xml version="1.0" standalone="yes"?>
<svg xmlns="http://www.w3.org/2000/svg" width="100" height="100">
<path style="fill:#ffffff; stroke:none;" d="M0 0L0 10L20 10L20 0L0 0z"/>
<path style="fill:#000000; stroke:none;" d="M20 0L20 10L0 10L0 20L10 20L10 40L0 40L0 70L10 70L10 80L0 80L0 90L20 90L20 100L40 100L40 90L50 90L50 100L80 100L80 90L90 90L90 100L100 100L100 80L90 80L90 70L100 70L100 20L90 20L90 0L80 0L80 10L70 10L70 0L20 0z"/>
<path style="fill:#ffffff; stroke:none;" d="M70 0L70 10L80 10L80 0L70 0M90 0L90 20L100 20L100 0L90 0M0 20L0 40L10 40L10 20L0 20M20 20L20 80L80 80L80 20L20 20z"/>
<path style="fill:#000000; stroke:none;" d="M30 30L30 50L40 50L40 60L30 60L30 70L50 70L50 60L60 60L60 70L70 70L70 60L60 60L60 50L70 50L70 40L60 40L60 30L30 30z"/>
<path style="fill:#ffffff; stroke:none;" d="M0 70L0 80L10 80L10 70L0 70M90 70L90 80L100 80L100 70L90 70M0 90L0 100L20 100L20 90L0 90M40 90L40 100L50 100L50 90L40 90M80 90L80 100L90 100L90 90L80 90z"/>
</svg>
