<?xml version="1.0" standalone="yes"?>
<svg xmlns="http://www.w3.org/2000/svg" width="100" height="100">
<path style="fill:#000000; stroke:none;" d="M0 0L0 50L10 50L10 60L0 60L0 70L10 70L10 80L0 80L0 100L10 100L10 90L30 90L30 100L60 100L60 90L90 90L90 70L100 70L100 40L90 40L90 30L100 30L100 10L80 10L80 0L40 0L40 10L20 10L20 0L0 0z"/>
<path style="fill:#ffffff; stroke:none;" d="M20 0L20 10L40 10L40 0L20 0M80 0L80 10L100 10L100 0L80 0M20 20L20 80L80 80L80 20L20 20z"/>
<path style="fill:#000000; stroke:none;" d="M30 30L30 60L60 60L60 70L70 70L70 30L50 30L50 40L40 40L40 30L30 30z"/>
<path style="fill:#ffffff; stroke:none;" d="M90 30L90 40L100 40L100 30L90 30M0 50L0 60L10 60L10 50L0 50M0 70L0 80L10 80L10 70L0 70M90 70L90 90L60 90L60 100L100 100L100 70L90 70M10 90L10 100L30 100L30 90L10 90z"/>
</svg>
