<?xml version="1.0" standalone="yes"?>
<svg xmlns="http://www.w3.org/2000/svg" width="100" height="100">
<path style="fill:#ffffff; stroke:none;" d="M0 0L0 10L10 10L10 0L0 0z"/>
<path style="fill:#000000; stroke:none;" d="M10 0L10 10L0 10L0 20L10 20L10 50L0 50L0 60L10 60L10 80L0 80L0 90L50 90L50 100L80 100L80 90L90 90L90 100L100 100L100 50L90 50L90 30L100 30L100 0L80 0L80 10L20 10L20 0L10 0z"/>
<path style="fill:#ffffff; stroke:none;" d="M20 0L20 10L80 10L80 0L20 0M0 20L0 50L10 50L10 20L0 20M20 20L20 80L80 80L80 20L20 20z"/>
<path style="fill:#000000; stroke:none;" d="M40 30L40 60L60 60L60 70L70 70L70 60L60 60L60 30L40 30z"/>
<path style="fill:#ffffff; stroke:none;" d="M90 30L90 50L100 50L100 30L90 30M0 60L0 80L10 80L10 60L0 60M0 90L0 100L50 100L50 90L0 90M80 90L80 100L90 100L90 90L80 90z"/>
</svg>
