<?xml version="1.0" standalone="yes"?>
<svg xmlns="http://www.w3.org/2000/svg" width="100" height="100">
<path style="fill:#ffffff; stroke:none;" d="M0 0L0 10L10 10L10 0L0 0z"/>
<path style="fill:#000000; stroke:none;" d="M10 0L10 10L0 10L0 40L10 40L10 50L0 50L0 60L10 60L10 90L0 90L0 100L20 100L20 90L40 90L40 100L50 100L50 90L70 90L70 100L80 100L80 90L90 90L90 70L100 70L100 30L90 30L90 10L100 10L100 0L80 0L80 10L60 10L60 0L40 0L40 10L20 10L20 0L10 0z"/>
<path style="fill:#ffffff; stroke:none;" d="M20 0L20 10L40 10L40 0L20 0M60 0L60 10L80 10L80 0L60 0M90 10L90 30L100 30L100 10L90 10M20 20L20 80L80 80L80 20L20 20z"/>
<path style="fill:#000000; stroke:none;" d="M30 30L30 40L40 40L40 60L30 60L30 70L60 70L60 60L70 60L70 50L60 50L60 40L70 40L70 30L30 30z"/>
<path style="fill:#ffffff; stroke:none;" d="M0 40L0 50L10 50L10 40L0 40M0 60L0 90L10 90L10 60L0 60M90 70L90 90L80 90L80 100L100 100L100 70L90 70M20 90L20 100L40 100L40 90L20 90M50 90L50 100L70 100L70 90L50 90z"/>
</svg>
