<?xml version="1.0" standalone="yes"?>
<svg xmlns="http://www.w3.org/2000/svg" width="100" height="100">
<path style="fill:#000000; stroke:none;" d="M0 0L0 10L10 10L10 100L20 100L20 90L40 90L40 100L50 100L50 90L60 90L60 100L90 100L90 90L100 90L100 80L90 80L90 70L100 70L100 60L90 60L90 50L100 50L100 10L80 10L80 0L50 0L50 10L20 10L20 0L0 0z"/>
<path style="fill:#ffffff; stroke:none;" d="M20 0L20 10L50 10L50 0L20 0M80 0L80 10L100 10L100 0L80 0M0 10L0 100L10 100L10 10L0 10M20 20L20 80L80 80L80 20L20 20z"/>
<path style="fill:#000000; stroke:none;" d="M30 30L30 40L40 40L40 60L60 60L60 70L70 70L70 50L60 50L60 40L40 40L40 30L30 30z"/>
<path style="fill:#ffffff; stroke:none;" d="M90 50L90 60L100 60L100 50L90 50M90 70L90 80L100 80L100 70L90 70M20 90L20 100L40 100L40 90L20 90M50 90L50 100L60 100L60 90L50 90M90 90L90 100L100 100L100 90L90 90z"/>
</svg>
