<?xml version="1.0" standalone="yes"?>
<svg xmlns="http://www.w3.org/2000/svg" width="100" height="100">
<path style="fill:#000000; stroke:none;" d="M0 0L0 20L10 20L10 40L0 40L0 50L10 50L10 70L0 70L0 80L10 80L10 90L0 90L0 100L10 100L10 90L40 90L40 100L90 100L90 90L100 90L100 80L90 80L90 40L100 40L100 0L80 0L80 10L70 10L70 0L50 0L50 10L40 10L40 0L30 0L30 10L10 10L10 0L0 0z"/>
<path style="fill:#ffffff; stroke:none;" d="M10 0L10 10L30 10L30 0L10 0M40 0L40 10L50 10L50 0L40 0M70 0L70 10L80 10L80 0L70 0M0 20L0 40L10 40L10 20L0 20M20 20L20 80L80 80L80 20L20 20z"/>
<path style="fill:#000000; stroke:none;" d="M30 30L30 40L40 40L40 50L30 50L30 70L70 70L70 40L40 40L40 30L30 30z"/>
<path style="fill:#ffffff; stroke:none;" d="M90 40L90 80L100 80L100 40L90 40M0 50L0 70L10 70L10 50L0 50M0 80L0 90L10 90L10 80L0 80M10 90L10 100L40 100L40 90L10 90M90 90L90 100L100 100L100 90L90 90z"/>
</svg>
