<?xml version="1.0" standalone="yes"?>
<svg xmlns="http://www.w3.org/2000/svg" width="100" height="100">
<path style="fill:#000000; stroke:none;" d="M0 0L0 50L10 50L10 60L0 60L0 100L30 100L30 90L40 90L40 100L50 100L50 90L70 90L70 100L90 100L90 90L100 90L100 80L90 80L90 50L100 50L100 30L90 30L90 20L100 20L100 0L80 0L80 10L60 10L60 0L40 0L40 10L10 10L10 0L0 0z"/>
<path style="fill:#ffffff; stroke:none;" d="M10 0L10 10L40 10L40 0L10 0M60 0L60 10L80 10L80 0L60 0M20 20L20 80L80 80L80 20L20 20M90 20L90 30L100 30L100 20L90 20z"/>
<path style="fill:#000000; stroke:none;" d="M30 30L30 60L70 60L70 40L60 40L60 30L50 30L50 40L40 40L40 30L30 30z"/>
<path style="fill:#ffffff; stroke:none;" d="M0 50L0 60L10 60L10 50L0 50M90 50L90 80L100 80L100 50L90 50M30 90L30 100L40 100L40 90L30 90M50 90L50 100L70 100L70 90L50 90M90 90L90 100L100 100L100 90L90 90z"/>
</svg>
