<?xml version="1.0" standalone="yes"?>
<svg xmlns="http://www.w3.org/2000/svg" width="100" height="100">
<path style="fill:#ffffff; stroke:none;" d="M0 0L0 10L20 10L20 0L0 0z"/>
<path style="fill:#000000; stroke:none;" d="M20 0L20 10L0 10L0 20L10 20L10 30L0 30L0 50L10 50L10 60L0 60L0 100L10 100L10 90L40 90L40 100L80 100L80 90L90 90L90 100L100 100L100 70L90 70L90 40L100 40L100 30L90 30L90 20L100 20L100 0L90 0L90 10L80 10L80 0L70 0L70 10L60 10L60 0L20 0z"/>
<path style="fill:#ffffff; stroke:none;" d="M60 0L60 10L70 10L70 0L60 0M80 0L80 10L90 10L90 0L80 0M0 20L0 30L10 30L10 20L0 20M20 20L20 80L80 80L80 20L20 20M90 20L90 30L100 30L100 20L90 20z"/>
<path style="fill:#000000; stroke:none;" d="M30 30L30 40L40 40L40 50L30 50L30 60L70 60L70 40L50 40L50 30L30 30z"/>
<path style="fill:#ffffff; stroke:none;" d="M90 40L90 70L100 70L100 40L90 40M0 50L0 60L10 60L10 50L0 50M10 90L10 100L40 100L40 90L10 90M80 90L80 100L90 100L90 90L80 90z"/>
</svg>
