<?xml version="1.0" standalone="yes"?>
<svg xmlns="http://www.w3.org/2000/svg" width="100" height="100">
<path style="fill:#000000; stroke:none;" d="M0 0L0 10L10 10L10 30L0 30L0 40L10 40L10 50L0 50L0 60L10 60L10 70L0 70L0 100L20 100L20 90L50 90L50 100L80 100L80 90L90 90L90 100L100 100L100 80L90 80L90 10L70 10L70 0L50 0L50 10L20 10L20 0L0 0z"/>
<path style="fill:#ffffff; stroke:none;" d="M20 0L20 10L50 10L50 0L20 0M70 0L70 10L90 10L90 80L100 80L100 0L70 0M0 10L0 30L10 30L10 10L0 10M20 20L20 80L80 80L80 20L20 20z"/>
<path style="fill:#000000; stroke:none;" d="M40 30L40 60L60 60L60 70L70 70L70 50L60 50L60 30L40 30z"/>
<path style="fill:#ffffff; stroke:none;" d="M0 40L0 50L10 50L10 40L0 40M0 60L0 70L10 70L10 60L0 60M20 90L20 100L50 100L50 90L20 90M80 90L80 100L90 100L90 90L80 90z"/>
</svg>
