<?xml version="1.0" standalone="yes"?>
<svg xmlns="http://www.w3.org/2000/svg" width="100" height="100">
<path style="fill:#ffffff; stroke:none;" d="M0 0L0 30L10 30L10 0L0 0z"/>
<path style="fill:#000000; stroke:none;" d="M10 0L10 30L0 30L0 50L10 50L10 60L0 60L0 90L10 90L10 100L20 100L20 90L30 90L30 100L40 100L40 90L70 90L70 100L80 100L80 90L90 90L90 100L100 100L100 80L90 80L90 70L100 70L100 60L90 60L90 10L80 10L80 0L60 0L60 10L20 10L20 0L10 0z"/>
<path style="fill:#ffffff; stroke:none;" d="M20 0L20 10L60 10L60 0L20 0M80 0L80 10L90 10L90 60L100 60L100 0L80 0M20 20L20 80L80 80L80 20L20 20z"/>
<path style="fill:#000000; stroke:none;" d="M30 30L30 40L40 40L40 50L30 50L30 70L50 70L50 60L70 60L70 30L30 30z"/>
<path style="fill:#ffffff; stroke:none;" d="M0 50L0 60L10 60L10 50L0 50M90 70L90 80L100 80L100 70L90 70M0 90L0 100L10 100L10 90L0 90M20 90L20 100L30 100L30 90L20 90M40 90L40 100L70 100L70 90L40 90M80 90L80 100L90 100L90 90L80 90z"/>
</svg>
