<?xml version="1.0" standalone="yes"?>
<svg xmlns="http://www.w3.org/2000/svg" width="100" height="100">
<path style="fill:#000000; stroke:none;" d="M0 0L0 50L10 50L10 70L0 70L0 90L30 90L30 100L40 100L40 90L60 90L60 100L80 100L80 90L90 90L90 100L100 100L100 90L90 90L90 80L100 80L100 70L90 70L90 60L100 60L100 40L90 40L90 20L100 20L100 0L90 0L90 10L80 10L80 0L70 0L70 10L60 10L60 0L0 0z"/>
<path style="fill:#ffffff; stroke:none;" d="M60 0L60 10L70 10L70 0L60 0M80 0L80 10L90 10L90 0L80 0M20 20L20 80L80 80L80 20L20 20M90 20L90 40L100 40L100 20L90 20z"/>
<path style="fill:#000000; stroke:none;" d="M50 30L50 40L30 40L30 70L50 70L50 60L70 60L70 50L60 50L60 40L70 40L70 30L50 30z"/>
<path style="fill:#ffffff; stroke:none;" d="M0 50L0 70L10 70L10 50L0 50M90 60L90 70L100 70L100 60L90 60M90 80L90 90L100 90L100 80L90 80M0 90L0 100L30 100L30 90L0 90M40 90L40 100L60 100L60 90L40 90M80 90L80 100L90 100L90 90L80 90z"/>
</svg>
