<?xml version="1.0" standalone="yes"?>
<svg xmlns="http://www.w3.org/2000/svg" width="100" height="100">
<path style="fill:#ffffff; stroke:none;" d="M0 0L0 30L10 30L10 10L50 10L50 0L0 0z"/>
<path style="fill:#000000; stroke:none;" d="M50 0L50 10L10 10L10 30L0 30L0 50L10 50L10 60L0 60L0 70L10 70L10 100L40 100L40 90L50 90L50 100L60 100L60 90L80 90L80 100L90 100L90 90L100 90L100 80L90 80L90 70L100 70L100 60L90 60L90 40L100 40L100 30L90 30L90 10L100 10L100 0L90 0L90 10L70 10L70 0L50 0z"/>
<path style="fill:#ffffff; stroke:none;" d="M70 0L70 10L90 10L90 0L70 0M90 10L90 30L100 30L100 10L90 10M20 20L20 80L80 80L80 20L20 20z"/>
<path style="fill:#000000; stroke:none;" d="M40 30L40 40L30 40L30 50L40 50L40 60L30 60L30 70L70 70L70 50L60 50L60 40L50 40L50 30L40 30z"/>
<path style="fill:#ffffff; stroke:none;" d="M90 40L90 60L100 60L100 40L90 40M0 50L0 60L10 60L10 50L0 50M0 70L0 100L10 100L10 70L0 70M90 70L90 80L100 80L100 70L90 70M40 90L40 100L50 100L50 90L40 90M60 90L60 100L80 100L80 90L60 90M90 90L90 100L100 100L100 90L90 90z"/>
</svg>
