<?xml version="1.0" standalone="yes"?>
<svg xmlns="http://www.w3.org/2000/svg" width="100" height="100">
<path style="fill:#ffffff; stroke:none;" d="M0 0L0 10L50 10L50 0L0 0z"/>
<path style="fill:#000000; stroke:none;" d="M50 0L50 10L0 10L0 30L10 30L10 40L0 40L0 100L10 100L10 90L40 90L40 100L60 100L60 90L70 90L70 100L80 100L80 90L90 90L90 100L100 100L100 90L90 90L90 70L100 70L100 60L90 60L90 10L100 10L100 0L50 0z"/>
<path style="fill:#ffffff; stroke:none;" d="M90 10L90 60L100 60L100 10L90 10M20 20L20 80L80 80L80 20L20 20M0 30L0 40L10 40L10 30L0 30z"/>
<path style="fill:#000000; stroke:none;" d="M40 30L40 40L30 40L30 70L60 70L60 60L70 60L70 50L60 50L60 30L40 30z"/>
<path style="fill:#ffffff; stroke:none;" d="M90 70L90 90L100 90L100 70L90 70M10 90L10 100L40 100L40 90L10 90M60 90L60 100L70 100L70 90L60 90M80 90L80 100L90 100L90 90L80 90z"/>
</svg>
