<?xml version="1.0" standalone="yes"?>
<svg xmlns="http://www.w3.org/2000/svg" width="100" height="100">
<path style="fill:#ffffff; stroke:none;" d="M0 0L0 30L10 30L10 10L50 10L50 0L0 0z"/>
<path style="fill:#000000; stroke:none;" d="M50 0L50 10L10 10L10 30L0 30L0 80L10 80L10 90L40 90L40 100L70 100L70 90L80 90L80 100L90 100L90 90L100 90L100 50L90 50L90 30L100 30L100 10L80 10L80 0L50 0z"/>
<path style="fill:#ffffff; stroke:none;" d="M80 0L80 10L100 10L100 0L80 0M20 20L20 80L80 80L80 20L20 20z"/>
<path style="fill:#000000; stroke:none;" d="M40 30L40 60L30 60L30 70L40 70L40 60L50 60L50 70L70 70L70 30L60 30L60 40L50 40L50 30L40 30z"/>
<path style="fill:#ffffff; stroke:none;" d="M90 30L90 50L100 50L100 30L90 30M0 80L0 100L40 100L40 90L10 90L10 80L0 80M70 90L70 100L80 100L80 90L70 90M90 90L90 100L100 100L100 90L90 90z"/>
</svg>
