<?xml version="1.0" standalone="yes"?>
<svg xmlns="http://www.w3.org/2000/svg" width="100" height="100">
<path style="fill:#000000; stroke:none;" d="M0 0L0 10L10 10L10 30L0 30L0 50L10 50L10 80L0 80L0 90L10 90L10 100L20 100L20 90L40 90L40 100L60 100L60 90L80 90L80 100L90 100L90 60L100 60L100 50L90 50L90 40L100 40L100 30L90 30L90 20L100 20L100 10L90 10L90 0L80 0L80 10L70 10L70 0L60 0L60 10L30 10L30 0L0 0z"/>
<path style="fill:#ffffff; stroke:none;" d="M30 0L30 10L60 10L60 0L30 0M70 0L70 10L80 10L80 0L70 0M90 0L90 10L100 10L100 0L90 0M0 10L0 30L10 30L10 10L0 10M20 20L20 80L80 80L80 20L20 20M90 20L90 30L100 30L100 20L90 20z"/>
<path style="fill:#000000; stroke:none;" d="M50 30L50 40L40 40L40 50L30 50L30 60L40 60L40 70L50 70L50 60L60 60L60 40L70 40L70 30L50 30z"/>
<path style="fill:#ffffff; stroke:none;" d="M90 40L90 50L100 50L100 40L90 40M0 50L0 80L10 80L10 50L0 50M90 60L90 100L100 100L100 60L90 60M0 90L0 100L10 100L10 90L0 90M20 90L20 100L40 100L40 90L20 90M60 90L60 100L80 100L80 90L60 90z"/>
</svg>
