<?xml version="1.0" standalone="yes"?>
<svg xmlns="http://www.w3.org/2000/svg" width="100" height="100">
<path style="fill:#000000; stroke:none;" d="M0 0L0 10L10 10L10 90L0 90L0 100L30 100L30 90L50 90L50 100L70 100L70 90L90 90L90 100L100 100L100 70L90 70L90 60L100 60L100 40L90 40L90 20L100 20L100 10L70 10L70 0L60 0L60 10L20 10L20 0L0 0z"/>
<path style="fill:#ffffff; stroke:none;" d="M20 0L20 10L60 10L60 0L20 0M70 0L70 10L100 10L100 0L70 0M0 10L0 90L10 90L10 10L0 10M20 20L20 80L80 80L80 20L20 20M90 20L90 40L100 40L100 20L90 20z"/>
<path style="fill:#000000; stroke:none;" d="M40 30L40 40L30 40L30 50L40 50L40 70L60 70L60 50L70 50L70 40L50 40L50 30L40 30z"/>
<path style="fill:#ffffff; stroke:none;" d="M90 60L90 70L100 70L100 60L90 60M30 90L30 100L50 100L50 90L30 90M70 90L70 100L90 100L90 90L70 90z"/>
</svg>
