<?xml version="1.0" standalone="yes"?>
<svg xmlns="http://www.w3.org/2000/svg" width="100" height="100">
<path style="fill:#000000; stroke:none;" d="M0 0L0 40L10 40L10 50L0 50L0 70L10 70L10 90L0 90L0 100L20 100L20 90L30 90L30 100L40 100L40 90L60 90L60 100L80 100L80 90L90 90L90 100L100 100L100 90L90 90L90 20L100 20L100 10L60 10L60 0L0 0z"/>
<path style="fill:#ffffff; stroke:none;" d="M60 0L60 10L100 10L100 0L60 0M20 20L20 80L80 80L80 20L20 20M90 20L90 90L100 90L100 20L90 20z"/>
<path style="fill:#000000; stroke:none;" d="M30 30L30 40L40 40L40 50L30 50L30 70L40 70L40 60L60 60L60 40L70 40L70 30L60 30L60 40L50 40L50 30L30 30z"/>
<path style="fill:#ffffff; stroke:none;" d="M0 40L0 50L10 50L10 40L0 40M0 70L0 90L10 90L10 70L0 70M20 90L20 100L30 100L30 90L20 90M40 90L40 100L60 100L60 90L40 90M80 90L80 100L90 100L90 90L80 90z"/>
</svg>
