<?xml version="1.0" standalone="yes"?>
<svg xmlns="http://www.w3.org/2000/svg" width="100" height="100">
<path style="fill:#ffffff; stroke:none;" d="M0 0L0 10L30 10L30 0L0 0z"/>
<path style="fill:#000000; stroke:none;" d="M30 0L30 10L0 10L0 30L10 30L10 60L0 60L0 70L10 70L10 80L0 80L0 100L10 100L10 90L20 90L20 100L30 100L30 90L40 90L40 100L50 100L50 90L60 90L60 100L100 100L100 90L90 90L90 60L100 60L100 10L90 10L90 0L70 0L70 10L40 10L40 0L30 0z"/>
<path style="fill:#ffffff; stroke:none;" d="M40 0L40 10L70 10L70 0L40 0M90 0L90 10L100 10L100 0L90 0M20 20L20 80L80 80L80 20L20 20M0 30L0 60L10 60L10 30L0 30z"/>
<path style="fill:#000000; stroke:none;" d="M30 30L30 60L40 60L40 70L50 70L50 60L60 60L60 70L70 70L70 40L60 40L60 30L50 30L50 40L40 40L40 30L30 30z"/>
<path style="fill:#ffffff; stroke:none;" d="M90 60L90 90L100 90L100 60L90 60M0 70L0 80L10 80L10 70L0 70M10 90L10 100L20 100L20 90L10 90M30 90L30 100L40 100L40 90L30 90M50 90L50 100L60 100L60 90L50 90z"/>
</svg>
