<?xml version="1.0" standalone="yes"?>
<svg xmlns="http://www.w3.org/2000/svg" width="100" height="100">
<path style="fill:#ffffff; stroke:none;" d="M0 0L0 10L10 10L10 0L0 0z"/>
<path style="fill:#000000; stroke:none;" d="M10 0L10 10L0 10L0 20L10 20L10 50L0 50L0 90L10 90L10 100L20 100L20 90L40 90L40 100L70 100L70 90L80 90L80 100L90 100L90 80L100 80L100 50L90 50L90 40L100 40L100 20L90 20L90 10L100 10L100 0L70 0L70 10L60 10L60 0L10 0z"/>
<path style="fill:#ffffff; stroke:none;" d="M60 0L60 10L70 10L70 0L60 0M90 10L90 20L100 20L100 10L90 10M0 20L0 50L10 50L10 20L0 20M20 20L20 80L80 80L80 20L20 20z"/>
<path style="fill:#000000; stroke:none;" d="M30 30L30 50L40 50L40 70L50 70L50 60L60 60L60 70L70 70L70 40L60 40L60 30L30 30z"/>
<path style="fill:#ffffff; stroke:none;" d="M90 40L90 50L100 50L100 40L90 40M90 80L90 100L100 100L100 80L90 80M0 90L0 100L10 100L10 90L0 90M20 90L20 100L40 100L40 90L20 90M70 90L70 100L80 100L80 90L70 90z"/>
</svg>
