<?xml version="1.0" standalone="yes"?>
<svg xmlns="http://www.w3.org/2000/svg" width="100" height="100">
<path style="fill:#ffffff; stroke:none;" d="M0 0L0 70L10 70L10 0L0 0z"/>
<path style="fill:#000000; stroke:none;" d="M10 0L10 70L0 70L0 80L10 80L10 90L20 90L20 100L40 100L40 90L50 90L50 100L60 100L60 90L80 90L80 100L100 100L100 90L90 90L90 20L100 20L100 0L90 0L90 10L30 10L30 0L10 0z"/>
<path style="fill:#ffffff; stroke:none;" d="M30 0L30 10L90 10L90 0L30 0M20 20L20 80L80 80L80 20L20 20M90 20L90 90L100 90L100 20L90 20z"/>
<path style="fill:#000000; stroke:none;" d="M30 30L30 50L40 50L40 60L30 60L30 70L40 70L40 60L50 60L50 70L70 70L70 50L60 50L60 40L50 40L50 30L30 30z"/>
<path style="fill:#ffffff; stroke:none;" d="M0 80L0 100L20 100L20 90L10 90L10 80L0 80M40 90L40 100L50 100L50 90L40 90M60 90L60 100L80 100L80 90L60 90z"/>
</svg>
