<?xml version="1.0" standalone="yes"?>
<svg xmlns="http://www.w3.org/2000/svg" width="100" height="100">
<path style="fill:#000000; stroke:none;" d="M0 0L0 40L10 40L10 60L0 60L0 90L30 90L30 100L40 100L40 90L50 90L50 100L60 100L60 90L90 90L90 80L100 80L100 70L90 70L90 30L100 30L100 10L90 10L90 0L80 0L80 10L70 10L70 0L60 0L60 10L50 10L50 0L20 0L20 10L10 10L10 0L0 0z"/>
<path style="fill:#ffffff; stroke:none;" d="M10 0L10 10L20 10L20 0L10 0M50 0L50 10L60 10L60 0L50 0M70 0L70 10L80 10L80 0L70 0M90 0L90 10L100 10L100 0L90 0M20 20L20 80L80 80L80 20L20 20z"/>
<path style="fill:#000000; stroke:none;" d="M30 30L30 40L40 40L40 50L30 50L30 70L50 70L50 60L60 60L60 70L70 70L70 50L60 50L60 30L30 30z"/>
<path style="fill:#ffffff; stroke:none;" d="M90 30L90 70L100 70L100 30L90 30M0 40L0 60L10 60L10 40L0 40M90 80L90 90L60 90L60 100L100 100L100 80L90 80M0 90L0 100L30 100L30 90L0 90M40 90L40 100L50 100L50 90L40 90z"/>
</svg>
