<?xml version="1.0" standalone="yes"?>
<svg xmlns="http://www.w3.org/2000/svg" width="100" height="100">
<path style="fill:#ffffff; stroke:none;" d="M0 0L0 10L10 10L10 0L0 0z"/>
<path style="fill:#000000; stroke:none;" d="M10 0L10 10L0 10L0 20L10 20L10 40L0 40L0 80L10 80L10 90L20 90L20 100L30 100L30 90L40 90L40 100L50 100L50 90L60 90L60 100L100 100L100 90L90 90L90 50L100 50L100 40L90 40L90 10L70 10L70 0L30 0L30 10L20 10L20 0L10 0z"/>
<path style="fill:#ffffff; stroke:none;" d="M20 0L20 10L30 10L30 0L20 0M70 0L70 10L90 10L90 40L100 40L100 0L70 0M0 20L0 40L10 40L10 20L0 20M20 20L20 80L80 80L80 20L20 20z"/>
<path style="fill:#000000; stroke:none;" d="M30 30L30 50L40 50L40 60L50 60L50 70L70 70L70 60L60 60L60 50L70 50L70 30L30 30z"/>
<path style="fill:#ffffff; stroke:none;" d="M90 50L90 90L100 90L100 50L90 50M0 80L0 100L20 100L20 90L10 90L10 80L0 80M30 90L30 100L40 100L40 90L30 90M50 90L50 100L60 100L60 90L50 90z"/>
</svg>
