<?xml version="1.0" standalone="yes"?>
<svg xmlns="http://www.w3.org/2000/svg" width="100" height="100">
<path style="fill:#ffffff; stroke:none;" d="M0 0L0 10L30 10L30 0L0 0z"/>
<path style="fill:#000000; stroke:none;" d="M30 0L30 10L0 10L0 70L10 70L10 80L0 80L0 100L10 100L10 90L50 90L50 100L70 100L70 90L90 90L90 100L100 100L100 80L90 80L90 70L100 70L100 60L90 60L90 50L100 50L100 0L80 0L80 10L70 10L70 0L60 0L60 10L50 10L50 0L30 0z"/>
<path style="fill:#ffffff; stroke:none;" d="M50 0L50 10L60 10L60 0L50 0M70 0L70 10L80 10L80 0L70 0M20 20L20 80L80 80L80 20L20 20z"/>
<path style="fill:#000000; stroke:none;" d="M60 30L60 40L40 40L40 50L30 50L30 60L40 60L40 70L70 70L70 60L60 60L60 40L70 40L70 30L60 30z"/>
<path style="fill:#ffffff; stroke:none;" d="M90 50L90 60L100 60L100 50L90 50M0 70L0 80L10 80L10 70L0 70M90 70L90 80L100 80L100 70L90 70M10 90L10 100L50 100L50 90L10 90M70 90L70 100L90 100L90 90L70 90z"/>
</svg>
