<?xml version="1.0" standalone="yes"?>
<svg xmlns="http://www.w3.org/2000/svg" width="100" height="100">
<path style="fill:#000000; stroke:none;" d="M0 0L0 10L10 10L10 90L0 90L0 100L10 100L10 90L20 90L20 100L40 100L40 90L50 90L50 100L70 100L70 90L100 90L100 80L90 80L90 30L100 30L100 20L90 20L90 10L100 10L100 0L70 0L70 10L40 10L40 0L0 0z"/>
<path style="fill:#ffffff; stroke:none;" d="M40 0L40 10L70 10L70 0L40 0M0 10L0 90L10 90L10 10L0 10M90 10L90 20L100 20L100 10L90 10M20 20L20 80L80 80L80 20L20 20z"/>
<path style="fill:#000000; stroke:none;" d="M30 30L30 40L40 40L40 60L50 60L50 70L60 70L60 30L50 30L50 40L40 40L40 30L30 30z"/>
<path style="fill:#ffffff; stroke:none;" d="M90 30L90 80L100 80L100 30L90 30M10 90L10 100L20 100L20 90L10 90M40 90L40 100L50 100L50 90L40 90M70 90L70 100L100 100L100 90L70 90z"/>
</svg>
