<?xml version="1.0" standalone="yes"?>
<svg xmlns="http://www.w3.org/2000/svg" width="100" height="100">
<path style="fill:#ffffff; stroke:none;" d="M0 0L0 10L20 10L20 0L0 0z"/>
<path style="fill:#000000; stroke:none;" d="M20 0L20 10L0 10L0 20L10 20L10 40L0 40L0 60L10 60L10 70L0 70L0 100L40 100L40 90L50 90L50 100L60 100L60 90L90 90L90 50L100 50L100 30L90 30L90 10L100 10L100 0L70 0L70 10L40 10L40 0L20 0z"/>
<path style="fill:#ffffff; stroke:none;" d="M40 0L40 10L70 10L70 0L40 0M90 10L90 30L100 30L100 10L90 10M0 20L0 40L10 40L10 20L0 20M20 20L20 80L80 80L80 20L20 20z"/>
<path style="fill:#000000; stroke:none;" d="M30 30L30 60L40 60L40 70L50 70L50 60L60 60L60 70L70 70L70 50L60 50L60 40L70 40L70 30L60 30L60 40L50 40L50 30L30 30z"/>
<path style="fill:#ffffff; stroke:none;" d="M90 50L90 90L60 90L60 100L100 100L100 50L90 50M0 60L0 70L10 70L10 60L0 60M40 90L40 100L50 100L50 90L40 90z"/>
</svg>
