<?xml version="1.0" standalone="yes"?>
<svg xmlns="http://www.w3.org/2000/svg" width="100" height="100">
<path style="fill:#000000; stroke:none;" d="M0 0L0 40L10 40L10 50L0 50L0 60L10 60L10 70L0 70L0 100L10 100L10 90L40 90L40 100L60 100L60 90L100 90L100 80L90 80L90 70L100 70L100 50L90 50L90 40L100 40L100 20L90 20L90 10L80 10L80 0L50 0L50 10L20 10L20 0L0 0z"/>
<path style="fill:#ffffff; stroke:none;" d="M20 0L20 10L50 10L50 0L20 0M80 0L80 10L90 10L90 20L100 20L100 0L80 0M20 20L20 80L80 80L80 20L20 20z"/>
<path style="fill:#000000; stroke:none;" d="M30 30L30 40L40 40L40 50L30 50L30 60L70 60L70 50L60 50L60 40L70 40L70 30L60 30L60 40L40 40L40 30L30 30z"/>
<path style="fill:#ffffff; stroke:none;" d="M0 40L0 50L10 50L10 40L0 40M90 40L90 50L100 50L100 40L90 40M0 60L0 70L10 70L10 60L0 60M90 70L90 80L100 80L100 70L90 70M10 90L10 100L40 100L40 90L10 90M60 90L60 100L100 100L100 90L60 90z"/>
</svg>
