<?xml version="1.0" standalone="yes"?>
<svg xmlns="http://www.w3.org/2000/svg" width="100" height="100">
<path style="fill:#000000; stroke:none;" d="M0 0L0 10L10 10L10 20L0 20L0 50L10 50L10 90L0 90L0 100L10 100L10 90L40 90L40 100L60 100L60 90L70 90L70 100L90 100L90 80L100 80L100 70L90 70L90 60L100 60L100 40L90 40L90 20L100 20L100 10L80 10L80 0L70 0L70 10L30 10L30 0L20 0L20 10L10 10L10 0L0 0z"/>
<path style="fill:#ffffff; stroke:none;" d="M10 0L10 10L20 10L20 0L10 0M30 0L30 10L70 10L70 0L30 0M80 0L80 10L100 10L100 0L80 0M0 10L0 20L10 20L10 10L0 10M20 20L20 80L80 80L80 20L20 20M90 20L90 40L100 40L100 20L90 20z"/>
<path style="fill:#000000; stroke:none;" d="M30 30L30 60L60 60L60 70L70 70L70 50L60 50L60 40L40 40L40 30L30 30z"/>
<path style="fill:#ffffff; stroke:none;" d="M0 50L0 90L10 90L10 50L0 50M90 60L90 70L100 70L100 60L90 60M90 80L90 100L100 100L100 80L90 80M10 90L10 100L40 100L40 90L10 90M60 90L60 100L70 100L70 90L60 90z"/>
</svg>
