<?xml version="1.0" standalone="yes"?>
<svg xmlns="http://www.w3.org/2000/svg" width="100" height="100">
<path style="fill:#ffffff; stroke:none;" d="M0 0L0 30L10 30L10 0L0 0z"/>
<path style="fill:#000000; stroke:none;" d="M10 0L10 30L0 30L0 90L10 90L10 100L20 100L20 90L40 90L40 100L60 100L60 90L70 90L70 100L80 100L80 90L100 90L100 60L90 60L90 50L100 50L100 0L90 0L90 10L70 10L70 0L60 0L60 10L30 10L30 0L10 0z"/>
<path style="fill:#ffffff; stroke:none;" d="M30 0L30 10L60 10L60 0L30 0M70 0L70 10L90 10L90 0L70 0M20 20L20 80L80 80L80 20L20 20z"/>
<path style="fill:#000000; stroke:none;" d="M50 30L50 40L30 40L30 60L40 60L40 70L70 70L70 40L60 40L60 30L50 30z"/>
<path style="fill:#ffffff; stroke:none;" d="M90 50L90 60L100 60L100 50L90 50M0 90L0 100L10 100L10 90L0 90M20 90L20 100L40 100L40 90L20 90M60 90L60 100L70 100L70 90L60 90M80 90L80 100L100 100L100 90L80 90z"/>
</svg>
