<?xml version="1.0" standalone="yes"?>
<svg xmlns="http://www.w3.org/2000/svg" width="100" height="100">
<path style="fill:#ffffff; stroke:none;" d="M0 0L0 10L10 10L10 0L0 0z"/>
<path style="fill:#000000; stroke:none;" d="M10 0L10 10L0 10L0 20L10 20L10 50L0 50L0 60L10 60L10 90L0 90L0 100L10 100L10 90L20 90L20 100L30 100L30 90L70 90L70 100L90 100L90 90L100 90L100 80L90 80L90 50L100 50L100 20L90 20L90 0L70 0L70 10L50 10L50 0L40 0L40 10L30 10L30 0L10 0z"/>
<path style="fill:#ffffff; stroke:none;" d="M30 0L30 10L40 10L40 0L30 0M50 0L50 10L70 10L70 0L50 0M90 0L90 20L100 20L100 0L90 0M0 20L0 50L10 50L10 20L0 20M20 20L20 80L80 80L80 20L20 20z"/>
<path style="fill:#000000; stroke:none;" d="M30 30L30 70L40 70L40 60L50 60L50 70L70 70L70 50L60 50L60 40L70 40L70 30L30 30z"/>
<path style="fill:#ffffff; stroke:none;" d="M90 50L90 80L100 80L100 50L90 50M0 60L0 90L10 90L10 60L0 60M10 90L10 100L20 100L20 90L10 90M30 90L30 100L70 100L70 90L30 90M90 90L90 100L100 100L100 90L90 90z"/>
</svg>
