<?xml version="1.0" standalone="yes"?>
<svg xmlns="http://www.w3.org/2000/svg" width="100" height="100">
<path style="fill:#ffffff; stroke:none;" d="M0 0L0 30L10 30L10 0L0 0z"/>
<path style="fill:#000000; stroke:none;" d="M10 0L10 30L0 30L0 40L10 40L10 50L0 50L0 60L10 60L10 100L20 100L20 90L50 90L50 100L70 100L70 90L80 90L80 100L90 100L90 50L100 50L100 40L90 40L90 20L100 20L100 10L90 10L90 0L70 0L70 10L40 10L40 0L10 0z"/>
<path style="fill:#ffffff; stroke:none;" d="M40 0L40 10L70 10L70 0L40 0M90 0L90 10L100 10L100 0L90 0M20 20L20 80L80 80L80 20L20 20M90 20L90 40L100 40L100 20L90 20M0 40L0 50L10 50L10 40L0 40z"/>
<path style="fill:#000000; stroke:none;" d="M30 40L30 50L40 50L40 60L30 60L30 70L50 70L50 60L70 60L70 50L60 50L60 40L30 40z"/>
<path style="fill:#ffffff; stroke:none;" d="M90 50L90 100L100 100L100 50L90 50M0 60L0 100L10 100L10 60L0 60M20 90L20 100L50 100L50 90L20 90M70 90L70 100L80 100L80 90L70 90z"/>
</svg>
