<?xml version="1.0" standalone="yes"?>
<svg xmlns="http://www.w3.org/2000/svg" width="100" height="100">
<path style="fill:#000000; stroke:none;" d="M0 0L0 10L10 10L10 40L0 40L0 70L10 70L10 80L0 80L0 100L10 100L10 90L20 90L20 100L40 100L40 90L70 90L70 100L90 100L90 90L100 90L100 60L90 60L90 40L100 40L100 20L90 20L90 10L50 10L50 0L40 0L40 10L10 10L10 0L0 0z"/>
<path style="fill:#ffffff; stroke:none;" d="M10 0L10 10L40 10L40 0L10 0M50 0L50 10L90 10L90 20L100 20L100 0L50 0M0 10L0 40L10 40L10 10L0 10M20 20L20 80L80 80L80 20L20 20z"/>
<path style="fill:#000000; stroke:none;" d="M60 30L60 40L30 40L30 70L50 70L50 60L60 60L60 70L70 70L70 50L60 50L60 40L70 40L70 30L60 30z"/>
<path style="fill:#ffffff; stroke:none;" d="M90 40L90 60L100 60L100 40L90 40M0 70L0 80L10 80L10 70L0 70M10 90L10 100L20 100L20 90L10 90M40 90L40 100L70 100L70 90L40 90M90 90L90 100L100 100L100 90L90 90z"/>
</svg>
