<?xml version="1.0" standalone="yes"?>
<svg xmlns="http://www.w3.org/2000/svg" width="100" height="100">
<path style="fill:#ffffff; stroke:none;" d="M0 0L0 10L50 10L50 0L0 0z"/>
<path style="fill:#000000; stroke:none;" d="M50 0L50 10L0 10L0 20L10 20L10 40L0 40L0 50L10 50L10 80L0 80L0 100L20 100L20 90L40 90L40 100L60 100L60 90L80 90L80 100L90 100L90 90L100 90L100 80L90 80L90 40L100 40L100 10L90 10L90 0L70 0L70 10L60 10L60 0L50 0z"/>
<path style="fill:#ffffff; stroke:none;" d="M60 0L60 10L70 10L70 0L60 0M90 0L90 10L100 10L100 0L90 0M0 20L0 40L10 40L10 20L0 20M20 20L20 80L80 80L80 20L20 20z"/>
<path style="fill:#000000; stroke:none;" d="M30 30L30 40L40 40L40 60L50 60L50 70L70 70L70 50L60 50L60 40L70 40L70 30L50 30L50 40L40 40L40 30L30 30z"/>
<path style="fill:#ffffff; stroke:none;" d="M90 40L90 80L100 80L100 40L90 40M0 50L0 80L10 80L10 50L0 50M20 90L20 100L40 100L40 90L20 90M60 90L60 100L80 100L80 90L60 90M90 90L90 100L100 100L100 90L90 90z"/>
</svg>
