<?xml version="1.0" standalone="yes"?>
<svg xmlns="http://www.w3.org/2000/svg" width="100" height="100">
<path style="fill:#ffffff; stroke:none;" d="M0 0L0 10L40 10L40 0L0 0z"/>
<path style="fill:#000000; stroke:none;" d="M40 0L40 10L0 10L0 20L10 20L10 40L0 40L0 50L10 50L10 70L0 70L0 80L10 80L10 90L0 90L0 100L10 100L10 90L70 90L70 100L80 100L80 90L90 90L90 80L100 80L100 60L90 60L90 40L100 40L100 30L90 30L90 0L70 0L70 10L50 10L50 0L40 0z"/>
<path style="fill:#ffffff; stroke:none;" d="M50 0L50 10L70 10L70 0L50 0M90 0L90 30L100 30L100 0L90 0M0 20L0 40L10 40L10 20L0 20M20 20L20 80L80 80L80 20L20 20z"/>
<path style="fill:#000000; stroke:none;" d="M30 30L30 60L40 60L40 70L50 70L50 60L60 60L60 70L70 70L70 50L60 50L60 40L70 40L70 30L50 30L50 40L40 40L40 30L30 30z"/>
<path style="fill:#ffffff; stroke:none;" d="M90 40L90 60L100 60L100 40L90 40M0 50L0 70L10 70L10 50L0 50M0 80L0 90L10 90L10 80L0 80M90 80L90 90L80 90L80 100L100 100L100 80L90 80M10 90L10 100L70 100L70 90L10 90z"/>
</svg>
