<?xml version="1.0" standalone="yes"?>
<svg xmlns="http://www.w3.org/2000/svg" width="100" height="100">
<path style="fill:#000000; stroke:none;" d="M0 0L0 30L10 30L10 80L0 80L0 90L20 90L20 100L40 100L40 90L70 90L70 100L90 100L90 90L100 90L100 60L90 60L90 10L60 10L60 0L50 0L50 10L40 10L40 0L20 0L20 10L10 10L10 0L0 0z"/>
<path style="fill:#ffffff; stroke:none;" d="M10 0L10 10L20 10L20 0L10 0M40 0L40 10L50 10L50 0L40 0M60 0L60 10L90 10L90 60L100 60L100 0L60 0M20 20L20 80L80 80L80 20L20 20M0 30L0 80L10 80L10 30L0 30z"/>
<path style="fill:#000000; stroke:none;" d="M40 30L40 60L30 60L30 70L70 70L70 40L50 40L50 30L40 30z"/>
<path style="fill:#ffffff; stroke:none;" d="M0 90L0 100L20 100L20 90L0 90M40 90L40 100L70 100L70 90L40 90M90 90L90 100L100 100L100 90L90 90z"/>
</svg>
