<?xml version="1.0" standalone="yes"?>
<svg xmlns="http://www.w3.org/2000/svg" width="100" height="100">
<path style="fill:#ffffff; stroke:none;" d="M0 0L0 40L10 40L10 10L30 10L30 0L0 0z"/>
<path style="fill:#000000; stroke:none;" d="M30 0L30 10L10 10L10 40L0 40L0 50L10 50L10 60L0 60L0 70L10 70L10 80L0 80L0 100L10 100L10 90L30 90L30 100L60 100L60 90L90 90L90 80L100 80L100 50L90 50L90 40L100 40L100 10L70 10L70 0L30 0z"/>
<path style="fill:#ffffff; stroke:none;" d="M70 0L70 10L100 10L100 0L70 0M20 20L20 80L80 80L80 20L20 20z"/>
<path style="fill:#000000; stroke:none;" d="M40 30L40 40L30 40L30 60L40 60L40 70L50 70L50 60L70 60L70 50L60 50L60 40L70 40L70 30L60 30L60 40L50 40L50 30L40 30z"/>
<path style="fill:#ffffff; stroke:none;" d="M90 40L90 50L100 50L100 40L90 40M0 50L0 60L10 60L10 50L0 50M0 70L0 80L10 80L10 70L0 70M90 80L90 90L60 90L60 100L100 100L100 80L90 80M10 90L10 100L30 100L30 90L10 90z"/>
</svg>
