<?xml version="1.0" standalone="yes"?>
<svg xmlns="http://www.w3.org/2000/svg" width="100" height="100">
<path style="fill:#ffffff; stroke:none;" d="M0 0L0 10L20 10L20 0L0 0z"/>
<path style="fill:#000000; stroke:none;" d="M20 0L20 10L0 10L0 40L10 40L10 100L20 100L20 90L30 90L30 100L40 100L40 90L100 90L100 80L90 80L90 70L100 70L100 0L80 0L80 10L50 10L50 0L40 0L40 10L30 10L30 0L20 0z"/>
<path style="fill:#ffffff; stroke:none;" d="M30 0L30 10L40 10L40 0L30 0M50 0L50 10L80 10L80 0L50 0M20 20L20 80L80 80L80 20L20 20z"/>
<path style="fill:#000000; stroke:none;" d="M30 30L30 60L40 60L40 70L70 70L70 50L60 50L60 40L70 40L70 30L60 30L60 40L40 40L40 30L30 30z"/>
<path style="fill:#ffffff; stroke:none;" d="M0 40L0 100L10 100L10 40L0 40M90 70L90 80L100 80L100 70L90 70M20 90L20 100L30 100L30 90L20 90M40 90L40 100L100 100L100 90L40 90z"/>
</svg>
