<?xml version="1.0" standalone="yes"?>
<svg xmlns="http://www.w3.org/2000/svg" width="100" height="100">
<path style="fill:#ffffff; stroke:none;" d="M0 0L0 40L10 40L10 0L0 0z"/>
<path style="fill:#000000; stroke:none;" d="M10 0L10 40L0 40L0 100L10 100L10 90L20 90L20 100L50 100L50 90L70 90L70 100L100 100L100 90L90 90L90 60L100 60L100 50L90 50L90 30L100 30L100 20L90 20L90 10L70 10L70 0L50 0L50 10L30 10L30 0L10 0z"/>
<path style="fill:#ffffff; stroke:none;" d="M30 0L30 10L50 10L50 0L30 0M70 0L70 10L90 10L90 20L100 20L100 0L70 0M20 20L20 80L80 80L80 20L20 20z"/>
<path style="fill:#000000; stroke:none;" d="M30 30L30 40L40 40L40 60L30 60L30 70L40 70L40 60L60 60L60 70L70 70L70 50L60 50L60 30L50 30L50 40L40 40L40 30L30 30z"/>
<path style="fill:#ffffff; stroke:none;" d="M90 30L90 50L100 50L100 30L90 30M90 60L90 90L100 90L100 60L90 60M10 90L10 100L20 100L20 90L10 90M50 90L50 100L70 100L70 90L50 90z"/>
</svg>
