<?xml version="1.0" standalone="yes"?>
<svg xmlns="http://www.w3.org/2000/svg" width="100" height="100">
<path style="fill:#000000; stroke:none;" d="M0 0L0 10L10 10L10 30L0 30L0 40L10 40L10 50L0 50L0 80L10 80L10 90L0 90L0 100L10 100L10 90L30 90L30 100L70 100L70 90L90 90L90 100L100 100L100 90L90 90L90 50L100 50L100 10L70 10L70 0L50 0L50 10L30 10L30 0L20 0L20 10L10 10L10 0L0 0z"/>
<path style="fill:#ffffff; stroke:none;" d="M10 0L10 10L20 10L20 0L10 0M30 0L30 10L50 10L50 0L30 0M70 0L70 10L100 10L100 0L70 0M0 10L0 30L10 30L10 10L0 10M20 20L20 80L80 80L80 20L20 20z"/>
<path style="fill:#000000; stroke:none;" d="M50 30L50 40L40 40L40 60L70 60L70 50L60 50L60 40L70 40L70 30L50 30z"/>
<path style="fill:#ffffff; stroke:none;" d="M0 40L0 50L10 50L10 40L0 40M90 50L90 90L100 90L100 50L90 50M0 80L0 90L10 90L10 80L0 80M10 90L10 100L30 100L30 90L10 90M70 90L70 100L90 100L90 90L70 90z"/>
</svg>
