<?xml version="1.0" standalone="yes"?>
<svg xmlns="http://www.w3.org/2000/svg" width="100" height="100">
<path style="fill:#ffffff; stroke:none;" d="M0 0L0 10L20 10L20 0L0 0z"/>
<path style="fill:#000000; stroke:none;" d="M20 0L20 10L0 10L0 60L10 60L10 80L0 80L0 90L10 90L10 100L30 100L30 90L40 90L40 100L100 100L100 70L90 70L90 60L100 60L100 50L90 50L90 40L100 40L100 30L90 30L90 10L100 10L100 0L70 0L70 10L60 10L60 0L50 0L50 10L30 10L30 0L20 0z"/>
<path style="fill:#ffffff; stroke:none;" d="M30 0L30 10L50 10L50 0L30 0M60 0L60 10L70 10L70 0L60 0M90 10L90 30L100 30L100 10L90 10M20 20L20 80L80 80L80 20L20 20z"/>
<path style="fill:#000000; stroke:none;" d="M50 30L50 40L30 40L30 70L40 70L40 60L50 60L50 70L70 70L70 40L60 40L60 30L50 30z"/>
<path style="fill:#ffffff; stroke:none;" d="M90 40L90 50L100 50L100 40L90 40M0 60L0 80L10 80L10 60L0 60M90 60L90 70L100 70L100 60L90 60M0 90L0 100L10 100L10 90L0 90M30 90L30 100L40 100L40 90L30 90z"/>
</svg>
