<?xml version="1.0" standalone="yes"?>
<svg xmlns="http://www.w3.org/2000/svg" width="100" height="100">
<path style="fill:#ffffff; stroke:none;" d="M0 0L0 10L30 10L30 0L0 0z"/>
<path style="fill:#000000; stroke:none;" d="M30 0L30 10L0 10L0 20L10 20L10 30L0 30L0 50L10 50L10 60L0 60L0 80L10 80L10 100L20 100L20 90L30 90L30 100L70 100L70 90L80 90L80 100L100 100L100 60L90 60L90 50L100 50L100 40L90 40L90 30L100 30L100 10L40 10L40 0L30 0z"/>
<path style="fill:#ffffff; stroke:none;" d="M40 0L40 10L100 10L100 0L40 0M0 20L0 30L10 30L10 20L0 20M20 20L20 80L80 80L80 20L20 20z"/>
<path style="fill:#000000; stroke:none;" d="M30 30L30 40L40 40L40 50L30 50L30 60L40 60L40 70L60 70L60 50L70 50L70 30L60 30L60 40L40 40L40 30L30 30z"/>
<path style="fill:#ffffff; stroke:none;" d="M90 30L90 40L100 40L100 30L90 30M0 50L0 60L10 60L10 50L0 50M90 50L90 60L100 60L100 50L90 50M0 80L0 100L10 100L10 80L0 80M20 90L20 100L30 100L30 90L20 90M70 90L70 100L80 100L80 90L70 90z"/>
</svg>
