<?xml version="1.0" standalone="yes"?>
<svg xmlns="http://www.w3.org/2000/svg" width="100" height="100">
<path style="fill:#000000; stroke:none;" d="M0 0L0 10L10 10L10 30L0 30L0 90L30 90L30 100L70 100L70 90L90 90L90 100L100 100L100 80L90 80L90 0L70 0L70 10L60 10L60 0L50 0L50 10L40 10L40 0L30 0L30 10L10 10L10 0L0 0z"/>
<path style="fill:#ffffff; stroke:none;" d="M10 0L10 10L30 10L30 0L10 0M40 0L40 10L50 10L50 0L40 0M60 0L60 10L70 10L70 0L60 0M90 0L90 80L100 80L100 0L90 0M0 10L0 30L10 30L10 10L0 10M20 20L20 80L80 80L80 20L20 20z"/>
<path style="fill:#000000; stroke:none;" d="M50 30L50 40L30 40L30 50L40 50L40 60L30 60L30 70L60 70L60 60L70 60L70 30L50 30z"/>
<path style="fill:#ffffff; stroke:none;" d="M0 90L0 100L30 100L30 90L0 90M70 90L70 100L90 100L90 90L70 90z"/>
</svg>
