<?xml version="1.0" standalone="yes"?>
<svg xmlns="http://www.w3.org/2000/svg" width="100" height="100">
<path style="fill:#ffffff; stroke:none;" d="M0 0L0 10L10 10L10 0L0 0z"/>
<path style="fill:#000000; stroke:none;" d="M10 0L10 10L0 10L0 80L10 80L10 90L0 90L0 100L10 100L10 90L20 90L20 100L60 100L60 90L70 90L70 100L90 100L90 70L100 70L100 50L90 50L90 40L100 40L100 30L90 30L90 20L100 20L100 10L50 10L50 0L40 0L40 10L30 10L30 0L10 0z"/>
<path style="fill:#ffffff; stroke:none;" d="M30 0L30 10L40 10L40 0L30 0M50 0L50 10L100 10L100 0L50 0M20 20L20 80L80 80L80 20L20 20M90 20L90 30L100 30L100 20L90 20z"/>
<path style="fill:#000000; stroke:none;" d="M30 30L30 40L40 40L40 60L30 60L30 70L50 70L50 60L70 60L70 50L60 50L60 40L40 40L40 30L30 30z"/>
<path style="fill:#ffffff; stroke:none;" d="M90 40L90 50L100 50L100 40L90 40M90 70L90 100L100 100L100 70L90 70M0 80L0 90L10 90L10 80L0 80M10 90L10 100L20 100L20 90L10 90M60 90L60 100L70 100L70 90L60 90z"/>
</svg>
