<?xml version="1.0" standalone="yes"?>
<svg xmlns="http://www.w3.org/2000/svg" width="100" height="100">
<path style="fill:#000000; stroke:none;" d="M0 0L0 90L10 90L10 100L30 100L30 90L50 90L50 100L80 100L80 90L90 90L90 100L100 100L100 90L90 90L90 80L100 80L100 60L90 60L90 50L100 50L100 30L90 30L90 20L100 20L100 0L80 0L80 10L60 10L60 0L50 0L50 10L40 10L40 0L30 0L30 10L10 10L10 0L0 0z"/>
<path style="fill:#ffffff; stroke:none;" d="M10 0L10 10L30 10L30 0L10 0M40 0L40 10L50 10L50 0L40 0M60 0L60 10L80 10L80 0L60 0M20 20L20 80L80 80L80 20L20 20M90 20L90 30L100 30L100 20L90 20z"/>
<path style="fill:#000000; stroke:none;" d="M30 30L30 70L40 70L40 60L60 60L60 70L70 70L70 60L60 60L60 50L70 50L70 30L60 30L60 40L40 40L40 30L30 30z"/>
<path style="fill:#ffffff; stroke:none;" d="M90 50L90 60L100 60L100 50L90 50M90 80L90 90L100 90L100 80L90 80M0 90L0 100L10 100L10 90L0 90M30 90L30 100L50 100L50 90L30 90M80 90L80 100L90 100L90 90L80 90z"/>
</svg>
