<?xml version="1.0" standalone="yes"?>
<svg xmlns="http://www.w3.org/2000/svg" width="100" height="100">
<path style="fill:#ffffff; stroke:none;" d="M0 0L0 10L50 10L50 0L0 0z"/>
<path style="fill:#000000; stroke:none;" d="M50 0L50 10L0 10L0 20L10 20L10 30L0 30L0 40L10 40L10 60L0 60L0 100L10 100L10 90L40 90L40 100L50 100L50 90L80 90L80 100L90 100L90 70L100 70L100 60L90 60L90 50L100 50L100 40L90 40L90 30L100 30L100 10L90 10L90 0L80 0L80 10L60 10L60 0L50 0z"/>
<path style="fill:#ffffff; stroke:none;" d="M60 0L60 10L80 10L80 0L60 0M90 0L90 10L100 10L100 0L90 0M0 20L0 30L10 30L10 20L0 20M20 20L20 80L80 80L80 20L20 20z"/>
<path style="fill:#000000; stroke:none;" d="M40 30L40 40L30 40L30 60L50 60L50 70L70 70L70 60L60 60L60 50L70 50L70 40L60 40L60 30L40 30z"/>
<path style="fill:#ffffff; stroke:none;" d="M90 30L90 40L100 40L100 30L90 30M0 40L0 60L10 60L10 40L0 40M90 50L90 60L100 60L100 50L90 50M90 70L90 100L100 100L100 70L90 70M10 90L10 100L40 100L40 90L10 90M50 90L50 100L80 100L80 90L50 90z"/>
</svg>
