<?xml version="1.0" standalone="yes"?>
<svg xmlns="http://www.w3.org/2000/svg" width="100" height="100">
<path style="fill:#000000; stroke:none;" d="M0 0L0 60L10 60L10 70L0 70L0 100L20 100L20 90L40 90L40 100L60 100L60 90L100 90L100 70L90 70L90 60L100 60L100 50L90 50L90 40L100 40L100 10L70 10L70 0L40 0L40 10L30 10L30 0L20 0L20 10L10 10L10 0L0 0z"/>
<path style="fill:#ffffff; stroke:none;" d="M10 0L10 10L20 10L20 0L10 0M30 0L30 10L40 10L40 0L30 0M70 0L70 10L100 10L100 0L70 0M20 20L20 80L80 80L80 20L20 20z"/>
<path style="fill:#000000; stroke:none;" d="M50 30L50 40L40 40L40 70L60 70L60 60L70 60L70 50L60 50L60 40L70 40L70 30L50 30z"/>
<path style="fill:#ffffff; stroke:none;" d="M90 40L90 50L100 50L100 40L90 40M0 60L0 70L10 70L10 60L0 60M90 60L90 70L100 70L100 60L90 60M20 90L20 100L40 100L40 90L20 90M60 90L60 100L100 100L100 90L60 90z"/>
</svg>
