<?xml version="1.0" standalone="yes"?>
<svg xmlns="http://www.w3.org/2000/svg" width="100" height="100">
<path style="fill:#000000; stroke:none;" d="M0 0L0 10L10 10L10 20L0 20L0 40L10 40L10 50L0 50L0 60L10 60L10 90L0 90L0 100L20 100L20 90L30 90L30 100L40 100L40 90L50 90L50 100L80 100L80 90L90 90L90 100L100 100L100 90L90 90L90 80L100 80L100 70L90 70L90 50L100 50L100 40L90 40L90 30L100 30L100 10L70 10L70 0L60 0L60 10L30 10L30 0L20 0L20 10L10 10L10 0L0 0z"/>
<path style="fill:#ffffff; stroke:none;" d="M10 0L10 10L20 10L20 0L10 0M30 0L30 10L60 10L60 0L30 0M70 0L70 10L100 10L100 0L70 0M0 10L0 20L10 20L10 10L0 10M20 20L20 80L80 80L80 20L20 20z"/>
<path style="fill:#000000; stroke:none;" d="M30 30L30 60L60 60L60 70L70 70L70 60L60 60L60 40L70 40L70 30L60 30L60 40L50 40L50 30L30 30z"/>
<path style="fill:#ffffff; stroke:none;" d="M90 30L90 40L100 40L100 30L90 30M0 40L0 50L10 50L10 40L0 40M90 50L90 70L100 70L100 50L90 50M0 60L0 90L10 90L10 60L0 60M90 80L90 90L100 90L100 80L90 80M20 90L20 100L30 100L30 90L20 90M40 90L40 100L50 100L50 90L40 90M80 90L80 100L90 100L90 90L80 90z"/>
</svg>
