<?xml version="1.0" standalone="yes"?>
<svg xmlns="http://www.w3.org/2000/svg" width="100" height="100">
<path style="fill:#ffffff; stroke:none;" d="M0 0L0 20L10 20L10 10L30 10L30 0L0 0z"/>
<path style="fill:#000000; stroke:none;" d="M30 0L30 10L10 10L10 20L0 20L0 30L10 30L10 40L0 40L0 50L10 50L10 60L0 60L0 90L10 90L10 100L20 100L20 90L30 90L30 100L70 100L70 90L80 90L80 100L100 100L100 80L90 80L90 60L100 60L100 10L90 10L90 0L50 0L50 10L40 10L40 0L30 0z"/>
<path style="fill:#ffffff; stroke:none;" d="M40 0L40 10L50 10L50 0L40 0M90 0L90 10L100 10L100 0L90 0M20 20L20 80L80 80L80 20L20 20M0 30L0 40L10 40L10 30L0 30z"/>
<path style="fill:#000000; stroke:none;" d="M40 30L40 60L30 60L30 70L40 70L40 60L60 60L60 70L70 70L70 60L60 60L60 50L70 50L70 30L40 30z"/>
<path style="fill:#ffffff; stroke:none;" d="M0 50L0 60L10 60L10 50L0 50M90 60L90 80L100 80L100 60L90 60M0 90L0 100L10 100L10 90L0 90M20 90L20 100L30 100L30 90L20 90M70 90L70 100L80 100L80 90L70 90z"/>
</svg>
