<?xml version="1.0" standalone="yes"?>
<svg xmlns="http://www.w3.org/2000/svg" width="100" height="100">
<path style="fill:#ffffff; stroke:none;" d="M0 0L0 60L10 60L10 0L0 0z"/>
<path style="fill:#000000; stroke:none;" d="M10 0L10 60L0 60L0 100L10 100L10 90L60 90L60 100L80 100L80 90L90 90L90 100L100 100L100 80L90 80L90 40L100 40L100 10L60 10L60 0L50 0L50 10L20 10L20 0L10 0z"/>
<path style="fill:#ffffff; stroke:none;" d="M20 0L20 10L50 10L50 0L20 0M60 0L60 10L100 10L100 0L60 0M20 20L20 80L80 80L80 20L20 20z"/>
<path style="fill:#000000; stroke:none;" d="M30 30L30 40L40 40L40 60L30 60L30 70L40 70L40 60L60 60L60 40L70 40L70 30L60 30L60 40L50 40L50 30L30 30z"/>
<path style="fill:#ffffff; stroke:none;" d="M90 40L90 80L100 80L100 40L90 40M10 90L10 100L60 100L60 90L10 90M80 90L80 100L90 100L90 90L80 90z"/>
</svg>
