<?xml version="1.0" standalone="yes"?>
<svg xmlns="http://www.w3.org/2000/svg" width="100" height="100">
<path style="fill:#ffffff; stroke:none;" d="M0 0L0 10L20 10L20 0L0 0z"/>
<path style="fill:#000000; stroke:none;" d="M20 0L20 10L0 10L0 30L10 30L10 70L0 70L0 80L10 80L10 90L0 90L0 100L10 100L10 90L40 90L40 100L60 100L60 90L90 90L90 80L100 80L100 70L90 70L90 60L100 60L100 50L90 50L90 10L100 10L100 0L90 0L90 10L40 10L40 0L20 0z"/>
<path style="fill:#ffffff; stroke:none;" d="M40 0L40 10L90 10L90 0L40 0M90 10L90 50L100 50L100 10L90 10M20 20L20 80L80 80L80 20L20 20M0 30L0 70L10 70L10 30L0 30z"/>
<path style="fill:#000000; stroke:none;" d="M50 30L50 40L30 40L30 50L40 50L40 60L60 60L60 50L70 50L70 30L50 30z"/>
<path style="fill:#ffffff; stroke:none;" d="M90 60L90 70L100 70L100 60L90 60M0 80L0 90L10 90L10 80L0 80M90 80L90 90L60 90L60 100L100 100L100 80L90 80M10 90L10 100L40 100L40 90L10 90z"/>
</svg>
