<?xml version="1.0" standalone="yes"?>
<svg xmlns="http://www.w3.org/2000/svg" width="100" height="100">
<path style="fill:#ffffff; stroke:none;" d="M0 0L0 20L10 20L10 0L0 0z"/>
<path style="fill:#000000; stroke:none;" d="M10 0L10 20L0 20L0 40L10 40L10 60L0 60L0 80L10 80L10 90L0 90L0 100L10 100L10 90L30 90L30 100L60 100L60 90L90 90L90 100L100 100L100 60L90 60L90 50L100 50L100 30L90 30L90 20L100 20L100 0L90 0L90 10L80 10L80 0L50 0L50 10L20 10L20 0L10 0z"/>
<path style="fill:#ffffff; stroke:none;" d="M20 0L20 10L50 10L50 0L20 0M80 0L80 10L90 10L90 0L80 0M20 20L20 80L80 80L80 20L20 20M90 20L90 30L100 30L100 20L90 20z"/>
<path style="fill:#000000; stroke:none;" d="M30 30L30 50L40 50L40 60L30 60L30 70L50 70L50 60L60 60L60 50L70 50L70 40L40 40L40 30L30 30z"/>
<path style="fill:#ffffff; stroke:none;" d="M0 40L0 60L10 60L10 40L0 40M90 50L90 60L100 60L100 50L90 50M0 80L0 90L10 90L10 80L0 80M10 90L10 100L30 100L30 90L10 90M60 90L60 100L90 100L90 90L60 90z"/>
</svg>
