<?xml version="1.0" standalone="yes"?>
<svg xmlns="http://www.w3.org/2000/svg" width="100" height="100">
<path style="fill:#000000; stroke:none;" d="M0 0L0 40L10 40L10 80L0 80L0 90L10 90L10 100L30 100L30 90L60 90L60 100L70 100L70 90L80 90L80 100L90 100L90 80L100 80L100 70L90 70L90 60L100 60L100 50L90 50L90 20L100 20L100 0L90 0L90 10L30 10L30 0L0 0z"/>
<path style="fill:#ffffff; stroke:none;" d="M30 0L30 10L90 10L90 0L30 0M20 20L20 80L80 80L80 20L20 20M90 20L90 50L100 50L100 20L90 20M0 40L0 80L10 80L10 40L0 40z"/>
<path style="fill:#000000; stroke:none;" d="M30 40L30 50L40 50L40 60L50 60L50 70L60 70L60 60L70 60L70 50L60 50L60 40L30 40z"/>
<path style="fill:#ffffff; stroke:none;" d="M90 60L90 70L100 70L100 60L90 60M90 80L90 100L100 100L100 80L90 80M0 90L0 100L10 100L10 90L0 90M30 90L30 100L60 100L60 90L30 90M70 90L70 100L80 100L80 90L70 90z"/>
</svg>
