<?xml version="1.0" standalone="yes"?>
<svg xmlns="http://www.w3.org/2000/svg" width="100" height="100">
<path style="fill:#ffffff; stroke:none;" d="M0 0L0 10L80 10L80 0L0 0z"/>
<path style="fill:#000000; stroke:none;" d="M80 0L80 10L0 10L0 70L10 70L10 100L20 100L20 90L30 90L30 100L60 100L60 90L70 90L70 100L100 100L100 90L90 90L90 80L100 80L100 70L90 70L90 20L100 20L100 0L80 0z"/>
<path style="fill:#ffffff; stroke:none;" d="M20 20L20 80L80 80L80 20L20 20M90 20L90 70L100 70L100 20L90 20z"/>
<path style="fill:#000000; stroke:none;" d="M30 30L30 60L70 60L70 50L60 50L60 30L30 30z"/>
<path style="fill:#ffffff; stroke:none;" d="M0 70L0 100L10 100L10 70L0 70M90 80L90 90L100 90L100 80L90 80M20 90L20 100L30 100L30 90L20 90M60 90L60 100L70 100L70 90L60 90z"/>
</svg>
