<?xml version="1.0" standalone="yes"?>
<svg xmlns="http://www.w3.org/2000/svg" width="100" height="100">
<path style="fill:#ffffff; stroke:none;" d="M0 0L0 10L10 10L10 0L0 0z"/>
<path style="fill:#000000; stroke:none;" d="M10 0L10 10L0 10L0 70L10 70L10 80L0 80L0 100L10 100L10 90L40 90L40 100L60 100L60 90L80 90L80 100L90 100L90 80L100 80L100 70L90 70L90 60L100 60L100 40L90 40L90 10L80 10L80 0L10 0z"/>
<path style="fill:#ffffff; stroke:none;" d="M80 0L80 10L90 10L90 40L100 40L100 0L80 0M20 20L20 80L80 80L80 20L20 20z"/>
<path style="fill:#000000; stroke:none;" d="M30 30L30 60L60 60L60 70L70 70L70 60L60 60L60 50L70 50L70 40L60 40L60 30L50 30L50 40L40 40L40 30L30 30z"/>
<path style="fill:#ffffff; stroke:none;" d="M90 60L90 70L100 70L100 60L90 60M0 70L0 80L10 80L10 70L0 70M90 80L90 100L100 100L100 80L90 80M10 90L10 100L40 100L40 90L10 90M60 90L60 100L80 100L80 90L60 90z"/>
</svg>
