<?xml version="1.0" standalone="yes"?>
<svg xmlns="http://www.w3.org/2000/svg" width="100" height="100">
<path style="fill:#000000; stroke:none;" d="M0 0L0 10L10 10L10 30L0 30L0 60L10 60L10 70L0 70L0 80L10 80L10 90L20 90L20 100L50 100L50 90L90 90L90 100L100 100L100 80L90 80L90 70L100 70L100 0L70 0L70 10L40 10L40 0L30 0L30 10L20 10L20 0L0 0z"/>
<path style="fill:#ffffff; stroke:none;" d="M20 0L20 10L30 10L30 0L20 0M40 0L40 10L70 10L70 0L40 0M0 10L0 30L10 30L10 10L0 10M20 20L20 80L80 80L80 20L20 20z"/>
<path style="fill:#000000; stroke:none;" d="M30 30L30 40L40 40L40 50L30 50L30 70L70 70L70 60L60 60L60 50L70 50L70 40L50 40L50 30L30 30z"/>
<path style="fill:#ffffff; stroke:none;" d="M0 60L0 70L10 70L10 60L0 60M90 70L90 80L100 80L100 70L90 70M0 80L0 100L20 100L20 90L10 90L10 80L0 80M50 90L50 100L90 100L90 90L50 90z"/>
</svg>
