<?xml version="1.0" standalone="yes"?>
<svg xmlns="http://www.w3.org/2000/svg" width="100" height="100">
<path style="fill:#000000; stroke:none;" d="M0 0L0 40L10 40L10 50L0 50L0 100L20 100L20 90L50 90L50 100L60 100L60 90L90 90L90 100L100 100L100 90L90 90L90 80L100 80L100 60L90 60L90 20L100 20L100 0L80 0L80 10L70 10L70 0L40 0L40 10L30 10L30 0L0 0z"/>
<path style="fill:#ffffff; stroke:none;" d="M30 0L30 10L40 10L40 0L30 0M70 0L70 10L80 10L80 0L70 0M20 20L20 80L80 80L80 20L20 20M90 20L90 60L100 60L100 20L90 20z"/>
<path style="fill:#000000; stroke:none;" d="M30 30L30 40L40 40L40 50L30 50L30 60L60 60L60 50L70 50L70 30L50 30L50 40L40 40L40 30L30 30z"/>
<path style="fill:#ffffff; stroke:none;" d="M0 40L0 50L10 50L10 40L0 40M90 80L90 90L100 90L100 80L90 80M20 90L20 100L50 100L50 90L20 90M60 90L60 100L90 100L90 90L60 90z"/>
</svg>
