<?xml version="1.0" standalone="yes"?>
<svg xmlns="http://www.w3.org/2000/svg" width="110" height="110">
<path style="fill:#000000; stroke:none;" d="M0 0L0 50L20 50L20 80L10 80L10 60L0 60L0 110L110 110L110 70L90 70L90 60L100 60L100 50L110 50L110 0L60 0L60 10L50 10L50 20L40 20L40 0L0 0z"/>
<path style="fill:#ffffff; stroke:none;" d="M40 0L40 20L50 20L50 10L60 10L60 0L40 0M60 10L60 20L70 20L70 10L60 10M80 10L80 20L90 20L90 40L100 40L100 20L90 20L90 10L80 10M10 20L10 30L20 30L20 20L10 20M30 30L30 80L80 80L80 30L30 30z"/>
<path style="fill:#000000; stroke:none;" d="M40 40L40 50L60 50L60 40L40 40z"/>
<path style="fill:#ffffff; stroke:none;" d="M0 50L0 60L10 60L10 80L20 80L20 50L0 50M100 50L100 60L90 60L90 70L110 70L110 50L100 50z"/>
<path style="fill:#000000; stroke:none;" d="M40 60L40 70L60 70L60 60L40 60z"/>
<path style="fill:#ffffff; stroke:none;" d="M20 90L20 100L30 100L30 90L20 90M40 90L40 100L50 100L50 90L40 90M60 90L60 100L70 100L70 90L60 90z"/>
</svg>
