<?xml version="1.0" standalone="yes"?>
<svg xmlns="http://www.w3.org/2000/svg" width="110" height="110">
<path style="fill:#000000; stroke:none;" d="M0 0L0 60L10 60L10 50L20 50L20 70L0 70L0 110L40 110L40 100L50 100L50 90L90 90L90 100L70 100L70 110L110 110L110 0L0 0z"/>
<path style="fill:#ffffff; stroke:none;" d="M40 10L40 20L50 20L50 10L40 10M70 10L70 20L90 20L90 40L100 40L100 20L90 20L90 10L70 10M10 30L10 40L20 40L20 30L10 30M30 30L30 80L80 80L80 30L30 30z"/>
<path style="fill:#000000; stroke:none;" d="M40 40L40 50L70 50L70 40L40 40z"/>
<path style="fill:#ffffff; stroke:none;" d="M10 50L10 60L0 60L0 70L20 70L20 50L10 50z"/>
<path style="fill:#000000; stroke:none;" d="M50 60L50 70L60 70L60 60L50 60z"/>
<path style="fill:#ffffff; stroke:none;" d="M90 60L90 70L100 70L100 60L90 60M10 80L10 90L20 90L20 80L10 80M30 90L30 100L40 100L40 90L30 90M50 90L50 100L40 100L40 110L70 110L70 100L90 100L90 90L50 90z"/>
</svg>
