<?xml version="1.0" standalone="yes"?>
<svg xmlns="http://www.w3.org/2000/svg" width="110" height="110">
<path style="fill:#000000; stroke:none;" d="M0 0L0 40L10 40L10 30L20 30L20 80L10 80L10 70L0 70L0 110L110 110L110 70L100 70L100 90L90 90L90 60L110 60L110 50L100 50L100 40L110 40L110 0L0 0z"/>
<path style="fill:#ffffff; stroke:none;" d="M20 10L20 20L30 20L30 10L20 10M50 10L50 20L70 20L70 10L50 10M10 30L10 40L0 40L0 70L10 70L10 80L20 80L20 30L10 30M30 30L30 80L80 80L80 30L30 30M90 30L90 40L100 40L100 30L90 30z"/>
<path style="fill:#000000; stroke:none;" d="M40 40L40 50L50 50L50 40L40 40M60 40L60 50L70 50L70 40L60 40z"/>
<path style="fill:#ffffff; stroke:none;" d="M100 40L100 50L110 50L110 40L100 40z"/>
<path style="fill:#000000; stroke:none;" d="M40 60L40 70L70 70L70 60L40 60z"/>
<path style="fill:#ffffff; stroke:none;" d="M90 60L90 90L100 90L100 70L110 70L110 60L90 60M20 90L20 100L40 100L40 90L20 90z"/>
</svg>
