<?xml version="1.0" standalone="yes"?>
<svg xmlns="http://www.w3.org/2000/svg" width="110" height="110">
<path style="fill:#000000; stroke:none;" d="M0 0L0 40L10 40L10 50L20 50L20 60L0 60L0 110L60 110L60 100L70 100L70 110L110 110L110 70L100 70L100 60L90 60L90 40L100 40L100 50L110 50L110 0L60 0L60 10L90 10L90 20L30 20L30 10L40 10L40 0L0 0z"/>
<path style="fill:#ffffff; stroke:none;" d="M40 0L40 10L30 10L30 20L90 20L90 10L60 10L60 0L40 0M10 20L10 30L20 30L20 20L10 20M90 20L90 30L100 30L100 20L90 20M30 30L30 80L80 80L80 30L30 30M0 40L0 60L20 60L20 50L10 50L10 40L0 40z"/>
<path style="fill:#000000; stroke:none;" d="M60 40L60 60L40 60L40 70L70 70L70 40L60 40z"/>
<path style="fill:#ffffff; stroke:none;" d="M90 40L90 60L100 60L100 70L110 70L110 50L100 50L100 40L90 40M10 70L10 90L20 90L20 70L10 70M90 70L90 80L100 80L100 70L90 70M40 90L40 100L60 100L60 90L40 90M70 90L70 100L90 100L90 90L70 90M60 100L60 110L70 110L70 100L60 100z"/>
</svg>
