<?xml version="1.0" standalone="yes"?>
<svg xmlns="http://www.w3.org/2000/svg" width="110" height="110">
<path style="fill:#000000; stroke:none;" d="M0 0L0 60L10 60L10 50L20 50L20 90L10 90L10 70L0 70L0 110L50 110L50 90L70 90L70 110L110 110L110 70L100 70L100 60L90 60L90 30L100 30L100 40L110 40L110 0L70 0L70 10L90 10L90 20L50 20L50 0L0 0z"/>
<path style="fill:#ffffff; stroke:none;" d="M50 0L50 20L90 20L90 10L70 10L70 0L50 0M20 10L20 20L10 20L10 40L20 40L20 20L40 20L40 10L20 10M30 30L30 80L80 80L80 30L30 30M90 30L90 60L100 60L100 70L110 70L110 40L100 40L100 30L90 30z"/>
<path style="fill:#000000; stroke:none;" d="M50 40L50 50L70 50L70 40L50 40z"/>
<path style="fill:#ffffff; stroke:none;" d="M10 50L10 60L0 60L0 70L10 70L10 90L20 90L20 50L10 50z"/>
<path style="fill:#000000; stroke:none;" d="M50 60L50 70L60 70L60 60L50 60z"/>
<path style="fill:#ffffff; stroke:none;" d="M90 70L90 90L80 90L80 100L90 100L90 90L100 90L100 70L90 70M30 90L30 100L40 100L40 90L30 90M50 90L50 110L70 110L70 90L50 90z"/>
</svg>
