<?xml version="1.0" standalone="yes"?>
<svg xmlns="http://www.w3.org/2000/svg" width="110" height="110">
<path style="fill:#000000; stroke:none;" d="M0 0L0 50L20 50L20 60L0 60L0 110L40 110L40 90L80 90L80 100L70 100L70 110L110 110L110 60L90 60L90 50L110 50L110 0L70 0L70 10L60 10L60 20L30 20L30 10L50 10L50 0L0 0z"/>
<path style="fill:#ffffff; stroke:none;" d="M50 0L50 10L30 10L30 20L60 20L60 10L70 10L70 0L50 0M80 10L80 20L90 20L90 30L100 30L100 20L90 20L90 10L80 10M10 20L10 40L20 40L20 20L10 20M30 30L30 80L80 80L80 30L30 30z"/>
<path style="fill:#000000; stroke:none;" d="M40 40L40 60L50 60L50 70L60 70L60 60L70 60L70 50L60 50L60 40L40 40z"/>
<path style="fill:#ffffff; stroke:none;" d="M0 50L0 60L20 60L20 50L0 50M90 50L90 60L110 60L110 50L90 50M10 70L10 90L20 90L20 100L30 100L30 90L20 90L20 70L10 70M40 90L40 110L50 110L50 100L60 100L60 110L70 110L70 100L80 100L80 90L40 90z"/>
<path style="fill:#000000; stroke:none;" d="M50 100L50 110L60 110L60 100L50 100z"/>
</svg>
