<?xml version="1.0" standalone="yes"?>
<svg xmlns="http://www.w3.org/2000/svg" width="110" height="110">
<path style="fill:#000000; stroke:none;" d="M0 0L0 40L10 40L10 50L0 50L0 110L50 110L50 100L60 100L60 110L110 110L110 50L100 50L100 40L110 40L110 0L70 0L70 10L50 10L50 0L0 0z"/>
<path style="fill:#ffffff; stroke:none;" d="M50 0L50 10L70 10L70 0L50 0M30 10L30 20L40 20L40 10L30 10M80 10L80 20L90 20L90 10L80 10M10 20L10 40L20 40L20 20L10 20M30 30L30 80L80 80L80 30L30 30M90 30L90 40L100 40L100 30L90 30M0 40L0 50L10 50L10 40L0 40z"/>
<path style="fill:#000000; stroke:none;" d="M40 40L40 50L50 50L50 60L40 60L40 70L60 70L60 60L70 60L70 50L50 50L50 40L40 40z"/>
<path style="fill:#ffffff; stroke:none;" d="M100 40L100 50L110 50L110 40L100 40M10 50L10 80L20 80L20 50L10 50M90 50L90 80L100 80L100 50L90 50M40 90L40 100L50 100L50 90L40 90M50 100L50 110L60 110L60 100L50 100z"/>
</svg>
