<?xml version="1.0" standalone="yes"?>
<svg xmlns="http://www.w3.org/2000/svg" width="110" height="110">
<path style="fill:#000000; stroke:none;" d="M0 0L0 50L10 50L10 30L20 30L20 70L0 70L0 110L50 110L50 100L60 100L60 90L70 90L70 110L110 110L110 70L100 70L100 60L110 60L110 0L50 0L50 20L20 20L20 10L40 10L40 0L0 0z"/>
<path style="fill:#ffffff; stroke:none;" d="M40 0L40 10L20 10L20 20L50 20L50 0L40 0M70 10L70 20L80 20L80 10L70 10M90 20L90 40L100 40L100 20L90 20M10 30L10 50L0 50L0 70L20 70L20 30L10 30M30 30L30 80L80 80L80 30L30 30z"/>
<path style="fill:#000000; stroke:none;" d="M40 40L40 70L60 70L60 50L70 50L70 40L40 40z"/>
<path style="fill:#ffffff; stroke:none;" d="M100 60L100 70L110 70L110 60L100 60M90 70L90 80L100 80L100 70L90 70M10 80L10 90L20 90L20 100L50 100L50 90L20 90L20 80L10 80M60 90L60 100L50 100L50 110L70 110L70 90L60 90z"/>
</svg>
