<?xml version="1.0" standalone="yes"?>
<svg xmlns="http://www.w3.org/2000/svg" width="110" height="110">
<path style="fill:#000000; stroke:none;" d="M0 0L0 110L40 110L40 90L70 90L70 110L110 110L110 70L90 70L90 30L100 30L100 60L110 60L110 0L0 0z"/>
<path style="fill:#ffffff; stroke:none;" d="M40 10L40 20L80 20L80 10L40 10M30 30L30 80L80 80L80 30L30 30M90 30L90 70L110 70L110 60L100 60L100 30L90 30z"/>
<path style="fill:#000000; stroke:none;" d="M40 40L40 60L60 60L60 70L70 70L70 60L60 60L60 50L70 50L70 40L40 40z"/>
<path style="fill:#ffffff; stroke:none;" d="M10 50L10 70L20 70L20 50L10 50M10 80L10 90L20 90L20 100L30 100L30 90L20 90L20 80L10 80M90 80L90 90L80 90L80 100L90 100L90 90L100 90L100 80L90 80M40 90L40 110L50 110L50 100L60 100L60 110L70 110L70 90L40 90z"/>
<path style="fill:#000000; stroke:none;" d="M50 100L50 110L60 110L60 100L50 100z"/>
</svg>
