<?xml version="1.0" standalone="yes"?>
<svg xmlns="http://www.w3.org/2000/svg" width="110" height="110">
<path style="fill:#000000; stroke:none;" d="M0 0L0 110L40 110L40 100L50 100L50 90L70 90L70 100L60 100L60 110L110 110L110 50L100 50L100 40L110 40L110 0L70 0L70 10L90 10L90 20L60 20L60 0L50 0L50 20L30 20L30 10L40 10L40 0L0 0z"/>
<path style="fill:#ffffff; stroke:none;" d="M40 0L40 10L30 10L30 20L50 20L50 0L40 0M60 0L60 20L90 20L90 10L70 10L70 0L60 0M30 30L30 80L80 80L80 30L30 30M90 30L90 40L100 40L100 30L90 30z"/>
<path style="fill:#000000; stroke:none;" d="M40 40L40 50L50 50L50 40L40 40z"/>
<path style="fill:#ffffff; stroke:none;" d="M100 40L100 50L110 50L110 40L100 40M10 50L10 70L20 70L20 50L10 50M90 50L90 60L100 60L100 50L90 50z"/>
<path style="fill:#000000; stroke:none;" d="M40 60L40 70L60 70L60 60L40 60z"/>
<path style="fill:#ffffff; stroke:none;" d="M50 90L50 100L40 100L40 110L60 110L60 100L70 100L70 90L50 90M80 90L80 100L90 100L90 90L80 90z"/>
</svg>
