<?xml version="1.0" standalone="yes"?>
<svg xmlns="http://www.w3.org/2000/svg" width="110" height="110">
<path style="fill:#000000; stroke:none;" d="M0 0L0 40L10 40L10 20L20 20L20 60L10 60L10 50L0 50L0 110L60 110L60 100L70 100L70 110L110 110L110 60L100 60L100 70L90 70L90 30L100 30L100 40L110 40L110 0L60 0L60 20L20 20L20 10L40 10L40 0L0 0z"/>
<path style="fill:#ffffff; stroke:none;" d="M40 0L40 10L20 10L20 20L60 20L60 0L40 0M10 20L10 40L0 40L0 50L10 50L10 60L20 60L20 20L10 20M30 30L30 80L80 80L80 30L30 30M90 30L90 70L100 70L100 60L110 60L110 40L100 40L100 30L90 30z"/>
<path style="fill:#000000; stroke:none;" d="M60 50L60 60L70 60L70 50L60 50M40 60L40 70L50 70L50 60L40 60z"/>
<path style="fill:#ffffff; stroke:none;" d="M90 80L90 90L100 90L100 80L90 80M30 90L30 100L60 100L60 90L30 90M60 100L60 110L70 110L70 100L60 100z"/>
</svg>
