<?xml version="1.0" standalone="yes"?>
<svg xmlns="http://www.w3.org/2000/svg" width="110" height="110">
<path style="fill:#000000; stroke:none;" d="M0 0L0 40L10 40L10 20L20 20L20 70L10 70L10 50L0 50L0 110L50 110L50 100L20 100L20 90L70 90L70 110L110 110L110 0L70 0L70 20L60 20L60 0L0 0z"/>
<path style="fill:#ffffff; stroke:none;" d="M60 0L60 20L70 20L70 0L60 0M30 10L30 20L40 20L40 10L30 10M10 20L10 40L0 40L0 50L10 50L10 70L20 70L20 20L10 20M30 30L30 80L80 80L80 30L30 30M90 30L90 50L100 50L100 30L90 30z"/>
<path style="fill:#000000; stroke:none;" d="M40 40L40 70L60 70L60 60L70 60L70 40L60 40L60 50L50 50L50 40L40 40z"/>
<path style="fill:#ffffff; stroke:none;" d="M90 60L90 80L100 80L100 60L90 60M10 80L10 90L20 90L20 80L10 80M20 90L20 100L50 100L50 110L70 110L70 90L20 90z"/>
</svg>
