<?xml version="1.0" standalone="yes"?>
<svg xmlns="http://www.w3.org/2000/svg" width="110" height="110">
<path style="fill:#000000; stroke:none;" d="M0 0L0 50L20 50L20 60L0 60L0 110L40 110L40 100L50 100L50 110L60 110L60 100L50 100L50 90L70 90L70 110L110 110L110 70L100 70L100 50L110 50L110 0L0 0z"/>
<path style="fill:#ffffff; stroke:none;" d="M30 10L30 20L40 20L40 10L30 10M50 10L50 20L60 20L60 10L50 10M70 10L70 20L80 20L80 10L70 10M10 20L10 30L20 30L20 20L10 20M30 30L30 80L80 80L80 30L30 30z"/>
<path style="fill:#000000; stroke:none;" d="M40 40L40 50L50 50L50 70L60 70L60 50L70 50L70 40L60 40L60 50L50 50L50 40L40 40z"/>
<path style="fill:#ffffff; stroke:none;" d="M0 50L0 60L20 60L20 50L0 50M100 50L100 70L110 70L110 50L100 50M20 90L20 100L40 100L40 90L20 90M50 90L50 100L60 100L60 110L70 110L70 90L50 90M40 100L40 110L50 110L50 100L40 100z"/>
</svg>
