<?xml version="1.0" standalone="yes"?>
<svg xmlns="http://www.w3.org/2000/svg" width="110" height="110">
<path style="fill:#000000; stroke:none;" d="M0 0L0 40L20 40L20 60L10 60L10 50L0 50L0 60L10 60L10 70L0 70L0 110L50 110L50 100L70 100L70 110L110 110L110 60L100 60L100 50L110 50L110 0L0 0z"/>
<path style="fill:#ffffff; stroke:none;" d="M20 10L20 20L10 20L10 30L20 30L20 20L40 20L40 10L20 10M80 10L80 20L90 20L90 30L100 30L100 20L90 20L90 10L80 10M30 30L30 80L80 80L80 30L30 30M0 40L0 50L10 50L10 60L20 60L20 40L0 40z"/>
<path style="fill:#000000; stroke:none;" d="M50 40L50 50L40 50L40 70L70 70L70 60L50 60L50 50L60 50L60 40L50 40z"/>
<path style="fill:#ffffff; stroke:none;" d="M90 40L90 50L100 50L100 40L90 40M100 50L100 60L110 60L110 50L100 50M0 60L0 70L10 70L10 60L0 60M10 70L10 90L20 90L20 70L10 70M90 70L90 80L100 80L100 70L90 70M80 90L80 100L90 100L90 90L80 90M50 100L50 110L70 110L70 100L50 100z"/>
</svg>
