<?xml version="1.0" standalone="yes"?>
<svg xmlns="http://www.w3.org/2000/svg" width="110" height="110">
<path style="fill:#000000; stroke:none;" d="M0 0L0 60L10 60L10 70L0 70L0 110L50 110L50 90L60 90L60 110L110 110L110 60L100 60L100 50L110 50L110 0L70 0L70 20L50 20L50 0L0 0z"/>
<path style="fill:#ffffff; stroke:none;" d="M50 0L50 20L70 20L70 0L50 0M30 10L30 20L40 20L40 10L30 10M90 20L90 50L100 50L100 20L90 20M10 30L10 40L20 40L20 30L10 30M30 30L30 80L80 80L80 30L30 30z"/>
<path style="fill:#000000; stroke:none;" d="M50 40L50 60L40 60L40 70L70 70L70 60L60 60L60 40L50 40z"/>
<path style="fill:#ffffff; stroke:none;" d="M100 50L100 60L110 60L110 50L100 50M0 60L0 70L10 70L10 60L0 60M10 70L10 90L20 90L20 70L10 70M50 90L50 110L60 110L60 90L50 90z"/>
</svg>
