<?xml version="1.0" standalone="yes"?>
<svg xmlns="http://www.w3.org/2000/svg" width="110" height="110">
<path style="fill:#000000; stroke:none;" d="M0 0L0 40L10 40L10 30L20 30L20 70L0 70L0 110L60 110L60 100L70 100L70 110L110 110L110 0L60 0L60 10L50 10L50 0L0 0z"/>
<path style="fill:#ffffff; stroke:none;" d="M50 0L50 10L60 10L60 0L50 0M30 10L30 20L50 20L50 10L30 10M90 20L90 30L100 30L100 20L90 20M10 30L10 40L0 40L0 70L20 70L20 30L10 30M30 30L30 80L80 80L80 30L30 30z"/>
<path style="fill:#000000; stroke:none;" d="M40 40L40 50L50 50L50 40L40 40M60 50L60 60L70 60L70 50L60 50z"/>
<path style="fill:#ffffff; stroke:none;" d="M90 50L90 70L100 70L100 50L90 50z"/>
<path style="fill:#000000; stroke:none;" d="M40 60L40 70L50 70L50 60L40 60z"/>
<path style="fill:#ffffff; stroke:none;" d="M10 80L10 90L20 90L20 100L60 100L60 90L20 90L20 80L10 80M90 80L90 90L80 90L80 100L90 100L90 90L100 90L100 80L90 80M60 100L60 110L70 110L70 100L60 100z"/>
</svg>
