<?xml version="1.0" standalone="yes"?>
<svg xmlns="http://www.w3.org/2000/svg" width="110" height="110">
<path style="fill:#000000; stroke:none;" d="M0 0L0 40L20 40L20 50L10 50L10 60L0 60L0 110L40 110L40 100L30 100L30 90L80 90L80 100L50 100L50 110L110 110L110 70L100 70L100 60L90 60L90 20L100 20L100 40L110 40L110 0L70 0L70 10L60 10L60 20L30 20L30 10L50 10L50 0L0 0z"/>
<path style="fill:#ffffff; stroke:none;" d="M50 0L50 10L30 10L30 20L60 20L60 10L70 10L70 0L50 0M10 20L10 30L20 30L20 20L10 20M90 20L90 60L100 60L100 70L110 70L110 40L100 40L100 20L90 20M30 30L30 80L80 80L80 30L30 30M0 40L0 60L10 60L10 50L20 50L20 40L0 40z"/>
<path style="fill:#000000; stroke:none;" d="M60 50L60 60L40 60L40 70L70 70L70 50L60 50z"/>
<path style="fill:#ffffff; stroke:none;" d="M10 60L10 70L20 70L20 60L10 60M90 70L90 90L100 90L100 70L90 70M10 80L10 90L20 90L20 80L10 80M30 90L30 100L40 100L40 110L50 110L50 100L80 100L80 90L30 90z"/>
</svg>
