<?xml version="1.0" standalone="yes"?>
<svg xmlns="http://www.w3.org/2000/svg" width="110" height="110">
<path style="fill:#000000; stroke:none;" d="M0 0L0 50L10 50L10 70L0 70L0 110L60 110L60 90L70 90L70 110L110 110L110 60L90 60L90 50L110 50L110 0L70 0L70 20L60 20L60 10L50 10L50 0L0 0z"/>
<path style="fill:#ffffff; stroke:none;" d="M50 0L50 10L60 10L60 20L70 20L70 0L50 0M40 10L40 20L50 20L50 10L40 10M80 10L80 20L90 20L90 10L80 10M30 30L30 80L80 80L80 30L30 30M10 40L10 50L20 50L20 40L10 40M0 50L0 70L10 70L10 50L0 50z"/>
<path style="fill:#000000; stroke:none;" d="M60 50L60 60L40 60L40 70L60 70L60 60L70 60L70 50L60 50z"/>
<path style="fill:#ffffff; stroke:none;" d="M90 50L90 60L110 60L110 50L90 50M90 70L90 80L100 80L100 70L90 70M30 90L30 100L50 100L50 90L30 90M60 90L60 110L70 110L70 90L60 90z"/>
</svg>
