<?xml version="1.0" standalone="yes"?>
<svg xmlns="http://www.w3.org/2000/svg" width="110" height="110">
<path style="fill:#000000; stroke:none;" d="M0 0L0 110L40 110L40 100L60 100L60 110L110 110L110 60L90 60L90 50L100 50L100 40L110 40L110 0L0 0z"/>
<path style="fill:#ffffff; stroke:none;" d="M20 10L20 20L30 20L30 10L20 10M50 10L50 20L70 20L70 10L50 10M80 10L80 20L90 20L90 30L100 30L100 20L90 20L90 10L80 10M30 30L30 80L80 80L80 30L30 30M100 40L100 50L90 50L90 60L110 60L110 40L100 40z"/>
<path style="fill:#000000; stroke:none;" d="M50 50L50 60L40 60L40 70L50 70L50 60L60 60L60 70L70 70L70 50L50 50z"/>
<path style="fill:#ffffff; stroke:none;" d="M10 60L10 80L20 80L20 60L10 60M90 70L90 80L100 80L100 70L90 70M20 90L20 100L30 100L30 90L20 90M70 90L70 100L90 100L90 90L70 90M40 100L40 110L60 110L60 100L40 100z"/>
</svg>
