<?xml version="1.0" standalone="yes"?>
<svg xmlns="http://www.w3.org/2000/svg" width="110" height="110">
<path style="fill:#000000; stroke:none;" d="M0 0L0 40L10 40L10 70L0 70L0 110L40 110L40 100L30 100L30 90L70 90L70 100L50 100L50 110L110 110L110 60L100 60L100 40L110 40L110 0L70 0L70 10L60 10L60 20L50 20L50 0L0 0z"/>
<path style="fill:#ffffff; stroke:none;" d="M50 0L50 20L60 20L60 10L70 10L70 0L50 0M20 10L20 20L30 20L30 10L20 10M70 10L70 20L90 20L90 30L100 30L100 20L90 20L90 10L70 10M10 30L10 40L20 40L20 30L10 30M30 30L30 80L80 80L80 30L30 30M0 40L0 70L10 70L10 40L0 40z"/>
<path style="fill:#000000; stroke:none;" d="M60 40L60 50L50 50L50 70L70 70L70 40L60 40z"/>
<path style="fill:#ffffff; stroke:none;" d="M100 40L100 60L110 60L110 40L100 40M90 60L90 70L100 70L100 60L90 60M90 80L90 90L100 90L100 80L90 80M30 90L30 100L40 100L40 110L50 110L50 100L70 100L70 90L30 90z"/>
</svg>
