<?xml version="1.0" standalone="yes"?>
<svg xmlns="http://www.w3.org/2000/svg" width="110" height="110">
<path style="fill:#000000; stroke:none;" d="M0 0L0 40L10 40L10 60L0 60L0 110L40 110L40 100L50 100L50 110L60 110L60 100L70 100L70 110L110 110L110 60L90 60L90 30L100 30L100 40L110 40L110 0L70 0L70 10L60 10L60 20L50 20L50 0L0 0z"/>
<path style="fill:#ffffff; stroke:none;" d="M50 0L50 20L60 20L60 10L70 10L70 0L50 0M20 10L20 20L10 20L10 40L20 40L20 20L30 20L30 10L20 10M70 10L70 20L90 20L90 10L70 10M30 30L30 80L80 80L80 30L30 30M90 30L90 60L110 60L110 40L100 40L100 30L90 30M0 40L0 60L10 60L10 40L0 40z"/>
<path style="fill:#000000; stroke:none;" d="M50 40L50 50L60 50L60 70L70 70L70 40L50 40z"/>
<path style="fill:#ffffff; stroke:none;" d="M10 60L10 90L20 90L20 100L30 100L30 90L20 90L20 60L10 60M90 70L90 90L80 90L80 100L90 100L90 90L100 90L100 70L90 70M40 100L40 110L50 110L50 100L40 100M60 100L60 110L70 110L70 100L60 100z"/>
</svg>
