<?xml version="1.0" standalone="yes"?>
<svg xmlns="http://www.w3.org/2000/svg" width="110" height="110">
<path style="fill:#000000; stroke:none;" d="M0 0L0 110L50 110L50 90L70 90L70 100L60 100L60 110L110 110L110 50L100 50L100 40L110 40L110 0L70 0L70 10L60 10L60 0L50 0L50 10L40 10L40 0L0 0z"/>
<path style="fill:#ffffff; stroke:none;" d="M40 0L40 10L50 10L50 0L40 0M60 0L60 10L70 10L70 0L60 0M20 10L20 20L10 20L10 40L20 40L20 20L40 20L40 10L20 10M70 10L70 20L90 20L90 10L70 10M30 30L30 80L80 80L80 30L30 30M100 40L100 50L110 50L110 40L100 40M10 50L10 70L20 70L20 50L10 50M90 50L90 60L100 60L100 50L90 50z"/>
<path style="fill:#000000; stroke:none;" d="M50 60L50 70L70 70L70 60L50 60z"/>
<path style="fill:#ffffff; stroke:none;" d="M90 70L90 80L100 80L100 70L90 70M50 90L50 110L60 110L60 100L70 100L70 90L50 90z"/>
</svg>
