<?xml version="1.0" standalone="yes"?>
<svg xmlns="http://www.w3.org/2000/svg" width="110" height="110">
<path style="fill:#000000; stroke:none;" d="M0 0L0 50L20 50L20 80L10 80L10 70L0 70L0 110L40 110L40 100L50 100L50 110L110 110L110 70L90 70L90 60L110 60L110 50L90 50L90 40L110 40L110 0L50 0L50 10L60 10L60 20L30 20L30 10L40 10L40 0L0 0z"/>
<path style="fill:#ffffff; stroke:none;" d="M40 0L40 10L30 10L30 20L60 20L60 10L50 10L50 0L40 0M80 10L80 20L90 20L90 30L100 30L100 20L90 20L90 10L80 10M30 30L30 80L80 80L80 30L30 30z"/>
<path style="fill:#000000; stroke:none;" d="M50 40L50 50L40 50L40 60L50 60L50 70L60 70L60 50L70 50L70 40L50 40z"/>
<path style="fill:#ffffff; stroke:none;" d="M90 40L90 50L110 50L110 40L90 40M0 50L0 70L10 70L10 80L20 80L20 50L0 50M90 60L90 70L110 70L110 60L90 60M20 90L20 100L30 100L30 90L20 90M40 100L40 110L50 110L50 100L40 100z"/>
</svg>
