<?xml version="1.0" standalone="yes"?>
<svg xmlns="http://www.w3.org/2000/svg" width="110" height="110">
<path style="fill:#000000; stroke:none;" d="M0 0L0 40L10 40L10 20L20 20L20 50L0 50L0 60L10 60L10 70L0 70L0 110L50 110L50 100L60 100L60 110L110 110L110 50L100 50L100 40L110 40L110 0L70 0L70 10L50 10L50 0L0 0z"/>
<path style="fill:#ffffff; stroke:none;" d="M50 0L50 10L70 10L70 0L50 0M10 20L10 40L0 40L0 50L20 50L20 20L10 20M90 20L90 30L100 30L100 20L90 20M30 30L30 80L80 80L80 30L30 30z"/>
<path style="fill:#000000; stroke:none;" d="M50 40L50 50L40 50L40 60L50 60L50 50L60 50L60 70L70 70L70 50L60 50L60 40L50 40z"/>
<path style="fill:#ffffff; stroke:none;" d="M100 40L100 50L110 50L110 40L100 40M0 60L0 70L10 70L10 60L0 60M10 70L10 90L20 90L20 70L10 70M90 80L90 90L70 90L70 100L90 100L90 90L100 90L100 80L90 80M40 90L40 100L50 100L50 90L40 90M50 100L50 110L60 110L60 100L50 100z"/>
</svg>
