<?xml version="1.0" standalone="yes"?>
<svg xmlns="http://www.w3.org/2000/svg" width="110" height="110">
<path style="fill:#000000; stroke:none;" d="M0 0L0 40L10 40L10 20L20 20L20 50L0 50L0 110L110 110L110 60L100 60L100 90L90 90L90 20L100 20L100 40L110 40L110 0L70 0L70 10L50 10L50 0L0 0z"/>
<path style="fill:#ffffff; stroke:none;" d="M50 0L50 10L70 10L70 0L50 0M20 10L20 20L40 20L40 10L20 10M80 10L80 20L90 20L90 10L80 10M10 20L10 40L0 40L0 50L20 50L20 20L10 20M90 20L90 90L100 90L100 60L110 60L110 40L100 40L100 20L90 20M30 30L30 80L80 80L80 30L30 30z"/>
<path style="fill:#000000; stroke:none;" d="M40 40L40 60L50 60L50 70L60 70L60 60L50 60L50 50L60 50L60 40L40 40z"/>
<path style="fill:#ffffff; stroke:none;" d="M10 60L10 90L20 90L20 60L10 60M70 90L70 100L80 100L80 90L70 90z"/>
</svg>
