<?xml version="1.0" standalone="yes"?>
<svg xmlns="http://www.w3.org/2000/svg" width="110" height="110">
<path style="fill:#000000; stroke:none;" d="M0 0L0 50L10 50L10 70L0 70L0 110L40 110L40 90L50 90L50 100L60 100L60 110L110 110L110 70L90 70L90 20L100 20L100 40L110 40L110 0L60 0L60 10L90 10L90 20L50 20L50 10L40 10L40 0L0 0z"/>
<path style="fill:#ffffff; stroke:none;" d="M40 0L40 10L50 10L50 20L90 20L90 10L60 10L60 0L40 0M30 10L30 20L40 20L40 10L30 10M90 20L90 70L110 70L110 60L100 60L100 50L110 50L110 40L100 40L100 20L90 20M10 30L10 50L20 50L20 30L10 30M30 30L30 80L80 80L80 30L30 30z"/>
<path style="fill:#000000; stroke:none;" d="M50 40L50 50L40 50L40 60L50 60L50 70L60 70L60 60L70 60L70 40L50 40z"/>
<path style="fill:#ffffff; stroke:none;" d="M0 50L0 70L10 70L10 50L0 50M50 50L50 60L60 60L60 50L50 50z"/>
<path style="fill:#000000; stroke:none;" d="M100 50L100 60L110 60L110 50L100 50z"/>
<path style="fill:#ffffff; stroke:none;" d="M10 70L10 80L20 80L20 70L10 70M40 90L40 110L60 110L60 100L50 100L50 90L40 90M70 90L70 100L90 100L90 90L70 90z"/>
</svg>
