<?xml version="1.0" standalone="yes"?>
<svg xmlns="http://www.w3.org/2000/svg" width="110" height="110">
<path style="fill:#000000; stroke:none;" d="M0 0L0 60L10 60L10 20L20 20L20 70L0 70L0 110L40 110L40 100L60 100L60 110L110 110L110 70L90 70L90 60L100 60L100 50L110 50L110 0L0 0z"/>
<path style="fill:#ffffff; stroke:none;" d="M40 10L40 20L50 20L50 10L40 10M60 10L60 20L70 20L70 10L60 10M80 10L80 20L90 20L90 50L100 50L100 20L90 20L90 10L80 10M10 20L10 60L0 60L0 70L20 70L20 20L10 20M30 30L30 80L80 80L80 30L30 30z"/>
<path style="fill:#000000; stroke:none;" d="M60 40L60 50L70 50L70 40L60 40M40 50L40 70L50 70L50 50L40 50z"/>
<path style="fill:#ffffff; stroke:none;" d="M100 50L100 60L90 60L90 70L110 70L110 50L100 50M10 80L10 90L20 90L20 80L10 80M90 80L90 90L100 90L100 80L90 80M60 90L60 100L80 100L80 90L60 90M40 100L40 110L60 110L60 100L40 100z"/>
</svg>
