<?xml version="1.0" standalone="yes"?>
<svg xmlns="http://www.w3.org/2000/svg" width="110" height="110">
<path style="fill:#000000; stroke:none;" d="M0 0L0 40L20 40L20 50L10 50L10 60L20 60L20 70L0 70L0 110L50 110L50 100L60 100L60 90L70 90L70 110L110 110L110 70L90 70L90 40L100 40L100 60L110 60L110 0L70 0L70 20L60 20L60 10L50 10L50 0L0 0z"/>
<path style="fill:#ffffff; stroke:none;" d="M50 0L50 10L60 10L60 20L70 20L70 0L50 0M20 10L20 20L10 20L10 30L20 30L20 20L50 20L50 10L20 10M30 30L30 80L80 80L80 30L30 30M0 40L0 70L20 70L20 60L10 60L10 50L20 50L20 40L0 40z"/>
<path style="fill:#000000; stroke:none;" d="M40 40L40 60L50 60L50 70L70 70L70 60L60 60L60 40L40 40z"/>
<path style="fill:#ffffff; stroke:none;" d="M90 40L90 70L110 70L110 60L100 60L100 40L90 40M10 80L10 90L20 90L20 100L30 100L30 90L20 90L20 80L10 80M40 90L40 100L50 100L50 90L40 90M60 90L60 100L50 100L50 110L70 110L70 90L60 90z"/>
</svg>
