<?xml version="1.0" standalone="yes"?>
<svg xmlns="http://www.w3.org/2000/svg" width="110" height="110">
<path style="fill:#000000; stroke:none;" d="M0 0L0 110L40 110L40 100L50 100L50 110L110 110L110 0L60 0L60 10L40 10L40 0L0 0z"/>
<path style="fill:#ffffff; stroke:none;" d="M40 0L40 10L60 10L60 0L40 0M20 10L20 20L30 20L30 10L20 10M60 10L60 20L80 20L80 10L60 10M10 30L10 40L20 40L20 30L10 30M30 30L30 80L80 80L80 30L30 30M90 30L90 60L100 60L100 30L90 30z"/>
<path style="fill:#000000; stroke:none;" d="M40 40L40 50L50 50L50 60L40 60L40 70L70 70L70 40L60 40L60 50L50 50L50 40L40 40z"/>
<path style="fill:#ffffff; stroke:none;" d="M10 50L10 80L20 80L20 50L10 50M90 70L90 90L50 90L50 100L90 100L90 90L100 90L100 70L90 70M20 90L20 100L40 100L40 90L20 90M40 100L40 110L50 110L50 100L40 100z"/>
</svg>
