<?xml version="1.0" standalone="yes"?>
<svg xmlns="http://www.w3.org/2000/svg" width="110" height="110">
<path style="fill:#000000; stroke:none;" d="M0 0L0 40L20 40L20 80L10 80L10 70L0 70L0 110L50 110L50 100L70 100L70 110L110 110L110 70L100 70L100 60L90 60L90 50L110 50L110 0L70 0L70 10L60 10L60 20L40 20L40 10L50 10L50 0L0 0z"/>
<path style="fill:#ffffff; stroke:none;" d="M50 0L50 10L40 10L40 20L60 20L60 10L70 10L70 0L50 0M30 30L30 80L80 80L80 30L30 30M0 40L0 50L10 50L10 60L0 60L0 70L10 70L10 80L20 80L20 40L0 40z"/>
<path style="fill:#000000; stroke:none;" d="M50 40L50 60L40 60L40 70L60 70L60 50L70 50L70 40L50 40M0 50L0 60L10 60L10 50L0 50z"/>
<path style="fill:#ffffff; stroke:none;" d="M90 50L90 60L100 60L100 70L110 70L110 50L90 50M20 90L20 100L30 100L30 90L20 90M40 90L40 100L50 100L50 90L40 90M50 100L50 110L70 110L70 100L50 100z"/>
</svg>
