<?xml version="1.0" standalone="yes"?>
<svg xmlns="http://www.w3.org/2000/svg" width="110" height="110">
<path style="fill:#000000; stroke:none;" d="M0 0L0 40L10 40L10 30L20 30L20 50L10 50L10 70L0 70L0 110L40 110L40 100L30 100L30 90L60 90L60 100L70 100L70 110L110 110L110 0L60 0L60 20L50 20L50 0L0 0z"/>
<path style="fill:#ffffff; stroke:none;" d="M50 0L50 20L60 20L60 0L50 0M20 10L20 20L40 20L40 10L20 10M90 20L90 30L100 30L100 20L90 20M10 30L10 40L0 40L0 70L10 70L10 50L20 50L20 30L10 30M30 30L30 80L80 80L80 30L30 30z"/>
<path style="fill:#000000; stroke:none;" d="M40 40L40 70L50 70L50 60L70 60L70 50L50 50L50 40L40 40z"/>
<path style="fill:#ffffff; stroke:none;" d="M90 50L90 60L100 60L100 50L90 50M30 90L30 100L40 100L40 110L70 110L70 100L60 100L60 90L30 90M70 90L70 100L90 100L90 90L70 90z"/>
</svg>
