<?xml version="1.0" standalone="yes"?>
<svg xmlns="http://www.w3.org/2000/svg" width="110" height="110">
<path style="fill:#000000; stroke:none;" d="M0 0L0 110L40 110L40 100L50 100L50 110L110 110L110 70L100 70L100 60L90 60L90 20L100 20L100 40L110 40L110 0L0 0z"/>
<path style="fill:#ffffff; stroke:none;" d="M40 10L40 20L50 20L50 10L40 10M60 10L60 20L80 20L80 10L60 10M90 20L90 60L100 60L100 70L110 70L110 40L100 40L100 20L90 20M10 30L10 90L20 90L20 30L10 30M30 30L30 80L80 80L80 30L30 30z"/>
<path style="fill:#000000; stroke:none;" d="M50 50L50 60L40 60L40 70L50 70L50 60L70 60L70 50L50 50z"/>
<path style="fill:#ffffff; stroke:none;" d="M60 90L60 100L80 100L80 90L60 90M40 100L40 110L50 110L50 100L40 100z"/>
</svg>
