<?xml version="1.0" standalone="yes"?>
<svg xmlns="http://www.w3.org/2000/svg" width="110" height="110">
<path style="fill:#000000; stroke:none;" d="M0 0L0 50L20 50L20 60L0 60L0 110L60 110L60 90L70 90L70 110L110 110L110 70L90 70L90 50L100 50L100 60L110 60L110 50L100 50L100 40L110 40L110 0L70 0L70 10L50 10L50 0L0 0z"/>
<path style="fill:#ffffff; stroke:none;" d="M50 0L50 10L70 10L70 0L50 0M40 10L40 20L50 20L50 10L40 10M10 20L10 30L20 30L20 20L10 20M30 30L30 80L80 80L80 30L30 30z"/>
<path style="fill:#000000; stroke:none;" d="M40 40L40 50L50 50L50 60L60 60L60 70L70 70L70 40L60 40L60 50L50 50L50 40L40 40z"/>
<path style="fill:#ffffff; stroke:none;" d="M100 40L100 50L110 50L110 40L100 40M0 50L0 60L20 60L20 50L0 50M90 50L90 70L110 70L110 60L100 60L100 50L90 50M10 70L10 90L20 90L20 70L10 70M60 90L60 110L70 110L70 90L60 90z"/>
</svg>
