<?xml version="1.0" standalone="yes"?>
<svg xmlns="http://www.w3.org/2000/svg" width="110" height="110">
<path style="fill:#000000; stroke:none;" d="M0 0L0 40L20 40L20 50L10 50L10 70L0 70L0 110L110 110L110 70L100 70L100 90L90 90L90 50L110 50L110 0L60 0L60 10L50 10L50 0L0 0z"/>
<path style="fill:#ffffff; stroke:none;" d="M50 0L50 10L60 10L60 0L50 0M70 10L70 20L80 20L80 10L70 10M10 20L10 30L20 30L20 20L10 20M90 20L90 40L100 40L100 20L90 20M30 30L30 80L80 80L80 30L30 30M0 40L0 70L10 70L10 50L20 50L20 40L0 40z"/>
<path style="fill:#000000; stroke:none;" d="M50 40L50 60L60 60L60 50L70 50L70 40L50 40z"/>
<path style="fill:#ffffff; stroke:none;" d="M90 50L90 90L100 90L100 70L110 70L110 50L90 50M10 70L10 80L20 80L20 70L10 70M20 90L20 100L40 100L40 90L20 90M50 90L50 100L80 100L80 90L50 90z"/>
</svg>
