<?xml version="1.0" standalone="yes"?>
<svg xmlns="http://www.w3.org/2000/svg" width="110" height="110">
<path style="fill:#000000; stroke:none;" d="M0 0L0 50L10 50L10 40L20 40L20 60L10 60L10 70L0 70L0 110L60 110L60 100L70 100L70 110L110 110L110 70L100 70L100 60L110 60L110 0L0 0z"/>
<path style="fill:#ffffff; stroke:none;" d="M30 10L30 20L50 20L50 10L30 10M10 20L10 30L20 30L20 20L10 20M30 30L30 80L80 80L80 30L30 30M90 30L90 40L100 40L100 30L90 30M10 40L10 50L0 50L0 70L10 70L10 60L20 60L20 40L10 40z"/>
<path style="fill:#000000; stroke:none;" d="M40 40L40 70L50 70L50 60L60 60L60 50L50 50L50 40L40 40z"/>
<path style="fill:#ffffff; stroke:none;" d="M90 50L90 60L100 60L100 50L90 50M100 60L100 70L110 70L110 60L100 60M90 70L90 90L100 90L100 70L90 70M20 90L20 100L30 100L30 90L20 90M50 90L50 100L60 100L60 90L50 90M70 90L70 100L80 100L80 90L70 90M60 100L60 110L70 110L70 100L60 100z"/>
</svg>
