<?xml version="1.0" standalone="yes"?>
<svg xmlns="http://www.w3.org/2000/svg" width="110" height="110">
<path style="fill:#000000; stroke:none;" d="M0 0L0 50L10 50L10 70L0 70L0 110L50 110L50 90L70 90L70 110L110 110L110 70L90 70L90 50L100 50L100 40L110 40L110 0L60 0L60 10L50 10L50 0L0 0z"/>
<path style="fill:#ffffff; stroke:none;" d="M50 0L50 10L60 10L60 0L50 0M30 10L30 20L40 20L40 10L30 10M70 10L70 20L80 20L80 10L70 10M10 20L10 40L20 40L20 20L10 20M30 30L30 80L80 80L80 30L30 30z"/>
<path style="fill:#000000; stroke:none;" d="M40 40L40 70L70 70L70 60L50 60L50 40L40 40M60 40L60 50L70 50L70 40L60 40z"/>
<path style="fill:#ffffff; stroke:none;" d="M100 40L100 50L90 50L90 70L110 70L110 40L100 40M0 50L0 70L10 70L10 50L0 50M90 80L90 90L80 90L80 100L90 100L90 90L100 90L100 80L90 80M20 90L20 100L40 100L40 90L20 90M50 90L50 110L70 110L70 90L50 90z"/>
</svg>
