<?xml version="1.0" standalone="yes"?>
<svg xmlns="http://www.w3.org/2000/svg" width="110" height="110">
<path style="fill:#000000; stroke:none;" d="M0 0L0 40L10 40L10 50L0 50L0 110L50 110L50 90L60 90L60 100L70 100L70 110L110 110L110 70L100 70L100 60L110 60L110 50L100 50L100 60L90 60L90 40L110 40L110 0L70 0L70 10L90 10L90 20L60 20L60 10L50 10L50 0L0 0z"/>
<path style="fill:#ffffff; stroke:none;" d="M50 0L50 10L60 10L60 20L90 20L90 10L70 10L70 0L50 0M30 30L30 80L80 80L80 30L30 30M0 40L0 50L10 50L10 40L0 40z"/>
<path style="fill:#000000; stroke:none;" d="M50 40L50 60L40 60L40 70L70 70L70 40L50 40z"/>
<path style="fill:#ffffff; stroke:none;" d="M90 40L90 60L100 60L100 50L110 50L110 40L90 40M100 60L100 70L110 70L110 60L100 60M90 70L90 90L70 90L70 100L90 100L90 90L100 90L100 70L90 70M10 80L10 90L20 90L20 100L30 100L30 90L20 90L20 80L10 80M50 90L50 110L70 110L70 100L60 100L60 90L50 90z"/>
</svg>
