<?xml version="1.0" standalone="yes"?>
<svg xmlns="http://www.w3.org/2000/svg" width="110" height="110">
<path style="fill:#000000; stroke:none;" d="M0 0L0 40L10 40L10 30L20 30L20 80L10 80L10 60L0 60L0 110L60 110L60 100L20 100L20 90L80 90L80 100L70 100L70 110L110 110L110 0L70 0L70 10L90 10L90 20L60 20L60 0L0 0z"/>
<path style="fill:#ffffff; stroke:none;" d="M60 0L60 20L90 20L90 10L70 10L70 0L60 0M20 10L20 20L40 20L40 10L20 10M90 20L90 30L100 30L100 20L90 20M10 30L10 40L0 40L0 60L10 60L10 80L20 80L20 30L10 30M30 30L30 80L80 80L80 30L30 30z"/>
<path style="fill:#000000; stroke:none;" d="M40 40L40 50L50 50L50 60L40 60L40 70L50 70L50 60L70 60L70 50L60 50L60 40L40 40z"/>
<path style="fill:#ffffff; stroke:none;" d="M90 40L90 50L100 50L100 40L90 40M90 70L90 80L100 80L100 70L90 70M20 90L20 100L60 100L60 110L70 110L70 100L80 100L80 90L20 90z"/>
</svg>
