<?xml version="1.0" standalone="yes"?>
<svg xmlns="http://www.w3.org/2000/svg" width="110" height="110">
<path style="fill:#000000; stroke:none;" d="M0 0L0 40L10 40L10 30L20 30L20 50L0 50L0 60L20 60L20 80L10 80L10 70L0 70L0 110L50 110L50 90L90 90L90 100L60 100L60 110L110 110L110 70L100 70L100 80L90 80L90 60L110 60L110 50L90 50L90 20L100 20L100 40L110 40L110 0L70 0L70 10L60 10L60 20L50 20L50 0L0 0z"/>
<path style="fill:#ffffff; stroke:none;" d="M50 0L50 20L60 20L60 10L70 10L70 0L50 0M30 10L30 20L40 20L40 10L30 10M70 10L70 20L90 20L90 10L70 10M90 20L90 50L110 50L110 40L100 40L100 20L90 20M10 30L10 40L0 40L0 50L20 50L20 30L10 30M30 30L30 80L80 80L80 30L30 30z"/>
<path style="fill:#000000; stroke:none;" d="M40 50L40 60L50 60L50 70L60 70L60 60L50 60L50 50L40 50z"/>
<path style="fill:#ffffff; stroke:none;" d="M0 60L0 70L10 70L10 80L20 80L20 60L0 60M90 60L90 80L100 80L100 70L110 70L110 60L90 60M20 90L20 100L40 100L40 90L20 90M50 90L50 110L60 110L60 100L90 100L90 90L50 90z"/>
</svg>
