<?xml version="1.0" standalone="yes"?>
<svg xmlns="http://www.w3.org/2000/svg" width="110" height="110">
<path style="fill:#000000; stroke:none;" d="M0 0L0 110L50 110L50 100L60 100L60 110L110 110L110 60L90 60L90 50L110 50L110 0L60 0L60 20L50 20L50 0L0 0z"/>
<path style="fill:#ffffff; stroke:none;" d="M50 0L50 20L60 20L60 0L50 0M20 10L20 20L10 20L10 70L20 70L20 20L30 20L30 10L20 10M70 10L70 20L80 20L80 10L70 10M30 30L30 80L80 80L80 30L30 30z"/>
<path style="fill:#000000; stroke:none;" d="M40 40L40 50L70 50L70 40L40 40z"/>
<path style="fill:#ffffff; stroke:none;" d="M90 50L90 60L110 60L110 50L90 50z"/>
<path style="fill:#000000; stroke:none;" d="M40 60L40 70L60 70L60 60L40 60z"/>
<path style="fill:#ffffff; stroke:none;" d="M90 80L90 90L100 90L100 80L90 80M30 90L30 100L50 100L50 90L30 90M60 90L60 100L80 100L80 90L60 90M50 100L50 110L60 110L60 100L50 100z"/>
</svg>
