<?xml version="1.0" standalone="yes"?>
<svg xmlns="http://www.w3.org/2000/svg" width="110" height="110">
<path style="fill:#000000; stroke:none;" d="M0 0L0 50L10 50L10 70L0 70L0 110L50 110L50 100L40 100L40 90L60 90L60 100L70 100L70 110L110 110L110 60L100 60L100 90L90 90L90 40L100 40L100 50L110 50L110 0L0 0z"/>
<path style="fill:#ffffff; stroke:none;" d="M30 10L30 20L40 20L40 10L30 10M70 10L70 20L90 20L90 10L70 10M10 20L10 40L20 40L20 20L10 20M30 30L30 80L80 80L80 30L30 30z"/>
<path style="fill:#000000; stroke:none;" d="M40 40L40 60L50 60L50 70L70 70L70 60L60 60L60 50L70 50L70 40L40 40z"/>
<path style="fill:#ffffff; stroke:none;" d="M90 40L90 90L100 90L100 60L110 60L110 50L100 50L100 40L90 40M0 50L0 70L10 70L10 50L0 50M10 70L10 90L20 90L20 70L10 70M40 90L40 100L50 100L50 110L70 110L70 100L60 100L60 90L40 90M70 90L70 100L90 100L90 90L70 90z"/>
</svg>
