<?xml version="1.0" standalone="yes"?>
<svg xmlns="http://www.w3.org/2000/svg" width="110" height="110">
<path style="fill:#000000; stroke:none;" d="M0 0L0 110L40 110L40 100L60 100L60 110L110 110L110 60L100 60L100 70L90 70L90 40L100 40L100 50L110 50L110 0L70 0L70 10L50 10L50 0L0 0z"/>
<path style="fill:#ffffff; stroke:none;" d="M50 0L50 10L70 10L70 0L50 0M40 10L40 20L50 20L50 10L40 10M10 20L10 40L20 40L20 20L10 20M30 30L30 80L80 80L80 30L30 30z"/>
<path style="fill:#000000; stroke:none;" d="M40 40L40 70L50 70L50 60L60 60L60 50L70 50L70 40L40 40z"/>
<path style="fill:#ffffff; stroke:none;" d="M90 40L90 70L100 70L100 60L110 60L110 50L100 50L100 40L90 40M10 70L10 90L20 90L20 100L40 100L40 90L20 90L20 70L10 70M90 80L90 90L80 90L80 100L90 100L90 90L100 90L100 80L90 80M40 100L40 110L60 110L60 100L40 100z"/>
</svg>
