<?xml version="1.0" standalone="yes"?>
<svg xmlns="http://www.w3.org/2000/svg" width="110" height="110">
<path style="fill:#000000; stroke:none;" d="M0 0L0 40L20 40L20 80L10 80L10 70L0 70L0 110L40 110L40 90L60 90L60 100L50 100L50 110L110 110L110 60L90 60L90 50L100 50L100 40L110 40L110 0L70 0L70 10L50 10L50 0L0 0z"/>
<path style="fill:#ffffff; stroke:none;" d="M50 0L50 10L70 10L70 0L50 0M20 10L20 20L10 20L10 30L20 30L20 20L30 20L30 10L20 10M70 10L70 20L80 20L80 10L70 10M30 30L30 80L80 80L80 30L30 30M90 30L90 40L100 40L100 30L90 30M0 40L0 70L10 70L10 80L20 80L20 40L0 40z"/>
<path style="fill:#000000; stroke:none;" d="M50 40L50 60L40 60L40 70L60 70L60 50L70 50L70 40L50 40z"/>
<path style="fill:#ffffff; stroke:none;" d="M100 40L100 50L90 50L90 60L110 60L110 40L100 40M40 90L40 110L50 110L50 100L60 100L60 90L40 90M70 90L70 100L80 100L80 90L70 90z"/>
</svg>
