<?xml version="1.0" standalone="yes"?>
<svg xmlns="http://www.w3.org/2000/svg" width="110" height="110">
<path style="fill:#000000; stroke:none;" d="M0 0L0 50L10 50L10 40L20 40L20 60L10 60L10 70L0 70L0 110L110 110L110 70L100 70L100 60L110 60L110 0L70 0L70 20L60 20L60 10L50 10L50 20L40 20L40 0L0 0z"/>
<path style="fill:#ffffff; stroke:none;" d="M40 0L40 20L50 20L50 10L60 10L60 20L70 20L70 0L40 0M20 10L20 20L30 20L30 10L20 10M80 10L80 20L90 20L90 10L80 10M30 30L30 80L80 80L80 30L30 30M90 30L90 40L100 40L100 30L90 30M10 40L10 50L0 50L0 70L10 70L10 60L20 60L20 40L10 40z"/>
<path style="fill:#000000; stroke:none;" d="M50 40L50 50L40 50L40 60L50 60L50 70L60 70L60 60L50 60L50 50L70 50L70 40L50 40z"/>
<path style="fill:#ffffff; stroke:none;" d="M90 50L90 60L100 60L100 50L90 50M100 60L100 70L110 70L110 60L100 60M90 80L90 90L100 90L100 80L90 80M20 90L20 100L50 100L50 90L20 90z"/>
</svg>
