<?xml version="1.0" standalone="yes"?>
<svg xmlns="http://www.w3.org/2000/svg" width="110" height="110">
<path style="fill:#000000; stroke:none;" d="M0 0L0 50L10 50L10 60L0 60L0 110L40 110L40 100L30 100L30 90L60 90L60 100L70 100L70 110L110 110L110 70L90 70L90 60L100 60L100 50L110 50L110 0L50 0L50 10L40 10L40 0L0 0z"/>
<path style="fill:#ffffff; stroke:none;" d="M40 0L40 10L50 10L50 0L40 0M20 10L20 20L30 20L30 10L20 10M70 10L70 20L80 20L80 10L70 10M90 20L90 30L100 30L100 20L90 20M10 30L10 40L20 40L20 30L10 30M30 30L30 80L80 80L80 30L30 30z"/>
<path style="fill:#000000; stroke:none;" d="M50 40L50 50L40 50L40 70L50 70L50 60L60 60L60 70L70 70L70 50L60 50L60 40L50 40z"/>
<path style="fill:#ffffff; stroke:none;" d="M0 50L0 60L10 60L10 50L0 50M100 50L100 60L90 60L90 70L110 70L110 50L100 50M10 60L10 90L20 90L20 60L10 60M90 80L90 90L100 90L100 80L90 80M30 90L30 100L40 100L40 110L70 110L70 100L60 100L60 90L30 90M70 90L70 100L80 100L80 90L70 90z"/>
</svg>
