<?xml version="1.0" standalone="yes"?>
<svg xmlns="http://www.w3.org/2000/svg" width="110" height="110">
<path style="fill:#000000; stroke:none;" d="M0 0L0 60L10 60L10 70L0 70L0 110L110 110L110 70L100 70L100 60L110 60L110 50L100 50L100 40L110 40L110 0L70 0L70 10L90 10L90 20L50 20L50 10L60 10L60 0L0 0z"/>
<path style="fill:#ffffff; stroke:none;" d="M60 0L60 10L50 10L50 20L90 20L90 10L70 10L70 0L60 0M20 10L20 20L30 20L30 10L20 10M30 30L30 80L80 80L80 30L30 30M90 30L90 40L100 40L100 30L90 30z"/>
<path style="fill:#000000; stroke:none;" d="M40 40L40 60L50 60L50 40L40 40M60 40L60 60L70 60L70 40L60 40z"/>
<path style="fill:#ffffff; stroke:none;" d="M100 40L100 50L110 50L110 40L100 40M90 50L90 60L100 60L100 50L90 50M0 60L0 70L10 70L10 60L0 60M100 60L100 70L110 70L110 60L100 60M10 70L10 90L20 90L20 70L10 70M90 70L90 80L100 80L100 70L90 70M60 90L60 100L80 100L80 90L60 90z"/>
</svg>
