<?xml version="1.0" standalone="yes"?>
<svg xmlns="http://www.w3.org/2000/svg" width="110" height="110">
<path style="fill:#000000; stroke:none;" d="M0 0L0 50L20 50L20 70L10 70L10 60L0 60L0 110L110 110L110 0L60 0L60 10L40 10L40 0L0 0z"/>
<path style="fill:#ffffff; stroke:none;" d="M40 0L40 10L60 10L60 0L40 0M30 10L30 20L40 20L40 10L30 10M60 10L60 20L70 20L70 10L60 10M90 20L90 30L100 30L100 20L90 20M30 30L30 80L80 80L80 30L30 30z"/>
<path style="fill:#000000; stroke:none;" d="M40 40L40 50L50 50L50 60L60 60L60 50L50 50L50 40L40 40z"/>
<path style="fill:#ffffff; stroke:none;" d="M0 50L0 60L10 60L10 70L20 70L20 50L0 50M90 50L90 60L100 60L100 50L90 50M90 70L90 80L100 80L100 70L90 70M10 80L10 90L20 90L20 80L10 80M50 90L50 100L60 100L60 90L50 90z"/>
</svg>
