<?xml version="1.0" standalone="yes"?>
<svg xmlns="http://www.w3.org/2000/svg" width="110" height="110">
<path style="fill:#000000; stroke:none;" d="M0 0L0 40L10 40L10 20L20 20L20 80L10 80L10 70L0 70L0 110L110 110L110 70L100 70L100 50L110 50L110 0L70 0L70 10L90 10L90 20L60 20L60 10L40 10L40 0L0 0z"/>
<path style="fill:#ffffff; stroke:none;" d="M40 0L40 10L60 10L60 20L90 20L90 10L70 10L70 0L40 0M20 10L20 20L30 20L30 10L20 10M10 20L10 40L0 40L0 70L10 70L10 80L20 80L20 20L10 20M90 20L90 50L100 50L100 20L90 20M30 30L30 80L80 80L80 30L30 30z"/>
<path style="fill:#000000; stroke:none;" d="M60 40L60 50L50 50L50 70L60 70L60 60L70 60L70 40L60 40z"/>
<path style="fill:#ffffff; stroke:none;" d="M100 50L100 70L110 70L110 50L100 50M90 70L90 90L60 90L60 100L90 100L90 90L100 90L100 70L90 70z"/>
</svg>
