<?xml version="1.0" standalone="yes"?>
<svg xmlns="http://www.w3.org/2000/svg" width="110" height="110">
<path style="fill:#000000; stroke:none;" d="M0 0L0 110L40 110L40 100L30 100L30 90L50 90L50 100L60 100L60 110L110 110L110 70L100 70L100 60L110 60L110 50L100 50L100 40L110 40L110 0L70 0L70 10L80 10L80 20L50 20L50 10L40 10L40 0L0 0z"/>
<path style="fill:#ffffff; stroke:none;" d="M40 0L40 10L50 10L50 20L80 20L80 10L70 10L70 0L40 0M30 10L30 20L40 20L40 10L30 10M90 20L90 40L100 40L100 20L90 20M30 30L30 80L80 80L80 30L30 30M100 40L100 50L110 50L110 40L100 40M10 50L10 60L20 60L20 50L10 50z"/>
<path style="fill:#000000; stroke:none;" d="M60 50L60 60L40 60L40 70L60 70L60 60L70 60L70 50L60 50z"/>
<path style="fill:#ffffff; stroke:none;" d="M90 50L90 60L100 60L100 50L90 50M100 60L100 70L110 70L110 60L100 60M90 70L90 80L100 80L100 70L90 70M30 90L30 100L40 100L40 110L60 110L60 100L50 100L50 90L30 90M60 90L60 100L70 100L70 90L60 90z"/>
</svg>
