<?xml version="1.0" standalone="yes"?>
<svg xmlns="http://www.w3.org/2000/svg" width="110" height="110">
<path style="fill:#000000; stroke:none;" d="M0 0L0 50L10 50L10 20L20 20L20 60L10 60L10 70L0 70L0 110L40 110L40 100L50 100L50 110L110 110L110 70L90 70L90 60L110 60L110 0L60 0L60 10L40 10L40 0L0 0z"/>
<path style="fill:#ffffff; stroke:none;" d="M40 0L40 10L60 10L60 0L40 0M30 10L30 20L40 20L40 10L30 10M60 10L60 20L90 20L90 10L60 10M10 20L10 50L0 50L0 70L10 70L10 60L20 60L20 20L10 20M30 30L30 80L80 80L80 30L30 30M90 30L90 40L100 40L100 30L90 30z"/>
<path style="fill:#000000; stroke:none;" d="M50 40L50 50L40 50L40 70L50 70L50 50L60 50L60 60L70 60L70 40L50 40z"/>
<path style="fill:#ffffff; stroke:none;" d="M90 60L90 70L110 70L110 60L90 60M10 80L10 90L20 90L20 100L40 100L40 90L20 90L20 80L10 80M90 80L90 90L60 90L60 100L90 100L90 90L100 90L100 80L90 80M40 100L40 110L50 110L50 100L40 100z"/>
</svg>
