<?xml version="1.0" standalone="yes"?>
<svg xmlns="http://www.w3.org/2000/svg" width="110" height="110">
<path style="fill:#000000; stroke:none;" d="M0 0L0 40L10 40L10 20L20 20L20 50L0 50L0 60L20 60L20 70L0 70L0 110L60 110L60 100L70 100L70 110L110 110L110 50L100 50L100 60L90 60L90 30L100 30L100 40L110 40L110 0L70 0L70 10L60 10L60 0L0 0z"/>
<path style="fill:#ffffff; stroke:none;" d="M60 0L60 10L70 10L70 0L60 0M40 10L40 20L60 20L60 10L40 10M80 10L80 20L90 20L90 10L80 10M10 20L10 40L0 40L0 50L20 50L20 20L10 20M30 30L30 80L80 80L80 30L30 30M90 30L90 60L100 60L100 50L110 50L110 40L100 40L100 30L90 30z"/>
<path style="fill:#000000; stroke:none;" d="M40 40L40 70L50 70L50 40L40 40M60 40L60 70L70 70L70 40L60 40z"/>
<path style="fill:#ffffff; stroke:none;" d="M0 60L0 70L20 70L20 60L0 60M10 80L10 90L20 90L20 80L10 80M30 90L30 100L40 100L40 90L30 90M50 90L50 100L60 100L60 90L50 90M60 100L60 110L70 110L70 100L60 100z"/>
</svg>
