<?xml version="1.0" standalone="yes"?>
<svg xmlns="http://www.w3.org/2000/svg" width="110" height="110">
<path style="fill:#000000; stroke:none;" d="M0 0L0 40L10 40L10 20L20 20L20 80L10 80L10 70L0 70L0 110L40 110L40 90L50 90L50 100L60 100L60 110L110 110L110 60L100 60L100 70L90 70L90 20L100 20L100 50L110 50L110 0L70 0L70 10L80 10L80 20L50 20L50 0L0 0z"/>
<path style="fill:#ffffff; stroke:none;" d="M50 0L50 20L80 20L80 10L70 10L70 0L50 0M10 20L10 40L0 40L0 50L10 50L10 60L0 60L0 70L10 70L10 80L20 80L20 20L10 20M90 20L90 70L100 70L100 60L110 60L110 50L100 50L100 20L90 20M30 30L30 80L80 80L80 30L30 30z"/>
<path style="fill:#000000; stroke:none;" d="M40 40L40 50L50 50L50 60L70 60L70 50L60 50L60 40L40 40M0 50L0 60L10 60L10 50L0 50z"/>
<path style="fill:#ffffff; stroke:none;" d="M90 80L90 90L60 90L60 100L90 100L90 90L100 90L100 80L90 80M20 90L20 100L30 100L30 90L20 90M40 90L40 110L60 110L60 100L50 100L50 90L40 90z"/>
</svg>
