<?xml version="1.0" standalone="yes"?>
<svg xmlns="http://www.w3.org/2000/svg" width="110" height="110">
<path style="fill:#000000; stroke:none;" d="M0 0L0 40L10 40L10 30L20 30L20 50L0 50L0 60L10 60L10 70L0 70L0 110L40 110L40 90L50 90L50 100L60 100L60 110L110 110L110 0L60 0L60 20L20 20L20 10L40 10L40 0L0 0z"/>
<path style="fill:#ffffff; stroke:none;" d="M40 0L40 10L20 10L20 20L60 20L60 0L40 0M70 10L70 20L80 20L80 10L70 10M10 30L10 40L0 40L0 50L20 50L20 30L10 30M30 30L30 80L80 80L80 30L30 30M90 30L90 40L100 40L100 30L90 30z"/>
<path style="fill:#000000; stroke:none;" d="M40 50L40 60L50 60L50 50L40 50M60 50L60 60L70 60L70 50L60 50z"/>
<path style="fill:#ffffff; stroke:none;" d="M0 60L0 70L10 70L10 60L0 60M90 80L90 90L60 90L60 100L90 100L90 90L100 90L100 80L90 80M20 90L20 100L30 100L30 90L20 90M40 90L40 110L60 110L60 100L50 100L50 90L40 90z"/>
</svg>
