<?xml version="1.0" standalone="yes"?>
<svg xmlns="http://www.w3.org/2000/svg" width="110" height="110">
<path style="fill:#000000; stroke:none;" d="M0 0L0 40L10 40L10 50L0 50L0 60L20 60L20 80L10 80L10 70L0 70L0 110L60 110L60 90L70 90L70 110L110 110L110 50L100 50L100 70L90 70L90 40L110 40L110 0L60 0L60 10L40 10L40 0L0 0z"/>
<path style="fill:#ffffff; stroke:none;" d="M40 0L40 10L60 10L60 0L40 0M20 10L20 20L40 20L40 10L20 10M80 10L80 20L90 20L90 10L80 10M30 30L30 80L80 80L80 30L30 30M0 40L0 50L10 50L10 40L0 40z"/>
<path style="fill:#000000; stroke:none;" d="M50 40L50 50L40 50L40 60L50 60L50 70L60 70L60 60L50 60L50 50L70 50L70 40L50 40z"/>
<path style="fill:#ffffff; stroke:none;" d="M90 40L90 70L100 70L100 50L110 50L110 40L90 40M0 60L0 70L10 70L10 80L20 80L20 60L0 60M30 90L30 100L50 100L50 90L30 90M60 90L60 110L70 110L70 90L60 90M80 90L80 100L90 100L90 90L80 90z"/>
</svg>
