<?xml version="1.0" standalone="yes"?>
<svg xmlns="http://www.w3.org/2000/svg" width="110" height="110">
<path style="fill:#000000; stroke:none;" d="M0 0L0 50L10 50L10 60L0 60L0 110L50 110L50 90L80 90L80 100L70 100L70 110L110 110L110 50L90 50L90 40L110 40L110 0L70 0L70 10L60 10L60 20L30 20L30 10L50 10L50 0L0 0z"/>
<path style="fill:#ffffff; stroke:none;" d="M50 0L50 10L30 10L30 20L60 20L60 10L70 10L70 0L50 0M70 10L70 20L80 20L80 10L70 10M30 30L30 80L80 80L80 30L30 30M10 40L10 50L20 50L20 40L10 40z"/>
<path style="fill:#000000; stroke:none;" d="M50 40L50 50L70 50L70 40L50 40z"/>
<path style="fill:#ffffff; stroke:none;" d="M90 40L90 50L110 50L110 40L90 40M0 50L0 60L10 60L10 50L0 50M10 60L10 70L20 70L20 60L10 60z"/>
<path style="fill:#000000; stroke:none;" d="M50 60L50 70L60 70L60 60L50 60z"/>
<path style="fill:#ffffff; stroke:none;" d="M10 80L10 90L20 90L20 100L40 100L40 90L20 90L20 80L10 80M50 90L50 110L70 110L70 100L80 100L80 90L50 90z"/>
</svg>
