<?xml version="1.0" standalone="yes"?>
<svg xmlns="http://www.w3.org/2000/svg" width="110" height="110">
<path style="fill:#000000; stroke:none;" d="M0 0L0 60L10 60L10 70L0 70L0 110L60 110L60 100L70 100L70 110L110 110L110 70L100 70L100 60L110 60L110 50L100 50L100 40L110 40L110 0L50 0L50 10L70 10L70 20L40 20L40 0L0 0z"/>
<path style="fill:#ffffff; stroke:none;" d="M40 0L40 20L70 20L70 10L50 10L50 0L40 0M20 10L20 20L30 20L30 10L20 10M90 20L90 40L100 40L100 20L90 20M30 30L30 80L80 80L80 30L30 30z"/>
<path style="fill:#000000; stroke:none;" d="M40 40L40 60L70 60L70 50L50 50L50 40L40 40z"/>
<path style="fill:#ffffff; stroke:none;" d="M100 40L100 50L110 50L110 40L100 40M10 50L10 60L20 60L20 50L10 50M90 50L90 60L100 60L100 50L90 50M0 60L0 70L10 70L10 60L0 60M100 60L100 70L110 70L110 60L100 60M10 70L10 90L20 90L20 70L10 70M90 80L90 90L70 90L70 100L90 100L90 90L100 90L100 80L90 80M30 90L30 100L40 100L40 90L30 90M50 90L50 100L60 100L60 90L50 90M60 100L60 110L70 110L70 100L60 100z"/>
</svg>
