<?xml version="1.0" standalone="yes"?>
<svg xmlns="http://www.w3.org/2000/svg" width="110" height="110">
<path style="fill:#000000; stroke:none;" d="M0 0L0 60L10 60L10 40L20 40L20 80L10 80L10 70L0 70L0 110L40 110L40 90L60 90L60 100L50 100L50 110L110 110L110 60L90 60L90 50L100 50L100 40L110 40L110 0L70 0L70 10L90 10L90 20L40 20L40 10L50 10L50 0L0 0z"/>
<path style="fill:#ffffff; stroke:none;" d="M50 0L50 10L40 10L40 20L90 20L90 10L70 10L70 0L50 0M10 20L10 30L20 30L20 20L10 20M30 30L30 80L80 80L80 30L30 30M90 30L90 40L100 40L100 30L90 30M10 40L10 60L0 60L0 70L10 70L10 80L20 80L20 40L10 40z"/>
<path style="fill:#000000; stroke:none;" d="M40 40L40 70L60 70L60 60L70 60L70 50L60 50L60 60L50 60L50 40L40 40z"/>
<path style="fill:#ffffff; stroke:none;" d="M100 40L100 50L90 50L90 60L110 60L110 40L100 40M20 90L20 100L30 100L30 90L20 90M40 90L40 110L50 110L50 100L60 100L60 90L40 90M70 90L70 100L80 100L80 90L70 90z"/>
</svg>
