<?xml version="1.0" standalone="yes"?>
<svg xmlns="http://www.w3.org/2000/svg" width="110" height="110">
<path style="fill:#000000; stroke:none;" d="M0 0L0 40L20 40L20 50L10 50L10 60L20 60L20 70L0 70L0 110L110 110L110 70L100 70L100 50L110 50L110 0L70 0L70 10L80 10L80 20L60 20L60 0L0 0z"/>
<path style="fill:#ffffff; stroke:none;" d="M60 0L60 20L80 20L80 10L70 10L70 0L60 0M30 10L30 20L40 20L40 10L30 10M90 20L90 50L100 50L100 20L90 20M30 30L30 80L80 80L80 30L30 30M0 40L0 70L20 70L20 60L10 60L10 50L20 50L20 40L0 40z"/>
<path style="fill:#000000; stroke:none;" d="M40 40L40 50L50 50L50 70L70 70L70 50L50 50L50 40L40 40z"/>
<path style="fill:#ffffff; stroke:none;" d="M100 50L100 70L110 70L110 50L100 50M90 80L90 90L100 90L100 80L90 80M40 90L40 100L50 100L50 90L40 90M70 90L70 100L80 100L80 90L70 90z"/>
</svg>
