<?xml version="1.0" standalone="yes"?>
<svg xmlns="http://www.w3.org/2000/svg" width="110" height="110">
<path style="fill:#000000; stroke:none;" d="M0 0L0 40L20 40L20 80L10 80L10 70L0 70L0 110L60 110L60 90L70 90L70 110L110 110L110 0L0 0z"/>
<path style="fill:#ffffff; stroke:none;" d="M20 10L20 20L10 20L10 30L20 30L20 20L40 20L40 10L20 10M50 10L50 20L60 20L60 10L50 10M70 10L70 20L80 20L80 10L70 10M30 30L30 80L80 80L80 30L30 30M0 40L0 50L10 50L10 60L0 60L0 70L10 70L10 80L20 80L20 40L0 40z"/>
<path style="fill:#000000; stroke:none;" d="M40 40L40 60L50 60L50 50L60 50L60 40L40 40M0 50L0 60L10 60L10 50L0 50M60 60L60 70L70 70L70 60L60 60z"/>
<path style="fill:#ffffff; stroke:none;" d="M90 60L90 70L100 70L100 60L90 60M60 90L60 110L70 110L70 90L60 90z"/>
</svg>
