<?xml version="1.0" standalone="yes"?>
<svg xmlns="http://www.w3.org/2000/svg" width="110" height="110">
<path style="fill:#000000; stroke:none;" d="M0 0L0 40L20 40L20 50L10 50L10 60L20 60L20 90L10 90L10 70L0 70L0 110L40 110L40 100L50 100L50 110L110 110L110 70L90 70L90 60L110 60L110 0L0 0z"/>
<path style="fill:#ffffff; stroke:none;" d="M20 10L20 20L10 20L10 30L20 30L20 20L40 20L40 10L20 10M60 10L60 20L70 20L70 10L60 10M30 30L30 80L80 80L80 30L30 30M0 40L0 70L10 70L10 90L20 90L20 60L10 60L10 50L20 50L20 40L0 40z"/>
<path style="fill:#000000; stroke:none;" d="M60 40L60 60L40 60L40 70L60 70L60 60L70 60L70 40L60 40z"/>
<path style="fill:#ffffff; stroke:none;" d="M90 60L90 70L110 70L110 60L90 60M90 80L90 90L50 90L50 100L90 100L90 90L100 90L100 80L90 80M30 90L30 100L40 100L40 90L30 90M40 100L40 110L50 110L50 100L40 100z"/>
</svg>
