<?xml version="1.0" standalone="yes"?>
<svg xmlns="http://www.w3.org/2000/svg" width="110" height="110">
<path style="fill:#000000; stroke:none;" d="M0 0L0 40L10 40L10 50L0 50L0 110L40 110L40 100L60 100L60 110L110 110L110 70L100 70L100 50L110 50L110 0L0 0z"/>
<path style="fill:#ffffff; stroke:none;" d="M40 10L40 20L50 20L50 10L40 10M60 10L60 20L70 20L70 10L60 10M10 20L10 40L20 40L20 20L10 20M30 30L30 80L80 80L80 30L30 30M0 40L0 50L10 50L10 40L0 40M10 50L10 70L20 70L20 50L10 50z"/>
<path style="fill:#000000; stroke:none;" d="M40 50L40 60L60 60L60 70L70 70L70 50L40 50z"/>
<path style="fill:#ffffff; stroke:none;" d="M100 50L100 70L110 70L110 50L100 50M10 80L10 90L20 90L20 80L10 80M30 90L30 100L40 100L40 90L30 90M60 90L60 100L90 100L90 90L60 90M40 100L40 110L60 110L60 100L40 100z"/>
</svg>
