<?xml version="1.0" standalone="yes"?>
<svg xmlns="http://www.w3.org/2000/svg" width="110" height="110">
<path style="fill:#000000; stroke:none;" d="M0 0L0 50L10 50L10 30L20 30L20 70L10 70L10 60L0 60L0 110L40 110L40 100L20 100L20 90L50 90L50 100L60 100L60 90L70 90L70 110L110 110L110 0L0 0z"/>
<path style="fill:#ffffff; stroke:none;" d="M50 10L50 20L60 20L60 10L50 10M90 20L90 80L100 80L100 20L90 20M10 30L10 50L0 50L0 60L10 60L10 70L20 70L20 30L10 30M30 30L30 80L80 80L80 30L30 30z"/>
<path style="fill:#000000; stroke:none;" d="M50 40L50 50L40 50L40 70L60 70L60 50L70 50L70 40L50 40z"/>
<path style="fill:#ffffff; stroke:none;" d="M10 80L10 90L20 90L20 80L10 80M20 90L20 100L40 100L40 110L70 110L70 90L60 90L60 100L50 100L50 90L20 90z"/>
</svg>
