<?xml version="1.0" standalone="yes"?>
<svg xmlns="http://www.w3.org/2000/svg" width="110" height="110">
<path style="fill:#000000; stroke:none;" d="M0 0L0 40L20 40L20 50L0 50L0 110L60 110L60 90L90 90L90 100L70 100L70 110L110 110L110 70L90 70L90 20L100 20L100 60L110 60L110 0L50 0L50 20L40 20L40 0L0 0z"/>
<path style="fill:#ffffff; stroke:none;" d="M40 0L40 20L50 20L50 0L40 0M60 10L60 20L90 20L90 10L60 10M90 20L90 70L110 70L110 60L100 60L100 20L90 20M30 30L30 80L80 80L80 30L30 30M0 40L0 50L20 50L20 40L0 40z"/>
<path style="fill:#000000; stroke:none;" d="M60 40L60 50L50 50L50 70L60 70L60 50L70 50L70 40L60 40z"/>
<path style="fill:#ffffff; stroke:none;" d="M10 70L10 80L20 80L20 70L10 70M90 80L90 90L100 90L100 80L90 80M20 90L20 100L50 100L50 90L20 90M60 90L60 110L70 110L70 100L90 100L90 90L60 90z"/>
</svg>
