<?xml version="1.0" standalone="yes"?>
<svg xmlns="http://www.w3.org/2000/svg" width="110" height="110">
<path style="fill:#000000; stroke:none;" d="M0 0L0 50L10 50L10 60L20 60L20 90L10 90L10 70L0 70L0 110L60 110L60 100L40 100L40 90L80 90L80 100L70 100L70 110L110 110L110 70L90 70L90 20L100 20L100 60L110 60L110 0L70 0L70 10L60 10L60 20L40 20L40 10L50 10L50 0L0 0z"/>
<path style="fill:#ffffff; stroke:none;" d="M50 0L50 10L40 10L40 20L60 20L60 10L70 10L70 0L50 0M70 10L70 20L80 20L80 10L70 10M10 20L10 50L20 50L20 20L10 20M90 20L90 70L110 70L110 60L100 60L100 20L90 20M30 30L30 80L80 80L80 30L30 30M0 50L0 70L10 70L10 90L20 90L20 60L10 60L10 50L0 50z"/>
<path style="fill:#000000; stroke:none;" d="M50 60L50 70L60 70L60 60L50 60z"/>
<path style="fill:#ffffff; stroke:none;" d="M40 90L40 100L60 100L60 110L70 110L70 100L80 100L80 90L40 90z"/>
</svg>
