<?xml version="1.0" standalone="yes"?>
<svg xmlns="http://www.w3.org/2000/svg" width="110" height="110">
<path style="fill:#000000; stroke:none;" d="M0 0L0 40L10 40L10 50L20 50L20 70L10 70L10 60L0 60L0 110L40 110L40 100L50 100L50 90L90 90L90 100L60 100L60 110L110 110L110 0L0 0z"/>
<path style="fill:#ffffff; stroke:none;" d="M30 10L30 20L40 20L40 10L30 10M50 10L50 20L90 20L90 10L50 10M10 30L10 40L20 40L20 30L10 30M30 30L30 80L80 80L80 30L30 30M90 30L90 40L100 40L100 30L90 30M0 40L0 60L10 60L10 70L20 70L20 50L10 50L10 40L0 40z"/>
<path style="fill:#000000; stroke:none;" d="M40 40L40 50L50 50L50 60L60 60L60 70L70 70L70 40L60 40L60 50L50 50L50 40L40 40z"/>
<path style="fill:#ffffff; stroke:none;" d="M90 50L90 90L100 90L100 50L90 50M50 90L50 100L40 100L40 110L60 110L60 100L90 100L90 90L50 90z"/>
</svg>
