<?xml version="1.0" standalone="yes"?>
<svg xmlns="http://www.w3.org/2000/svg" width="110" height="110">
<path style="fill:#000000; stroke:none;" d="M0 0L0 50L10 50L10 40L20 40L20 80L10 80L10 60L0 60L0 110L60 110L60 90L70 90L70 110L110 110L110 0L60 0L60 10L80 10L80 20L40 20L40 10L50 10L50 0L0 0z"/>
<path style="fill:#ffffff; stroke:none;" d="M50 0L50 10L40 10L40 20L80 20L80 10L60 10L60 0L50 0M20 10L20 20L30 20L30 10L20 10M30 30L30 80L80 80L80 30L30 30M90 30L90 40L100 40L100 30L90 30M10 40L10 50L0 50L0 60L10 60L10 80L20 80L20 40L10 40z"/>
<path style="fill:#000000; stroke:none;" d="M40 40L40 50L50 50L50 40L40 40M40 60L40 70L50 70L50 60L40 60M60 60L60 70L70 70L70 60L60 60z"/>
<path style="fill:#ffffff; stroke:none;" d="M40 90L40 100L50 100L50 90L40 90M60 90L60 110L70 110L70 90L60 90z"/>
</svg>
