<?xml version="1.0" standalone="yes"?>
<svg xmlns="http://www.w3.org/2000/svg" width="110" height="110">
<path style="fill:#000000; stroke:none;" d="M0 0L0 40L20 40L20 50L10 50L10 70L0 70L0 110L50 110L50 100L60 100L60 90L80 90L80 100L70 100L70 110L110 110L110 70L90 70L90 40L110 40L110 0L60 0L60 20L50 20L50 0L0 0z"/>
<path style="fill:#ffffff; stroke:none;" d="M50 0L50 20L60 20L60 0L50 0M30 10L30 20L40 20L40 10L30 10M70 10L70 20L90 20L90 10L70 10M30 30L30 80L80 80L80 30L30 30M0 40L0 70L10 70L10 50L20 50L20 40L0 40z"/>
<path style="fill:#000000; stroke:none;" d="M40 40L40 50L70 50L70 40L40 40z"/>
<path style="fill:#ffffff; stroke:none;" d="M90 40L90 70L110 70L110 40L90 40M10 70L10 90L20 90L20 100L40 100L40 90L20 90L20 70L10 70M60 90L60 100L50 100L50 110L70 110L70 100L80 100L80 90L60 90z"/>
</svg>
