<?xml version="1.0" standalone="yes"?>
<svg xmlns="http://www.w3.org/2000/svg" width="110" height="110">
<path style="fill:#000000; stroke:none;" d="M0 0L0 40L10 40L10 30L20 30L20 50L10 50L10 60L20 60L20 80L10 80L10 70L0 70L0 110L60 110L60 100L40 100L40 90L90 90L90 100L70 100L70 110L110 110L110 0L50 0L50 10L40 10L40 0L0 0z"/>
<path style="fill:#ffffff; stroke:none;" d="M40 0L40 10L50 10L50 0L40 0M30 10L30 20L40 20L40 10L30 10M50 10L50 20L80 20L80 10L50 10M10 30L10 40L0 40L0 70L10 70L10 80L20 80L20 60L10 60L10 50L20 50L20 30L10 30M30 30L30 80L80 80L80 30L30 30M90 30L90 60L100 60L100 30L90 30z"/>
<path style="fill:#000000; stroke:none;" d="M60 40L60 50L50 50L50 60L40 60L40 70L70 70L70 40L60 40z"/>
<path style="fill:#ffffff; stroke:none;" d="M40 90L40 100L60 100L60 110L70 110L70 100L90 100L90 90L40 90z"/>
</svg>
