<?xml version="1.0" standalone="yes"?>
<svg xmlns="http://www.w3.org/2000/svg" width="110" height="110">
<path style="fill:#000000; stroke:none;" d="M0 0L0 40L20 40L20 50L0 50L0 110L50 110L50 90L60 90L60 110L110 110L110 70L100 70L100 40L110 40L110 0L50 0L50 10L60 10L60 20L40 20L40 0L0 0z"/>
<path style="fill:#ffffff; stroke:none;" d="M40 0L40 20L60 20L60 10L50 10L50 0L40 0M80 10L80 20L90 20L90 10L80 10M30 30L30 80L80 80L80 30L30 30M90 30L90 40L100 40L100 30L90 30M0 40L0 50L20 50L20 40L0 40z"/>
<path style="fill:#000000; stroke:none;" d="M60 40L60 50L70 50L70 40L60 40z"/>
<path style="fill:#ffffff; stroke:none;" d="M100 40L100 70L110 70L110 40L100 40z"/>
<path style="fill:#000000; stroke:none;" d="M40 50L40 60L50 60L50 50L40 50z"/>
<path style="fill:#ffffff; stroke:none;" d="M10 60L10 80L20 80L20 60L10 60z"/>
<path style="fill:#000000; stroke:none;" d="M60 60L60 70L70 70L70 60L60 60z"/>
<path style="fill:#ffffff; stroke:none;" d="M90 70L90 90L100 90L100 70L90 70M20 90L20 100L40 100L40 90L20 90M50 90L50 110L60 110L60 90L50 90M70 90L70 100L80 100L80 90L70 90z"/>
</svg>
