<?xml version="1.0" standalone="yes"?>
<svg xmlns="http://www.w3.org/2000/svg" width="110" height="110">
<path style="fill:#000000; stroke:none;" d="M0 0L0 40L10 40L10 20L20 20L20 50L0 50L0 60L20 60L20 90L10 90L10 70L0 70L0 110L50 110L50 100L60 100L60 110L110 110L110 70L100 70L100 90L90 90L90 60L110 60L110 0L70 0L70 10L60 10L60 0L0 0z"/>
<path style="fill:#ffffff; stroke:none;" d="M60 0L60 10L70 10L70 0L60 0M30 10L30 20L60 20L60 10L30 10M70 10L70 20L80 20L80 10L70 10M10 20L10 40L0 40L0 50L20 50L20 20L10 20M90 20L90 30L100 30L100 20L90 20M30 30L30 80L80 80L80 30L30 30z"/>
<path style="fill:#000000; stroke:none;" d="M60 40L60 50L40 50L40 70L50 70L50 60L60 60L60 70L70 70L70 40L60 40z"/>
<path style="fill:#ffffff; stroke:none;" d="M0 60L0 70L10 70L10 90L20 90L20 60L0 60M90 60L90 90L100 90L100 70L110 70L110 60L90 60M40 90L40 100L50 100L50 90L40 90M70 90L70 100L90 100L90 90L70 90M50 100L50 110L60 110L60 100L50 100z"/>
</svg>
