<?xml version="1.0" standalone="yes"?>
<svg xmlns="http://www.w3.org/2000/svg" width="110" height="110">
<path style="fill:#000000; stroke:none;" d="M0 0L0 110L40 110L40 100L30 100L30 90L50 90L50 110L110 110L110 60L100 60L100 90L90 90L90 30L100 30L100 40L110 40L110 0L50 0L50 10L40 10L40 0L0 0z"/>
<path style="fill:#ffffff; stroke:none;" d="M40 0L40 10L50 10L50 0L40 0M30 10L30 20L40 20L40 10L30 10M50 10L50 20L70 20L70 10L50 10M30 30L30 80L80 80L80 30L30 30M90 30L90 90L100 90L100 60L110 60L110 40L100 40L100 30L90 30z"/>
<path style="fill:#000000; stroke:none;" d="M40 40L40 50L70 50L70 40L40 40z"/>
<path style="fill:#ffffff; stroke:none;" d="M10 50L10 70L20 70L20 50L10 50z"/>
<path style="fill:#000000; stroke:none;" d="M60 60L60 70L70 70L70 60L60 60z"/>
<path style="fill:#ffffff; stroke:none;" d="M30 90L30 100L40 100L40 110L50 110L50 90L30 90M60 90L60 100L90 100L90 90L60 90z"/>
</svg>
