<?xml version="1.0" standalone="yes"?>
<svg xmlns="http://www.w3.org/2000/svg" width="110" height="110">
<path style="fill:#000000; stroke:none;" d="M0 0L0 40L10 40L10 20L20 20L20 50L10 50L10 70L0 70L0 110L40 110L40 100L20 100L20 90L50 90L50 110L110 110L110 70L100 70L100 90L90 90L90 60L110 60L110 0L50 0L50 10L40 10L40 0L0 0z"/>
<path style="fill:#ffffff; stroke:none;" d="M40 0L40 10L50 10L50 0L40 0M30 10L30 20L40 20L40 10L30 10M50 10L50 20L60 20L60 10L50 10M10 20L10 40L0 40L0 70L10 70L10 50L20 50L20 20L10 20M90 20L90 30L100 30L100 20L90 20M30 30L30 80L80 80L80 30L30 30z"/>
<path style="fill:#000000; stroke:none;" d="M50 40L50 50L40 50L40 60L50 60L50 50L60 50L60 40L50 40z"/>
<path style="fill:#ffffff; stroke:none;" d="M90 60L90 90L100 90L100 70L110 70L110 60L90 60M10 70L10 80L20 80L20 70L10 70M20 90L20 100L40 100L40 110L50 110L50 90L20 90M80 90L80 100L90 100L90 90L80 90z"/>
</svg>
