<?xml version="1.0" standalone="yes"?>
<svg xmlns="http://www.w3.org/2000/svg" width="110" height="110">
<path style="fill:#000000; stroke:none;" d="M0 0L0 40L10 40L10 50L0 50L0 110L40 110L40 100L50 100L50 90L60 90L60 100L70 100L70 110L110 110L110 70L100 70L100 80L90 80L90 50L100 50L100 60L110 60L110 0L50 0L50 20L30 20L30 10L40 10L40 0L0 0z"/>
<path style="fill:#ffffff; stroke:none;" d="M40 0L40 10L30 10L30 20L50 20L50 0L40 0M70 10L70 20L80 20L80 10L70 10M10 30L10 40L20 40L20 30L10 30M30 30L30 80L80 80L80 30L30 30M90 30L90 40L100 40L100 30L90 30M0 40L0 50L10 50L10 40L0 40z"/>
<path style="fill:#000000; stroke:none;" d="M50 40L50 70L70 70L70 60L60 60L60 50L70 50L70 40L50 40z"/>
<path style="fill:#ffffff; stroke:none;" d="M10 50L10 60L20 60L20 50L10 50M90 50L90 80L100 80L100 70L110 70L110 60L100 60L100 50L90 50M10 70L10 80L20 80L20 70L10 70M50 90L50 100L40 100L40 110L70 110L70 100L60 100L60 90L50 90M70 90L70 100L90 100L90 90L70 90z"/>
</svg>
