<?xml version="1.0" standalone="yes"?>
<svg xmlns="http://www.w3.org/2000/svg" width="110" height="110">
<path style="fill:#000000; stroke:none;" d="M0 0L0 50L10 50L10 60L0 60L0 110L60 110L60 100L30 100L30 90L70 90L70 110L110 110L110 0L70 0L70 10L80 10L80 20L50 20L50 10L40 10L40 0L0 0z"/>
<path style="fill:#ffffff; stroke:none;" d="M40 0L40 10L50 10L50 20L80 20L80 10L70 10L70 0L40 0M20 10L20 20L30 20L30 10L20 10M90 20L90 40L100 40L100 20L90 20M10 30L10 50L20 50L20 30L10 30M30 30L30 80L80 80L80 30L30 30z"/>
<path style="fill:#000000; stroke:none;" d="M40 40L40 50L50 50L50 70L70 70L70 50L60 50L60 40L40 40z"/>
<path style="fill:#ffffff; stroke:none;" d="M0 50L0 60L10 60L10 50L0 50M90 50L90 70L100 70L100 50L90 50M10 60L10 80L20 80L20 60L10 60M90 80L90 90L100 90L100 80L90 80M30 90L30 100L60 100L60 110L70 110L70 90L30 90z"/>
</svg>
