<?xml version="1.0" standalone="yes"?>
<svg xmlns="http://www.w3.org/2000/svg" width="110" height="110">
<path style="fill:#000000; stroke:none;" d="M0 0L0 110L40 110L40 90L50 90L50 110L60 110L60 90L70 90L70 110L110 110L110 70L90 70L90 30L100 30L100 40L110 40L110 0L60 0L60 10L40 10L40 0L0 0z"/>
<path style="fill:#ffffff; stroke:none;" d="M40 0L40 10L60 10L60 0L40 0M20 10L20 20L10 20L10 30L20 30L20 20L30 20L30 10L20 10M80 10L80 20L90 20L90 10L80 10M30 30L30 80L80 80L80 30L30 30M90 30L90 70L110 70L110 40L100 40L100 30L90 30z"/>
<path style="fill:#000000; stroke:none;" d="M40 40L40 50L50 50L50 70L60 70L60 60L70 60L70 50L60 50L60 40L40 40z"/>
<path style="fill:#ffffff; stroke:none;" d="M10 50L10 80L20 80L20 50L10 50M90 80L90 90L80 90L80 100L90 100L90 90L100 90L100 80L90 80M40 90L40 110L50 110L50 90L40 90M60 90L60 110L70 110L70 90L60 90z"/>
</svg>
