<?xml version="1.0" standalone="yes"?>
<svg xmlns="http://www.w3.org/2000/svg" width="110" height="110">
<path style="fill:#000000; stroke:none;" d="M0 0L0 40L20 40L20 80L10 80L10 50L0 50L0 110L110 110L110 70L90 70L90 40L110 40L110 0L70 0L70 10L50 10L50 0L0 0z"/>
<path style="fill:#ffffff; stroke:none;" d="M50 0L50 10L70 10L70 0L50 0M20 10L20 20L10 20L10 30L20 30L20 20L50 20L50 10L20 10M70 10L70 20L90 20L90 10L70 10M30 30L30 80L80 80L80 30L30 30M0 40L0 50L10 50L10 80L20 80L20 40L0 40M90 40L90 70L110 70L110 60L100 60L100 50L110 50L110 40L90 40z"/>
<path style="fill:#000000; stroke:none;" d="M50 50L50 70L60 70L60 60L70 60L70 50L50 50M100 50L100 60L110 60L110 50L100 50z"/>
<path style="fill:#ffffff; stroke:none;" d="M90 80L90 90L100 90L100 80L90 80M20 90L20 100L50 100L50 90L20 90M70 90L70 100L80 100L80 90L70 90z"/>
</svg>
