<?xml version="1.0" standalone="yes"?>
<svg xmlns="http://www.w3.org/2000/svg" width="110" height="110">
<path style="fill:#000000; stroke:none;" d="M0 0L0 50L20 50L20 90L10 90L10 60L0 60L0 110L40 110L40 90L90 90L90 100L60 100L60 110L110 110L110 70L100 70L100 80L90 80L90 50L100 50L100 40L110 40L110 0L70 0L70 20L50 20L50 0L0 0z"/>
<path style="fill:#ffffff; stroke:none;" d="M50 0L50 20L70 20L70 0L50 0M20 10L20 20L10 20L10 30L20 30L20 20L30 20L30 10L20 10M30 30L30 80L80 80L80 30L30 30M90 30L90 40L100 40L100 30L90 30M100 40L100 50L90 50L90 80L100 80L100 70L110 70L110 40L100 40M0 50L0 60L10 60L10 90L20 90L20 50L0 50z"/>
<path style="fill:#000000; stroke:none;" d="M40 50L40 60L50 60L50 70L70 70L70 50L40 50z"/>
<path style="fill:#ffffff; stroke:none;" d="M40 90L40 110L60 110L60 100L90 100L90 90L40 90z"/>
</svg>
