<?xml version="1.0" standalone="yes"?>
<svg xmlns="http://www.w3.org/2000/svg" width="110" height="110">
<path style="fill:#000000; stroke:none;" d="M0 0L0 110L60 110L60 100L70 100L70 110L110 110L110 70L100 70L100 80L90 80L90 60L100 60L100 50L90 50L90 30L100 30L100 40L110 40L110 0L60 0L60 10L50 10L50 20L20 20L20 10L40 10L40 0L0 0z"/>
<path style="fill:#ffffff; stroke:none;" d="M40 0L40 10L20 10L20 20L50 20L50 10L60 10L60 0L40 0M70 10L70 20L80 20L80 10L70 10M10 30L10 50L20 50L20 30L10 30M30 30L30 80L80 80L80 30L30 30M90 30L90 50L100 50L100 60L90 60L90 80L100 80L100 70L110 70L110 40L100 40L100 30L90 30z"/>
<path style="fill:#000000; stroke:none;" d="M50 40L50 60L60 60L60 50L70 50L70 40L50 40z"/>
<path style="fill:#ffffff; stroke:none;" d="M10 60L10 70L20 70L20 60L10 60M20 90L20 100L30 100L30 90L20 90M40 90L40 100L50 100L50 90L40 90M60 100L60 110L70 110L70 100L60 100z"/>
</svg>
