<?xml version="1.0" standalone="yes"?>
<svg xmlns="http://www.w3.org/2000/svg" width="110" height="110">
<path style="fill:#000000; stroke:none;" d="M0 0L0 40L10 40L10 50L0 50L0 110L40 110L40 100L20 100L20 90L50 90L50 110L60 110L60 90L80 90L80 100L70 100L70 110L110 110L110 70L100 70L100 80L90 80L90 30L100 30L100 40L110 40L110 0L60 0L60 10L80 10L80 20L50 20L50 10L40 10L40 0L0 0z"/>
<path style="fill:#ffffff; stroke:none;" d="M40 0L40 10L50 10L50 20L80 20L80 10L60 10L60 0L40 0M20 10L20 20L40 20L40 10L20 10M10 30L10 40L20 40L20 30L10 30M30 30L30 80L80 80L80 30L30 30M90 30L90 80L100 80L100 70L110 70L110 60L100 60L100 50L110 50L110 40L100 40L100 30L90 30M0 40L0 50L10 50L10 40L0 40M10 50L10 60L20 60L20 50L10 50z"/>
<path style="fill:#000000; stroke:none;" d="M60 50L60 60L40 60L40 70L60 70L60 60L70 60L70 50L60 50M100 50L100 60L110 60L110 50L100 50z"/>
<path style="fill:#ffffff; stroke:none;" d="M10 80L10 90L20 90L20 80L10 80M20 90L20 100L40 100L40 110L50 110L50 90L20 90M60 90L60 110L70 110L70 100L80 100L80 90L60 90z"/>
</svg>
