<?xml version="1.0" standalone="yes"?>
<svg xmlns="http://www.w3.org/2000/svg" width="110" height="110">
<path style="fill:#000000; stroke:none;" d="M0 0L0 60L10 60L10 70L0 70L0 110L50 110L50 100L40 100L40 90L70 90L70 110L110 110L110 60L100 60L100 70L90 70L90 50L110 50L110 0L60 0L60 10L70 10L70 20L40 20L40 10L50 10L50 0L0 0z"/>
<path style="fill:#ffffff; stroke:none;" d="M50 0L50 10L40 10L40 20L70 20L70 10L60 10L60 0L50 0M20 10L20 20L30 20L30 10L20 10M90 20L90 40L100 40L100 20L90 20M10 30L10 40L20 40L20 30L10 30M30 30L30 80L80 80L80 30L30 30z"/>
<path style="fill:#000000; stroke:none;" d="M60 40L60 50L50 50L50 70L70 70L70 60L60 60L60 50L70 50L70 40L60 40z"/>
<path style="fill:#ffffff; stroke:none;" d="M90 50L90 70L100 70L100 60L110 60L110 50L90 50M0 60L0 70L10 70L10 60L0 60M40 90L40 100L50 100L50 110L70 110L70 90L40 90M80 90L80 100L90 100L90 90L80 90z"/>
</svg>
