<?xml version="1.0" standalone="yes"?>
<svg xmlns="http://www.w3.org/2000/svg" width="110" height="110">
<path style="fill:#000000; stroke:none;" d="M0 0L0 50L10 50L10 60L20 60L20 70L0 70L0 110L40 110L40 100L50 100L50 110L110 110L110 60L90 60L90 20L100 20L100 50L110 50L110 0L70 0L70 10L60 10L60 20L50 20L50 10L40 10L40 0L0 0z"/>
<path style="fill:#ffffff; stroke:none;" d="M40 0L40 10L50 10L50 20L60 20L60 10L70 10L70 0L40 0M30 10L30 20L40 20L40 10L30 10M70 10L70 20L80 20L80 10L70 10M10 20L10 50L20 50L20 20L10 20M90 20L90 60L110 60L110 50L100 50L100 20L90 20M30 30L30 80L80 80L80 30L30 30z"/>
<path style="fill:#000000; stroke:none;" d="M50 40L50 50L40 50L40 70L60 70L60 40L50 40z"/>
<path style="fill:#ffffff; stroke:none;" d="M0 50L0 70L20 70L20 60L10 60L10 50L0 50M90 80L90 90L100 90L100 80L90 80M30 90L30 100L40 100L40 90L30 90M60 90L60 100L70 100L70 90L60 90M40 100L40 110L50 110L50 100L40 100z"/>
</svg>
