<?xml version="1.0" standalone="yes"?>
<svg xmlns="http://www.w3.org/2000/svg" width="110" height="110">
<path style="fill:#000000; stroke:none;" d="M0 0L0 50L20 50L20 80L10 80L10 60L0 60L0 110L50 110L50 100L40 100L40 90L60 90L60 110L110 110L110 0L70 0L70 10L60 10L60 0L50 0L50 20L40 20L40 0L0 0z"/>
<path style="fill:#ffffff; stroke:none;" d="M40 0L40 20L50 20L50 0L40 0M60 0L60 10L70 10L70 0L60 0M20 10L20 20L10 20L10 40L20 40L20 20L30 20L30 10L20 10M80 10L80 20L90 20L90 10L80 10M30 30L30 80L80 80L80 30L30 30z"/>
<path style="fill:#000000; stroke:none;" d="M40 40L40 50L50 50L50 60L70 60L70 40L60 40L60 50L50 50L50 40L40 40z"/>
<path style="fill:#ffffff; stroke:none;" d="M0 50L0 60L10 60L10 80L20 80L20 50L0 50M90 50L90 60L100 60L100 50L90 50M90 70L90 80L100 80L100 70L90 70M40 90L40 100L50 100L50 110L60 110L60 90L40 90z"/>
</svg>
