<?xml version="1.0" standalone="yes"?>
<svg xmlns="http://www.w3.org/2000/svg" width="110" height="110">
<path style="fill:#000000; stroke:none;" d="M0 0L0 40L10 40L10 50L20 50L20 60L0 60L0 110L40 110L40 100L20 100L20 90L60 90L60 100L50 100L50 110L110 110L110 70L100 70L100 60L90 60L90 30L100 30L100 40L110 40L110 0L50 0L50 20L30 20L30 10L40 10L40 0L0 0z"/>
<path style="fill:#ffffff; stroke:none;" d="M40 0L40 10L30 10L30 20L50 20L50 0L40 0M60 10L60 20L70 20L70 10L60 10M80 10L80 20L90 20L90 10L80 10M30 30L30 80L80 80L80 30L30 30M90 30L90 60L100 60L100 70L110 70L110 40L100 40L100 30L90 30M0 40L0 60L20 60L20 50L10 50L10 40L0 40z"/>
<path style="fill:#000000; stroke:none;" d="M60 40L60 60L50 60L50 70L60 70L60 60L70 60L70 40L60 40z"/>
<path style="fill:#ffffff; stroke:none;" d="M90 70L90 90L80 90L80 100L90 100L90 90L100 90L100 70L90 70M10 80L10 90L20 90L20 80L10 80M20 90L20 100L40 100L40 110L50 110L50 100L60 100L60 90L20 90z"/>
</svg>
