<?xml version="1.0" standalone="yes"?>
<svg xmlns="http://www.w3.org/2000/svg" width="110" height="110">
<path style="fill:#000000; stroke:none;" d="M0 0L0 60L10 60L10 50L20 50L20 70L0 70L0 110L60 110L60 100L70 100L70 110L110 110L110 60L100 60L100 70L90 70L90 20L100 20L100 40L110 40L110 0L60 0L60 10L80 10L80 20L50 20L50 0L0 0z"/>
<path style="fill:#ffffff; stroke:none;" d="M50 0L50 20L80 20L80 10L60 10L60 0L50 0M30 10L30 20L40 20L40 10L30 10M10 20L10 30L20 30L20 20L10 20M90 20L90 70L100 70L100 60L110 60L110 40L100 40L100 20L90 20M30 30L30 80L80 80L80 30L30 30z"/>
<path style="fill:#000000; stroke:none;" d="M40 40L40 60L50 60L50 50L60 50L60 70L70 70L70 40L40 40z"/>
<path style="fill:#ffffff; stroke:none;" d="M10 50L10 60L0 60L0 70L20 70L20 50L10 50M90 80L90 90L80 90L80 100L90 100L90 90L100 90L100 80L90 80M50 90L50 100L60 100L60 90L50 90M60 100L60 110L70 110L70 100L60 100z"/>
</svg>
