<?xml version="1.0" standalone="yes"?>
<svg xmlns="http://www.w3.org/2000/svg" width="110" height="110">
<path style="fill:#000000; stroke:none;" d="M0 0L0 40L10 40L10 50L0 50L0 60L20 60L20 80L10 80L10 70L0 70L0 110L50 110L50 100L60 100L60 110L110 110L110 0L0 0z"/>
<path style="fill:#ffffff; stroke:none;" d="M20 10L20 20L30 20L30 10L20 10M50 10L50 20L80 20L80 10L50 10M90 20L90 30L100 30L100 20L90 20M10 30L10 40L20 40L20 30L10 30M30 30L30 80L80 80L80 30L30 30M0 40L0 50L10 50L10 40L0 40z"/>
<path style="fill:#000000; stroke:none;" d="M50 40L50 50L60 50L60 70L70 70L70 50L60 50L60 40L50 40z"/>
<path style="fill:#ffffff; stroke:none;" d="M90 40L90 60L100 60L100 40L90 40M0 60L0 70L10 70L10 80L20 80L20 60L0 60M90 80L90 90L60 90L60 100L90 100L90 90L100 90L100 80L90 80M20 90L20 100L40 100L40 90L20 90M50 100L50 110L60 110L60 100L50 100z"/>
</svg>
