<?xml version="1.0" standalone="yes"?>
<svg xmlns="http://www.w3.org/2000/svg" width="110" height="110">
<path style="fill:#000000; stroke:none;" d="M0 0L0 110L50 110L50 100L60 100L60 110L110 110L110 0L50 0L50 10L40 10L40 0L0 0z"/>
<path style="fill:#ffffff; stroke:none;" d="M40 0L40 10L50 10L50 0L40 0M20 10L20 20L40 20L40 10L20 10M60 10L60 20L70 20L70 10L60 10M80 10L80 20L90 20L90 10L80 10M30 30L30 80L80 80L80 30L30 30M10 40L10 50L20 50L20 40L10 40z"/>
<path style="fill:#000000; stroke:none;" d="M50 40L50 50L70 50L70 40L50 40z"/>
<path style="fill:#ffffff; stroke:none;" d="M90 40L90 80L100 80L100 40L90 40z"/>
<path style="fill:#000000; stroke:none;" d="M40 60L40 70L50 70L50 60L40 60M60 60L60 70L70 70L70 60L60 60z"/>
<path style="fill:#ffffff; stroke:none;" d="M10 70L10 80L20 80L20 70L10 70M40 90L40 100L50 100L50 90L40 90M60 90L60 100L90 100L90 90L60 90M50 100L50 110L60 110L60 100L50 100z"/>
</svg>
