<?xml version="1.0" standalone="yes"?>
<svg xmlns="http://www.w3.org/2000/svg" width="110" height="110">
<path style="fill:#000000; stroke:none;" d="M0 0L0 50L20 50L20 60L10 60L10 70L0 70L0 110L40 110L40 90L50 90L50 100L70 100L70 110L110 110L110 60L90 60L90 50L100 50L100 40L110 40L110 0L70 0L70 20L60 20L60 0L0 0z"/>
<path style="fill:#ffffff; stroke:none;" d="M60 0L60 20L70 20L70 0L60 0M20 10L20 20L30 20L30 10L20 10M40 10L40 20L50 20L50 10L40 10M80 10L80 20L90 20L90 10L80 10M30 30L30 80L80 80L80 30L30 30M90 30L90 40L100 40L100 30L90 30M100 40L100 50L90 50L90 60L110 60L110 40L100 40M0 50L0 70L10 70L10 60L20 60L20 50L0 50z"/>
<path style="fill:#000000; stroke:none;" d="M40 50L40 70L50 70L50 50L40 50z"/>
<path style="fill:#ffffff; stroke:none;" d="M10 70L10 80L20 80L20 70L10 70M40 90L40 110L70 110L70 100L50 100L50 90L40 90M70 90L70 100L80 100L80 90L70 90z"/>
</svg>
