<?xml version="1.0" standalone="yes"?>
<svg xmlns="http://www.w3.org/2000/svg" width="110" height="110">
<path style="fill:#000000; stroke:none;" d="M0 0L0 50L20 50L20 60L0 60L0 110L50 110L50 100L60 100L60 110L110 110L110 60L100 60L100 70L90 70L90 40L100 40L100 50L110 50L110 0L70 0L70 10L60 10L60 0L0 0z"/>
<path style="fill:#ffffff; stroke:none;" d="M60 0L60 10L70 10L70 0L60 0M30 10L30 20L40 20L40 10L30 10M10 20L10 30L20 30L20 20L10 20M30 30L30 80L80 80L80 30L30 30M90 40L90 70L100 70L100 60L110 60L110 50L100 50L100 40L90 40M0 50L0 60L20 60L20 50L0 50z"/>
<path style="fill:#000000; stroke:none;" d="M40 50L40 60L50 60L50 70L70 70L70 60L60 60L60 50L40 50z"/>
<path style="fill:#ffffff; stroke:none;" d="M10 80L10 90L20 90L20 100L30 100L30 90L20 90L20 80L10 80M60 90L60 100L80 100L80 90L60 90M50 100L50 110L60 110L60 100L50 100z"/>
</svg>
