<?xml version="1.0" standalone="yes"?>
<svg xmlns="http://www.w3.org/2000/svg" width="110" height="110">
<path style="fill:#000000; stroke:none;" d="M0 0L0 60L20 60L20 80L10 80L10 70L0 70L0 110L40 110L40 100L60 100L60 90L70 90L70 110L110 110L110 70L100 70L100 50L110 50L110 0L50 0L50 10L40 10L40 0L0 0z"/>
<path style="fill:#ffffff; stroke:none;" d="M40 0L40 10L50 10L50 0L40 0M70 10L70 20L90 20L90 40L100 40L100 20L90 20L90 10L70 10M10 30L10 50L20 50L20 30L10 30M30 30L30 80L80 80L80 30L30 30z"/>
<path style="fill:#000000; stroke:none;" d="M40 40L40 50L50 50L50 60L60 60L60 50L70 50L70 40L60 40L60 50L50 50L50 40L40 40z"/>
<path style="fill:#ffffff; stroke:none;" d="M100 50L100 70L110 70L110 50L100 50M0 60L0 70L10 70L10 80L20 80L20 60L0 60M90 70L90 80L100 80L100 70L90 70M20 90L20 100L40 100L40 90L20 90M60 90L60 100L40 100L40 110L70 110L70 90L60 90M80 90L80 100L90 100L90 90L80 90z"/>
</svg>
