<?xml version="1.0" standalone="yes"?>
<svg xmlns="http://www.w3.org/2000/svg" width="110" height="110">
<path style="fill:#000000; stroke:none;" d="M0 0L0 110L40 110L40 100L60 100L60 90L70 90L70 110L110 110L110 70L90 70L90 50L110 50L110 0L0 0z"/>
<path style="fill:#ffffff; stroke:none;" d="M20 10L20 20L10 20L10 40L20 40L20 20L50 20L50 10L20 10M60 10L60 20L70 20L70 10L60 10M80 10L80 20L90 20L90 40L100 40L100 20L90 20L90 10L80 10M30 30L30 80L80 80L80 30L30 30z"/>
<path style="fill:#000000; stroke:none;" d="M40 40L40 50L70 50L70 40L40 40z"/>
<path style="fill:#ffffff; stroke:none;" d="M10 50L10 60L20 60L20 50L10 50M90 50L90 70L110 70L110 50L90 50z"/>
<path style="fill:#000000; stroke:none;" d="M60 60L60 70L70 70L70 60L60 60z"/>
<path style="fill:#ffffff; stroke:none;" d="M10 70L10 80L20 80L20 70L10 70M90 80L90 90L100 90L100 80L90 80M60 90L60 100L40 100L40 110L70 110L70 90L60 90z"/>
</svg>
