<?xml version="1.0" standalone="yes"?>
<svg xmlns="http://www.w3.org/2000/svg" width="110" height="110">
<path style="fill:#000000; stroke:none;" d="M0 0L0 60L10 60L10 70L0 70L0 110L60 110L60 100L50 100L50 90L80 90L80 100L70 100L70 110L110 110L110 70L100 70L100 60L90 60L90 50L110 50L110 0L70 0L70 20L30 20L30 10L40 10L40 0L0 0z"/>
<path style="fill:#ffffff; stroke:none;" d="M40 0L40 10L30 10L30 20L70 20L70 0L60 0L60 10L50 10L50 0L40 0z"/>
<path style="fill:#000000; stroke:none;" d="M50 0L50 10L60 10L60 0L50 0z"/>
<path style="fill:#ffffff; stroke:none;" d="M10 20L10 40L20 40L20 20L10 20M90 20L90 40L100 40L100 20L90 20M30 30L30 80L80 80L80 30L30 30z"/>
<path style="fill:#000000; stroke:none;" d="M40 40L40 70L50 70L50 60L70 60L70 40L40 40z"/>
<path style="fill:#ffffff; stroke:none;" d="M10 50L10 60L20 60L20 50L10 50M90 50L90 60L100 60L100 70L110 70L110 50L90 50M0 60L0 70L10 70L10 60L0 60M10 70L10 80L20 80L20 70L10 70M30 90L30 100L40 100L40 90L30 90M50 90L50 100L60 100L60 110L70 110L70 100L80 100L80 90L50 90z"/>
</svg>
