<?xml version="1.0" standalone="yes"?>
<svg xmlns="http://www.w3.org/2000/svg" width="110" height="110">
<path style="fill:#000000; stroke:none;" d="M0 0L0 50L20 50L20 60L10 60L10 70L0 70L0 110L40 110L40 100L30 100L30 90L80 90L80 100L60 100L60 110L110 110L110 70L90 70L90 50L110 50L110 0L70 0L70 20L50 20L50 0L0 0z"/>
<path style="fill:#ffffff; stroke:none;" d="M50 0L50 20L70 20L70 0L50 0M20 10L20 20L10 20L10 30L20 30L20 20L30 20L30 10L20 10M80 10L80 20L90 20L90 10L80 10M30 30L30 80L80 80L80 30L30 30M90 30L90 40L100 40L100 30L90 30M0 50L0 70L10 70L10 60L20 60L20 50L0 50z"/>
<path style="fill:#000000; stroke:none;" d="M50 50L50 60L40 60L40 70L50 70L50 60L70 60L70 50L50 50z"/>
<path style="fill:#ffffff; stroke:none;" d="M90 50L90 70L110 70L110 50L90 50M10 70L10 90L20 90L20 70L10 70M90 80L90 90L100 90L100 80L90 80M30 90L30 100L40 100L40 110L60 110L60 100L80 100L80 90L30 90z"/>
</svg>
