<?xml version="1.0" standalone="yes"?>
<svg xmlns="http://www.w3.org/2000/svg" width="110" height="110">
<path style="fill:#000000; stroke:none;" d="M0 0L0 110L60 110L60 100L50 100L50 90L70 90L70 110L110 110L110 60L90 60L90 50L100 50L100 40L110 40L110 0L70 0L70 20L60 20L60 10L50 10L50 0L0 0z"/>
<path style="fill:#ffffff; stroke:none;" d="M50 0L50 10L60 10L60 20L70 20L70 0L50 0M20 10L20 20L30 20L30 10L20 10M80 10L80 20L90 20L90 40L100 40L100 20L90 20L90 10L80 10M30 30L30 80L80 80L80 30L30 30M10 40L10 50L20 50L20 40L10 40z"/>
<path style="fill:#000000; stroke:none;" d="M40 40L40 50L50 50L50 70L60 70L60 50L70 50L70 40L60 40L60 50L50 50L50 40L40 40z"/>
<path style="fill:#ffffff; stroke:none;" d="M100 40L100 50L90 50L90 60L110 60L110 40L100 40M10 70L10 80L20 80L20 70L10 70M90 70L90 90L80 90L80 100L90 100L90 90L100 90L100 70L90 70M30 90L30 100L40 100L40 90L30 90M50 90L50 100L60 100L60 110L70 110L70 90L50 90z"/>
</svg>
