<?xml version="1.0" standalone="yes"?>
<svg xmlns="http://www.w3.org/2000/svg" width="110" height="110">
<path style="fill:#000000; stroke:none;" d="M0 0L0 110L110 110L110 70L100 70L100 80L90 80L90 40L110 40L110 0L70 0L70 10L50 10L50 20L40 20L40 0L0 0z"/>
<path style="fill:#ffffff; stroke:none;" d="M40 0L40 20L50 20L50 10L70 10L70 0L40 0M70 10L70 20L80 20L80 10L70 10M10 20L10 40L20 40L20 20L10 20M90 20L90 30L100 30L100 20L90 20M30 30L30 80L80 80L80 30L30 30z"/>
<path style="fill:#000000; stroke:none;" d="M60 40L60 50L40 50L40 60L70 60L70 40L60 40z"/>
<path style="fill:#ffffff; stroke:none;" d="M90 40L90 80L100 80L100 70L110 70L110 60L100 60L100 50L110 50L110 40L90 40z"/>
<path style="fill:#000000; stroke:none;" d="M100 50L100 60L110 60L110 50L100 50z"/>
<path style="fill:#ffffff; stroke:none;" d="M10 60L10 70L20 70L20 60L10 60M20 90L20 100L30 100L30 90L20 90M50 90L50 100L90 100L90 90L50 90z"/>
</svg>
