<?xml version="1.0" standalone="yes"?>
<svg xmlns="http://www.w3.org/2000/svg" width="110" height="110">
<path style="fill:#000000; stroke:none;" d="M0 0L0 60L10 60L10 50L20 50L20 90L10 90L10 70L0 70L0 110L50 110L50 100L60 100L60 110L110 110L110 60L90 60L90 20L100 20L100 40L110 40L110 0L60 0L60 20L20 20L20 10L40 10L40 0L0 0z"/>
<path style="fill:#ffffff; stroke:none;" d="M40 0L40 10L20 10L20 20L60 20L60 0L40 0M80 10L80 20L90 20L90 10L80 10M10 20L10 30L20 30L20 20L10 20M90 20L90 60L110 60L110 40L100 40L100 20L90 20M30 30L30 80L80 80L80 30L30 30M10 50L10 60L0 60L0 70L10 70L10 90L20 90L20 50L10 50z"/>
<path style="fill:#000000; stroke:none;" d="M40 50L40 60L50 60L50 70L70 70L70 50L40 50z"/>
<path style="fill:#ffffff; stroke:none;" d="M90 70L90 80L100 80L100 70L90 70M40 90L40 100L50 100L50 90L40 90M70 90L70 100L80 100L80 90L70 90M50 100L50 110L60 110L60 100L50 100z"/>
</svg>
