<?xml version="1.0" standalone="yes"?>
<svg xmlns="http://www.w3.org/2000/svg" width="110" height="110">
<path style="fill:#000000; stroke:none;" d="M0 0L0 50L20 50L20 60L0 60L0 110L40 110L40 100L20 100L20 90L60 90L60 100L50 100L50 110L60 110L60 100L70 100L70 110L110 110L110 70L90 70L90 30L100 30L100 40L110 40L110 0L60 0L60 10L70 10L70 20L40 20L40 0L0 0z"/>
<path style="fill:#ffffff; stroke:none;" d="M40 0L40 20L70 20L70 10L60 10L60 0L40 0M10 30L10 40L20 40L20 30L10 30M30 30L30 80L80 80L80 30L30 30M90 30L90 70L110 70L110 40L100 40L100 30L90 30z"/>
<path style="fill:#000000; stroke:none;" d="M60 40L60 50L50 50L50 60L60 60L60 70L70 70L70 40L60 40z"/>
<path style="fill:#ffffff; stroke:none;" d="M0 50L0 60L20 60L20 50L0 50M10 70L10 90L20 90L20 70L10 70M90 80L90 90L70 90L70 100L90 100L90 90L100 90L100 80L90 80M20 90L20 100L40 100L40 110L50 110L50 100L60 100L60 90L20 90M60 100L60 110L70 110L70 100L60 100z"/>
</svg>
