<?xml version="1.0" standalone="yes"?>
<svg xmlns="http://www.w3.org/2000/svg" width="110" height="110">
<path style="fill:#000000; stroke:none;" d="M0 0L0 50L10 50L10 60L0 60L0 110L40 110L40 100L50 100L50 90L60 90L60 100L70 100L70 110L110 110L110 0L60 0L60 10L90 10L90 20L20 20L20 10L50 10L50 0L0 0z"/>
<path style="fill:#ffffff; stroke:none;" d="M50 0L50 10L20 10L20 20L90 20L90 10L60 10L60 0L50 0M90 20L90 60L100 60L100 20L90 20M10 30L10 40L20 40L20 30L10 30M30 30L30 80L80 80L80 30L30 30z"/>
<path style="fill:#000000; stroke:none;" d="M60 40L60 50L50 50L50 60L40 60L40 70L50 70L50 60L70 60L70 40L60 40z"/>
<path style="fill:#ffffff; stroke:none;" d="M0 50L0 60L10 60L10 50L0 50M90 70L90 90L70 90L70 100L90 100L90 90L100 90L100 70L90 70M50 90L50 100L40 100L40 110L70 110L70 100L60 100L60 90L50 90z"/>
</svg>
