<?xml version="1.0" standalone="yes"?>
<svg xmlns="http://www.w3.org/2000/svg" width="110" height="110">
<path style="fill:#000000; stroke:none;" d="M0 0L0 50L10 50L10 30L20 30L20 80L10 80L10 60L0 60L0 110L50 110L50 100L30 100L30 90L60 90L60 100L70 100L70 110L110 110L110 70L100 70L100 80L90 80L90 60L100 60L100 40L110 40L110 0L0 0z"/>
<path style="fill:#ffffff; stroke:none;" d="M40 10L40 20L60 20L60 10L40 10M70 10L70 20L90 20L90 10L70 10M10 30L10 50L0 50L0 60L10 60L10 80L20 80L20 30L10 30M30 30L30 80L80 80L80 30L30 30M90 30L90 40L100 40L100 30L90 30M100 40L100 60L90 60L90 80L100 80L100 70L110 70L110 40L100 40z"/>
<path style="fill:#000000; stroke:none;" d="M40 50L40 70L60 70L60 60L70 60L70 50L40 50z"/>
<path style="fill:#ffffff; stroke:none;" d="M30 90L30 100L50 100L50 110L70 110L70 100L60 100L60 90L30 90z"/>
</svg>
