<?xml version="1.0" standalone="yes"?>
<svg xmlns="http://www.w3.org/2000/svg" width="110" height="110">
<path style="fill:#000000; stroke:none;" d="M0 0L0 110L60 110L60 90L70 90L70 110L110 110L110 70L100 70L100 60L110 60L110 0L70 0L70 10L60 10L60 20L50 20L50 0L0 0z"/>
<path style="fill:#ffffff; stroke:none;" d="M50 0L50 20L60 20L60 10L70 10L70 0L50 0M20 10L20 20L40 20L40 10L20 10M70 10L70 20L80 20L80 10L70 10M30 30L30 80L80 80L80 30L30 30M10 40L10 60L20 60L20 40L10 40z"/>
<path style="fill:#000000; stroke:none;" d="M40 40L40 70L70 70L70 40L40 40z"/>
<path style="fill:#ffffff; stroke:none;" d="M90 40L90 60L100 60L100 40L90 40M100 60L100 70L110 70L110 60L100 60M90 70L90 90L80 90L80 100L90 100L90 90L100 90L100 70L90 70M20 90L20 100L30 100L30 90L20 90M60 90L60 110L70 110L70 90L60 90z"/>
</svg>
