<?xml version="1.0" standalone="yes"?>
<svg xmlns="http://www.w3.org/2000/svg" width="110" height="110">
<path style="fill:#000000; stroke:none;" d="M0 0L0 40L20 40L20 50L0 50L0 110L60 110L60 90L70 90L70 110L110 110L110 70L90 70L90 60L110 60L110 0L70 0L70 10L90 10L90 20L50 20L50 10L60 10L60 0L50 0L50 10L40 10L40 0L0 0z"/>
<path style="fill:#ffffff; stroke:none;" d="M40 0L40 10L50 10L50 0L40 0M60 0L60 10L50 10L50 20L90 20L90 10L70 10L70 0L60 0M30 10L30 20L40 20L40 10L30 10M10 20L10 30L20 30L20 20L10 20M90 20L90 30L100 30L100 20L90 20M30 30L30 80L80 80L80 30L30 30M0 40L0 50L20 50L20 40L0 40z"/>
<path style="fill:#000000; stroke:none;" d="M50 40L50 50L40 50L40 70L50 70L50 50L60 50L60 60L70 60L70 40L50 40z"/>
<path style="fill:#ffffff; stroke:none;" d="M90 40L90 50L100 50L100 40L90 40M90 60L90 70L110 70L110 60L90 60M20 90L20 100L50 100L50 90L20 90M60 90L60 110L70 110L70 90L60 90z"/>
</svg>
