<?xml version="1.0" standalone="yes"?>
<svg xmlns="http://www.w3.org/2000/svg" width="110" height="110">
<path style="fill:#000000; stroke:none;" d="M0 0L0 50L10 50L10 20L20 20L20 60L10 60L10 70L0 70L0 110L60 110L60 90L70 90L70 110L110 110L110 70L100 70L100 80L90 80L90 60L110 60L110 50L90 50L90 40L110 40L110 0L70 0L70 10L60 10L60 20L20 20L20 10L50 10L50 0L0 0z"/>
<path style="fill:#ffffff; stroke:none;" d="M50 0L50 10L20 10L20 20L60 20L60 10L70 10L70 0L50 0M70 10L70 20L80 20L80 10L70 10M10 20L10 50L0 50L0 70L10 70L10 60L20 60L20 20L10 20M90 20L90 30L100 30L100 20L90 20M30 30L30 80L80 80L80 30L30 30z"/>
<path style="fill:#000000; stroke:none;" d="M50 40L50 50L60 50L60 60L40 60L40 70L60 70L60 60L70 60L70 40L50 40z"/>
<path style="fill:#ffffff; stroke:none;" d="M90 40L90 50L110 50L110 40L90 40M90 60L90 80L100 80L100 70L110 70L110 60L90 60M30 90L30 100L50 100L50 90L30 90M60 90L60 110L70 110L70 90L60 90z"/>
</svg>
