<?xml version="1.0" standalone="yes"?>
<svg xmlns="http://www.w3.org/2000/svg" width="110" height="110">
<path style="fill:#000000; stroke:none;" d="M0 0L0 50L10 50L10 20L20 20L20 70L0 70L0 110L40 110L40 100L50 100L50 110L110 110L110 60L100 60L100 50L110 50L110 0L70 0L70 20L60 20L60 10L50 10L50 0L0 0z"/>
<path style="fill:#ffffff; stroke:none;" d="M50 0L50 10L60 10L60 20L70 20L70 0L50 0M30 10L30 20L40 20L40 10L30 10M80 10L80 20L90 20L90 10L80 10M10 20L10 50L0 50L0 70L20 70L20 20L10 20M30 30L30 80L80 80L80 30L30 30M100 50L100 60L110 60L110 50L100 50z"/>
<path style="fill:#000000; stroke:none;" d="M40 60L40 70L70 70L70 60L40 60z"/>
<path style="fill:#ffffff; stroke:none;" d="M90 80L90 90L100 90L100 80L90 80M30 90L30 100L40 100L40 90L30 90M50 90L50 100L80 100L80 90L50 90M40 100L40 110L50 110L50 100L40 100z"/>
</svg>
