<?xml version="1.0" standalone="yes"?>
<svg xmlns="http://www.w3.org/2000/svg" width="110" height="110">
<path style="fill:#000000; stroke:none;" d="M0 0L0 40L20 40L20 50L0 50L0 110L110 110L110 70L100 70L100 60L110 60L110 0L0 0z"/>
<path style="fill:#ffffff; stroke:none;" d="M70 10L70 20L90 20L90 40L100 40L100 20L90 20L90 10L70 10M30 30L30 80L80 80L80 30L30 30M0 40L0 50L20 50L20 40L0 40z"/>
<path style="fill:#000000; stroke:none;" d="M40 40L40 50L60 50L60 40L40 40M40 60L40 70L70 70L70 60L40 60z"/>
<path style="fill:#ffffff; stroke:none;" d="M100 60L100 70L110 70L110 60L100 60M10 70L10 80L20 80L20 70L10 70M90 70L90 80L100 80L100 70L90 70M20 90L20 100L30 100L30 90L20 90M50 90L50 100L80 100L80 90L50 90z"/>
</svg>
