<?xml version="1.0" standalone="yes"?>
<svg xmlns="http://www.w3.org/2000/svg" width="110" height="110">
<path style="fill:#000000; stroke:none;" d="M0 0L0 50L10 50L10 20L20 20L20 60L0 60L0 110L110 110L110 70L100 70L100 80L90 80L90 60L110 60L110 0L50 0L50 10L40 10L40 0L0 0z"/>
<path style="fill:#ffffff; stroke:none;" d="M40 0L40 10L50 10L50 0L40 0M20 10L20 20L40 20L40 10L20 10M50 10L50 20L60 20L60 10L50 10M10 20L10 50L0 50L0 60L20 60L20 20L10 20M30 30L30 80L80 80L80 30L30 30M90 30L90 50L100 50L100 30L90 30z"/>
<path style="fill:#000000; stroke:none;" d="M50 40L50 60L60 60L60 50L70 50L70 40L50 40z"/>
<path style="fill:#ffffff; stroke:none;" d="M90 60L90 80L100 80L100 70L110 70L110 60L90 60M10 70L10 80L20 80L20 70L10 70M20 90L20 100L40 100L40 90L20 90M50 90L50 100L90 100L90 90L50 90z"/>
</svg>
