<?xml version="1.0" standalone="yes"?>
<svg xmlns="http://www.w3.org/2000/svg" width="110" height="110">
<path style="fill:#000000; stroke:none;" d="M0 0L0 50L10 50L10 40L20 40L20 60L10 60L10 70L0 70L0 110L40 110L40 100L30 100L30 90L60 90L60 100L50 100L50 110L110 110L110 60L100 60L100 70L90 70L90 20L100 20L100 50L110 50L110 0L60 0L60 10L80 10L80 20L40 20L40 10L50 10L50 0L0 0z"/>
<path style="fill:#ffffff; stroke:none;" d="M50 0L50 10L40 10L40 20L80 20L80 10L60 10L60 0L50 0M90 20L90 70L100 70L100 60L110 60L110 50L100 50L100 20L90 20M30 30L30 80L80 80L80 30L30 30M10 40L10 50L0 50L0 70L10 70L10 60L20 60L20 40L10 40z"/>
<path style="fill:#000000; stroke:none;" d="M50 40L50 60L60 60L60 70L70 70L70 50L60 50L60 40L50 40z"/>
<path style="fill:#ffffff; stroke:none;" d="M30 90L30 100L40 100L40 110L50 110L50 100L60 100L60 90L30 90M70 90L70 100L80 100L80 90L70 90z"/>
</svg>
