<?xml version="1.0" standalone="yes"?>
<svg xmlns="http://www.w3.org/2000/svg" width="110" height="110">
<path style="fill:#000000; stroke:none;" d="M0 0L0 40L20 40L20 70L10 70L10 60L0 60L0 110L60 110L60 100L70 100L70 110L110 110L110 70L100 70L100 60L110 60L110 0L70 0L70 10L90 10L90 20L60 20L60 0L50 0L50 20L20 20L20 10L40 10L40 0L0 0z"/>
<path style="fill:#ffffff; stroke:none;" d="M40 0L40 10L20 10L20 20L50 20L50 0L40 0M60 0L60 20L90 20L90 10L70 10L70 0L60 0M90 20L90 30L100 30L100 20L90 20M30 30L30 80L80 80L80 30L30 30M0 40L0 60L10 60L10 70L20 70L20 40L0 40z"/>
<path style="fill:#000000; stroke:none;" d="M40 40L40 70L70 70L70 60L50 60L50 40L40 40M60 40L60 50L70 50L70 40L60 40z"/>
<path style="fill:#ffffff; stroke:none;" d="M90 50L90 60L100 60L100 50L90 50M100 60L100 70L110 70L110 60L100 60M20 90L20 100L30 100L30 90L20 90M60 100L60 110L70 110L70 100L60 100z"/>
</svg>
