<?xml version="1.0" standalone="yes"?>
<svg xmlns="http://www.w3.org/2000/svg" width="110" height="110">
<path style="fill:#000000; stroke:none;" d="M0 0L0 40L10 40L10 60L20 60L20 70L0 70L0 110L40 110L40 90L50 90L50 100L70 100L70 110L110 110L110 50L90 50L90 40L110 40L110 0L0 0z"/>
<path style="fill:#ffffff; stroke:none;" d="M60 10L60 20L90 20L90 10L60 10M10 30L10 40L20 40L20 30L10 30M30 30L30 80L80 80L80 30L30 30M0 40L0 70L20 70L20 60L10 60L10 40L0 40z"/>
<path style="fill:#000000; stroke:none;" d="M40 40L40 50L50 50L50 70L60 70L60 50L70 50L70 40L40 40z"/>
<path style="fill:#ffffff; stroke:none;" d="M90 40L90 50L110 50L110 40L90 40M90 60L90 70L100 70L100 60L90 60M10 80L10 90L20 90L20 80L10 80M90 80L90 90L70 90L70 100L90 100L90 90L100 90L100 80L90 80M40 90L40 110L70 110L70 100L50 100L50 90L40 90z"/>
</svg>
