<?xml version="1.0" standalone="yes"?>
<svg xmlns="http://www.w3.org/2000/svg" width="110" height="110">
<path style="fill:#000000; stroke:none;" d="M0 0L0 40L10 40L10 50L20 50L20 60L10 60L10 70L0 70L0 110L40 110L40 100L20 100L20 90L50 90L50 110L110 110L110 70L100 70L100 60L110 60L110 0L0 0z"/>
<path style="fill:#ffffff; stroke:none;" d="M20 10L20 20L30 20L30 10L20 10M50 10L50 20L60 20L60 10L50 10M70 10L70 20L80 20L80 10L70 10M90 20L90 40L100 40L100 20L90 20M30 30L30 80L80 80L80 30L30 30M0 40L0 70L10 70L10 60L20 60L20 50L10 50L10 40L0 40z"/>
<path style="fill:#000000; stroke:none;" d="M50 40L50 50L60 50L60 60L50 60L50 70L70 70L70 50L60 50L60 40L50 40z"/>
<path style="fill:#ffffff; stroke:none;" d="M90 50L90 60L100 60L100 50L90 50M100 60L100 70L110 70L110 60L100 60M10 70L10 80L20 80L20 70L10 70M90 70L90 80L100 80L100 70L90 70M20 90L20 100L40 100L40 110L50 110L50 90L20 90M60 90L60 100L90 100L90 90L60 90z"/>
</svg>
