<?xml version="1.0" standalone="yes"?>
<svg xmlns="http://www.w3.org/2000/svg" width="110" height="110">
<path style="fill:#000000; stroke:none;" d="M0 0L0 40L10 40L10 70L0 70L0 110L40 110L40 90L50 90L50 110L110 110L110 70L100 70L100 60L90 60L90 40L100 40L100 50L110 50L110 0L0 0z"/>
<path style="fill:#ffffff; stroke:none;" d="M40 10L40 20L80 20L80 10L40 10M10 20L10 40L20 40L20 20L10 20M30 30L30 80L80 80L80 30L30 30M0 40L0 70L10 70L10 40L0 40M90 40L90 60L100 60L100 70L110 70L110 50L100 50L100 40L90 40z"/>
<path style="fill:#000000; stroke:none;" d="M60 50L60 60L40 60L40 70L60 70L60 60L70 60L70 50L60 50z"/>
<path style="fill:#ffffff; stroke:none;" d="M90 70L90 90L100 90L100 70L90 70M10 80L10 90L20 90L20 80L10 80M40 90L40 110L50 110L50 90L40 90z"/>
</svg>
