<?xml version="1.0" standalone="yes"?>
<svg xmlns="http://www.w3.org/2000/svg" width="110" height="110">
<path style="fill:#000000; stroke:none;" d="M0 0L0 50L20 50L20 80L10 80L10 60L0 60L0 110L40 110L40 100L50 100L50 110L110 110L110 0L0 0z"/>
<path style="fill:#ffffff; stroke:none;" d="M30 10L30 20L80 20L80 10L30 10M10 20L10 40L20 40L20 20L10 20M30 30L30 80L80 80L80 30L30 30M90 30L90 40L100 40L100 30L90 30z"/>
<path style="fill:#000000; stroke:none;" d="M40 40L40 50L50 50L50 60L40 60L40 70L70 70L70 50L60 50L60 40L40 40z"/>
<path style="fill:#ffffff; stroke:none;" d="M0 50L0 60L10 60L10 80L20 80L20 50L0 50M90 70L90 90L50 90L50 100L90 100L90 90L100 90L100 70L90 70M20 90L20 100L40 100L40 90L20 90M40 100L40 110L50 110L50 100L40 100z"/>
</svg>
