<?xml version="1.0" standalone="yes"?>
<svg xmlns="http://www.w3.org/2000/svg" width="110" height="110">
<path style="fill:#000000; stroke:none;" d="M0 0L0 50L10 50L10 70L0 70L0 110L50 110L50 90L80 90L80 100L60 100L60 110L110 110L110 60L100 60L100 70L90 70L90 50L100 50L100 40L110 40L110 0L70 0L70 10L40 10L40 0L0 0z"/>
<path style="fill:#ffffff; stroke:none;" d="M40 0L40 10L70 10L70 0L40 0M20 10L20 20L10 20L10 30L20 30L20 20L40 20L40 10L20 10M80 10L80 20L90 20L90 40L100 40L100 20L90 20L90 10L80 10M30 30L30 80L80 80L80 30L30 30M10 40L10 50L20 50L20 40L10 40z"/>
<path style="fill:#000000; stroke:none;" d="M40 40L40 60L50 60L50 70L60 70L60 60L50 60L50 40L40 40M60 40L60 50L70 50L70 40L60 40z"/>
<path style="fill:#ffffff; stroke:none;" d="M100 40L100 50L90 50L90 70L100 70L100 60L110 60L110 40L100 40M0 50L0 70L10 70L10 50L0 50M10 80L10 90L20 90L20 80L10 80M90 80L90 90L100 90L100 80L90 80M50 90L50 110L60 110L60 100L80 100L80 90L50 90z"/>
</svg>
