<?xml version="1.0" standalone="yes"?>
<svg xmlns="http://www.w3.org/2000/svg" width="110" height="110">
<path style="fill:#000000; stroke:none;" d="M0 0L0 110L60 110L60 90L70 90L70 110L110 110L110 50L90 50L90 20L100 20L100 40L110 40L110 0L70 0L70 10L60 10L60 0L50 0L50 10L60 10L60 20L40 20L40 0L0 0z"/>
<path style="fill:#ffffff; stroke:none;" d="M40 0L40 20L60 20L60 10L50 10L50 0L40 0M60 0L60 10L70 10L70 0L60 0M90 20L90 50L110 50L110 40L100 40L100 20L90 20M30 30L30 80L80 80L80 30L30 30z"/>
<path style="fill:#000000; stroke:none;" d="M40 40L40 70L60 70L60 50L70 50L70 40L40 40z"/>
<path style="fill:#ffffff; stroke:none;" d="M10 50L10 60L20 60L20 50L10 50M90 60L90 80L100 80L100 60L90 60M10 70L10 90L20 90L20 70L10 70M60 90L60 110L70 110L70 90L60 90z"/>
</svg>
