<?xml version="1.0" standalone="yes"?>
<svg xmlns="http://www.w3.org/2000/svg" width="110" height="110">
<path style="fill:#000000; stroke:none;" d="M0 0L0 110L40 110L40 90L60 90L60 100L50 100L50 110L110 110L110 70L100 70L100 60L110 60L110 0L70 0L70 10L90 10L90 20L40 20L40 10L50 10L50 0L0 0z"/>
<path style="fill:#ffffff; stroke:none;" d="M50 0L50 10L40 10L40 20L90 20L90 10L70 10L70 0L50 0M90 20L90 30L100 30L100 20L90 20M30 30L30 80L80 80L80 30L30 30z"/>
<path style="fill:#000000; stroke:none;" d="M50 50L50 60L40 60L40 70L60 70L60 60L70 60L70 50L50 50z"/>
<path style="fill:#ffffff; stroke:none;" d="M90 50L90 60L100 60L100 50L90 50M10 60L10 70L20 70L20 60L10 60M100 60L100 70L110 70L110 60L100 60M90 70L90 80L100 80L100 70L90 70M10 80L10 90L20 90L20 80L10 80M40 90L40 110L50 110L50 100L60 100L60 90L40 90M80 90L80 100L90 100L90 90L80 90z"/>
</svg>
