<?xml version="1.0" standalone="yes"?>
<svg xmlns="http://www.w3.org/2000/svg" width="110" height="110">
<path style="fill:#000000; stroke:none;" d="M0 0L0 110L50 110L50 90L70 90L70 110L110 110L110 70L100 70L100 90L90 90L90 60L110 60L110 50L90 50L90 30L100 30L100 40L110 40L110 0L0 0z"/>
<path style="fill:#ffffff; stroke:none;" d="M20 10L20 20L10 20L10 40L20 40L20 20L50 20L50 10L20 10M60 10L60 20L70 20L70 10L60 10M80 10L80 20L90 20L90 10L80 10M30 30L30 80L80 80L80 30L30 30M90 30L90 50L110 50L110 40L100 40L100 30L90 30z"/>
<path style="fill:#000000; stroke:none;" d="M40 40L40 70L70 70L70 50L60 50L60 40L40 40z"/>
<path style="fill:#ffffff; stroke:none;" d="M10 50L10 60L20 60L20 50L10 50M90 60L90 90L100 90L100 70L110 70L110 60L90 60M50 90L50 110L70 110L70 90L50 90M80 90L80 100L90 100L90 90L80 90z"/>
</svg>
