<?xml version="1.0" standalone="yes"?>
<svg xmlns="http://www.w3.org/2000/svg" width="110" height="110">
<path style="fill:#000000; stroke:none;" d="M0 0L0 40L10 40L10 30L20 30L20 50L0 50L0 110L110 110L110 50L90 50L90 30L100 30L100 40L110 40L110 0L0 0z"/>
<path style="fill:#ffffff; stroke:none;" d="M40 10L40 20L70 20L70 10L40 10M10 30L10 40L0 40L0 50L20 50L20 30L10 30M30 30L30 80L80 80L80 30L30 30M90 30L90 50L110 50L110 40L100 40L100 30L90 30z"/>
<path style="fill:#000000; stroke:none;" d="M40 40L40 50L70 50L70 40L40 40M40 60L40 70L60 70L60 60L40 60z"/>
<path style="fill:#ffffff; stroke:none;" d="M30 90L30 100L70 100L70 90L30 90z"/>
</svg>
