<?xml version="1.0" standalone="yes"?>
<svg xmlns="http://www.w3.org/2000/svg" width="110" height="110">
<path style="fill:#000000; stroke:none;" d="M0 0L0 60L10 60L10 50L20 50L20 80L10 80L10 70L0 70L0 110L60 110L60 90L70 90L70 110L110 110L110 0L70 0L70 20L50 20L50 0L0 0z"/>
<path style="fill:#ffffff; stroke:none;" d="M50 0L50 20L70 20L70 0L50 0M20 10L20 20L40 20L40 10L20 10M80 10L80 20L90 20L90 60L100 60L100 20L90 20L90 10L80 10M30 30L30 80L80 80L80 30L30 30M10 50L10 60L0 60L0 70L10 70L10 80L20 80L20 50L10 50z"/>
<path style="fill:#000000; stroke:none;" d="M50 50L50 60L60 60L60 70L70 70L70 60L60 60L60 50L50 50z"/>
<path style="fill:#ffffff; stroke:none;" d="M90 70L90 80L100 80L100 70L90 70M20 90L20 100L40 100L40 90L20 90M60 90L60 110L70 110L70 90L60 90z"/>
</svg>
