<?xml version="1.0" standalone="yes"?>
<svg xmlns="http://www.w3.org/2000/svg" width="110" height="110">
<path style="fill:#000000; stroke:none;" d="M0 0L0 40L20 40L20 50L0 50L0 60L20 60L20 70L0 70L0 110L40 110L40 100L50 100L50 110L110 110L110 70L100 70L100 40L110 40L110 0L50 0L50 10L40 10L40 0L0 0z"/>
<path style="fill:#ffffff; stroke:none;" d="M40 0L40 10L50 10L50 0L40 0M30 10L30 20L40 20L40 10L30 10M10 20L10 30L20 30L20 20L10 20M30 30L30 80L80 80L80 30L30 30M90 30L90 40L100 40L100 30L90 30M0 40L0 50L20 50L20 40L0 40M100 40L100 70L110 70L110 40L100 40z"/>
<path style="fill:#000000; stroke:none;" d="M50 50L50 70L70 70L70 50L50 50z"/>
<path style="fill:#ffffff; stroke:none;" d="M0 60L0 70L20 70L20 60L0 60M10 80L10 90L20 90L20 100L30 100L30 90L20 90L20 80L10 80M60 90L60 100L80 100L80 90L60 90M40 100L40 110L50 110L50 100L40 100z"/>
</svg>
