<?xml version="1.0" standalone="yes"?>
<svg xmlns="http://www.w3.org/2000/svg" width="110" height="110">
<path style="fill:#000000; stroke:none;" d="M0 0L0 40L10 40L10 30L20 30L20 60L10 60L10 50L0 50L0 110L50 110L50 100L30 100L30 90L60 90L60 110L110 110L110 70L100 70L100 90L90 90L90 20L100 20L100 50L110 50L110 0L60 0L60 10L50 10L50 0L0 0z"/>
<path style="fill:#ffffff; stroke:none;" d="M50 0L50 10L60 10L60 0L50 0M20 10L20 20L30 20L30 10L20 10M40 10L40 20L50 20L50 10L40 10M60 10L60 20L90 20L90 10L60 10M90 20L90 90L100 90L100 70L110 70L110 50L100 50L100 20L90 20M10 30L10 40L0 40L0 50L10 50L10 60L20 60L20 30L10 30M30 30L30 80L80 80L80 30L30 30z"/>
<path style="fill:#000000; stroke:none;" d="M60 40L60 50L40 50L40 70L50 70L50 60L60 60L60 70L70 70L70 60L60 60L60 50L70 50L70 40L60 40z"/>
<path style="fill:#ffffff; stroke:none;" d="M10 80L10 90L20 90L20 80L10 80M30 90L30 100L50 100L50 110L60 110L60 90L30 90M70 90L70 100L80 100L80 90L70 90z"/>
</svg>
