<?xml version="1.0" standalone="yes"?>
<svg xmlns="http://www.w3.org/2000/svg" width="110" height="110">
<path style="fill:#000000; stroke:none;" d="M0 0L0 110L50 110L50 100L60 100L60 110L110 110L110 70L100 70L100 40L110 40L110 0L70 0L70 10L60 10L60 0L50 0L50 10L40 10L40 0L0 0z"/>
<path style="fill:#ffffff; stroke:none;" d="M40 0L40 10L50 10L50 0L40 0M60 0L60 10L70 10L70 0L60 0M20 10L20 20L40 20L40 10L20 10M50 10L50 20L60 20L60 10L50 10M80 10L80 20L90 20L90 40L100 40L100 20L90 20L90 10L80 10M30 30L30 80L80 80L80 30L30 30z"/>
<path style="fill:#000000; stroke:none;" d="M50 40L50 70L60 70L60 60L70 60L70 40L50 40z"/>
<path style="fill:#ffffff; stroke:none;" d="M100 40L100 70L110 70L110 40L100 40M10 60L10 90L20 90L20 60L10 60M90 80L90 90L70 90L70 100L90 100L90 90L100 90L100 80L90 80M30 90L30 100L50 100L50 90L30 90M50 100L50 110L60 110L60 100L50 100z"/>
</svg>
