<?xml version="1.0" standalone="yes"?>
<svg xmlns="http://www.w3.org/2000/svg" width="110" height="110">
<path style="fill:#000000; stroke:none;" d="M0 0L0 40L10 40L10 50L0 50L0 60L20 60L20 80L10 80L10 70L0 70L0 110L40 110L40 90L50 90L50 110L60 110L60 100L70 100L70 110L110 110L110 70L100 70L100 50L110 50L110 0L70 0L70 20L40 20L40 10L60 10L60 0L0 0z"/>
<path style="fill:#ffffff; stroke:none;" d="M60 0L60 10L40 10L40 20L70 20L70 0L60 0M20 10L20 20L10 20L10 40L20 40L20 20L30 20L30 10L20 10M90 20L90 50L100 50L100 20L90 20M30 30L30 80L80 80L80 30L30 30M0 40L0 50L10 50L10 40L0 40z"/>
<path style="fill:#000000; stroke:none;" d="M50 50L50 60L40 60L40 70L50 70L50 60L60 60L60 70L70 70L70 50L50 50z"/>
<path style="fill:#ffffff; stroke:none;" d="M100 50L100 70L110 70L110 50L100 50M0 60L0 70L10 70L10 80L20 80L20 60L0 60M40 90L40 110L50 110L50 90L40 90M80 90L80 100L90 100L90 90L80 90M60 100L60 110L70 110L70 100L60 100z"/>
</svg>
