<?xml version="1.0" standalone="yes"?>
<svg xmlns="http://www.w3.org/2000/svg" width="110" height="110">
<path style="fill:#000000; stroke:none;" d="M0 0L0 40L10 40L10 20L20 20L20 60L0 60L0 110L60 110L60 90L70 90L70 110L110 110L110 70L100 70L100 60L90 60L90 20L100 20L100 50L110 50L110 0L0 0z"/>
<path style="fill:#ffffff; stroke:none;" d="M30 10L30 20L40 20L40 10L30 10M50 10L50 20L70 20L70 10L50 10M80 10L80 20L90 20L90 10L80 10M10 20L10 40L0 40L0 60L20 60L20 20L10 20M90 20L90 60L100 60L100 70L110 70L110 50L100 50L100 20L90 20M30 30L30 80L80 80L80 30L30 30z"/>
<path style="fill:#000000; stroke:none;" d="M40 40L40 50L50 50L50 40L40 40M60 40L60 70L70 70L70 40L60 40M40 60L40 70L50 70L50 60L40 60z"/>
<path style="fill:#ffffff; stroke:none;" d="M10 70L10 80L20 80L20 70L10 70M90 70L90 80L100 80L100 70L90 70M30 90L30 100L40 100L40 90L30 90M60 90L60 110L70 110L70 90L60 90z"/>
</svg>
