<?xml version="1.0" standalone="yes"?>
<svg xmlns="http://www.w3.org/2000/svg" width="110" height="110">
<path style="fill:#000000; stroke:none;" d="M0 0L0 60L20 60L20 90L10 90L10 70L0 70L0 110L110 110L110 70L100 70L100 90L90 90L90 60L110 60L110 50L90 50L90 20L100 20L100 40L110 40L110 0L70 0L70 20L50 20L50 0L0 0z"/>
<path style="fill:#ffffff; stroke:none;" d="M50 0L50 20L70 20L70 0L50 0M20 10L20 20L30 20L30 10L20 10M80 10L80 20L90 20L90 10L80 10M90 20L90 50L110 50L110 40L100 40L100 20L90 20M10 30L10 40L20 40L20 30L10 30M30 30L30 80L80 80L80 30L30 30z"/>
<path style="fill:#000000; stroke:none;" d="M40 40L40 70L50 70L50 60L60 60L60 70L70 70L70 60L60 60L60 50L50 50L50 40L40 40z"/>
<path style="fill:#ffffff; stroke:none;" d="M0 60L0 70L10 70L10 90L20 90L20 60L0 60M90 60L90 90L100 90L100 70L110 70L110 60L90 60z"/>
</svg>
