<?xml version="1.0" standalone="yes"?>
<svg xmlns="http://www.w3.org/2000/svg" width="110" height="110">
<path style="fill:#000000; stroke:none;" d="M0 0L0 60L20 60L20 80L10 80L10 70L0 70L0 110L40 110L40 90L50 90L50 110L60 110L60 90L80 90L80 100L70 100L70 110L110 110L110 60L100 60L100 80L90 80L90 50L100 50L100 40L110 40L110 0L60 0L60 10L50 10L50 0L0 0z"/>
<path style="fill:#ffffff; stroke:none;" d="M50 0L50 10L60 10L60 0L50 0M20 10L20 20L30 20L30 10L20 10M40 10L40 20L50 20L50 10L40 10M90 20L90 40L100 40L100 20L90 20M10 30L10 50L20 50L20 30L10 30M30 30L30 80L80 80L80 30L30 30z"/>
<path style="fill:#000000; stroke:none;" d="M40 40L40 60L50 60L50 70L60 70L60 60L70 60L70 40L60 40L60 50L50 50L50 40L40 40z"/>
<path style="fill:#ffffff; stroke:none;" d="M100 40L100 50L90 50L90 80L100 80L100 60L110 60L110 40L100 40M0 60L0 70L10 70L10 80L20 80L20 60L0 60M40 90L40 110L50 110L50 90L40 90M60 90L60 110L70 110L70 100L80 100L80 90L60 90z"/>
</svg>
