<?xml version="1.0" standalone="yes"?>
<svg xmlns="http://www.w3.org/2000/svg" width="110" height="110">
<path style="fill:#000000; stroke:none;" d="M0 0L0 50L20 50L20 60L0 60L0 110L40 110L40 100L60 100L60 90L90 90L90 100L70 100L70 110L110 110L110 0L60 0L60 10L90 10L90 20L30 20L30 10L50 10L50 0L0 0z"/>
<path style="fill:#ffffff; stroke:none;" d="M50 0L50 10L30 10L30 20L90 20L90 10L60 10L60 0L50 0M10 30L10 40L20 40L20 30L10 30M30 30L30 80L80 80L80 30L30 30z"/>
<path style="fill:#000000; stroke:none;" d="M50 40L50 50L70 50L70 40L50 40z"/>
<path style="fill:#ffffff; stroke:none;" d="M0 50L0 60L20 60L20 50L0 50M90 50L90 60L100 60L100 50L90 50M10 70L10 80L20 80L20 70L10 70M20 90L20 100L40 100L40 90L20 90M60 90L60 100L40 100L40 110L70 110L70 100L90 100L90 90L60 90z"/>
</svg>
