<?xml version="1.0" standalone="yes"?>
<svg xmlns="http://www.w3.org/2000/svg" width="110" height="110">
<path style="fill:#000000; stroke:none;" d="M0 0L0 60L10 60L10 50L20 50L20 80L10 80L10 70L0 70L0 110L50 110L50 100L40 100L40 90L90 90L90 100L60 100L60 110L110 110L110 60L100 60L100 80L90 80L90 40L100 40L100 50L110 50L110 0L70 0L70 10L60 10L60 0L50 0L50 10L40 10L40 0L0 0z"/>
<path style="fill:#ffffff; stroke:none;" d="M40 0L40 10L50 10L50 0L40 0M60 0L60 10L70 10L70 0L60 0M20 10L20 20L30 20L30 10L20 10M50 10L50 20L60 20L60 10L50 10M70 10L70 20L80 20L80 10L70 10M10 30L10 40L20 40L20 30L10 30M30 30L30 80L80 80L80 30L30 30z"/>
<path style="fill:#000000; stroke:none;" d="M60 40L60 50L70 50L70 40L60 40z"/>
<path style="fill:#ffffff; stroke:none;" d="M90 40L90 80L100 80L100 60L110 60L110 50L100 50L100 40L90 40M10 50L10 60L0 60L0 70L10 70L10 80L20 80L20 50L10 50z"/>
<path style="fill:#000000; stroke:none;" d="M40 50L40 60L50 60L50 50L40 50M60 60L60 70L70 70L70 60L60 60z"/>
<path style="fill:#ffffff; stroke:none;" d="M40 90L40 100L50 100L50 110L60 110L60 100L90 100L90 90L40 90z"/>
</svg>
