<?xml version="1.0" standalone="yes"?>
<svg xmlns="http://www.w3.org/2000/svg" width="110" height="110">
<path style="fill:#000000; stroke:none;" d="M0 0L0 60L10 60L10 30L20 30L20 90L10 90L10 70L0 70L0 110L40 110L40 100L50 100L50 110L110 110L110 70L100 70L100 60L90 60L90 40L110 40L110 0L70 0L70 20L60 20L60 10L50 10L50 0L0 0z"/>
<path style="fill:#ffffff; stroke:none;" d="M50 0L50 10L60 10L60 20L70 20L70 0L50 0M20 10L20 20L30 20L30 10L20 10M90 20L90 30L100 30L100 20L90 20M10 30L10 60L0 60L0 70L10 70L10 90L20 90L20 30L10 30M30 30L30 80L80 80L80 30L30 30M90 40L90 60L100 60L100 70L110 70L110 40L90 40z"/>
<path style="fill:#000000; stroke:none;" d="M40 50L40 60L60 60L60 50L40 50z"/>
<path style="fill:#ffffff; stroke:none;" d="M90 70L90 80L100 80L100 70L90 70M20 90L20 100L40 100L40 90L20 90M60 90L60 100L90 100L90 90L60 90M40 100L40 110L50 110L50 100L40 100z"/>
</svg>
