<?xml version="1.0" standalone="yes"?>
<svg xmlns="http://www.w3.org/2000/svg" width="110" height="110">
<path style="fill:#000000; stroke:none;" d="M0 0L0 110L60 110L60 100L40 100L40 90L90 90L90 100L70 100L70 110L110 110L110 60L90 60L90 40L100 40L100 50L110 50L110 0L70 0L70 10L80 10L80 20L50 20L50 10L40 10L40 0L0 0z"/>
<path style="fill:#ffffff; stroke:none;" d="M40 0L40 10L50 10L50 20L80 20L80 10L70 10L70 0L40 0M30 10L30 20L40 20L40 10L30 10M90 20L90 30L100 30L100 20L90 20M30 30L30 80L80 80L80 30L30 30M10 40L10 60L20 60L20 40L10 40z"/>
<path style="fill:#000000; stroke:none;" d="M50 40L50 50L40 50L40 60L50 60L50 50L70 50L70 40L50 40z"/>
<path style="fill:#ffffff; stroke:none;" d="M90 40L90 60L110 60L110 50L100 50L100 40L90 40M10 70L10 90L20 90L20 70L10 70M90 70L90 90L100 90L100 70L90 70M40 90L40 100L60 100L60 110L70 110L70 100L90 100L90 90L40 90z"/>
</svg>
