<?xml version="1.0" standalone="yes"?>
<svg xmlns="http://www.w3.org/2000/svg" width="110" height="110">
<path style="fill:#000000; stroke:none;" d="M0 0L0 40L10 40L10 50L0 50L0 60L10 60L10 50L20 50L20 80L10 80L10 70L0 70L0 110L60 110L60 100L70 100L70 110L110 110L110 70L90 70L90 40L110 40L110 0L70 0L70 20L30 20L30 10L40 10L40 0L0 0z"/>
<path style="fill:#ffffff; stroke:none;" d="M40 0L40 10L30 10L30 20L70 20L70 0L60 0L60 10L50 10L50 0L40 0z"/>
<path style="fill:#000000; stroke:none;" d="M50 0L50 10L60 10L60 0L50 0z"/>
<path style="fill:#ffffff; stroke:none;" d="M30 30L30 80L80 80L80 30L30 30M0 40L0 50L10 50L10 40L0 40z"/>
<path style="fill:#000000; stroke:none;" d="M50 40L50 60L70 60L70 50L60 50L60 40L50 40z"/>
<path style="fill:#ffffff; stroke:none;" d="M90 40L90 70L110 70L110 40L90 40M10 50L10 60L0 60L0 70L10 70L10 80L20 80L20 50L10 50M90 80L90 90L100 90L100 80L90 80M30 90L30 100L40 100L40 90L30 90M70 90L70 100L80 100L80 90L70 90M60 100L60 110L70 110L70 100L60 100z"/>
</svg>
