<?xml version="1.0" standalone="yes"?>
<svg xmlns="http://www.w3.org/2000/svg" width="110" height="110">
<path style="fill:#000000; stroke:none;" d="M0 0L0 60L10 60L10 50L20 50L20 80L10 80L10 70L0 70L0 110L40 110L40 100L50 100L50 90L60 90L60 110L110 110L110 70L100 70L100 80L90 80L90 50L100 50L100 40L110 40L110 0L70 0L70 10L90 10L90 20L40 20L40 0L0 0z"/>
<path style="fill:#ffffff; stroke:none;" d="M40 0L40 20L90 20L90 10L70 10L70 0L40 0M20 10L20 20L30 20L30 10L20 10M30 30L30 80L80 80L80 30L30 30M90 30L90 40L100 40L100 30L90 30z"/>
<path style="fill:#000000; stroke:none;" d="M40 40L40 60L50 60L50 70L60 70L60 60L70 60L70 40L40 40z"/>
<path style="fill:#ffffff; stroke:none;" d="M100 40L100 50L90 50L90 80L100 80L100 70L110 70L110 40L100 40M10 50L10 60L0 60L0 70L10 70L10 80L20 80L20 50L10 50M20 90L20 100L40 100L40 90L20 90M50 90L50 100L40 100L40 110L60 110L60 90L50 90z"/>
</svg>
