<?xml version="1.0" standalone="yes"?>
<svg xmlns="http://www.w3.org/2000/svg" width="110" height="110">
<path style="fill:#000000; stroke:none;" d="M0 0L0 40L20 40L20 60L0 60L0 110L50 110L50 100L40 100L40 90L70 90L70 100L60 100L60 110L110 110L110 70L100 70L100 50L110 50L110 0L70 0L70 10L60 10L60 20L30 20L30 10L50 10L50 0L0 0z"/>
<path style="fill:#ffffff; stroke:none;" d="M50 0L50 10L30 10L30 20L60 20L60 10L70 10L70 0L50 0M80 10L80 20L90 20L90 30L100 30L100 20L90 20L90 10L80 10M30 30L30 80L80 80L80 30L30 30M0 40L0 60L20 60L20 40L0 40z"/>
<path style="fill:#000000; stroke:none;" d="M50 40L50 50L60 50L60 60L40 60L40 70L60 70L60 60L70 60L70 50L60 50L60 40L50 40z"/>
<path style="fill:#ffffff; stroke:none;" d="M90 40L90 50L100 50L100 40L90 40M100 50L100 70L110 70L110 50L100 50M10 70L10 90L20 90L20 100L30 100L30 90L20 90L20 70L10 70M90 80L90 90L100 90L100 80L90 80M40 90L40 100L50 100L50 110L60 110L60 100L70 100L70 90L40 90z"/>
</svg>
