<?xml version="1.0" standalone="yes"?>
<svg xmlns="http://www.w3.org/2000/svg" width="110" height="110">
<path style="fill:#000000; stroke:none;" d="M0 0L0 50L10 50L10 20L20 20L20 70L0 70L0 110L40 110L40 100L50 100L50 90L90 90L90 100L60 100L60 110L110 110L110 50L100 50L100 40L110 40L110 0L0 0z"/>
<path style="fill:#ffffff; stroke:none;" d="M20 10L20 20L30 20L30 10L20 10M50 10L50 20L80 20L80 10L50 10M10 20L10 50L0 50L0 70L20 70L20 20L10 20M30 30L30 80L80 80L80 30L30 30z"/>
<path style="fill:#000000; stroke:none;" d="M40 40L40 50L50 50L50 70L60 70L60 50L70 50L70 40L40 40z"/>
<path style="fill:#ffffff; stroke:none;" d="M100 40L100 50L110 50L110 40L100 40M90 50L90 60L100 60L100 50L90 50M90 70L90 90L100 90L100 70L90 70M50 90L50 100L40 100L40 110L60 110L60 100L90 100L90 90L50 90z"/>
</svg>
