<?xml version="1.0" standalone="yes"?>
<svg xmlns="http://www.w3.org/2000/svg" width="110" height="110">
<path style="fill:#000000; stroke:none;" d="M0 0L0 110L60 110L60 100L20 100L20 90L70 90L70 110L110 110L110 70L100 70L100 60L90 60L90 50L100 50L100 40L110 40L110 0L70 0L70 10L90 10L90 20L40 20L40 10L50 10L50 0L0 0z"/>
<path style="fill:#ffffff; stroke:none;" d="M50 0L50 10L40 10L40 20L90 20L90 10L70 10L70 0L50 0M10 20L10 30L20 30L20 20L10 20M90 20L90 30L100 30L100 20L90 20M30 30L30 80L80 80L80 30L30 30z"/>
<path style="fill:#000000; stroke:none;" d="M60 40L60 70L70 70L70 40L60 40z"/>
<path style="fill:#ffffff; stroke:none;" d="M100 40L100 50L90 50L90 60L100 60L100 70L110 70L110 40L100 40M10 50L10 60L20 60L20 50L10 50M90 70L90 90L100 90L100 70L90 70M20 90L20 100L60 100L60 110L70 110L70 90L20 90z"/>
</svg>
