<?xml version="1.0" standalone="yes"?>
<svg xmlns="http://www.w3.org/2000/svg" width="110" height="110">
<path style="fill:#000000; stroke:none;" d="M0 0L0 40L20 40L20 80L10 80L10 50L0 50L0 110L40 110L40 100L20 100L20 90L50 90L50 110L110 110L110 50L100 50L100 40L110 40L110 0L70 0L70 10L90 10L90 20L40 20L40 10L50 10L50 0L0 0z"/>
<path style="fill:#ffffff; stroke:none;" d="M50 0L50 10L40 10L40 20L90 20L90 10L70 10L70 0L50 0M20 10L20 20L30 20L30 10L20 10M30 30L30 80L80 80L80 30L30 30M0 40L0 50L10 50L10 80L20 80L20 40L0 40z"/>
<path style="fill:#000000; stroke:none;" d="M50 40L50 70L70 70L70 40L50 40z"/>
<path style="fill:#ffffff; stroke:none;" d="M100 40L100 50L110 50L110 40L100 40M90 50L90 60L100 60L100 50L90 50M20 90L20 100L40 100L40 110L50 110L50 90L20 90M60 90L60 100L70 100L70 90L60 90z"/>
</svg>
