<?xml version="1.0" standalone="yes"?>
<svg xmlns="http://www.w3.org/2000/svg" width="110" height="110">
<path style="fill:#000000; stroke:none;" d="M0 0L0 40L10 40L10 30L20 30L20 50L0 50L0 60L20 60L20 70L0 70L0 110L40 110L40 90L50 90L50 110L60 110L60 100L70 100L70 110L110 110L110 60L100 60L100 70L90 70L90 50L100 50L100 40L110 40L110 0L0 0z"/>
<path style="fill:#ffffff; stroke:none;" d="M40 10L40 20L50 20L50 10L40 10M70 10L70 20L80 20L80 10L70 10M90 20L90 40L100 40L100 20L90 20M10 30L10 40L0 40L0 50L20 50L20 30L10 30M30 30L30 80L80 80L80 30L30 30z"/>
<path style="fill:#000000; stroke:none;" d="M50 40L50 50L40 50L40 70L50 70L50 60L70 60L70 50L60 50L60 40L50 40z"/>
<path style="fill:#ffffff; stroke:none;" d="M100 40L100 50L90 50L90 70L100 70L100 60L110 60L110 40L100 40M0 60L0 70L20 70L20 60L0 60M40 90L40 110L50 110L50 90L40 90M70 90L70 100L80 100L80 90L70 90M60 100L60 110L70 110L70 100L60 100z"/>
</svg>
