<?xml version="1.0" standalone="yes"?>
<svg xmlns="http://www.w3.org/2000/svg" width="110" height="110">
<path style="fill:#000000; stroke:none;" d="M0 0L0 50L10 50L10 40L20 40L20 60L0 60L0 110L110 110L110 60L100 60L100 70L90 70L90 20L100 20L100 40L110 40L110 0L70 0L70 20L60 20L60 10L50 10L50 0L0 0z"/>
<path style="fill:#ffffff; stroke:none;" d="M50 0L50 10L60 10L60 20L70 20L70 0L50 0M40 10L40 20L50 20L50 10L40 10M90 20L90 70L100 70L100 60L110 60L110 40L100 40L100 20L90 20M30 30L30 80L80 80L80 30L30 30M10 40L10 50L0 50L0 60L20 60L20 40L10 40z"/>
<path style="fill:#000000; stroke:none;" d="M60 40L60 70L70 70L70 40L60 40M40 50L40 70L50 70L50 50L40 50z"/>
<path style="fill:#ffffff; stroke:none;" d="M10 70L10 80L20 80L20 70L10 70M90 80L90 90L60 90L60 100L90 100L90 90L100 90L100 80L90 80M20 90L20 100L30 100L30 90L20 90M40 90L40 100L50 100L50 90L40 90z"/>
</svg>
