<?xml version="1.0" standalone="yes"?>
<svg xmlns="http://www.w3.org/2000/svg" width="110" height="110">
<path style="fill:#000000; stroke:none;" d="M0 0L0 40L10 40L10 20L20 20L20 60L10 60L10 70L0 70L0 110L40 110L40 100L50 100L50 110L110 110L110 70L90 70L90 60L100 60L100 50L90 50L90 40L110 40L110 0L50 0L50 10L40 10L40 0L0 0z"/>
<path style="fill:#ffffff; stroke:none;" d="M40 0L40 10L50 10L50 0L40 0M20 10L20 20L40 20L40 10L20 10M50 10L50 20L60 20L60 10L50 10M70 10L70 20L80 20L80 10L70 10M10 20L10 40L0 40L0 70L10 70L10 60L20 60L20 20L10 20M30 30L30 80L80 80L80 30L30 30z"/>
<path style="fill:#000000; stroke:none;" d="M40 40L40 60L50 60L50 70L70 70L70 40L60 40L60 60L50 60L50 40L40 40z"/>
<path style="fill:#ffffff; stroke:none;" d="M90 40L90 50L100 50L100 60L90 60L90 70L110 70L110 40L90 40M10 80L10 90L20 90L20 100L30 100L30 90L20 90L20 80L10 80M50 90L50 100L60 100L60 90L50 90M80 90L80 100L90 100L90 90L80 90M40 100L40 110L50 110L50 100L40 100z"/>
</svg>
