<?xml version="1.0" standalone="yes"?>
<svg xmlns="http://www.w3.org/2000/svg" width="110" height="110">
<path style="fill:#000000; stroke:none;" d="M0 0L0 50L10 50L10 30L20 30L20 60L0 60L0 110L40 110L40 90L60 90L60 100L50 100L50 110L60 110L60 100L70 100L70 110L110 110L110 70L100 70L100 80L90 80L90 50L110 50L110 0L70 0L70 10L60 10L60 0L0 0z"/>
<path style="fill:#ffffff; stroke:none;" d="M60 0L60 10L70 10L70 0L60 0M20 10L20 20L30 20L30 10L20 10M40 10L40 20L50 20L50 10L40 10M80 10L80 20L90 20L90 40L100 40L100 20L90 20L90 10L80 10M10 30L10 50L0 50L0 60L20 60L20 30L10 30M30 30L30 80L80 80L80 30L30 30z"/>
<path style="fill:#000000; stroke:none;" d="M50 40L50 50L40 50L40 70L60 70L60 60L50 60L50 50L60 50L60 40L50 40z"/>
<path style="fill:#ffffff; stroke:none;" d="M90 50L90 80L100 80L100 70L110 70L110 50L90 50M10 70L10 90L20 90L20 100L30 100L30 90L20 90L20 70L10 70M40 90L40 110L50 110L50 100L60 100L60 90L40 90M70 90L70 100L90 100L90 90L70 90M60 100L60 110L70 110L70 100L60 100z"/>
</svg>
