<?xml version="1.0" standalone="yes"?>
<svg xmlns="http://www.w3.org/2000/svg" width="110" height="110">
<path style="fill:#000000; stroke:none;" d="M0 0L0 50L10 50L10 30L20 30L20 60L10 60L10 70L0 70L0 110L40 110L40 90L50 90L50 110L110 110L110 60L100 60L100 50L110 50L110 0L60 0L60 10L70 10L70 20L30 20L30 10L40 10L40 0L0 0z"/>
<path style="fill:#ffffff; stroke:none;" d="M40 0L40 10L30 10L30 20L70 20L70 10L60 10L60 0L40 0M10 30L10 50L0 50L0 70L10 70L10 60L20 60L20 30L10 30M30 30L30 80L80 80L80 30L30 30z"/>
<path style="fill:#000000; stroke:none;" d="M40 50L40 70L60 70L60 50L40 50z"/>
<path style="fill:#ffffff; stroke:none;" d="M100 50L100 60L110 60L110 50L100 50M90 60L90 70L100 70L100 60L90 60M10 80L10 90L20 90L20 100L30 100L30 90L20 90L20 80L10 80M90 80L90 90L60 90L60 100L90 100L90 90L100 90L100 80L90 80M40 90L40 110L50 110L50 90L40 90z"/>
</svg>
