<?xml version="1.0" standalone="yes"?>
<svg xmlns="http://www.w3.org/2000/svg" width="110" height="110">
<path style="fill:#000000; stroke:none;" d="M0 0L0 40L20 40L20 60L10 60L10 50L0 50L0 110L40 110L40 90L60 90L60 100L70 100L70 110L110 110L110 70L100 70L100 50L90 50L90 40L110 40L110 0L0 0z"/>
<path style="fill:#ffffff; stroke:none;" d="M20 10L20 20L30 20L30 10L20 10M40 10L40 20L70 20L70 10L40 10M80 10L80 20L90 20L90 30L100 30L100 20L90 20L90 10L80 10M30 30L30 80L80 80L80 30L30 30M0 40L0 50L10 50L10 60L20 60L20 40L0 40z"/>
<path style="fill:#000000; stroke:none;" d="M60 40L60 50L40 50L40 70L60 70L60 50L70 50L70 40L60 40z"/>
<path style="fill:#ffffff; stroke:none;" d="M90 40L90 50L100 50L100 70L110 70L110 40L90 40M10 70L10 90L20 90L20 70L10 70M40 90L40 110L70 110L70 100L60 100L60 90L40 90M70 90L70 100L80 100L80 90L70 90z"/>
</svg>
