<?xml version="1.0" standalone="yes"?>
<svg xmlns="http://www.w3.org/2000/svg" width="110" height="110">
<path style="fill:#000000; stroke:none;" d="M0 0L0 40L10 40L10 30L20 30L20 50L0 50L0 60L20 60L20 80L10 80L10 70L0 70L0 110L40 110L40 90L60 90L60 100L70 100L70 110L110 110L110 60L90 60L90 40L100 40L100 50L110 50L110 0L0 0z"/>
<path style="fill:#ffffff; stroke:none;" d="M20 10L20 20L30 20L30 10L20 10M40 10L40 20L60 20L60 10L40 10M70 10L70 20L80 20L80 10L70 10M90 20L90 30L100 30L100 20L90 20M10 30L10 40L0 40L0 50L20 50L20 30L10 30M30 30L30 80L80 80L80 30L30 30M90 40L90 60L110 60L110 50L100 50L100 40L90 40M0 60L0 70L10 70L10 80L20 80L20 60L0 60z"/>
<path style="fill:#000000; stroke:none;" d="M40 60L40 70L60 70L60 60L40 60z"/>
<path style="fill:#ffffff; stroke:none;" d="M90 80L90 90L70 90L70 100L90 100L90 90L100 90L100 80L90 80M40 90L40 110L70 110L70 100L60 100L60 90L40 90z"/>
</svg>
