<?xml version="1.0" standalone="yes"?>
<svg xmlns="http://www.w3.org/2000/svg" width="110" height="110">
<path style="fill:#000000; stroke:none;" d="M0 0L0 40L10 40L10 50L20 50L20 60L10 60L10 70L0 70L0 110L110 110L110 70L100 70L100 80L90 80L90 50L100 50L100 60L110 60L110 0L70 0L70 10L90 10L90 20L60 20L60 0L0 0z"/>
<path style="fill:#ffffff; stroke:none;" d="M60 0L60 20L90 20L90 10L70 10L70 0L60 0M10 20L10 40L20 40L20 20L10 20M30 30L30 80L80 80L80 30L30 30M90 30L90 40L100 40L100 30L90 30M0 40L0 70L10 70L10 60L20 60L20 50L10 50L10 40L0 40z"/>
<path style="fill:#000000; stroke:none;" d="M40 40L40 50L50 50L50 60L40 60L40 70L60 70L60 60L70 60L70 50L50 50L50 40L40 40z"/>
<path style="fill:#ffffff; stroke:none;" d="M90 50L90 80L100 80L100 70L110 70L110 60L100 60L100 50L90 50M10 70L10 90L20 90L20 70L10 70M40 90L40 100L50 100L50 90L40 90M60 90L60 100L90 100L90 90L60 90z"/>
</svg>
