<?xml version="1.0" standalone="yes"?>
<svg xmlns="http://www.w3.org/2000/svg" width="110" height="110">
<path style="fill:#000000; stroke:none;" d="M0 0L0 110L50 110L50 100L20 100L20 90L60 90L60 100L70 100L70 110L110 110L110 50L100 50L100 40L110 40L110 0L60 0L60 10L40 10L40 0L0 0z"/>
<path style="fill:#ffffff; stroke:none;" d="M40 0L40 10L60 10L60 0L40 0M20 10L20 20L10 20L10 60L20 60L20 20L40 20L40 10L20 10M70 10L70 20L80 20L80 10L70 10M90 20L90 30L100 30L100 20L90 20M30 30L30 80L80 80L80 30L30 30M100 40L100 50L110 50L110 40L100 40z"/>
<path style="fill:#000000; stroke:none;" d="M50 60L50 70L60 70L60 60L50 60z"/>
<path style="fill:#ffffff; stroke:none;" d="M90 60L90 70L100 70L100 60L90 60M10 70L10 90L20 90L20 70L10 70M20 90L20 100L50 100L50 110L70 110L70 100L60 100L60 90L20 90M70 90L70 100L80 100L80 90L70 90z"/>
</svg>
