<?xml version="1.0" standalone="yes"?>
<svg xmlns="http://www.w3.org/2000/svg" width="110" height="110">
<path style="fill:#000000; stroke:none;" d="M0 0L0 50L10 50L10 30L20 30L20 60L10 60L10 70L0 70L0 110L50 110L50 100L40 100L40 90L70 90L70 110L110 110L110 60L100 60L100 70L90 70L90 40L100 40L100 50L110 50L110 0L60 0L60 10L40 10L40 0L0 0z"/>
<path style="fill:#ffffff; stroke:none;" d="M40 0L40 10L60 10L60 0L40 0M30 10L30 20L40 20L40 10L30 10M60 10L60 20L90 20L90 30L100 30L100 20L90 20L90 10L60 10M10 30L10 50L0 50L0 70L10 70L10 60L20 60L20 30L10 30M30 30L30 80L80 80L80 30L30 30z"/>
<path style="fill:#000000; stroke:none;" d="M40 40L40 70L50 70L50 40L40 40z"/>
<path style="fill:#ffffff; stroke:none;" d="M90 40L90 70L100 70L100 60L110 60L110 50L100 50L100 40L90 40z"/>
<path style="fill:#000000; stroke:none;" d="M60 50L60 60L70 60L70 50L60 50z"/>
<path style="fill:#ffffff; stroke:none;" d="M10 80L10 90L20 90L20 100L30 100L30 90L20 90L20 80L10 80M40 90L40 100L50 100L50 110L70 110L70 90L40 90M80 90L80 100L90 100L90 90L80 90z"/>
</svg>
