<?xml version="1.0" standalone="yes"?>
<svg xmlns="http://www.w3.org/2000/svg" width="110" height="110">
<path style="fill:#000000; stroke:none;" d="M0 0L0 110L40 110L40 90L60 90L60 110L110 110L110 60L100 60L100 50L110 50L110 0L70 0L70 20L20 20L20 10L40 10L40 0L0 0z"/>
<path style="fill:#ffffff; stroke:none;" d="M40 0L40 10L20 10L20 20L70 20L70 0L40 0M80 10L80 20L90 20L90 10L80 10M30 30L30 80L80 80L80 30L30 30M90 30L90 50L100 50L100 30L90 30M10 40L10 60L20 60L20 40L10 40z"/>
<path style="fill:#000000; stroke:none;" d="M40 50L40 70L50 70L50 60L70 60L70 50L40 50z"/>
<path style="fill:#ffffff; stroke:none;" d="M100 50L100 60L110 60L110 50L100 50M90 60L90 70L100 70L100 60L90 60M10 70L10 80L20 80L20 70L10 70M90 80L90 90L100 90L100 80L90 80M40 90L40 110L60 110L60 90L40 90M70 90L70 100L80 100L80 90L70 90z"/>
</svg>
