<?xml version="1.0" standalone="yes"?>
<svg xmlns="http://www.w3.org/2000/svg" width="110" height="110">
<path style="fill:#000000; stroke:none;" d="M0 0L0 40L10 40L10 30L20 30L20 60L10 60L10 50L0 50L0 60L10 60L10 70L0 70L0 110L40 110L40 100L60 100L60 90L80 90L80 100L70 100L70 110L110 110L110 50L100 50L100 90L90 90L90 20L100 20L100 40L110 40L110 0L70 0L70 10L80 10L80 20L60 20L60 10L50 10L50 0L0 0z"/>
<path style="fill:#ffffff; stroke:none;" d="M50 0L50 10L60 10L60 20L80 20L80 10L70 10L70 0L50 0M30 10L30 20L40 20L40 10L30 10M90 20L90 90L100 90L100 50L110 50L110 40L100 40L100 20L90 20M10 30L10 40L0 40L0 50L10 50L10 60L20 60L20 30L10 30M30 30L30 80L80 80L80 30L30 30z"/>
<path style="fill:#000000; stroke:none;" d="M40 40L40 50L50 50L50 40L40 40z"/>
<path style="fill:#ffffff; stroke:none;" d="M0 60L0 70L10 70L10 60L0 60z"/>
<path style="fill:#000000; stroke:none;" d="M50 60L50 70L70 70L70 60L50 60z"/>
<path style="fill:#ffffff; stroke:none;" d="M20 90L20 100L30 100L30 90L20 90M60 90L60 100L40 100L40 110L70 110L70 100L80 100L80 90L60 90z"/>
</svg>
