<?xml version="1.0" standalone="yes"?>
<svg xmlns="http://www.w3.org/2000/svg" width="110" height="110">
<path style="fill:#000000; stroke:none;" d="M0 0L0 60L10 60L10 50L20 50L20 70L0 70L0 110L60 110L60 90L70 90L70 110L110 110L110 70L100 70L100 90L90 90L90 40L110 40L110 0L70 0L70 10L80 10L80 20L20 20L20 10L50 10L50 0L0 0z"/>
<path style="fill:#ffffff; stroke:none;" d="M50 0L50 10L20 10L20 20L80 20L80 10L70 10L70 0L50 0M10 30L10 40L20 40L20 30L10 30M30 30L30 80L80 80L80 30L30 30z"/>
<path style="fill:#000000; stroke:none;" d="M40 40L40 50L50 50L50 70L60 70L60 60L70 60L70 40L40 40z"/>
<path style="fill:#ffffff; stroke:none;" d="M90 40L90 90L100 90L100 70L110 70L110 60L100 60L100 50L110 50L110 40L90 40M10 50L10 60L0 60L0 70L20 70L20 50L10 50z"/>
<path style="fill:#000000; stroke:none;" d="M100 50L100 60L110 60L110 50L100 50z"/>
<path style="fill:#ffffff; stroke:none;" d="M60 90L60 110L70 110L70 90L60 90z"/>
</svg>
