<?xml version="1.0" standalone="yes"?>
<svg xmlns="http://www.w3.org/2000/svg" width="110" height="110">
<path style="fill:#000000; stroke:none;" d="M0 0L0 40L20 40L20 80L10 80L10 70L0 70L0 110L40 110L40 100L60 100L60 110L110 110L110 70L90 70L90 30L100 30L100 50L110 50L110 0L60 0L60 20L40 20L40 10L50 10L50 0L0 0z"/>
<path style="fill:#ffffff; stroke:none;" d="M50 0L50 10L40 10L40 20L60 20L60 0L50 0M10 20L10 30L20 30L20 20L10 20M30 30L30 80L80 80L80 30L30 30M90 30L90 70L110 70L110 50L100 50L100 30L90 30M0 40L0 70L10 70L10 80L20 80L20 40L0 40z"/>
<path style="fill:#000000; stroke:none;" d="M40 40L40 70L70 70L70 60L60 60L60 50L70 50L70 40L40 40z"/>
<path style="fill:#ffffff; stroke:none;" d="M70 90L70 100L80 100L80 90L70 90M40 100L40 110L60 110L60 100L40 100z"/>
</svg>
