<?xml version="1.0" standalone="yes"?>
<svg xmlns="http://www.w3.org/2000/svg" width="110" height="110">
<path style="fill:#000000; stroke:none;" d="M0 0L0 40L10 40L10 50L20 50L20 60L0 60L0 110L50 110L50 100L60 100L60 110L110 110L110 70L100 70L100 60L110 60L110 0L0 0z"/>
<path style="fill:#ffffff; stroke:none;" d="M70 10L70 20L90 20L90 50L100 50L100 20L90 20L90 10L70 10M30 30L30 80L80 80L80 30L30 30M0 40L0 60L20 60L20 50L10 50L10 40L0 40z"/>
<path style="fill:#000000; stroke:none;" d="M60 40L60 70L70 70L70 40L60 40M40 50L40 60L50 60L50 50L40 50z"/>
<path style="fill:#ffffff; stroke:none;" d="M100 60L100 70L110 70L110 60L100 60M10 80L10 90L20 90L20 80L10 80M40 90L40 100L50 100L50 90L40 90M60 90L60 100L80 100L80 90L60 90M50 100L50 110L60 110L60 100L50 100z"/>
</svg>
