<?xml version="1.0" standalone="yes"?>
<svg xmlns="http://www.w3.org/2000/svg" width="110" height="110">
<path style="fill:#000000; stroke:none;" d="M0 0L0 40L10 40L10 70L0 70L0 110L40 110L40 100L50 100L50 110L60 110L60 100L70 100L70 110L110 110L110 70L90 70L90 60L110 60L110 0L70 0L70 10L40 10L40 0L0 0z"/>
<path style="fill:#ffffff; stroke:none;" d="M40 0L40 10L70 10L70 0L40 0M70 10L70 20L90 20L90 10L70 10M10 30L10 40L20 40L20 30L10 30M30 30L30 80L80 80L80 30L30 30M90 30L90 40L100 40L100 30L90 30M0 40L0 70L10 70L10 40L0 40z"/>
<path style="fill:#000000; stroke:none;" d="M60 40L60 50L40 50L40 60L50 60L50 70L70 70L70 40L60 40z"/>
<path style="fill:#ffffff; stroke:none;" d="M90 60L90 70L110 70L110 60L90 60M10 70L10 80L20 80L20 70L10 70M50 90L50 100L60 100L60 90L50 90M70 90L70 100L90 100L90 90L70 90M40 100L40 110L50 110L50 100L40 100M60 100L60 110L70 110L70 100L60 100z"/>
</svg>
