<?xml version="1.0" standalone="yes"?>
<svg xmlns="http://www.w3.org/2000/svg" width="110" height="110">
<path style="fill:#000000; stroke:none;" d="M0 0L0 50L10 50L10 20L20 20L20 80L10 80L10 60L0 60L0 110L40 110L40 100L50 100L50 110L60 110L60 100L50 100L50 90L70 90L70 110L110 110L110 60L100 60L100 80L90 80L90 50L110 50L110 0L50 0L50 10L40 10L40 0L0 0z"/>
<path style="fill:#ffffff; stroke:none;" d="M40 0L40 10L50 10L50 0L40 0M20 10L20 20L30 20L30 10L20 10M50 10L50 20L70 20L70 10L50 10M10 20L10 50L0 50L0 60L10 60L10 80L20 80L20 20L10 20M30 30L30 80L80 80L80 30L30 30z"/>
<path style="fill:#000000; stroke:none;" d="M40 40L40 50L50 50L50 60L40 60L40 70L50 70L50 60L70 60L70 40L60 40L60 50L50 50L50 40L40 40z"/>
<path style="fill:#ffffff; stroke:none;" d="M90 50L90 80L100 80L100 60L110 60L110 50L90 50M20 90L20 100L40 100L40 90L20 90M50 90L50 100L60 100L60 110L70 110L70 90L50 90M40 100L40 110L50 110L50 100L40 100z"/>
</svg>
