<?xml version="1.0" standalone="yes"?>
<svg xmlns="http://www.w3.org/2000/svg" width="110" height="110">
<path style="fill:#000000; stroke:none;" d="M0 0L0 50L10 50L10 60L20 60L20 70L0 70L0 110L50 110L50 100L60 100L60 110L110 110L110 60L100 60L100 50L110 50L110 0L50 0L50 20L40 20L40 0L0 0z"/>
<path style="fill:#ffffff; stroke:none;" d="M40 0L40 20L50 20L50 0L40 0M20 10L20 20L30 20L30 10L20 10M60 10L60 20L70 20L70 10L60 10M80 10L80 20L90 20L90 10L80 10M30 30L30 80L80 80L80 30L30 30M90 30L90 40L100 40L100 30L90 30M10 40L10 50L20 50L20 40L10 40z"/>
<path style="fill:#000000; stroke:none;" d="M40 40L40 60L50 60L50 40L40 40z"/>
<path style="fill:#ffffff; stroke:none;" d="M0 50L0 70L20 70L20 60L10 60L10 50L0 50M100 50L100 60L110 60L110 50L100 50M90 70L90 80L100 80L100 70L90 70M10 80L10 90L20 90L20 80L10 80M50 100L50 110L60 110L60 100L50 100z"/>
</svg>
