<?xml version="1.0" standalone="yes"?>
<svg xmlns="http://www.w3.org/2000/svg" width="110" height="110">
<path style="fill:#000000; stroke:none;" d="M0 0L0 50L10 50L10 60L20 60L20 80L10 80L10 70L0 70L0 110L50 110L50 100L60 100L60 90L70 90L70 110L110 110L110 70L100 70L100 60L110 60L110 0L70 0L70 10L60 10L60 20L50 20L50 0L0 0z"/>
<path style="fill:#ffffff; stroke:none;" d="M50 0L50 20L60 20L60 10L70 10L70 0L50 0M20 10L20 20L40 20L40 10L20 10M10 30L10 40L20 40L20 30L10 30M30 30L30 80L80 80L80 30L30 30M90 30L90 50L100 50L100 30L90 30z"/>
<path style="fill:#000000; stroke:none;" d="M40 40L40 60L50 60L50 70L60 70L60 60L70 60L70 40L40 40z"/>
<path style="fill:#ffffff; stroke:none;" d="M0 50L0 70L10 70L10 80L20 80L20 60L10 60L10 50L0 50M100 60L100 70L110 70L110 60L100 60M90 70L90 80L100 80L100 70L90 70M30 90L30 100L50 100L50 90L30 90M60 90L60 100L50 100L50 110L70 110L70 90L60 90M80 90L80 100L90 100L90 90L80 90z"/>
</svg>
