<?xml version="1.0" standalone="yes"?>
<svg xmlns="http://www.w3.org/2000/svg" width="110" height="110">
<path style="fill:#000000; stroke:none;" d="M0 0L0 40L10 40L10 30L20 30L20 70L10 70L10 50L0 50L0 110L50 110L50 90L90 90L90 100L60 100L60 110L110 110L110 50L100 50L100 40L110 40L110 0L60 0L60 10L80 10L80 20L30 20L30 10L50 10L50 0L0 0z"/>
<path style="fill:#ffffff; stroke:none;" d="M50 0L50 10L30 10L30 20L80 20L80 10L60 10L60 0L50 0M10 30L10 40L0 40L0 50L10 50L10 70L20 70L20 30L10 30M30 30L30 80L80 80L80 30L30 30M100 40L100 50L110 50L110 40L100 40z"/>
<path style="fill:#000000; stroke:none;" d="M40 50L40 60L50 60L50 70L70 70L70 50L40 50z"/>
<path style="fill:#ffffff; stroke:none;" d="M90 50L90 60L100 60L100 50L90 50M10 80L10 90L20 90L20 80L10 80M90 80L90 90L100 90L100 80L90 80M30 90L30 100L40 100L40 90L30 90M50 90L50 110L60 110L60 100L90 100L90 90L50 90z"/>
</svg>
