<?xml version="1.0" standalone="yes"?>
<svg xmlns="http://www.w3.org/2000/svg" width="110" height="110">
<path style="fill:#000000; stroke:none;" d="M0 0L0 50L10 50L10 60L20 60L20 70L0 70L0 110L40 110L40 100L50 100L50 110L60 110L60 100L50 100L50 90L70 90L70 110L110 110L110 70L100 70L100 60L90 60L90 50L100 50L100 40L110 40L110 0L60 0L60 20L50 20L50 10L40 10L40 0L0 0z"/>
<path style="fill:#ffffff; stroke:none;" d="M40 0L40 10L50 10L50 20L60 20L60 0L40 0M20 10L20 20L40 20L40 10L20 10M10 30L10 50L20 50L20 30L10 30M30 30L30 80L80 80L80 30L30 30M90 30L90 40L100 40L100 30L90 30M100 40L100 50L90 50L90 60L100 60L100 70L110 70L110 40L100 40M0 50L0 70L20 70L20 60L10 60L10 50L0 50z"/>
<path style="fill:#000000; stroke:none;" d="M50 50L50 70L60 70L60 60L70 60L70 50L50 50z"/>
<path style="fill:#ffffff; stroke:none;" d="M30 90L30 100L40 100L40 90L30 90M50 90L50 100L60 100L60 110L70 110L70 90L50 90M80 90L80 100L90 100L90 90L80 90M40 100L40 110L50 110L50 100L40 100z"/>
</svg>
