<?xml version="1.0" standalone="yes"?>
<svg xmlns="http://www.w3.org/2000/svg" width="110" height="110">
<path style="fill:#000000; stroke:none;" d="M0 0L0 40L10 40L10 20L20 20L20 60L10 60L10 70L0 70L0 110L40 110L40 90L70 90L70 100L50 100L50 110L110 110L110 0L70 0L70 10L60 10L60 20L40 20L40 10L50 10L50 0L0 0z"/>
<path style="fill:#ffffff; stroke:none;" d="M50 0L50 10L40 10L40 20L60 20L60 10L70 10L70 0L50 0M20 10L20 20L30 20L30 10L20 10M80 10L80 20L90 20L90 10L80 10M10 20L10 40L0 40L0 70L10 70L10 60L20 60L20 20L10 20M30 30L30 80L80 80L80 30L30 30M90 40L90 50L100 50L100 40L90 40z"/>
<path style="fill:#000000; stroke:none;" d="M40 50L40 70L60 70L60 60L70 60L70 50L40 50z"/>
<path style="fill:#ffffff; stroke:none;" d="M90 60L90 70L100 70L100 60L90 60M10 70L10 80L20 80L20 70L10 70M20 90L20 100L30 100L30 90L20 90M40 90L40 110L50 110L50 100L70 100L70 90L40 90z"/>
</svg>
