<?xml version="1.0" standalone="yes"?>
<svg xmlns="http://www.w3.org/2000/svg" width="110" height="110">
<path style="fill:#000000; stroke:none;" d="M0 0L0 50L10 50L10 60L20 60L20 70L0 70L0 110L40 110L40 90L60 90L60 100L50 100L50 110L60 110L60 100L70 100L70 110L110 110L110 60L100 60L100 50L110 50L110 0L70 0L70 20L20 20L20 10L60 10L60 0L0 0z"/>
<path style="fill:#ffffff; stroke:none;" d="M60 0L60 10L20 10L20 20L70 20L70 0L60 0M10 20L10 30L20 30L20 20L10 20M90 20L90 30L100 30L100 20L90 20M30 30L30 80L80 80L80 30L30 30z"/>
<path style="fill:#000000; stroke:none;" d="M40 40L40 50L50 50L50 70L70 70L70 60L60 60L60 50L50 50L50 40L40 40z"/>
<path style="fill:#ffffff; stroke:none;" d="M90 40L90 50L100 50L100 40L90 40M0 50L0 70L20 70L20 60L10 60L10 50L0 50M100 50L100 60L110 60L110 50L100 50M10 80L10 90L20 90L20 80L10 80M40 90L40 110L50 110L50 100L60 100L60 90L40 90M60 100L60 110L70 110L70 100L60 100z"/>
</svg>
