<?xml version="1.0" standalone="yes"?>
<svg xmlns="http://www.w3.org/2000/svg" width="110" height="110">
<path style="fill:#000000; stroke:none;" d="M0 0L0 50L20 50L20 60L0 60L0 110L110 110L110 70L100 70L100 60L110 60L110 50L100 50L100 40L110 40L110 0L60 0L60 20L50 20L50 10L40 10L40 0L0 0z"/>
<path style="fill:#ffffff; stroke:none;" d="M40 0L40 10L50 10L50 20L60 20L60 0L40 0M70 10L70 20L80 20L80 10L70 10M10 20L10 30L20 30L20 20L10 20M30 30L30 80L80 80L80 30L30 30z"/>
<path style="fill:#000000; stroke:none;" d="M40 40L40 70L70 70L70 60L60 60L60 50L70 50L70 40L40 40z"/>
<path style="fill:#ffffff; stroke:none;" d="M100 40L100 50L110 50L110 40L100 40M0 50L0 60L20 60L20 50L0 50M100 60L100 70L110 70L110 60L100 60M10 70L10 90L20 90L20 70L10 70M40 90L40 100L50 100L50 90L40 90M70 90L70 100L80 100L80 90L70 90z"/>
</svg>
