<?xml version="1.0" standalone="yes"?>
<svg xmlns="http://www.w3.org/2000/svg" width="110" height="110">
<path style="fill:#000000; stroke:none;" d="M0 0L0 40L20 40L20 60L0 60L0 110L60 110L60 90L70 90L70 110L110 110L110 50L100 50L100 40L110 40L110 0L70 0L70 10L90 10L90 20L40 20L40 10L50 10L50 0L0 0z"/>
<path style="fill:#ffffff; stroke:none;" d="M50 0L50 10L40 10L40 20L90 20L90 10L70 10L70 0L50 0M90 20L90 40L100 40L100 20L90 20M30 30L30 80L80 80L80 30L30 30M0 40L0 60L20 60L20 40L0 40z"/>
<path style="fill:#000000; stroke:none;" d="M40 40L40 50L50 50L50 70L70 70L70 40L40 40z"/>
<path style="fill:#ffffff; stroke:none;" d="M100 40L100 50L110 50L110 40L100 40M90 70L90 80L100 80L100 70L90 70M10 80L10 90L20 90L20 80L10 80M40 90L40 100L50 100L50 90L40 90M60 90L60 110L70 110L70 90L60 90z"/>
</svg>
