<?xml version="1.0" standalone="yes"?>
<svg xmlns="http://www.w3.org/2000/svg" width="110" height="110">
<path style="fill:#000000; stroke:none;" d="M0 0L0 40L10 40L10 50L0 50L0 60L20 60L20 90L10 90L10 70L0 70L0 110L110 110L110 70L90 70L90 20L100 20L100 40L110 40L110 0L70 0L70 20L50 20L50 10L60 10L60 0L0 0z"/>
<path style="fill:#ffffff; stroke:none;" d="M60 0L60 10L50 10L50 20L70 20L70 0L60 0M30 10L30 20L40 20L40 10L30 10M90 20L90 70L110 70L110 40L100 40L100 20L90 20M10 30L10 40L20 40L20 30L10 30M30 30L30 80L80 80L80 30L30 30M0 40L0 50L10 50L10 40L0 40z"/>
<path style="fill:#000000; stroke:none;" d="M40 40L40 50L50 50L50 60L40 60L40 70L50 70L50 60L70 60L70 40L40 40z"/>
<path style="fill:#ffffff; stroke:none;" d="M0 60L0 70L10 70L10 90L20 90L20 60L0 60M20 90L20 100L40 100L40 90L20 90M60 90L60 100L80 100L80 90L60 90z"/>
</svg>
