<?xml version="1.0" standalone="yes"?>
<svg xmlns="http://www.w3.org/2000/svg" width="110" height="110">
<path style="fill:#000000; stroke:none;" d="M0 0L0 110L50 110L50 100L20 100L20 90L60 90L60 110L110 110L110 0L50 0L50 10L40 10L40 0L0 0z"/>
<path style="fill:#ffffff; stroke:none;" d="M40 0L40 10L50 10L50 0L40 0M30 10L30 20L40 20L40 10L30 10M70 10L70 20L80 20L80 10L70 10M10 20L10 60L20 60L20 20L10 20M90 20L90 40L100 40L100 20L90 20M30 30L30 80L80 80L80 30L30 30z"/>
<path style="fill:#000000; stroke:none;" d="M50 40L50 50L40 50L40 60L50 60L50 50L60 50L60 40L50 40z"/>
<path style="fill:#ffffff; stroke:none;" d="M90 60L90 90L100 90L100 60L90 60M10 70L10 80L20 80L20 70L10 70M20 90L20 100L50 100L50 110L60 110L60 90L20 90z"/>
</svg>
