<?xml version="1.0" standalone="yes"?>
<svg xmlns="http://www.w3.org/2000/svg" width="110" height="110">
<path style="fill:#000000; stroke:none;" d="M0 0L0 50L10 50L10 70L0 70L0 110L50 110L50 100L70 100L70 110L110 110L110 70L100 70L100 60L110 60L110 0L70 0L70 10L50 10L50 0L0 0z"/>
<path style="fill:#ffffff; stroke:none;" d="M50 0L50 10L70 10L70 0L50 0M20 10L20 20L10 20L10 30L20 30L20 20L30 20L30 10L20 10M70 10L70 20L90 20L90 30L100 30L100 20L90 20L90 10L70 10M30 30L30 80L80 80L80 30L30 30z"/>
<path style="fill:#000000; stroke:none;" d="M40 40L40 60L50 60L50 70L60 70L60 60L50 60L50 50L60 50L60 40L40 40z"/>
<path style="fill:#ffffff; stroke:none;" d="M90 40L90 60L100 60L100 40L90 40M0 50L0 70L10 70L10 50L0 50M100 60L100 70L110 70L110 60L100 60M10 80L10 90L20 90L20 100L50 100L50 90L20 90L20 80L10 80M50 100L50 110L70 110L70 100L50 100z"/>
</svg>
