<?xml version="1.0" standalone="yes"?>
<svg xmlns="http://www.w3.org/2000/svg" width="110" height="110">
<path style="fill:#000000; stroke:none;" d="M0 0L0 110L40 110L40 100L60 100L60 90L90 90L90 100L70 100L70 110L110 110L110 70L100 70L100 90L90 90L90 50L100 50L100 60L110 60L110 0L60 0L60 10L40 10L40 0L0 0z"/>
<path style="fill:#ffffff; stroke:none;" d="M40 0L40 10L60 10L60 0L40 0M20 10L20 20L10 20L10 40L20 40L20 20L40 20L40 10L20 10M70 10L70 20L80 20L80 10L70 10M90 20L90 30L100 30L100 20L90 20M30 30L30 80L80 80L80 30L30 30M10 50L10 60L20 60L20 50L10 50z"/>
<path style="fill:#000000; stroke:none;" d="M40 50L40 70L50 70L50 50L40 50z"/>
<path style="fill:#ffffff; stroke:none;" d="M90 50L90 90L100 90L100 70L110 70L110 60L100 60L100 50L90 50z"/>
<path style="fill:#000000; stroke:none;" d="M60 60L60 70L70 70L70 60L60 60z"/>
<path style="fill:#ffffff; stroke:none;" d="M30 90L30 100L40 100L40 90L30 90M60 90L60 100L40 100L40 110L70 110L70 100L90 100L90 90L60 90z"/>
</svg>
