<?xml version="1.0" standalone="yes"?>
<svg xmlns="http://www.w3.org/2000/svg" width="110" height="110">
<path style="fill:#000000; stroke:none;" d="M0 0L0 50L10 50L10 60L0 60L0 110L60 110L60 100L40 100L40 90L70 90L70 110L110 110L110 60L100 60L100 50L110 50L110 0L70 0L70 20L50 20L50 0L0 0z"/>
<path style="fill:#ffffff; stroke:none;" d="M50 0L50 20L70 20L70 0L50 0M20 10L20 20L40 20L40 10L20 10M80 10L80 20L90 20L90 50L100 50L100 20L90 20L90 10L80 10M10 30L10 50L20 50L20 30L10 30M30 30L30 80L80 80L80 30L30 30z"/>
<path style="fill:#000000; stroke:none;" d="M40 40L40 70L60 70L60 50L70 50L70 40L60 40L60 50L50 50L50 40L40 40z"/>
<path style="fill:#ffffff; stroke:none;" d="M0 50L0 60L10 60L10 50L0 50M100 50L100 60L110 60L110 50L100 50M10 60L10 70L20 70L20 60L10 60M90 60L90 80L100 80L100 60L90 60M20 90L20 100L30 100L30 90L20 90M40 90L40 100L60 100L60 110L70 110L70 90L40 90z"/>
</svg>
