<?xml version="1.0" standalone="yes"?>
<svg xmlns="http://www.w3.org/2000/svg" width="110" height="110">
<path style="fill:#000000; stroke:none;" d="M0 0L0 110L50 110L50 100L60 100L60 110L110 110L110 70L100 70L100 80L90 80L90 60L100 60L100 50L110 50L110 0L50 0L50 10L40 10L40 0L0 0z"/>
<path style="fill:#ffffff; stroke:none;" d="M40 0L40 10L50 10L50 0L40 0M20 10L20 20L30 20L30 10L20 10M50 10L50 20L60 20L60 10L50 10M90 20L90 30L100 30L100 20L90 20M30 30L30 80L80 80L80 30L30 30z"/>
<path style="fill:#000000; stroke:none;" d="M40 40L40 60L50 60L50 50L60 50L60 60L70 60L70 50L60 50L60 40L40 40z"/>
<path style="fill:#ffffff; stroke:none;" d="M10 50L10 60L20 60L20 50L10 50M100 50L100 60L90 60L90 80L100 80L100 70L110 70L110 50L100 50M10 80L10 90L20 90L20 100L40 100L40 90L20 90L20 80L10 80M60 90L60 100L90 100L90 90L60 90M50 100L50 110L60 110L60 100L50 100z"/>
</svg>
