<?xml version="1.0" standalone="yes"?>
<svg xmlns="http://www.w3.org/2000/svg" width="110" height="110">
<path style="fill:#000000; stroke:none;" d="M0 0L0 40L10 40L10 20L20 20L20 60L10 60L10 50L0 50L0 60L10 60L10 70L0 70L0 110L60 110L60 100L70 100L70 110L110 110L110 70L90 70L90 60L110 60L110 50L90 50L90 40L110 40L110 0L70 0L70 10L50 10L50 0L0 0z"/>
<path style="fill:#ffffff; stroke:none;" d="M50 0L50 10L70 10L70 0L50 0M70 10L70 20L90 20L90 10L70 10M10 20L10 40L0 40L0 50L10 50L10 60L20 60L20 20L10 20M30 30L30 80L80 80L80 30L30 30M90 40L90 50L110 50L110 40L90 40M0 60L0 70L10 70L10 60L0 60z"/>
<path style="fill:#000000; stroke:none;" d="M40 60L40 70L50 70L50 60L40 60z"/>
<path style="fill:#ffffff; stroke:none;" d="M90 60L90 70L110 70L110 60L90 60M10 70L10 80L20 80L20 70L10 70M30 90L30 100L40 100L40 90L30 90M50 90L50 100L60 100L60 90L50 90M70 90L70 100L80 100L80 90L70 90M60 100L60 110L70 110L70 100L60 100z"/>
</svg>
