<?xml version="1.0" standalone="yes"?>
<svg xmlns="http://www.w3.org/2000/svg" width="110" height="110">
<path style="fill:#000000; stroke:none;" d="M0 0L0 60L10 60L10 70L0 70L0 110L40 110L40 90L50 90L50 110L110 110L110 70L100 70L100 60L110 60L110 0L70 0L70 10L90 10L90 20L40 20L40 0L0 0z"/>
<path style="fill:#ffffff; stroke:none;" d="M40 0L40 20L90 20L90 10L70 10L70 0L40 0M20 10L20 20L30 20L30 10L20 10M90 20L90 40L100 40L100 20L90 20M30 30L30 80L80 80L80 30L30 30z"/>
<path style="fill:#000000; stroke:none;" d="M40 40L40 70L60 70L60 60L70 60L70 50L60 50L60 60L50 60L50 40L40 40z"/>
<path style="fill:#ffffff; stroke:none;" d="M0 60L0 70L10 70L10 60L0 60M100 60L100 70L110 70L110 60L100 60M90 70L90 90L100 90L100 70L90 70M10 80L10 90L20 90L20 100L30 100L30 90L20 90L20 80L10 80M40 90L40 110L50 110L50 90L40 90M60 90L60 100L80 100L80 90L60 90z"/>
</svg>
