<?xml version="1.0" standalone="yes"?>
<svg xmlns="http://www.w3.org/2000/svg" width="110" height="110">
<path style="fill:#000000; stroke:none;" d="M0 0L0 40L10 40L10 50L20 50L20 60L10 60L10 70L0 70L0 110L40 110L40 100L50 100L50 90L60 90L60 110L110 110L110 70L90 70L90 50L100 50L100 60L110 60L110 50L100 50L100 40L110 40L110 0L60 0L60 10L50 10L50 20L20 20L20 10L40 10L40 0L0 0z"/>
<path style="fill:#ffffff; stroke:none;" d="M40 0L40 10L20 10L20 20L50 20L50 10L60 10L60 0L40 0M60 10L60 20L70 20L70 10L60 10M30 30L30 80L80 80L80 30L30 30M0 40L0 70L10 70L10 60L20 60L20 50L10 50L10 40L0 40M100 40L100 50L110 50L110 40L100 40z"/>
<path style="fill:#000000; stroke:none;" d="M60 50L60 70L70 70L70 50L60 50z"/>
<path style="fill:#ffffff; stroke:none;" d="M90 50L90 70L110 70L110 60L100 60L100 50L90 50M10 80L10 90L20 90L20 80L10 80M90 80L90 90L70 90L70 100L90 100L90 90L100 90L100 80L90 80M30 90L30 100L40 100L40 90L30 90M50 90L50 100L40 100L40 110L60 110L60 90L50 90z"/>
</svg>
