<?xml version="1.0" standalone="yes"?>
<svg xmlns="http://www.w3.org/2000/svg" width="110" height="110">
<path style="fill:#000000; stroke:none;" d="M0 0L0 110L110 110L110 60L90 60L90 40L100 40L100 50L110 50L110 0L70 0L70 10L60 10L60 0L0 0z"/>
<path style="fill:#ffffff; stroke:none;" d="M60 0L60 10L70 10L70 0L60 0M30 10L30 20L40 20L40 10L30 10M50 10L50 20L60 20L60 10L50 10M80 10L80 20L90 20L90 30L100 30L100 20L90 20L90 10L80 10M10 30L10 40L20 40L20 30L10 30M30 30L30 80L80 80L80 30L30 30M90 40L90 60L110 60L110 50L100 50L100 40L90 40z"/>
<path style="fill:#000000; stroke:none;" d="M60 60L60 70L70 70L70 60L60 60z"/>
<path style="fill:#ffffff; stroke:none;" d="M10 80L10 90L20 90L20 80L10 80M90 80L90 90L100 90L100 80L90 80M30 90L30 100L70 100L70 90L30 90z"/>
</svg>
