<?xml version="1.0" standalone="yes"?>
<svg xmlns="http://www.w3.org/2000/svg" width="110" height="110">
<path style="fill:#000000; stroke:none;" d="M0 0L0 40L10 40L10 30L20 30L20 90L10 90L10 50L0 50L0 110L40 110L40 90L50 90L50 100L70 100L70 110L110 110L110 70L100 70L100 90L90 90L90 50L100 50L100 40L110 40L110 0L60 0L60 10L40 10L40 0L0 0z"/>
<path style="fill:#ffffff; stroke:none;" d="M40 0L40 10L60 10L60 0L40 0M80 10L80 20L90 20L90 10L80 10M10 30L10 40L0 40L0 50L10 50L10 90L20 90L20 30L10 30M30 30L30 80L80 80L80 30L30 30M90 30L90 40L100 40L100 30L90 30z"/>
<path style="fill:#000000; stroke:none;" d="M50 40L50 50L40 50L40 70L60 70L60 60L70 60L70 40L50 40z"/>
<path style="fill:#ffffff; stroke:none;" d="M100 40L100 50L90 50L90 90L100 90L100 70L110 70L110 40L100 40M50 50L50 60L60 60L60 50L50 50M20 90L20 100L30 100L30 90L20 90M40 90L40 110L70 110L70 100L50 100L50 90L40 90M80 90L80 100L90 100L90 90L80 90z"/>
</svg>
