<?xml version="1.0" standalone="yes"?>
<svg xmlns="http://www.w3.org/2000/svg" width="110" height="110">
<path style="fill:#000000; stroke:none;" d="M0 0L0 40L20 40L20 80L10 80L10 70L0 70L0 110L50 110L50 90L60 90L60 110L110 110L110 70L100 70L100 90L90 90L90 60L100 60L100 50L110 50L110 0L0 0z"/>
<path style="fill:#ffffff; stroke:none;" d="M20 10L20 20L10 20L10 30L20 30L20 20L30 20L30 10L20 10M60 10L60 20L90 20L90 30L100 30L100 20L90 20L90 10L60 10M30 30L30 80L80 80L80 30L30 30M0 40L0 70L10 70L10 80L20 80L20 40L0 40z"/>
<path style="fill:#000000; stroke:none;" d="M40 40L40 50L50 50L50 40L40 40z"/>
<path style="fill:#ffffff; stroke:none;" d="M90 40L90 50L100 50L100 40L90 40z"/>
<path style="fill:#000000; stroke:none;" d="M60 50L60 60L50 60L50 70L70 70L70 50L60 50z"/>
<path style="fill:#ffffff; stroke:none;" d="M100 50L100 60L90 60L90 90L100 90L100 70L110 70L110 50L100 50M30 90L30 100L40 100L40 90L30 90M50 90L50 110L60 110L60 90L50 90z"/>
</svg>
