<?xml version="1.0" standalone="yes"?>
<svg xmlns="http://www.w3.org/2000/svg" width="110" height="110">
<path style="fill:#000000; stroke:none;" d="M0 0L0 40L20 40L20 60L10 60L10 70L0 70L0 110L50 110L50 100L60 100L60 110L110 110L110 70L100 70L100 90L90 90L90 40L100 40L100 50L110 50L110 0L70 0L70 20L30 20L30 10L60 10L60 0L0 0z"/>
<path style="fill:#ffffff; stroke:none;" d="M60 0L60 10L30 10L30 20L70 20L70 0L60 0M90 20L90 30L100 30L100 20L90 20M30 30L30 80L80 80L80 30L30 30M0 40L0 70L10 70L10 60L20 60L20 40L0 40z"/>
<path style="fill:#000000; stroke:none;" d="M50 40L50 50L40 50L40 60L50 60L50 70L60 70L60 60L70 60L70 40L50 40z"/>
<path style="fill:#ffffff; stroke:none;" d="M90 40L90 90L100 90L100 70L110 70L110 50L100 50L100 40L90 40M50 50L50 60L60 60L60 50L50 50M20 90L20 100L50 100L50 90L20 90M60 90L60 100L90 100L90 90L60 90M50 100L50 110L60 110L60 100L50 100z"/>
</svg>
