<?xml version="1.0" standalone="yes"?>
<svg xmlns="http://www.w3.org/2000/svg" width="110" height="110">
<path style="fill:#000000; stroke:none;" d="M0 0L0 40L20 40L20 50L10 50L10 60L20 60L20 80L10 80L10 70L0 70L0 110L40 110L40 90L50 90L50 110L110 110L110 50L100 50L100 40L110 40L110 0L70 0L70 10L80 10L80 20L60 20L60 10L50 10L50 0L0 0z"/>
<path style="fill:#ffffff; stroke:none;" d="M50 0L50 10L60 10L60 20L80 20L80 10L70 10L70 0L50 0M20 10L20 20L30 20L30 10L20 10M30 30L30 80L80 80L80 30L30 30M0 40L0 70L10 70L10 80L20 80L20 60L10 60L10 50L20 50L20 40L0 40z"/>
<path style="fill:#000000; stroke:none;" d="M40 40L40 60L50 60L50 70L70 70L70 40L40 40z"/>
<path style="fill:#ffffff; stroke:none;" d="M100 40L100 50L110 50L110 40L100 40M50 50L50 60L60 60L60 50L50 50M90 60L90 90L70 90L70 100L90 100L90 90L100 90L100 60L90 60M20 90L20 100L30 100L30 90L20 90M40 90L40 110L50 110L50 90L40 90z"/>
</svg>
