<?xml version="1.0" standalone="yes"?>
<svg xmlns="http://www.w3.org/2000/svg" width="110" height="110">
<path style="fill:#000000; stroke:none;" d="M0 0L0 60L20 60L20 90L10 90L10 70L0 70L0 110L50 110L50 90L60 90L60 100L70 100L70 110L110 110L110 70L100 70L100 80L90 80L90 60L100 60L100 50L110 50L110 0L70 0L70 20L50 20L50 10L60 10L60 0L50 0L50 10L40 10L40 0L0 0z"/>
<path style="fill:#ffffff; stroke:none;" d="M40 0L40 10L50 10L50 0L40 0M60 0L60 10L50 10L50 20L70 20L70 0L60 0M10 20L10 30L20 30L20 20L10 20M30 30L30 80L80 80L80 30L30 30z"/>
<path style="fill:#000000; stroke:none;" d="M60 40L60 60L50 60L50 50L40 50L40 60L50 60L50 70L60 70L60 60L70 60L70 40L60 40z"/>
<path style="fill:#ffffff; stroke:none;" d="M100 50L100 60L90 60L90 80L100 80L100 70L110 70L110 50L100 50M0 60L0 70L10 70L10 90L20 90L20 60L0 60M50 90L50 110L70 110L70 100L60 100L60 90L50 90z"/>
</svg>
