<?xml version="1.0" standalone="yes"?>
<svg xmlns="http://www.w3.org/2000/svg" width="110" height="110">
<path style="fill:#000000; stroke:none;" d="M0 0L0 110L50 110L50 100L30 100L30 90L80 90L80 100L70 100L70 110L110 110L110 70L100 70L100 80L90 80L90 50L100 50L100 60L110 60L110 50L100 50L100 40L110 40L110 0L70 0L70 10L80 10L80 20L60 20L60 0L50 0L50 20L40 20L40 0L0 0z"/>
<path style="fill:#ffffff; stroke:none;" d="M40 0L40 20L50 20L50 0L40 0M60 0L60 20L80 20L80 10L70 10L70 0L60 0M90 20L90 30L100 30L100 20L90 20M10 30L10 50L20 50L20 30L10 30M30 30L30 80L80 80L80 30L30 30z"/>
<path style="fill:#000000; stroke:none;" d="M40 40L40 60L60 60L60 40L40 40z"/>
<path style="fill:#ffffff; stroke:none;" d="M100 40L100 50L110 50L110 40L100 40M90 50L90 80L100 80L100 70L110 70L110 60L100 60L100 50L90 50M10 60L10 70L20 70L20 60L10 60M30 90L30 100L50 100L50 110L70 110L70 100L80 100L80 90L30 90z"/>
</svg>
