<?xml version="1.0" standalone="yes"?>
<svg xmlns="http://www.w3.org/2000/svg" width="110" height="110">
<path style="fill:#000000; stroke:none;" d="M0 0L0 40L10 40L10 50L0 50L0 110L40 110L40 100L50 100L50 110L60 110L60 100L70 100L70 110L110 110L110 70L90 70L90 60L110 60L110 50L90 50L90 40L110 40L110 0L70 0L70 10L40 10L40 0L0 0z"/>
<path style="fill:#ffffff; stroke:none;" d="M40 0L40 10L70 10L70 0L40 0M20 10L20 20L30 20L30 10L20 10M70 10L70 20L80 20L80 10L70 10M90 20L90 30L100 30L100 20L90 20M30 30L30 80L80 80L80 30L30 30M0 40L0 50L10 50L10 40L0 40z"/>
<path style="fill:#000000; stroke:none;" d="M60 40L60 50L50 50L50 60L40 60L40 70L60 70L60 60L70 60L70 40L60 40z"/>
<path style="fill:#ffffff; stroke:none;" d="M90 40L90 50L110 50L110 40L90 40M10 60L10 70L20 70L20 60L10 60M90 60L90 70L110 70L110 60L90 60M10 80L10 90L20 90L20 100L40 100L40 90L20 90L20 80L10 80M90 80L90 90L70 90L70 100L90 100L90 90L100 90L100 80L90 80M50 90L50 100L60 100L60 90L50 90M40 100L40 110L50 110L50 100L40 100M60 100L60 110L70 110L70 100L60 100z"/>
</svg>
