<?xml version="1.0" standalone="yes"?>
<svg xmlns="http://www.w3.org/2000/svg" width="110" height="110">
<path style="fill:#000000; stroke:none;" d="M0 0L0 40L10 40L10 30L20 30L20 70L10 70L10 50L0 50L0 110L110 110L110 70L90 70L90 60L110 60L110 0L70 0L70 10L80 10L80 20L60 20L60 10L50 10L50 20L30 20L30 10L40 10L40 0L0 0z"/>
<path style="fill:#ffffff; stroke:none;" d="M40 0L40 10L30 10L30 20L50 20L50 10L60 10L60 20L80 20L80 10L70 10L70 0L40 0M90 20L90 30L100 30L100 20L90 20M10 30L10 40L0 40L0 50L10 50L10 70L20 70L20 30L10 30M30 30L30 80L80 80L80 30L30 30z"/>
<path style="fill:#000000; stroke:none;" d="M50 40L50 70L70 70L70 60L60 60L60 40L50 40z"/>
<path style="fill:#ffffff; stroke:none;" d="M90 60L90 70L110 70L110 60L90 60M20 90L20 100L30 100L30 90L20 90M40 90L40 100L50 100L50 90L40 90M80 90L80 100L90 100L90 90L80 90z"/>
</svg>
