<?xml version="1.0" standalone="yes"?>
<svg xmlns="http://www.w3.org/2000/svg" width="110" height="110">
<path style="fill:#000000; stroke:none;" d="M0 0L0 40L10 40L10 30L20 30L20 90L10 90L10 70L0 70L0 110L40 110L40 90L70 90L70 110L110 110L110 0L50 0L50 20L40 20L40 0L0 0z"/>
<path style="fill:#ffffff; stroke:none;" d="M40 0L40 20L50 20L50 0L40 0M60 10L60 20L70 20L70 10L60 10M80 10L80 20L90 20L90 10L80 10M10 30L10 40L0 40L0 70L10 70L10 90L20 90L20 30L10 30M30 30L30 80L80 80L80 30L30 30M90 30L90 40L100 40L100 30L90 30z"/>
<path style="fill:#000000; stroke:none;" d="M40 50L40 60L50 60L50 70L60 70L60 60L50 60L50 50L40 50z"/>
<path style="fill:#ffffff; stroke:none;" d="M90 70L90 80L100 80L100 70L90 70M20 90L20 100L30 100L30 90L20 90M40 90L40 110L50 110L50 100L60 100L60 110L70 110L70 90L40 90z"/>
<path style="fill:#000000; stroke:none;" d="M50 100L50 110L60 110L60 100L50 100z"/>
</svg>
