<?xml version="1.0" standalone="yes"?>
<svg xmlns="http://www.w3.org/2000/svg" width="110" height="110">
<path style="fill:#000000; stroke:none;" d="M0 0L0 40L10 40L10 30L20 30L20 50L10 50L10 70L0 70L0 110L50 110L50 100L60 100L60 110L110 110L110 60L90 60L90 40L100 40L100 50L110 50L110 0L70 0L70 10L60 10L60 0L50 0L50 20L40 20L40 0L0 0z"/>
<path style="fill:#ffffff; stroke:none;" d="M40 0L40 20L50 20L50 0L40 0M60 0L60 10L70 10L70 0L60 0M10 30L10 40L0 40L0 70L10 70L10 50L20 50L20 30L10 30M30 30L30 80L80 80L80 30L30 30z"/>
<path style="fill:#000000; stroke:none;" d="M40 40L40 50L60 50L60 60L50 60L50 70L60 70L60 60L70 60L70 40L40 40z"/>
<path style="fill:#ffffff; stroke:none;" d="M90 40L90 60L110 60L110 50L100 50L100 40L90 40M90 70L90 90L100 90L100 70L90 70M10 80L10 90L20 90L20 80L10 80M30 90L30 100L50 100L50 90L30 90M60 90L60 100L80 100L80 90L60 90M50 100L50 110L60 110L60 100L50 100z"/>
</svg>
