<?xml version="1.0" standalone="yes"?>
<svg xmlns="http://www.w3.org/2000/svg" width="110" height="110">
<path style="fill:#000000; stroke:none;" d="M0 0L0 40L10 40L10 20L20 20L20 50L0 50L0 110L40 110L40 90L50 90L50 110L110 110L110 70L90 70L90 50L100 50L100 60L110 60L110 0L0 0z"/>
<path style="fill:#ffffff; stroke:none;" d="M20 10L20 20L30 20L30 10L20 10M40 10L40 20L80 20L80 10L40 10M10 20L10 40L0 40L0 50L20 50L20 20L10 20M30 30L30 80L80 80L80 30L30 30z"/>
<path style="fill:#000000; stroke:none;" d="M40 40L40 50L50 50L50 70L60 70L60 60L70 60L70 50L50 50L50 40L40 40z"/>
<path style="fill:#ffffff; stroke:none;" d="M90 50L90 70L110 70L110 60L100 60L100 50L90 50M10 60L10 80L20 80L20 60L10 60M20 90L20 100L30 100L30 90L20 90M40 90L40 110L50 110L50 90L40 90M80 90L80 100L90 100L90 90L80 90z"/>
</svg>
