<?xml version="1.0" standalone="yes"?>
<svg xmlns="http://www.w3.org/2000/svg" width="110" height="110">
<path style="fill:#000000; stroke:none;" d="M0 0L0 110L40 110L40 100L50 100L50 110L60 110L60 100L50 100L50 90L90 90L90 100L70 100L70 110L110 110L110 60L100 60L100 50L90 50L90 40L110 40L110 0L70 0L70 10L80 10L80 20L30 20L30 10L40 10L40 0L0 0z"/>
<path style="fill:#ffffff; stroke:none;" d="M40 0L40 10L30 10L30 20L80 20L80 10L70 10L70 0L40 0M10 20L10 30L20 30L20 20L10 20M90 20L90 30L100 30L100 20L90 20M30 30L30 80L80 80L80 30L30 30M90 40L90 50L100 50L100 60L110 60L110 40L90 40M10 50L10 90L20 90L20 50L10 50z"/>
<path style="fill:#000000; stroke:none;" d="M40 50L40 70L50 70L50 50L40 50M60 60L60 70L70 70L70 60L60 60z"/>
<path style="fill:#ffffff; stroke:none;" d="M50 90L50 100L60 100L60 110L70 110L70 100L90 100L90 90L50 90M40 100L40 110L50 110L50 100L40 100z"/>
</svg>
