<?xml version="1.0" standalone="yes"?>
<svg xmlns="http://www.w3.org/2000/svg" width="110" height="110">
<path style="fill:#000000; stroke:none;" d="M0 0L0 60L10 60L10 70L0 70L0 110L50 110L50 100L60 100L60 110L110 110L110 60L100 60L100 70L90 70L90 30L100 30L100 50L110 50L110 0L70 0L70 10L60 10L60 0L0 0z"/>
<path style="fill:#ffffff; stroke:none;" d="M60 0L60 10L70 10L70 0L60 0M20 10L20 20L10 20L10 30L20 30L20 20L30 20L30 10L20 10M40 10L40 20L60 20L60 10L40 10M30 30L30 80L80 80L80 30L30 30M90 30L90 70L100 70L100 60L110 60L110 50L100 50L100 30L90 30z"/>
<path style="fill:#000000; stroke:none;" d="M40 40L40 60L50 60L50 70L70 70L70 50L60 50L60 40L40 40z"/>
<path style="fill:#ffffff; stroke:none;" d="M10 50L10 60L20 60L20 50L10 50M0 60L0 70L10 70L10 60L0 60M10 70L10 80L20 80L20 70L10 70M90 80L90 90L60 90L60 100L90 100L90 90L100 90L100 80L90 80M30 90L30 100L40 100L40 90L30 90M50 100L50 110L60 110L60 100L50 100z"/>
</svg>
