<?xml version="1.0" standalone="yes"?>
<svg xmlns="http://www.w3.org/2000/svg" width="110" height="110">
<path style="fill:#000000; stroke:none;" d="M0 0L0 60L10 60L10 50L20 50L20 70L0 70L0 110L60 110L60 90L80 90L80 100L70 100L70 110L110 110L110 70L100 70L100 90L90 90L90 60L100 60L100 50L110 50L110 0L70 0L70 10L90 10L90 20L50 20L50 0L0 0z"/>
<path style="fill:#ffffff; stroke:none;" d="M50 0L50 20L90 20L90 10L70 10L70 0L50 0M90 20L90 50L100 50L100 20L90 20M30 30L30 80L80 80L80 30L30 30z"/>
<path style="fill:#000000; stroke:none;" d="M60 40L60 50L70 50L70 40L60 40z"/>
<path style="fill:#ffffff; stroke:none;" d="M10 50L10 60L0 60L0 70L20 70L20 50L10 50M100 50L100 60L90 60L90 90L100 90L100 70L110 70L110 50L100 50z"/>
<path style="fill:#000000; stroke:none;" d="M40 60L40 70L70 70L70 60L40 60z"/>
<path style="fill:#ffffff; stroke:none;" d="M10 80L10 90L20 90L20 80L10 80M30 90L30 100L40 100L40 90L30 90M60 90L60 110L70 110L70 100L80 100L80 90L60 90z"/>
</svg>
