<?xml version="1.0" standalone="yes"?>
<svg xmlns="http://www.w3.org/2000/svg" width="110" height="110">
<path style="fill:#000000; stroke:none;" d="M0 0L0 40L10 40L10 50L0 50L0 60L10 60L10 70L0 70L0 110L60 110L60 100L70 100L70 110L110 110L110 0L0 0z"/>
<path style="fill:#ffffff; stroke:none;" d="M60 10L60 20L90 20L90 30L100 30L100 20L90 20L90 10L60 10M10 20L10 40L20 40L20 20L10 20M30 30L30 80L80 80L80 30L30 30M0 40L0 50L10 50L10 40L0 40z"/>
<path style="fill:#000000; stroke:none;" d="M40 40L40 50L50 50L50 70L70 70L70 60L60 60L60 40L40 40z"/>
<path style="fill:#ffffff; stroke:none;" d="M90 50L90 60L100 60L100 50L90 50M0 60L0 70L10 70L10 60L0 60M10 70L10 80L20 80L20 70L10 70M90 70L90 90L70 90L70 100L90 100L90 90L100 90L100 70L90 70M60 100L60 110L70 110L70 100L60 100z"/>
</svg>
