<?xml version="1.0" standalone="yes"?>
<svg xmlns="http://www.w3.org/2000/svg" width="110" height="110">
<path style="fill:#000000; stroke:none;" d="M0 0L0 110L50 110L50 100L40 100L40 90L90 90L90 100L70 100L70 110L110 110L110 70L100 70L100 60L110 60L110 50L90 50L90 40L110 40L110 0L70 0L70 10L60 10L60 0L0 0z"/>
<path style="fill:#ffffff; stroke:none;" d="M60 0L60 10L70 10L70 0L60 0M20 10L20 20L60 20L60 10L20 10M30 30L30 80L80 80L80 30L30 30z"/>
<path style="fill:#000000; stroke:none;" d="M40 40L40 60L50 60L50 70L60 70L60 60L70 60L70 40L60 40L60 50L50 50L50 40L40 40z"/>
<path style="fill:#ffffff; stroke:none;" d="M90 40L90 50L110 50L110 40L90 40M10 50L10 60L20 60L20 50L10 50M100 60L100 70L110 70L110 60L100 60M40 90L40 100L50 100L50 110L70 110L70 100L90 100L90 90L40 90z"/>
</svg>
