<?xml version="1.0" standalone="yes"?>
<svg xmlns="http://www.w3.org/2000/svg" width="110" height="110">
<path style="fill:#000000; stroke:none;" d="M0 0L0 110L50 110L50 100L40 100L40 90L70 90L70 100L60 100L60 110L110 110L110 60L90 60L90 50L110 50L110 0L70 0L70 10L90 10L90 20L20 20L20 10L40 10L40 0L0 0z"/>
<path style="fill:#ffffff; stroke:none;" d="M40 0L40 10L20 10L20 20L90 20L90 10L70 10L70 0L40 0M90 20L90 30L100 30L100 20L90 20M30 30L30 80L80 80L80 30L30 30M10 40L10 50L20 50L20 40L10 40z"/>
<path style="fill:#000000; stroke:none;" d="M40 40L40 70L60 70L60 50L70 50L70 40L40 40z"/>
<path style="fill:#ffffff; stroke:none;" d="M90 50L90 60L110 60L110 50L90 50M10 70L10 80L20 80L20 70L10 70M90 80L90 90L100 90L100 80L90 80M20 90L20 100L30 100L30 90L20 90M40 90L40 100L50 100L50 110L60 110L60 100L70 100L70 90L40 90z"/>
</svg>
