<?xml version="1.0" standalone="yes"?>
<svg xmlns="http://www.w3.org/2000/svg" width="110" height="110">
<path style="fill:#000000; stroke:none;" d="M0 0L0 40L10 40L10 30L20 30L20 50L10 50L10 60L0 60L0 110L40 110L40 90L50 90L50 110L110 110L110 70L90 70L90 50L100 50L100 60L110 60L110 0L60 0L60 10L80 10L80 20L40 20L40 10L50 10L50 0L0 0z"/>
<path style="fill:#ffffff; stroke:none;" d="M50 0L50 10L40 10L40 20L80 20L80 10L60 10L60 0L50 0M10 30L10 40L0 40L0 60L10 60L10 50L20 50L20 30L10 30M30 30L30 80L80 80L80 30L30 30M90 30L90 40L100 40L100 30L90 30z"/>
<path style="fill:#000000; stroke:none;" d="M40 40L40 60L70 60L70 50L50 50L50 40L40 40z"/>
<path style="fill:#ffffff; stroke:none;" d="M90 50L90 70L110 70L110 60L100 60L100 50L90 50M10 60L10 70L20 70L20 60L10 60M10 80L10 90L20 90L20 80L10 80M90 80L90 90L70 90L70 100L90 100L90 90L100 90L100 80L90 80M40 90L40 110L50 110L50 90L40 90z"/>
</svg>
