<?xml version="1.0" standalone="yes"?>
<svg xmlns="http://www.w3.org/2000/svg" width="110" height="110">
<path style="fill:#000000; stroke:none;" d="M0 0L0 60L10 60L10 20L20 20L20 80L10 80L10 70L0 70L0 110L50 110L50 100L70 100L70 110L110 110L110 60L100 60L100 90L90 90L90 50L110 50L110 0L70 0L70 20L60 20L60 10L50 10L50 0L0 0z"/>
<path style="fill:#ffffff; stroke:none;" d="M50 0L50 10L60 10L60 20L70 20L70 0L50 0M20 10L20 20L40 20L40 10L20 10M10 20L10 60L0 60L0 70L10 70L10 80L20 80L20 20L10 20M90 20L90 30L100 30L100 20L90 20M30 30L30 80L80 80L80 30L30 30z"/>
<path style="fill:#000000; stroke:none;" d="M50 40L50 50L60 50L60 70L70 70L70 50L60 50L60 40L50 40z"/>
<path style="fill:#ffffff; stroke:none;" d="M90 50L90 90L100 90L100 60L110 60L110 50L90 50M20 90L20 100L30 100L30 90L20 90M50 100L50 110L70 110L70 100L50 100z"/>
</svg>
