<?xml version="1.0" standalone="yes"?>
<svg xmlns="http://www.w3.org/2000/svg" width="110" height="110">
<path style="fill:#000000; stroke:none;" d="M0 0L0 110L50 110L50 100L60 100L60 110L110 110L110 70L100 70L100 50L110 50L110 0L70 0L70 20L50 20L50 10L40 10L40 0L0 0z"/>
<path style="fill:#ffffff; stroke:none;" d="M40 0L40 10L50 10L50 20L70 20L70 0L40 0M80 10L80 20L90 20L90 50L100 50L100 20L90 20L90 10L80 10M10 20L10 40L20 40L20 20L10 20M30 30L30 80L80 80L80 30L30 30M10 50L10 80L20 80L20 50L10 50z"/>
<path style="fill:#000000; stroke:none;" d="M60 50L60 60L40 60L40 70L70 70L70 50L60 50z"/>
<path style="fill:#ffffff; stroke:none;" d="M100 50L100 70L110 70L110 50L100 50M90 70L90 90L80 90L80 100L90 100L90 90L100 90L100 70L90 70M20 90L20 100L30 100L30 90L20 90M40 90L40 100L50 100L50 90L40 90M50 100L50 110L60 110L60 100L50 100z"/>
</svg>
