<?xml version="1.0" standalone="yes"?>
<svg xmlns="http://www.w3.org/2000/svg" width="110" height="110">
<path style="fill:#000000; stroke:none;" d="M0 0L0 110L50 110L50 100L70 100L70 110L110 110L110 70L100 70L100 50L110 50L110 0L70 0L70 20L60 20L60 0L0 0z"/>
<path style="fill:#ffffff; stroke:none;" d="M60 0L60 20L70 20L70 0L60 0M20 10L20 20L10 20L10 50L20 50L20 20L30 20L30 10L20 10M40 10L40 20L50 20L50 10L40 10M30 30L30 80L80 80L80 30L30 30M90 30L90 50L100 50L100 30L90 30z"/>
<path style="fill:#000000; stroke:none;" d="M50 40L50 50L40 50L40 60L50 60L50 70L70 70L70 50L60 50L60 40L50 40z"/>
<path style="fill:#ffffff; stroke:none;" d="M50 50L50 60L60 60L60 50L50 50M100 50L100 70L110 70L110 50L100 50M10 60L10 70L20 70L20 60L10 60M10 80L10 90L20 90L20 80L10 80M40 90L40 100L50 100L50 90L40 90M70 90L70 100L80 100L80 90L70 90M50 100L50 110L70 110L70 100L50 100z"/>
</svg>
