<?xml version="1.0" standalone="yes"?>
<svg xmlns="http://www.w3.org/2000/svg" width="110" height="110">
<path style="fill:#000000; stroke:none;" d="M0 0L0 40L20 40L20 50L0 50L0 110L50 110L50 90L60 90L60 110L110 110L110 70L100 70L100 90L90 90L90 60L110 60L110 0L0 0z"/>
<path style="fill:#ffffff; stroke:none;" d="M20 10L20 20L10 20L10 30L20 30L20 20L30 20L30 10L20 10M60 10L60 20L90 20L90 50L100 50L100 20L90 20L90 10L60 10M30 30L30 80L80 80L80 30L30 30M0 40L0 50L20 50L20 40L0 40z"/>
<path style="fill:#000000; stroke:none;" d="M60 40L60 50L50 50L50 70L60 70L60 60L70 60L70 40L60 40z"/>
<path style="fill:#ffffff; stroke:none;" d="M10 60L10 70L20 70L20 60L10 60M90 60L90 90L100 90L100 70L110 70L110 60L90 60M50 90L50 110L60 110L60 90L50 90M70 90L70 100L80 100L80 90L70 90z"/>
</svg>
