<?xml version="1.0" standalone="yes"?>
<svg xmlns="http://www.w3.org/2000/svg" width="110" height="110">
<path style="fill:#000000; stroke:none;" d="M0 0L0 50L10 50L10 70L0 70L0 110L40 110L40 90L50 90L50 100L60 100L60 110L110 110L110 70L100 70L100 50L110 50L110 0L70 0L70 10L60 10L60 0L50 0L50 20L20 20L20 10L40 10L40 0L0 0z"/>
<path style="fill:#ffffff; stroke:none;" d="M40 0L40 10L20 10L20 20L50 20L50 0L40 0M60 0L60 10L70 10L70 0L60 0M70 10L70 20L90 20L90 10L70 10M30 30L30 80L80 80L80 30L30 30M90 30L90 40L100 40L100 30L90 30z"/>
<path style="fill:#000000; stroke:none;" d="M50 40L50 50L60 50L60 60L50 60L50 70L70 70L70 50L60 50L60 40L50 40z"/>
<path style="fill:#ffffff; stroke:none;" d="M0 50L0 70L10 70L10 50L0 50M100 50L100 70L110 70L110 50L100 50M10 80L10 90L20 90L20 100L30 100L30 90L20 90L20 80L10 80M40 90L40 110L60 110L60 100L50 100L50 90L40 90M70 90L70 100L90 100L90 90L70 90z"/>
</svg>
