<?xml version="1.0" standalone="yes"?>
<svg xmlns="http://www.w3.org/2000/svg" width="110" height="110">
<path style="fill:#000000; stroke:none;" d="M0 0L0 110L40 110L40 100L60 100L60 90L80 90L80 100L70 100L70 110L110 110L110 70L100 70L100 80L90 80L90 60L110 60L110 50L90 50L90 20L100 20L100 40L110 40L110 0L60 0L60 10L50 10L50 0L0 0z"/>
<path style="fill:#ffffff; stroke:none;" d="M50 0L50 10L60 10L60 0L50 0M20 10L20 20L40 20L40 10L20 10M60 10L60 20L90 20L90 10L60 10M90 20L90 50L110 50L110 40L100 40L100 20L90 20M30 30L30 80L80 80L80 30L30 30z"/>
<path style="fill:#000000; stroke:none;" d="M40 50L40 70L70 70L70 50L40 50z"/>
<path style="fill:#ffffff; stroke:none;" d="M90 60L90 80L100 80L100 70L110 70L110 60L90 60M20 90L20 100L40 100L40 90L20 90M60 90L60 100L40 100L40 110L70 110L70 100L80 100L80 90L60 90z"/>
</svg>
