<?xml version="1.0" standalone="yes"?>
<svg xmlns="http://www.w3.org/2000/svg" width="110" height="110">
<path style="fill:#000000; stroke:none;" d="M0 0L0 50L10 50L10 70L0 70L0 110L50 110L50 90L60 90L60 100L70 100L70 110L110 110L110 70L90 70L90 20L100 20L100 50L110 50L110 0L70 0L70 10L50 10L50 0L0 0z"/>
<path style="fill:#ffffff; stroke:none;" d="M50 0L50 10L70 10L70 0L50 0M20 10L20 20L10 20L10 40L20 40L20 20L30 20L30 10L20 10M70 10L70 20L80 20L80 10L70 10M90 20L90 70L110 70L110 50L100 50L100 20L90 20M30 30L30 80L80 80L80 30L30 30M0 50L0 70L10 70L10 50L0 50z"/>
<path style="fill:#000000; stroke:none;" d="M40 50L40 70L70 70L70 60L50 60L50 50L40 50z"/>
<path style="fill:#ffffff; stroke:none;" d="M10 70L10 80L20 80L20 70L10 70M20 90L20 100L40 100L40 90L20 90M50 90L50 110L70 110L70 100L60 100L60 90L50 90M80 90L80 100L90 100L90 90L80 90z"/>
</svg>
