<?xml version="1.0" standalone="yes"?>
<svg xmlns="http://www.w3.org/2000/svg" width="110" height="110">
<path style="fill:#000000; stroke:none;" d="M0 0L0 60L20 60L20 80L10 80L10 70L0 70L0 110L40 110L40 100L50 100L50 110L60 110L60 90L80 90L80 100L70 100L70 110L110 110L110 70L100 70L100 80L90 80L90 50L100 50L100 40L110 40L110 0L70 0L70 10L60 10L60 0L0 0z"/>
<path style="fill:#ffffff; stroke:none;" d="M60 0L60 10L70 10L70 0L60 0M30 10L30 20L60 20L60 10L30 10M70 10L70 20L90 20L90 10L70 10M10 20L10 50L20 50L20 20L10 20M30 30L30 80L80 80L80 30L30 30z"/>
<path style="fill:#000000; stroke:none;" d="M40 40L40 60L60 60L60 50L70 50L70 40L40 40z"/>
<path style="fill:#ffffff; stroke:none;" d="M100 40L100 50L90 50L90 80L100 80L100 70L110 70L110 40L100 40M0 60L0 70L10 70L10 80L20 80L20 60L0 60M30 90L30 100L40 100L40 90L30 90M60 90L60 110L70 110L70 100L80 100L80 90L60 90M40 100L40 110L50 110L50 100L40 100z"/>
</svg>
