<?xml version="1.0" standalone="yes"?>
<svg xmlns="http://www.w3.org/2000/svg" width="110" height="110">
<path style="fill:#000000; stroke:none;" d="M0 0L0 50L20 50L20 70L10 70L10 60L0 60L0 110L40 110L40 90L50 90L50 100L60 100L60 110L110 110L110 70L100 70L100 60L90 60L90 20L100 20L100 50L110 50L110 0L60 0L60 20L20 20L20 10L50 10L50 0L0 0z"/>
<path style="fill:#ffffff; stroke:none;" d="M50 0L50 10L20 10L20 20L60 20L60 0L50 0M70 10L70 20L80 20L80 10L70 10M90 20L90 60L100 60L100 70L110 70L110 50L100 50L100 20L90 20M30 30L30 80L80 80L80 30L30 30M0 50L0 60L10 60L10 70L20 70L20 50L0 50z"/>
<path style="fill:#000000; stroke:none;" d="M40 50L40 60L70 60L70 50L40 50z"/>
<path style="fill:#ffffff; stroke:none;" d="M90 70L90 90L100 90L100 70L90 70M40 90L40 110L60 110L60 100L50 100L50 90L40 90M70 90L70 100L80 100L80 90L70 90z"/>
</svg>
