<?xml version="1.0" standalone="yes"?>
<svg xmlns="http://www.w3.org/2000/svg" width="110" height="110">
<path style="fill:#000000; stroke:none;" d="M0 0L0 40L20 40L20 50L0 50L0 110L50 110L50 100L30 100L30 90L90 90L90 100L60 100L60 110L110 110L110 70L100 70L100 60L110 60L110 0L60 0L60 10L90 10L90 20L50 20L50 0L0 0z"/>
<path style="fill:#ffffff; stroke:none;" d="M50 0L50 20L90 20L90 10L60 10L60 0L50 0M10 20L10 30L20 30L20 20L10 20M30 30L30 80L80 80L80 30L30 30M0 40L0 50L20 50L20 40L0 40z"/>
<path style="fill:#000000; stroke:none;" d="M50 40L50 60L70 60L70 40L50 40z"/>
<path style="fill:#ffffff; stroke:none;" d="M90 40L90 50L100 50L100 40L90 40M100 60L100 70L110 70L110 60L100 60M10 80L10 90L20 90L20 80L10 80M30 90L30 100L50 100L50 110L60 110L60 100L90 100L90 90L30 90z"/>
</svg>
