<?xml version="1.0" standalone="yes"?>
<svg xmlns="http://www.w3.org/2000/svg" width="110" height="110">
<path style="fill:#000000; stroke:none;" d="M0 0L0 50L10 50L10 60L0 60L0 110L40 110L40 90L50 90L50 100L60 100L60 90L70 90L70 110L110 110L110 70L100 70L100 80L90 80L90 50L100 50L100 60L110 60L110 50L100 50L100 40L110 40L110 0L70 0L70 20L50 20L50 0L0 0z"/>
<path style="fill:#ffffff; stroke:none;" d="M50 0L50 20L70 20L70 0L50 0M30 10L30 20L40 20L40 10L30 10M90 20L90 30L100 30L100 20L90 20M10 30L10 50L20 50L20 30L10 30M30 30L30 80L80 80L80 30L30 30M100 40L100 50L110 50L110 40L100 40M0 50L0 60L10 60L10 50L0 50z"/>
<path style="fill:#000000; stroke:none;" d="M60 50L60 60L50 60L50 70L60 70L60 60L70 60L70 50L60 50z"/>
<path style="fill:#ffffff; stroke:none;" d="M90 50L90 80L100 80L100 70L110 70L110 60L100 60L100 50L90 50M10 60L10 90L20 90L20 100L30 100L30 90L20 90L20 60L10 60M40 90L40 110L70 110L70 90L60 90L60 100L50 100L50 90L40 90M80 90L80 100L90 100L90 90L80 90z"/>
</svg>
