<?xml version="1.0" standalone="yes"?>
<svg xmlns="http://www.w3.org/2000/svg" width="110" height="110">
<path style="fill:#000000; stroke:none;" d="M0 0L0 40L10 40L10 30L20 30L20 50L0 50L0 110L110 110L110 70L100 70L100 80L90 80L90 20L100 20L100 60L110 60L110 0L60 0L60 10L50 10L50 0L0 0z"/>
<path style="fill:#ffffff; stroke:none;" d="M50 0L50 10L60 10L60 0L50 0M20 10L20 20L40 20L40 10L20 10M60 10L60 20L70 20L70 10L60 10M80 10L80 20L90 20L90 10L80 10M90 20L90 80L100 80L100 70L110 70L110 60L100 60L100 20L90 20M10 30L10 40L0 40L0 50L20 50L20 30L10 30M30 30L30 80L80 80L80 30L30 30z"/>
<path style="fill:#000000; stroke:none;" d="M50 40L50 50L40 50L40 70L70 70L70 40L50 40z"/>
<path style="fill:#ffffff; stroke:none;" d="M50 50L50 60L60 60L60 50L50 50M10 60L10 90L20 90L20 100L60 100L60 90L20 90L20 60L10 60M80 90L80 100L90 100L90 90L80 90z"/>
</svg>
