<?xml version="1.0" standalone="yes"?>
<svg xmlns="http://www.w3.org/2000/svg" width="110" height="110">
<path style="fill:#000000; stroke:none;" d="M0 0L0 60L10 60L10 50L20 50L20 90L10 90L10 70L0 70L0 110L40 110L40 100L20 100L20 90L50 90L50 100L60 100L60 90L70 90L70 110L110 110L110 70L100 70L100 60L110 60L110 0L50 0L50 10L70 10L70 20L30 20L30 10L40 10L40 0L0 0z"/>
<path style="fill:#ffffff; stroke:none;" d="M40 0L40 10L30 10L30 20L70 20L70 10L50 10L50 0L40 0M80 10L80 20L90 20L90 10L80 10M10 20L10 40L20 40L20 20L10 20M30 30L30 80L80 80L80 30L30 30M90 30L90 40L100 40L100 30L90 30z"/>
<path style="fill:#000000; stroke:none;" d="M40 40L40 70L60 70L60 60L50 60L50 50L70 50L70 40L40 40z"/>
<path style="fill:#ffffff; stroke:none;" d="M10 50L10 60L0 60L0 70L10 70L10 90L20 90L20 50L10 50M100 60L100 70L110 70L110 60L100 60M90 70L90 80L100 80L100 70L90 70M20 90L20 100L40 100L40 110L70 110L70 90L60 90L60 100L50 100L50 90L20 90M80 90L80 100L90 100L90 90L80 90z"/>
</svg>
