<?xml version="1.0" standalone="yes"?>
<svg xmlns="http://www.w3.org/2000/svg" width="110" height="110">
<path style="fill:#000000; stroke:none;" d="M0 0L0 60L10 60L10 70L0 70L0 110L40 110L40 100L50 100L50 110L110 110L110 0L70 0L70 20L50 20L50 10L40 10L40 0L0 0z"/>
<path style="fill:#ffffff; stroke:none;" d="M40 0L40 10L50 10L50 20L70 20L70 0L40 0M30 10L30 20L40 20L40 10L30 10M90 20L90 30L100 30L100 20L90 20M30 30L30 80L80 80L80 30L30 30M10 40L10 50L20 50L20 40L10 40z"/>
<path style="fill:#000000; stroke:none;" d="M60 40L60 50L50 50L50 60L40 60L40 70L50 70L50 60L70 60L70 40L60 40z"/>
<path style="fill:#ffffff; stroke:none;" d="M0 60L0 70L10 70L10 60L0 60M10 70L10 90L20 90L20 70L10 70M90 70L90 90L80 90L80 100L90 100L90 90L100 90L100 70L90 70M30 90L30 100L40 100L40 90L30 90M40 100L40 110L50 110L50 100L40 100z"/>
</svg>
