<?xml version="1.0" standalone="yes"?>
<svg xmlns="http://www.w3.org/2000/svg" width="110" height="110">
<path style="fill:#000000; stroke:none;" d="M0 0L0 50L10 50L10 60L0 60L0 110L40 110L40 90L60 90L60 100L50 100L50 110L60 110L60 100L70 100L70 110L110 110L110 70L100 70L100 50L110 50L110 0L0 0z"/>
<path style="fill:#ffffff; stroke:none;" d="M30 10L30 20L40 20L40 10L30 10M90 20L90 30L100 30L100 20L90 20M10 30L10 40L20 40L20 30L10 30M30 30L30 80L80 80L80 30L30 30z"/>
<path style="fill:#000000; stroke:none;" d="M60 40L60 60L50 60L50 70L70 70L70 40L60 40z"/>
<path style="fill:#ffffff; stroke:none;" d="M0 50L0 60L10 60L10 50L0 50M100 50L100 70L110 70L110 50L100 50M10 70L10 80L20 80L20 70L10 70M90 70L90 80L100 80L100 70L90 70M20 90L20 100L30 100L30 90L20 90M40 90L40 110L50 110L50 100L60 100L60 90L40 90M70 90L70 100L80 100L80 90L70 90M60 100L60 110L70 110L70 100L60 100z"/>
</svg>
