<?xml version="1.0" standalone="yes"?>
<svg xmlns="http://www.w3.org/2000/svg" width="110" height="110">
<path style="fill:#000000; stroke:none;" d="M0 0L0 40L20 40L20 70L0 70L0 110L50 110L50 100L60 100L60 110L110 110L110 70L100 70L100 60L90 60L90 50L100 50L100 40L110 40L110 0L70 0L70 20L50 20L50 10L40 10L40 0L0 0z"/>
<path style="fill:#ffffff; stroke:none;" d="M40 0L40 10L50 10L50 20L70 20L70 0L40 0M30 10L30 20L40 20L40 10L30 10M30 30L30 80L80 80L80 30L30 30M90 30L90 40L100 40L100 30L90 30M0 40L0 70L20 70L20 40L0 40z"/>
<path style="fill:#000000; stroke:none;" d="M50 40L50 50L60 50L60 60L50 60L50 70L60 70L60 60L70 60L70 50L60 50L60 40L50 40z"/>
<path style="fill:#ffffff; stroke:none;" d="M100 40L100 50L90 50L90 60L100 60L100 70L110 70L110 40L100 40M90 70L90 80L100 80L100 70L90 70M20 90L20 100L30 100L30 90L20 90M40 90L40 100L50 100L50 90L40 90M70 90L70 100L90 100L90 90L70 90M50 100L50 110L60 110L60 100L50 100z"/>
</svg>
