<?xml version="1.0" standalone="yes"?>
<svg xmlns="http://www.w3.org/2000/svg" width="110" height="110">
<path style="fill:#000000; stroke:none;" d="M0 0L0 50L10 50L10 60L0 60L0 110L40 110L40 100L50 100L50 110L60 110L60 100L70 100L70 110L110 110L110 50L100 50L100 40L110 40L110 0L60 0L60 10L50 10L50 20L20 20L20 10L40 10L40 0L0 0z"/>
<path style="fill:#ffffff; stroke:none;" d="M40 0L40 10L20 10L20 20L50 20L50 10L60 10L60 0L40 0M60 10L60 20L70 20L70 10L60 10M80 10L80 20L90 20L90 40L100 40L100 20L90 20L90 10L80 10M10 30L10 50L20 50L20 30L10 30M30 30L30 80L80 80L80 30L30 30M100 40L100 50L110 50L110 40L100 40M0 50L0 60L10 60L10 50L0 50M90 50L90 90L100 90L100 50L90 50z"/>
<path style="fill:#000000; stroke:none;" d="M50 60L50 70L60 70L60 60L50 60z"/>
<path style="fill:#ffffff; stroke:none;" d="M30 90L30 100L40 100L40 90L30 90M50 90L50 100L60 100L60 90L50 90M40 100L40 110L50 110L50 100L40 100M60 100L60 110L70 110L70 100L60 100z"/>
</svg>
