<?xml version="1.0" standalone="yes"?>
<svg xmlns="http://www.w3.org/2000/svg" width="110" height="110">
<path style="fill:#000000; stroke:none;" d="M0 0L0 60L10 60L10 40L20 40L20 80L10 80L10 70L0 70L0 110L40 110L40 100L50 100L50 110L110 110L110 70L100 70L100 60L110 60L110 0L70 0L70 10L80 10L80 20L60 20L60 10L50 10L50 20L40 20L40 0L0 0z"/>
<path style="fill:#ffffff; stroke:none;" d="M40 0L40 20L50 20L50 10L60 10L60 20L80 20L80 10L70 10L70 0L40 0M10 20L10 30L20 30L20 20L10 20M30 30L30 80L80 80L80 30L30 30M10 40L10 60L0 60L0 70L10 70L10 80L20 80L20 40L10 40z"/>
<path style="fill:#000000; stroke:none;" d="M50 40L50 50L60 50L60 60L50 60L50 70L60 70L60 60L70 60L70 50L60 50L60 40L50 40z"/>
<path style="fill:#ffffff; stroke:none;" d="M90 50L90 60L100 60L100 50L90 50M100 60L100 70L110 70L110 60L100 60M50 90L50 100L90 100L90 90L50 90M40 100L40 110L50 110L50 100L40 100z"/>
</svg>
