<?xml version="1.0" standalone="yes"?>
<svg xmlns="http://www.w3.org/2000/svg" width="110" height="110">
<path style="fill:#000000; stroke:none;" d="M0 0L0 60L20 60L20 70L0 70L0 110L110 110L110 70L90 70L90 20L100 20L100 60L110 60L110 0L60 0L60 10L40 10L40 0L0 0z"/>
<path style="fill:#ffffff; stroke:none;" d="M40 0L40 10L60 10L60 0L40 0M80 10L80 20L90 20L90 10L80 10M90 20L90 70L110 70L110 60L100 60L100 20L90 20M30 30L30 80L80 80L80 30L30 30z"/>
<path style="fill:#000000; stroke:none;" d="M40 40L40 70L50 70L50 60L70 60L70 40L40 40z"/>
<path style="fill:#ffffff; stroke:none;" d="M0 60L0 70L20 70L20 60L0 60M90 80L90 90L100 90L100 80L90 80M20 90L20 100L70 100L70 90L20 90z"/>
</svg>
