<?xml version="1.0" standalone="yes"?>
<svg xmlns="http://www.w3.org/2000/svg" width="110" height="110">
<path style="fill:#000000; stroke:none;" d="M0 0L0 40L10 40L10 60L0 60L0 110L40 110L40 100L50 100L50 110L60 110L60 90L70 90L70 110L110 110L110 60L90 60L90 50L100 50L100 40L110 40L110 0L60 0L60 10L70 10L70 20L50 20L50 10L40 10L40 0L0 0z"/>
<path style="fill:#ffffff; stroke:none;" d="M40 0L40 10L50 10L50 20L70 20L70 10L60 10L60 0L40 0M20 10L20 20L10 20L10 30L20 30L20 20L30 20L30 10L20 10M90 20L90 40L100 40L100 20L90 20M30 30L30 80L80 80L80 30L30 30M0 40L0 60L10 60L10 40L0 40z"/>
<path style="fill:#000000; stroke:none;" d="M40 40L40 50L60 50L60 40L40 40z"/>
<path style="fill:#ffffff; stroke:none;" d="M100 40L100 50L90 50L90 60L110 60L110 40L100 40z"/>
<path style="fill:#000000; stroke:none;" d="M60 60L60 70L70 70L70 60L60 60z"/>
<path style="fill:#ffffff; stroke:none;" d="M20 90L20 100L40 100L40 90L20 90M60 90L60 110L70 110L70 90L60 90M80 90L80 100L90 100L90 90L80 90M40 100L40 110L50 110L50 100L40 100z"/>
</svg>
