<?xml version="1.0" standalone="yes"?>
<svg xmlns="http://www.w3.org/2000/svg" width="110" height="110">
<path style="fill:#000000; stroke:none;" d="M0 0L0 50L20 50L20 70L0 70L0 110L40 110L40 100L20 100L20 90L70 90L70 110L110 110L110 70L90 70L90 20L100 20L100 50L110 50L110 0L70 0L70 10L60 10L60 0L0 0z"/>
<path style="fill:#ffffff; stroke:none;" d="M60 0L60 10L70 10L70 0L60 0M40 10L40 20L50 20L50 10L40 10M10 20L10 30L20 30L20 20L10 20M90 20L90 70L110 70L110 50L100 50L100 20L90 20M30 30L30 80L80 80L80 30L30 30z"/>
<path style="fill:#000000; stroke:none;" d="M50 40L50 50L60 50L60 60L50 60L50 70L60 70L60 60L70 60L70 40L50 40z"/>
<path style="fill:#ffffff; stroke:none;" d="M0 50L0 70L20 70L20 50L0 50M10 80L10 90L20 90L20 80L10 80M90 80L90 90L80 90L80 100L90 100L90 90L100 90L100 80L90 80M20 90L20 100L40 100L40 110L50 110L50 100L60 100L60 110L70 110L70 90L20 90z"/>
<path style="fill:#000000; stroke:none;" d="M50 100L50 110L60 110L60 100L50 100z"/>
</svg>
