<?xml version="1.0" standalone="yes"?>
<svg xmlns="http://www.w3.org/2000/svg" width="110" height="110">
<path style="fill:#000000; stroke:none;" d="M0 0L0 60L20 60L20 80L10 80L10 70L0 70L0 110L40 110L40 90L80 90L80 100L70 100L70 110L110 110L110 0L60 0L60 10L50 10L50 0L0 0z"/>
<path style="fill:#ffffff; stroke:none;" d="M50 0L50 10L60 10L60 0L50 0M40 10L40 20L50 20L50 10L40 10M60 10L60 20L70 20L70 10L60 10M10 20L10 30L20 30L20 20L10 20M30 30L30 80L80 80L80 30L30 30M90 30L90 50L100 50L100 30L90 30z"/>
<path style="fill:#000000; stroke:none;" d="M50 40L50 50L40 50L40 60L50 60L50 50L60 50L60 70L70 70L70 50L60 50L60 40L50 40z"/>
<path style="fill:#ffffff; stroke:none;" d="M0 60L0 70L10 70L10 80L20 80L20 60L0 60M90 70L90 90L100 90L100 70L90 70M40 90L40 110L70 110L70 100L80 100L80 90L40 90z"/>
</svg>
