<?xml version="1.0" standalone="yes"?>
<svg xmlns="http://www.w3.org/2000/svg" width="110" height="110">
<path style="fill:#000000; stroke:none;" d="M0 0L0 40L10 40L10 50L20 50L20 90L10 90L10 60L0 60L0 110L40 110L40 90L60 90L60 110L110 110L110 60L100 60L100 70L90 70L90 40L100 40L100 50L110 50L110 0L60 0L60 10L50 10L50 0L0 0z"/>
<path style="fill:#ffffff; stroke:none;" d="M50 0L50 10L60 10L60 0L50 0M70 10L70 20L90 20L90 30L100 30L100 20L90 20L90 10L70 10M10 20L10 40L20 40L20 20L10 20M30 30L30 80L80 80L80 30L30 30M0 40L0 60L10 60L10 90L20 90L20 50L10 50L10 40L0 40z"/>
<path style="fill:#000000; stroke:none;" d="M50 40L50 50L60 50L60 40L50 40z"/>
<path style="fill:#ffffff; stroke:none;" d="M90 40L90 70L100 70L100 60L110 60L110 50L100 50L100 40L90 40M20 90L20 100L30 100L30 90L20 90M40 90L40 110L60 110L60 90L40 90M70 90L70 100L90 100L90 90L70 90z"/>
</svg>
