<?xml version="1.0" standalone="yes"?>
<svg xmlns="http://www.w3.org/2000/svg" width="110" height="110">
<path style="fill:#000000; stroke:none;" d="M0 0L0 50L10 50L10 30L20 30L20 70L0 70L0 110L40 110L40 100L60 100L60 90L70 90L70 110L110 110L110 70L90 70L90 30L100 30L100 50L110 50L110 0L60 0L60 10L70 10L70 20L30 20L30 10L50 10L50 0L0 0z"/>
<path style="fill:#ffffff; stroke:none;" d="M50 0L50 10L30 10L30 20L70 20L70 10L60 10L60 0L50 0M10 30L10 50L0 50L0 70L20 70L20 30L10 30M30 30L30 80L80 80L80 30L30 30M90 30L90 70L110 70L110 50L100 50L100 30L90 30z"/>
<path style="fill:#000000; stroke:none;" d="M40 50L40 70L60 70L60 60L70 60L70 50L60 50L60 60L50 60L50 50L40 50z"/>
<path style="fill:#ffffff; stroke:none;" d="M90 80L90 90L80 90L80 100L90 100L90 90L100 90L100 80L90 80M30 90L30 100L40 100L40 90L30 90M60 90L60 100L40 100L40 110L70 110L70 90L60 90z"/>
</svg>
