<?xml version="1.0" standalone="yes"?>
<svg xmlns="http://www.w3.org/2000/svg" width="110" height="110">
<path style="fill:#000000; stroke:none;" d="M0 0L0 40L20 40L20 60L10 60L10 70L0 70L0 110L50 110L50 100L60 100L60 90L90 90L90 100L70 100L70 110L110 110L110 60L90 60L90 40L100 40L100 50L110 50L110 0L60 0L60 20L40 20L40 10L50 10L50 0L0 0z"/>
<path style="fill:#ffffff; stroke:none;" d="M50 0L50 10L40 10L40 20L60 20L60 0L50 0M20 10L20 20L30 20L30 10L20 10M70 10L70 20L80 20L80 10L70 10M30 30L30 80L80 80L80 30L30 30M0 40L0 70L10 70L10 60L20 60L20 40L0 40z"/>
<path style="fill:#000000; stroke:none;" d="M40 40L40 50L50 50L50 40L40 40z"/>
<path style="fill:#ffffff; stroke:none;" d="M90 40L90 60L110 60L110 50L100 50L100 40L90 40z"/>
<path style="fill:#000000; stroke:none;" d="M60 50L60 70L70 70L70 50L60 50z"/>
<path style="fill:#ffffff; stroke:none;" d="M90 70L90 90L100 90L100 70L90 70M40 90L40 100L50 100L50 90L40 90M60 90L60 100L50 100L50 110L70 110L70 100L90 100L90 90L60 90z"/>
</svg>
