<?xml version="1.0" standalone="yes"?>
<svg xmlns="http://www.w3.org/2000/svg" width="110" height="110">
<path style="fill:#000000; stroke:none;" d="M0 0L0 60L10 60L10 70L0 70L0 110L50 110L50 100L60 100L60 90L70 90L70 110L110 110L110 70L100 70L100 40L110 40L110 0L70 0L70 10L60 10L60 20L50 20L50 0L0 0z"/>
<path style="fill:#ffffff; stroke:none;" d="M50 0L50 20L60 20L60 10L70 10L70 0L50 0M20 10L20 20L10 20L10 30L20 30L20 20L30 20L30 10L20 10M30 30L30 80L80 80L80 30L30 30M90 30L90 40L100 40L100 30L90 30z"/>
<path style="fill:#000000; stroke:none;" d="M60 40L60 50L40 50L40 60L50 60L50 70L70 70L70 40L60 40z"/>
<path style="fill:#ffffff; stroke:none;" d="M100 40L100 70L110 70L110 40L100 40M0 60L0 70L10 70L10 60L0 60M90 70L90 80L100 80L100 70L90 70M20 90L20 100L50 100L50 90L20 90M60 90L60 100L50 100L50 110L70 110L70 90L60 90z"/>
</svg>
