<?xml version="1.0" standalone="yes"?>
<svg xmlns="http://www.w3.org/2000/svg" width="110" height="110">
<path style="fill:#000000; stroke:none;" d="M0 0L0 60L10 60L10 70L0 70L0 110L60 110L60 100L70 100L70 110L110 110L110 0L70 0L70 10L50 10L50 0L0 0z"/>
<path style="fill:#ffffff; stroke:none;" d="M50 0L50 10L70 10L70 0L50 0M20 10L20 20L30 20L30 10L20 10M70 10L70 20L80 20L80 10L70 10M30 30L30 80L80 80L80 30L30 30M90 30L90 50L100 50L100 30L90 30M10 40L10 60L20 60L20 40L10 40z"/>
<path style="fill:#000000; stroke:none;" d="M60 40L60 70L70 70L70 40L60 40z"/>
<path style="fill:#ffffff; stroke:none;" d="M0 60L0 70L10 70L10 60L0 60z"/>
<path style="fill:#000000; stroke:none;" d="M40 60L40 70L50 70L50 60L40 60z"/>
<path style="fill:#ffffff; stroke:none;" d="M90 60L90 90L100 90L100 60L90 60M10 70L10 90L20 90L20 70L10 70M40 90L40 100L50 100L50 90L40 90M60 100L60 110L70 110L70 100L60 100z"/>
</svg>
