<?xml version="1.0" standalone="yes"?>
<svg xmlns="http://www.w3.org/2000/svg" width="110" height="110">
<path style="fill:#000000; stroke:none;" d="M0 0L0 60L20 60L20 70L0 70L0 110L40 110L40 90L50 90L50 100L70 100L70 110L110 110L110 60L100 60L100 50L90 50L90 40L110 40L110 0L70 0L70 10L60 10L60 0L50 0L50 20L20 20L20 10L40 10L40 0L0 0z"/>
<path style="fill:#ffffff; stroke:none;" d="M40 0L40 10L20 10L20 20L50 20L50 0L40 0M60 0L60 10L70 10L70 0L60 0M10 30L10 50L20 50L20 30L10 30M30 30L30 80L80 80L80 30L30 30z"/>
<path style="fill:#000000; stroke:none;" d="M40 40L40 50L60 50L60 60L70 60L70 50L60 50L60 40L40 40z"/>
<path style="fill:#ffffff; stroke:none;" d="M90 40L90 50L100 50L100 60L110 60L110 40L90 40M0 60L0 70L20 70L20 60L0 60M90 70L90 90L100 90L100 70L90 70M10 80L10 90L20 90L20 80L10 80M40 90L40 110L70 110L70 100L50 100L50 90L40 90z"/>
</svg>
