<?xml version="1.0" standalone="yes"?>
<svg xmlns="http://www.w3.org/2000/svg" width="110" height="110">
<path style="fill:#000000; stroke:none;" d="M0 0L0 40L10 40L10 30L20 30L20 50L10 50L10 60L20 60L20 70L0 70L0 110L60 110L60 90L80 90L80 100L70 100L70 110L110 110L110 60L90 60L90 40L100 40L100 50L110 50L110 0L70 0L70 10L60 10L60 20L20 20L20 10L40 10L40 0L0 0z"/>
<path style="fill:#ffffff; stroke:none;" d="M40 0L40 10L20 10L20 20L60 20L60 10L70 10L70 0L40 0M70 10L70 20L80 20L80 10L70 10M90 20L90 30L100 30L100 20L90 20M10 30L10 40L0 40L0 70L20 70L20 60L10 60L10 50L20 50L20 30L10 30M30 30L30 80L80 80L80 30L30 30z"/>
<path style="fill:#000000; stroke:none;" d="M40 40L40 70L60 70L60 50L50 50L50 40L40 40z"/>
<path style="fill:#ffffff; stroke:none;" d="M90 40L90 60L110 60L110 50L100 50L100 40L90 40M90 70L90 90L100 90L100 70L90 70M20 90L20 100L30 100L30 90L20 90M40 90L40 100L50 100L50 90L40 90M60 90L60 110L70 110L70 100L80 100L80 90L60 90z"/>
</svg>
