<?xml version="1.0" standalone="yes"?>
<svg xmlns="http://www.w3.org/2000/svg" width="110" height="110">
<path style="fill:#000000; stroke:none;" d="M0 0L0 50L20 50L20 90L10 90L10 70L0 70L0 110L50 110L50 100L60 100L60 90L90 90L90 100L70 100L70 110L110 110L110 70L100 70L100 80L90 80L90 60L110 60L110 0L70 0L70 20L60 20L60 10L50 10L50 0L0 0z"/>
<path style="fill:#ffffff; stroke:none;" d="M50 0L50 10L60 10L60 20L70 20L70 0L50 0M20 10L20 20L40 20L40 10L20 10M10 30L10 40L20 40L20 30L10 30M30 30L30 80L80 80L80 30L30 30M90 30L90 40L100 40L100 30L90 30z"/>
<path style="fill:#000000; stroke:none;" d="M60 40L60 50L50 50L50 60L40 60L40 70L50 70L50 60L60 60L60 50L70 50L70 40L60 40z"/>
<path style="fill:#ffffff; stroke:none;" d="M0 50L0 70L10 70L10 90L20 90L20 50L0 50M90 60L90 80L100 80L100 70L110 70L110 60L90 60M20 90L20 100L30 100L30 90L20 90M40 90L40 100L50 100L50 90L40 90M60 90L60 100L50 100L50 110L70 110L70 100L90 100L90 90L60 90z"/>
</svg>
