<?xml version="1.0" standalone="yes"?>
<svg xmlns="http://www.w3.org/2000/svg" width="110" height="110">
<path style="fill:#000000; stroke:none;" d="M0 0L0 60L20 60L20 80L10 80L10 70L0 70L0 110L40 110L40 90L60 90L60 100L50 100L50 110L60 110L60 100L70 100L70 110L110 110L110 70L90 70L90 50L110 50L110 0L60 0L60 20L50 20L50 10L40 10L40 0L0 0z"/>
<path style="fill:#ffffff; stroke:none;" d="M40 0L40 10L50 10L50 20L60 20L60 0L40 0M20 10L20 20L10 20L10 30L20 30L20 20L40 20L40 10L20 10M80 10L80 20L90 20L90 10L80 10M30 30L30 80L80 80L80 30L30 30M10 40L10 50L20 50L20 40L10 40z"/>
<path style="fill:#000000; stroke:none;" d="M60 40L60 70L70 70L70 40L60 40M40 50L40 70L50 70L50 50L40 50z"/>
<path style="fill:#ffffff; stroke:none;" d="M90 50L90 70L110 70L110 50L90 50M0 60L0 70L10 70L10 80L20 80L20 60L0 60M20 90L20 100L30 100L30 90L20 90M40 90L40 110L50 110L50 100L60 100L60 90L40 90M70 90L70 100L80 100L80 90L70 90M60 100L60 110L70 110L70 100L60 100z"/>
</svg>
