<?xml version="1.0" standalone="yes"?>
<svg xmlns="http://www.w3.org/2000/svg" width="110" height="110">
<path style="fill:#000000; stroke:none;" d="M0 0L0 40L20 40L20 50L0 50L0 60L20 60L20 80L10 80L10 70L0 70L0 110L110 110L110 70L100 70L100 50L110 50L110 0L60 0L60 20L20 20L20 10L50 10L50 0L0 0z"/>
<path style="fill:#ffffff; stroke:none;" d="M50 0L50 10L20 10L20 20L60 20L60 0L50 0M70 10L70 20L90 20L90 40L100 40L100 20L90 20L90 10L70 10M10 20L10 30L20 30L20 20L10 20M30 30L30 80L80 80L80 30L30 30M0 40L0 50L20 50L20 40L0 40z"/>
<path style="fill:#000000; stroke:none;" d="M40 40L40 50L60 50L60 70L70 70L70 50L60 50L60 40L40 40z"/>
<path style="fill:#ffffff; stroke:none;" d="M100 50L100 70L110 70L110 50L100 50M0 60L0 70L10 70L10 80L20 80L20 60L0 60M90 70L90 80L100 80L100 70L90 70M20 90L20 100L30 100L30 90L20 90M60 90L60 100L90 100L90 90L60 90z"/>
</svg>
