<?xml version="1.0" standalone="yes"?>
<svg xmlns="http://www.w3.org/2000/svg" width="110" height="110">
<path style="fill:#000000; stroke:none;" d="M0 0L0 40L10 40L10 50L0 50L0 110L50 110L50 100L30 100L30 90L80 90L80 100L60 100L60 110L110 110L110 70L100 70L100 50L90 50L90 40L110 40L110 0L70 0L70 10L90 10L90 20L40 20L40 10L60 10L60 0L0 0z"/>
<path style="fill:#ffffff; stroke:none;" d="M60 0L60 10L40 10L40 20L90 20L90 10L70 10L70 0L60 0M10 20L10 40L20 40L20 20L10 20M90 20L90 30L100 30L100 20L90 20M30 30L30 80L80 80L80 30L30 30M0 40L0 50L10 50L10 40L0 40z"/>
<path style="fill:#000000; stroke:none;" d="M40 40L40 70L60 70L60 50L70 50L70 40L60 40L60 50L50 50L50 40L40 40z"/>
<path style="fill:#ffffff; stroke:none;" d="M90 40L90 50L100 50L100 70L110 70L110 40L90 40M10 50L10 90L20 90L20 50L10 50M90 70L90 90L100 90L100 70L90 70M30 90L30 100L50 100L50 110L60 110L60 100L80 100L80 90L30 90z"/>
</svg>
