<?xml version="1.0" standalone="yes"?>
<svg xmlns="http://www.w3.org/2000/svg" width="110" height="110">
<path style="fill:#000000; stroke:none;" d="M0 0L0 40L10 40L10 60L0 60L0 110L110 110L110 60L90 60L90 30L100 30L100 40L110 40L110 0L70 0L70 10L50 10L50 0L0 0z"/>
<path style="fill:#ffffff; stroke:none;" d="M50 0L50 10L70 10L70 0L50 0M40 10L40 20L50 20L50 10L40 10M10 20L10 30L20 30L20 20L10 20M30 30L30 80L80 80L80 30L30 30M90 30L90 60L110 60L110 40L100 40L100 30L90 30M0 40L0 60L10 60L10 40L0 40z"/>
<path style="fill:#000000; stroke:none;" d="M40 40L40 50L50 50L50 60L40 60L40 70L70 70L70 40L40 40z"/>
<path style="fill:#ffffff; stroke:none;" d="M90 70L90 90L60 90L60 100L90 100L90 90L100 90L100 70L90 70M10 80L10 90L20 90L20 100L40 100L40 90L20 90L20 80L10 80z"/>
</svg>
