<?xml version="1.0" standalone="yes"?>
<svg xmlns="http://www.w3.org/2000/svg" width="110" height="110">
<path style="fill:#000000; stroke:none;" d="M0 0L0 110L40 110L40 100L50 100L50 110L60 110L60 90L90 90L90 100L70 100L70 110L110 110L110 70L90 70L90 50L100 50L100 40L110 40L110 0L0 0z"/>
<path style="fill:#ffffff; stroke:none;" d="M30 10L30 20L40 20L40 10L30 10M50 10L50 20L70 20L70 10L50 10M80 10L80 20L90 20L90 30L100 30L100 20L90 20L90 10L80 10M10 30L10 50L20 50L20 30L10 30M30 30L30 80L80 80L80 30L30 30M100 40L100 50L90 50L90 70L110 70L110 40L100 40z"/>
<path style="fill:#000000; stroke:none;" d="M40 50L40 60L50 60L50 70L70 70L70 60L60 60L60 50L40 50z"/>
<path style="fill:#ffffff; stroke:none;" d="M10 70L10 80L20 80L20 70L10 70M60 90L60 110L70 110L70 100L90 100L90 90L60 90M40 100L40 110L50 110L50 100L40 100z"/>
</svg>
