<?xml version="1.0" standalone="yes"?>
<svg xmlns="http://www.w3.org/2000/svg" width="110" height="110">
<path style="fill:#000000; stroke:none;" d="M0 0L0 60L10 60L10 40L20 40L20 90L10 90L10 70L0 70L0 110L110 110L110 60L90 60L90 40L100 40L100 50L110 50L110 0L60 0L60 10L50 10L50 0L0 0z"/>
<path style="fill:#ffffff; stroke:none;" d="M50 0L50 10L60 10L60 0L50 0M30 10L30 20L50 20L50 10L30 10M60 10L60 20L80 20L80 10L60 10M30 30L30 80L80 80L80 30L30 30M10 40L10 60L0 60L0 70L10 70L10 90L20 90L20 40L10 40z"/>
<path style="fill:#000000; stroke:none;" d="M40 40L40 60L60 60L60 40L40 40z"/>
<path style="fill:#ffffff; stroke:none;" d="M90 40L90 60L110 60L110 50L100 50L100 40L90 40M60 90L60 100L80 100L80 90L60 90z"/>
</svg>
