<?xml version="1.0" standalone="yes"?>
<svg xmlns="http://www.w3.org/2000/svg" width="110" height="110">
<path style="fill:#000000; stroke:none;" d="M0 0L0 40L10 40L10 50L20 50L20 70L10 70L10 60L0 60L0 110L50 110L50 100L60 100L60 90L70 90L70 110L110 110L110 70L100 70L100 60L110 60L110 50L100 50L100 40L110 40L110 0L60 0L60 20L40 20L40 0L0 0z"/>
<path style="fill:#ffffff; stroke:none;" d="M40 0L40 20L60 20L60 0L40 0M20 10L20 20L10 20L10 30L20 30L20 20L30 20L30 10L20 10M70 10L70 20L80 20L80 10L70 10M90 20L90 30L100 30L100 20L90 20M30 30L30 80L80 80L80 30L30 30M0 40L0 60L10 60L10 70L20 70L20 50L10 50L10 40L0 40M100 40L100 50L110 50L110 40L100 40z"/>
<path style="fill:#000000; stroke:none;" d="M40 50L40 60L50 60L50 70L60 70L60 50L40 50z"/>
<path style="fill:#ffffff; stroke:none;" d="M90 50L90 60L100 60L100 50L90 50M100 60L100 70L110 70L110 60L100 60M60 90L60 100L50 100L50 110L70 110L70 90L60 90M80 90L80 100L90 100L90 90L80 90z"/>
</svg>
