<?xml version="1.0" standalone="yes"?>
<svg xmlns="http://www.w3.org/2000/svg" width="110" height="110">
<path style="fill:#000000; stroke:none;" d="M0 0L0 40L10 40L10 30L20 30L20 50L0 50L0 110L50 110L50 90L80 90L80 100L70 100L70 110L110 110L110 60L100 60L100 70L90 70L90 20L100 20L100 40L110 40L110 0L70 0L70 10L80 10L80 20L60 20L60 0L50 0L50 10L40 10L40 0L0 0z"/>
<path style="fill:#ffffff; stroke:none;" d="M40 0L40 10L50 10L50 0L40 0M60 0L60 20L80 20L80 10L70 10L70 0L60 0M90 20L90 70L100 70L100 60L110 60L110 40L100 40L100 20L90 20M10 30L10 40L0 40L0 50L20 50L20 30L10 30M30 30L30 80L80 80L80 30L30 30z"/>
<path style="fill:#000000; stroke:none;" d="M40 40L40 60L50 60L50 70L60 70L60 60L70 60L70 50L60 50L60 40L40 40z"/>
<path style="fill:#ffffff; stroke:none;" d="M50 50L50 60L60 60L60 50L50 50M50 90L50 110L70 110L70 100L80 100L80 90L50 90z"/>
</svg>
