<?xml version="1.0" standalone="yes"?>
<svg xmlns="http://www.w3.org/2000/svg" width="110" height="110">
<path style="fill:#000000; stroke:none;" d="M0 0L0 50L10 50L10 60L20 60L20 70L0 70L0 110L40 110L40 100L60 100L60 110L110 110L110 70L100 70L100 60L110 60L110 0L0 0z"/>
<path style="fill:#ffffff; stroke:none;" d="M20 10L20 20L60 20L60 10L20 10M70 10L70 20L90 20L90 10L70 10M10 30L10 40L20 40L20 30L10 30M30 30L30 80L80 80L80 30L30 30z"/>
<path style="fill:#000000; stroke:none;" d="M40 40L40 50L50 50L50 70L60 70L60 60L70 60L70 40L60 40L60 50L50 50L50 40L40 40z"/>
<path style="fill:#ffffff; stroke:none;" d="M0 50L0 70L20 70L20 60L10 60L10 50L0 50M100 60L100 70L110 70L110 60L100 60M20 90L20 100L30 100L30 90L20 90M60 90L60 100L70 100L70 90L60 90M40 100L40 110L60 110L60 100L40 100z"/>
</svg>
