<?xml version="1.0" standalone="yes"?>
<svg xmlns="http://www.w3.org/2000/svg" width="110" height="110">
<path style="fill:#000000; stroke:none;" d="M0 0L0 50L10 50L10 60L0 60L0 110L40 110L40 100L50 100L50 90L60 90L60 100L70 100L70 110L110 110L110 70L100 70L100 60L110 60L110 50L100 50L100 40L110 40L110 0L60 0L60 10L50 10L50 0L0 0z"/>
<path style="fill:#ffffff; stroke:none;" d="M50 0L50 10L60 10L60 0L50 0M40 10L40 20L50 20L50 10L40 10M80 10L80 20L90 20L90 40L100 40L100 20L90 20L90 10L80 10M30 30L30 80L80 80L80 30L30 30z"/>
<path style="fill:#000000; stroke:none;" d="M40 40L40 50L50 50L50 60L40 60L40 70L60 70L60 40L40 40z"/>
<path style="fill:#ffffff; stroke:none;" d="M100 40L100 50L110 50L110 40L100 40M0 50L0 60L10 60L10 50L0 50M100 60L100 70L110 70L110 60L100 60M10 70L10 90L20 90L20 100L40 100L40 90L20 90L20 70L10 70M90 70L90 80L100 80L100 70L90 70M50 90L50 100L40 100L40 110L70 110L70 100L60 100L60 90L50 90z"/>
</svg>
