<?xml version="1.0" standalone="yes"?>
<svg xmlns="http://www.w3.org/2000/svg" width="110" height="110">
<path style="fill:#000000; stroke:none;" d="M0 0L0 40L10 40L10 50L0 50L0 110L40 110L40 100L30 100L30 90L50 90L50 110L110 110L110 60L100 60L100 50L110 50L110 0L70 0L70 10L90 10L90 20L50 20L50 10L40 10L40 0L0 0z"/>
<path style="fill:#ffffff; stroke:none;" d="M40 0L40 10L50 10L50 20L90 20L90 10L70 10L70 0L40 0M30 10L30 20L40 20L40 10L30 10M90 20L90 30L100 30L100 20L90 20M30 30L30 80L80 80L80 30L30 30M0 40L0 50L10 50L10 40L0 40z"/>
<path style="fill:#000000; stroke:none;" d="M60 40L60 50L50 50L50 60L40 60L40 70L50 70L50 60L70 60L70 40L60 40z"/>
<path style="fill:#ffffff; stroke:none;" d="M90 40L90 50L100 50L100 40L90 40M100 50L100 60L110 60L110 50L100 50M90 60L90 70L100 70L100 60L90 60M10 70L10 80L20 80L20 70L10 70M90 80L90 90L100 90L100 80L90 80M30 90L30 100L40 100L40 110L50 110L50 90L30 90M60 90L60 100L80 100L80 90L60 90z"/>
</svg>
