<?xml version="1.0" standalone="yes"?>
<svg xmlns="http://www.w3.org/2000/svg" width="110" height="110">
<path style="fill:#000000; stroke:none;" d="M0 0L0 40L10 40L10 70L0 70L0 110L50 110L50 90L90 90L90 100L70 100L70 110L110 110L110 70L90 70L90 60L110 60L110 50L90 50L90 20L100 20L100 40L110 40L110 0L0 0z"/>
<path style="fill:#ffffff; stroke:none;" d="M20 10L20 20L10 20L10 30L20 30L20 20L40 20L40 10L20 10M50 10L50 20L70 20L70 10L50 10M90 20L90 50L110 50L110 40L100 40L100 20L90 20M30 30L30 80L80 80L80 30L30 30M0 40L0 70L10 70L10 40L0 40z"/>
<path style="fill:#000000; stroke:none;" d="M50 40L50 50L40 50L40 60L50 60L50 70L60 70L60 40L50 40z"/>
<path style="fill:#ffffff; stroke:none;" d="M90 60L90 70L110 70L110 60L90 60M10 80L10 90L20 90L20 80L10 80M90 80L90 90L100 90L100 80L90 80M50 90L50 110L70 110L70 100L90 100L90 90L50 90z"/>
</svg>
