<?xml version="1.0" standalone="yes"?>
<svg xmlns="http://www.w3.org/2000/svg" width="110" height="110">
<path style="fill:#000000; stroke:none;" d="M0 0L0 110L40 110L40 100L50 100L50 110L110 110L110 70L100 70L100 50L90 50L90 30L100 30L100 40L110 40L110 0L70 0L70 10L80 10L80 20L60 20L60 10L40 10L40 0L0 0z"/>
<path style="fill:#ffffff; stroke:none;" d="M40 0L40 10L60 10L60 20L80 20L80 10L70 10L70 0L40 0M10 20L10 30L20 30L20 20L10 20M30 30L30 80L80 80L80 30L30 30M90 30L90 50L100 50L100 70L110 70L110 40L100 40L100 30L90 30z"/>
<path style="fill:#000000; stroke:none;" d="M40 40L40 50L50 50L50 60L70 60L70 40L60 40L60 50L50 50L50 40L40 40z"/>
<path style="fill:#ffffff; stroke:none;" d="M10 80L10 90L20 90L20 100L40 100L40 90L20 90L20 80L10 80M50 90L50 100L60 100L60 90L50 90M70 90L70 100L90 100L90 90L70 90M40 100L40 110L50 110L50 100L40 100z"/>
</svg>
