<?xml version="1.0" standalone="yes"?>
<svg xmlns="http://www.w3.org/2000/svg" width="110" height="110">
<path style="fill:#000000; stroke:none;" d="M0 0L0 110L110 110L110 70L100 70L100 50L90 50L90 40L110 40L110 0L50 0L50 10L40 10L40 0L0 0z"/>
<path style="fill:#ffffff; stroke:none;" d="M40 0L40 10L50 10L50 0L40 0M60 10L60 20L90 20L90 30L100 30L100 20L90 20L90 10L60 10M30 30L30 80L80 80L80 30L30 30z"/>
<path style="fill:#000000; stroke:none;" d="M40 40L40 60L50 60L50 70L60 70L60 50L70 50L70 40L40 40z"/>
<path style="fill:#ffffff; stroke:none;" d="M90 40L90 50L100 50L100 70L110 70L110 40L90 40M10 60L10 70L20 70L20 60L10 60M10 80L10 90L20 90L20 100L30 100L30 90L20 90L20 80L10 80M90 80L90 90L100 90L100 80L90 80M50 90L50 100L60 100L60 90L50 90z"/>
</svg>
