<?xml version="1.0" standalone="yes"?>
<svg xmlns="http://www.w3.org/2000/svg" width="110" height="110">
<path style="fill:#000000; stroke:none;" d="M0 0L0 40L10 40L10 30L20 30L20 60L10 60L10 50L0 50L0 110L40 110L40 100L30 100L30 90L50 90L50 100L60 100L60 90L70 90L70 110L110 110L110 70L100 70L100 90L90 90L90 60L100 60L100 50L90 50L90 40L110 40L110 0L0 0z"/>
<path style="fill:#ffffff; stroke:none;" d="M20 10L20 20L30 20L30 10L20 10M40 10L40 20L80 20L80 10L40 10M10 30L10 40L0 40L0 50L10 50L10 60L20 60L20 30L10 30M30 30L30 80L80 80L80 30L30 30M90 40L90 50L100 50L100 60L90 60L90 90L100 90L100 70L110 70L110 40L90 40z"/>
<path style="fill:#000000; stroke:none;" d="M40 50L40 70L70 70L70 50L60 50L60 60L50 60L50 50L40 50z"/>
<path style="fill:#ffffff; stroke:none;" d="M10 80L10 90L20 90L20 80L10 80M30 90L30 100L40 100L40 110L70 110L70 90L60 90L60 100L50 100L50 90L30 90z"/>
</svg>
