<?xml version="1.0" standalone="yes"?>
<svg xmlns="http://www.w3.org/2000/svg" width="110" height="110">
<path style="fill:#000000; stroke:none;" d="M0 0L0 40L10 40L10 50L0 50L0 110L50 110L50 100L30 100L30 90L60 90L60 110L110 110L110 70L90 70L90 50L110 50L110 0L50 0L50 10L80 10L80 20L20 20L20 10L40 10L40 0L0 0z"/>
<path style="fill:#ffffff; stroke:none;" d="M40 0L40 10L20 10L20 20L80 20L80 10L50 10L50 0L40 0M30 30L30 80L80 80L80 30L30 30M90 30L90 40L100 40L100 30L90 30M0 40L0 50L10 50L10 40L0 40z"/>
<path style="fill:#000000; stroke:none;" d="M50 40L50 60L40 60L40 70L60 70L60 40L50 40z"/>
<path style="fill:#ffffff; stroke:none;" d="M10 50L10 60L20 60L20 50L10 50M90 50L90 70L110 70L110 50L90 50M30 90L30 100L50 100L50 110L60 110L60 90L30 90z"/>
</svg>
