<?xml version="1.0" standalone="yes"?>
<svg xmlns="http://www.w3.org/2000/svg" width="110" height="110">
<path style="fill:#000000; stroke:none;" d="M0 0L0 50L10 50L10 20L20 20L20 60L0 60L0 110L40 110L40 90L50 90L50 110L60 110L60 100L70 100L70 110L110 110L110 0L70 0L70 10L40 10L40 0L0 0z"/>
<path style="fill:#ffffff; stroke:none;" d="M40 0L40 10L70 10L70 0L40 0M80 10L80 20L90 20L90 50L100 50L100 20L90 20L90 10L80 10M10 20L10 50L0 50L0 60L20 60L20 20L10 20M30 30L30 80L80 80L80 30L30 30z"/>
<path style="fill:#000000; stroke:none;" d="M50 50L50 60L40 60L40 70L50 70L50 60L60 60L60 70L70 70L70 50L50 50z"/>
<path style="fill:#ffffff; stroke:none;" d="M90 60L90 80L100 80L100 60L90 60M10 80L10 90L20 90L20 80L10 80M40 90L40 110L50 110L50 90L40 90M70 90L70 100L90 100L90 90L70 90M60 100L60 110L70 110L70 100L60 100z"/>
</svg>
