<?xml version="1.0" standalone="yes"?>
<svg xmlns="http://www.w3.org/2000/svg" width="110" height="110">
<path style="fill:#000000; stroke:none;" d="M0 0L0 50L10 50L10 40L20 40L20 80L10 80L10 60L0 60L0 110L110 110L110 70L100 70L100 90L90 90L90 30L100 30L100 50L110 50L110 0L70 0L70 10L80 10L80 20L50 20L50 0L0 0z"/>
<path style="fill:#ffffff; stroke:none;" d="M50 0L50 20L80 20L80 10L70 10L70 0L50 0M10 20L10 30L20 30L20 20L10 20M30 30L30 80L80 80L80 30L30 30M90 30L90 90L100 90L100 70L110 70L110 50L100 50L100 30L90 30M10 40L10 50L0 50L0 60L10 60L10 80L20 80L20 40L10 40z"/>
<path style="fill:#000000; stroke:none;" d="M40 40L40 50L60 50L60 70L70 70L70 50L60 50L60 40L40 40M40 60L40 70L50 70L50 60L40 60z"/>
<path style="fill:#ffffff; stroke:none;" d="M40 90L40 100L50 100L50 90L40 90z"/>
</svg>
