<?xml version="1.0" standalone="yes"?>
<svg xmlns="http://www.w3.org/2000/svg" width="110" height="110">
<path style="fill:#000000; stroke:none;" d="M0 0L0 50L10 50L10 30L20 30L20 80L10 80L10 60L0 60L0 110L50 110L50 90L60 90L60 110L110 110L110 70L90 70L90 60L110 60L110 0L60 0L60 10L50 10L50 20L30 20L30 10L40 10L40 0L0 0z"/>
<path style="fill:#ffffff; stroke:none;" d="M40 0L40 10L30 10L30 20L50 20L50 10L60 10L60 0L40 0M60 10L60 20L70 20L70 10L60 10M10 30L10 50L0 50L0 60L10 60L10 80L20 80L20 30L10 30M30 30L30 80L80 80L80 30L30 30z"/>
<path style="fill:#000000; stroke:none;" d="M40 40L40 60L60 60L60 40L40 40z"/>
<path style="fill:#ffffff; stroke:none;" d="M90 60L90 70L110 70L110 60L90 60M30 90L30 100L40 100L40 90L30 90M50 90L50 110L60 110L60 90L50 90z"/>
</svg>
