<?xml version="1.0" standalone="yes"?>
<svg xmlns="http://www.w3.org/2000/svg" width="110" height="110">
<path style="fill:#000000; stroke:none;" d="M0 0L0 40L10 40L10 30L20 30L20 50L10 50L10 60L0 60L0 110L50 110L50 100L70 100L70 110L110 110L110 60L100 60L100 40L110 40L110 0L0 0z"/>
<path style="fill:#ffffff; stroke:none;" d="M20 10L20 20L40 20L40 10L20 10M80 10L80 20L90 20L90 10L80 10M10 30L10 40L0 40L0 60L10 60L10 50L20 50L20 30L10 30M30 30L30 80L80 80L80 30L30 30z"/>
<path style="fill:#000000; stroke:none;" d="M50 40L50 60L40 60L40 70L70 70L70 40L50 40z"/>
<path style="fill:#ffffff; stroke:none;" d="M100 40L100 60L110 60L110 40L100 40M10 60L10 90L20 90L20 100L40 100L40 90L20 90L20 60L10 60M90 70L90 80L100 80L100 70L90 70M70 90L70 100L90 100L90 90L70 90M50 100L50 110L70 110L70 100L50 100z"/>
</svg>
