<?xml version="1.0" standalone="yes"?>
<svg xmlns="http://www.w3.org/2000/svg" width="110" height="110">
<path style="fill:#000000; stroke:none;" d="M0 0L0 40L20 40L20 50L0 50L0 60L20 60L20 70L0 70L0 110L50 110L50 100L70 100L70 110L110 110L110 60L100 60L100 90L90 90L90 30L100 30L100 50L110 50L110 0L70 0L70 10L80 10L80 20L20 20L20 10L40 10L40 0L0 0z"/>
<path style="fill:#ffffff; stroke:none;" d="M40 0L40 10L20 10L20 20L80 20L80 10L70 10L70 0L40 0M10 20L10 30L20 30L20 20L10 20M30 30L30 80L80 80L80 30L30 30M90 30L90 90L100 90L100 60L110 60L110 50L100 50L100 30L90 30M0 40L0 50L20 50L20 40L0 40z"/>
<path style="fill:#000000; stroke:none;" d="M60 40L60 50L70 50L70 40L60 40M40 50L40 70L60 70L60 60L50 60L50 50L40 50z"/>
<path style="fill:#ffffff; stroke:none;" d="M0 60L0 70L20 70L20 60L0 60M80 90L80 100L90 100L90 90L80 90M50 100L50 110L70 110L70 100L50 100z"/>
</svg>
