<?xml version="1.0" standalone="yes"?>
<svg xmlns="http://www.w3.org/2000/svg" width="110" height="110">
<path style="fill:#000000; stroke:none;" d="M0 0L0 40L10 40L10 20L20 20L20 60L0 60L0 110L40 110L40 100L50 100L50 110L110 110L110 60L100 60L100 40L110 40L110 0L50 0L50 10L40 10L40 0L0 0z"/>
<path style="fill:#ffffff; stroke:none;" d="M40 0L40 10L50 10L50 0L40 0M30 10L30 20L40 20L40 10L30 10M10 20L10 40L0 40L0 60L20 60L20 20L10 20M30 30L30 80L80 80L80 30L30 30M90 30L90 40L100 40L100 30L90 30z"/>
<path style="fill:#000000; stroke:none;" d="M50 40L50 50L40 50L40 60L50 60L50 70L60 70L60 60L50 60L50 50L70 50L70 40L50 40z"/>
<path style="fill:#ffffff; stroke:none;" d="M100 40L100 60L110 60L110 40L100 40M10 70L10 80L20 80L20 70L10 70M20 90L20 100L30 100L30 90L20 90M70 90L70 100L90 100L90 90L70 90M40 100L40 110L50 110L50 100L40 100z"/>
</svg>
