<?xml version="1.0" standalone="yes"?>
<svg xmlns="http://www.w3.org/2000/svg" width="110" height="110">
<path style="fill:#000000; stroke:none;" d="M0 0L0 50L10 50L10 60L0 60L0 110L60 110L60 100L70 100L70 110L110 110L110 50L100 50L100 70L90 70L90 20L100 20L100 40L110 40L110 0L0 0z"/>
<path style="fill:#ffffff; stroke:none;" d="M40 10L40 20L50 20L50 10L40 10M60 10L60 20L70 20L70 10L60 10M90 20L90 70L100 70L100 50L110 50L110 40L100 40L100 20L90 20M10 30L10 50L20 50L20 30L10 30M30 30L30 80L80 80L80 30L30 30z"/>
<path style="fill:#000000; stroke:none;" d="M40 40L40 60L50 60L50 70L70 70L70 40L40 40z"/>
<path style="fill:#ffffff; stroke:none;" d="M0 50L0 60L10 60L10 50L0 50M50 50L50 60L60 60L60 50L50 50M10 70L10 80L20 80L20 70L10 70M20 90L20 100L60 100L60 90L20 90M70 90L70 100L80 100L80 90L70 90M60 100L60 110L70 110L70 100L60 100z"/>
</svg>
