<?xml version="1.0" standalone="yes"?>
<svg xmlns="http://www.w3.org/2000/svg" width="110" height="110">
<path style="fill:#000000; stroke:none;" d="M0 0L0 40L10 40L10 20L20 20L20 50L10 50L10 60L0 60L0 110L40 110L40 100L50 100L50 90L90 90L90 100L60 100L60 110L110 110L110 60L90 60L90 30L100 30L100 40L110 40L110 0L70 0L70 20L60 20L60 10L50 10L50 0L0 0z"/>
<path style="fill:#ffffff; stroke:none;" d="M50 0L50 10L60 10L60 20L70 20L70 0L50 0M40 10L40 20L50 20L50 10L40 10M10 20L10 40L0 40L0 60L10 60L10 50L20 50L20 20L10 20M30 30L30 80L80 80L80 30L30 30M90 30L90 60L110 60L110 40L100 40L100 30L90 30z"/>
<path style="fill:#000000; stroke:none;" d="M50 40L50 50L40 50L40 70L60 70L60 50L70 50L70 40L50 40z"/>
<path style="fill:#ffffff; stroke:none;" d="M10 60L10 80L20 80L20 60L10 60M90 70L90 80L100 80L100 70L90 70M50 90L50 100L40 100L40 110L60 110L60 100L90 100L90 90L50 90z"/>
</svg>
