<?xml version="1.0" standalone="yes"?>
<svg xmlns="http://www.w3.org/2000/svg" width="110" height="110">
<path style="fill:#000000; stroke:none;" d="M0 0L0 40L10 40L10 50L20 50L20 70L0 70L0 110L50 110L50 100L30 100L30 90L60 90L60 110L110 110L110 70L90 70L90 30L100 30L100 60L110 60L110 0L70 0L70 10L60 10L60 20L50 20L50 10L40 10L40 0L0 0z"/>
<path style="fill:#ffffff; stroke:none;" d="M40 0L40 10L50 10L50 20L60 20L60 10L70 10L70 0L40 0M20 10L20 20L10 20L10 30L20 30L20 20L40 20L40 10L20 10M70 10L70 20L80 20L80 10L70 10M30 30L30 80L80 80L80 30L30 30M90 30L90 70L110 70L110 60L100 60L100 30L90 30M0 40L0 70L20 70L20 50L10 50L10 40L0 40z"/>
<path style="fill:#000000; stroke:none;" d="M40 40L40 70L50 70L50 60L60 60L60 70L70 70L70 40L40 40z"/>
<path style="fill:#ffffff; stroke:none;" d="M10 80L10 90L20 90L20 80L10 80M90 80L90 90L70 90L70 100L90 100L90 90L100 90L100 80L90 80M30 90L30 100L50 100L50 110L60 110L60 90L30 90z"/>
</svg>
