<?xml version="1.0" standalone="yes"?>
<svg xmlns="http://www.w3.org/2000/svg" width="110" height="110">
<path style="fill:#000000; stroke:none;" d="M0 0L0 40L10 40L10 50L20 50L20 70L10 70L10 60L0 60L0 110L50 110L50 100L30 100L30 90L70 90L70 110L110 110L110 60L100 60L100 80L90 80L90 50L100 50L100 40L110 40L110 0L70 0L70 20L40 20L40 10L50 10L50 0L0 0z"/>
<path style="fill:#ffffff; stroke:none;" d="M50 0L50 10L40 10L40 20L70 20L70 0L50 0M90 20L90 40L100 40L100 20L90 20M10 30L10 40L20 40L20 30L10 30M30 30L30 80L80 80L80 30L30 30M0 40L0 60L10 60L10 70L20 70L20 50L10 50L10 40L0 40z"/>
<path style="fill:#000000; stroke:none;" d="M40 40L40 60L50 60L50 70L70 70L70 60L60 60L60 40L40 40z"/>
<path style="fill:#ffffff; stroke:none;" d="M100 40L100 50L90 50L90 80L100 80L100 60L110 60L110 40L100 40M30 90L30 100L50 100L50 110L70 110L70 90L30 90M80 90L80 100L90 100L90 90L80 90z"/>
</svg>
