<?xml version="1.0" standalone="yes"?>
<svg xmlns="http://www.w3.org/2000/svg" width="110" height="110">
<path style="fill:#000000; stroke:none;" d="M0 0L0 60L10 60L10 70L0 70L0 110L50 110L50 100L60 100L60 110L110 110L110 60L100 60L100 50L110 50L110 0L60 0L60 20L30 20L30 10L50 10L50 0L0 0z"/>
<path style="fill:#ffffff; stroke:none;" d="M50 0L50 10L30 10L30 20L60 20L60 0L50 0M70 10L70 20L80 20L80 10L70 10M90 20L90 40L100 40L100 20L90 20M10 30L10 40L20 40L20 30L10 30M30 30L30 80L80 80L80 30L30 30z"/>
<path style="fill:#000000; stroke:none;" d="M60 40L60 50L70 50L70 40L60 40z"/>
<path style="fill:#ffffff; stroke:none;" d="M10 50L10 60L20 60L20 50L10 50M100 50L100 60L110 60L110 50L100 50M0 60L0 70L10 70L10 60L0 60z"/>
<path style="fill:#000000; stroke:none;" d="M40 60L40 70L50 70L50 60L40 60z"/>
<path style="fill:#ffffff; stroke:none;" d="M10 70L10 80L20 80L20 70L10 70M90 70L90 90L100 90L100 70L90 70M20 90L20 100L40 100L40 90L20 90M70 90L70 100L80 100L80 90L70 90M50 100L50 110L60 110L60 100L50 100z"/>
</svg>
