<?xml version="1.0" standalone="yes"?>
<svg xmlns="http://www.w3.org/2000/svg" width="110" height="110">
<path style="fill:#000000; stroke:none;" d="M0 0L0 50L10 50L10 60L0 60L0 110L50 110L50 100L70 100L70 110L110 110L110 70L90 70L90 60L100 60L100 50L110 50L110 0L70 0L70 10L60 10L60 20L20 20L20 10L40 10L40 0L0 0z"/>
<path style="fill:#ffffff; stroke:none;" d="M40 0L40 10L20 10L20 20L60 20L60 10L70 10L70 0L40 0M10 20L10 50L20 50L20 20L10 20M30 30L30 80L80 80L80 30L30 30M90 30L90 40L100 40L100 30L90 30z"/>
<path style="fill:#000000; stroke:none;" d="M40 40L40 60L70 60L70 40L40 40z"/>
<path style="fill:#ffffff; stroke:none;" d="M0 50L0 60L10 60L10 50L0 50M100 50L100 60L90 60L90 70L110 70L110 50L100 50M10 60L10 70L20 70L20 60L10 60M10 80L10 90L20 90L20 80L10 80M90 80L90 90L100 90L100 80L90 80M30 90L30 100L40 100L40 90L30 90M70 90L70 100L80 100L80 90L70 90M50 100L50 110L70 110L70 100L50 100z"/>
</svg>
