<?xml version="1.0" standalone="yes"?>
<svg xmlns="http://www.w3.org/2000/svg" width="110" height="110">
<path style="fill:#000000; stroke:none;" d="M0 0L0 110L40 110L40 100L60 100L60 90L70 90L70 110L110 110L110 70L100 70L100 60L110 60L110 50L100 50L100 60L90 60L90 40L110 40L110 0L70 0L70 10L90 10L90 20L30 20L30 10L50 10L50 0L0 0z"/>
<path style="fill:#ffffff; stroke:none;" d="M50 0L50 10L30 10L30 20L90 20L90 10L70 10L70 0L50 0M10 20L10 70L20 70L20 20L10 20M30 30L30 80L80 80L80 30L30 30M90 40L90 60L100 60L100 50L110 50L110 40L90 40z"/>
<path style="fill:#000000; stroke:none;" d="M40 50L40 60L50 60L50 70L60 70L60 50L40 50z"/>
<path style="fill:#ffffff; stroke:none;" d="M100 60L100 70L110 70L110 60L100 60M90 70L90 90L80 90L80 100L90 100L90 90L100 90L100 70L90 70M30 90L30 100L40 100L40 90L30 90M60 90L60 100L40 100L40 110L70 110L70 90L60 90z"/>
</svg>
