<?xml version="1.0" standalone="yes"?>
<svg xmlns="http://www.w3.org/2000/svg" width="110" height="110">
<path style="fill:#000000; stroke:none;" d="M0 0L0 60L10 60L10 30L20 30L20 80L10 80L10 70L0 70L0 110L50 110L50 100L40 100L40 90L60 90L60 110L110 110L110 0L70 0L70 10L90 10L90 20L40 20L40 10L50 10L50 0L0 0z"/>
<path style="fill:#ffffff; stroke:none;" d="M50 0L50 10L40 10L40 20L90 20L90 10L70 10L70 0L50 0M20 10L20 20L30 20L30 10L20 10M90 20L90 40L100 40L100 20L90 20M10 30L10 60L0 60L0 70L10 70L10 80L20 80L20 30L10 30M30 30L30 80L80 80L80 30L30 30z"/>
<path style="fill:#000000; stroke:none;" d="M60 40L60 50L70 50L70 40L60 40M40 50L40 60L50 60L50 70L70 70L70 60L50 60L50 50L40 50z"/>
<path style="fill:#ffffff; stroke:none;" d="M90 60L90 70L100 70L100 60L90 60M90 80L90 90L80 90L80 100L90 100L90 90L100 90L100 80L90 80M40 90L40 100L50 100L50 110L60 110L60 90L40 90z"/>
</svg>
