<?xml version="1.0" standalone="yes"?>
<svg xmlns="http://www.w3.org/2000/svg" width="110" height="110">
<path style="fill:#000000; stroke:none;" d="M0 0L0 40L20 40L20 50L10 50L10 70L0 70L0 110L40 110L40 100L50 100L50 90L70 90L70 110L110 110L110 70L90 70L90 40L100 40L100 50L110 50L110 0L0 0z"/>
<path style="fill:#ffffff; stroke:none;" d="M20 10L20 20L30 20L30 10L20 10M50 10L50 20L80 20L80 10L50 10M90 20L90 30L100 30L100 20L90 20M30 30L30 80L80 80L80 30L30 30M0 40L0 70L10 70L10 50L20 50L20 40L0 40z"/>
<path style="fill:#000000; stroke:none;" d="M60 40L60 50L40 50L40 60L50 60L50 70L70 70L70 40L60 40z"/>
<path style="fill:#ffffff; stroke:none;" d="M90 40L90 70L110 70L110 50L100 50L100 40L90 40M10 70L10 90L20 90L20 70L10 70M90 80L90 90L100 90L100 80L90 80M50 90L50 100L40 100L40 110L70 110L70 90L50 90z"/>
</svg>
