<?xml version="1.0" standalone="yes"?>
<svg xmlns="http://www.w3.org/2000/svg" width="110" height="110">
<path style="fill:#000000; stroke:none;" d="M0 0L0 40L20 40L20 80L10 80L10 60L0 60L0 110L50 110L50 90L80 90L80 100L60 100L60 110L110 110L110 70L100 70L100 80L90 80L90 20L100 20L100 50L110 50L110 0L70 0L70 20L40 20L40 10L50 10L50 0L0 0z"/>
<path style="fill:#ffffff; stroke:none;" d="M50 0L50 10L40 10L40 20L70 20L70 0L50 0M90 20L90 80L100 80L100 70L110 70L110 50L100 50L100 20L90 20M30 30L30 80L80 80L80 30L30 30M0 40L0 60L10 60L10 80L20 80L20 40L0 40z"/>
<path style="fill:#000000; stroke:none;" d="M40 40L40 50L50 50L50 70L60 70L60 60L70 60L70 40L60 40L60 50L50 50L50 40L40 40z"/>
<path style="fill:#ffffff; stroke:none;" d="M20 90L20 100L40 100L40 90L20 90M50 90L50 110L60 110L60 100L80 100L80 90L50 90z"/>
</svg>
