<?xml version="1.0" standalone="yes"?>
<svg xmlns="http://www.w3.org/2000/svg" width="110" height="110">
<path style="fill:#000000; stroke:none;" d="M0 0L0 60L10 60L10 70L0 70L0 110L60 110L60 90L70 90L70 110L110 110L110 60L90 60L90 50L100 50L100 40L110 40L110 0L70 0L70 10L60 10L60 20L50 20L50 10L40 10L40 0L0 0z"/>
<path style="fill:#ffffff; stroke:none;" d="M40 0L40 10L50 10L50 20L60 20L60 10L70 10L70 0L40 0M20 10L20 20L30 20L30 10L20 10M70 10L70 20L90 20L90 10L70 10M10 30L10 40L20 40L20 30L10 30M30 30L30 80L80 80L80 30L30 30z"/>
<path style="fill:#000000; stroke:none;" d="M50 40L50 50L40 50L40 60L50 60L50 70L70 70L70 60L60 60L60 40L50 40z"/>
<path style="fill:#ffffff; stroke:none;" d="M100 40L100 50L90 50L90 60L110 60L110 40L100 40M0 60L0 70L10 70L10 60L0 60M90 80L90 90L80 90L80 100L90 100L90 90L100 90L100 80L90 80M30 90L30 100L40 100L40 90L30 90M60 90L60 110L70 110L70 90L60 90z"/>
</svg>
