<?xml version="1.0" standalone="yes"?>
<svg xmlns="http://www.w3.org/2000/svg" width="110" height="110">
<path style="fill:#000000; stroke:none;" d="M0 0L0 110L40 110L40 100L60 100L60 110L110 110L110 70L100 70L100 90L90 90L90 60L110 60L110 50L100 50L100 40L110 40L110 0L70 0L70 10L60 10L60 0L0 0z"/>
<path style="fill:#ffffff; stroke:none;" d="M60 0L60 10L70 10L70 0L60 0M20 10L20 20L30 20L30 10L20 10M40 10L40 20L50 20L50 10L40 10M70 10L70 20L90 20L90 30L100 30L100 20L90 20L90 10L70 10M30 30L30 80L80 80L80 30L30 30M10 40L10 70L20 70L20 40L10 40z"/>
<path style="fill:#000000; stroke:none;" d="M50 40L50 50L60 50L60 70L70 70L70 50L60 50L60 40L50 40z"/>
<path style="fill:#ffffff; stroke:none;" d="M100 40L100 50L110 50L110 40L100 40z"/>
<path style="fill:#000000; stroke:none;" d="M40 60L40 70L50 70L50 60L40 60z"/>
<path style="fill:#ffffff; stroke:none;" d="M90 60L90 90L100 90L100 70L110 70L110 60L90 60M10 80L10 90L20 90L20 100L30 100L30 90L20 90L20 80L10 80M60 90L60 100L80 100L80 90L60 90M40 100L40 110L60 110L60 100L40 100z"/>
</svg>
