<?xml version="1.0" standalone="yes"?>
<svg xmlns="http://www.w3.org/2000/svg" width="110" height="110">
<path style="fill:#000000; stroke:none;" d="M0 0L0 110L40 110L40 90L50 90L50 100L60 100L60 110L110 110L110 60L100 60L100 50L110 50L110 0L70 0L70 10L60 10L60 20L50 20L50 10L40 10L40 0L0 0z"/>
<path style="fill:#ffffff; stroke:none;" d="M40 0L40 10L50 10L50 20L60 20L60 10L70 10L70 0L40 0M70 10L70 20L90 20L90 30L100 30L100 20L90 20L90 10L70 10M10 20L10 40L20 40L20 20L10 20M30 30L30 80L80 80L80 30L30 30z"/>
<path style="fill:#000000; stroke:none;" d="M50 40L50 50L60 50L60 60L50 60L50 70L60 70L60 60L70 60L70 50L60 50L60 40L50 40z"/>
<path style="fill:#ffffff; stroke:none;" d="M90 40L90 50L100 50L100 40L90 40M100 50L100 60L110 60L110 50L100 50M90 60L90 80L100 80L100 60L90 60M10 80L10 90L20 90L20 80L10 80M40 90L40 110L60 110L60 100L50 100L50 90L40 90z"/>
</svg>
