<?xml version="1.0" standalone="yes"?>
<svg xmlns="http://www.w3.org/2000/svg" width="110" height="110">
<path style="fill:#000000; stroke:none;" d="M0 0L0 40L10 40L10 50L0 50L0 60L10 60L10 50L20 50L20 70L0 70L0 110L50 110L50 100L30 100L30 90L60 90L60 110L110 110L110 0L70 0L70 20L60 20L60 0L0 0z"/>
<path style="fill:#ffffff; stroke:none;" d="M60 0L60 20L70 20L70 0L60 0M20 10L20 20L30 20L30 10L20 10M40 10L40 20L50 20L50 10L40 10M80 10L80 20L90 20L90 30L100 30L100 20L90 20L90 10L80 10M30 30L30 80L80 80L80 30L30 30M0 40L0 50L10 50L10 40L0 40z"/>
<path style="fill:#000000; stroke:none;" d="M40 40L40 70L60 70L60 60L70 60L70 40L40 40z"/>
<path style="fill:#ffffff; stroke:none;" d="M10 50L10 60L0 60L0 70L20 70L20 50L10 50M50 50L50 60L60 60L60 50L50 50M90 50L90 60L100 60L100 50L90 50M10 80L10 90L20 90L20 80L10 80M30 90L30 100L50 100L50 110L60 110L60 90L30 90M70 90L70 100L80 100L80 90L70 90z"/>
</svg>
