<?xml version="1.0" standalone="yes"?>
<svg xmlns="http://www.w3.org/2000/svg" width="110" height="110">
<path style="fill:#000000; stroke:none;" d="M0 0L0 40L10 40L10 20L20 20L20 50L0 50L0 110L50 110L50 100L60 100L60 90L70 90L70 110L110 110L110 0L70 0L70 20L40 20L40 10L50 10L50 0L0 0z"/>
<path style="fill:#ffffff; stroke:none;" d="M50 0L50 10L40 10L40 20L70 20L70 0L50 0M10 20L10 40L0 40L0 50L20 50L20 20L10 20M90 20L90 50L100 50L100 20L90 20M30 30L30 80L80 80L80 30L30 30z"/>
<path style="fill:#000000; stroke:none;" d="M60 50L60 70L70 70L70 50L60 50M40 60L40 70L50 70L50 60L40 60z"/>
<path style="fill:#ffffff; stroke:none;" d="M10 80L10 90L20 90L20 80L10 80M30 90L30 100L50 100L50 90L30 90M60 90L60 100L50 100L50 110L70 110L70 90L60 90M80 90L80 100L90 100L90 90L80 90z"/>
</svg>
