<?xml version="1.0" standalone="yes"?>
<svg xmlns="http://www.w3.org/2000/svg" width="110" height="110">
<path style="fill:#000000; stroke:none;" d="M0 0L0 60L10 60L10 70L0 70L0 110L40 110L40 100L70 100L70 110L110 110L110 70L100 70L100 90L90 90L90 50L100 50L100 40L110 40L110 0L60 0L60 10L50 10L50 20L20 20L20 10L40 10L40 0L0 0z"/>
<path style="fill:#ffffff; stroke:none;" d="M40 0L40 10L20 10L20 20L50 20L50 10L60 10L60 0L40 0M90 20L90 40L100 40L100 20L90 20M10 30L10 40L20 40L20 30L10 30M30 30L30 80L80 80L80 30L30 30z"/>
<path style="fill:#000000; stroke:none;" d="M40 40L40 70L50 70L50 40L40 40M60 40L60 50L70 50L70 40L60 40z"/>
<path style="fill:#ffffff; stroke:none;" d="M100 40L100 50L90 50L90 90L100 90L100 70L110 70L110 40L100 40M0 60L0 70L10 70L10 60L0 60M30 90L30 100L40 100L40 90L30 90M70 90L70 100L90 100L90 90L70 90M40 100L40 110L70 110L70 100L40 100z"/>
</svg>
