<?xml version="1.0" standalone="yes"?>
<svg xmlns="http://www.w3.org/2000/svg" width="110" height="110">
<path style="fill:#000000; stroke:none;" d="M0 0L0 60L20 60L20 90L10 90L10 70L0 70L0 110L40 110L40 90L50 90L50 100L70 100L70 110L110 110L110 70L90 70L90 50L100 50L100 60L110 60L110 50L100 50L100 40L110 40L110 0L70 0L70 10L90 10L90 20L30 20L30 10L40 10L40 0L0 0z"/>
<path style="fill:#ffffff; stroke:none;" d="M40 0L40 10L30 10L30 20L90 20L90 10L70 10L70 0L60 0L60 10L50 10L50 0L40 0z"/>
<path style="fill:#000000; stroke:none;" d="M50 0L50 10L60 10L60 0L50 0z"/>
<path style="fill:#ffffff; stroke:none;" d="M10 20L10 50L20 50L20 20L10 20M90 20L90 30L100 30L100 20L90 20M30 30L30 80L80 80L80 30L30 30z"/>
<path style="fill:#000000; stroke:none;" d="M40 40L40 50L60 50L60 60L50 60L50 70L60 70L60 60L70 60L70 50L60 50L60 40L40 40z"/>
<path style="fill:#ffffff; stroke:none;" d="M100 40L100 50L110 50L110 40L100 40M90 50L90 70L110 70L110 60L100 60L100 50L90 50M0 60L0 70L10 70L10 90L20 90L20 60L0 60M40 90L40 110L70 110L70 100L50 100L50 90L40 90z"/>
</svg>
