<?xml version="1.0" standalone="yes"?>
<svg xmlns="http://www.w3.org/2000/svg" width="110" height="110">
<path style="fill:#000000; stroke:none;" d="M0 0L0 60L10 60L10 30L20 30L20 70L0 70L0 110L40 110L40 100L50 100L50 110L110 110L110 70L90 70L90 60L100 60L100 50L110 50L110 0L70 0L70 10L80 10L80 20L20 20L20 10L40 10L40 0L0 0z"/>
<path style="fill:#ffffff; stroke:none;" d="M40 0L40 10L20 10L20 20L80 20L80 10L70 10L70 0L40 0M10 30L10 60L0 60L0 70L20 70L20 30L10 30M30 30L30 80L80 80L80 30L30 30z"/>
<path style="fill:#000000; stroke:none;" d="M40 40L40 50L50 50L50 60L60 60L60 70L70 70L70 60L60 60L60 50L70 50L70 40L60 40L60 50L50 50L50 40L40 40z"/>
<path style="fill:#ffffff; stroke:none;" d="M90 40L90 50L100 50L100 40L90 40M100 50L100 60L90 60L90 70L110 70L110 50L100 50M10 80L10 90L20 90L20 100L40 100L40 90L20 90L20 80L10 80M70 90L70 100L90 100L90 90L70 90M40 100L40 110L50 110L50 100L40 100z"/>
</svg>
