<?xml version="1.0" standalone="yes"?>
<svg xmlns="http://www.w3.org/2000/svg" width="110" height="110">
<path style="fill:#000000; stroke:none;" d="M0 0L0 110L50 110L50 100L20 100L20 90L80 90L80 100L60 100L60 110L110 110L110 0L70 0L70 10L40 10L40 0L0 0z"/>
<path style="fill:#ffffff; stroke:none;" d="M40 0L40 10L70 10L70 0L40 0M30 10L30 20L40 20L40 10L30 10M80 10L80 20L90 20L90 50L100 50L100 20L90 20L90 10L80 10M10 20L10 70L20 70L20 20L10 20M30 30L30 80L80 80L80 30L30 30z"/>
<path style="fill:#000000; stroke:none;" d="M40 40L40 50L60 50L60 60L50 60L50 70L70 70L70 50L60 50L60 40L40 40z"/>
<path style="fill:#ffffff; stroke:none;" d="M90 60L90 90L100 90L100 60L90 60M20 90L20 100L50 100L50 110L60 110L60 100L80 100L80 90L20 90z"/>
</svg>
