<?xml version="1.0" standalone="yes"?>
<svg xmlns="http://www.w3.org/2000/svg" width="110" height="110">
<path style="fill:#000000; stroke:none;" d="M0 0L0 50L10 50L10 70L0 70L0 110L110 110L110 60L100 60L100 50L110 50L110 0L70 0L70 10L90 10L90 20L60 20L60 0L50 0L50 20L40 20L40 0L0 0z"/>
<path style="fill:#ffffff; stroke:none;" d="M40 0L40 20L50 20L50 0L40 0M60 0L60 20L90 20L90 10L70 10L70 0L60 0M90 20L90 40L100 40L100 20L90 20M30 30L30 80L80 80L80 30L30 30M10 40L10 50L20 50L20 40L10 40z"/>
<path style="fill:#000000; stroke:none;" d="M40 40L40 50L50 50L50 40L40 40M60 40L60 60L70 60L70 40L60 40z"/>
<path style="fill:#ffffff; stroke:none;" d="M0 50L0 70L10 70L10 50L0 50M100 50L100 60L110 60L110 50L100 50M10 70L10 80L20 80L20 70L10 70M90 70L90 90L60 90L60 100L90 100L90 90L100 90L100 70L90 70M20 90L20 100L30 100L30 90L20 90z"/>
</svg>
