<?xml version="1.0" standalone="yes"?>
<svg xmlns="http://www.w3.org/2000/svg" width="110" height="110">
<path style="fill:#000000; stroke:none;" d="M0 0L0 50L10 50L10 60L0 60L0 110L50 110L50 100L60 100L60 90L80 90L80 100L70 100L70 110L110 110L110 60L100 60L100 70L90 70L90 50L110 50L110 0L60 0L60 10L40 10L40 0L0 0z"/>
<path style="fill:#ffffff; stroke:none;" d="M40 0L40 10L60 10L60 0L40 0M60 10L60 20L80 20L80 10L60 10M10 20L10 30L20 30L20 20L10 20M30 30L30 80L80 80L80 30L30 30M90 30L90 40L100 40L100 30L90 30M10 40L10 50L20 50L20 40L10 40z"/>
<path style="fill:#000000; stroke:none;" d="M60 40L60 50L40 50L40 60L50 60L50 70L60 70L60 60L70 60L70 40L60 40z"/>
<path style="fill:#ffffff; stroke:none;" d="M0 50L0 60L10 60L10 50L0 50M90 50L90 70L100 70L100 60L110 60L110 50L90 50M90 80L90 90L100 90L100 80L90 80M40 90L40 100L50 100L50 90L40 90M60 90L60 100L50 100L50 110L70 110L70 100L80 100L80 90L60 90z"/>
</svg>
