<?xml version="1.0" standalone="yes"?>
<svg xmlns="http://www.w3.org/2000/svg" width="110" height="110">
<path style="fill:#000000; stroke:none;" d="M0 0L0 40L10 40L10 30L20 30L20 90L10 90L10 70L0 70L0 110L40 110L40 100L20 100L20 90L50 90L50 110L110 110L110 50L100 50L100 40L110 40L110 0L0 0z"/>
<path style="fill:#ffffff; stroke:none;" d="M30 10L30 20L80 20L80 10L30 10M90 20L90 40L100 40L100 20L90 20M10 30L10 40L0 40L0 70L10 70L10 90L20 90L20 30L10 30M30 30L30 80L80 80L80 30L30 30z"/>
<path style="fill:#000000; stroke:none;" d="M40 40L40 60L60 60L60 40L40 40z"/>
<path style="fill:#ffffff; stroke:none;" d="M100 40L100 50L110 50L110 40L100 40M90 60L90 80L100 80L100 60L90 60M20 90L20 100L40 100L40 110L50 110L50 90L20 90M60 90L60 100L90 100L90 90L60 90z"/>
</svg>
