<?xml version="1.0" standalone="yes"?>
<svg xmlns="http://www.w3.org/2000/svg" width="110" height="110">
<path style="fill:#000000; stroke:none;" d="M0 0L0 40L10 40L10 50L0 50L0 60L10 60L10 70L0 70L0 110L40 110L40 100L50 100L50 110L60 110L60 100L50 100L50 90L90 90L90 100L70 100L70 110L110 110L110 60L90 60L90 40L100 40L100 50L110 50L110 0L70 0L70 20L60 20L60 0L50 0L50 10L40 10L40 0L0 0z"/>
<path style="fill:#ffffff; stroke:none;" d="M40 0L40 10L50 10L50 0L40 0M60 0L60 20L70 20L70 0L60 0M10 20L10 30L20 30L20 20L10 20M30 30L30 80L80 80L80 30L30 30M0 40L0 50L10 50L10 40L0 40z"/>
<path style="fill:#000000; stroke:none;" d="M50 40L50 50L40 50L40 70L60 70L60 40L50 40z"/>
<path style="fill:#ffffff; stroke:none;" d="M90 40L90 60L110 60L110 50L100 50L100 40L90 40M10 50L10 60L20 60L20 50L10 50M0 60L0 70L10 70L10 60L0 60M10 70L10 90L20 90L20 70L10 70M90 70L90 90L100 90L100 70L90 70M30 90L30 100L40 100L40 90L30 90M50 90L50 100L60 100L60 110L70 110L70 100L90 100L90 90L50 90M40 100L40 110L50 110L50 100L40 100z"/>
</svg>
