<?xml version="1.0" standalone="yes"?>
<svg xmlns="http://www.w3.org/2000/svg" width="110" height="110">
<path style="fill:#000000; stroke:none;" d="M0 0L0 50L20 50L20 60L10 60L10 70L0 70L0 110L40 110L40 100L50 100L50 110L110 110L110 0L70 0L70 10L80 10L80 20L50 20L50 0L0 0z"/>
<path style="fill:#ffffff; stroke:none;" d="M50 0L50 20L80 20L80 10L70 10L70 0L50 0M20 10L20 20L10 20L10 40L20 40L20 20L30 20L30 10L20 10M30 30L30 80L80 80L80 30L30 30M90 30L90 70L100 70L100 30L90 30z"/>
<path style="fill:#000000; stroke:none;" d="M40 40L40 50L60 50L60 40L40 40z"/>
<path style="fill:#ffffff; stroke:none;" d="M0 50L0 70L10 70L10 60L20 60L20 50L0 50z"/>
<path style="fill:#000000; stroke:none;" d="M40 60L40 70L70 70L70 60L40 60z"/>
<path style="fill:#ffffff; stroke:none;" d="M60 90L60 100L90 100L90 90L60 90M40 100L40 110L50 110L50 100L40 100z"/>
</svg>
