<?xml version="1.0" standalone="yes"?>
<svg xmlns="http://www.w3.org/2000/svg" width="110" height="110">
<path style="fill:#000000; stroke:none;" d="M0 0L0 110L60 110L60 100L50 100L50 90L80 90L80 100L70 100L70 110L110 110L110 60L90 60L90 40L110 40L110 0L70 0L70 10L80 10L80 20L20 20L20 10L50 10L50 0L0 0z"/>
<path style="fill:#ffffff; stroke:none;" d="M50 0L50 10L20 10L20 20L80 20L80 10L70 10L70 0L50 0M10 20L10 30L20 30L20 20L10 20M30 30L30 80L80 80L80 30L30 30M10 40L10 60L20 60L20 40L10 40z"/>
<path style="fill:#000000; stroke:none;" d="M40 40L40 70L70 70L70 60L50 60L50 50L60 50L60 40L40 40z"/>
<path style="fill:#ffffff; stroke:none;" d="M90 40L90 60L110 60L110 40L90 40M10 70L10 80L20 80L20 70L10 70M90 70L90 80L100 80L100 70L90 70M20 90L20 100L30 100L30 90L20 90M50 90L50 100L60 100L60 110L70 110L70 100L80 100L80 90L50 90z"/>
</svg>
