<?xml version="1.0" standalone="yes"?>
<svg xmlns="http://www.w3.org/2000/svg" width="110" height="110">
<path style="fill:#000000; stroke:none;" d="M0 0L0 50L20 50L20 60L10 60L10 70L0 70L0 110L110 110L110 60L100 60L100 50L110 50L110 0L60 0L60 10L50 10L50 20L40 20L40 0L0 0z"/>
<path style="fill:#ffffff; stroke:none;" d="M40 0L40 20L50 20L50 10L60 10L60 0L40 0M20 10L20 20L10 20L10 30L20 30L20 20L30 20L30 10L20 10M60 10L60 20L80 20L80 10L60 10M30 30L30 80L80 80L80 30L30 30M90 30L90 50L100 50L100 30L90 30z"/>
<path style="fill:#000000; stroke:none;" d="M40 40L40 50L50 50L50 70L60 70L60 60L70 60L70 40L60 40L60 50L50 50L50 40L40 40z"/>
<path style="fill:#ffffff; stroke:none;" d="M0 50L0 70L10 70L10 60L20 60L20 50L0 50M100 50L100 60L110 60L110 50L100 50M90 60L90 80L100 80L100 60L90 60M10 70L10 80L20 80L20 70L10 70M70 90L70 100L80 100L80 90L70 90z"/>
</svg>
