<?xml version="1.0" standalone="yes"?>
<svg xmlns="http://www.w3.org/2000/svg" width="110" height="110">
<path style="fill:#000000; stroke:none;" d="M0 0L0 40L10 40L10 30L20 30L20 50L0 50L0 110L40 110L40 100L60 100L60 90L90 90L90 100L70 100L70 110L110 110L110 0L70 0L70 20L50 20L50 0L0 0z"/>
<path style="fill:#ffffff; stroke:none;" d="M50 0L50 20L70 20L70 0L50 0M30 10L30 20L40 20L40 10L30 10M90 20L90 40L100 40L100 20L90 20M10 30L10 40L0 40L0 50L20 50L20 30L10 30M30 30L30 80L80 80L80 30L30 30z"/>
<path style="fill:#000000; stroke:none;" d="M60 40L60 50L70 50L70 40L60 40M40 60L40 70L50 70L50 60L40 60M60 60L60 70L70 70L70 60L60 60z"/>
<path style="fill:#ffffff; stroke:none;" d="M10 70L10 90L20 90L20 70L10 70M90 70L90 90L100 90L100 70L90 70M30 90L30 100L40 100L40 90L30 90M60 90L60 100L40 100L40 110L70 110L70 100L90 100L90 90L60 90z"/>
</svg>
