<?xml version="1.0" standalone="yes"?>
<svg xmlns="http://www.w3.org/2000/svg" width="110" height="110">
<path style="fill:#000000; stroke:none;" d="M0 0L0 40L10 40L10 30L20 30L20 50L10 50L10 60L20 60L20 90L10 90L10 70L0 70L0 110L40 110L40 90L50 90L50 100L60 100L60 110L110 110L110 0L70 0L70 20L60 20L60 0L50 0L50 20L30 20L30 10L40 10L40 0L0 0z"/>
<path style="fill:#ffffff; stroke:none;" d="M40 0L40 10L30 10L30 20L50 20L50 0L40 0M60 0L60 20L70 20L70 0L60 0M90 20L90 40L100 40L100 20L90 20M10 30L10 40L0 40L0 70L10 70L10 90L20 90L20 60L10 60L10 50L20 50L20 30L10 30M30 30L30 80L80 80L80 30L30 30z"/>
<path style="fill:#000000; stroke:none;" d="M40 40L40 50L50 50L50 40L40 40M60 40L60 60L40 60L40 70L70 70L70 40L60 40z"/>
<path style="fill:#ffffff; stroke:none;" d="M90 50L90 90L100 90L100 50L90 50M40 90L40 110L60 110L60 100L50 100L50 90L40 90M60 90L60 100L80 100L80 90L60 90z"/>
</svg>
