<?xml version="1.0" standalone="yes"?>
<svg xmlns="http://www.w3.org/2000/svg" width="110" height="110">
<path style="fill:#000000; stroke:none;" d="M0 0L0 50L10 50L10 60L0 60L0 110L40 110L40 100L70 100L70 110L110 110L110 60L100 60L100 50L110 50L110 0L50 0L50 20L30 20L30 10L40 10L40 0L0 0z"/>
<path style="fill:#ffffff; stroke:none;" d="M40 0L40 10L30 10L30 20L50 20L50 0L40 0M90 20L90 40L100 40L100 20L90 20M10 30L10 50L20 50L20 30L10 30M30 30L30 80L80 80L80 30L30 30z"/>
<path style="fill:#000000; stroke:none;" d="M40 40L40 60L60 60L60 70L70 70L70 40L60 40L60 50L50 50L50 40L40 40z"/>
<path style="fill:#ffffff; stroke:none;" d="M0 50L0 60L10 60L10 50L0 50M100 50L100 60L110 60L110 50L100 50M10 80L10 90L20 90L20 80L10 80M70 90L70 100L80 100L80 90L70 90M40 100L40 110L70 110L70 100L40 100z"/>
</svg>
