<?xml version="1.0" standalone="yes"?>
<svg xmlns="http://www.w3.org/2000/svg" width="110" height="110">
<path style="fill:#000000; stroke:none;" d="M0 0L0 50L20 50L20 90L10 90L10 70L0 70L0 110L40 110L40 100L30 100L30 90L60 90L60 100L50 100L50 110L60 110L60 100L70 100L70 110L110 110L110 70L100 70L100 50L110 50L110 0L70 0L70 10L60 10L60 0L0 0z"/>
<path style="fill:#ffffff; stroke:none;" d="M60 0L60 10L70 10L70 0L60 0M30 10L30 20L50 20L50 10L30 10M80 10L80 20L90 20L90 10L80 10M10 30L10 40L20 40L20 30L10 30M30 30L30 80L80 80L80 30L30 30M90 30L90 50L100 50L100 30L90 30z"/>
<path style="fill:#000000; stroke:none;" d="M40 40L40 50L50 50L50 40L40 40z"/>
<path style="fill:#ffffff; stroke:none;" d="M0 50L0 70L10 70L10 90L20 90L20 50L0 50z"/>
<path style="fill:#000000; stroke:none;" d="M60 50L60 60L40 60L40 70L70 70L70 50L60 50z"/>
<path style="fill:#ffffff; stroke:none;" d="M100 50L100 70L110 70L110 50L100 50M90 70L90 90L100 90L100 70L90 70M30 90L30 100L40 100L40 110L50 110L50 100L60 100L60 90L30 90M70 90L70 100L80 100L80 90L70 90M60 100L60 110L70 110L70 100L60 100z"/>
</svg>
