<?xml version="1.0" standalone="yes"?>
<svg xmlns="http://www.w3.org/2000/svg" width="110" height="110">
<path style="fill:#000000; stroke:none;" d="M0 0L0 50L10 50L10 60L0 60L0 110L40 110L40 100L70 100L70 110L110 110L110 0L70 0L70 10L90 10L90 20L60 20L60 0L50 0L50 20L40 20L40 0L0 0z"/>
<path style="fill:#ffffff; stroke:none;" d="M40 0L40 20L50 20L50 0L40 0M60 0L60 20L90 20L90 10L70 10L70 0L60 0M90 20L90 30L100 30L100 20L90 20M10 30L10 50L20 50L20 30L10 30M30 30L30 80L80 80L80 30L30 30z"/>
<path style="fill:#000000; stroke:none;" d="M40 40L40 70L70 70L70 40L40 40z"/>
<path style="fill:#ffffff; stroke:none;" d="M90 40L90 50L100 50L100 40L90 40M0 50L0 60L10 60L10 50L0 50M50 50L50 60L60 60L60 50L50 50M10 60L10 80L20 80L20 60L10 60M90 60L90 70L100 70L100 60L90 60M90 80L90 90L80 90L80 100L90 100L90 90L100 90L100 80L90 80M30 90L30 100L40 100L40 90L30 90M40 100L40 110L70 110L70 100L40 100z"/>
</svg>
