<?xml version="1.0" standalone="yes"?>
<svg xmlns="http://www.w3.org/2000/svg" width="110" height="110">
<path style="fill:#000000; stroke:none;" d="M0 0L0 110L50 110L50 90L90 90L90 100L60 100L60 110L110 110L110 60L90 60L90 40L100 40L100 50L110 50L110 0L60 0L60 10L50 10L50 0L0 0z"/>
<path style="fill:#ffffff; stroke:none;" d="M50 0L50 10L60 10L60 0L50 0M20 10L20 20L10 20L10 30L20 30L20 20L40 20L40 10L20 10M60 10L60 20L70 20L70 10L60 10M80 10L80 20L90 20L90 30L100 30L100 20L90 20L90 10L80 10M30 30L30 80L80 80L80 30L30 30z"/>
<path style="fill:#000000; stroke:none;" d="M40 40L40 60L50 60L50 70L70 70L70 60L60 60L60 50L50 50L50 40L40 40z"/>
<path style="fill:#ffffff; stroke:none;" d="M90 40L90 60L110 60L110 50L100 50L100 40L90 40M10 50L10 60L20 60L20 50L10 50M90 70L90 80L100 80L100 70L90 70M20 90L20 100L40 100L40 90L20 90M50 90L50 110L60 110L60 100L90 100L90 90L50 90z"/>
</svg>
