<?xml version="1.0" standalone="yes"?>
<svg xmlns="http://www.w3.org/2000/svg" width="110" height="110">
<path style="fill:#000000; stroke:none;" d="M0 0L0 110L40 110L40 90L80 90L80 100L50 100L50 110L110 110L110 60L90 60L90 20L100 20L100 50L110 50L110 0L50 0L50 10L60 10L60 20L20 20L20 10L40 10L40 0L0 0z"/>
<path style="fill:#ffffff; stroke:none;" d="M40 0L40 10L20 10L20 20L60 20L60 10L50 10L50 0L40 0M70 10L70 20L80 20L80 10L70 10M10 20L10 90L20 90L20 100L30 100L30 90L20 90L20 20L10 20M90 20L90 60L110 60L110 50L100 50L100 20L90 20M30 30L30 80L80 80L80 30L30 30z"/>
<path style="fill:#000000; stroke:none;" d="M50 40L50 50L40 50L40 60L50 60L50 70L70 70L70 60L50 60L50 50L70 50L70 40L50 40z"/>
<path style="fill:#ffffff; stroke:none;" d="M90 80L90 90L100 90L100 80L90 80M40 90L40 110L50 110L50 100L80 100L80 90L40 90z"/>
</svg>
