<?xml version="1.0" standalone="yes"?>
<svg xmlns="http://www.w3.org/2000/svg" width="110" height="110">
<path style="fill:#000000; stroke:none;" d="M0 0L0 50L10 50L10 60L0 60L0 110L50 110L50 100L60 100L60 110L110 110L110 50L100 50L100 40L110 40L110 0L70 0L70 10L60 10L60 0L0 0z"/>
<path style="fill:#ffffff; stroke:none;" d="M60 0L60 10L70 10L70 0L60 0M20 10L20 20L10 20L10 50L20 50L20 20L60 20L60 10L20 10M70 10L70 20L80 20L80 10L70 10M90 20L90 40L100 40L100 20L90 20M30 30L30 80L80 80L80 30L30 30z"/>
<path style="fill:#000000; stroke:none;" d="M40 40L40 50L50 50L50 40L40 40M60 40L60 50L70 50L70 40L60 40z"/>
<path style="fill:#ffffff; stroke:none;" d="M100 40L100 50L110 50L110 40L100 40M0 50L0 60L10 60L10 50L0 50z"/>
<path style="fill:#000000; stroke:none;" d="M50 60L50 70L70 70L70 60L50 60z"/>
<path style="fill:#ffffff; stroke:none;" d="M90 60L90 90L60 90L60 100L90 100L90 90L100 90L100 60L90 60M50 100L50 110L60 110L60 100L50 100z"/>
</svg>
