<?xml version="1.0" standalone="yes"?>
<svg xmlns="http://www.w3.org/2000/svg" width="110" height="110">
<path style="fill:#000000; stroke:none;" d="M0 0L0 60L10 60L10 50L20 50L20 80L10 80L10 70L0 70L0 110L110 110L110 0L70 0L70 10L80 10L80 20L40 20L40 10L50 10L50 0L0 0z"/>
<path style="fill:#ffffff; stroke:none;" d="M50 0L50 10L40 10L40 20L80 20L80 10L70 10L70 0L50 0M20 10L20 20L30 20L30 10L20 10M90 20L90 30L100 30L100 20L90 20M30 30L30 80L80 80L80 30L30 30z"/>
<path style="fill:#000000; stroke:none;" d="M60 40L60 50L50 50L50 60L40 60L40 70L60 70L60 50L70 50L70 40L60 40z"/>
<path style="fill:#ffffff; stroke:none;" d="M90 40L90 50L100 50L100 40L90 40M10 50L10 60L0 60L0 70L10 70L10 80L20 80L20 50L10 50M90 60L90 90L80 90L80 100L90 100L90 90L100 90L100 60L90 60M50 90L50 100L60 100L60 90L50 90z"/>
</svg>
