<?xml version="1.0" standalone="yes"?>
<svg xmlns="http://www.w3.org/2000/svg" width="110" height="110">
<path style="fill:#000000; stroke:none;" d="M0 0L0 40L10 40L10 60L0 60L0 110L40 110L40 100L20 100L20 90L50 90L50 110L60 110L60 90L70 90L70 110L110 110L110 70L90 70L90 40L110 40L110 0L70 0L70 10L90 10L90 20L20 20L20 10L60 10L60 0L0 0z"/>
<path style="fill:#ffffff; stroke:none;" d="M60 0L60 10L20 10L20 20L90 20L90 10L70 10L70 0L60 0M30 30L30 80L80 80L80 30L30 30M0 40L0 60L10 60L10 40L0 40z"/>
<path style="fill:#000000; stroke:none;" d="M40 40L40 70L50 70L50 40L40 40z"/>
<path style="fill:#ffffff; stroke:none;" d="M90 40L90 70L110 70L110 40L90 40M10 60L10 80L20 80L20 60L10 60M90 80L90 90L100 90L100 80L90 80M20 90L20 100L40 100L40 110L50 110L50 90L20 90M60 90L60 110L70 110L70 90L60 90z"/>
</svg>
