<?xml version="1.0" standalone="yes"?>
<svg xmlns="http://www.w3.org/2000/svg" width="110" height="110">
<path style="fill:#000000; stroke:none;" d="M0 0L0 40L10 40L10 20L20 20L20 90L10 90L10 60L0 60L0 110L110 110L110 60L100 60L100 70L90 70L90 20L100 20L100 50L110 50L110 0L60 0L60 20L50 20L50 0L0 0z"/>
<path style="fill:#ffffff; stroke:none;" d="M50 0L50 20L60 20L60 0L50 0M20 10L20 20L40 20L40 10L20 10M80 10L80 20L90 20L90 10L80 10M10 20L10 40L0 40L0 60L10 60L10 90L20 90L20 20L10 20M90 20L90 70L100 70L100 60L110 60L110 50L100 50L100 20L90 20M30 30L30 80L80 80L80 30L30 30z"/>
<path style="fill:#000000; stroke:none;" d="M40 40L40 50L50 50L50 60L60 60L60 50L50 50L50 40L40 40z"/>
<path style="fill:#ffffff; stroke:none;" d="M90 80L90 90L100 90L100 80L90 80M20 90L20 100L50 100L50 90L20 90M60 90L60 100L80 100L80 90L60 90z"/>
</svg>
