<?xml version="1.0" standalone="yes"?>
<svg xmlns="http://www.w3.org/2000/svg" width="110" height="110">
<path style="fill:#000000; stroke:none;" d="M0 0L0 60L10 60L10 70L0 70L0 110L40 110L40 100L70 100L70 110L110 110L110 70L100 70L100 60L110 60L110 0L60 0L60 20L40 20L40 0L0 0z"/>
<path style="fill:#ffffff; stroke:none;" d="M40 0L40 20L60 20L60 0L40 0M80 10L80 20L90 20L90 30L100 30L100 20L90 20L90 10L80 10M10 20L10 30L20 30L20 20L10 20M30 30L30 80L80 80L80 30L30 30z"/>
<path style="fill:#000000; stroke:none;" d="M50 40L50 50L40 50L40 70L60 70L60 60L70 60L70 50L60 50L60 40L50 40z"/>
<path style="fill:#ffffff; stroke:none;" d="M50 50L50 60L60 60L60 50L50 50M0 60L0 70L10 70L10 60L0 60M100 60L100 70L110 70L110 60L100 60M10 70L10 80L20 80L20 70L10 70M20 90L20 100L40 100L40 90L20 90M40 100L40 110L70 110L70 100L40 100z"/>
</svg>
