<?xml version="1.0" standalone="yes"?>
<svg xmlns="http://www.w3.org/2000/svg" width="110" height="110">
<path style="fill:#000000; stroke:none;" d="M0 0L0 50L10 50L10 60L0 60L0 110L60 110L60 100L70 100L70 110L110 110L110 50L100 50L100 90L90 90L90 40L110 40L110 0L0 0z"/>
<path style="fill:#ffffff; stroke:none;" d="M50 10L50 20L60 20L60 10L50 10M70 10L70 20L80 20L80 10L70 10M10 20L10 30L20 30L20 20L10 20M30 30L30 80L80 80L80 30L30 30z"/>
<path style="fill:#000000; stroke:none;" d="M50 40L50 70L60 70L60 40L50 40z"/>
<path style="fill:#ffffff; stroke:none;" d="M90 40L90 90L100 90L100 50L110 50L110 40L90 40M0 50L0 60L10 60L10 50L0 50M10 60L10 70L20 70L20 60L10 60M20 90L20 100L30 100L30 90L20 90M40 90L40 100L60 100L60 90L40 90M70 90L70 100L90 100L90 90L70 90M60 100L60 110L70 110L70 100L60 100z"/>
</svg>
