<?xml version="1.0" standalone="yes"?>
<svg xmlns="http://www.w3.org/2000/svg" width="110" height="110">
<path style="fill:#000000; stroke:none;" d="M0 0L0 50L10 50L10 60L20 60L20 90L10 90L10 70L0 70L0 110L40 110L40 100L50 100L50 110L110 110L110 50L100 50L100 40L110 40L110 0L60 0L60 10L50 10L50 20L40 20L40 0L0 0z"/>
<path style="fill:#ffffff; stroke:none;" d="M40 0L40 20L50 20L50 10L60 10L60 0L40 0M10 20L10 30L20 30L20 20L10 20M90 20L90 30L100 30L100 20L90 20M30 30L30 80L80 80L80 30L30 30M10 40L10 50L20 50L20 40L10 40z"/>
<path style="fill:#000000; stroke:none;" d="M60 40L60 50L50 50L50 70L60 70L60 50L70 50L70 40L60 40z"/>
<path style="fill:#ffffff; stroke:none;" d="M100 40L100 50L110 50L110 40L100 40M0 50L0 70L10 70L10 90L20 90L20 60L10 60L10 50L0 50M90 50L90 90L80 90L80 100L90 100L90 90L100 90L100 50L90 50M20 90L20 100L30 100L30 90L20 90M50 90L50 100L70 100L70 90L50 90M40 100L40 110L50 110L50 100L40 100z"/>
</svg>
