<?xml version="1.0" standalone="yes"?>
<svg xmlns="http://www.w3.org/2000/svg" width="110" height="110">
<path style="fill:#000000; stroke:none;" d="M0 0L0 60L20 60L20 70L0 70L0 110L110 110L110 70L100 70L100 80L90 80L90 60L100 60L100 50L110 50L110 0L0 0z"/>
<path style="fill:#ffffff; stroke:none;" d="M40 10L40 20L60 20L60 10L40 10M70 10L70 20L80 20L80 10L70 10M10 20L10 30L20 30L20 20L10 20M90 20L90 30L100 30L100 20L90 20M30 30L30 80L80 80L80 30L30 30M10 40L10 50L20 50L20 40L10 40z"/>
<path style="fill:#000000; stroke:none;" d="M40 40L40 60L60 60L60 50L50 50L50 40L40 40z"/>
<path style="fill:#ffffff; stroke:none;" d="M90 40L90 50L100 50L100 40L90 40M100 50L100 60L90 60L90 80L100 80L100 70L110 70L110 50L100 50M0 60L0 70L20 70L20 60L0 60M30 90L30 100L60 100L60 90L30 90M70 90L70 100L80 100L80 90L70 90z"/>
</svg>
