<?xml version="1.0" standalone="yes"?>
<svg xmlns="http://www.w3.org/2000/svg" width="110" height="110">
<path style="fill:#000000; stroke:none;" d="M0 0L0 50L10 50L10 60L0 60L0 110L60 110L60 100L70 100L70 110L110 110L110 70L90 70L90 60L110 60L110 50L90 50L90 30L100 30L100 40L110 40L110 0L0 0z"/>
<path style="fill:#ffffff; stroke:none;" d="M40 10L40 20L60 20L60 10L40 10M70 10L70 20L90 20L90 10L70 10M10 20L10 30L20 30L20 20L10 20M30 30L30 80L80 80L80 30L30 30M90 30L90 50L110 50L110 40L100 40L100 30L90 30z"/>
<path style="fill:#000000; stroke:none;" d="M60 40L60 60L40 60L40 70L70 70L70 40L60 40z"/>
<path style="fill:#ffffff; stroke:none;" d="M0 50L0 60L10 60L10 50L0 50M10 60L10 90L20 90L20 100L60 100L60 90L20 90L20 60L10 60M90 60L90 70L110 70L110 60L90 60M90 80L90 90L100 90L100 80L90 80M70 90L70 100L80 100L80 90L70 90M60 100L60 110L70 110L70 100L60 100z"/>
</svg>
