<?xml version="1.0" standalone="yes"?>
<svg xmlns="http://www.w3.org/2000/svg" width="110" height="110">
<path style="fill:#000000; stroke:none;" d="M0 0L0 60L10 60L10 70L0 70L0 110L40 110L40 100L60 100L60 90L70 90L70 110L110 110L110 70L100 70L100 80L90 80L90 50L100 50L100 60L110 60L110 0L70 0L70 10L80 10L80 20L50 20L50 0L0 0z"/>
<path style="fill:#ffffff; stroke:none;" d="M50 0L50 20L80 20L80 10L70 10L70 0L50 0M90 20L90 30L100 30L100 20L90 20M30 30L30 80L80 80L80 30L30 30z"/>
<path style="fill:#000000; stroke:none;" d="M40 40L40 50L50 50L50 60L40 60L40 70L70 70L70 50L50 50L50 40L40 40z"/>
<path style="fill:#ffffff; stroke:none;" d="M10 50L10 60L20 60L20 50L10 50M90 50L90 80L100 80L100 70L110 70L110 60L100 60L100 50L90 50M0 60L0 70L10 70L10 60L0 60M10 70L10 90L20 90L20 100L40 100L40 90L20 90L20 70L10 70M60 90L60 100L40 100L40 110L70 110L70 90L60 90z"/>
</svg>
