<?xml version="1.0" standalone="yes"?>
<svg xmlns="http://www.w3.org/2000/svg" width="110" height="110">
<path style="fill:#000000; stroke:none;" d="M0 0L0 50L20 50L20 60L0 60L0 110L40 110L40 100L50 100L50 110L60 110L60 90L70 90L70 110L110 110L110 70L100 70L100 40L110 40L110 0L70 0L70 10L80 10L80 20L40 20L40 0L0 0z"/>
<path style="fill:#ffffff; stroke:none;" d="M40 0L40 20L80 20L80 10L70 10L70 0L40 0M20 10L20 20L10 20L10 40L20 40L20 20L30 20L30 10L20 10M90 20L90 30L100 30L100 20L90 20M30 30L30 80L80 80L80 30L30 30z"/>
<path style="fill:#000000; stroke:none;" d="M40 40L40 50L50 50L50 70L60 70L60 60L70 60L70 40L60 40L60 50L50 50L50 40L40 40z"/>
<path style="fill:#ffffff; stroke:none;" d="M100 40L100 70L110 70L110 40L100 40M0 50L0 60L20 60L20 50L0 50M90 70L90 90L100 90L100 70L90 70M20 90L20 100L40 100L40 90L20 90M60 90L60 110L70 110L70 90L60 90M40 100L40 110L50 110L50 100L40 100z"/>
</svg>
