<?xml version="1.0" standalone="yes"?>
<svg xmlns="http://www.w3.org/2000/svg" width="110" height="110">
<path style="fill:#000000; stroke:none;" d="M0 0L0 40L10 40L10 30L20 30L20 70L0 70L0 110L50 110L50 100L70 100L70 110L110 110L110 70L100 70L100 40L110 40L110 0L70 0L70 10L50 10L50 0L0 0z"/>
<path style="fill:#ffffff; stroke:none;" d="M50 0L50 10L70 10L70 0L50 0M30 10L30 20L50 20L50 10L30 10M10 30L10 40L0 40L0 50L10 50L10 60L0 60L0 70L20 70L20 30L10 30M30 30L30 80L80 80L80 30L30 30z"/>
<path style="fill:#000000; stroke:none;" d="M40 40L40 50L50 50L50 70L60 70L60 60L70 60L70 40L40 40z"/>
<path style="fill:#ffffff; stroke:none;" d="M100 40L100 70L110 70L110 40L100 40z"/>
<path style="fill:#000000; stroke:none;" d="M0 50L0 60L10 60L10 50L0 50z"/>
<path style="fill:#ffffff; stroke:none;" d="M90 80L90 90L100 90L100 80L90 80M30 90L30 100L40 100L40 90L30 90M70 90L70 100L80 100L80 90L70 90M50 100L50 110L70 110L70 100L50 100z"/>
</svg>
