<?xml version="1.0" standalone="yes"?>
<svg xmlns="http://www.w3.org/2000/svg" width="110" height="110">
<path style="fill:#000000; stroke:none;" d="M0 0L0 40L10 40L10 50L0 50L0 110L40 110L40 100L60 100L60 110L110 110L110 0L60 0L60 20L50 20L50 10L40 10L40 0L0 0z"/>
<path style="fill:#ffffff; stroke:none;" d="M40 0L40 10L50 10L50 20L60 20L60 0L40 0M20 10L20 20L40 20L40 10L20 10M10 30L10 40L20 40L20 30L10 30M30 30L30 80L80 80L80 30L30 30M90 30L90 50L100 50L100 30L90 30M0 40L0 50L10 50L10 40L0 40z"/>
<path style="fill:#000000; stroke:none;" d="M40 40L40 70L70 70L70 50L60 50L60 40L40 40z"/>
<path style="fill:#ffffff; stroke:none;" d="M10 50L10 60L20 60L20 50L10 50M50 50L50 60L60 60L60 50L50 50M10 70L10 90L20 90L20 100L40 100L40 90L20 90L20 70L10 70M90 70L90 90L100 90L100 70L90 70M60 90L60 100L70 100L70 90L60 90M40 100L40 110L60 110L60 100L40 100z"/>
</svg>
