<?xml version="1.0" standalone="yes"?>
<svg xmlns="http://www.w3.org/2000/svg" width="110" height="110">
<path style="fill:#000000; stroke:none;" d="M0 0L0 40L10 40L10 50L0 50L0 110L40 110L40 100L50 100L50 110L110 110L110 50L100 50L100 40L110 40L110 0L70 0L70 10L80 10L80 20L60 20L60 10L50 10L50 0L0 0z"/>
<path style="fill:#ffffff; stroke:none;" d="M50 0L50 10L60 10L60 20L80 20L80 10L70 10L70 0L50 0M30 10L30 20L50 20L50 10L30 10M10 20L10 30L20 30L20 20L10 20M90 20L90 40L100 40L100 20L90 20M30 30L30 80L80 80L80 30L30 30M0 40L0 50L10 50L10 40L0 40z"/>
<path style="fill:#000000; stroke:none;" d="M40 40L40 50L50 50L50 60L60 60L60 70L70 70L70 40L40 40z"/>
<path style="fill:#ffffff; stroke:none;" d="M100 40L100 50L110 50L110 40L100 40M10 50L10 90L20 90L20 50L10 50M90 50L90 90L80 90L80 100L90 100L90 90L100 90L100 50L90 50M50 90L50 100L60 100L60 90L50 90M40 100L40 110L50 110L50 100L40 100z"/>
</svg>
