<?xml version="1.0" standalone="yes"?>
<svg xmlns="http://www.w3.org/2000/svg" width="110" height="110">
<path style="fill:#000000; stroke:none;" d="M0 0L0 50L10 50L10 40L20 40L20 70L10 70L10 60L0 60L0 110L40 110L40 90L50 90L50 110L110 110L110 60L100 60L100 50L110 50L110 0L70 0L70 20L60 20L60 0L0 0z"/>
<path style="fill:#ffffff; stroke:none;" d="M60 0L60 20L70 20L70 0L60 0M20 10L20 20L10 20L10 30L20 30L20 20L30 20L30 10L20 10M40 10L40 20L50 20L50 10L40 10M80 10L80 20L90 20L90 10L80 10M30 30L30 80L80 80L80 30L30 30M10 40L10 50L0 50L0 60L10 60L10 70L20 70L20 40L10 40z"/>
<path style="fill:#000000; stroke:none;" d="M40 40L40 70L60 70L60 40L40 40z"/>
<path style="fill:#ffffff; stroke:none;" d="M100 50L100 60L110 60L110 50L100 50M90 70L90 90L100 90L100 70L90 70M10 80L10 90L20 90L20 80L10 80M40 90L40 110L50 110L50 90L40 90M60 90L60 100L80 100L80 90L60 90z"/>
</svg>
