<?xml version="1.0" standalone="yes"?>
<svg xmlns="http://www.w3.org/2000/svg" width="110" height="110">
<path style="fill:#000000; stroke:none;" d="M0 0L0 50L10 50L10 20L20 20L20 80L10 80L10 60L0 60L0 110L110 110L110 0L60 0L60 10L90 10L90 20L40 20L40 0L0 0z"/>
<path style="fill:#ffffff; stroke:none;" d="M40 0L40 20L90 20L90 10L60 10L60 0L40 0M20 10L20 20L30 20L30 10L20 10M10 20L10 50L0 50L0 60L10 60L10 80L20 80L20 20L10 20M30 30L30 80L80 80L80 30L30 30M90 30L90 40L100 40L100 30L90 30z"/>
<path style="fill:#000000; stroke:none;" d="M50 40L50 50L40 50L40 70L60 70L60 60L70 60L70 50L60 50L60 40L50 40z"/>
<path style="fill:#ffffff; stroke:none;" d="M50 50L50 60L60 60L60 50L50 50M90 70L90 80L100 80L100 70L90 70M20 90L20 100L50 100L50 90L20 90M70 90L70 100L80 100L80 90L70 90z"/>
</svg>
