<?xml version="1.0" standalone="yes"?>
<svg xmlns="http://www.w3.org/2000/svg" width="110" height="110">
<path style="fill:#000000; stroke:none;" d="M0 0L0 110L40 110L40 100L20 100L20 90L50 90L50 110L60 110L60 90L70 90L70 110L110 110L110 70L100 70L100 60L110 60L110 50L90 50L90 20L100 20L100 40L110 40L110 0L50 0L50 20L30 20L30 10L40 10L40 0L0 0z"/>
<path style="fill:#ffffff; stroke:none;" d="M40 0L40 10L30 10L30 20L50 20L50 0L40 0M60 10L60 20L70 20L70 10L60 10M90 20L90 50L110 50L110 40L100 40L100 20L90 20M10 30L10 50L20 50L20 30L10 30M30 30L30 80L80 80L80 30L30 30z"/>
<path style="fill:#000000; stroke:none;" d="M50 40L50 60L40 60L40 70L50 70L50 60L70 60L70 50L60 50L60 40L50 40z"/>
<path style="fill:#ffffff; stroke:none;" d="M10 60L10 80L20 80L20 60L10 60M100 60L100 70L110 70L110 60L100 60M20 90L20 100L40 100L40 110L50 110L50 90L20 90M60 90L60 110L70 110L70 90L60 90z"/>
</svg>
