<?xml version="1.0" standalone="yes"?>
<svg xmlns="http://www.w3.org/2000/svg" width="110" height="110">
<path style="fill:#000000; stroke:none;" d="M0 0L0 40L10 40L10 30L20 30L20 80L10 80L10 70L0 70L0 110L110 110L110 50L90 50L90 20L100 20L100 40L110 40L110 0L50 0L50 10L40 10L40 0L0 0z"/>
<path style="fill:#ffffff; stroke:none;" d="M40 0L40 10L50 10L50 0L40 0M50 10L50 20L60 20L60 10L50 10M90 20L90 50L110 50L110 40L100 40L100 20L90 20M10 30L10 40L0 40L0 70L10 70L10 80L20 80L20 30L10 30M30 30L30 80L80 80L80 30L30 30z"/>
<path style="fill:#000000; stroke:none;" d="M60 40L60 70L70 70L70 40L60 40M40 60L40 70L50 70L50 60L40 60z"/>
<path style="fill:#ffffff; stroke:none;" d="M20 90L20 100L30 100L30 90L20 90M40 90L40 100L60 100L60 90L40 90M80 90L80 100L90 100L90 90L80 90z"/>
</svg>
