<?xml version="1.0" standalone="yes"?>
<svg xmlns="http://www.w3.org/2000/svg" width="110" height="110">
<path style="fill:#000000; stroke:none;" d="M0 0L0 60L10 60L10 30L20 30L20 70L0 70L0 110L40 110L40 100L60 100L60 90L70 90L70 110L110 110L110 50L100 50L100 40L110 40L110 0L0 0z"/>
<path style="fill:#ffffff; stroke:none;" d="M20 10L20 20L40 20L40 10L20 10M50 10L50 20L60 20L60 10L50 10M80 10L80 20L90 20L90 10L80 10M10 30L10 60L0 60L0 70L20 70L20 30L10 30M30 30L30 80L80 80L80 30L30 30M90 30L90 40L100 40L100 30L90 30z"/>
<path style="fill:#000000; stroke:none;" d="M50 40L50 50L60 50L60 60L50 60L50 70L70 70L70 50L60 50L60 40L50 40z"/>
<path style="fill:#ffffff; stroke:none;" d="M100 40L100 50L110 50L110 40L100 40M90 50L90 90L100 90L100 50L90 50M10 80L10 90L20 90L20 100L40 100L40 90L20 90L20 80L10 80M60 90L60 100L40 100L40 110L70 110L70 90L60 90z"/>
</svg>
