<?xml version="1.0" standalone="yes"?>
<svg xmlns="http://www.w3.org/2000/svg" width="110" height="110">
<path style="fill:#000000; stroke:none;" d="M0 0L0 40L20 40L20 50L10 50L10 60L0 60L0 110L50 110L50 100L30 100L30 90L60 90L60 110L110 110L110 60L100 60L100 80L90 80L90 20L100 20L100 40L110 40L110 0L70 0L70 10L60 10L60 0L50 0L50 10L40 10L40 0L0 0z"/>
<path style="fill:#ffffff; stroke:none;" d="M40 0L40 10L50 10L50 0L40 0M60 0L60 10L70 10L70 0L60 0M50 10L50 20L60 20L60 10L50 10M10 20L10 30L20 30L20 20L10 20M90 20L90 80L100 80L100 60L110 60L110 40L100 40L100 20L90 20M30 30L30 80L80 80L80 30L30 30M0 40L0 60L10 60L10 50L20 50L20 40L0 40z"/>
<path style="fill:#000000; stroke:none;" d="M50 40L50 50L40 50L40 60L60 60L60 40L50 40z"/>
<path style="fill:#ffffff; stroke:none;" d="M10 70L10 80L20 80L20 70L10 70M30 90L30 100L50 100L50 110L60 110L60 90L30 90M70 90L70 100L80 100L80 90L70 90z"/>
</svg>
