<?xml version="1.0" standalone="yes"?>
<svg xmlns="http://www.w3.org/2000/svg" width="110" height="110">
<path style="fill:#000000; stroke:none;" d="M0 0L0 40L20 40L20 70L10 70L10 60L0 60L0 110L50 110L50 100L20 100L20 90L70 90L70 110L110 110L110 60L100 60L100 80L90 80L90 50L100 50L100 40L110 40L110 0L70 0L70 20L20 20L20 10L60 10L60 0L0 0z"/>
<path style="fill:#ffffff; stroke:none;" d="M60 0L60 10L20 10L20 20L70 20L70 0L60 0M90 20L90 30L100 30L100 20L90 20M30 30L30 80L80 80L80 30L30 30M0 40L0 60L10 60L10 70L20 70L20 40L0 40z"/>
<path style="fill:#000000; stroke:none;" d="M40 40L40 70L50 70L50 50L60 50L60 60L70 60L70 50L60 50L60 40L40 40z"/>
<path style="fill:#ffffff; stroke:none;" d="M100 40L100 50L90 50L90 80L100 80L100 60L110 60L110 40L100 40M10 80L10 90L20 90L20 80L10 80M20 90L20 100L50 100L50 110L70 110L70 90L20 90z"/>
</svg>
