<?xml version="1.0" standalone="yes"?>
<svg xmlns="http://www.w3.org/2000/svg" width="110" height="110">
<path style="fill:#000000; stroke:none;" d="M0 0L0 40L20 40L20 90L10 90L10 60L0 60L0 110L40 110L40 100L60 100L60 90L70 90L70 110L110 110L110 60L100 60L100 70L90 70L90 50L100 50L100 40L110 40L110 0L70 0L70 10L60 10L60 0L50 0L50 10L60 10L60 20L40 20L40 0L0 0z"/>
<path style="fill:#ffffff; stroke:none;" d="M40 0L40 20L60 20L60 10L50 10L50 0L40 0M60 0L60 10L70 10L70 0L60 0M70 10L70 20L80 20L80 10L70 10M10 20L10 30L20 30L20 20L10 20M30 30L30 80L80 80L80 30L30 30M0 40L0 60L10 60L10 90L20 90L20 40L0 40M100 40L100 50L90 50L90 70L100 70L100 60L110 60L110 40L100 40z"/>
<path style="fill:#000000; stroke:none;" d="M60 50L60 60L40 60L40 70L60 70L60 60L70 60L70 50L60 50z"/>
<path style="fill:#ffffff; stroke:none;" d="M90 80L90 90L100 90L100 80L90 80M20 90L20 100L30 100L30 90L20 90M60 90L60 100L40 100L40 110L70 110L70 90L60 90z"/>
</svg>
