<?xml version="1.0" standalone="yes"?>
<svg xmlns="http://www.w3.org/2000/svg" width="110" height="110">
<path style="fill:#000000; stroke:none;" d="M0 0L0 110L40 110L40 100L20 100L20 90L50 90L50 100L70 100L70 110L110 110L110 60L100 60L100 50L110 50L110 0L50 0L50 20L40 20L40 0L0 0z"/>
<path style="fill:#ffffff; stroke:none;" d="M40 0L40 20L50 20L50 0L40 0M20 10L20 20L10 20L10 30L20 30L20 20L30 20L30 10L20 10M80 10L80 20L90 20L90 10L80 10M30 30L30 80L80 80L80 30L30 30M90 30L90 50L100 50L100 30L90 30z"/>
<path style="fill:#000000; stroke:none;" d="M40 40L40 60L50 60L50 70L70 70L70 60L60 60L60 40L40 40z"/>
<path style="fill:#ffffff; stroke:none;" d="M10 50L10 60L20 60L20 50L10 50M100 50L100 60L110 60L110 50L100 50M90 70L90 90L70 90L70 100L90 100L90 90L100 90L100 70L90 70M10 80L10 90L20 90L20 80L10 80M20 90L20 100L40 100L40 110L70 110L70 100L50 100L50 90L20 90z"/>
</svg>
