<?xml version="1.0" standalone="yes"?>
<svg xmlns="http://www.w3.org/2000/svg" width="110" height="110">
<path style="fill:#000000; stroke:none;" d="M0 0L0 40L20 40L20 70L10 70L10 60L0 60L0 110L40 110L40 100L50 100L50 90L70 90L70 100L60 100L60 110L110 110L110 60L90 60L90 20L100 20L100 50L110 50L110 0L70 0L70 10L60 10L60 20L40 20L40 0L0 0z"/>
<path style="fill:#ffffff; stroke:none;" d="M40 0L40 20L60 20L60 10L70 10L70 0L40 0M70 10L70 20L80 20L80 10L70 10M90 20L90 60L110 60L110 50L100 50L100 20L90 20M30 30L30 80L80 80L80 30L30 30M0 40L0 60L10 60L10 70L20 70L20 40L0 40z"/>
<path style="fill:#000000; stroke:none;" d="M50 40L50 50L60 50L60 60L50 60L50 70L60 70L60 60L70 60L70 40L50 40z"/>
<path style="fill:#ffffff; stroke:none;" d="M90 70L90 90L100 90L100 70L90 70M20 90L20 100L40 100L40 90L20 90M50 90L50 100L40 100L40 110L60 110L60 100L70 100L70 90L50 90z"/>
</svg>
