<?xml version="1.0" standalone="yes"?>
<svg xmlns="http://www.w3.org/2000/svg" width="110" height="110">
<path style="fill:#000000; stroke:none;" d="M0 0L0 40L20 40L20 50L10 50L10 70L0 70L0 110L50 110L50 100L60 100L60 110L110 110L110 60L100 60L100 50L110 50L110 0L70 0L70 10L60 10L60 0L50 0L50 10L40 10L40 0L0 0z"/>
<path style="fill:#ffffff; stroke:none;" d="M40 0L40 10L50 10L50 0L40 0M60 0L60 10L70 10L70 0L60 0M20 10L20 20L40 20L40 10L20 10M50 10L50 20L60 20L60 10L50 10M70 10L70 20L90 20L90 30L100 30L100 20L90 20L90 10L70 10M30 30L30 80L80 80L80 30L30 30M0 40L0 70L10 70L10 50L20 50L20 40L0 40z"/>
<path style="fill:#000000; stroke:none;" d="M40 40L40 50L50 50L50 60L40 60L40 70L70 70L70 60L60 60L60 50L70 50L70 40L40 40z"/>
<path style="fill:#ffffff; stroke:none;" d="M100 50L100 60L110 60L110 50L100 50M90 60L90 70L100 70L100 60L90 60M10 70L10 90L20 90L20 70L10 70M60 90L60 100L80 100L80 90L60 90M50 100L50 110L60 110L60 100L50 100z"/>
</svg>
