<?xml version="1.0" standalone="yes"?>
<svg xmlns="http://www.w3.org/2000/svg" width="110" height="110">
<path style="fill:#000000; stroke:none;" d="M0 0L0 50L20 50L20 60L10 60L10 70L0 70L0 110L50 110L50 100L20 100L20 90L60 90L60 110L110 110L110 70L100 70L100 50L110 50L110 0L60 0L60 10L50 10L50 0L0 0z"/>
<path style="fill:#ffffff; stroke:none;" d="M50 0L50 10L60 10L60 0L50 0M40 10L40 20L50 20L50 10L40 10M60 10L60 20L70 20L70 10L60 10M10 20L10 30L20 30L20 20L10 20M90 20L90 50L100 50L100 20L90 20M30 30L30 80L80 80L80 30L30 30M0 50L0 70L10 70L10 60L20 60L20 50L0 50z"/>
<path style="fill:#000000; stroke:none;" d="M50 50L50 60L40 60L40 70L60 70L60 50L50 50z"/>
<path style="fill:#ffffff; stroke:none;" d="M100 50L100 70L110 70L110 50L100 50M10 70L10 80L20 80L20 70L10 70M20 90L20 100L50 100L50 110L60 110L60 90L20 90M80 90L80 100L90 100L90 90L80 90z"/>
</svg>
