<?xml version="1.0" standalone="yes"?>
<svg xmlns="http://www.w3.org/2000/svg" width="110" height="110">
<path style="fill:#000000; stroke:none;" d="M0 0L0 40L10 40L10 70L0 70L0 110L40 110L40 90L60 90L60 110L110 110L110 60L100 60L100 50L90 50L90 20L100 20L100 40L110 40L110 0L60 0L60 10L70 10L70 20L50 20L50 10L40 10L40 0L0 0z"/>
<path style="fill:#ffffff; stroke:none;" d="M40 0L40 10L50 10L50 20L70 20L70 10L60 10L60 0L40 0M20 10L20 20L40 20L40 10L20 10M90 20L90 50L100 50L100 60L110 60L110 40L100 40L100 20L90 20M10 30L10 40L20 40L20 30L10 30M30 30L30 80L80 80L80 30L30 30M0 40L0 70L10 70L10 40L0 40z"/>
<path style="fill:#000000; stroke:none;" d="M60 40L60 60L70 60L70 40L60 40M40 50L40 70L50 70L50 50L40 50z"/>
<path style="fill:#ffffff; stroke:none;" d="M90 60L90 70L100 70L100 60L90 60M10 70L10 80L20 80L20 70L10 70M90 80L90 90L100 90L100 80L90 80M40 90L40 110L60 110L60 90L40 90z"/>
</svg>
