<?xml version="1.0" standalone="yes"?>
<svg xmlns="http://www.w3.org/2000/svg" width="110" height="110">
<path style="fill:#000000; stroke:none;" d="M0 0L0 110L50 110L50 100L20 100L20 90L70 90L70 100L60 100L60 110L110 110L110 70L90 70L90 60L100 60L100 50L110 50L110 0L70 0L70 20L50 20L50 0L0 0z"/>
<path style="fill:#ffffff; stroke:none;" d="M50 0L50 20L70 20L70 0L50 0M30 10L30 20L40 20L40 10L30 10M10 20L10 40L20 40L20 20L10 20M30 30L30 80L80 80L80 30L30 30z"/>
<path style="fill:#000000; stroke:none;" d="M50 40L50 60L40 60L40 70L50 70L50 60L60 60L60 70L70 70L70 50L60 50L60 40L50 40z"/>
<path style="fill:#ffffff; stroke:none;" d="M10 50L10 60L20 60L20 50L10 50M100 50L100 60L90 60L90 70L110 70L110 50L100 50M20 90L20 100L50 100L50 110L60 110L60 100L70 100L70 90L20 90z"/>
</svg>
