<?xml version="1.0" standalone="yes"?>
<svg xmlns="http://www.w3.org/2000/svg" width="110" height="110">
<path style="fill:#000000; stroke:none;" d="M0 0L0 50L20 50L20 70L0 70L0 110L40 110L40 100L20 100L20 90L80 90L80 100L50 100L50 110L110 110L110 0L60 0L60 10L90 10L90 20L40 20L40 10L50 10L50 0L0 0z"/>
<path style="fill:#ffffff; stroke:none;" d="M50 0L50 10L40 10L40 20L90 20L90 10L60 10L60 0L50 0M10 20L10 40L20 40L20 20L10 20M30 30L30 80L80 80L80 30L30 30z"/>
<path style="fill:#000000; stroke:none;" d="M40 40L40 70L70 70L70 40L60 40L60 50L50 50L50 40L40 40z"/>
<path style="fill:#ffffff; stroke:none;" d="M0 50L0 70L20 70L20 50L0 50M90 70L90 90L100 90L100 70L90 70M10 80L10 90L20 90L20 80L10 80M20 90L20 100L40 100L40 110L50 110L50 100L80 100L80 90L20 90z"/>
</svg>
