<?xml version="1.0" standalone="yes"?>
<svg xmlns="http://www.w3.org/2000/svg" width="110" height="110">
<path style="fill:#000000; stroke:none;" d="M0 0L0 60L10 60L10 70L0 70L0 110L50 110L50 100L20 100L20 90L60 90L60 100L70 100L70 110L110 110L110 60L100 60L100 70L90 70L90 30L100 30L100 50L110 50L110 0L70 0L70 10L80 10L80 20L40 20L40 0L0 0z"/>
<path style="fill:#ffffff; stroke:none;" d="M40 0L40 20L80 20L80 10L70 10L70 0L40 0M10 30L10 40L20 40L20 30L10 30M30 30L30 80L80 80L80 30L30 30M90 30L90 70L100 70L100 60L110 60L110 50L100 50L100 30L90 30z"/>
<path style="fill:#000000; stroke:none;" d="M50 40L50 50L60 50L60 40L50 40z"/>
<path style="fill:#ffffff; stroke:none;" d="M10 50L10 60L20 60L20 50L10 50M0 60L0 70L10 70L10 60L0 60z"/>
<path style="fill:#000000; stroke:none;" d="M50 60L50 70L60 70L60 60L50 60z"/>
<path style="fill:#ffffff; stroke:none;" d="M20 90L20 100L50 100L50 110L70 110L70 100L60 100L60 90L20 90M80 90L80 100L90 100L90 90L80 90z"/>
</svg>
