<?xml version="1.0" standalone="yes"?>
<svg xmlns="http://www.w3.org/2000/svg" width="110" height="110">
<path style="fill:#000000; stroke:none;" d="M0 0L0 40L10 40L10 50L0 50L0 60L10 60L10 50L20 50L20 70L0 70L0 110L50 110L50 100L60 100L60 90L90 90L90 100L70 100L70 110L110 110L110 50L100 50L100 60L90 60L90 20L100 20L100 40L110 40L110 0L70 0L70 10L60 10L60 0L0 0z"/>
<path style="fill:#ffffff; stroke:none;" d="M60 0L60 10L70 10L70 0L60 0M30 10L30 20L40 20L40 10L30 10M50 10L50 20L60 20L60 10L50 10M70 10L70 20L80 20L80 10L70 10M90 20L90 60L100 60L100 50L110 50L110 40L100 40L100 20L90 20M10 30L10 40L20 40L20 30L10 30M30 30L30 80L80 80L80 30L30 30M0 40L0 50L10 50L10 40L0 40z"/>
<path style="fill:#000000; stroke:none;" d="M40 40L40 50L50 50L50 60L40 60L40 70L70 70L70 60L60 60L60 40L40 40z"/>
<path style="fill:#ffffff; stroke:none;" d="M10 50L10 60L0 60L0 70L20 70L20 50L10 50M90 70L90 80L100 80L100 70L90 70M30 90L30 100L50 100L50 90L30 90M60 90L60 100L50 100L50 110L70 110L70 100L90 100L90 90L60 90z"/>
</svg>
