<?xml version="1.0" standalone="yes"?>
<svg xmlns="http://www.w3.org/2000/svg" width="110" height="110">
<path style="fill:#000000; stroke:none;" d="M0 0L0 40L20 40L20 90L10 90L10 60L0 60L0 110L40 110L40 100L50 100L50 90L70 90L70 110L110 110L110 70L100 70L100 80L90 80L90 60L110 60L110 50L90 50L90 30L100 30L100 40L110 40L110 0L70 0L70 10L80 10L80 20L60 20L60 0L50 0L50 10L40 10L40 0L0 0z"/>
<path style="fill:#ffffff; stroke:none;" d="M40 0L40 10L50 10L50 0L40 0M60 0L60 20L80 20L80 10L70 10L70 0L60 0M10 20L10 30L20 30L20 20L10 20M30 30L30 80L80 80L80 30L30 30M90 30L90 50L110 50L110 40L100 40L100 30L90 30M0 40L0 60L10 60L10 90L20 90L20 40L0 40z"/>
<path style="fill:#000000; stroke:none;" d="M60 50L60 60L50 60L50 70L60 70L60 60L70 60L70 50L60 50z"/>
<path style="fill:#ffffff; stroke:none;" d="M90 60L90 80L100 80L100 70L110 70L110 60L90 60M20 90L20 100L40 100L40 90L20 90M50 90L50 100L40 100L40 110L70 110L70 90L50 90M80 90L80 100L90 100L90 90L80 90z"/>
</svg>
