<?xml version="1.0" standalone="yes"?>
<svg xmlns="http://www.w3.org/2000/svg" width="110" height="110">
<path style="fill:#000000; stroke:none;" d="M0 0L0 50L10 50L10 30L20 30L20 60L0 60L0 110L50 110L50 90L90 90L90 100L70 100L70 110L110 110L110 70L100 70L100 60L110 60L110 50L100 50L100 60L90 60L90 30L100 30L100 40L110 40L110 0L60 0L60 10L70 10L70 20L50 20L50 0L0 0z"/>
<path style="fill:#ffffff; stroke:none;" d="M50 0L50 20L70 20L70 10L60 10L60 0L50 0M20 10L20 20L40 20L40 10L20 10M80 10L80 20L90 20L90 10L80 10M10 30L10 50L0 50L0 60L20 60L20 30L10 30M30 30L30 80L80 80L80 30L30 30M90 30L90 60L100 60L100 50L110 50L110 40L100 40L100 30L90 30z"/>
<path style="fill:#000000; stroke:none;" d="M40 40L40 70L60 70L60 60L70 60L70 40L40 40z"/>
<path style="fill:#ffffff; stroke:none;" d="M100 60L100 70L110 70L110 60L100 60M20 90L20 100L30 100L30 90L20 90M50 90L50 110L70 110L70 100L90 100L90 90L50 90z"/>
</svg>
