<?xml version="1.0" standalone="yes"?>
<svg xmlns="http://www.w3.org/2000/svg" width="110" height="110">
<path style="fill:#000000; stroke:none;" d="M0 0L0 40L10 40L10 30L20 30L20 70L10 70L10 50L0 50L0 110L40 110L40 100L50 100L50 110L60 110L60 90L80 90L80 100L70 100L70 110L110 110L110 0L70 0L70 10L80 10L80 20L50 20L50 10L40 10L40 0L0 0z"/>
<path style="fill:#ffffff; stroke:none;" d="M40 0L40 10L50 10L50 20L80 20L80 10L70 10L70 0L40 0M20 10L20 20L40 20L40 10L20 10M90 20L90 60L100 60L100 20L90 20M10 30L10 40L0 40L0 50L10 50L10 70L20 70L20 30L10 30M30 30L30 80L80 80L80 30L30 30z"/>
<path style="fill:#000000; stroke:none;" d="M60 40L60 50L40 50L40 60L50 60L50 70L60 70L60 50L70 50L70 40L60 40z"/>
<path style="fill:#ffffff; stroke:none;" d="M10 80L10 90L20 90L20 80L10 80M90 80L90 90L100 90L100 80L90 80M30 90L30 100L40 100L40 90L30 90M60 90L60 110L70 110L70 100L80 100L80 90L60 90M40 100L40 110L50 110L50 100L40 100z"/>
</svg>
