<?xml version="1.0" standalone="yes"?>
<svg xmlns="http://www.w3.org/2000/svg" width="110" height="110">
<path style="fill:#000000; stroke:none;" d="M0 0L0 40L10 40L10 30L20 30L20 90L10 90L10 60L0 60L0 110L50 110L50 100L60 100L60 110L110 110L110 0L70 0L70 20L60 20L60 10L40 10L40 0L0 0z"/>
<path style="fill:#ffffff; stroke:none;" d="M40 0L40 10L60 10L60 20L70 20L70 0L40 0M90 20L90 30L100 30L100 20L90 20M10 30L10 40L0 40L0 60L10 60L10 90L20 90L20 30L10 30M30 30L30 80L80 80L80 30L30 30z"/>
<path style="fill:#000000; stroke:none;" d="M40 40L40 50L60 50L60 60L50 60L50 70L70 70L70 50L60 50L60 40L40 40z"/>
<path style="fill:#ffffff; stroke:none;" d="M90 60L90 70L100 70L100 60L90 60M30 90L30 100L50 100L50 90L30 90M50 100L50 110L60 110L60 100L50 100z"/>
</svg>
