<?xml version="1.0" standalone="yes"?>
<svg xmlns="http://www.w3.org/2000/svg" width="110" height="110">
<path style="fill:#000000; stroke:none;" d="M0 0L0 40L10 40L10 30L20 30L20 70L0 70L0 110L50 110L50 100L30 100L30 90L60 90L60 100L70 100L70 110L110 110L110 60L100 60L100 50L90 50L90 30L100 30L100 40L110 40L110 0L0 0z"/>
<path style="fill:#ffffff; stroke:none;" d="M30 10L30 20L90 20L90 10L30 10M10 30L10 40L0 40L0 50L10 50L10 60L0 60L0 70L20 70L20 30L10 30M30 30L30 80L80 80L80 30L30 30M90 30L90 50L100 50L100 60L110 60L110 40L100 40L100 30L90 30z"/>
<path style="fill:#000000; stroke:none;" d="M40 40L40 60L50 60L50 40L40 40M0 50L0 60L10 60L10 50L0 50M60 50L60 70L70 70L70 50L60 50z"/>
<path style="fill:#ffffff; stroke:none;" d="M90 60L90 90L100 90L100 60L90 60M10 80L10 90L20 90L20 80L10 80M30 90L30 100L50 100L50 110L70 110L70 100L60 100L60 90L30 90M70 90L70 100L80 100L80 90L70 90z"/>
</svg>
