<?xml version="1.0" standalone="yes"?>
<svg xmlns="http://www.w3.org/2000/svg" width="110" height="110">
<path style="fill:#000000; stroke:none;" d="M0 0L0 60L10 60L10 70L0 70L0 110L40 110L40 100L50 100L50 110L110 110L110 0L70 0L70 20L60 20L60 10L50 10L50 0L0 0z"/>
<path style="fill:#ffffff; stroke:none;" d="M50 0L50 10L60 10L60 20L70 20L70 0L50 0M20 10L20 20L10 20L10 40L20 40L20 20L40 20L40 10L20 10M80 10L80 20L90 20L90 90L80 90L80 100L90 100L90 90L100 90L100 20L90 20L90 10L80 10M30 30L30 80L80 80L80 30L30 30z"/>
<path style="fill:#000000; stroke:none;" d="M60 40L60 50L50 50L50 60L40 60L40 70L60 70L60 50L70 50L70 40L60 40z"/>
<path style="fill:#ffffff; stroke:none;" d="M10 50L10 60L20 60L20 50L10 50M0 60L0 70L10 70L10 60L0 60M10 70L10 80L20 80L20 70L10 70M20 90L20 100L30 100L30 90L20 90M40 100L40 110L50 110L50 100L40 100z"/>
</svg>
