<?xml version="1.0" standalone="yes"?>
<svg xmlns="http://www.w3.org/2000/svg" width="110" height="110">
<path style="fill:#000000; stroke:none;" d="M0 0L0 60L10 60L10 40L20 40L20 70L0 70L0 110L50 110L50 90L80 90L80 100L60 100L60 110L110 110L110 70L100 70L100 60L110 60L110 50L100 50L100 60L90 60L90 20L100 20L100 40L110 40L110 0L50 0L50 10L40 10L40 0L0 0z"/>
<path style="fill:#ffffff; stroke:none;" d="M40 0L40 10L50 10L50 0L40 0M20 10L20 20L40 20L40 10L20 10M70 10L70 20L80 20L80 10L70 10M90 20L90 60L100 60L100 50L110 50L110 40L100 40L100 20L90 20M30 30L30 80L80 80L80 30L30 30M10 40L10 60L0 60L0 70L20 70L20 40L10 40z"/>
<path style="fill:#000000; stroke:none;" d="M40 40L40 50L50 50L50 40L40 40M60 50L60 60L40 60L40 70L60 70L60 60L70 60L70 50L60 50z"/>
<path style="fill:#ffffff; stroke:none;" d="M100 60L100 70L110 70L110 60L100 60M10 80L10 90L20 90L20 80L10 80M30 90L30 100L40 100L40 90L30 90M50 90L50 110L60 110L60 100L80 100L80 90L50 90z"/>
</svg>
