<?xml version="1.0" standalone="yes"?>
<svg xmlns="http://www.w3.org/2000/svg" width="110" height="110">
<path style="fill:#000000; stroke:none;" d="M0 0L0 50L10 50L10 60L0 60L0 110L40 110L40 100L50 100L50 110L110 110L110 60L90 60L90 30L100 30L100 50L110 50L110 0L60 0L60 10L80 10L80 20L50 20L50 10L40 10L40 0L0 0z"/>
<path style="fill:#ffffff; stroke:none;" d="M40 0L40 10L50 10L50 20L80 20L80 10L60 10L60 0L40 0M20 10L20 20L30 20L30 10L20 10M10 30L10 40L20 40L20 30L10 30M30 30L30 80L80 80L80 30L30 30M90 30L90 60L110 60L110 50L100 50L100 30L90 30z"/>
<path style="fill:#000000; stroke:none;" d="M60 40L60 50L70 50L70 40L60 40z"/>
<path style="fill:#ffffff; stroke:none;" d="M0 50L0 60L10 60L10 50L0 50z"/>
<path style="fill:#000000; stroke:none;" d="M40 50L40 60L50 60L50 50L40 50z"/>
<path style="fill:#ffffff; stroke:none;" d="M10 60L10 70L20 70L20 60L10 60M10 80L10 90L20 90L20 80L10 80M30 90L30 100L40 100L40 90L30 90M70 90L70 100L90 100L90 90L70 90M40 100L40 110L50 110L50 100L40 100z"/>
</svg>
