<?xml version="1.0" standalone="yes"?>
<svg xmlns="http://www.w3.org/2000/svg" width="110" height="110">
<path style="fill:#000000; stroke:none;" d="M0 0L0 50L10 50L10 70L0 70L0 110L50 110L50 90L60 90L60 100L70 100L70 110L110 110L110 70L90 70L90 60L110 60L110 0L70 0L70 20L50 20L50 0L0 0z"/>
<path style="fill:#ffffff; stroke:none;" d="M50 0L50 20L70 20L70 0L50 0M10 20L10 30L20 30L20 20L10 20M30 30L30 80L80 80L80 30L30 30M90 30L90 40L100 40L100 30L90 30M10 40L10 50L20 50L20 40L10 40z"/>
<path style="fill:#000000; stroke:none;" d="M40 40L40 60L50 60L50 70L70 70L70 60L60 60L60 50L70 50L70 40L60 40L60 50L50 50L50 40L40 40z"/>
<path style="fill:#ffffff; stroke:none;" d="M0 50L0 70L10 70L10 50L0 50M90 60L90 70L110 70L110 60L90 60M10 70L10 90L20 90L20 70L10 70M50 90L50 110L70 110L70 100L60 100L60 90L50 90z"/>
</svg>
