<?xml version="1.0" standalone="yes"?>
<svg xmlns="http://www.w3.org/2000/svg" width="110" height="110">
<path style="fill:#000000; stroke:none;" d="M0 0L0 40L10 40L10 50L0 50L0 60L20 60L20 90L10 90L10 70L0 70L0 110L50 110L50 100L70 100L70 110L110 110L110 0L70 0L70 10L90 10L90 20L50 20L50 10L60 10L60 0L0 0z"/>
<path style="fill:#ffffff; stroke:none;" d="M60 0L60 10L50 10L50 20L90 20L90 10L70 10L70 0L60 0M90 20L90 50L100 50L100 20L90 20M10 30L10 40L20 40L20 30L10 30M30 30L30 80L80 80L80 30L30 30M0 40L0 50L10 50L10 40L0 40z"/>
<path style="fill:#000000; stroke:none;" d="M40 40L40 50L50 50L50 60L40 60L40 70L50 70L50 60L60 60L60 70L70 70L70 40L60 40L60 50L50 50L50 40L40 40z"/>
<path style="fill:#ffffff; stroke:none;" d="M0 60L0 70L10 70L10 90L20 90L20 60L0 60M90 60L90 70L100 70L100 60L90 60M90 80L90 90L70 90L70 100L90 100L90 90L100 90L100 80L90 80M30 90L30 100L50 100L50 90L30 90M50 100L50 110L70 110L70 100L50 100z"/>
</svg>
