<?xml version="1.0" standalone="yes"?>
<svg xmlns="http://www.w3.org/2000/svg" width="110" height="110">
<path style="fill:#000000; stroke:none;" d="M0 0L0 40L20 40L20 50L0 50L0 110L110 110L110 70L100 70L100 50L90 50L90 30L100 30L100 40L110 40L110 0L70 0L70 10L60 10L60 0L0 0z"/>
<path style="fill:#ffffff; stroke:none;" d="M60 0L60 10L70 10L70 0L60 0M20 10L20 20L30 20L30 10L20 10M40 10L40 20L50 20L50 10L40 10M70 10L70 20L90 20L90 10L70 10M30 30L30 80L80 80L80 30L30 30M90 30L90 50L100 50L100 70L110 70L110 40L100 40L100 30L90 30M0 40L0 50L20 50L20 40L0 40z"/>
<path style="fill:#000000; stroke:none;" d="M50 40L50 50L40 50L40 60L50 60L50 70L70 70L70 60L60 60L60 50L70 50L70 40L50 40z"/>
<path style="fill:#ffffff; stroke:none;" d="M10 70L10 80L20 80L20 70L10 70M30 90L30 100L40 100L40 90L30 90M60 90L60 100L80 100L80 90L60 90z"/>
</svg>
