<?xml version="1.0" standalone="yes"?>
<svg xmlns="http://www.w3.org/2000/svg" width="110" height="110">
<path style="fill:#000000; stroke:none;" d="M0 0L0 40L20 40L20 50L0 50L0 110L50 110L50 90L60 90L60 110L110 110L110 70L100 70L100 90L90 90L90 50L100 50L100 60L110 60L110 0L70 0L70 20L60 20L60 0L50 0L50 20L20 20L20 10L40 10L40 0L0 0z"/>
<path style="fill:#ffffff; stroke:none;" d="M40 0L40 10L20 10L20 20L50 20L50 0L40 0M60 0L60 20L70 20L70 0L60 0M80 10L80 20L90 20L90 40L100 40L100 20L90 20L90 10L80 10M10 20L10 30L20 30L20 20L10 20M30 30L30 80L80 80L80 30L30 30M0 40L0 50L20 50L20 40L0 40z"/>
<path style="fill:#000000; stroke:none;" d="M50 40L50 60L40 60L40 70L60 70L60 40L50 40z"/>
<path style="fill:#ffffff; stroke:none;" d="M90 50L90 90L100 90L100 70L110 70L110 60L100 60L100 50L90 50M10 60L10 90L20 90L20 60L10 60M50 90L50 110L60 110L60 90L50 90M70 90L70 100L90 100L90 90L70 90z"/>
</svg>
