<?xml version="1.0" standalone="yes"?>
<svg xmlns="http://www.w3.org/2000/svg" width="110" height="110">
<path style="fill:#000000; stroke:none;" d="M0 0L0 40L10 40L10 70L0 70L0 110L50 110L50 90L70 90L70 100L60 100L60 110L110 110L110 70L100 70L100 90L90 90L90 40L110 40L110 0L0 0z"/>
<path style="fill:#ffffff; stroke:none;" d="M20 10L20 20L10 20L10 30L20 30L20 20L60 20L60 10L20 10M70 10L70 20L80 20L80 10L70 10M90 20L90 30L100 30L100 20L90 20M30 30L30 80L80 80L80 30L30 30M0 40L0 70L10 70L10 40L0 40z"/>
<path style="fill:#000000; stroke:none;" d="M50 40L50 50L40 50L40 60L50 60L50 50L60 50L60 40L50 40z"/>
<path style="fill:#ffffff; stroke:none;" d="M90 40L90 90L100 90L100 70L110 70L110 60L100 60L100 50L110 50L110 40L90 40z"/>
<path style="fill:#000000; stroke:none;" d="M100 50L100 60L110 60L110 50L100 50z"/>
<path style="fill:#ffffff; stroke:none;" d="M50 90L50 110L60 110L60 100L70 100L70 90L50 90z"/>
</svg>
