<?xml version="1.0" standalone="yes"?>
<svg xmlns="http://www.w3.org/2000/svg" width="110" height="110">
<path style="fill:#000000; stroke:none;" d="M0 0L0 50L20 50L20 80L10 80L10 70L0 70L0 110L40 110L40 100L50 100L50 110L110 110L110 70L100 70L100 80L90 80L90 20L100 20L100 60L110 60L110 0L70 0L70 20L40 20L40 0L0 0z"/>
<path style="fill:#ffffff; stroke:none;" d="M40 0L40 20L70 20L70 0L40 0M20 10L20 20L10 20L10 40L20 40L20 20L30 20L30 10L20 10M80 10L80 20L90 20L90 10L80 10M90 20L90 80L100 80L100 70L110 70L110 60L100 60L100 20L90 20M30 30L30 80L80 80L80 30L30 30M0 50L0 70L10 70L10 80L20 80L20 50L0 50z"/>
<path style="fill:#000000; stroke:none;" d="M40 50L40 70L50 70L50 60L60 60L60 70L70 70L70 50L40 50z"/>
<path style="fill:#ffffff; stroke:none;" d="M20 90L20 100L30 100L30 90L20 90M60 90L60 100L90 100L90 90L60 90M40 100L40 110L50 110L50 100L40 100z"/>
</svg>
