<?xml version="1.0" standalone="yes"?>
<svg xmlns="http://www.w3.org/2000/svg" width="110" height="110">
<path style="fill:#000000; stroke:none;" d="M0 0L0 110L50 110L50 100L20 100L20 90L70 90L70 110L110 110L110 70L100 70L100 80L90 80L90 60L100 60L100 50L90 50L90 40L110 40L110 0L60 0L60 10L40 10L40 0L0 0z"/>
<path style="fill:#ffffff; stroke:none;" d="M40 0L40 10L60 10L60 0L40 0M20 10L20 20L10 20L10 40L20 40L20 20L40 20L40 10L20 10M70 10L70 20L90 20L90 30L100 30L100 20L90 20L90 10L70 10M30 30L30 80L80 80L80 30L30 30z"/>
<path style="fill:#000000; stroke:none;" d="M50 40L50 70L60 70L60 50L70 50L70 40L50 40z"/>
<path style="fill:#ffffff; stroke:none;" d="M90 40L90 50L100 50L100 60L90 60L90 80L100 80L100 70L110 70L110 40L90 40M10 50L10 60L20 60L20 50L10 50M10 80L10 90L20 90L20 80L10 80M20 90L20 100L50 100L50 110L70 110L70 90L20 90M80 90L80 100L90 100L90 90L80 90z"/>
</svg>
