<?xml version="1.0" standalone="yes"?>
<svg xmlns="http://www.w3.org/2000/svg" width="110" height="110">
<path style="fill:#000000; stroke:none;" d="M0 0L0 40L20 40L20 50L0 50L0 110L40 110L40 100L60 100L60 110L110 110L110 0L70 0L70 10L40 10L40 0L0 0z"/>
<path style="fill:#ffffff; stroke:none;" d="M40 0L40 10L70 10L70 0L40 0M20 10L20 20L10 20L10 30L20 30L20 20L40 20L40 10L20 10M70 10L70 20L90 20L90 30L100 30L100 20L90 20L90 10L70 10M30 30L30 80L80 80L80 30L30 30M0 40L0 50L20 50L20 40L0 40z"/>
<path style="fill:#000000; stroke:none;" d="M50 40L50 50L40 50L40 60L50 60L50 70L70 70L70 60L50 60L50 50L70 50L70 40L50 40z"/>
<path style="fill:#ffffff; stroke:none;" d="M90 50L90 70L100 70L100 50L90 50M10 80L10 90L20 90L20 80L10 80M90 80L90 90L70 90L70 100L90 100L90 90L100 90L100 80L90 80M40 100L40 110L60 110L60 100L40 100z"/>
</svg>
