<?xml version="1.0" standalone="yes"?>
<svg xmlns="http://www.w3.org/2000/svg" width="110" height="110">
<path style="fill:#000000; stroke:none;" d="M0 0L0 60L10 60L10 20L20 20L20 80L10 80L10 70L0 70L0 110L40 110L40 100L50 100L50 90L70 90L70 110L110 110L110 0L70 0L70 10L60 10L60 0L50 0L50 10L40 10L40 0L0 0z"/>
<path style="fill:#ffffff; stroke:none;" d="M40 0L40 10L50 10L50 0L40 0M60 0L60 10L70 10L70 0L60 0M30 10L30 20L40 20L40 10L30 10M10 20L10 60L0 60L0 70L10 70L10 80L20 80L20 20L10 20M30 30L30 80L80 80L80 30L30 30z"/>
<path style="fill:#000000; stroke:none;" d="M50 40L50 50L40 50L40 60L50 60L50 70L60 70L60 60L50 60L50 50L60 50L60 40L50 40z"/>
<path style="fill:#ffffff; stroke:none;" d="M90 40L90 50L100 50L100 40L90 40M90 80L90 90L100 90L100 80L90 80M20 90L20 100L40 100L40 90L20 90M50 90L50 100L40 100L40 110L70 110L70 90L50 90z"/>
</svg>
