<?xml version="1.0" standalone="yes"?>
<svg xmlns="http://www.w3.org/2000/svg" width="110" height="110">
<path style="fill:#000000; stroke:none;" d="M0 0L0 110L40 110L40 100L60 100L60 90L90 90L90 100L70 100L70 110L110 110L110 60L100 60L100 50L110 50L110 0L60 0L60 10L40 10L40 0L0 0z"/>
<path style="fill:#ffffff; stroke:none;" d="M40 0L40 10L60 10L60 0L40 0M30 10L30 20L40 20L40 10L30 10M60 10L60 20L90 20L90 10L60 10M30 30L30 80L80 80L80 30L30 30M90 30L90 40L100 40L100 30L90 30z"/>
<path style="fill:#000000; stroke:none;" d="M50 40L50 50L40 50L40 60L50 60L50 70L70 70L70 50L60 50L60 40L50 40z"/>
<path style="fill:#ffffff; stroke:none;" d="M10 50L10 80L20 80L20 50L10 50M100 50L100 60L110 60L110 50L100 50M90 60L90 70L100 70L100 60L90 60M30 90L30 100L40 100L40 90L30 90M60 90L60 100L40 100L40 110L70 110L70 100L90 100L90 90L60 90z"/>
</svg>
