<?xml version="1.0" standalone="yes"?>
<svg xmlns="http://www.w3.org/2000/svg" width="110" height="110">
<path style="fill:#000000; stroke:none;" d="M0 0L0 50L20 50L20 80L10 80L10 70L0 70L0 110L50 110L50 100L70 100L70 110L110 110L110 0L60 0L60 20L50 20L50 0L0 0z"/>
<path style="fill:#ffffff; stroke:none;" d="M50 0L50 20L60 20L60 0L50 0M30 10L30 20L40 20L40 10L30 10M70 10L70 20L90 20L90 40L100 40L100 20L90 20L90 10L70 10M10 30L10 40L20 40L20 30L10 30M30 30L30 80L80 80L80 30L30 30M0 50L0 70L10 70L10 80L20 80L20 50L0 50z"/>
<path style="fill:#000000; stroke:none;" d="M40 50L40 70L50 70L50 50L40 50M60 50L60 60L70 60L70 50L60 50z"/>
<path style="fill:#ffffff; stroke:none;" d="M90 50L90 60L100 60L100 50L90 50M90 80L90 90L70 90L70 100L90 100L90 90L100 90L100 80L90 80M30 90L30 100L50 100L50 90L30 90M50 100L50 110L70 110L70 100L50 100z"/>
</svg>
