<?xml version="1.0" standalone="yes"?>
<svg xmlns="http://www.w3.org/2000/svg" width="110" height="110">
<path style="fill:#000000; stroke:none;" d="M0 0L0 40L10 40L10 50L20 50L20 70L10 70L10 60L0 60L0 110L110 110L110 0L70 0L70 10L80 10L80 20L60 20L60 10L50 10L50 0L0 0z"/>
<path style="fill:#ffffff; stroke:none;" d="M50 0L50 10L60 10L60 20L80 20L80 10L70 10L70 0L50 0M20 10L20 20L10 20L10 40L20 40L20 20L30 20L30 10L20 10M40 10L40 20L50 20L50 10L40 10M30 30L30 80L80 80L80 30L30 30M0 40L0 60L10 60L10 70L20 70L20 50L10 50L10 40L0 40z"/>
<path style="fill:#000000; stroke:none;" d="M50 40L50 50L60 50L60 60L70 60L70 40L50 40z"/>
<path style="fill:#ffffff; stroke:none;" d="M90 40L90 50L100 50L100 40L90 40M90 60L90 80L100 80L100 60L90 60M20 90L20 100L70 100L70 90L20 90M80 90L80 100L90 100L90 90L80 90z"/>
</svg>
