<?xml version="1.0" standalone="yes"?>
<svg xmlns="http://www.w3.org/2000/svg" width="110" height="110">
<path style="fill:#000000; stroke:none;" d="M0 0L0 60L10 60L10 50L20 50L20 70L0 70L0 110L40 110L40 90L50 90L50 100L60 100L60 110L110 110L110 70L100 70L100 50L110 50L110 0L0 0z"/>
<path style="fill:#ffffff; stroke:none;" d="M40 10L40 20L60 20L60 10L40 10M70 10L70 20L80 20L80 10L70 10M10 30L10 40L20 40L20 30L10 30M30 30L30 80L80 80L80 30L30 30M90 30L90 40L100 40L100 30L90 30z"/>
<path style="fill:#000000; stroke:none;" d="M40 40L40 50L50 50L50 70L60 70L60 40L40 40z"/>
<path style="fill:#ffffff; stroke:none;" d="M10 50L10 60L0 60L0 70L20 70L20 50L10 50M100 50L100 70L110 70L110 50L100 50M40 90L40 110L60 110L60 100L50 100L50 90L40 90M70 90L70 100L80 100L80 90L70 90z"/>
</svg>
