<?xml version="1.0" standalone="yes"?>
<svg xmlns="http://www.w3.org/2000/svg" width="110" height="110">
<path style="fill:#000000; stroke:none;" d="M0 0L0 40L10 40L10 20L20 20L20 60L0 60L0 110L110 110L110 70L100 70L100 90L90 90L90 50L100 50L100 60L110 60L110 0L70 0L70 10L80 10L80 20L60 20L60 10L50 10L50 0L0 0z"/>
<path style="fill:#ffffff; stroke:none;" d="M50 0L50 10L60 10L60 20L80 20L80 10L70 10L70 0L50 0M20 10L20 20L30 20L30 10L20 10M10 20L10 40L0 40L0 60L20 60L20 20L10 20M30 30L30 80L80 80L80 30L30 30M90 30L90 40L100 40L100 30L90 30z"/>
<path style="fill:#000000; stroke:none;" d="M40 40L40 50L50 50L50 60L40 60L40 70L70 70L70 40L40 40z"/>
<path style="fill:#ffffff; stroke:none;" d="M90 50L90 90L100 90L100 70L110 70L110 60L100 60L100 50L90 50M10 80L10 90L20 90L20 100L30 100L30 90L20 90L20 80L10 80M70 90L70 100L90 100L90 90L70 90z"/>
</svg>
