<?xml version="1.0" standalone="yes"?>
<svg xmlns="http://www.w3.org/2000/svg" width="110" height="110">
<path style="fill:#000000; stroke:none;" d="M0 0L0 40L10 40L10 60L0 60L0 110L40 110L40 100L30 100L30 90L80 90L80 100L50 100L50 110L110 110L110 50L100 50L100 60L90 60L90 40L110 40L110 0L60 0L60 10L80 10L80 20L50 20L50 0L0 0z"/>
<path style="fill:#ffffff; stroke:none;" d="M50 0L50 20L80 20L80 10L60 10L60 0L50 0M10 20L10 30L20 30L20 20L10 20M30 30L30 80L80 80L80 30L30 30M0 40L0 60L10 60L10 40L0 40z"/>
<path style="fill:#000000; stroke:none;" d="M60 40L60 50L70 50L70 40L60 40z"/>
<path style="fill:#ffffff; stroke:none;" d="M90 40L90 60L100 60L100 50L110 50L110 40L90 40z"/>
<path style="fill:#000000; stroke:none;" d="M50 60L50 70L70 70L70 60L50 60z"/>
<path style="fill:#ffffff; stroke:none;" d="M90 80L90 90L100 90L100 80L90 80M30 90L30 100L40 100L40 110L50 110L50 100L80 100L80 90L30 90z"/>
</svg>
