<?xml version="1.0" standalone="yes"?>
<svg xmlns="http://www.w3.org/2000/svg" width="110" height="110">
<path style="fill:#000000; stroke:none;" d="M0 0L0 50L10 50L10 30L20 30L20 90L10 90L10 70L0 70L0 110L40 110L40 100L50 100L50 110L110 110L110 70L100 70L100 50L110 50L110 0L50 0L50 20L40 20L40 0L0 0z"/>
<path style="fill:#ffffff; stroke:none;" d="M40 0L40 20L50 20L50 0L40 0M20 10L20 20L30 20L30 10L20 10M70 10L70 20L90 20L90 10L70 10M10 30L10 50L0 50L0 70L10 70L10 90L20 90L20 30L10 30M30 30L30 80L80 80L80 30L30 30z"/>
<path style="fill:#000000; stroke:none;" d="M40 40L40 50L50 50L50 40L40 40M60 40L60 50L70 50L70 40L60 40z"/>
<path style="fill:#ffffff; stroke:none;" d="M100 50L100 70L110 70L110 50L100 50z"/>
<path style="fill:#000000; stroke:none;" d="M40 60L40 70L60 70L60 60L40 60z"/>
<path style="fill:#ffffff; stroke:none;" d="M90 70L90 80L100 80L100 70L90 70M20 90L20 100L30 100L30 90L20 90M50 90L50 100L60 100L60 90L50 90M80 90L80 100L90 100L90 90L80 90M40 100L40 110L50 110L50 100L40 100z"/>
</svg>
