<?xml version="1.0" standalone="yes"?>
<svg xmlns="http://www.w3.org/2000/svg" width="110" height="110">
<path style="fill:#000000; stroke:none;" d="M0 0L0 50L10 50L10 70L0 70L0 110L40 110L40 90L50 90L50 110L110 110L110 50L90 50L90 40L110 40L110 0L70 0L70 10L90 10L90 20L60 20L60 0L50 0L50 10L40 10L40 0L0 0z"/>
<path style="fill:#ffffff; stroke:none;" d="M40 0L40 10L50 10L50 0L40 0M60 0L60 20L90 20L90 10L70 10L70 0L60 0M20 10L20 20L10 20L10 30L20 30L20 20L40 20L40 10L20 10M90 20L90 30L100 30L100 20L90 20M30 30L30 80L80 80L80 30L30 30M10 40L10 50L20 50L20 40L10 40M90 40L90 50L110 50L110 40L90 40M0 50L0 70L10 70L10 50L0 50z"/>
<path style="fill:#000000; stroke:none;" d="M40 60L40 70L70 70L70 60L40 60z"/>
<path style="fill:#ffffff; stroke:none;" d="M90 60L90 90L100 90L100 60L90 60M10 70L10 80L20 80L20 70L10 70M20 90L20 100L30 100L30 90L20 90M40 90L40 110L50 110L50 90L40 90M60 90L60 100L80 100L80 90L60 90z"/>
</svg>
