<?xml version="1.0" standalone="yes"?>
<svg xmlns="http://www.w3.org/2000/svg" width="110" height="110">
<path style="fill:#000000; stroke:none;" d="M0 0L0 40L10 40L10 50L0 50L0 60L10 60L10 70L0 70L0 110L40 110L40 100L30 100L30 90L70 90L70 100L50 100L50 110L110 110L110 0L70 0L70 20L20 20L20 10L40 10L40 0L0 0z"/>
<path style="fill:#ffffff; stroke:none;" d="M40 0L40 10L20 10L20 20L70 20L70 0L60 0L60 10L50 10L50 0L40 0z"/>
<path style="fill:#000000; stroke:none;" d="M50 0L50 10L60 10L60 0L50 0z"/>
<path style="fill:#ffffff; stroke:none;" d="M80 10L80 20L90 20L90 50L100 50L100 20L90 20L90 10L80 10M30 30L30 80L80 80L80 30L30 30M0 40L0 50L10 50L10 40L0 40z"/>
<path style="fill:#000000; stroke:none;" d="M40 40L40 60L50 60L50 70L60 70L60 60L70 60L70 40L40 40z"/>
<path style="fill:#ffffff; stroke:none;" d="M0 60L0 70L10 70L10 60L0 60M90 60L90 70L100 70L100 60L90 60M10 70L10 80L20 80L20 70L10 70M90 80L90 90L100 90L100 80L90 80M30 90L30 100L40 100L40 110L50 110L50 100L70 100L70 90L30 90z"/>
</svg>
