<?xml version="1.0" standalone="yes"?>
<svg xmlns="http://www.w3.org/2000/svg" width="110" height="110">
<path style="fill:#000000; stroke:none;" d="M0 0L0 40L10 40L10 50L0 50L0 110L50 110L50 100L20 100L20 90L90 90L90 100L60 100L60 110L110 110L110 70L100 70L100 80L90 80L90 60L110 60L110 0L50 0L50 20L20 20L20 10L40 10L40 0L0 0z"/>
<path style="fill:#ffffff; stroke:none;" d="M40 0L40 10L20 10L20 20L50 20L50 0L40 0M70 10L70 20L80 20L80 10L70 10M30 30L30 80L80 80L80 30L30 30M90 30L90 40L100 40L100 30L90 30M0 40L0 50L10 50L10 40L0 40z"/>
<path style="fill:#000000; stroke:none;" d="M40 40L40 60L50 60L50 70L60 70L60 60L50 60L50 40L40 40z"/>
<path style="fill:#ffffff; stroke:none;" d="M10 50L10 70L20 70L20 50L10 50M90 60L90 80L100 80L100 70L110 70L110 60L90 60M10 80L10 90L20 90L20 80L10 80M20 90L20 100L50 100L50 110L60 110L60 100L90 100L90 90L20 90z"/>
</svg>
