<?xml version="1.0" standalone="yes"?>
<svg xmlns="http://www.w3.org/2000/svg" width="110" height="110">
<path style="fill:#000000; stroke:none;" d="M0 0L0 110L40 110L40 100L20 100L20 90L60 90L60 100L50 100L50 110L60 110L60 100L70 100L70 110L110 110L110 0L70 0L70 10L60 10L60 0L0 0z"/>
<path style="fill:#ffffff; stroke:none;" d="M60 0L60 10L70 10L70 0L60 0M20 10L20 20L10 20L10 40L20 40L20 20L30 20L30 10L20 10M40 10L40 20L50 20L50 10L40 10M70 10L70 20L90 20L90 10L70 10M30 30L30 80L80 80L80 30L30 30M90 30L90 70L100 70L100 30L90 30z"/>
<path style="fill:#000000; stroke:none;" d="M50 40L50 50L40 50L40 60L60 60L60 40L50 40z"/>
<path style="fill:#ffffff; stroke:none;" d="M10 50L10 60L20 60L20 50L10 50M90 80L90 90L100 90L100 80L90 80M20 90L20 100L40 100L40 110L50 110L50 100L60 100L60 90L20 90M60 100L60 110L70 110L70 100L60 100z"/>
</svg>
