<?xml version="1.0" standalone="yes"?>
<svg xmlns="http://www.w3.org/2000/svg" width="110" height="110">
<path style="fill:#000000; stroke:none;" d="M0 0L0 50L10 50L10 20L20 20L20 60L0 60L0 110L40 110L40 90L50 90L50 110L60 110L60 100L70 100L70 110L110 110L110 60L100 60L100 70L90 70L90 50L110 50L110 0L50 0L50 20L40 20L40 0L0 0z"/>
<path style="fill:#ffffff; stroke:none;" d="M40 0L40 20L50 20L50 0L40 0M20 10L20 20L30 20L30 10L20 10M70 10L70 20L90 20L90 10L70 10M10 20L10 50L0 50L0 60L20 60L20 20L10 20M30 30L30 80L80 80L80 30L30 30z"/>
<path style="fill:#000000; stroke:none;" d="M40 40L40 50L60 50L60 60L50 60L50 70L70 70L70 40L40 40z"/>
<path style="fill:#ffffff; stroke:none;" d="M90 50L90 70L100 70L100 60L110 60L110 50L90 50M10 70L10 80L20 80L20 70L10 70M90 80L90 90L70 90L70 100L90 100L90 90L100 90L100 80L90 80M40 90L40 110L50 110L50 90L40 90M60 100L60 110L70 110L70 100L60 100z"/>
</svg>
