<?xml version="1.0" standalone="yes"?>
<svg xmlns="http://www.w3.org/2000/svg" width="110" height="110">
<path style="fill:#000000; stroke:none;" d="M0 0L0 110L50 110L50 100L20 100L20 90L60 90L60 100L70 100L70 110L110 110L110 70L90 70L90 30L100 30L100 40L110 40L110 0L60 0L60 10L40 10L40 0L0 0z"/>
<path style="fill:#ffffff; stroke:none;" d="M40 0L40 10L60 10L60 0L40 0M10 20L10 50L20 50L20 20L10 20M30 30L30 80L80 80L80 30L30 30M90 30L90 70L110 70L110 60L100 60L100 50L110 50L110 40L100 40L100 30L90 30z"/>
<path style="fill:#000000; stroke:none;" d="M50 50L50 60L40 60L40 70L70 70L70 50L50 50M100 50L100 60L110 60L110 50L100 50z"/>
<path style="fill:#ffffff; stroke:none;" d="M10 60L10 70L20 70L20 60L10 60M10 80L10 90L20 90L20 80L10 80M90 80L90 90L100 90L100 80L90 80M20 90L20 100L50 100L50 110L70 110L70 100L60 100L60 90L20 90M70 90L70 100L80 100L80 90L70 90z"/>
</svg>
