<?xml version="1.0" standalone="yes"?>
<svg xmlns="http://www.w3.org/2000/svg" width="110" height="110">
<path style="fill:#000000; stroke:none;" d="M0 0L0 110L40 110L40 90L50 90L50 100L60 100L60 90L70 90L70 110L110 110L110 60L100 60L100 50L110 50L110 0L50 0L50 10L40 10L40 0L0 0z"/>
<path style="fill:#ffffff; stroke:none;" d="M40 0L40 10L50 10L50 0L40 0M50 10L50 20L70 20L70 10L50 10M80 10L80 20L90 20L90 50L100 50L100 20L90 20L90 10L80 10M10 20L10 30L20 30L20 20L10 20M30 30L30 80L80 80L80 30L30 30M10 40L10 50L20 50L20 40L10 40z"/>
<path style="fill:#000000; stroke:none;" d="M50 50L50 60L40 60L40 70L70 70L70 50L50 50z"/>
<path style="fill:#ffffff; stroke:none;" d="M100 50L100 60L110 60L110 50L100 50M10 70L10 90L20 90L20 70L10 70M40 90L40 110L70 110L70 90L60 90L60 100L50 100L50 90L40 90z"/>
</svg>
