<?xml version="1.0" standalone="yes"?>
<svg xmlns="http://www.w3.org/2000/svg" width="110" height="110">
<path style="fill:#000000; stroke:none;" d="M0 0L0 50L20 50L20 60L0 60L0 110L50 110L50 100L70 100L70 110L110 110L110 70L90 70L90 50L110 50L110 0L60 0L60 10L50 10L50 0L0 0z"/>
<path style="fill:#ffffff; stroke:none;" d="M50 0L50 10L60 10L60 0L50 0M20 10L20 20L10 20L10 30L20 30L20 20L30 20L30 10L20 10M40 10L40 20L50 20L50 10L40 10M80 10L80 20L90 20L90 30L100 30L100 20L90 20L90 10L80 10M30 30L30 80L80 80L80 30L30 30z"/>
<path style="fill:#000000; stroke:none;" d="M40 40L40 60L50 60L50 70L70 70L70 60L60 60L60 40L40 40z"/>
<path style="fill:#ffffff; stroke:none;" d="M0 50L0 60L20 60L20 50L0 50M90 50L90 70L110 70L110 50L90 50M10 70L10 80L20 80L20 70L10 70M90 80L90 90L70 90L70 100L90 100L90 90L100 90L100 80L90 80M50 100L50 110L70 110L70 100L50 100z"/>
</svg>
