<?xml version="1.0" standalone="yes"?>
<svg xmlns="http://www.w3.org/2000/svg" width="110" height="110">
<path style="fill:#000000; stroke:none;" d="M0 0L0 50L10 50L10 60L20 60L20 80L10 80L10 70L0 70L0 110L40 110L40 100L20 100L20 90L60 90L60 100L50 100L50 110L110 110L110 70L100 70L100 80L90 80L90 60L110 60L110 0L70 0L70 10L60 10L60 20L40 20L40 10L50 10L50 0L0 0z"/>
<path style="fill:#ffffff; stroke:none;" d="M50 0L50 10L40 10L40 20L60 20L60 10L70 10L70 0L50 0M20 10L20 20L30 20L30 10L20 10M70 10L70 20L90 20L90 50L100 50L100 20L90 20L90 10L70 10M30 30L30 80L80 80L80 30L30 30M10 40L10 50L20 50L20 40L10 40z"/>
<path style="fill:#000000; stroke:none;" d="M60 40L60 50L70 50L70 40L60 40z"/>
<path style="fill:#ffffff; stroke:none;" d="M0 50L0 70L10 70L10 80L20 80L20 60L10 60L10 50L0 50z"/>
<path style="fill:#000000; stroke:none;" d="M40 50L40 60L50 60L50 50L40 50z"/>
<path style="fill:#ffffff; stroke:none;" d="M90 60L90 80L100 80L100 70L110 70L110 60L90 60M20 90L20 100L40 100L40 110L50 110L50 100L60 100L60 90L20 90M80 90L80 100L90 100L90 90L80 90z"/>
</svg>
