<?xml version="1.0" standalone="yes"?>
<svg xmlns="http://www.w3.org/2000/svg" width="110" height="110">
<path style="fill:#000000; stroke:none;" d="M0 0L0 60L10 60L10 70L0 70L0 110L40 110L40 90L80 90L80 100L50 100L50 110L110 110L110 60L90 60L90 50L110 50L110 0L70 0L70 10L90 10L90 20L40 20L40 10L60 10L60 0L0 0z"/>
<path style="fill:#ffffff; stroke:none;" d="M60 0L60 10L40 10L40 20L90 20L90 10L70 10L70 0L60 0M10 20L10 40L20 40L20 20L10 20M90 20L90 40L100 40L100 20L90 20M30 30L30 80L80 80L80 30L30 30z"/>
<path style="fill:#000000; stroke:none;" d="M60 40L60 50L70 50L70 40L60 40M40 50L40 70L50 70L50 50L40 50z"/>
<path style="fill:#ffffff; stroke:none;" d="M90 50L90 60L110 60L110 50L90 50M0 60L0 70L10 70L10 60L0 60M90 70L90 90L100 90L100 70L90 70M20 90L20 100L30 100L30 90L20 90M40 90L40 110L50 110L50 100L80 100L80 90L40 90z"/>
</svg>
