<?xml version="1.0" standalone="yes"?>
<svg xmlns="http://www.w3.org/2000/svg" width="110" height="110">
<path style="fill:#000000; stroke:none;" d="M0 0L0 110L50 110L50 100L30 100L30 90L80 90L80 100L60 100L60 110L110 110L110 60L100 60L100 50L110 50L110 0L50 0L50 10L40 10L40 0L0 0z"/>
<path style="fill:#ffffff; stroke:none;" d="M40 0L40 10L50 10L50 0L40 0M20 10L20 20L10 20L10 30L20 30L20 20L40 20L40 10L20 10M50 10L50 20L60 20L60 10L50 10M30 30L30 80L80 80L80 30L30 30M90 30L90 40L100 40L100 30L90 30z"/>
<path style="fill:#000000; stroke:none;" d="M50 40L50 50L40 50L40 70L60 70L60 60L70 60L70 40L50 40z"/>
<path style="fill:#ffffff; stroke:none;" d="M50 50L50 60L60 60L60 50L50 50M100 50L100 60L110 60L110 50L100 50M90 60L90 70L100 70L100 60L90 60M30 90L30 100L50 100L50 110L60 110L60 100L80 100L80 90L30 90z"/>
</svg>
