<?xml version="1.0" standalone="yes"?>
<svg xmlns="http://www.w3.org/2000/svg" width="110" height="110">
<path style="fill:#000000; stroke:none;" d="M0 0L0 50L10 50L10 40L20 40L20 70L10 70L10 60L0 60L0 110L50 110L50 100L40 100L40 90L90 90L90 100L60 100L60 110L110 110L110 70L100 70L100 40L110 40L110 0L60 0L60 10L70 10L70 20L50 20L50 0L0 0z"/>
<path style="fill:#ffffff; stroke:none;" d="M50 0L50 20L70 20L70 10L60 10L60 0L50 0M30 10L30 20L40 20L40 10L30 10M30 30L30 80L80 80L80 30L30 30M10 40L10 50L0 50L0 60L10 60L10 70L20 70L20 40L10 40M100 40L100 70L110 70L110 40L100 40z"/>
<path style="fill:#000000; stroke:none;" d="M60 50L60 60L50 60L50 70L60 70L60 60L70 60L70 50L60 50z"/>
<path style="fill:#ffffff; stroke:none;" d="M90 80L90 90L100 90L100 80L90 80M40 90L40 100L50 100L50 110L60 110L60 100L90 100L90 90L40 90z"/>
</svg>
