<?xml version="1.0" standalone="yes"?>
<svg xmlns="http://www.w3.org/2000/svg" width="110" height="110">
<path style="fill:#000000; stroke:none;" d="M0 0L0 50L10 50L10 60L20 60L20 70L0 70L0 110L60 110L60 90L80 90L80 100L70 100L70 110L110 110L110 70L100 70L100 90L90 90L90 60L110 60L110 50L100 50L100 40L110 40L110 0L60 0L60 10L50 10L50 0L0 0z"/>
<path style="fill:#ffffff; stroke:none;" d="M50 0L50 10L60 10L60 0L50 0M20 10L20 20L10 20L10 30L20 30L20 20L30 20L30 10L20 10M90 20L90 40L100 40L100 20L90 20M30 30L30 80L80 80L80 30L30 30z"/>
<path style="fill:#000000; stroke:none;" d="M50 40L50 50L40 50L40 70L50 70L50 60L70 60L70 50L60 50L60 40L50 40z"/>
<path style="fill:#ffffff; stroke:none;" d="M100 40L100 50L110 50L110 40L100 40M0 50L0 70L20 70L20 60L10 60L10 50L0 50M90 60L90 90L100 90L100 70L110 70L110 60L90 60M10 80L10 90L20 90L20 80L10 80M30 90L30 100L50 100L50 90L30 90M60 90L60 110L70 110L70 100L80 100L80 90L60 90z"/>
</svg>
