<?xml version="1.0" standalone="yes"?>
<svg xmlns="http://www.w3.org/2000/svg" width="110" height="110">
<path style="fill:#000000; stroke:none;" d="M0 0L0 40L20 40L20 70L10 70L10 50L0 50L0 110L60 110L60 100L70 100L70 110L110 110L110 0L60 0L60 10L80 10L80 20L50 20L50 0L0 0z"/>
<path style="fill:#ffffff; stroke:none;" d="M50 0L50 20L80 20L80 10L60 10L60 0L50 0M20 10L20 20L30 20L30 10L20 10M90 20L90 90L70 90L70 100L90 100L90 90L100 90L100 20L90 20M30 30L30 80L80 80L80 30L30 30M0 40L0 50L10 50L10 70L20 70L20 40L0 40z"/>
<path style="fill:#000000; stroke:none;" d="M40 40L40 50L50 50L50 70L60 70L60 40L40 40z"/>
<path style="fill:#ffffff; stroke:none;" d="M20 90L20 100L30 100L30 90L20 90M40 90L40 100L60 100L60 90L40 90M60 100L60 110L70 110L70 100L60 100z"/>
</svg>
