<?xml version="1.0" standalone="yes"?>
<svg xmlns="http://www.w3.org/2000/svg" width="110" height="110">
<path style="fill:#000000; stroke:none;" d="M0 0L0 50L10 50L10 30L20 30L20 80L10 80L10 70L0 70L0 110L40 110L40 100L50 100L50 110L60 110L60 90L90 90L90 100L70 100L70 110L110 110L110 50L90 50L90 30L100 30L100 40L110 40L110 0L70 0L70 20L60 20L60 10L50 10L50 20L20 20L20 10L40 10L40 0L0 0z"/>
<path style="fill:#ffffff; stroke:none;" d="M40 0L40 10L20 10L20 20L50 20L50 10L60 10L60 20L70 20L70 0L40 0M10 30L10 50L0 50L0 70L10 70L10 80L20 80L20 30L10 30M30 30L30 80L80 80L80 30L30 30M90 30L90 50L110 50L110 40L100 40L100 30L90 30z"/>
<path style="fill:#000000; stroke:none;" d="M40 40L40 60L60 60L60 40L40 40z"/>
<path style="fill:#ffffff; stroke:none;" d="M90 60L90 80L100 80L100 60L90 60M60 90L60 110L70 110L70 100L90 100L90 90L60 90M40 100L40 110L50 110L50 100L40 100z"/>
</svg>
