<?xml version="1.0" standalone="yes"?>
<svg xmlns="http://www.w3.org/2000/svg" width="110" height="110">
<path style="fill:#000000; stroke:none;" d="M0 0L0 50L20 50L20 70L10 70L10 60L0 60L0 110L40 110L40 100L30 100L30 90L50 90L50 110L110 110L110 70L100 70L100 90L90 90L90 50L100 50L100 60L110 60L110 50L100 50L100 40L110 40L110 0L50 0L50 10L40 10L40 0L0 0z"/>
<path style="fill:#ffffff; stroke:none;" d="M40 0L40 10L50 10L50 0L40 0M20 10L20 20L30 20L30 10L20 10M50 10L50 20L60 20L60 10L50 10M80 10L80 20L90 20L90 10L80 10M10 30L10 40L20 40L20 30L10 30M30 30L30 80L80 80L80 30L30 30M90 30L90 40L100 40L100 30L90 30z"/>
<path style="fill:#000000; stroke:none;" d="M60 40L60 50L50 50L50 70L60 70L60 60L70 60L70 40L60 40z"/>
<path style="fill:#ffffff; stroke:none;" d="M100 40L100 50L110 50L110 40L100 40M0 50L0 60L10 60L10 70L20 70L20 50L0 50M90 50L90 90L100 90L100 70L110 70L110 60L100 60L100 50L90 50M30 90L30 100L40 100L40 110L50 110L50 90L30 90M70 90L70 100L80 100L80 90L70 90z"/>
</svg>
