<?xml version="1.0" standalone="yes"?>
<svg xmlns="http://www.w3.org/2000/svg" width="110" height="110">
<path style="fill:#000000; stroke:none;" d="M0 0L0 40L10 40L10 60L20 60L20 90L10 90L10 70L0 70L0 110L50 110L50 100L40 100L40 90L60 90L60 100L70 100L70 110L110 110L110 70L90 70L90 30L100 30L100 50L110 50L110 0L50 0L50 10L40 10L40 0L0 0z"/>
<path style="fill:#ffffff; stroke:none;" d="M40 0L40 10L50 10L50 0L40 0M50 10L50 20L70 20L70 10L50 10M80 10L80 20L90 20L90 10L80 10M10 20L10 40L20 40L20 20L10 20M30 30L30 80L80 80L80 30L30 30M90 30L90 70L110 70L110 50L100 50L100 30L90 30M0 40L0 70L10 70L10 90L20 90L20 60L10 60L10 40L0 40z"/>
<path style="fill:#000000; stroke:none;" d="M50 40L50 50L40 50L40 60L60 60L60 50L70 50L70 40L50 40z"/>
<path style="fill:#ffffff; stroke:none;" d="M90 80L90 90L80 90L80 100L90 100L90 90L100 90L100 80L90 80M40 90L40 100L50 100L50 110L70 110L70 100L60 100L60 90L40 90z"/>
</svg>
