<?xml version="1.0" standalone="yes"?>
<svg xmlns="http://www.w3.org/2000/svg" width="110" height="110">
<path style="fill:#000000; stroke:none;" d="M0 0L0 40L10 40L10 20L20 20L20 60L10 60L10 70L0 70L0 110L50 110L50 100L60 100L60 110L110 110L110 70L100 70L100 60L110 60L110 0L70 0L70 10L80 10L80 20L60 20L60 0L50 0L50 10L40 10L40 0L0 0z"/>
<path style="fill:#ffffff; stroke:none;" d="M40 0L40 10L50 10L50 0L40 0M60 0L60 20L80 20L80 10L70 10L70 0L60 0M20 10L20 20L30 20L30 10L20 10M10 20L10 40L0 40L0 70L10 70L10 60L20 60L20 20L10 20M90 20L90 40L100 40L100 20L90 20M30 30L30 80L80 80L80 30L30 30z"/>
<path style="fill:#000000; stroke:none;" d="M40 40L40 60L50 60L50 70L60 70L60 60L70 60L70 40L60 40L60 60L50 60L50 40L40 40z"/>
<path style="fill:#ffffff; stroke:none;" d="M90 50L90 60L100 60L100 50L90 50M100 60L100 70L110 70L110 60L100 60M10 70L10 90L20 90L20 70L10 70M30 90L30 100L40 100L40 90L30 90M60 90L60 100L80 100L80 90L60 90M50 100L50 110L60 110L60 100L50 100z"/>
</svg>
