<?xml version="1.0" standalone="yes"?>
<svg xmlns="http://www.w3.org/2000/svg" width="110" height="110">
<path style="fill:#000000; stroke:none;" d="M0 0L0 40L10 40L10 50L0 50L0 110L40 110L40 100L50 100L50 110L110 110L110 70L100 70L100 50L90 50L90 20L100 20L100 40L110 40L110 0L70 0L70 10L60 10L60 0L0 0z"/>
<path style="fill:#ffffff; stroke:none;" d="M60 0L60 10L70 10L70 0L60 0M20 10L20 20L10 20L10 40L20 40L20 20L30 20L30 10L20 10M50 10L50 20L60 20L60 10L50 10M80 10L80 20L90 20L90 10L80 10M90 20L90 50L100 50L100 70L110 70L110 40L100 40L100 20L90 20M30 30L30 80L80 80L80 30L30 30M0 40L0 50L10 50L10 40L0 40z"/>
<path style="fill:#000000; stroke:none;" d="M40 40L40 50L50 50L50 70L70 70L70 50L50 50L50 40L40 40z"/>
<path style="fill:#ffffff; stroke:none;" d="M10 70L10 80L20 80L20 70L10 70M90 70L90 90L80 90L80 100L90 100L90 90L100 90L100 70L90 70M60 90L60 100L70 100L70 90L60 90M40 100L40 110L50 110L50 100L40 100z"/>
</svg>
