<?xml version="1.0" standalone="yes"?>
<svg xmlns="http://www.w3.org/2000/svg" width="110" height="110">
<path style="fill:#000000; stroke:none;" d="M0 0L0 40L20 40L20 90L10 90L10 60L0 60L0 110L50 110L50 100L70 100L70 110L110 110L110 0L0 0z"/>
<path style="fill:#ffffff; stroke:none;" d="M20 10L20 20L30 20L30 10L20 10M40 10L40 20L60 20L60 10L40 10M70 10L70 20L80 20L80 10L70 10M30 30L30 80L80 80L80 30L30 30M0 40L0 60L10 60L10 90L20 90L20 40L0 40M90 40L90 90L70 90L70 100L90 100L90 90L100 90L100 40L90 40z"/>
<path style="fill:#000000; stroke:none;" d="M60 50L60 70L70 70L70 50L60 50M40 60L40 70L50 70L50 60L40 60z"/>
<path style="fill:#ffffff; stroke:none;" d="M20 90L20 100L30 100L30 90L20 90M50 100L50 110L70 110L70 100L50 100z"/>
</svg>
