<?xml version="1.0" standalone="yes"?>
<svg xmlns="http://www.w3.org/2000/svg" width="110" height="110">
<path style="fill:#000000; stroke:none;" d="M0 0L0 40L10 40L10 30L20 30L20 60L10 60L10 70L0 70L0 110L50 110L50 100L40 100L40 90L60 90L60 110L110 110L110 70L100 70L100 60L110 60L110 50L90 50L90 30L100 30L100 40L110 40L110 0L60 0L60 20L50 20L50 10L40 10L40 0L0 0z"/>
<path style="fill:#ffffff; stroke:none;" d="M40 0L40 10L50 10L50 20L60 20L60 0L40 0M70 10L70 20L90 20L90 10L70 10M10 30L10 40L0 40L0 70L10 70L10 60L20 60L20 30L10 30M30 30L30 80L80 80L80 30L30 30M90 30L90 50L110 50L110 40L100 40L100 30L90 30z"/>
<path style="fill:#000000; stroke:none;" d="M40 40L40 60L50 60L50 40L40 40M60 40L60 70L70 70L70 40L60 40z"/>
<path style="fill:#ffffff; stroke:none;" d="M100 60L100 70L110 70L110 60L100 60M10 70L10 80L20 80L20 70L10 70M90 70L90 80L100 80L100 70L90 70M40 90L40 100L50 100L50 110L60 110L60 90L40 90M70 90L70 100L80 100L80 90L70 90z"/>
</svg>
