<?xml version="1.0" standalone="yes"?>
<svg xmlns="http://www.w3.org/2000/svg" width="110" height="110">
<path style="fill:#000000; stroke:none;" d="M0 0L0 110L40 110L40 100L50 100L50 90L60 90L60 110L110 110L110 70L100 70L100 80L90 80L90 30L100 30L100 60L110 60L110 0L70 0L70 20L60 20L60 0L50 0L50 10L40 10L40 0L0 0z"/>
<path style="fill:#ffffff; stroke:none;" d="M40 0L40 10L50 10L50 0L40 0M60 0L60 20L70 20L70 0L60 0M20 10L20 20L10 20L10 30L20 30L20 20L40 20L40 10L20 10M30 30L30 80L80 80L80 30L30 30M90 30L90 80L100 80L100 70L110 70L110 60L100 60L100 30L90 30z"/>
<path style="fill:#000000; stroke:none;" d="M40 60L40 70L70 70L70 60L40 60z"/>
<path style="fill:#ffffff; stroke:none;" d="M10 70L10 90L20 90L20 100L40 100L40 90L20 90L20 70L10 70M50 90L50 100L40 100L40 110L60 110L60 90L50 90z"/>
</svg>
