<?xml version="1.0" standalone="yes"?>
<svg xmlns="http://www.w3.org/2000/svg" width="110" height="110">
<path style="fill:#000000; stroke:none;" d="M0 0L0 40L10 40L10 50L20 50L20 70L0 70L0 110L60 110L60 100L30 100L30 90L80 90L80 100L70 100L70 110L110 110L110 70L100 70L100 50L90 50L90 40L110 40L110 0L60 0L60 10L50 10L50 20L40 20L40 0L0 0z"/>
<path style="fill:#ffffff; stroke:none;" d="M40 0L40 20L50 20L50 10L60 10L60 0L40 0M60 10L60 20L70 20L70 10L60 10M30 30L30 80L80 80L80 30L30 30M0 40L0 70L20 70L20 50L10 50L10 40L0 40z"/>
<path style="fill:#000000; stroke:none;" d="M60 40L60 50L50 50L50 60L70 60L70 40L60 40z"/>
<path style="fill:#ffffff; stroke:none;" d="M90 40L90 50L100 50L100 70L110 70L110 40L90 40M90 70L90 90L100 90L100 70L90 70M30 90L30 100L60 100L60 110L70 110L70 100L80 100L80 90L30 90z"/>
</svg>
