<?xml version="1.0" standalone="yes"?>
<svg xmlns="http://www.w3.org/2000/svg" width="110" height="110">
<path style="fill:#000000; stroke:none;" d="M0 0L0 50L10 50L10 20L20 20L20 60L10 60L10 70L0 70L0 110L40 110L40 100L30 100L30 90L90 90L90 100L70 100L70 110L110 110L110 60L90 60L90 40L110 40L110 0L60 0L60 10L50 10L50 20L20 20L20 10L40 10L40 0L0 0z"/>
<path style="fill:#ffffff; stroke:none;" d="M40 0L40 10L20 10L20 20L50 20L50 10L60 10L60 0L40 0M60 10L60 20L90 20L90 10L60 10M10 20L10 50L0 50L0 70L10 70L10 60L20 60L20 20L10 20M30 30L30 80L80 80L80 30L30 30z"/>
<path style="fill:#000000; stroke:none;" d="M40 40L40 60L50 60L50 70L70 70L70 40L40 40z"/>
<path style="fill:#ffffff; stroke:none;" d="M90 40L90 60L110 60L110 40L90 40M10 70L10 80L20 80L20 70L10 70M90 70L90 80L100 80L100 70L90 70M30 90L30 100L40 100L40 110L50 110L50 100L60 100L60 110L70 110L70 100L90 100L90 90L30 90z"/>
<path style="fill:#000000; stroke:none;" d="M50 100L50 110L60 110L60 100L50 100z"/>
</svg>
