<?xml version="1.0" standalone="yes"?>
<svg xmlns="http://www.w3.org/2000/svg" width="110" height="110">
<path style="fill:#000000; stroke:none;" d="M0 0L0 110L50 110L50 100L60 100L60 90L80 90L80 100L70 100L70 110L110 110L110 70L90 70L90 50L100 50L100 60L110 60L110 0L60 0L60 10L70 10L70 20L40 20L40 10L50 10L50 0L0 0z"/>
<path style="fill:#ffffff; stroke:none;" d="M50 0L50 10L40 10L40 20L70 20L70 10L60 10L60 0L50 0M20 10L20 20L10 20L10 30L20 30L20 20L30 20L30 10L20 10M80 10L80 20L90 20L90 10L80 10M30 30L30 80L80 80L80 30L30 30z"/>
<path style="fill:#000000; stroke:none;" d="M60 40L60 50L40 50L40 70L50 70L50 60L60 60L60 70L70 70L70 40L60 40z"/>
<path style="fill:#ffffff; stroke:none;" d="M90 50L90 70L110 70L110 60L100 60L100 50L90 50M10 60L10 70L20 70L20 60L10 60M20 90L20 100L50 100L50 90L20 90M60 90L60 100L50 100L50 110L70 110L70 100L80 100L80 90L60 90z"/>
</svg>
