<?xml version="1.0" standalone="yes"?>
<svg xmlns="http://www.w3.org/2000/svg" width="110" height="110">
<path style="fill:#000000; stroke:none;" d="M0 0L0 40L10 40L10 20L20 20L20 90L10 90L10 60L0 60L0 110L60 110L60 100L70 100L70 110L110 110L110 60L90 60L90 20L100 20L100 50L110 50L110 0L70 0L70 20L60 20L60 10L40 10L40 0L0 0z"/>
<path style="fill:#ffffff; stroke:none;" d="M40 0L40 10L60 10L60 20L70 20L70 0L40 0M20 10L20 20L40 20L40 10L20 10M10 20L10 40L0 40L0 60L10 60L10 90L20 90L20 20L10 20M90 20L90 60L110 60L110 50L100 50L100 20L90 20M30 30L30 80L80 80L80 30L30 30z"/>
<path style="fill:#000000; stroke:none;" d="M40 40L40 50L70 50L70 40L40 40M40 60L40 70L70 70L70 60L40 60z"/>
<path style="fill:#ffffff; stroke:none;" d="M50 90L50 100L60 100L60 90L50 90M60 100L60 110L70 110L70 100L60 100z"/>
</svg>
