<?xml version="1.0" standalone="yes"?>
<svg xmlns="http://www.w3.org/2000/svg" width="110" height="110">
<path style="fill:#000000; stroke:none;" d="M0 0L0 40L20 40L20 80L10 80L10 70L0 70L0 110L110 110L110 70L90 70L90 60L110 60L110 0L60 0L60 10L70 10L70 20L20 20L20 10L40 10L40 0L0 0z"/>
<path style="fill:#ffffff; stroke:none;" d="M40 0L40 10L20 10L20 20L70 20L70 10L60 10L60 0L40 0M80 10L80 20L90 20L90 10L80 10M30 30L30 80L80 80L80 30L30 30M90 30L90 40L100 40L100 30L90 30M0 40L0 50L10 50L10 60L0 60L0 70L10 70L10 80L20 80L20 40L0 40z"/>
<path style="fill:#000000; stroke:none;" d="M40 40L40 50L50 50L50 40L40 40M60 40L60 60L40 60L40 70L60 70L60 60L70 60L70 40L60 40M0 50L0 60L10 60L10 50L0 50z"/>
<path style="fill:#ffffff; stroke:none;" d="M90 60L90 70L110 70L110 60L90 60M20 90L20 100L30 100L30 90L20 90M40 90L40 100L60 100L60 90L40 90M70 90L70 100L80 100L80 90L70 90z"/>
</svg>
