<?xml version="1.0" standalone="yes"?>
<svg xmlns="http://www.w3.org/2000/svg" width="110" height="110">
<path style="fill:#000000; stroke:none;" d="M0 0L0 110L50 110L50 90L60 90L60 110L110 110L110 60L100 60L100 90L90 90L90 50L110 50L110 0L70 0L70 10L60 10L60 0L0 0z"/>
<path style="fill:#ffffff; stroke:none;" d="M60 0L60 10L70 10L70 0L60 0M40 10L40 20L60 20L60 10L40 10M70 10L70 20L80 20L80 10L70 10M10 20L10 90L20 90L20 20L10 20M90 20L90 30L100 30L100 20L90 20M30 30L30 80L80 80L80 30L30 30z"/>
<path style="fill:#000000; stroke:none;" d="M60 40L60 60L50 60L50 50L40 50L40 70L60 70L60 60L70 60L70 40L60 40z"/>
<path style="fill:#ffffff; stroke:none;" d="M90 50L90 90L100 90L100 60L110 60L110 50L90 50M30 90L30 100L40 100L40 90L30 90M50 90L50 110L60 110L60 90L50 90M80 90L80 100L90 100L90 90L80 90z"/>
</svg>
