<?xml version="1.0" standalone="yes"?>
<svg xmlns="http://www.w3.org/2000/svg" width="110" height="110">
<path style="fill:#000000; stroke:none;" d="M0 0L0 40L10 40L10 30L20 30L20 50L10 50L10 60L20 60L20 90L10 90L10 70L0 70L0 110L40 110L40 100L60 100L60 90L90 90L90 100L70 100L70 110L110 110L110 60L100 60L100 70L90 70L90 50L110 50L110 0L60 0L60 20L20 20L20 10L50 10L50 0L0 0z"/>
<path style="fill:#ffffff; stroke:none;" d="M50 0L50 10L20 10L20 20L60 20L60 0L50 0M70 10L70 20L90 20L90 10L70 10M10 30L10 40L0 40L0 70L10 70L10 90L20 90L20 60L10 60L10 50L20 50L20 30L10 30M30 30L30 80L80 80L80 30L30 30z"/>
<path style="fill:#000000; stroke:none;" d="M50 40L50 60L40 60L40 70L50 70L50 60L60 60L60 70L70 70L70 60L60 60L60 50L70 50L70 40L50 40z"/>
<path style="fill:#ffffff; stroke:none;" d="M90 50L90 70L100 70L100 60L110 60L110 50L90 50M90 80L90 90L100 90L100 80L90 80M60 90L60 100L40 100L40 110L70 110L70 100L90 100L90 90L60 90z"/>
</svg>
