<?xml version="1.0" standalone="yes"?>
<svg xmlns="http://www.w3.org/2000/svg" width="110" height="110">
<path style="fill:#000000; stroke:none;" d="M0 0L0 40L10 40L10 30L20 30L20 60L0 60L0 110L50 110L50 100L70 100L70 110L110 110L110 60L100 60L100 50L110 50L110 0L70 0L70 10L60 10L60 20L20 20L20 10L40 10L40 0L0 0z"/>
<path style="fill:#ffffff; stroke:none;" d="M40 0L40 10L20 10L20 20L60 20L60 10L70 10L70 0L40 0M70 10L70 20L90 20L90 30L100 30L100 20L90 20L90 10L70 10M10 30L10 40L0 40L0 60L20 60L20 30L10 30M30 30L30 80L80 80L80 30L30 30z"/>
<path style="fill:#000000; stroke:none;" d="M40 40L40 70L60 70L60 60L70 60L70 50L60 50L60 40L40 40z"/>
<path style="fill:#ffffff; stroke:none;" d="M90 40L90 50L100 50L100 40L90 40M50 50L50 60L60 60L60 50L50 50M100 50L100 60L110 60L110 50L100 50M10 70L10 90L20 90L20 100L40 100L40 90L20 90L20 70L10 70M90 80L90 90L70 90L70 100L90 100L90 90L100 90L100 80L90 80M50 100L50 110L70 110L70 100L50 100z"/>
</svg>
