<?xml version="1.0" standalone="yes"?>
<svg xmlns="http://www.w3.org/2000/svg" width="110" height="110">
<path style="fill:#000000; stroke:none;" d="M0 0L0 40L10 40L10 50L0 50L0 110L110 110L110 60L90 60L90 50L110 50L110 0L50 0L50 10L90 10L90 20L40 20L40 0L0 0z"/>
<path style="fill:#ffffff; stroke:none;" d="M40 0L40 20L90 20L90 10L50 10L50 0L40 0M10 20L10 30L20 30L20 20L10 20M90 20L90 30L100 30L100 20L90 20M30 30L30 80L80 80L80 30L30 30M0 40L0 50L10 50L10 40L0 40z"/>
<path style="fill:#000000; stroke:none;" d="M40 50L40 70L50 70L50 50L40 50M60 50L60 60L70 60L70 50L60 50z"/>
<path style="fill:#ffffff; stroke:none;" d="M90 50L90 60L110 60L110 50L90 50M10 70L10 80L20 80L20 70L10 70M90 80L90 90L100 90L100 80L90 80M20 90L20 100L40 100L40 90L20 90M60 90L60 100L70 100L70 90L60 90z"/>
</svg>
