<?xml version="1.0" standalone="yes"?>
<svg xmlns="http://www.w3.org/2000/svg" width="110" height="110">
<path style="fill:#000000; stroke:none;" d="M0 0L0 50L10 50L10 40L20 40L20 60L10 60L10 70L0 70L0 110L50 110L50 90L60 90L60 100L70 100L70 110L110 110L110 0L0 0z"/>
<path style="fill:#ffffff; stroke:none;" d="M30 10L30 20L40 20L40 10L30 10M50 10L50 20L70 20L70 10L50 10M10 20L10 30L20 30L20 20L10 20M90 20L90 30L100 30L100 20L90 20M30 30L30 80L80 80L80 30L30 30M10 40L10 50L0 50L0 70L10 70L10 60L20 60L20 40L10 40z"/>
<path style="fill:#000000; stroke:none;" d="M60 50L60 60L50 60L50 70L70 70L70 50L60 50z"/>
<path style="fill:#ffffff; stroke:none;" d="M90 50L90 60L100 60L100 50L90 50M10 80L10 90L20 90L20 80L10 80M90 80L90 90L100 90L100 80L90 80M50 90L50 110L70 110L70 100L60 100L60 90L50 90z"/>
</svg>
