<?xml version="1.0" standalone="yes"?>
<svg xmlns="http://www.w3.org/2000/svg" width="110" height="110">
<path style="fill:#000000; stroke:none;" d="M0 0L0 40L10 40L10 20L20 20L20 60L10 60L10 50L0 50L0 60L10 60L10 70L0 70L0 110L50 110L50 90L60 90L60 110L110 110L110 70L90 70L90 30L100 30L100 40L110 40L110 0L0 0z"/>
<path style="fill:#ffffff; stroke:none;" d="M50 10L50 20L80 20L80 10L50 10M10 20L10 40L0 40L0 50L10 50L10 60L20 60L20 20L10 20M30 30L30 80L80 80L80 30L30 30M90 30L90 70L110 70L110 40L100 40L100 30L90 30z"/>
<path style="fill:#000000; stroke:none;" d="M40 40L40 70L50 70L50 50L60 50L60 40L40 40z"/>
<path style="fill:#ffffff; stroke:none;" d="M0 60L0 70L10 70L10 60L0 60M90 80L90 90L70 90L70 100L90 100L90 90L100 90L100 80L90 80M20 90L20 100L30 100L30 90L20 90M50 90L50 110L60 110L60 90L50 90z"/>
</svg>
