<?xml version="1.0" standalone="yes"?>
<svg xmlns="http://www.w3.org/2000/svg" width="110" height="110">
<path style="fill:#000000; stroke:none;" d="M0 0L0 50L10 50L10 60L0 60L0 110L40 110L40 100L50 100L50 90L60 90L60 110L110 110L110 70L100 70L100 60L110 60L110 0L0 0z"/>
<path style="fill:#ffffff; stroke:none;" d="M20 10L20 20L10 20L10 50L20 50L20 20L40 20L40 10L20 10M50 10L50 20L60 20L60 10L50 10M70 10L70 20L80 20L80 10L70 10M30 30L30 80L80 80L80 30L30 30z"/>
<path style="fill:#000000; stroke:none;" d="M40 40L40 70L50 70L50 40L40 40M60 40L60 60L70 60L70 40L60 40z"/>
<path style="fill:#ffffff; stroke:none;" d="M90 40L90 60L100 60L100 40L90 40M0 50L0 60L10 60L10 50L0 50M10 60L10 70L20 70L20 60L10 60M100 60L100 70L110 70L110 60L100 60M90 70L90 80L100 80L100 70L90 70M20 90L20 100L30 100L30 90L20 90M50 90L50 100L40 100L40 110L60 110L60 90L50 90M80 90L80 100L90 100L90 90L80 90z"/>
</svg>
