<?xml version="1.0" standalone="yes"?>
<svg xmlns="http://www.w3.org/2000/svg" width="110" height="110">
<path style="fill:#000000; stroke:none;" d="M0 0L0 110L110 110L110 60L100 60L100 50L110 50L110 0L70 0L70 10L60 10L60 20L50 20L50 10L40 10L40 0L0 0z"/>
<path style="fill:#ffffff; stroke:none;" d="M40 0L40 10L50 10L50 20L60 20L60 10L70 10L70 0L40 0M20 10L20 20L30 20L30 10L20 10M70 10L70 20L90 20L90 30L100 30L100 20L90 20L90 10L70 10M10 30L10 70L20 70L20 30L10 30M30 30L30 80L80 80L80 30L30 30z"/>
<path style="fill:#000000; stroke:none;" d="M40 40L40 60L50 60L50 50L60 50L60 70L70 70L70 40L40 40z"/>
<path style="fill:#ffffff; stroke:none;" d="M100 50L100 60L110 60L110 50L100 50M90 70L90 80L100 80L100 70L90 70M10 80L10 90L20 90L20 100L50 100L50 90L20 90L20 80L10 80M60 90L60 100L80 100L80 90L60 90z"/>
</svg>
