<?xml version="1.0" standalone="yes"?>
<svg xmlns="http://www.w3.org/2000/svg" width="110" height="110">
<path style="fill:#000000; stroke:none;" d="M0 0L0 110L40 110L40 90L60 90L60 100L50 100L50 110L110 110L110 70L90 70L90 60L100 60L100 40L110 40L110 0L70 0L70 20L60 20L60 10L50 10L50 0L0 0z"/>
<path style="fill:#ffffff; stroke:none;" d="M50 0L50 10L60 10L60 20L70 20L70 0L50 0M20 10L20 20L10 20L10 40L20 40L20 20L30 20L30 10L20 10M40 10L40 20L50 20L50 10L40 10M80 10L80 20L90 20L90 40L100 40L100 20L90 20L90 10L80 10M30 30L30 80L80 80L80 30L30 30z"/>
<path style="fill:#000000; stroke:none;" d="M40 40L40 60L50 60L50 70L60 70L60 60L70 60L70 50L60 50L60 40L40 40z"/>
<path style="fill:#ffffff; stroke:none;" d="M100 40L100 60L90 60L90 70L110 70L110 40L100 40M10 80L10 90L20 90L20 80L10 80M90 80L90 90L100 90L100 80L90 80M40 90L40 110L50 110L50 100L60 100L60 90L40 90M70 90L70 100L80 100L80 90L70 90z"/>
</svg>
