<?xml version="1.0" standalone="yes"?>
<svg xmlns="http://www.w3.org/2000/svg" width="110" height="110">
<path style="fill:#000000; stroke:none;" d="M0 0L0 40L10 40L10 50L0 50L0 110L40 110L40 100L70 100L70 110L110 110L110 60L100 60L100 40L110 40L110 0L0 0z"/>
<path style="fill:#ffffff; stroke:none;" d="M20 10L20 20L10 20L10 40L20 40L20 20L30 20L30 10L20 10M40 10L40 20L60 20L60 10L40 10M70 10L70 20L80 20L80 10L70 10M90 20L90 40L100 40L100 20L90 20M30 30L30 80L80 80L80 30L30 30M0 40L0 50L10 50L10 40L0 40z"/>
<path style="fill:#000000; stroke:none;" d="M60 40L60 70L70 70L70 40L60 40z"/>
<path style="fill:#ffffff; stroke:none;" d="M100 40L100 60L110 60L110 40L100 40M10 70L10 90L20 90L20 70L10 70M90 80L90 90L70 90L70 100L90 100L90 90L100 90L100 80L90 80M40 100L40 110L70 110L70 100L40 100z"/>
</svg>
