<?xml version="1.0" standalone="yes"?>
<svg xmlns="http://www.w3.org/2000/svg" width="110" height="110">
<path style="fill:#000000; stroke:none;" d="M0 0L0 60L10 60L10 70L0 70L0 110L50 110L50 100L60 100L60 110L110 110L110 60L100 60L100 40L110 40L110 0L70 0L70 10L60 10L60 20L20 20L20 10L50 10L50 0L0 0z"/>
<path style="fill:#ffffff; stroke:none;" d="M50 0L50 10L20 10L20 20L60 20L60 10L70 10L70 0L50 0M70 10L70 20L80 20L80 10L70 10M30 30L30 80L80 80L80 30L30 30M10 40L10 60L20 60L20 40L10 40z"/>
<path style="fill:#000000; stroke:none;" d="M50 40L50 50L40 50L40 70L50 70L50 60L60 60L60 70L70 70L70 60L60 60L60 50L70 50L70 40L50 40z"/>
<path style="fill:#ffffff; stroke:none;" d="M100 40L100 60L110 60L110 40L100 40M0 60L0 70L10 70L10 60L0 60M90 60L90 90L60 90L60 100L90 100L90 90L100 90L100 60L90 60M10 70L10 80L20 80L20 70L10 70M20 90L20 100L30 100L30 90L20 90M40 90L40 100L50 100L50 90L40 90M50 100L50 110L60 110L60 100L50 100z"/>
</svg>
