<?xml version="1.0" standalone="yes"?>
<svg xmlns="http://www.w3.org/2000/svg" width="110" height="110">
<path style="fill:#000000; stroke:none;" d="M0 0L0 60L10 60L10 30L20 30L20 80L10 80L10 70L0 70L0 110L110 110L110 60L100 60L100 70L90 70L90 50L100 50L100 40L110 40L110 0L70 0L70 10L60 10L60 0L0 0z"/>
<path style="fill:#ffffff; stroke:none;" d="M60 0L60 10L70 10L70 0L60 0M20 10L20 20L30 20L30 10L20 10M40 10L40 20L50 20L50 10L40 10M70 10L70 20L80 20L80 10L70 10M10 30L10 60L0 60L0 70L10 70L10 80L20 80L20 30L10 30M30 30L30 80L80 80L80 30L30 30M90 30L90 40L100 40L100 30L90 30z"/>
<path style="fill:#000000; stroke:none;" d="M40 40L40 50L50 50L50 70L60 70L60 60L70 60L70 40L40 40z"/>
<path style="fill:#ffffff; stroke:none;" d="M100 40L100 50L90 50L90 70L100 70L100 60L110 60L110 40L100 40M90 80L90 90L100 90L100 80L90 80M30 90L30 100L50 100L50 90L30 90M70 90L70 100L80 100L80 90L70 90z"/>
</svg>
