<?xml version="1.0" standalone="yes"?>
<svg xmlns="http://www.w3.org/2000/svg" width="110" height="110">
<path style="fill:#000000; stroke:none;" d="M0 0L0 110L40 110L40 100L30 100L30 90L60 90L60 100L70 100L70 110L110 110L110 50L100 50L100 40L110 40L110 0L70 0L70 10L50 10L50 0L0 0z"/>
<path style="fill:#ffffff; stroke:none;" d="M50 0L50 10L70 10L70 0L50 0M20 10L20 20L30 20L30 10L20 10M40 10L40 20L50 20L50 10L40 10M30 30L30 80L80 80L80 30L30 30M90 30L90 40L100 40L100 30L90 30z"/>
<path style="fill:#000000; stroke:none;" d="M40 40L40 50L50 50L50 70L70 70L70 40L60 40L60 50L50 50L50 40L40 40z"/>
<path style="fill:#ffffff; stroke:none;" d="M100 40L100 50L110 50L110 40L100 40M90 50L90 80L100 80L100 50L90 50M10 60L10 70L20 70L20 60L10 60M30 90L30 100L40 100L40 110L70 110L70 100L60 100L60 90L30 90M70 90L70 100L80 100L80 90L70 90z"/>
</svg>
