<?xml version="1.0" standalone="yes"?>
<svg xmlns="http://www.w3.org/2000/svg" width="110" height="110">
<path style="fill:#000000; stroke:none;" d="M0 0L0 110L110 110L110 70L100 70L100 80L90 80L90 20L100 20L100 50L110 50L110 0L70 0L70 10L90 10L90 20L60 20L60 0L0 0z"/>
<path style="fill:#ffffff; stroke:none;" d="M60 0L60 20L90 20L90 10L70 10L70 0L60 0M20 10L20 20L50 20L50 10L20 10M90 20L90 80L100 80L100 70L110 70L110 50L100 50L100 20L90 20M30 30L30 80L80 80L80 30L30 30z"/>
<path style="fill:#000000; stroke:none;" d="M60 40L60 50L70 50L70 40L60 40z"/>
<path style="fill:#ffffff; stroke:none;" d="M10 50L10 60L20 60L20 50L10 50z"/>
<path style="fill:#000000; stroke:none;" d="M40 60L40 70L70 70L70 60L40 60z"/>
<path style="fill:#ffffff; stroke:none;" d="M10 70L10 80L20 80L20 70L10 70M40 90L40 100L50 100L50 90L40 90M70 90L70 100L90 100L90 90L70 90z"/>
</svg>
