<?xml version="1.0" standalone="yes"?>
<svg xmlns="http://www.w3.org/2000/svg" width="110" height="110">
<path style="fill:#000000; stroke:none;" d="M0 0L0 40L10 40L10 30L20 30L20 90L10 90L10 70L0 70L0 110L110 110L110 0L70 0L70 10L80 10L80 20L50 20L50 0L0 0z"/>
<path style="fill:#ffffff; stroke:none;" d="M50 0L50 20L80 20L80 10L70 10L70 0L50 0M20 10L20 20L40 20L40 10L20 10M10 30L10 40L0 40L0 70L10 70L10 90L20 90L20 30L10 30M30 30L30 80L80 80L80 30L30 30M90 40L90 50L100 50L100 40L90 40z"/>
<path style="fill:#000000; stroke:none;" d="M40 50L40 70L50 70L50 60L70 60L70 50L40 50z"/>
<path style="fill:#ffffff; stroke:none;" d="M90 60L90 90L100 90L100 60L90 60M20 90L20 100L50 100L50 90L20 90M70 90L70 100L80 100L80 90L70 90z"/>
</svg>
