<?xml version="1.0" standalone="yes"?>
<svg xmlns="http://www.w3.org/2000/svg" width="110" height="110">
<path style="fill:#000000; stroke:none;" d="M0 0L0 40L10 40L10 30L20 30L20 50L10 50L10 60L20 60L20 80L10 80L10 70L0 70L0 110L40 110L40 100L50 100L50 90L60 90L60 110L110 110L110 0L60 0L60 10L50 10L50 20L40 20L40 0L0 0z"/>
<path style="fill:#ffffff; stroke:none;" d="M40 0L40 20L50 20L50 10L60 10L60 0L40 0M20 10L20 20L30 20L30 10L20 10M80 10L80 20L90 20L90 10L80 10M10 30L10 40L0 40L0 70L10 70L10 80L20 80L20 60L10 60L10 50L20 50L20 30L10 30M30 30L30 80L80 80L80 30L30 30z"/>
<path style="fill:#000000; stroke:none;" d="M50 40L50 50L60 50L60 60L70 60L70 50L60 50L60 40L50 40M40 60L40 70L50 70L50 60L40 60z"/>
<path style="fill:#ffffff; stroke:none;" d="M90 60L90 80L100 80L100 60L90 60M50 90L50 100L40 100L40 110L60 110L60 90L50 90M70 90L70 100L90 100L90 90L70 90z"/>
</svg>
