<?xml version="1.0" standalone="yes"?>
<svg xmlns="http://www.w3.org/2000/svg" width="110" height="110">
<path style="fill:#000000; stroke:none;" d="M0 0L0 40L10 40L10 50L0 50L0 110L110 110L110 70L90 70L90 40L100 40L100 60L110 60L110 0L0 0z"/>
<path style="fill:#ffffff; stroke:none;" d="M40 10L40 20L70 20L70 10L40 10M80 10L80 20L90 20L90 30L100 30L100 20L90 20L90 10L80 10M10 20L10 40L20 40L20 20L10 20M30 30L30 80L80 80L80 30L30 30M0 40L0 50L10 50L10 40L0 40z"/>
<path style="fill:#000000; stroke:none;" d="M40 40L40 50L50 50L50 40L40 40z"/>
<path style="fill:#ffffff; stroke:none;" d="M90 40L90 70L110 70L110 60L100 60L100 40L90 40M10 60L10 70L20 70L20 60L10 60z"/>
<path style="fill:#000000; stroke:none;" d="M40 60L40 70L50 70L50 60L40 60M60 60L60 70L70 70L70 60L60 60z"/>
<path style="fill:#ffffff; stroke:none;" d="M10 80L10 90L20 90L20 100L30 100L30 90L20 90L20 80L10 80M60 90L60 100L70 100L70 90L60 90M80 90L80 100L90 100L90 90L80 90z"/>
</svg>
