<?xml version="1.0" standalone="yes"?>
<svg xmlns="http://www.w3.org/2000/svg" width="110" height="110">
<path style="fill:#000000; stroke:none;" d="M0 0L0 50L10 50L10 70L0 70L0 110L110 110L110 70L100 70L100 80L90 80L90 60L110 60L110 50L100 50L100 40L110 40L110 0L70 0L70 10L50 10L50 0L0 0z"/>
<path style="fill:#ffffff; stroke:none;" d="M50 0L50 10L70 10L70 0L50 0M20 10L20 20L10 20L10 30L20 30L20 20L50 20L50 10L20 10M80 10L80 20L90 20L90 10L80 10M30 30L30 80L80 80L80 30L30 30z"/>
<path style="fill:#000000; stroke:none;" d="M40 40L40 60L70 60L70 40L60 40L60 50L50 50L50 40L40 40z"/>
<path style="fill:#ffffff; stroke:none;" d="M100 40L100 50L110 50L110 40L100 40M0 50L0 70L10 70L10 50L0 50M90 60L90 80L100 80L100 70L110 70L110 60L90 60M30 90L30 100L40 100L40 90L30 90M50 90L50 100L60 100L60 90L50 90z"/>
</svg>
