<?xml version="1.0" standalone="yes"?>
<svg xmlns="http://www.w3.org/2000/svg" width="110" height="110">
<path style="fill:#000000; stroke:none;" d="M0 0L0 40L10 40L10 50L0 50L0 110L50 110L50 100L60 100L60 90L80 90L80 100L70 100L70 110L110 110L110 60L100 60L100 50L90 50L90 40L110 40L110 0L70 0L70 10L60 10L60 20L40 20L40 10L50 10L50 0L0 0z"/>
<path style="fill:#ffffff; stroke:none;" d="M50 0L50 10L40 10L40 20L60 20L60 10L70 10L70 0L50 0M80 10L80 20L90 20L90 10L80 10M30 30L30 80L80 80L80 30L30 30M0 40L0 50L10 50L10 40L0 40z"/>
<path style="fill:#000000; stroke:none;" d="M60 40L60 50L70 50L70 40L60 40z"/>
<path style="fill:#ffffff; stroke:none;" d="M90 40L90 50L100 50L100 60L110 60L110 40L90 40M10 50L10 90L20 90L20 50L10 50z"/>
<path style="fill:#000000; stroke:none;" d="M40 50L40 70L50 70L50 50L40 50z"/>
<path style="fill:#ffffff; stroke:none;" d="M90 60L90 90L100 90L100 60L90 60M30 90L30 100L40 100L40 90L30 90M60 90L60 100L50 100L50 110L70 110L70 100L80 100L80 90L60 90z"/>
</svg>
