<?xml version="1.0" standalone="yes"?>
<svg xmlns="http://www.w3.org/2000/svg" width="110" height="110">
<path style="fill:#000000; stroke:none;" d="M0 0L0 40L10 40L10 50L20 50L20 60L10 60L10 70L0 70L0 110L110 110L110 70L100 70L100 50L90 50L90 40L110 40L110 0L70 0L70 20L30 20L30 10L40 10L40 0L0 0z"/>
<path style="fill:#ffffff; stroke:none;" d="M40 0L40 10L30 10L30 20L70 20L70 0L60 0L60 10L50 10L50 0L40 0z"/>
<path style="fill:#000000; stroke:none;" d="M50 0L50 10L60 10L60 0L50 0z"/>
<path style="fill:#ffffff; stroke:none;" d="M10 20L10 40L20 40L20 20L10 20M90 20L90 30L100 30L100 20L90 20M30 30L30 80L80 80L80 30L30 30M0 40L0 70L10 70L10 60L20 60L20 50L10 50L10 40L0 40z"/>
<path style="fill:#000000; stroke:none;" d="M40 40L40 60L60 60L60 50L70 50L70 40L60 40L60 50L50 50L50 40L40 40z"/>
<path style="fill:#ffffff; stroke:none;" d="M90 40L90 50L100 50L100 70L110 70L110 40L90 40M10 70L10 80L20 80L20 70L10 70M90 80L90 90L80 90L80 100L90 100L90 90L100 90L100 80L90 80M40 90L40 100L60 100L60 90L40 90z"/>
</svg>
