<?xml version="1.0" standalone="yes"?>
<svg xmlns="http://www.w3.org/2000/svg" width="110" height="110">
<path style="fill:#000000; stroke:none;" d="M0 0L0 60L20 60L20 70L0 70L0 110L40 110L40 100L50 100L50 110L60 110L60 100L50 100L50 90L70 90L70 110L110 110L110 0L70 0L70 20L60 20L60 10L50 10L50 0L0 0z"/>
<path style="fill:#ffffff; stroke:none;" d="M50 0L50 10L60 10L60 20L70 20L70 0L50 0M30 10L30 20L40 20L40 10L30 10M10 20L10 50L20 50L20 20L10 20M30 30L30 80L80 80L80 30L30 30M90 30L90 40L100 40L100 30L90 30z"/>
<path style="fill:#000000; stroke:none;" d="M60 40L60 50L50 50L50 60L40 60L40 70L60 70L60 50L70 50L70 40L60 40z"/>
<path style="fill:#ffffff; stroke:none;" d="M90 50L90 60L100 60L100 50L90 50M0 60L0 70L20 70L20 60L0 60M90 70L90 80L100 80L100 70L90 70M10 80L10 90L20 90L20 100L30 100L30 90L20 90L20 80L10 80M50 90L50 100L60 100L60 110L70 110L70 90L50 90M40 100L40 110L50 110L50 100L40 100z"/>
</svg>
