<?xml version="1.0" standalone="yes"?>
<svg xmlns="http://www.w3.org/2000/svg" width="110" height="110">
<path style="fill:#000000; stroke:none;" d="M0 0L0 50L10 50L10 40L20 40L20 60L0 60L0 110L50 110L50 100L40 100L40 90L60 90L60 110L110 110L110 0L0 0z"/>
<path style="fill:#ffffff; stroke:none;" d="M30 10L30 20L50 20L50 10L30 10M30 30L30 80L80 80L80 30L30 30M90 30L90 50L100 50L100 30L90 30M10 40L10 50L0 50L0 60L20 60L20 40L10 40z"/>
<path style="fill:#000000; stroke:none;" d="M40 40L40 50L50 50L50 40L40 40M60 40L60 50L70 50L70 40L60 40M50 60L50 70L60 70L60 60L50 60z"/>
<path style="fill:#ffffff; stroke:none;" d="M90 70L90 80L100 80L100 70L90 70M40 90L40 100L50 100L50 110L60 110L60 90L40 90M70 90L70 100L90 100L90 90L70 90z"/>
</svg>
