<?xml version="1.0" standalone="yes"?>
<svg xmlns="http://www.w3.org/2000/svg" width="110" height="110">
<path style="fill:#000000; stroke:none;" d="M0 0L0 110L40 110L40 100L20 100L20 90L90 90L90 100L70 100L70 110L110 110L110 70L100 70L100 90L90 90L90 60L110 60L110 0L60 0L60 20L50 20L50 10L40 10L40 0L0 0z"/>
<path style="fill:#ffffff; stroke:none;" d="M40 0L40 10L50 10L50 20L60 20L60 0L40 0M70 10L70 20L90 20L90 30L100 30L100 20L90 20L90 10L70 10M10 20L10 60L20 60L20 20L10 20M30 30L30 80L80 80L80 30L30 30z"/>
<path style="fill:#000000; stroke:none;" d="M60 40L60 60L40 60L40 70L60 70L60 60L70 60L70 40L60 40z"/>
<path style="fill:#ffffff; stroke:none;" d="M90 60L90 90L100 90L100 70L110 70L110 60L90 60M10 70L10 80L20 80L20 70L10 70M20 90L20 100L40 100L40 110L50 110L50 100L60 100L60 110L70 110L70 100L90 100L90 90L20 90z"/>
<path style="fill:#000000; stroke:none;" d="M50 100L50 110L60 110L60 100L50 100z"/>
</svg>
