<?xml version="1.0" standalone="yes"?>
<svg xmlns="http://www.w3.org/2000/svg" width="110" height="110">
<path style="fill:#000000; stroke:none;" d="M0 0L0 40L10 40L10 60L20 60L20 80L10 80L10 70L0 70L0 110L40 110L40 90L90 90L90 100L50 100L50 110L110 110L110 70L90 70L90 60L100 60L100 50L110 50L110 0L70 0L70 10L60 10L60 20L20 20L20 10L50 10L50 0L0 0z"/>
<path style="fill:#ffffff; stroke:none;" d="M50 0L50 10L20 10L20 20L60 20L60 10L70 10L70 0L50 0M90 20L90 30L100 30L100 20L90 20M30 30L30 80L80 80L80 30L30 30M0 40L0 70L10 70L10 80L20 80L20 60L10 60L10 40L0 40z"/>
<path style="fill:#000000; stroke:none;" d="M40 40L40 50L50 50L50 70L70 70L70 60L60 60L60 50L70 50L70 40L40 40z"/>
<path style="fill:#ffffff; stroke:none;" d="M90 40L90 50L100 50L100 40L90 40M100 50L100 60L90 60L90 70L110 70L110 50L100 50M40 90L40 110L50 110L50 100L90 100L90 90L40 90z"/>
</svg>
