<?xml version="1.0" standalone="yes"?>
<svg xmlns="http://www.w3.org/2000/svg" width="110" height="110">
<path style="fill:#000000; stroke:none;" d="M0 0L0 50L20 50L20 70L10 70L10 60L0 60L0 110L50 110L50 90L60 90L60 110L110 110L110 70L90 70L90 60L100 60L100 40L110 40L110 0L70 0L70 10L60 10L60 0L50 0L50 10L60 10L60 20L40 20L40 0L0 0z"/>
<path style="fill:#ffffff; stroke:none;" d="M40 0L40 20L60 20L60 10L50 10L50 0L40 0M60 0L60 10L70 10L70 0L60 0M30 30L30 80L80 80L80 30L30 30z"/>
<path style="fill:#000000; stroke:none;" d="M50 40L50 50L40 50L40 60L50 60L50 50L60 50L60 60L70 60L70 50L60 50L60 40L50 40z"/>
<path style="fill:#ffffff; stroke:none;" d="M100 40L100 60L90 60L90 70L110 70L110 40L100 40M0 50L0 60L10 60L10 70L20 70L20 50L0 50M10 80L10 90L20 90L20 80L10 80M50 90L50 110L60 110L60 90L50 90M80 90L80 100L90 100L90 90L80 90z"/>
</svg>
