<?xml version="1.0" standalone="yes"?>
<svg xmlns="http://www.w3.org/2000/svg" width="110" height="110">
<path style="fill:#000000; stroke:none;" d="M0 0L0 50L20 50L20 80L10 80L10 60L0 60L0 110L40 110L40 100L50 100L50 90L70 90L70 110L110 110L110 0L50 0L50 20L40 20L40 0L0 0z"/>
<path style="fill:#ffffff; stroke:none;" d="M40 0L40 20L50 20L50 0L40 0M60 10L60 20L70 20L70 10L60 10M10 30L10 40L20 40L20 30L10 30M30 30L30 80L80 80L80 30L30 30z"/>
<path style="fill:#000000; stroke:none;" d="M40 40L40 70L60 70L60 60L50 60L50 50L70 50L70 40L40 40z"/>
<path style="fill:#ffffff; stroke:none;" d="M90 40L90 70L100 70L100 40L90 40M0 50L0 60L10 60L10 80L20 80L20 50L0 50M90 80L90 90L100 90L100 80L90 80M20 90L20 100L30 100L30 90L20 90M50 90L50 100L40 100L40 110L70 110L70 90L50 90z"/>
</svg>
