<?xml version="1.0" standalone="yes"?>
<svg xmlns="http://www.w3.org/2000/svg" width="110" height="110">
<path style="fill:#000000; stroke:none;" d="M0 0L0 110L40 110L40 90L50 90L50 100L60 100L60 90L70 90L70 110L110 110L110 70L90 70L90 50L100 50L100 40L110 40L110 0L50 0L50 10L90 10L90 20L30 20L30 10L40 10L40 0L0 0z"/>
<path style="fill:#ffffff; stroke:none;" d="M40 0L40 10L30 10L30 20L90 20L90 10L50 10L50 0L40 0M30 30L30 80L80 80L80 30L30 30M10 40L10 50L20 50L20 40L10 40z"/>
<path style="fill:#000000; stroke:none;" d="M40 40L40 50L50 50L50 70L70 70L70 60L60 60L60 40L40 40z"/>
<path style="fill:#ffffff; stroke:none;" d="M100 40L100 50L90 50L90 70L110 70L110 40L100 40M20 90L20 100L30 100L30 90L20 90M40 90L40 110L70 110L70 90L60 90L60 100L50 100L50 90L40 90z"/>
</svg>
