<?xml version="1.0" standalone="yes"?>
<svg xmlns="http://www.w3.org/2000/svg" width="110" height="110">
<path style="fill:#000000; stroke:none;" d="M0 0L0 50L10 50L10 60L0 60L0 110L40 110L40 100L50 100L50 90L80 90L80 100L70 100L70 110L110 110L110 50L90 50L90 40L110 40L110 0L50 0L50 10L80 10L80 20L30 20L30 10L40 10L40 0L0 0z"/>
<path style="fill:#ffffff; stroke:none;" d="M40 0L40 10L30 10L30 20L80 20L80 10L50 10L50 0L40 0M90 20L90 30L100 30L100 20L90 20M10 30L10 40L20 40L20 30L10 30M30 30L30 80L80 80L80 30L30 30z"/>
<path style="fill:#000000; stroke:none;" d="M40 40L40 70L50 70L50 60L60 60L60 70L70 70L70 50L50 50L50 40L40 40z"/>
<path style="fill:#ffffff; stroke:none;" d="M90 40L90 50L110 50L110 40L90 40M0 50L0 60L10 60L10 50L0 50M10 70L10 80L20 80L20 70L10 70M90 70L90 90L100 90L100 70L90 70M50 90L50 100L40 100L40 110L70 110L70 100L80 100L80 90L50 90z"/>
</svg>
