<?xml version="1.0" standalone="yes"?>
<svg xmlns="http://www.w3.org/2000/svg" width="110" height="110">
<path style="fill:#000000; stroke:none;" d="M0 0L0 50L10 50L10 60L0 60L0 110L50 110L50 90L90 90L90 100L60 100L60 110L110 110L110 70L100 70L100 50L110 50L110 0L70 0L70 10L60 10L60 0L0 0z"/>
<path style="fill:#ffffff; stroke:none;" d="M60 0L60 10L70 10L70 0L60 0M30 10L30 20L50 20L50 10L30 10M30 30L30 80L80 80L80 30L30 30z"/>
<path style="fill:#000000; stroke:none;" d="M40 40L40 60L60 60L60 70L70 70L70 50L60 50L60 40L40 40z"/>
<path style="fill:#ffffff; stroke:none;" d="M0 50L0 60L10 60L10 50L0 50M100 50L100 70L110 70L110 50L100 50M10 60L10 90L20 90L20 100L30 100L30 90L20 90L20 60L10 60M90 70L90 80L100 80L100 70L90 70M50 90L50 110L60 110L60 100L90 100L90 90L50 90z"/>
</svg>
