<?xml version="1.0" standalone="yes"?>
<svg xmlns="http://www.w3.org/2000/svg" width="110" height="110">
<path style="fill:#000000; stroke:none;" d="M0 0L0 110L110 110L110 70L100 70L100 90L90 90L90 30L100 30L100 60L110 60L110 0L70 0L70 10L60 10L60 0L50 0L50 10L60 10L60 20L40 20L40 0L0 0z"/>
<path style="fill:#ffffff; stroke:none;" d="M40 0L40 20L60 20L60 10L50 10L50 0L40 0M60 0L60 10L70 10L70 0L60 0M70 10L70 20L80 20L80 10L70 10M10 20L10 70L20 70L20 20L10 20M30 30L30 80L80 80L80 30L30 30M90 30L90 90L100 90L100 70L110 70L110 60L100 60L100 30L90 30z"/>
<path style="fill:#000000; stroke:none;" d="M50 40L50 60L40 60L40 70L70 70L70 60L60 60L60 50L70 50L70 40L50 40z"/>
<path style="fill:#ffffff; stroke:none;" d="M20 90L20 100L30 100L30 90L20 90M60 90L60 100L70 100L70 90L60 90M80 90L80 100L90 100L90 90L80 90z"/>
</svg>
