<?xml version="1.0" standalone="yes"?>
<svg xmlns="http://www.w3.org/2000/svg" width="110" height="110">
<path style="fill:#000000; stroke:none;" d="M0 0L0 50L10 50L10 20L20 20L20 70L0 70L0 110L50 110L50 100L40 100L40 90L70 90L70 100L60 100L60 110L110 110L110 60L90 60L90 50L110 50L110 0L0 0z"/>
<path style="fill:#ffffff; stroke:none;" d="M20 10L20 20L30 20L30 10L20 10M40 10L40 20L60 20L60 10L40 10M80 10L80 20L90 20L90 10L80 10M10 20L10 50L0 50L0 70L20 70L20 20L10 20M30 30L30 80L80 80L80 30L30 30M90 30L90 40L100 40L100 30L90 30z"/>
<path style="fill:#000000; stroke:none;" d="M40 40L40 50L50 50L50 70L60 70L60 50L50 50L50 40L40 40z"/>
<path style="fill:#ffffff; stroke:none;" d="M90 50L90 60L110 60L110 50L90 50M90 70L90 80L100 80L100 70L90 70M40 90L40 100L50 100L50 110L60 110L60 100L70 100L70 90L40 90z"/>
</svg>
