<?xml version="1.0" standalone="yes"?>
<svg xmlns="http://www.w3.org/2000/svg" width="110" height="110">
<path style="fill:#000000; stroke:none;" d="M0 0L0 40L10 40L10 30L20 30L20 50L10 50L10 60L20 60L20 80L10 80L10 70L0 70L0 110L60 110L60 100L70 100L70 110L110 110L110 70L100 70L100 80L90 80L90 60L100 60L100 40L110 40L110 0L70 0L70 10L60 10L60 0L50 0L50 10L40 10L40 0L0 0z"/>
<path style="fill:#ffffff; stroke:none;" d="M40 0L40 10L50 10L50 0L40 0M60 0L60 10L70 10L70 0L60 0M30 10L30 20L40 20L40 10L30 10M80 10L80 20L90 20L90 40L100 40L100 20L90 20L90 10L80 10M10 30L10 40L0 40L0 70L10 70L10 80L20 80L20 60L10 60L10 50L20 50L20 30L10 30M30 30L30 80L80 80L80 30L30 30z"/>
<path style="fill:#000000; stroke:none;" d="M40 40L40 70L60 70L60 50L70 50L70 40L40 40z"/>
<path style="fill:#ffffff; stroke:none;" d="M100 40L100 60L90 60L90 80L100 80L100 70L110 70L110 40L100 40M20 90L20 100L30 100L30 90L20 90M40 90L40 100L50 100L50 90L40 90M60 100L60 110L70 110L70 100L60 100z"/>
</svg>
