<?xml version="1.0" standalone="yes"?>
<svg xmlns="http://www.w3.org/2000/svg" width="110" height="110">
<path style="fill:#000000; stroke:none;" d="M0 0L0 40L10 40L10 30L20 30L20 60L0 60L0 110L40 110L40 100L20 100L20 90L50 90L50 110L60 110L60 100L70 100L70 110L110 110L110 70L90 70L90 40L100 40L100 50L110 50L110 0L70 0L70 20L40 20L40 10L60 10L60 0L0 0z"/>
<path style="fill:#ffffff; stroke:none;" d="M60 0L60 10L40 10L40 20L70 20L70 0L60 0M20 10L20 20L30 20L30 10L20 10M80 10L80 20L90 20L90 30L100 30L100 20L90 20L90 10L80 10M10 30L10 40L0 40L0 60L20 60L20 30L10 30M30 30L30 80L80 80L80 30L30 30M90 40L90 70L110 70L110 50L100 50L100 40L90 40z"/>
<path style="fill:#000000; stroke:none;" d="M50 50L50 60L60 60L60 50L50 50z"/>
<path style="fill:#ffffff; stroke:none;" d="M10 70L10 80L20 80L20 70L10 70M20 90L20 100L40 100L40 110L50 110L50 90L20 90M70 90L70 100L90 100L90 90L70 90M60 100L60 110L70 110L70 100L60 100z"/>
</svg>
