<?xml version="1.0" standalone="yes"?>
<svg xmlns="http://www.w3.org/2000/svg" width="110" height="110">
<path style="fill:#000000; stroke:none;" d="M0 0L0 110L110 110L110 60L100 60L100 50L110 50L110 0L0 0z"/>
<path style="fill:#ffffff; stroke:none;" d="M70 10L70 20L80 20L80 10L70 10M90 20L90 30L100 30L100 20L90 20M30 30L30 80L80 80L80 30L30 30M10 40L10 50L20 50L20 40L10 40z"/>
<path style="fill:#000000; stroke:none;" d="M50 40L50 50L40 50L40 70L70 70L70 50L60 50L60 40L50 40z"/>
<path style="fill:#ffffff; stroke:none;" d="M90 40L90 50L100 50L100 40L90 40M50 50L50 60L60 60L60 50L50 50M100 50L100 60L110 60L110 50L100 50M10 70L10 90L20 90L20 70L10 70M40 90L40 100L50 100L50 90L40 90M60 90L60 100L80 100L80 90L60 90z"/>
</svg>
