<?xml version="1.0" standalone="yes"?>
<svg xmlns="http://www.w3.org/2000/svg" width="110" height="110">
<path style="fill:#000000; stroke:none;" d="M0 0L0 40L20 40L20 50L0 50L0 110L60 110L60 90L90 90L90 100L70 100L70 110L110 110L110 70L90 70L90 60L110 60L110 0L70 0L70 20L50 20L50 10L60 10L60 0L0 0z"/>
<path style="fill:#ffffff; stroke:none;" d="M60 0L60 10L50 10L50 20L70 20L70 0L60 0M20 10L20 20L10 20L10 30L20 30L20 20L30 20L30 10L20 10M80 10L80 20L90 20L90 10L80 10M30 30L30 80L80 80L80 30L30 30M0 40L0 50L20 50L20 40L0 40z"/>
<path style="fill:#000000; stroke:none;" d="M40 50L40 70L50 70L50 50L40 50M60 50L60 70L70 70L70 50L60 50z"/>
<path style="fill:#ffffff; stroke:none;" d="M10 60L10 90L20 90L20 60L10 60M90 60L90 70L110 70L110 60L90 60M90 80L90 90L100 90L100 80L90 80M60 90L60 110L70 110L70 100L90 100L90 90L60 90z"/>
</svg>
