<?xml version="1.0" standalone="yes"?>
<svg xmlns="http://www.w3.org/2000/svg" width="110" height="110">
<path style="fill:#000000; stroke:none;" d="M0 0L0 110L50 110L50 100L40 100L40 90L90 90L90 100L60 100L60 110L110 110L110 0L70 0L70 10L80 10L80 20L20 20L20 10L40 10L40 0L0 0z"/>
<path style="fill:#ffffff; stroke:none;" d="M40 0L40 10L20 10L20 20L80 20L80 10L70 10L70 0L40 0M10 20L10 30L20 30L20 20L10 20M30 30L30 80L80 80L80 30L30 30M90 30L90 50L100 50L100 30L90 30M10 40L10 50L20 50L20 40L10 40z"/>
<path style="fill:#000000; stroke:none;" d="M40 50L40 60L50 60L50 70L60 70L60 60L70 60L70 50L60 50L60 60L50 60L50 50L40 50z"/>
<path style="fill:#ffffff; stroke:none;" d="M90 60L90 70L100 70L100 60L90 60M10 80L10 90L20 90L20 80L10 80M40 90L40 100L50 100L50 110L60 110L60 100L90 100L90 90L40 90z"/>
</svg>
