<?xml version="1.0" standalone="yes"?>
<svg xmlns="http://www.w3.org/2000/svg" width="110" height="110">
<path style="fill:#000000; stroke:none;" d="M0 0L0 40L10 40L10 50L0 50L0 110L110 110L110 70L100 70L100 60L90 60L90 20L100 20L100 40L110 40L110 0L70 0L70 10L90 10L90 20L50 20L50 10L60 10L60 0L0 0z"/>
<path style="fill:#ffffff; stroke:none;" d="M60 0L60 10L50 10L50 20L90 20L90 10L70 10L70 0L60 0M20 10L20 20L30 20L30 10L20 10M90 20L90 60L100 60L100 70L110 70L110 40L100 40L100 20L90 20M30 30L30 80L80 80L80 30L30 30M0 40L0 50L10 50L10 40L0 40z"/>
<path style="fill:#000000; stroke:none;" d="M40 40L40 50L50 50L50 70L70 70L70 60L60 60L60 50L50 50L50 40L40 40z"/>
<path style="fill:#ffffff; stroke:none;" d="M10 50L10 80L20 80L20 50L10 50M50 90L50 100L60 100L60 90L50 90z"/>
</svg>
