<?xml version="1.0" standalone="yes"?>
<svg xmlns="http://www.w3.org/2000/svg" width="110" height="110">
<path style="fill:#000000; stroke:none;" d="M0 0L0 40L10 40L10 60L0 60L0 110L40 110L40 100L20 100L20 90L60 90L60 100L50 100L50 110L60 110L60 100L70 100L70 110L110 110L110 70L100 70L100 80L90 80L90 50L100 50L100 60L110 60L110 0L70 0L70 10L60 10L60 0L50 0L50 10L40 10L40 0L0 0z"/>
<path style="fill:#ffffff; stroke:none;" d="M40 0L40 10L50 10L50 0L40 0M60 0L60 10L70 10L70 0L60 0M20 10L20 20L30 20L30 10L20 10M50 10L50 20L60 20L60 10L50 10M80 10L80 20L90 20L90 40L100 40L100 20L90 20L90 10L80 10M10 30L10 40L20 40L20 30L10 30M30 30L30 80L80 80L80 30L30 30M0 40L0 60L10 60L10 40L0 40z"/>
<path style="fill:#000000; stroke:none;" d="M60 40L60 70L70 70L70 40L60 40M40 50L40 70L50 70L50 50L40 50z"/>
<path style="fill:#ffffff; stroke:none;" d="M90 50L90 80L100 80L100 70L110 70L110 60L100 60L100 50L90 50M10 80L10 90L20 90L20 80L10 80M20 90L20 100L40 100L40 110L50 110L50 100L60 100L60 90L20 90M70 90L70 100L90 100L90 90L70 90M60 100L60 110L70 110L70 100L60 100z"/>
</svg>
