<?xml version="1.0" standalone="yes"?>
<svg xmlns="http://www.w3.org/2000/svg" width="110" height="110">
<path style="fill:#000000; stroke:none;" d="M0 0L0 40L10 40L10 50L20 50L20 70L0 70L0 110L50 110L50 100L70 100L70 110L110 110L110 70L100 70L100 60L110 60L110 0L70 0L70 20L60 20L60 0L50 0L50 20L30 20L30 10L40 10L40 0L0 0z"/>
<path style="fill:#ffffff; stroke:none;" d="M40 0L40 10L30 10L30 20L50 20L50 0L40 0M60 0L60 20L70 20L70 0L60 0M30 30L30 80L80 80L80 30L30 30M0 40L0 70L20 70L20 50L10 50L10 40L0 40z"/>
<path style="fill:#000000; stroke:none;" d="M40 50L40 70L70 70L70 50L60 50L60 60L50 60L50 50L40 50z"/>
<path style="fill:#ffffff; stroke:none;" d="M90 50L90 60L100 60L100 50L90 50M100 60L100 70L110 70L110 60L100 60M10 80L10 90L20 90L20 80L10 80M40 90L40 100L50 100L50 90L40 90M70 90L70 100L80 100L80 90L70 90M50 100L50 110L70 110L70 100L50 100z"/>
</svg>
