<?xml version="1.0" standalone="yes"?>
<svg xmlns="http://www.w3.org/2000/svg" width="110" height="110">
<path style="fill:#000000; stroke:none;" d="M0 0L0 40L20 40L20 50L10 50L10 60L0 60L0 110L50 110L50 100L40 100L40 90L60 90L60 100L70 100L70 110L110 110L110 70L100 70L100 90L90 90L90 60L100 60L100 50L110 50L110 0L70 0L70 20L40 20L40 10L50 10L50 0L0 0z"/>
<path style="fill:#ffffff; stroke:none;" d="M50 0L50 10L40 10L40 20L70 20L70 0L50 0M10 20L10 30L20 30L20 20L10 20M90 20L90 30L100 30L100 20L90 20M30 30L30 80L80 80L80 30L30 30M0 40L0 60L10 60L10 50L20 50L20 40L0 40z"/>
<path style="fill:#000000; stroke:none;" d="M50 40L50 60L40 60L40 70L70 70L70 60L60 60L60 40L50 40z"/>
<path style="fill:#ffffff; stroke:none;" d="M100 50L100 60L90 60L90 90L100 90L100 70L110 70L110 50L100 50M10 60L10 80L20 80L20 60L10 60M40 90L40 100L50 100L50 110L70 110L70 100L60 100L60 90L40 90M70 90L70 100L90 100L90 90L70 90z"/>
</svg>
