<?xml version="1.0" standalone="yes"?>
<svg xmlns="http://www.w3.org/2000/svg" width="110" height="110">
<path style="fill:#000000; stroke:none;" d="M0 0L0 50L10 50L10 60L20 60L20 70L0 70L0 110L60 110L60 100L70 100L70 110L110 110L110 70L100 70L100 60L90 60L90 50L110 50L110 0L0 0z"/>
<path style="fill:#ffffff; stroke:none;" d="M50 10L50 20L80 20L80 10L50 10M90 20L90 30L100 30L100 20L90 20M10 30L10 40L20 40L20 30L10 30M30 30L30 80L80 80L80 30L30 30z"/>
<path style="fill:#000000; stroke:none;" d="M40 40L40 60L50 60L50 40L40 40M60 40L60 70L70 70L70 40L60 40z"/>
<path style="fill:#ffffff; stroke:none;" d="M0 50L0 70L20 70L20 60L10 60L10 50L0 50M90 50L90 60L100 60L100 70L110 70L110 50L90 50M90 70L90 90L100 90L100 70L90 70M10 80L10 90L20 90L20 100L40 100L40 90L20 90L20 80L10 80M60 100L60 110L70 110L70 100L60 100z"/>
</svg>
