<?xml version="1.0" standalone="yes"?>
<svg xmlns="http://www.w3.org/2000/svg" width="110" height="110">
<path style="fill:#000000; stroke:none;" d="M0 0L0 60L10 60L10 70L0 70L0 110L50 110L50 90L70 90L70 110L110 110L110 70L90 70L90 60L100 60L100 40L110 40L110 0L50 0L50 10L40 10L40 0L0 0z"/>
<path style="fill:#ffffff; stroke:none;" d="M40 0L40 10L50 10L50 0L40 0M30 10L30 20L40 20L40 10L30 10M60 10L60 20L70 20L70 10L60 10M10 20L10 60L20 60L20 20L10 20M30 30L30 80L80 80L80 30L30 30z"/>
<path style="fill:#000000; stroke:none;" d="M40 40L40 50L70 50L70 40L40 40z"/>
<path style="fill:#ffffff; stroke:none;" d="M100 40L100 60L90 60L90 70L110 70L110 40L100 40M0 60L0 70L10 70L10 60L0 60M20 90L20 100L40 100L40 90L20 90M50 90L50 110L70 110L70 90L50 90M80 90L80 100L90 100L90 90L80 90z"/>
</svg>
