<?xml version="1.0" standalone="yes"?>
<svg xmlns="http://www.w3.org/2000/svg" width="110" height="110">
<path style="fill:#000000; stroke:none;" d="M0 0L0 40L20 40L20 50L0 50L0 110L50 110L50 100L30 100L30 90L60 90L60 110L110 110L110 70L100 70L100 60L90 60L90 40L110 40L110 0L0 0z"/>
<path style="fill:#ffffff; stroke:none;" d="M20 10L20 20L10 20L10 30L20 30L20 20L30 20L30 10L20 10M40 10L40 20L60 20L60 10L40 10M70 10L70 20L90 20L90 10L70 10M30 30L30 80L80 80L80 30L30 30M0 40L0 50L20 50L20 40L0 40z"/>
<path style="fill:#000000; stroke:none;" d="M50 40L50 50L40 50L40 60L50 60L50 70L70 70L70 50L60 50L60 40L50 40z"/>
<path style="fill:#ffffff; stroke:none;" d="M90 40L90 60L100 60L100 70L110 70L110 40L90 40M10 60L10 80L20 80L20 60L10 60M30 90L30 100L50 100L50 110L60 110L60 90L30 90M80 90L80 100L90 100L90 90L80 90z"/>
</svg>
