<?xml version="1.0" standalone="yes"?>
<svg xmlns="http://www.w3.org/2000/svg" width="110" height="110">
<path style="fill:#000000; stroke:none;" d="M0 0L0 40L10 40L10 50L0 50L0 110L50 110L50 100L30 100L30 90L90 90L90 100L60 100L60 110L110 110L110 0L50 0L50 10L40 10L40 0L0 0z"/>
<path style="fill:#ffffff; stroke:none;" d="M40 0L40 10L50 10L50 0L40 0M20 10L20 20L10 20L10 40L20 40L20 20L40 20L40 10L20 10M80 10L80 20L90 20L90 10L80 10M30 30L30 80L80 80L80 30L30 30M0 40L0 50L10 50L10 40L0 40z"/>
<path style="fill:#000000; stroke:none;" d="M40 40L40 50L50 50L50 40L40 40z"/>
<path style="fill:#ffffff; stroke:none;" d="M90 40L90 70L100 70L100 40L90 40M10 50L10 70L20 70L20 50L10 50z"/>
<path style="fill:#000000; stroke:none;" d="M50 60L50 70L70 70L70 60L50 60z"/>
<path style="fill:#ffffff; stroke:none;" d="M30 90L30 100L50 100L50 110L60 110L60 100L90 100L90 90L30 90z"/>
</svg>
