<?xml version="1.0" standalone="yes"?>
<svg xmlns="http://www.w3.org/2000/svg" width="110" height="110">
<path style="fill:#000000; stroke:none;" d="M0 0L0 40L10 40L10 20L20 20L20 70L0 70L0 110L40 110L40 100L20 100L20 90L50 90L50 110L60 110L60 90L90 90L90 100L70 100L70 110L110 110L110 60L100 60L100 50L110 50L110 0L50 0L50 10L40 10L40 0L0 0z"/>
<path style="fill:#ffffff; stroke:none;" d="M40 0L40 10L50 10L50 0L40 0M20 10L20 20L40 20L40 10L20 10M50 10L50 20L60 20L60 10L50 10M80 10L80 20L90 20L90 10L80 10M10 20L10 40L0 40L0 70L20 70L20 20L10 20M30 30L30 80L80 80L80 30L30 30M90 30L90 40L100 40L100 30L90 30z"/>
<path style="fill:#000000; stroke:none;" d="M50 40L50 50L40 50L40 70L60 70L60 60L70 60L70 40L50 40z"/>
<path style="fill:#ffffff; stroke:none;" d="M50 50L50 60L60 60L60 50L50 50M100 50L100 60L110 60L110 50L100 50M90 60L90 90L100 90L100 60L90 60M10 80L10 90L20 90L20 80L10 80M20 90L20 100L40 100L40 110L50 110L50 90L20 90M60 90L60 110L70 110L70 100L90 100L90 90L60 90z"/>
</svg>
