<?xml version="1.0" standalone="yes"?>
<svg xmlns="http://www.w3.org/2000/svg" width="110" height="110">
<path style="fill:#000000; stroke:none;" d="M0 0L0 60L10 60L10 40L20 40L20 80L10 80L10 70L0 70L0 110L110 110L110 70L90 70L90 40L100 40L100 60L110 60L110 0L70 0L70 10L60 10L60 20L50 20L50 0L0 0z"/>
<path style="fill:#ffffff; stroke:none;" d="M50 0L50 20L60 20L60 10L70 10L70 0L50 0M30 10L30 20L40 20L40 10L30 10M10 20L10 30L20 30L20 20L10 20M30 30L30 80L80 80L80 30L30 30M10 40L10 60L0 60L0 70L10 70L10 80L20 80L20 40L10 40M90 40L90 70L110 70L110 60L100 60L100 40L90 40z"/>
<path style="fill:#000000; stroke:none;" d="M40 60L40 70L70 70L70 60L40 60z"/>
<path style="fill:#ffffff; stroke:none;" d="M20 90L20 100L70 100L70 90L20 90z"/>
</svg>
