<?xml version="1.0" standalone="yes"?>
<svg xmlns="http://www.w3.org/2000/svg" width="110" height="110">
<path style="fill:#000000; stroke:none;" d="M0 0L0 60L10 60L10 70L0 70L0 110L50 110L50 100L40 100L40 90L60 90L60 110L110 110L110 60L100 60L100 50L110 50L110 0L70 0L70 10L90 10L90 20L60 20L60 0L0 0z"/>
<path style="fill:#ffffff; stroke:none;" d="M60 0L60 20L90 20L90 10L70 10L70 0L60 0M30 10L30 20L40 20L40 10L30 10M10 20L10 50L20 50L20 20L10 20M90 20L90 40L100 40L100 20L90 20M30 30L30 80L80 80L80 30L30 30z"/>
<path style="fill:#000000; stroke:none;" d="M60 40L60 50L70 50L70 40L60 40M40 50L40 70L70 70L70 60L50 60L50 50L40 50z"/>
<path style="fill:#ffffff; stroke:none;" d="M100 50L100 60L110 60L110 50L100 50M0 60L0 70L10 70L10 60L0 60M10 70L10 90L20 90L20 70L10 70M40 90L40 100L50 100L50 110L60 110L60 90L40 90z"/>
</svg>
