<?xml version="1.0" standalone="yes"?>
<svg xmlns="http://www.w3.org/2000/svg" width="110" height="110">
<path style="fill:#000000; stroke:none;" d="M0 0L0 40L10 40L10 70L0 70L0 110L50 110L50 100L60 100L60 110L110 110L110 50L90 50L90 40L110 40L110 0L60 0L60 20L50 20L50 10L40 10L40 0L0 0z"/>
<path style="fill:#ffffff; stroke:none;" d="M40 0L40 10L50 10L50 20L60 20L60 0L40 0M20 10L20 20L10 20L10 30L20 30L20 20L30 20L30 10L20 10M70 10L70 20L90 20L90 30L100 30L100 20L90 20L90 10L70 10M30 30L30 80L80 80L80 30L30 30M0 40L0 70L10 70L10 40L0 40z"/>
<path style="fill:#000000; stroke:none;" d="M40 40L40 50L60 50L60 40L40 40z"/>
<path style="fill:#ffffff; stroke:none;" d="M90 40L90 50L110 50L110 40L90 40z"/>
<path style="fill:#000000; stroke:none;" d="M50 60L50 70L60 70L60 60L50 60z"/>
<path style="fill:#ffffff; stroke:none;" d="M10 70L10 80L20 80L20 70L10 70M90 80L90 90L100 90L100 80L90 80M30 90L30 100L40 100L40 90L30 90M50 100L50 110L60 110L60 100L50 100z"/>
</svg>
