<?xml version="1.0" standalone="yes"?>
<svg xmlns="http://www.w3.org/2000/svg" width="110" height="110">
<path style="fill:#000000; stroke:none;" d="M0 0L0 110L110 110L110 50L100 50L100 80L90 80L90 30L100 30L100 40L110 40L110 0L70 0L70 10L90 10L90 20L60 20L60 10L50 10L50 0L0 0z"/>
<path style="fill:#ffffff; stroke:none;" d="M50 0L50 10L60 10L60 20L90 20L90 10L70 10L70 0L50 0M10 20L10 30L20 30L20 20L10 20M30 30L30 80L80 80L80 30L30 30M90 30L90 80L100 80L100 50L110 50L110 40L100 40L100 30L90 30M10 40L10 50L20 50L20 40L10 40z"/>
<path style="fill:#000000; stroke:none;" d="M60 40L60 70L70 70L70 40L60 40z"/>
<path style="fill:#ffffff; stroke:none;" d="M10 70L10 80L20 80L20 70L10 70M20 90L20 100L60 100L60 90L20 90M70 90L70 100L80 100L80 90L70 90z"/>
</svg>
