<?xml version="1.0" standalone="yes"?>
<svg xmlns="http://www.w3.org/2000/svg" width="110" height="110">
<path style="fill:#000000; stroke:none;" d="M0 0L0 110L40 110L40 100L50 100L50 110L110 110L110 50L100 50L100 60L90 60L90 40L110 40L110 0L70 0L70 10L60 10L60 0L0 0z"/>
<path style="fill:#ffffff; stroke:none;" d="M60 0L60 10L70 10L70 0L60 0M30 10L30 20L40 20L40 10L30 10M80 10L80 20L90 20L90 10L80 10M30 30L30 80L80 80L80 30L30 30M10 40L10 50L20 50L20 40L10 40M90 40L90 60L100 60L100 50L110 50L110 40L90 40M10 60L10 90L20 90L20 100L40 100L40 90L20 90L20 60L10 60z"/>
<path style="fill:#000000; stroke:none;" d="M50 60L50 70L60 70L60 60L50 60z"/>
<path style="fill:#ffffff; stroke:none;" d="M90 70L90 90L50 90L50 100L90 100L90 90L100 90L100 70L90 70M40 100L40 110L50 110L50 100L40 100z"/>
</svg>
