<?xml version="1.0" standalone="yes"?>
<svg xmlns="http://www.w3.org/2000/svg" width="110" height="110">
<path style="fill:#000000; stroke:none;" d="M0 0L0 40L10 40L10 20L20 20L20 80L10 80L10 70L0 70L0 110L40 110L40 90L50 90L50 110L60 110L60 100L70 100L70 110L110 110L110 70L100 70L100 60L90 60L90 50L100 50L100 40L110 40L110 0L50 0L50 10L40 10L40 0L0 0z"/>
<path style="fill:#ffffff; stroke:none;" d="M40 0L40 10L50 10L50 0L40 0M20 10L20 20L40 20L40 10L20 10M50 10L50 20L70 20L70 10L50 10M80 10L80 20L90 20L90 30L100 30L100 20L90 20L90 10L80 10M10 20L10 40L0 40L0 70L10 70L10 80L20 80L20 20L10 20M30 30L30 80L80 80L80 30L30 30M100 40L100 50L90 50L90 60L100 60L100 70L110 70L110 40L100 40z"/>
<path style="fill:#000000; stroke:none;" d="M40 60L40 70L70 70L70 60L40 60z"/>
<path style="fill:#ffffff; stroke:none;" d="M20 90L20 100L30 100L30 90L20 90M40 90L40 110L50 110L50 90L40 90M70 90L70 100L80 100L80 90L70 90M60 100L60 110L70 110L70 100L60 100z"/>
</svg>
