<?xml version="1.0" standalone="yes"?>
<svg xmlns="http://www.w3.org/2000/svg" width="110" height="110">
<path style="fill:#000000; stroke:none;" d="M0 0L0 110L40 110L40 100L20 100L20 90L50 90L50 100L70 100L70 110L110 110L110 70L90 70L90 20L100 20L100 60L110 60L110 0L70 0L70 10L60 10L60 20L50 20L50 10L40 10L40 0L0 0z"/>
<path style="fill:#ffffff; stroke:none;" d="M40 0L40 10L50 10L50 20L60 20L60 10L70 10L70 0L40 0M80 10L80 20L90 20L90 10L80 10M90 20L90 70L110 70L110 60L100 60L100 20L90 20M30 30L30 80L80 80L80 30L30 30M10 40L10 90L20 90L20 40L10 40z"/>
<path style="fill:#000000; stroke:none;" d="M40 40L40 60L50 60L50 70L60 70L60 60L70 60L70 50L60 50L60 40L40 40z"/>
<path style="fill:#ffffff; stroke:none;" d="M90 80L90 90L100 90L100 80L90 80M20 90L20 100L40 100L40 110L70 110L70 100L50 100L50 90L20 90M70 90L70 100L80 100L80 90L70 90z"/>
</svg>
