<?xml version="1.0" standalone="yes"?>
<svg xmlns="http://www.w3.org/2000/svg" width="110" height="110">
<path style="fill:#000000; stroke:none;" d="M0 0L0 50L10 50L10 70L0 70L0 110L50 110L50 100L60 100L60 110L110 110L110 60L100 60L100 80L90 80L90 50L100 50L100 40L110 40L110 0L70 0L70 10L80 10L80 20L60 20L60 0L50 0L50 20L30 20L30 10L40 10L40 0L0 0z"/>
<path style="fill:#ffffff; stroke:none;" d="M40 0L40 10L30 10L30 20L50 20L50 0L40 0M60 0L60 20L80 20L80 10L70 10L70 0L60 0M10 20L10 40L20 40L20 20L10 20M90 20L90 40L100 40L100 20L90 20M30 30L30 80L80 80L80 30L30 30z"/>
<path style="fill:#000000; stroke:none;" d="M40 40L40 50L50 50L50 40L40 40z"/>
<path style="fill:#ffffff; stroke:none;" d="M100 40L100 50L90 50L90 80L100 80L100 60L110 60L110 40L100 40M0 50L0 70L10 70L10 50L0 50z"/>
<path style="fill:#000000; stroke:none;" d="M60 50L60 60L50 60L50 70L70 70L70 50L60 50z"/>
<path style="fill:#ffffff; stroke:none;" d="M20 90L20 100L40 100L40 90L20 90M70 90L70 100L90 100L90 90L70 90M50 100L50 110L60 110L60 100L50 100z"/>
</svg>
