<?xml version="1.0" standalone="yes"?>
<svg xmlns="http://www.w3.org/2000/svg" width="110" height="110">
<path style="fill:#000000; stroke:none;" d="M0 0L0 40L10 40L10 70L0 70L0 110L40 110L40 100L50 100L50 110L110 110L110 70L100 70L100 60L90 60L90 50L100 50L100 40L110 40L110 0L60 0L60 20L40 20L40 10L50 10L50 0L0 0z"/>
<path style="fill:#ffffff; stroke:none;" d="M50 0L50 10L40 10L40 20L60 20L60 0L50 0M20 10L20 20L10 20L10 40L20 40L20 20L30 20L30 10L20 10M70 10L70 20L80 20L80 10L70 10M90 20L90 40L100 40L100 20L90 20M30 30L30 80L80 80L80 30L30 30M0 40L0 70L10 70L10 40L0 40z"/>
<path style="fill:#000000; stroke:none;" d="M40 40L40 50L50 50L50 60L60 60L60 40L40 40z"/>
<path style="fill:#ffffff; stroke:none;" d="M100 40L100 50L90 50L90 60L100 60L100 70L110 70L110 40L100 40M10 70L10 90L20 90L20 70L10 70M90 80L90 90L50 90L50 100L90 100L90 90L100 90L100 80L90 80M30 90L30 100L40 100L40 90L30 90M40 100L40 110L50 110L50 100L40 100z"/>
</svg>
