<?xml version="1.0" standalone="yes"?>
<svg xmlns="http://www.w3.org/2000/svg" width="110" height="110">
<path style="fill:#000000; stroke:none;" d="M0 0L0 40L10 40L10 20L20 20L20 50L0 50L0 110L40 110L40 100L20 100L20 90L90 90L90 100L70 100L70 110L110 110L110 70L90 70L90 50L110 50L110 0L0 0z"/>
<path style="fill:#ffffff; stroke:none;" d="M20 10L20 20L40 20L40 10L20 10M60 10L60 20L70 20L70 10L60 10M10 20L10 40L0 40L0 50L20 50L20 20L10 20M90 20L90 40L100 40L100 20L90 20M30 30L30 80L80 80L80 30L30 30z"/>
<path style="fill:#000000; stroke:none;" d="M50 40L50 50L40 50L40 60L50 60L50 70L70 70L70 50L60 50L60 40L50 40z"/>
<path style="fill:#ffffff; stroke:none;" d="M50 50L50 60L60 60L60 50L50 50M90 50L90 70L110 70L110 50L90 50M90 80L90 90L100 90L100 80L90 80M20 90L20 100L40 100L40 110L50 110L50 100L60 100L60 110L70 110L70 100L90 100L90 90L20 90z"/>
<path style="fill:#000000; stroke:none;" d="M50 100L50 110L60 110L60 100L50 100z"/>
</svg>
