<?xml version="1.0" standalone="yes"?>
<svg xmlns="http://www.w3.org/2000/svg" width="110" height="110">
<path style="fill:#000000; stroke:none;" d="M0 0L0 110L40 110L40 100L50 100L50 110L60 110L60 100L50 100L50 90L70 90L70 110L110 110L110 60L100 60L100 40L110 40L110 0L70 0L70 10L90 10L90 20L20 20L20 10L40 10L40 0L0 0z"/>
<path style="fill:#ffffff; stroke:none;" d="M40 0L40 10L20 10L20 20L90 20L90 10L70 10L70 0L40 0M10 20L10 40L20 40L20 20L10 20M30 30L30 80L80 80L80 30L30 30z"/>
<path style="fill:#000000; stroke:none;" d="M50 40L50 50L40 50L40 60L50 60L50 70L70 70L70 50L60 50L60 40L50 40z"/>
<path style="fill:#ffffff; stroke:none;" d="M100 40L100 60L110 60L110 40L100 40M10 50L10 60L20 60L20 50L10 50M90 60L90 90L100 90L100 60L90 60M50 90L50 100L60 100L60 110L70 110L70 90L50 90M40 100L40 110L50 110L50 100L40 100z"/>
</svg>
