<?xml version="1.0" standalone="yes"?>
<svg xmlns="http://www.w3.org/2000/svg" width="110" height="110">
<path style="fill:#000000; stroke:none;" d="M0 0L0 40L10 40L10 30L20 30L20 90L10 90L10 60L0 60L0 110L50 110L50 90L80 90L80 100L60 100L60 110L110 110L110 70L100 70L100 90L90 90L90 30L100 30L100 50L110 50L110 0L60 0L60 10L50 10L50 0L0 0z"/>
<path style="fill:#ffffff; stroke:none;" d="M50 0L50 10L60 10L60 0L50 0M20 10L20 20L30 20L30 10L20 10M60 10L60 20L80 20L80 10L60 10M10 30L10 40L0 40L0 60L10 60L10 90L20 90L20 30L10 30M30 30L30 80L80 80L80 30L30 30M90 30L90 90L100 90L100 70L110 70L110 50L100 50L100 30L90 30z"/>
<path style="fill:#000000; stroke:none;" d="M40 60L40 70L60 70L60 60L40 60z"/>
<path style="fill:#ffffff; stroke:none;" d="M50 90L50 110L60 110L60 100L80 100L80 90L50 90z"/>
</svg>
