<?xml version="1.0" standalone="yes"?>
<svg xmlns="http://www.w3.org/2000/svg" width="110" height="110">
<path style="fill:#000000; stroke:none;" d="M0 0L0 40L20 40L20 50L10 50L10 60L0 60L0 110L110 110L110 70L90 70L90 30L100 30L100 40L110 40L110 0L70 0L70 10L80 10L80 20L60 20L60 10L50 10L50 0L0 0z"/>
<path style="fill:#ffffff; stroke:none;" d="M50 0L50 10L60 10L60 20L80 20L80 10L70 10L70 0L50 0M40 10L40 20L50 20L50 10L40 10M10 20L10 30L20 30L20 20L10 20M30 30L30 80L80 80L80 30L30 30M90 30L90 70L110 70L110 40L100 40L100 30L90 30M0 40L0 60L10 60L10 50L20 50L20 40L0 40z"/>
<path style="fill:#000000; stroke:none;" d="M50 40L50 50L40 50L40 60L50 60L50 50L60 50L60 60L70 60L70 40L50 40z"/>
<path style="fill:#ffffff; stroke:none;" d="M10 60L10 80L20 80L20 60L10 60M90 80L90 90L70 90L70 100L90 100L90 90L100 90L100 80L90 80M20 90L20 100L30 100L30 90L20 90M50 90L50 100L60 100L60 90L50 90z"/>
</svg>
