<?xml version="1.0" standalone="yes"?>
<svg xmlns="http://www.w3.org/2000/svg" width="110" height="110">
<path style="fill:#000000; stroke:none;" d="M0 0L0 50L20 50L20 70L0 70L0 110L110 110L110 70L100 70L100 60L90 60L90 30L100 30L100 50L110 50L110 0L70 0L70 20L60 20L60 10L50 10L50 0L0 0z"/>
<path style="fill:#ffffff; stroke:none;" d="M50 0L50 10L60 10L60 20L70 20L70 0L50 0M40 10L40 20L50 20L50 10L40 10M80 10L80 20L90 20L90 10L80 10M10 20L10 40L20 40L20 20L10 20M30 30L30 80L80 80L80 30L30 30M90 30L90 60L100 60L100 70L110 70L110 50L100 50L100 30L90 30z"/>
<path style="fill:#000000; stroke:none;" d="M50 40L50 50L60 50L60 70L70 70L70 50L60 50L60 40L50 40z"/>
<path style="fill:#ffffff; stroke:none;" d="M0 50L0 70L20 70L20 50L0 50M10 80L10 90L20 90L20 100L30 100L30 90L20 90L20 80L10 80M90 80L90 90L50 90L50 100L90 100L90 90L100 90L100 80L90 80z"/>
</svg>
