<?xml version="1.0" standalone="yes"?>
<svg xmlns="http://www.w3.org/2000/svg" width="110" height="110">
<path style="fill:#000000; stroke:none;" d="M0 0L0 40L20 40L20 70L0 70L0 110L60 110L60 90L70 90L70 110L110 110L110 70L90 70L90 60L110 60L110 0L70 0L70 10L80 10L80 20L40 20L40 10L50 10L50 0L0 0z"/>
<path style="fill:#ffffff; stroke:none;" d="M50 0L50 10L40 10L40 20L80 20L80 10L70 10L70 0L50 0M90 20L90 30L100 30L100 20L90 20M30 30L30 80L80 80L80 30L30 30M0 40L0 70L20 70L20 40L0 40z"/>
<path style="fill:#000000; stroke:none;" d="M50 40L50 50L40 50L40 70L50 70L50 60L60 60L60 70L70 70L70 60L60 60L60 40L50 40z"/>
<path style="fill:#ffffff; stroke:none;" d="M90 60L90 70L110 70L110 60L90 60M40 90L40 100L50 100L50 90L40 90M60 90L60 110L70 110L70 90L60 90M80 90L80 100L90 100L90 90L80 90z"/>
</svg>
