<?xml version="1.0" standalone="yes"?>
<svg xmlns="http://www.w3.org/2000/svg" width="110" height="110">
<path style="fill:#000000; stroke:none;" d="M0 0L0 50L10 50L10 70L0 70L0 110L40 110L40 100L20 100L20 90L70 90L70 110L110 110L110 70L100 70L100 60L90 60L90 50L100 50L100 40L110 40L110 0L70 0L70 10L60 10L60 20L50 20L50 0L0 0z"/>
<path style="fill:#ffffff; stroke:none;" d="M50 0L50 20L60 20L60 10L70 10L70 0L50 0M30 10L30 20L40 20L40 10L30 10M80 10L80 20L90 20L90 10L80 10M30 30L30 80L80 80L80 30L30 30M90 30L90 40L100 40L100 30L90 30M10 40L10 50L20 50L20 40L10 40z"/>
<path style="fill:#000000; stroke:none;" d="M40 40L40 60L50 60L50 70L70 70L70 60L50 60L50 50L60 50L60 40L40 40z"/>
<path style="fill:#ffffff; stroke:none;" d="M100 40L100 50L90 50L90 60L100 60L100 70L110 70L110 40L100 40M0 50L0 70L10 70L10 50L0 50M10 70L10 90L20 90L20 70L10 70M20 90L20 100L40 100L40 110L70 110L70 90L20 90z"/>
</svg>
