<?xml version="1.0" standalone="yes"?>
<svg xmlns="http://www.w3.org/2000/svg" width="110" height="110">
<path style="fill:#000000; stroke:none;" d="M0 0L0 40L10 40L10 50L20 50L20 60L0 60L0 110L40 110L40 100L50 100L50 110L110 110L110 70L90 70L90 60L110 60L110 0L0 0z"/>
<path style="fill:#ffffff; stroke:none;" d="M20 10L20 20L10 20L10 30L20 30L20 20L40 20L40 10L20 10M50 10L50 20L60 20L60 10L50 10M70 10L70 20L90 20L90 10L70 10M30 30L30 80L80 80L80 30L30 30M90 30L90 50L100 50L100 30L90 30M0 40L0 60L20 60L20 50L10 50L10 40L0 40z"/>
<path style="fill:#000000; stroke:none;" d="M40 50L40 60L60 60L60 70L70 70L70 50L40 50z"/>
<path style="fill:#ffffff; stroke:none;" d="M90 60L90 70L110 70L110 60L90 60M10 70L10 80L20 80L20 70L10 70M20 90L20 100L40 100L40 90L20 90M70 90L70 100L80 100L80 90L70 90M40 100L40 110L50 110L50 100L40 100z"/>
</svg>
