<?xml version="1.0" standalone="yes"?>
<svg xmlns="http://www.w3.org/2000/svg" width="110" height="110">
<path style="fill:#000000; stroke:none;" d="M0 0L0 110L50 110L50 100L30 100L30 90L70 90L70 110L110 110L110 70L100 70L100 80L90 80L90 60L110 60L110 0L70 0L70 10L50 10L50 0L0 0z"/>
<path style="fill:#ffffff; stroke:none;" d="M50 0L50 10L70 10L70 0L50 0M40 10L40 20L50 20L50 10L40 10M80 10L80 20L90 20L90 10L80 10M30 30L30 80L80 80L80 30L30 30M10 40L10 90L20 90L20 40L10 40z"/>
<path style="fill:#000000; stroke:none;" d="M50 40L50 50L40 50L40 70L50 70L50 50L60 50L60 40L50 40z"/>
<path style="fill:#ffffff; stroke:none;" d="M90 40L90 50L100 50L100 40L90 40M90 60L90 80L100 80L100 70L110 70L110 60L90 60M30 90L30 100L50 100L50 110L70 110L70 90L30 90z"/>
</svg>
