<?xml version="1.0" standalone="yes"?>
<svg xmlns="http://www.w3.org/2000/svg" width="110" height="110">
<path style="fill:#000000; stroke:none;" d="M0 0L0 110L40 110L40 100L20 100L20 90L50 90L50 110L110 110L110 70L100 70L100 80L90 80L90 50L100 50L100 60L110 60L110 0L60 0L60 10L70 10L70 20L30 20L30 10L40 10L40 0L0 0z"/>
<path style="fill:#ffffff; stroke:none;" d="M40 0L40 10L30 10L30 20L70 20L70 10L60 10L60 0L40 0M10 20L10 30L20 30L20 20L10 20M30 30L30 80L80 80L80 30L30 30z"/>
<path style="fill:#000000; stroke:none;" d="M50 40L50 50L40 50L40 70L70 70L70 60L50 60L50 50L70 50L70 40L50 40z"/>
<path style="fill:#ffffff; stroke:none;" d="M10 50L10 90L20 90L20 50L10 50M90 50L90 80L100 80L100 70L110 70L110 60L100 60L100 50L90 50M20 90L20 100L40 100L40 110L50 110L50 90L20 90M70 90L70 100L80 100L80 90L70 90z"/>
</svg>
