<?xml version="1.0" standalone="yes"?>
<svg xmlns="http://www.w3.org/2000/svg" width="110" height="110">
<path style="fill:#000000; stroke:none;" d="M0 0L0 40L20 40L20 80L10 80L10 50L0 50L0 110L40 110L40 100L30 100L30 90L50 90L50 100L60 100L60 110L110 110L110 70L100 70L100 80L90 80L90 20L100 20L100 50L110 50L110 0L70 0L70 10L60 10L60 20L50 20L50 0L0 0z"/>
<path style="fill:#ffffff; stroke:none;" d="M50 0L50 20L60 20L60 10L70 10L70 0L50 0M20 10L20 20L10 20L10 30L20 30L20 20L40 20L40 10L20 10M70 10L70 20L90 20L90 10L70 10M90 20L90 80L100 80L100 70L110 70L110 50L100 50L100 20L90 20M30 30L30 80L80 80L80 30L30 30M0 40L0 50L10 50L10 80L20 80L20 40L0 40z"/>
<path style="fill:#000000; stroke:none;" d="M40 40L40 70L50 70L50 40L40 40M60 50L60 60L70 60L70 50L60 50z"/>
<path style="fill:#ffffff; stroke:none;" d="M30 90L30 100L40 100L40 110L60 110L60 100L50 100L50 90L30 90M60 90L60 100L90 100L90 90L60 90z"/>
</svg>
