<?xml version="1.0" standalone="yes"?>
<svg xmlns="http://www.w3.org/2000/svg" width="110" height="110">
<path style="fill:#000000; stroke:none;" d="M0 0L0 40L20 40L20 50L10 50L10 60L0 60L0 110L50 110L50 100L70 100L70 110L110 110L110 60L100 60L100 80L90 80L90 40L100 40L100 50L110 50L110 0L60 0L60 20L50 20L50 0L0 0z"/>
<path style="fill:#ffffff; stroke:none;" d="M50 0L50 20L60 20L60 0L50 0M30 10L30 20L40 20L40 10L30 10M80 10L80 20L90 20L90 30L100 30L100 20L90 20L90 10L80 10M30 30L30 80L80 80L80 30L30 30M0 40L0 60L10 60L10 50L20 50L20 40L0 40z"/>
<path style="fill:#000000; stroke:none;" d="M40 40L40 70L60 70L60 60L50 60L50 40L40 40M60 40L60 50L70 50L70 40L60 40z"/>
<path style="fill:#ffffff; stroke:none;" d="M90 40L90 80L100 80L100 60L110 60L110 50L100 50L100 40L90 40M20 90L20 100L30 100L30 90L20 90M80 90L80 100L90 100L90 90L80 90M50 100L50 110L70 110L70 100L50 100z"/>
</svg>
