<?xml version="1.0" standalone="yes"?>
<svg xmlns="http://www.w3.org/2000/svg" width="110" height="110">
<path style="fill:#000000; stroke:none;" d="M0 0L0 50L10 50L10 30L20 30L20 70L10 70L10 60L0 60L0 110L40 110L40 90L50 90L50 110L110 110L110 50L100 50L100 40L110 40L110 0L70 0L70 20L50 20L50 10L60 10L60 0L0 0z"/>
<path style="fill:#ffffff; stroke:none;" d="M60 0L60 10L50 10L50 20L70 20L70 0L60 0M20 10L20 20L30 20L30 10L20 10M10 30L10 50L0 50L0 60L10 60L10 70L20 70L20 30L10 30M30 30L30 80L80 80L80 30L30 30M90 30L90 40L100 40L100 30L90 30z"/>
<path style="fill:#000000; stroke:none;" d="M60 40L60 60L50 60L50 50L40 50L40 60L50 60L50 70L70 70L70 40L60 40z"/>
<path style="fill:#ffffff; stroke:none;" d="M100 40L100 50L110 50L110 40L100 40M90 70L90 80L100 80L100 70L90 70M40 90L40 110L50 110L50 90L40 90M60 90L60 100L90 100L90 90L60 90z"/>
</svg>
