<?xml version="1.0" standalone="yes"?>
<svg xmlns="http://www.w3.org/2000/svg" width="110" height="110">
<path style="fill:#000000; stroke:none;" d="M0 0L0 60L10 60L10 70L0 70L0 110L110 110L110 70L100 70L100 50L90 50L90 20L100 20L100 40L110 40L110 0L50 0L50 10L40 10L40 0L0 0z"/>
<path style="fill:#ffffff; stroke:none;" d="M40 0L40 10L50 10L50 0L40 0M70 10L70 20L90 20L90 10L70 10M10 20L10 40L20 40L20 20L10 20M90 20L90 50L100 50L100 70L110 70L110 40L100 40L100 20L90 20M30 30L30 80L80 80L80 30L30 30z"/>
<path style="fill:#000000; stroke:none;" d="M40 40L40 50L50 50L50 70L70 70L70 50L50 50L50 40L40 40z"/>
<path style="fill:#ffffff; stroke:none;" d="M0 60L0 70L10 70L10 60L0 60M10 70L10 80L20 80L20 70L10 70M90 80L90 90L80 90L80 100L90 100L90 90L100 90L100 80L90 80M20 90L20 100L50 100L50 90L20 90z"/>
</svg>
