<?xml version="1.0" standalone="yes"?>
<svg xmlns="http://www.w3.org/2000/svg" width="110" height="110">
<path style="fill:#000000; stroke:none;" d="M0 0L0 40L20 40L20 90L10 90L10 60L0 60L0 110L60 110L60 90L70 90L70 110L110 110L110 0L50 0L50 10L60 10L60 20L20 20L20 10L40 10L40 0L0 0z"/>
<path style="fill:#ffffff; stroke:none;" d="M40 0L40 10L20 10L20 20L60 20L60 10L50 10L50 0L40 0M70 10L70 20L90 20L90 50L100 50L100 20L90 20L90 10L70 10M30 30L30 80L80 80L80 30L30 30M0 40L0 60L10 60L10 90L20 90L20 40L0 40z"/>
<path style="fill:#000000; stroke:none;" d="M50 40L50 50L40 50L40 70L50 70L50 50L70 50L70 40L50 40z"/>
<path style="fill:#ffffff; stroke:none;" d="M90 70L90 80L100 80L100 70L90 70M60 90L60 110L70 110L70 90L60 90z"/>
</svg>
