<?xml version="1.0" standalone="yes"?>
<svg xmlns="http://www.w3.org/2000/svg" width="110" height="110">
<path style="fill:#000000; stroke:none;" d="M0 0L0 60L20 60L20 70L0 70L0 110L40 110L40 100L50 100L50 90L60 90L60 110L110 110L110 70L100 70L100 60L90 60L90 40L100 40L100 50L110 50L110 0L70 0L70 10L60 10L60 0L0 0z"/>
<path style="fill:#ffffff; stroke:none;" d="M60 0L60 10L70 10L70 0L60 0M20 10L20 20L50 20L50 10L20 10M90 20L90 30L100 30L100 20L90 20M30 30L30 80L80 80L80 30L30 30z"/>
<path style="fill:#000000; stroke:none;" d="M60 40L60 50L40 50L40 60L50 60L50 70L70 70L70 40L60 40z"/>
<path style="fill:#ffffff; stroke:none;" d="M90 40L90 60L100 60L100 70L110 70L110 50L100 50L100 40L90 40M0 60L0 70L20 70L20 60L0 60M90 70L90 80L100 80L100 70L90 70M20 90L20 100L40 100L40 90L20 90M50 90L50 100L40 100L40 110L60 110L60 90L50 90M70 90L70 100L80 100L80 90L70 90z"/>
</svg>
