<?xml version="1.0" standalone="yes"?>
<svg xmlns="http://www.w3.org/2000/svg" width="110" height="110">
<path style="fill:#000000; stroke:none;" d="M0 0L0 110L110 110L110 70L100 70L100 60L90 60L90 50L100 50L100 40L110 40L110 0L70 0L70 20L60 20L60 0L0 0z"/>
<path style="fill:#ffffff; stroke:none;" d="M60 0L60 20L70 20L70 0L60 0M30 10L30 20L40 20L40 10L30 10M90 20L90 40L100 40L100 20L90 20M30 30L30 80L80 80L80 30L30 30M10 40L10 60L20 60L20 40L10 40z"/>
<path style="fill:#000000; stroke:none;" d="M60 40L60 50L70 50L70 40L60 40z"/>
<path style="fill:#ffffff; stroke:none;" d="M100 40L100 50L90 50L90 60L100 60L100 70L110 70L110 40L100 40z"/>
<path style="fill:#000000; stroke:none;" d="M50 60L50 70L60 70L60 60L50 60z"/>
<path style="fill:#ffffff; stroke:none;" d="M10 70L10 80L20 80L20 70L10 70M90 70L90 90L100 90L100 70L90 70M20 90L20 100L50 100L50 90L20 90M60 90L60 100L70 100L70 90L60 90z"/>
</svg>
