<?xml version="1.0" standalone="yes"?>
<svg xmlns="http://www.w3.org/2000/svg" width="110" height="110">
<path style="fill:#000000; stroke:none;" d="M0 0L0 110L40 110L40 100L50 100L50 110L60 110L60 100L70 100L70 110L110 110L110 70L90 70L90 50L100 50L100 60L110 60L110 0L0 0z"/>
<path style="fill:#ffffff; stroke:none;" d="M30 10L30 20L50 20L50 10L30 10M70 10L70 20L90 20L90 30L100 30L100 20L90 20L90 10L70 10M10 20L10 40L20 40L20 20L10 20M30 30L30 80L80 80L80 30L30 30z"/>
<path style="fill:#000000; stroke:none;" d="M40 40L40 50L50 50L50 60L40 60L40 70L60 70L60 50L70 50L70 40L60 40L60 50L50 50L50 40L40 40z"/>
<path style="fill:#ffffff; stroke:none;" d="M10 50L10 70L20 70L20 50L10 50M90 50L90 70L110 70L110 60L100 60L100 50L90 50M10 80L10 90L20 90L20 80L10 80M30 90L30 100L40 100L40 90L30 90M40 100L40 110L50 110L50 100L40 100M60 100L60 110L70 110L70 100L60 100z"/>
</svg>
