<?xml version="1.0" standalone="yes"?>
<svg xmlns="http://www.w3.org/2000/svg" width="110" height="110">
<path style="fill:#000000; stroke:none;" d="M0 0L0 40L20 40L20 90L10 90L10 70L0 70L0 110L50 110L50 90L60 90L60 100L70 100L70 110L110 110L110 60L90 60L90 50L100 50L100 40L110 40L110 0L70 0L70 20L60 20L60 0L50 0L50 20L40 20L40 0L0 0z"/>
<path style="fill:#ffffff; stroke:none;" d="M40 0L40 20L50 20L50 0L40 0M60 0L60 20L70 20L70 0L60 0M20 10L20 20L30 20L30 10L20 10M80 10L80 20L90 20L90 10L80 10M30 30L30 80L80 80L80 30L30 30M0 40L0 50L10 50L10 60L0 60L0 70L10 70L10 90L20 90L20 40L0 40z"/>
<path style="fill:#000000; stroke:none;" d="M40 40L40 70L50 70L50 40L40 40M60 40L60 50L70 50L70 40L60 40z"/>
<path style="fill:#ffffff; stroke:none;" d="M100 40L100 50L90 50L90 60L110 60L110 40L100 40z"/>
<path style="fill:#000000; stroke:none;" d="M0 50L0 60L10 60L10 50L0 50M60 60L60 70L70 70L70 60L60 60z"/>
<path style="fill:#ffffff; stroke:none;" d="M50 90L50 110L70 110L70 100L60 100L60 90L50 90z"/>
</svg>
