<?xml version="1.0" standalone="yes"?>
<svg xmlns="http://www.w3.org/2000/svg" width="110" height="110">
<path style="fill:#000000; stroke:none;" d="M0 0L0 40L10 40L10 50L0 50L0 110L50 110L50 100L60 100L60 90L70 90L70 110L110 110L110 50L100 50L100 60L90 60L90 40L110 40L110 0L0 0z"/>
<path style="fill:#ffffff; stroke:none;" d="M20 10L20 20L30 20L30 10L20 10M50 10L50 20L60 20L60 10L50 10M80 10L80 20L90 20L90 30L100 30L100 20L90 20L90 10L80 10M10 30L10 40L20 40L20 30L10 30M30 30L30 80L80 80L80 30L30 30M0 40L0 50L10 50L10 40L0 40z"/>
<path style="fill:#000000; stroke:none;" d="M40 40L40 70L60 70L60 60L50 60L50 40L40 40M60 40L60 50L70 50L70 40L60 40z"/>
<path style="fill:#ffffff; stroke:none;" d="M90 40L90 60L100 60L100 50L110 50L110 40L90 40M10 50L10 90L20 90L20 100L50 100L50 90L20 90L20 50L10 50M90 70L90 80L100 80L100 70L90 70M60 90L60 100L50 100L50 110L70 110L70 90L60 90M80 90L80 100L90 100L90 90L80 90z"/>
</svg>
