<?xml version="1.0" standalone="yes"?>
<svg xmlns="http://www.w3.org/2000/svg" width="110" height="110">
<path style="fill:#000000; stroke:none;" d="M0 0L0 50L10 50L10 30L20 30L20 90L10 90L10 60L0 60L0 110L110 110L110 60L100 60L100 50L90 50L90 40L110 40L110 0L70 0L70 10L50 10L50 20L20 20L20 10L40 10L40 0L0 0z"/>
<path style="fill:#ffffff; stroke:none;" d="M40 0L40 10L20 10L20 20L50 20L50 10L70 10L70 0L40 0M70 10L70 20L90 20L90 30L100 30L100 20L90 20L90 10L70 10M10 30L10 50L0 50L0 60L10 60L10 90L20 90L20 30L10 30M30 30L30 80L80 80L80 30L30 30z"/>
<path style="fill:#000000; stroke:none;" d="M60 40L60 50L50 50L50 60L40 60L40 70L50 70L50 60L70 60L70 40L60 40z"/>
<path style="fill:#ffffff; stroke:none;" d="M90 40L90 50L100 50L100 60L110 60L110 40L90 40M90 60L90 70L100 70L100 60L90 60M90 80L90 90L100 90L100 80L90 80M50 90L50 100L80 100L80 90L50 90z"/>
</svg>
