<?xml version="1.0" standalone="yes"?>
<svg xmlns="http://www.w3.org/2000/svg" width="110" height="110">
<path style="fill:#000000; stroke:none;" d="M0 0L0 40L10 40L10 30L20 30L20 50L10 50L10 60L0 60L0 110L40 110L40 100L50 100L50 110L110 110L110 70L100 70L100 60L90 60L90 30L100 30L100 40L110 40L110 0L70 0L70 20L60 20L60 10L50 10L50 0L0 0z"/>
<path style="fill:#ffffff; stroke:none;" d="M50 0L50 10L60 10L60 20L70 20L70 0L50 0M30 10L30 20L40 20L40 10L30 10M10 30L10 40L0 40L0 60L10 60L10 50L20 50L20 30L10 30M30 30L30 80L80 80L80 30L30 30M90 30L90 60L100 60L100 70L110 70L110 40L100 40L100 30L90 30z"/>
<path style="fill:#000000; stroke:none;" d="M40 40L40 50L60 50L60 70L70 70L70 40L40 40z"/>
<path style="fill:#ffffff; stroke:none;" d="M10 60L10 70L20 70L20 60L10 60M90 70L90 90L50 90L50 100L90 100L90 90L100 90L100 70L90 70M30 90L30 100L40 100L40 90L30 90M40 100L40 110L50 110L50 100L40 100z"/>
</svg>
