<?xml version="1.0" standalone="yes"?>
<svg xmlns="http://www.w3.org/2000/svg" width="110" height="110">
<path style="fill:#000000; stroke:none;" d="M0 0L0 110L60 110L60 90L70 90L70 110L110 110L110 70L100 70L100 60L90 60L90 40L100 40L100 50L110 50L110 0L60 0L60 10L50 10L50 0L0 0z"/>
<path style="fill:#ffffff; stroke:none;" d="M50 0L50 10L60 10L60 0L50 0M80 10L80 20L90 20L90 10L80 10M10 20L10 50L20 50L20 20L10 20M30 30L30 80L80 80L80 30L30 30z"/>
<path style="fill:#000000; stroke:none;" d="M40 40L40 70L70 70L70 60L50 60L50 50L70 50L70 40L40 40z"/>
<path style="fill:#ffffff; stroke:none;" d="M90 40L90 60L100 60L100 70L110 70L110 50L100 50L100 40L90 40M10 70L10 90L20 90L20 70L10 70M60 90L60 110L70 110L70 90L60 90z"/>
</svg>
