<?xml version="1.0" standalone="yes"?>
<svg xmlns="http://www.w3.org/2000/svg" width="110" height="110">
<path style="fill:#000000; stroke:none;" d="M0 0L0 40L10 40L10 20L20 20L20 90L10 90L10 50L0 50L0 110L40 110L40 100L50 100L50 90L60 90L60 100L70 100L70 110L110 110L110 50L100 50L100 90L90 90L90 40L110 40L110 0L50 0L50 20L40 20L40 0L0 0z"/>
<path style="fill:#ffffff; stroke:none;" d="M40 0L40 20L50 20L50 0L40 0M20 10L20 20L30 20L30 10L20 10M60 10L60 20L70 20L70 10L60 10M80 10L80 20L90 20L90 30L100 30L100 20L90 20L90 10L80 10M10 20L10 40L0 40L0 50L10 50L10 90L20 90L20 20L10 20M30 30L30 80L80 80L80 30L30 30z"/>
<path style="fill:#000000; stroke:none;" d="M40 40L40 50L50 50L50 60L40 60L40 70L50 70L50 60L60 60L60 70L70 70L70 50L50 50L50 40L40 40z"/>
<path style="fill:#ffffff; stroke:none;" d="M90 40L90 90L100 90L100 50L110 50L110 40L90 40M30 90L30 100L40 100L40 90L30 90M50 90L50 100L40 100L40 110L70 110L70 100L60 100L60 90L50 90z"/>
</svg>
