<?xml version="1.0" standalone="yes"?>
<svg xmlns="http://www.w3.org/2000/svg" width="110" height="110">
<path style="fill:#000000; stroke:none;" d="M0 0L0 40L20 40L20 70L0 70L0 110L110 110L110 60L100 60L100 50L110 50L110 0L60 0L60 10L90 10L90 20L20 20L20 10L40 10L40 0L0 0z"/>
<path style="fill:#ffffff; stroke:none;" d="M40 0L40 10L20 10L20 20L90 20L90 10L60 10L60 0L40 0M10 20L10 30L20 30L20 20L10 20M90 20L90 30L100 30L100 20L90 20M30 30L30 80L80 80L80 30L30 30M0 40L0 70L20 70L20 40L0 40z"/>
<path style="fill:#000000; stroke:none;" d="M60 40L60 50L70 50L70 40L60 40M40 50L40 60L50 60L50 70L60 70L60 60L50 60L50 50L40 50z"/>
<path style="fill:#ffffff; stroke:none;" d="M100 50L100 60L110 60L110 50L100 50M90 60L90 90L50 90L50 100L90 100L90 90L100 90L100 60L90 60M20 90L20 100L40 100L40 90L20 90z"/>
</svg>
