<?xml version="1.0" standalone="yes"?>
<svg xmlns="http://www.w3.org/2000/svg" width="110" height="110">
<path style="fill:#000000; stroke:none;" d="M0 0L0 50L10 50L10 60L0 60L0 110L40 110L40 100L50 100L50 110L110 110L110 0L0 0z"/>
<path style="fill:#ffffff; stroke:none;" d="M20 10L20 20L80 20L80 10L20 10M10 30L10 50L20 50L20 30L10 30M30 30L30 80L80 80L80 30L30 30M90 30L90 90L100 90L100 30L90 30z"/>
<path style="fill:#000000; stroke:none;" d="M40 40L40 60L50 60L50 40L40 40M60 40L60 60L70 60L70 40L60 40z"/>
<path style="fill:#ffffff; stroke:none;" d="M0 50L0 60L10 60L10 50L0 50M10 60L10 70L20 70L20 60L10 60M10 80L10 90L20 90L20 100L40 100L40 90L20 90L20 80L10 80M50 90L50 100L60 100L60 90L50 90M70 90L70 100L80 100L80 90L70 90M40 100L40 110L50 110L50 100L40 100z"/>
</svg>
