<?xml version="1.0" standalone="yes"?>
<svg xmlns="http://www.w3.org/2000/svg" width="110" height="110">
<path style="fill:#000000; stroke:none;" d="M0 0L0 50L10 50L10 70L0 70L0 110L40 110L40 100L50 100L50 110L60 110L60 100L70 100L70 110L110 110L110 60L100 60L100 40L110 40L110 0L70 0L70 10L60 10L60 20L50 20L50 0L0 0z"/>
<path style="fill:#ffffff; stroke:none;" d="M50 0L50 20L60 20L60 10L70 10L70 0L50 0M20 10L20 20L10 20L10 40L20 40L20 20L30 20L30 10L20 10M80 10L80 20L90 20L90 40L100 40L100 20L90 20L90 10L80 10M30 30L30 80L80 80L80 30L30 30z"/>
<path style="fill:#000000; stroke:none;" d="M50 40L50 50L40 50L40 60L60 60L60 70L70 70L70 60L60 60L60 40L50 40z"/>
<path style="fill:#ffffff; stroke:none;" d="M100 40L100 60L110 60L110 40L100 40M0 50L0 70L10 70L10 50L0 50M90 60L90 70L100 70L100 60L90 60M10 80L10 90L20 90L20 80L10 80M90 80L90 90L100 90L100 80L90 80M30 90L30 100L40 100L40 90L30 90M50 90L50 100L60 100L60 90L50 90M40 100L40 110L50 110L50 100L40 100M60 100L60 110L70 110L70 100L60 100z"/>
</svg>
