<?xml version="1.0" standalone="yes"?>
<svg xmlns="http://www.w3.org/2000/svg" width="110" height="110">
<path style="fill:#000000; stroke:none;" d="M0 0L0 40L10 40L10 30L20 30L20 80L10 80L10 70L0 70L0 110L40 110L40 100L30 100L30 90L50 90L50 100L60 100L60 90L80 90L80 100L70 100L70 110L110 110L110 70L100 70L100 60L110 60L110 0L70 0L70 10L90 10L90 20L50 20L50 0L0 0z"/>
<path style="fill:#ffffff; stroke:none;" d="M50 0L50 20L90 20L90 10L70 10L70 0L50 0M90 20L90 60L100 60L100 20L90 20M10 30L10 40L0 40L0 70L10 70L10 80L20 80L20 30L10 30M30 30L30 80L80 80L80 30L30 30z"/>
<path style="fill:#000000; stroke:none;" d="M40 40L40 70L50 70L50 50L70 50L70 40L40 40z"/>
<path style="fill:#ffffff; stroke:none;" d="M100 60L100 70L110 70L110 60L100 60M90 80L90 90L100 90L100 80L90 80M30 90L30 100L40 100L40 110L70 110L70 100L80 100L80 90L60 90L60 100L50 100L50 90L30 90z"/>
</svg>
