<?xml version="1.0" standalone="yes"?>
<svg xmlns="http://www.w3.org/2000/svg" width="110" height="110">
<path style="fill:#000000; stroke:none;" d="M0 0L0 50L20 50L20 60L10 60L10 70L0 70L0 110L60 110L60 100L70 100L70 110L110 110L110 70L100 70L100 60L90 60L90 50L110 50L110 0L70 0L70 10L80 10L80 20L50 20L50 0L0 0z"/>
<path style="fill:#ffffff; stroke:none;" d="M50 0L50 20L80 20L80 10L70 10L70 0L50 0M20 10L20 20L40 20L40 10L20 10M90 20L90 40L100 40L100 20L90 20M10 30L10 40L20 40L20 30L10 30M30 30L30 80L80 80L80 30L30 30z"/>
<path style="fill:#000000; stroke:none;" d="M40 40L40 50L50 50L50 70L60 70L60 50L70 50L70 40L40 40z"/>
<path style="fill:#ffffff; stroke:none;" d="M0 50L0 70L10 70L10 60L20 60L20 50L0 50M90 50L90 60L100 60L100 70L110 70L110 50L90 50M10 70L10 80L20 80L20 70L10 70M90 70L90 80L100 80L100 70L90 70M20 90L20 100L40 100L40 90L20 90M50 90L50 100L60 100L60 90L50 90M70 90L70 100L80 100L80 90L70 90M60 100L60 110L70 110L70 100L60 100z"/>
</svg>
