<?xml version="1.0" standalone="yes"?>
<svg xmlns="http://www.w3.org/2000/svg" width="110" height="110">
<path style="fill:#000000; stroke:none;" d="M0 0L0 40L20 40L20 50L0 50L0 60L20 60L20 70L0 70L0 110L50 110L50 100L30 100L30 90L60 90L60 100L70 100L70 110L110 110L110 70L90 70L90 40L100 40L100 50L110 50L110 0L70 0L70 10L80 10L80 20L30 20L30 10L40 10L40 0L0 0z"/>
<path style="fill:#ffffff; stroke:none;" d="M40 0L40 10L30 10L30 20L80 20L80 10L70 10L70 0L60 0L60 10L50 10L50 0L40 0z"/>
<path style="fill:#000000; stroke:none;" d="M50 0L50 10L60 10L60 0L50 0z"/>
<path style="fill:#ffffff; stroke:none;" d="M10 20L10 30L20 30L20 20L10 20M90 20L90 30L100 30L100 20L90 20M30 30L30 80L80 80L80 30L30 30M0 40L0 50L20 50L20 40L0 40z"/>
<path style="fill:#000000; stroke:none;" d="M50 40L50 60L60 60L60 70L70 70L70 40L50 40z"/>
<path style="fill:#ffffff; stroke:none;" d="M90 40L90 70L110 70L110 50L100 50L100 40L90 40M0 60L0 70L20 70L20 60L0 60M10 80L10 90L20 90L20 80L10 80M90 80L90 90L70 90L70 100L90 100L90 90L100 90L100 80L90 80M30 90L30 100L50 100L50 110L70 110L70 100L60 100L60 90L30 90z"/>
</svg>
