<?xml version="1.0" standalone="yes"?>
<svg xmlns="http://www.w3.org/2000/svg" width="110" height="110">
<path style="fill:#000000; stroke:none;" d="M0 0L0 60L10 60L10 70L0 70L0 110L40 110L40 100L50 100L50 110L110 110L110 0L70 0L70 10L60 10L60 20L40 20L40 10L50 10L50 0L0 0z"/>
<path style="fill:#ffffff; stroke:none;" d="M50 0L50 10L40 10L40 20L60 20L60 10L70 10L70 0L50 0M90 20L90 30L100 30L100 20L90 20M10 30L10 60L20 60L20 30L10 30M30 30L30 80L80 80L80 30L30 30z"/>
<path style="fill:#000000; stroke:none;" d="M50 40L50 50L40 50L40 70L50 70L50 60L70 60L70 50L60 50L60 40L50 40z"/>
<path style="fill:#ffffff; stroke:none;" d="M90 50L90 70L100 70L100 50L90 50M0 60L0 70L10 70L10 60L0 60M10 70L10 80L20 80L20 70L10 70M90 80L90 90L100 90L100 80L90 80M50 90L50 100L60 100L60 90L50 90M70 90L70 100L80 100L80 90L70 90M40 100L40 110L50 110L50 100L40 100z"/>
</svg>
