<?xml version="1.0" standalone="yes"?>
<svg xmlns="http://www.w3.org/2000/svg" width="110" height="110">
<path style="fill:#000000; stroke:none;" d="M0 0L0 60L10 60L10 70L0 70L0 110L50 110L50 100L40 100L40 90L90 90L90 100L60 100L60 110L110 110L110 0L70 0L70 10L50 10L50 0L0 0z"/>
<path style="fill:#ffffff; stroke:none;" d="M50 0L50 10L70 10L70 0L50 0M20 10L20 20L40 20L40 10L20 10M70 10L70 20L90 20L90 10L70 10M30 30L30 80L80 80L80 30L30 30z"/>
<path style="fill:#000000; stroke:none;" d="M40 40L40 60L50 60L50 70L60 70L60 60L70 60L70 50L60 50L60 40L40 40z"/>
<path style="fill:#ffffff; stroke:none;" d="M90 40L90 50L100 50L100 40L90 40M10 50L10 60L20 60L20 50L10 50M50 50L50 60L60 60L60 50L50 50M0 60L0 70L10 70L10 60L0 60M90 60L90 90L100 90L100 60L90 60M10 70L10 80L20 80L20 70L10 70M20 90L20 100L30 100L30 90L20 90M40 90L40 100L50 100L50 110L60 110L60 100L90 100L90 90L40 90z"/>
</svg>
