<?xml version="1.0" standalone="yes"?>
<svg xmlns="http://www.w3.org/2000/svg" width="110" height="110">
<path style="fill:#000000; stroke:none;" d="M0 0L0 50L10 50L10 30L20 30L20 70L10 70L10 60L0 60L0 110L50 110L50 100L60 100L60 110L110 110L110 60L100 60L100 50L110 50L110 0L70 0L70 20L60 20L60 10L50 10L50 0L0 0z"/>
<path style="fill:#ffffff; stroke:none;" d="M50 0L50 10L60 10L60 20L70 20L70 0L50 0M30 10L30 20L50 20L50 10L30 10M80 10L80 20L90 20L90 50L100 50L100 20L90 20L90 10L80 10M10 30L10 50L0 50L0 60L10 60L10 70L20 70L20 30L10 30M30 30L30 80L80 80L80 30L30 30z"/>
<path style="fill:#000000; stroke:none;" d="M60 40L60 50L70 50L70 40L60 40z"/>
<path style="fill:#ffffff; stroke:none;" d="M100 50L100 60L110 60L110 50L100 50z"/>
<path style="fill:#000000; stroke:none;" d="M40 60L40 70L70 70L70 60L40 60z"/>
<path style="fill:#ffffff; stroke:none;" d="M20 90L20 100L50 100L50 90L20 90M80 90L80 100L90 100L90 90L80 90M50 100L50 110L60 110L60 100L50 100z"/>
</svg>
