<?xml version="1.0" standalone="yes"?>
<svg xmlns="http://www.w3.org/2000/svg" width="110" height="110">
<path style="fill:#000000; stroke:none;" d="M0 0L0 40L20 40L20 50L10 50L10 60L0 60L0 110L110 110L110 50L90 50L90 40L110 40L110 0L70 0L70 10L80 10L80 20L60 20L60 10L50 10L50 20L40 20L40 0L0 0z"/>
<path style="fill:#ffffff; stroke:none;" d="M40 0L40 20L50 20L50 10L60 10L60 20L80 20L80 10L70 10L70 0L40 0M10 20L10 30L20 30L20 20L10 20M30 30L30 80L80 80L80 30L30 30M0 40L0 60L10 60L10 50L20 50L20 40L0 40z"/>
<path style="fill:#000000; stroke:none;" d="M50 40L50 60L40 60L40 70L70 70L70 40L50 40z"/>
<path style="fill:#ffffff; stroke:none;" d="M90 40L90 50L110 50L110 40L90 40M10 70L10 90L20 90L20 70L10 70M90 70L90 80L100 80L100 70L90 70M30 90L30 100L40 100L40 90L30 90M60 90L60 100L70 100L70 90L60 90z"/>
</svg>
