<?xml version="1.0" standalone="yes"?>
<svg xmlns="http://www.w3.org/2000/svg" width="110" height="110">
<path style="fill:#000000; stroke:none;" d="M0 0L0 50L10 50L10 60L0 60L0 110L110 110L110 50L90 50L90 20L100 20L100 40L110 40L110 0L0 0z"/>
<path style="fill:#ffffff; stroke:none;" d="M20 10L20 20L10 20L10 40L20 40L20 20L40 20L40 10L20 10M50 10L50 20L60 20L60 10L50 10M80 10L80 20L90 20L90 10L80 10M90 20L90 50L110 50L110 40L100 40L100 20L90 20M30 30L30 80L80 80L80 30L30 30z"/>
<path style="fill:#000000; stroke:none;" d="M60 40L60 50L40 50L40 60L60 60L60 70L70 70L70 60L60 60L60 50L70 50L70 40L60 40z"/>
<path style="fill:#ffffff; stroke:none;" d="M0 50L0 60L10 60L10 50L0 50M10 70L10 80L20 80L20 70L10 70M50 90L50 100L60 100L60 90L50 90M70 90L70 100L80 100L80 90L70 90z"/>
</svg>
