<?xml version="1.0" standalone="yes"?>
<svg xmlns="http://www.w3.org/2000/svg" width="110" height="110">
<path style="fill:#000000; stroke:none;" d="M0 0L0 50L10 50L10 20L20 20L20 60L0 60L0 110L110 110L110 60L100 60L100 90L90 90L90 50L100 50L100 40L110 40L110 0L70 0L70 20L50 20L50 0L0 0z"/>
<path style="fill:#ffffff; stroke:none;" d="M50 0L50 20L70 20L70 0L50 0M20 10L20 20L30 20L30 10L20 10M80 10L80 20L90 20L90 10L80 10M10 20L10 50L0 50L0 60L20 60L20 20L10 20M30 30L30 80L80 80L80 30L30 30M90 30L90 40L100 40L100 30L90 30z"/>
<path style="fill:#000000; stroke:none;" d="M60 40L60 50L50 50L50 60L40 60L40 70L70 70L70 60L60 60L60 50L70 50L70 40L60 40z"/>
<path style="fill:#ffffff; stroke:none;" d="M100 40L100 50L90 50L90 90L100 90L100 60L110 60L110 40L100 40M10 70L10 90L20 90L20 100L30 100L30 90L20 90L20 70L10 70M50 90L50 100L60 100L60 90L50 90M70 90L70 100L80 100L80 90L70 90z"/>
</svg>
