<?xml version="1.0" standalone="yes"?>
<svg xmlns="http://www.w3.org/2000/svg" width="110" height="110">
<path style="fill:#000000; stroke:none;" d="M0 0L0 40L10 40L10 30L20 30L20 90L10 90L10 70L0 70L0 110L40 110L40 100L60 100L60 110L110 110L110 0L70 0L70 10L50 10L50 0L0 0z"/>
<path style="fill:#ffffff; stroke:none;" d="M50 0L50 10L70 10L70 0L50 0M40 10L40 20L50 20L50 10L40 10M70 10L70 20L80 20L80 10L70 10M10 30L10 40L0 40L0 70L10 70L10 90L20 90L20 30L10 30M30 30L30 80L80 80L80 30L30 30z"/>
<path style="fill:#000000; stroke:none;" d="M40 40L40 60L50 60L50 50L60 50L60 70L70 70L70 40L40 40z"/>
<path style="fill:#ffffff; stroke:none;" d="M90 60L90 80L100 80L100 60L90 60M30 90L30 100L40 100L40 90L30 90M70 90L70 100L80 100L80 90L70 90M40 100L40 110L60 110L60 100L40 100z"/>
</svg>
