<?xml version="1.0" standalone="yes"?>
<svg xmlns="http://www.w3.org/2000/svg" width="110" height="110">
<path style="fill:#000000; stroke:none;" d="M0 0L0 110L50 110L50 100L20 100L20 90L60 90L60 110L110 110L110 50L100 50L100 40L110 40L110 0L60 0L60 10L50 10L50 0L0 0z"/>
<path style="fill:#ffffff; stroke:none;" d="M50 0L50 10L60 10L60 0L50 0M40 10L40 20L50 20L50 10L40 10M60 10L60 20L80 20L80 10L60 10M30 30L30 80L80 80L80 30L30 30M90 30L90 40L100 40L100 30L90 30z"/>
<path style="fill:#000000; stroke:none;" d="M40 40L40 60L60 60L60 70L70 70L70 60L60 60L60 40L40 40z"/>
<path style="fill:#ffffff; stroke:none;" d="M100 40L100 50L110 50L110 40L100 40M10 60L10 70L20 70L20 60L10 60M90 70L90 80L100 80L100 70L90 70M10 80L10 90L20 90L20 80L10 80M20 90L20 100L50 100L50 110L60 110L60 90L20 90M70 90L70 100L80 100L80 90L70 90z"/>
</svg>
