<?xml version="1.0" standalone="yes"?>
<svg xmlns="http://www.w3.org/2000/svg" width="110" height="110">
<path style="fill:#000000; stroke:none;" d="M0 0L0 40L20 40L20 60L0 60L0 110L40 110L40 100L30 100L30 90L50 90L50 100L70 100L70 110L110 110L110 70L100 70L100 40L110 40L110 0L60 0L60 10L50 10L50 0L0 0z"/>
<path style="fill:#ffffff; stroke:none;" d="M50 0L50 10L60 10L60 0L50 0M60 10L60 20L70 20L70 10L60 10M80 10L80 20L90 20L90 30L100 30L100 20L90 20L90 10L80 10M10 20L10 30L20 30L20 20L10 20M30 30L30 80L80 80L80 30L30 30M0 40L0 60L20 60L20 40L0 40z"/>
<path style="fill:#000000; stroke:none;" d="M40 40L40 50L50 50L50 60L60 60L60 50L50 50L50 40L40 40z"/>
<path style="fill:#ffffff; stroke:none;" d="M100 40L100 70L110 70L110 40L100 40M10 70L10 90L20 90L20 70L10 70M90 70L90 90L100 90L100 70L90 70M30 90L30 100L40 100L40 110L70 110L70 100L50 100L50 90L30 90M70 90L70 100L80 100L80 90L70 90z"/>
</svg>
