<?xml version="1.0" standalone="yes"?>
<svg xmlns="http://www.w3.org/2000/svg" width="110" height="110">
<path style="fill:#000000; stroke:none;" d="M0 0L0 40L10 40L10 50L0 50L0 110L50 110L50 100L60 100L60 110L110 110L110 70L90 70L90 40L100 40L100 60L110 60L110 0L70 0L70 10L50 10L50 20L30 20L30 10L40 10L40 0L0 0z"/>
<path style="fill:#ffffff; stroke:none;" d="M40 0L40 10L30 10L30 20L50 20L50 10L70 10L70 0L40 0M10 30L10 40L20 40L20 30L10 30M30 30L30 80L80 80L80 30L30 30M0 40L0 50L10 50L10 40L0 40z"/>
<path style="fill:#000000; stroke:none;" d="M40 40L40 70L50 70L50 40L40 40M60 40L60 70L70 70L70 40L60 40z"/>
<path style="fill:#ffffff; stroke:none;" d="M90 40L90 70L110 70L110 60L100 60L100 40L90 40M10 50L10 60L20 60L20 50L10 50M10 80L10 90L20 90L20 100L40 100L40 90L20 90L20 80L10 80M50 100L50 110L60 110L60 100L50 100z"/>
</svg>
