<?xml version="1.0" standalone="yes"?>
<svg xmlns="http://www.w3.org/2000/svg" width="110" height="110">
<path style="fill:#000000; stroke:none;" d="M0 0L0 40L20 40L20 50L10 50L10 60L0 60L0 110L40 110L40 90L80 90L80 100L70 100L70 110L110 110L110 70L100 70L100 60L110 60L110 0L60 0L60 10L50 10L50 0L0 0z"/>
<path style="fill:#ffffff; stroke:none;" d="M50 0L50 10L60 10L60 0L50 0M20 10L20 20L40 20L40 10L20 10M60 10L60 20L70 20L70 10L60 10M30 30L30 80L80 80L80 30L30 30M0 40L0 60L10 60L10 50L20 50L20 40L0 40z"/>
<path style="fill:#000000; stroke:none;" d="M40 40L40 50L50 50L50 70L70 70L70 40L40 40z"/>
<path style="fill:#ffffff; stroke:none;" d="M90 40L90 60L100 60L100 40L90 40M100 60L100 70L110 70L110 60L100 60M10 70L10 90L20 90L20 70L10 70M40 90L40 110L70 110L70 100L80 100L80 90L40 90z"/>
</svg>
