<?xml version="1.0" standalone="yes"?>
<svg xmlns="http://www.w3.org/2000/svg" width="110" height="110">
<path style="fill:#000000; stroke:none;" d="M0 0L0 50L10 50L10 20L20 20L20 90L10 90L10 60L0 60L0 110L40 110L40 90L70 90L70 110L110 110L110 70L100 70L100 50L110 50L110 0L0 0z"/>
<path style="fill:#ffffff; stroke:none;" d="M30 10L30 20L40 20L40 10L30 10M70 10L70 20L90 20L90 10L70 10M10 20L10 50L0 50L0 60L10 60L10 90L20 90L20 20L10 20M30 30L30 80L80 80L80 30L30 30z"/>
<path style="fill:#000000; stroke:none;" d="M60 40L60 50L50 50L50 70L60 70L60 50L70 50L70 40L60 40z"/>
<path style="fill:#ffffff; stroke:none;" d="M90 40L90 50L100 50L100 40L90 40M100 50L100 70L110 70L110 50L100 50M90 80L90 90L100 90L100 80L90 80M40 90L40 110L70 110L70 90L40 90z"/>
</svg>
