<?xml version="1.0" standalone="yes"?>
<svg xmlns="http://www.w3.org/2000/svg" width="110" height="110">
<path style="fill:#000000; stroke:none;" d="M0 0L0 40L10 40L10 50L0 50L0 60L10 60L10 70L0 70L0 110L40 110L40 90L70 90L70 100L60 100L60 110L110 110L110 70L100 70L100 60L110 60L110 0L60 0L60 20L50 20L50 10L40 10L40 0L0 0z"/>
<path style="fill:#ffffff; stroke:none;" d="M40 0L40 10L50 10L50 20L60 20L60 0L40 0M90 20L90 30L100 30L100 20L90 20M30 30L30 80L80 80L80 30L30 30M0 40L0 50L10 50L10 40L0 40z"/>
<path style="fill:#000000; stroke:none;" d="M50 40L50 50L70 50L70 40L50 40z"/>
<path style="fill:#ffffff; stroke:none;" d="M90 40L90 60L100 60L100 40L90 40M0 60L0 70L10 70L10 60L0 60z"/>
<path style="fill:#000000; stroke:none;" d="M40 60L40 70L60 70L60 60L40 60z"/>
<path style="fill:#ffffff; stroke:none;" d="M100 60L100 70L110 70L110 60L100 60M90 70L90 80L100 80L100 70L90 70M20 90L20 100L30 100L30 90L20 90M40 90L40 110L60 110L60 100L70 100L70 90L40 90M80 90L80 100L90 100L90 90L80 90z"/>
</svg>
