<?xml version="1.0" standalone="yes"?>
<svg xmlns="http://www.w3.org/2000/svg" width="110" height="110">
<path style="fill:#000000; stroke:none;" d="M0 0L0 40L10 40L10 20L20 20L20 70L0 70L0 110L40 110L40 100L60 100L60 110L110 110L110 70L100 70L100 80L90 80L90 60L100 60L100 40L110 40L110 0L70 0L70 10L60 10L60 0L0 0z"/>
<path style="fill:#ffffff; stroke:none;" d="M60 0L60 10L70 10L70 0L60 0M20 10L20 20L30 20L30 10L20 10M80 10L80 20L90 20L90 10L80 10M10 20L10 40L0 40L0 70L20 70L20 20L10 20M30 30L30 80L80 80L80 30L30 30z"/>
<path style="fill:#000000; stroke:none;" d="M40 40L40 60L50 60L50 70L70 70L70 60L60 60L60 40L40 40z"/>
<path style="fill:#ffffff; stroke:none;" d="M100 40L100 60L90 60L90 80L100 80L100 70L110 70L110 40L100 40M10 80L10 90L20 90L20 80L10 80M30 90L30 100L40 100L40 90L30 90M70 90L70 100L90 100L90 90L70 90M40 100L40 110L60 110L60 100L40 100z"/>
</svg>
