<?xml version="1.0" standalone="yes"?>
<svg xmlns="http://www.w3.org/2000/svg" width="110" height="110">
<path style="fill:#000000; stroke:none;" d="M0 0L0 40L20 40L20 60L10 60L10 50L0 50L0 60L10 60L10 70L0 70L0 110L50 110L50 100L60 100L60 110L110 110L110 50L100 50L100 40L110 40L110 0L70 0L70 10L60 10L60 0L0 0z"/>
<path style="fill:#ffffff; stroke:none;" d="M60 0L60 10L70 10L70 0L60 0M20 10L20 20L30 20L30 10L20 10M40 10L40 20L50 20L50 10L40 10M70 10L70 20L90 20L90 30L100 30L100 20L90 20L90 10L70 10M30 30L30 80L80 80L80 30L30 30M0 40L0 50L10 50L10 60L20 60L20 40L0 40z"/>
<path style="fill:#000000; stroke:none;" d="M40 40L40 60L60 60L60 70L70 70L70 40L60 40L60 50L50 50L50 40L40 40z"/>
<path style="fill:#ffffff; stroke:none;" d="M100 40L100 50L110 50L110 40L100 40M0 60L0 70L10 70L10 60L0 60M10 70L10 90L20 90L20 100L30 100L30 90L20 90L20 70L10 70M90 70L90 90L70 90L70 100L90 100L90 90L100 90L100 70L90 70M40 90L40 100L50 100L50 90L40 90M50 100L50 110L60 110L60 100L50 100z"/>
</svg>
