<?xml version="1.0" standalone="yes"?>
<svg xmlns="http://www.w3.org/2000/svg" width="110" height="110">
<path style="fill:#000000; stroke:none;" d="M0 0L0 40L10 40L10 50L0 50L0 110L50 110L50 100L60 100L60 110L110 110L110 70L100 70L100 60L110 60L110 50L100 50L100 40L110 40L110 0L60 0L60 10L70 10L70 20L40 20L40 10L50 10L50 0L0 0z"/>
<path style="fill:#ffffff; stroke:none;" d="M50 0L50 10L40 10L40 20L70 20L70 10L60 10L60 0L50 0M20 10L20 20L10 20L10 30L20 30L20 20L30 20L30 10L20 10M30 30L30 80L80 80L80 30L30 30M0 40L0 50L10 50L10 40L0 40z"/>
<path style="fill:#000000; stroke:none;" d="M40 40L40 50L60 50L60 60L70 60L70 40L40 40z"/>
<path style="fill:#ffffff; stroke:none;" d="M100 40L100 50L110 50L110 40L100 40M90 50L90 60L100 60L100 50L90 50M100 60L100 70L110 70L110 60L100 60M10 70L10 90L20 90L20 100L40 100L40 90L20 90L20 70L10 70M90 80L90 90L100 90L100 80L90 80M50 100L50 110L60 110L60 100L50 100z"/>
</svg>
