<?xml version="1.0" standalone="yes"?>
<svg xmlns="http://www.w3.org/2000/svg" width="110" height="110">
<path style="fill:#000000; stroke:none;" d="M0 0L0 40L10 40L10 20L20 20L20 70L0 70L0 110L40 110L40 90L50 90L50 100L60 100L60 110L110 110L110 70L100 70L100 90L90 90L90 40L100 40L100 50L110 50L110 0L60 0L60 10L50 10L50 20L20 20L20 10L40 10L40 0L0 0z"/>
<path style="fill:#ffffff; stroke:none;" d="M40 0L40 10L20 10L20 20L50 20L50 10L60 10L60 0L40 0M60 10L60 20L70 20L70 10L60 10M10 20L10 40L0 40L0 70L20 70L20 20L10 20M30 30L30 80L80 80L80 30L30 30z"/>
<path style="fill:#000000; stroke:none;" d="M40 40L40 70L50 70L50 60L70 60L70 40L60 40L60 50L50 50L50 40L40 40z"/>
<path style="fill:#ffffff; stroke:none;" d="M90 40L90 90L100 90L100 70L110 70L110 50L100 50L100 40L90 40M40 90L40 110L60 110L60 100L50 100L50 90L40 90z"/>
</svg>
