<?xml version="1.0" standalone="yes"?>
<svg xmlns="http://www.w3.org/2000/svg" width="110" height="110">
<path style="fill:#000000; stroke:none;" d="M0 0L0 40L20 40L20 50L0 50L0 110L110 110L110 50L100 50L100 40L110 40L110 0L50 0L50 10L60 10L60 20L40 20L40 0L0 0z"/>
<path style="fill:#ffffff; stroke:none;" d="M40 0L40 20L60 20L60 10L50 10L50 0L40 0M80 10L80 20L90 20L90 10L80 10M10 20L10 30L20 30L20 20L10 20M30 30L30 80L80 80L80 30L30 30M90 30L90 40L100 40L100 30L90 30M0 40L0 50L20 50L20 40L0 40M100 40L100 50L110 50L110 40L100 40z"/>
<path style="fill:#000000; stroke:none;" d="M60 50L60 60L40 60L40 70L70 70L70 50L60 50z"/>
<path style="fill:#ffffff; stroke:none;" d="M10 60L10 70L20 70L20 60L10 60M90 60L90 80L100 80L100 60L90 60M10 80L10 90L20 90L20 100L30 100L30 90L20 90L20 80L10 80M50 90L50 100L90 100L90 90L50 90z"/>
</svg>
