<?xml version="1.0" standalone="yes"?>
<svg xmlns="http://www.w3.org/2000/svg" width="110" height="110">
<path style="fill:#000000; stroke:none;" d="M0 0L0 40L10 40L10 70L0 70L0 110L40 110L40 100L70 100L70 110L110 110L110 70L100 70L100 90L90 90L90 40L100 40L100 50L110 50L110 0L70 0L70 10L60 10L60 0L0 0z"/>
<path style="fill:#ffffff; stroke:none;" d="M60 0L60 10L70 10L70 0L60 0M50 10L50 20L60 20L60 10L50 10M80 10L80 20L90 20L90 30L100 30L100 20L90 20L90 10L80 10M30 30L30 80L80 80L80 30L30 30M0 40L0 70L10 70L10 40L0 40z"/>
<path style="fill:#000000; stroke:none;" d="M40 40L40 70L50 70L50 60L70 60L70 40L40 40z"/>
<path style="fill:#ffffff; stroke:none;" d="M90 40L90 90L100 90L100 70L110 70L110 50L100 50L100 40L90 40M30 90L30 100L40 100L40 90L30 90M70 90L70 100L80 100L80 90L70 90M40 100L40 110L70 110L70 100L40 100z"/>
</svg>
