<?xml version="1.0" standalone="yes"?>
<svg xmlns="http://www.w3.org/2000/svg" width="110" height="110">
<path style="fill:#000000; stroke:none;" d="M0 0L0 50L20 50L20 60L0 60L0 110L40 110L40 100L50 100L50 110L60 110L60 90L70 90L70 110L110 110L110 60L100 60L100 50L110 50L110 0L70 0L70 10L80 10L80 20L50 20L50 10L60 10L60 0L0 0z"/>
<path style="fill:#ffffff; stroke:none;" d="M60 0L60 10L50 10L50 20L80 20L80 10L70 10L70 0L60 0M20 10L20 20L30 20L30 10L20 10M30 30L30 80L80 80L80 30L30 30z"/>
<path style="fill:#000000; stroke:none;" d="M40 40L40 60L60 60L60 70L70 70L70 60L60 60L60 40L40 40z"/>
<path style="fill:#ffffff; stroke:none;" d="M0 50L0 60L20 60L20 50L0 50M100 50L100 60L110 60L110 50L100 50M10 70L10 90L20 90L20 70L10 70M90 70L90 80L100 80L100 70L90 70M30 90L30 100L40 100L40 90L30 90M60 90L60 110L70 110L70 90L60 90M40 100L40 110L50 110L50 100L40 100z"/>
</svg>
