<?xml version="1.0" standalone="yes"?>
<svg xmlns="http://www.w3.org/2000/svg" width="110" height="110">
<path style="fill:#000000; stroke:none;" d="M0 0L0 50L10 50L10 40L20 40L20 80L10 80L10 60L0 60L0 110L60 110L60 100L70 100L70 110L110 110L110 70L90 70L90 60L100 60L100 50L110 50L110 0L70 0L70 10L60 10L60 20L40 20L40 0L0 0z"/>
<path style="fill:#ffffff; stroke:none;" d="M40 0L40 20L60 20L60 10L70 10L70 0L40 0M70 10L70 20L90 20L90 50L100 50L100 20L90 20L90 10L70 10M30 30L30 80L80 80L80 30L30 30M10 40L10 50L0 50L0 60L10 60L10 80L20 80L20 40L10 40z"/>
<path style="fill:#000000; stroke:none;" d="M50 40L50 50L70 50L70 40L50 40z"/>
<path style="fill:#ffffff; stroke:none;" d="M100 50L100 60L90 60L90 70L110 70L110 50L100 50z"/>
<path style="fill:#000000; stroke:none;" d="M40 60L40 70L50 70L50 60L40 60z"/>
<path style="fill:#ffffff; stroke:none;" d="M90 80L90 90L80 90L80 100L90 100L90 90L100 90L100 80L90 80M30 90L30 100L50 100L50 90L30 90M60 100L60 110L70 110L70 100L60 100z"/>
</svg>
