<?xml version="1.0" standalone="yes"?>
<svg xmlns="http://www.w3.org/2000/svg" width="110" height="110">
<path style="fill:#000000; stroke:none;" d="M0 0L0 40L10 40L10 50L20 50L20 60L10 60L10 70L0 70L0 110L110 110L110 60L100 60L100 40L110 40L110 0L70 0L70 20L50 20L50 0L0 0z"/>
<path style="fill:#ffffff; stroke:none;" d="M50 0L50 20L70 20L70 0L50 0M20 10L20 20L40 20L40 10L20 10M80 10L80 20L90 20L90 40L100 40L100 20L90 20L90 10L80 10M30 30L30 80L80 80L80 30L30 30M0 40L0 70L10 70L10 60L20 60L20 50L10 50L10 40L0 40M100 40L100 60L110 60L110 40L100 40z"/>
<path style="fill:#000000; stroke:none;" d="M40 50L40 60L70 60L70 50L40 50z"/>
<path style="fill:#ffffff; stroke:none;" d="M90 60L90 70L100 70L100 60L90 60M10 80L10 90L20 90L20 100L40 100L40 90L20 90L20 80L10 80M90 80L90 90L100 90L100 80L90 80M50 90L50 100L60 100L60 90L50 90z"/>
</svg>
