<?xml version="1.0" standalone="yes"?>
<svg xmlns="http://www.w3.org/2000/svg" width="110" height="110">
<path style="fill:#000000; stroke:none;" d="M0 0L0 60L10 60L10 30L20 30L20 80L10 80L10 70L0 70L0 110L60 110L60 100L50 100L50 90L70 90L70 110L110 110L110 50L100 50L100 40L110 40L110 0L60 0L60 20L20 20L20 10L50 10L50 0L0 0z"/>
<path style="fill:#ffffff; stroke:none;" d="M50 0L50 10L20 10L20 20L60 20L60 0L50 0M70 10L70 20L90 20L90 10L70 10M10 30L10 60L0 60L0 70L10 70L10 80L20 80L20 30L10 30M30 30L30 80L80 80L80 30L30 30z"/>
<path style="fill:#000000; stroke:none;" d="M50 40L50 50L40 50L40 60L50 60L50 50L60 50L60 60L70 60L70 50L60 50L60 40L50 40z"/>
<path style="fill:#ffffff; stroke:none;" d="M100 40L100 50L110 50L110 40L100 40M90 50L90 60L100 60L100 50L90 50M90 70L90 90L100 90L100 70L90 70M20 90L20 100L30 100L30 90L20 90M50 90L50 100L60 100L60 110L70 110L70 90L50 90z"/>
</svg>
