<?xml version="1.0" standalone="yes"?>
<svg xmlns="http://www.w3.org/2000/svg" width="110" height="110">
<path style="fill:#000000; stroke:none;" d="M0 0L0 40L20 40L20 70L10 70L10 60L0 60L0 110L40 110L40 100L30 100L30 90L50 90L50 110L110 110L110 70L100 70L100 90L90 90L90 60L110 60L110 50L90 50L90 30L100 30L100 40L110 40L110 0L0 0z"/>
<path style="fill:#ffffff; stroke:none;" d="M30 10L30 20L70 20L70 10L30 10M80 10L80 20L90 20L90 10L80 10M10 20L10 30L20 30L20 20L10 20M30 30L30 80L80 80L80 30L30 30M90 30L90 50L110 50L110 40L100 40L100 30L90 30M0 40L0 60L10 60L10 70L20 70L20 40L0 40z"/>
<path style="fill:#000000; stroke:none;" d="M50 40L50 50L40 50L40 70L50 70L50 50L60 50L60 70L70 70L70 50L60 50L60 40L50 40z"/>
<path style="fill:#ffffff; stroke:none;" d="M90 60L90 90L100 90L100 70L110 70L110 60L90 60M10 80L10 90L20 90L20 80L10 80M30 90L30 100L40 100L40 110L50 110L50 90L30 90M60 90L60 100L80 100L80 90L60 90z"/>
</svg>
