<?xml version="1.0" standalone="yes"?>
<svg xmlns="http://www.w3.org/2000/svg" width="110" height="110">
<path style="fill:#000000; stroke:none;" d="M0 0L0 110L40 110L40 100L20 100L20 90L50 90L50 100L60 100L60 90L70 90L70 110L110 110L110 60L90 60L90 50L110 50L110 0L70 0L70 10L90 10L90 20L60 20L60 0L0 0z"/>
<path style="fill:#ffffff; stroke:none;" d="M60 0L60 20L90 20L90 10L70 10L70 0L60 0M20 10L20 20L10 20L10 40L20 40L20 20L40 20L40 10L20 10M30 30L30 80L80 80L80 30L30 30M90 30L90 40L100 40L100 30L90 30z"/>
<path style="fill:#000000; stroke:none;" d="M40 40L40 70L50 70L50 50L60 50L60 40L40 40z"/>
<path style="fill:#ffffff; stroke:none;" d="M10 50L10 80L20 80L20 50L10 50M90 50L90 60L110 60L110 50L90 50M90 80L90 90L100 90L100 80L90 80M20 90L20 100L40 100L40 110L70 110L70 90L60 90L60 100L50 100L50 90L20 90z"/>
</svg>
