<?xml version="1.0" standalone="yes"?>
<svg xmlns="http://www.w3.org/2000/svg" width="110" height="110">
<path style="fill:#000000; stroke:none;" d="M0 0L0 50L10 50L10 60L20 60L20 70L0 70L0 110L110 110L110 70L100 70L100 60L90 60L90 40L100 40L100 50L110 50L110 0L0 0z"/>
<path style="fill:#ffffff; stroke:none;" d="M40 10L40 20L50 20L50 10L40 10M80 10L80 20L90 20L90 10L80 10M10 30L10 50L20 50L20 30L10 30M30 30L30 80L80 80L80 30L30 30z"/>
<path style="fill:#000000; stroke:none;" d="M50 40L50 50L40 50L40 60L50 60L50 70L60 70L60 60L70 60L70 40L50 40z"/>
<path style="fill:#ffffff; stroke:none;" d="M90 40L90 60L100 60L100 70L110 70L110 50L100 50L100 40L90 40M0 50L0 70L20 70L20 60L10 60L10 50L0 50M90 80L90 90L100 90L100 80L90 80M30 90L30 100L50 100L50 90L30 90M60 90L60 100L80 100L80 90L60 90z"/>
</svg>
