<?xml version="1.0" standalone="yes"?>
<svg xmlns="http://www.w3.org/2000/svg" width="110" height="110">
<path style="fill:#000000; stroke:none;" d="M0 0L0 50L20 50L20 60L0 60L0 110L110 110L110 70L100 70L100 50L90 50L90 40L110 40L110 0L50 0L50 10L40 10L40 0L0 0z"/>
<path style="fill:#ffffff; stroke:none;" d="M40 0L40 10L50 10L50 0L40 0M60 10L60 20L90 20L90 30L100 30L100 20L90 20L90 10L60 10M30 30L30 80L80 80L80 30L30 30z"/>
<path style="fill:#000000; stroke:none;" d="M40 40L40 70L50 70L50 60L70 60L70 40L60 40L60 50L50 50L50 40L40 40z"/>
<path style="fill:#ffffff; stroke:none;" d="M90 40L90 50L100 50L100 70L110 70L110 40L90 40M0 50L0 60L20 60L20 50L0 50M90 70L90 80L100 80L100 70L90 70M10 80L10 90L20 90L20 100L50 100L50 90L20 90L20 80L10 80M60 90L60 100L90 100L90 90L60 90z"/>
</svg>
