<?xml version="1.0" standalone="yes"?>
<svg xmlns="http://www.w3.org/2000/svg" width="110" height="110">
<path style="fill:#000000; stroke:none;" d="M0 0L0 110L40 110L40 100L20 100L20 90L50 90L50 110L110 110L110 70L100 70L100 50L90 50L90 30L100 30L100 40L110 40L110 0L70 0L70 10L40 10L40 0L0 0z"/>
<path style="fill:#ffffff; stroke:none;" d="M40 0L40 10L70 10L70 0L40 0M70 10L70 20L90 20L90 10L70 10M10 30L10 40L20 40L20 30L10 30M30 30L30 80L80 80L80 30L30 30M90 30L90 50L100 50L100 70L110 70L110 40L100 40L100 30L90 30z"/>
<path style="fill:#000000; stroke:none;" d="M60 40L60 50L70 50L70 40L60 40z"/>
<path style="fill:#ffffff; stroke:none;" d="M10 50L10 60L20 60L20 50L10 50z"/>
<path style="fill:#000000; stroke:none;" d="M40 60L40 70L70 70L70 60L40 60z"/>
<path style="fill:#ffffff; stroke:none;" d="M90 70L90 80L100 80L100 70L90 70M10 80L10 90L20 90L20 80L10 80M20 90L20 100L40 100L40 110L50 110L50 90L20 90M60 90L60 100L80 100L80 90L60 90z"/>
</svg>
