<?xml version="1.0" standalone="yes"?>
<svg xmlns="http://www.w3.org/2000/svg" width="110" height="110">
<path style="fill:#000000; stroke:none;" d="M0 0L0 50L10 50L10 60L20 60L20 80L10 80L10 70L0 70L0 110L110 110L110 60L100 60L100 70L90 70L90 20L100 20L100 40L110 40L110 0L70 0L70 20L60 20L60 0L0 0z"/>
<path style="fill:#ffffff; stroke:none;" d="M60 0L60 20L70 20L70 0L60 0M20 10L20 20L40 20L40 10L20 10M80 10L80 20L90 20L90 10L80 10M90 20L90 70L100 70L100 60L110 60L110 40L100 40L100 20L90 20M10 30L10 40L20 40L20 30L10 30M30 30L30 80L80 80L80 30L30 30M0 50L0 70L10 70L10 80L20 80L20 60L10 60L10 50L0 50z"/>
<path style="fill:#000000; stroke:none;" d="M40 50L40 60L50 60L50 70L60 70L60 50L40 50z"/>
<path style="fill:#ffffff; stroke:none;" d="M40 90L40 100L50 100L50 90L40 90M70 90L70 100L80 100L80 90L70 90z"/>
</svg>
