<?xml version="1.0" standalone="yes"?>
<svg xmlns="http://www.w3.org/2000/svg" width="110" height="110">
<path style="fill:#000000; stroke:none;" d="M0 0L0 40L10 40L10 50L20 50L20 70L0 70L0 110L40 110L40 100L20 100L20 90L50 90L50 110L60 110L60 100L70 100L70 110L110 110L110 70L90 70L90 60L110 60L110 0L70 0L70 20L60 20L60 0L50 0L50 10L40 10L40 0L0 0z"/>
<path style="fill:#ffffff; stroke:none;" d="M40 0L40 10L50 10L50 0L40 0M60 0L60 20L70 20L70 0L60 0M30 30L30 80L80 80L80 30L30 30M90 30L90 50L100 50L100 30L90 30M0 40L0 70L20 70L20 50L10 50L10 40L0 40z"/>
<path style="fill:#000000; stroke:none;" d="M40 40L40 50L50 50L50 70L60 70L60 60L70 60L70 50L50 50L50 40L40 40z"/>
<path style="fill:#ffffff; stroke:none;" d="M90 60L90 70L110 70L110 60L90 60M10 80L10 90L20 90L20 80L10 80M20 90L20 100L40 100L40 110L50 110L50 90L20 90M70 90L70 100L90 100L90 90L70 90M60 100L60 110L70 110L70 100L60 100z"/>
</svg>
