<?xml version="1.0" standalone="yes"?>
<svg xmlns="http://www.w3.org/2000/svg" width="110" height="110">
<path style="fill:#000000; stroke:none;" d="M0 0L0 50L10 50L10 40L20 40L20 90L10 90L10 60L0 60L0 110L40 110L40 90L90 90L90 100L50 100L50 110L110 110L110 70L100 70L100 50L90 50L90 40L110 40L110 0L60 0L60 10L50 10L50 20L30 20L30 10L40 10L40 0L0 0z"/>
<path style="fill:#ffffff; stroke:none;" d="M40 0L40 10L30 10L30 20L50 20L50 10L60 10L60 0L40 0M60 10L60 20L80 20L80 10L60 10M30 30L30 80L80 80L80 30L30 30M10 40L10 50L0 50L0 60L10 60L10 90L20 90L20 40L10 40z"/>
<path style="fill:#000000; stroke:none;" d="M50 40L50 50L40 50L40 70L70 70L70 60L60 60L60 40L50 40z"/>
<path style="fill:#ffffff; stroke:none;" d="M90 40L90 50L100 50L100 70L110 70L110 40L90 40M90 70L90 90L100 90L100 70L90 70M40 90L40 110L50 110L50 100L90 100L90 90L40 90z"/>
</svg>
