<?xml version="1.0" standalone="yes"?>
<svg xmlns="http://www.w3.org/2000/svg" width="110" height="110">
<path style="fill:#000000; stroke:none;" d="M0 0L0 60L10 60L10 70L0 70L0 110L110 110L110 70L100 70L100 60L110 60L110 0L70 0L70 10L60 10L60 20L50 20L50 0L0 0z"/>
<path style="fill:#ffffff; stroke:none;" d="M50 0L50 20L60 20L60 10L70 10L70 0L50 0M20 10L20 20L10 20L10 30L20 30L20 20L30 20L30 10L20 10M70 10L70 20L90 20L90 10L70 10M30 30L30 80L80 80L80 30L30 30z"/>
<path style="fill:#000000; stroke:none;" d="M40 40L40 70L50 70L50 60L70 60L70 50L60 50L60 40L40 40z"/>
<path style="fill:#ffffff; stroke:none;" d="M90 50L90 60L100 60L100 50L90 50M0 60L0 70L10 70L10 60L0 60M100 60L100 70L110 70L110 60L100 60M10 70L10 90L20 90L20 70L10 70M90 80L90 90L100 90L100 80L90 80M30 90L30 100L50 100L50 90L30 90M60 90L60 100L70 100L70 90L60 90z"/>
</svg>
