<?xml version="1.0" standalone="yes"?>
<svg xmlns="http://www.w3.org/2000/svg" width="110" height="110">
<path style="fill:#000000; stroke:none;" d="M0 0L0 50L20 50L20 90L10 90L10 70L0 70L0 110L50 110L50 90L80 90L80 100L60 100L60 110L110 110L110 60L100 60L100 50L110 50L110 0L70 0L70 10L60 10L60 20L50 20L50 0L0 0z"/>
<path style="fill:#ffffff; stroke:none;" d="M50 0L50 20L60 20L60 10L70 10L70 0L50 0M20 10L20 20L10 20L10 30L20 30L20 20L30 20L30 10L20 10M70 10L70 20L90 20L90 40L100 40L100 20L90 20L90 10L70 10M30 30L30 80L80 80L80 30L30 30z"/>
<path style="fill:#000000; stroke:none;" d="M40 40L40 50L60 50L60 60L40 60L40 70L60 70L60 60L70 60L70 40L40 40z"/>
<path style="fill:#ffffff; stroke:none;" d="M0 50L0 70L10 70L10 90L20 90L20 50L0 50M100 50L100 60L110 60L110 50L100 50M90 60L90 90L100 90L100 60L90 60M30 90L30 100L40 100L40 90L30 90M50 90L50 110L60 110L60 100L80 100L80 90L50 90z"/>
</svg>
