<?xml version="1.0" standalone="yes"?>
<svg xmlns="http://www.w3.org/2000/svg" width="110" height="110">
<path style="fill:#000000; stroke:none;" d="M0 0L0 50L20 50L20 70L0 70L0 110L40 110L40 100L50 100L50 110L110 110L110 60L100 60L100 80L90 80L90 50L110 50L110 0L50 0L50 10L60 10L60 20L20 20L20 10L40 10L40 0L0 0z"/>
<path style="fill:#ffffff; stroke:none;" d="M40 0L40 10L20 10L20 20L60 20L60 10L50 10L50 0L40 0M70 10L70 20L80 20L80 10L70 10M10 30L10 40L20 40L20 30L10 30M30 30L30 80L80 80L80 30L30 30M90 30L90 40L100 40L100 30L90 30z"/>
<path style="fill:#000000; stroke:none;" d="M40 40L40 50L60 50L60 60L70 60L70 50L60 50L60 40L40 40z"/>
<path style="fill:#ffffff; stroke:none;" d="M0 50L0 70L20 70L20 50L0 50M90 50L90 80L100 80L100 60L110 60L110 50L90 50z"/>
<path style="fill:#000000; stroke:none;" d="M40 60L40 70L50 70L50 60L40 60z"/>
<path style="fill:#ffffff; stroke:none;" d="M10 80L10 90L20 90L20 100L40 100L40 90L20 90L20 80L10 80M60 90L60 100L80 100L80 90L60 90M40 100L40 110L50 110L50 100L40 100z"/>
</svg>
