<?xml version="1.0" standalone="yes"?>
<svg xmlns="http://www.w3.org/2000/svg" width="110" height="110">
<path style="fill:#000000; stroke:none;" d="M0 0L0 40L10 40L10 60L20 60L20 90L10 90L10 70L0 70L0 110L40 110L40 100L30 100L30 90L50 90L50 110L60 110L60 90L70 90L70 110L110 110L110 70L100 70L100 60L110 60L110 0L60 0L60 20L50 20L50 0L0 0z"/>
<path style="fill:#ffffff; stroke:none;" d="M50 0L50 20L60 20L60 0L50 0M30 10L30 20L40 20L40 10L30 10M70 10L70 20L90 20L90 30L100 30L100 20L90 20L90 10L70 10M10 20L10 30L20 30L20 20L10 20M30 30L30 80L80 80L80 30L30 30M0 40L0 70L10 70L10 90L20 90L20 60L10 60L10 40L0 40z"/>
<path style="fill:#000000; stroke:none;" d="M50 40L50 50L40 50L40 60L50 60L50 50L70 50L70 40L50 40z"/>
<path style="fill:#ffffff; stroke:none;" d="M90 50L90 60L100 60L100 50L90 50M100 60L100 70L110 70L110 60L100 60M30 90L30 100L40 100L40 110L50 110L50 90L30 90M60 90L60 110L70 110L70 90L60 90M80 90L80 100L90 100L90 90L80 90z"/>
</svg>
