<?xml version="1.0" standalone="yes"?>
<svg xmlns="http://www.w3.org/2000/svg" width="110" height="110">
<path style="fill:#000000; stroke:none;" d="M0 0L0 40L20 40L20 50L0 50L0 110L60 110L60 90L70 90L70 110L110 110L110 70L100 70L100 80L90 80L90 60L110 60L110 50L100 50L100 40L110 40L110 0L70 0L70 10L50 10L50 20L30 20L30 10L40 10L40 0L0 0z"/>
<path style="fill:#ffffff; stroke:none;" d="M40 0L40 10L30 10L30 20L50 20L50 10L70 10L70 0L40 0M70 10L70 20L80 20L80 10L70 10M10 20L10 30L20 30L20 20L10 20M30 30L30 80L80 80L80 30L30 30M90 30L90 40L100 40L100 30L90 30M0 40L0 50L20 50L20 40L0 40z"/>
<path style="fill:#000000; stroke:none;" d="M50 40L50 50L60 50L60 60L50 60L50 70L70 70L70 50L60 50L60 40L50 40z"/>
<path style="fill:#ffffff; stroke:none;" d="M100 40L100 50L110 50L110 40L100 40M90 60L90 80L100 80L100 70L110 70L110 60L90 60M10 80L10 90L20 90L20 80L10 80M30 90L30 100L50 100L50 90L30 90M60 90L60 110L70 110L70 90L60 90M80 90L80 100L90 100L90 90L80 90z"/>
</svg>
