<?xml version="1.0" standalone="yes"?>
<svg xmlns="http://www.w3.org/2000/svg" width="110" height="110">
<path style="fill:#000000; stroke:none;" d="M0 0L0 110L50 110L50 100L70 100L70 110L110 110L110 60L100 60L100 50L90 50L90 30L100 30L100 40L110 40L110 0L0 0z"/>
<path style="fill:#ffffff; stroke:none;" d="M20 10L20 20L10 20L10 80L20 80L20 20L30 20L30 10L20 10M40 10L40 20L50 20L50 10L40 10M60 10L60 20L80 20L80 10L60 10M30 30L30 80L80 80L80 30L30 30M90 30L90 50L100 50L100 60L110 60L110 40L100 40L100 30L90 30z"/>
<path style="fill:#000000; stroke:none;" d="M40 40L40 60L60 60L60 50L70 50L70 40L40 40z"/>
<path style="fill:#ffffff; stroke:none;" d="M90 60L90 70L100 70L100 60L90 60M90 80L90 90L100 90L100 80L90 80M40 90L40 100L50 100L50 90L40 90M50 100L50 110L70 110L70 100L50 100z"/>
</svg>
