<?xml version="1.0" standalone="yes"?>
<svg xmlns="http://www.w3.org/2000/svg" width="110" height="110">
<path style="fill:#000000; stroke:none;" d="M0 0L0 60L10 60L10 70L0 70L0 110L50 110L50 100L60 100L60 90L70 90L70 110L110 110L110 50L90 50L90 20L100 20L100 40L110 40L110 0L70 0L70 10L50 10L50 0L0 0z"/>
<path style="fill:#ffffff; stroke:none;" d="M50 0L50 10L70 10L70 0L50 0M30 10L30 20L40 20L40 10L30 10M90 20L90 50L110 50L110 40L100 40L100 20L90 20M10 30L10 40L20 40L20 30L10 30M30 30L30 80L80 80L80 30L30 30z"/>
<path style="fill:#000000; stroke:none;" d="M60 40L60 50L40 50L40 60L60 60L60 70L70 70L70 40L60 40z"/>
<path style="fill:#ffffff; stroke:none;" d="M0 60L0 70L10 70L10 60L0 60M90 60L90 80L100 80L100 60L90 60M40 90L40 100L50 100L50 90L40 90M60 90L60 100L50 100L50 110L70 110L70 90L60 90M80 90L80 100L90 100L90 90L80 90z"/>
</svg>
