<?xml version="1.0" standalone="yes"?>
<svg xmlns="http://www.w3.org/2000/svg" width="110" height="110">
<path style="fill:#000000; stroke:none;" d="M0 0L0 60L10 60L10 50L20 50L20 80L10 80L10 70L0 70L0 110L50 110L50 90L80 90L80 100L60 100L60 110L110 110L110 50L100 50L100 40L110 40L110 0L50 0L50 20L30 20L30 10L40 10L40 0L0 0z"/>
<path style="fill:#ffffff; stroke:none;" d="M40 0L40 10L30 10L30 20L50 20L50 0L40 0M60 10L60 20L70 20L70 10L60 10M90 20L90 30L100 30L100 20L90 20M30 30L30 80L80 80L80 30L30 30M100 40L100 50L110 50L110 40L100 40M10 50L10 60L0 60L0 70L10 70L10 80L20 80L20 50L10 50z"/>
<path style="fill:#000000; stroke:none;" d="M40 50L40 60L50 60L50 70L60 70L60 50L40 50z"/>
<path style="fill:#ffffff; stroke:none;" d="M90 50L90 70L100 70L100 50L90 50M90 80L90 90L100 90L100 80L90 80M50 90L50 110L60 110L60 100L80 100L80 90L50 90z"/>
</svg>
