<?xml version="1.0" standalone="yes"?>
<svg xmlns="http://www.w3.org/2000/svg" width="110" height="110">
<path style="fill:#000000; stroke:none;" d="M0 0L0 40L10 40L10 50L20 50L20 90L10 90L10 60L0 60L0 110L40 110L40 100L20 100L20 90L80 90L80 100L70 100L70 110L110 110L110 70L100 70L100 80L90 80L90 60L110 60L110 0L70 0L70 10L90 10L90 20L60 20L60 10L40 10L40 0L0 0z"/>
<path style="fill:#ffffff; stroke:none;" d="M40 0L40 10L60 10L60 20L90 20L90 10L70 10L70 0L40 0M20 10L20 20L40 20L40 10L20 10M10 30L10 40L20 40L20 30L10 30M30 30L30 80L80 80L80 30L30 30M90 30L90 40L100 40L100 30L90 30M0 40L0 60L10 60L10 90L20 90L20 50L10 50L10 40L0 40z"/>
<path style="fill:#000000; stroke:none;" d="M50 40L50 50L60 50L60 40L50 40M40 60L40 70L50 70L50 60L40 60M60 60L60 70L70 70L70 60L60 60z"/>
<path style="fill:#ffffff; stroke:none;" d="M90 60L90 80L100 80L100 70L110 70L110 60L90 60M20 90L20 100L40 100L40 110L50 110L50 100L60 100L60 110L70 110L70 100L80 100L80 90L20 90z"/>
<path style="fill:#000000; stroke:none;" d="M50 100L50 110L60 110L60 100L50 100z"/>
</svg>
