<?xml version="1.0" standalone="yes"?>
<svg xmlns="http://www.w3.org/2000/svg" width="110" height="110">
<path style="fill:#000000; stroke:none;" d="M0 0L0 40L10 40L10 50L0 50L0 60L10 60L10 70L0 70L0 110L40 110L40 100L30 100L30 90L50 90L50 100L70 100L70 110L110 110L110 50L100 50L100 40L110 40L110 0L70 0L70 10L80 10L80 20L40 20L40 0L0 0z"/>
<path style="fill:#ffffff; stroke:none;" d="M40 0L40 20L80 20L80 10L70 10L70 0L40 0M90 20L90 30L100 30L100 20L90 20M30 30L30 80L80 80L80 30L30 30M0 40L0 50L10 50L10 40L0 40z"/>
<path style="fill:#000000; stroke:none;" d="M40 40L40 70L70 70L70 50L50 50L50 40L40 40z"/>
<path style="fill:#ffffff; stroke:none;" d="M100 40L100 50L110 50L110 40L100 40M10 50L10 60L20 60L20 50L10 50M90 50L90 60L100 60L100 50L90 50M0 60L0 70L10 70L10 60L0 60M10 70L10 80L20 80L20 70L10 70M90 70L90 90L100 90L100 70L90 70M30 90L30 100L40 100L40 110L70 110L70 100L50 100L50 90L30 90z"/>
</svg>
