<?xml version="1.0" standalone="yes"?>
<svg xmlns="http://www.w3.org/2000/svg" width="110" height="110">
<path style="fill:#000000; stroke:none;" d="M0 0L0 40L20 40L20 60L10 60L10 70L0 70L0 110L40 110L40 100L60 100L60 110L110 110L110 70L100 70L100 60L110 60L110 0L50 0L50 10L40 10L40 0L0 0z"/>
<path style="fill:#ffffff; stroke:none;" d="M40 0L40 10L50 10L50 0L40 0M20 10L20 20L30 20L30 10L20 10M50 10L50 20L60 20L60 10L50 10M70 10L70 20L90 20L90 10L70 10M30 30L30 80L80 80L80 30L30 30M90 30L90 50L100 50L100 30L90 30M0 40L0 70L10 70L10 60L20 60L20 40L0 40z"/>
<path style="fill:#000000; stroke:none;" d="M50 40L50 50L40 50L40 70L60 70L60 60L70 60L70 40L50 40z"/>
<path style="fill:#ffffff; stroke:none;" d="M100 60L100 70L110 70L110 60L100 60M90 70L90 90L60 90L60 100L90 100L90 90L100 90L100 70L90 70M10 80L10 90L20 90L20 100L40 100L40 90L20 90L20 80L10 80M40 100L40 110L60 110L60 100L40 100z"/>
</svg>
