<?xml version="1.0" standalone="yes"?>
<svg xmlns="http://www.w3.org/2000/svg" width="110" height="110">
<path style="fill:#000000; stroke:none;" d="M0 0L0 110L40 110L40 100L60 100L60 90L70 90L70 110L110 110L110 0L0 0z"/>
<path style="fill:#ffffff; stroke:none;" d="M20 10L20 20L40 20L40 10L20 10M80 10L80 20L90 20L90 10L80 10M10 30L10 40L20 40L20 30L10 30M30 30L30 80L80 80L80 30L30 30M90 30L90 90L100 90L100 30L90 30z"/>
<path style="fill:#000000; stroke:none;" d="M50 50L50 60L40 60L40 70L50 70L50 60L60 60L60 70L70 70L70 60L60 60L60 50L50 50z"/>
<path style="fill:#ffffff; stroke:none;" d="M10 70L10 90L20 90L20 70L10 70M30 90L30 100L40 100L40 90L30 90M60 90L60 100L40 100L40 110L70 110L70 90L60 90z"/>
</svg>
