<?xml version="1.0" standalone="yes"?>
<svg xmlns="http://www.w3.org/2000/svg" width="110" height="110">
<path style="fill:#000000; stroke:none;" d="M0 0L0 40L10 40L10 50L0 50L0 60L10 60L10 70L0 70L0 110L50 110L50 90L60 90L60 100L70 100L70 110L110 110L110 60L90 60L90 40L110 40L110 0L70 0L70 20L60 20L60 0L50 0L50 20L20 20L20 10L40 10L40 0L0 0z"/>
<path style="fill:#ffffff; stroke:none;" d="M40 0L40 10L20 10L20 20L50 20L50 0L40 0M60 0L60 20L70 20L70 0L60 0M90 20L90 30L100 30L100 20L90 20M30 30L30 80L80 80L80 30L30 30M0 40L0 50L10 50L10 40L0 40z"/>
<path style="fill:#000000; stroke:none;" d="M50 40L50 50L40 50L40 60L50 60L50 70L70 70L70 50L60 50L60 40L50 40z"/>
<path style="fill:#ffffff; stroke:none;" d="M90 40L90 60L110 60L110 40L90 40M10 50L10 60L20 60L20 50L10 50M50 50L50 60L60 60L60 50L50 50M0 60L0 70L10 70L10 60L0 60M90 70L90 90L80 90L80 100L90 100L90 90L100 90L100 70L90 70M10 80L10 90L20 90L20 100L40 100L40 90L20 90L20 80L10 80M50 90L50 110L70 110L70 100L60 100L60 90L50 90z"/>
</svg>
