<?xml version="1.0" standalone="yes"?>
<svg xmlns="http://www.w3.org/2000/svg" width="110" height="110">
<path style="fill:#000000; stroke:none;" d="M0 0L0 40L10 40L10 30L20 30L20 80L10 80L10 50L0 50L0 110L110 110L110 70L100 70L100 60L110 60L110 0L60 0L60 10L50 10L50 0L0 0z"/>
<path style="fill:#ffffff; stroke:none;" d="M50 0L50 10L60 10L60 0L50 0M40 10L40 20L50 20L50 10L40 10M80 10L80 20L90 20L90 10L80 10M10 30L10 40L0 40L0 50L10 50L10 80L20 80L20 30L10 30M30 30L30 80L80 80L80 30L30 30M90 30L90 40L100 40L100 30L90 30z"/>
<path style="fill:#000000; stroke:none;" d="M40 40L40 70L60 70L60 60L50 60L50 40L40 40z"/>
<path style="fill:#ffffff; stroke:none;" d="M100 60L100 70L110 70L110 60L100 60M90 70L90 90L100 90L100 70L90 70M20 90L20 100L40 100L40 90L20 90M50 90L50 100L80 100L80 90L50 90z"/>
</svg>
