<?xml version="1.0" standalone="yes"?>
<svg xmlns="http://www.w3.org/2000/svg" width="110" height="110">
<path style="fill:#000000; stroke:none;" d="M0 0L0 50L10 50L10 60L20 60L20 80L10 80L10 70L0 70L0 110L110 110L110 70L100 70L100 60L90 60L90 20L100 20L100 40L110 40L110 0L50 0L50 20L40 20L40 0L0 0z"/>
<path style="fill:#ffffff; stroke:none;" d="M40 0L40 20L50 20L50 0L40 0M10 20L10 40L20 40L20 20L10 20M90 20L90 60L100 60L100 70L110 70L110 40L100 40L100 20L90 20M30 30L30 80L80 80L80 30L30 30z"/>
<path style="fill:#000000; stroke:none;" d="M40 40L40 50L50 50L50 40L40 40M60 40L60 70L70 70L70 40L60 40z"/>
<path style="fill:#ffffff; stroke:none;" d="M0 50L0 70L10 70L10 80L20 80L20 60L10 60L10 50L0 50M90 70L90 90L100 90L100 70L90 70M20 90L20 100L50 100L50 90L20 90M60 90L60 100L80 100L80 90L60 90z"/>
</svg>
