<?xml version="1.0" standalone="yes"?>
<svg xmlns="http://www.w3.org/2000/svg" width="110" height="110">
<path style="fill:#000000; stroke:none;" d="M0 0L0 50L20 50L20 60L10 60L10 70L0 70L0 110L60 110L60 100L70 100L70 110L110 110L110 0L70 0L70 20L50 20L50 10L40 10L40 0L0 0z"/>
<path style="fill:#ffffff; stroke:none;" d="M40 0L40 10L50 10L50 20L70 20L70 0L40 0M80 10L80 20L90 20L90 10L80 10M10 20L10 40L20 40L20 20L10 20M30 30L30 80L80 80L80 30L30 30M0 50L0 70L10 70L10 60L20 60L20 50L0 50z"/>
<path style="fill:#000000; stroke:none;" d="M40 50L40 70L60 70L60 50L40 50z"/>
<path style="fill:#ffffff; stroke:none;" d="M90 50L90 60L100 60L100 50L90 50M10 70L10 90L20 90L20 100L40 100L40 90L20 90L20 70L10 70M50 90L50 100L60 100L60 90L50 90M70 90L70 100L90 100L90 90L70 90M60 100L60 110L70 110L70 100L60 100z"/>
</svg>
