<?xml version="1.0" standalone="yes"?>
<svg xmlns="http://www.w3.org/2000/svg" width="110" height="110">
<path style="fill:#000000; stroke:none;" d="M0 0L0 60L10 60L10 50L20 50L20 90L10 90L10 70L0 70L0 110L110 110L110 70L90 70L90 60L110 60L110 50L90 50L90 40L110 40L110 0L70 0L70 10L60 10L60 0L0 0z"/>
<path style="fill:#ffffff; stroke:none;" d="M60 0L60 10L70 10L70 0L60 0M70 10L70 20L90 20L90 10L70 10M10 20L10 40L20 40L20 20L10 20M30 30L30 80L80 80L80 30L30 30z"/>
<path style="fill:#000000; stroke:none;" d="M50 40L50 50L70 50L70 40L50 40z"/>
<path style="fill:#ffffff; stroke:none;" d="M90 40L90 50L110 50L110 40L90 40M10 50L10 60L0 60L0 70L10 70L10 90L20 90L20 50L10 50z"/>
<path style="fill:#000000; stroke:none;" d="M50 60L50 70L70 70L70 60L50 60z"/>
<path style="fill:#ffffff; stroke:none;" d="M90 60L90 70L110 70L110 60L90 60M90 80L90 90L100 90L100 80L90 80M30 90L30 100L40 100L40 90L30 90z"/>
</svg>
