<?xml version="1.0" standalone="yes"?>
<svg xmlns="http://www.w3.org/2000/svg" width="110" height="110">
<path style="fill:#000000; stroke:none;" d="M0 0L0 40L10 40L10 50L20 50L20 60L10 60L10 70L0 70L0 110L50 110L50 100L70 100L70 110L110 110L110 50L90 50L90 30L100 30L100 40L110 40L110 0L50 0L50 10L40 10L40 0L0 0z"/>
<path style="fill:#ffffff; stroke:none;" d="M40 0L40 10L50 10L50 0L40 0M20 10L20 20L30 20L30 10L20 10M50 10L50 20L60 20L60 10L50 10M70 10L70 20L90 20L90 10L70 10M10 30L10 40L20 40L20 30L10 30M30 30L30 80L80 80L80 30L30 30M90 30L90 50L110 50L110 40L100 40L100 30L90 30M0 40L0 70L10 70L10 60L20 60L20 50L10 50L10 40L0 40z"/>
<path style="fill:#000000; stroke:none;" d="M50 40L50 50L60 50L60 40L50 40M40 60L40 70L60 70L60 60L40 60z"/>
<path style="fill:#ffffff; stroke:none;" d="M90 60L90 90L100 90L100 60L90 60M10 70L10 90L20 90L20 70L10 70M70 90L70 100L80 100L80 90L70 90M50 100L50 110L70 110L70 100L50 100z"/>
</svg>
