<?xml version="1.0" standalone="yes"?>
<svg xmlns="http://www.w3.org/2000/svg" width="110" height="110">
<path style="fill:#000000; stroke:none;" d="M0 0L0 40L10 40L10 30L20 30L20 60L10 60L10 50L0 50L0 110L50 110L50 90L60 90L60 100L70 100L70 110L110 110L110 70L100 70L100 80L90 80L90 60L110 60L110 0L0 0z"/>
<path style="fill:#ffffff; stroke:none;" d="M40 10L40 20L70 20L70 10L40 10M90 20L90 30L100 30L100 20L90 20M10 30L10 40L0 40L0 50L10 50L10 60L20 60L20 30L10 30M30 30L30 80L80 80L80 30L30 30z"/>
<path style="fill:#000000; stroke:none;" d="M40 40L40 50L60 50L60 40L40 40z"/>
<path style="fill:#ffffff; stroke:none;" d="M90 40L90 50L100 50L100 40L90 40z"/>
<path style="fill:#000000; stroke:none;" d="M50 60L50 70L70 70L70 60L50 60z"/>
<path style="fill:#ffffff; stroke:none;" d="M90 60L90 80L100 80L100 70L110 70L110 60L90 60M10 80L10 90L20 90L20 80L10 80M30 90L30 100L40 100L40 90L30 90M50 90L50 110L70 110L70 100L60 100L60 90L50 90M70 90L70 100L80 100L80 90L70 90z"/>
</svg>
