<?xml version="1.0" standalone="yes"?>
<svg xmlns="http://www.w3.org/2000/svg" width="110" height="110">
<path style="fill:#000000; stroke:none;" d="M0 0L0 110L40 110L40 100L60 100L60 90L70 90L70 110L110 110L110 50L100 50L100 40L110 40L110 0L70 0L70 10L80 10L80 20L40 20L40 0L0 0z"/>
<path style="fill:#ffffff; stroke:none;" d="M40 0L40 20L80 20L80 10L70 10L70 0L40 0M20 10L20 20L30 20L30 10L20 10M30 30L30 80L80 80L80 30L30 30z"/>
<path style="fill:#000000; stroke:none;" d="M40 40L40 50L50 50L50 60L40 60L40 70L60 70L60 60L70 60L70 40L60 40L60 50L50 50L50 40L40 40z"/>
<path style="fill:#ffffff; stroke:none;" d="M100 40L100 50L110 50L110 40L100 40M90 50L90 80L100 80L100 50L90 50M10 70L10 80L20 80L20 70L10 70M20 90L20 100L30 100L30 90L20 90M60 90L60 100L40 100L40 110L70 110L70 90L60 90z"/>
</svg>
