<?xml version="1.0" standalone="yes"?>
<svg xmlns="http://www.w3.org/2000/svg" width="110" height="110">
<path style="fill:#000000; stroke:none;" d="M0 0L0 40L10 40L10 20L20 20L20 70L10 70L10 50L0 50L0 110L60 110L60 100L30 100L30 90L70 90L70 110L110 110L110 70L100 70L100 80L90 80L90 30L100 30L100 40L110 40L110 0L0 0z"/>
<path style="fill:#ffffff; stroke:none;" d="M20 10L20 20L50 20L50 10L20 10M60 10L60 20L80 20L80 10L60 10M10 20L10 40L0 40L0 50L10 50L10 70L20 70L20 20L10 20M30 30L30 80L80 80L80 30L30 30M90 30L90 80L100 80L100 70L110 70L110 40L100 40L100 30L90 30z"/>
<path style="fill:#000000; stroke:none;" d="M50 40L50 60L40 60L40 70L70 70L70 60L60 60L60 40L50 40z"/>
<path style="fill:#ffffff; stroke:none;" d="M30 90L30 100L60 100L60 110L70 110L70 90L30 90M80 90L80 100L90 100L90 90L80 90z"/>
</svg>
