<?xml version="1.0" standalone="yes"?>
<svg xmlns="http://www.w3.org/2000/svg" width="110" height="110">
<path style="fill:#000000; stroke:none;" d="M0 0L0 50L10 50L10 60L0 60L0 110L110 110L110 70L90 70L90 50L100 50L100 60L110 60L110 0L60 0L60 10L70 10L70 20L50 20L50 0L0 0z"/>
<path style="fill:#ffffff; stroke:none;" d="M50 0L50 20L70 20L70 10L60 10L60 0L50 0M20 10L20 20L40 20L40 10L20 10M90 20L90 40L100 40L100 20L90 20M30 30L30 80L80 80L80 30L30 30z"/>
<path style="fill:#000000; stroke:none;" d="M40 40L40 50L50 50L50 40L40 40z"/>
<path style="fill:#ffffff; stroke:none;" d="M0 50L0 60L10 60L10 50L0 50z"/>
<path style="fill:#000000; stroke:none;" d="M60 50L60 60L40 60L40 70L60 70L60 60L70 60L70 50L60 50z"/>
<path style="fill:#ffffff; stroke:none;" d="M90 50L90 70L110 70L110 60L100 60L100 50L90 50M10 60L10 80L20 80L20 60L10 60M20 90L20 100L50 100L50 90L20 90z"/>
</svg>
