<?xml version="1.0" standalone="yes"?>
<svg xmlns="http://www.w3.org/2000/svg" width="110" height="110">
<path style="fill:#000000; stroke:none;" d="M0 0L0 110L50 110L50 100L40 100L40 90L60 90L60 110L110 110L110 0L0 0z"/>
<path style="fill:#ffffff; stroke:none;" d="M30 10L30 20L80 20L80 10L30 10M10 20L10 30L20 30L20 20L10 20M90 20L90 50L100 50L100 20L90 20M30 30L30 80L80 80L80 30L30 30z"/>
<path style="fill:#000000; stroke:none;" d="M50 40L50 50L40 50L40 70L70 70L70 40L50 40z"/>
<path style="fill:#ffffff; stroke:none;" d="M10 50L10 60L20 60L20 50L10 50M50 50L50 60L60 60L60 50L50 50M90 80L90 90L100 90L100 80L90 80M40 90L40 100L50 100L50 110L60 110L60 90L40 90z"/>
</svg>
