<?xml version="1.0" standalone="yes"?>
<svg xmlns="http://www.w3.org/2000/svg" width="110" height="110">
<path style="fill:#000000; stroke:none;" d="M0 0L0 50L10 50L10 60L20 60L20 80L10 80L10 70L0 70L0 110L40 110L40 100L30 100L30 90L50 90L50 110L60 110L60 100L70 100L70 110L110 110L110 0L70 0L70 10L80 10L80 20L50 20L50 10L60 10L60 0L0 0z"/>
<path style="fill:#ffffff; stroke:none;" d="M60 0L60 10L50 10L50 20L80 20L80 10L70 10L70 0L60 0M20 10L20 20L30 20L30 10L20 10M30 30L30 80L80 80L80 30L30 30M90 30L90 50L100 50L100 30L90 30z"/>
<path style="fill:#000000; stroke:none;" d="M50 40L50 50L40 50L40 60L60 60L60 70L70 70L70 50L60 50L60 40L50 40z"/>
<path style="fill:#ffffff; stroke:none;" d="M0 50L0 70L10 70L10 80L20 80L20 60L10 60L10 50L0 50M90 70L90 80L100 80L100 70L90 70M30 90L30 100L40 100L40 110L50 110L50 90L30 90M70 90L70 100L80 100L80 90L70 90M60 100L60 110L70 110L70 100L60 100z"/>
</svg>
