<?xml version="1.0" standalone="yes"?>
<svg xmlns="http://www.w3.org/2000/svg" width="110" height="110">
<path style="fill:#000000; stroke:none;" d="M0 0L0 40L10 40L10 30L20 30L20 60L0 60L0 110L110 110L110 60L90 60L90 30L100 30L100 50L110 50L110 0L60 0L60 10L70 10L70 20L50 20L50 0L0 0z"/>
<path style="fill:#ffffff; stroke:none;" d="M50 0L50 20L70 20L70 10L60 10L60 0L50 0M30 10L30 20L40 20L40 10L30 10M80 10L80 20L90 20L90 10L80 10M10 30L10 40L0 40L0 60L20 60L20 30L10 30M30 30L30 80L80 80L80 30L30 30M90 30L90 60L110 60L110 50L100 50L100 30L90 30z"/>
<path style="fill:#000000; stroke:none;" d="M60 40L60 50L40 50L40 70L70 70L70 60L60 60L60 50L70 50L70 40L60 40z"/>
<path style="fill:#ffffff; stroke:none;" d="M10 70L10 90L20 90L20 100L80 100L80 90L20 90L20 70L10 70z"/>
</svg>
