<?xml version="1.0" standalone="yes"?>
<svg xmlns="http://www.w3.org/2000/svg" width="110" height="110">
<path style="fill:#000000; stroke:none;" d="M0 0L0 40L10 40L10 50L0 50L0 110L50 110L50 100L40 100L40 90L60 90L60 110L110 110L110 70L100 70L100 60L90 60L90 30L100 30L100 50L110 50L110 0L0 0z"/>
<path style="fill:#ffffff; stroke:none;" d="M70 10L70 20L80 20L80 10L70 10M10 20L10 30L20 30L20 20L10 20M30 30L30 80L80 80L80 30L30 30M90 30L90 60L100 60L100 70L110 70L110 50L100 50L100 30L90 30M0 40L0 50L10 50L10 40L0 40z"/>
<path style="fill:#000000; stroke:none;" d="M50 40L50 50L40 50L40 70L60 70L60 60L50 60L50 50L70 50L70 40L50 40z"/>
<path style="fill:#ffffff; stroke:none;" d="M10 50L10 60L20 60L20 50L10 50M90 80L90 90L70 90L70 100L90 100L90 90L100 90L100 80L90 80M40 90L40 100L50 100L50 110L60 110L60 90L40 90z"/>
</svg>
