<?xml version="1.0" standalone="yes"?>
<svg xmlns="http://www.w3.org/2000/svg" width="110" height="110">
<path style="fill:#000000; stroke:none;" d="M0 0L0 40L10 40L10 20L20 20L20 90L10 90L10 70L0 70L0 110L50 110L50 100L40 100L40 90L90 90L90 100L60 100L60 110L110 110L110 70L100 70L100 90L90 90L90 30L100 30L100 40L110 40L110 0L60 0L60 10L50 10L50 20L40 20L40 0L0 0z"/>
<path style="fill:#ffffff; stroke:none;" d="M40 0L40 20L50 20L50 10L60 10L60 0L40 0M20 10L20 20L30 20L30 10L20 10M60 10L60 20L80 20L80 10L60 10M10 20L10 40L0 40L0 70L10 70L10 90L20 90L20 20L10 20M30 30L30 80L80 80L80 30L30 30M90 30L90 90L100 90L100 70L110 70L110 40L100 40L100 30L90 30z"/>
<path style="fill:#000000; stroke:none;" d="M60 40L60 50L40 50L40 60L60 60L60 70L70 70L70 60L60 60L60 50L70 50L70 40L60 40z"/>
<path style="fill:#ffffff; stroke:none;" d="M20 90L20 100L30 100L30 90L20 90M40 90L40 100L50 100L50 110L60 110L60 100L90 100L90 90L40 90z"/>
</svg>
