<?xml version="1.0" standalone="yes"?>
<svg xmlns="http://www.w3.org/2000/svg" width="110" height="110">
<path style="fill:#000000; stroke:none;" d="M0 0L0 40L20 40L20 60L10 60L10 50L0 50L0 110L40 110L40 100L50 100L50 110L110 110L110 70L100 70L100 90L90 90L90 60L110 60L110 50L90 50L90 40L110 40L110 0L70 0L70 10L90 10L90 20L60 20L60 0L50 0L50 20L40 20L40 0L0 0z"/>
<path style="fill:#ffffff; stroke:none;" d="M40 0L40 20L50 20L50 0L40 0M60 0L60 20L90 20L90 10L70 10L70 0L60 0M90 20L90 30L100 30L100 20L90 20M30 30L30 80L80 80L80 30L30 30M0 40L0 50L10 50L10 60L20 60L20 40L0 40z"/>
<path style="fill:#000000; stroke:none;" d="M50 40L50 50L60 50L60 60L70 60L70 50L60 50L60 40L50 40z"/>
<path style="fill:#ffffff; stroke:none;" d="M90 40L90 50L110 50L110 40L90 40M90 60L90 90L100 90L100 70L110 70L110 60L90 60M10 70L10 90L20 90L20 100L30 100L30 90L20 90L20 70L10 70M70 90L70 100L90 100L90 90L70 90M40 100L40 110L50 110L50 100L40 100z"/>
</svg>
