<?xml version="1.0" standalone="yes"?>
<svg xmlns="http://www.w3.org/2000/svg" width="110" height="110">
<path style="fill:#000000; stroke:none;" d="M0 0L0 110L50 110L50 100L60 100L60 110L110 110L110 0L50 0L50 10L40 10L40 0L0 0z"/>
<path style="fill:#ffffff; stroke:none;" d="M40 0L40 10L50 10L50 0L40 0M50 10L50 20L60 20L60 10L50 10M70 10L70 20L90 20L90 10L70 10M10 20L10 30L20 30L20 20L10 20M30 30L30 80L80 80L80 30L30 30M90 30L90 70L100 70L100 30L90 30z"/>
<path style="fill:#000000; stroke:none;" d="M40 40L40 70L50 70L50 50L60 50L60 60L70 60L70 40L40 40z"/>
<path style="fill:#ffffff; stroke:none;" d="M10 60L10 80L20 80L20 60L10 60M30 90L30 100L50 100L50 90L30 90M50 100L50 110L60 110L60 100L50 100z"/>
</svg>
