<?xml version="1.0" standalone="yes"?>
<svg xmlns="http://www.w3.org/2000/svg" width="110" height="110">
<path style="fill:#000000; stroke:none;" d="M0 0L0 60L10 60L10 70L0 70L0 110L50 110L50 100L40 100L40 90L80 90L80 100L60 100L60 110L110 110L110 60L100 60L100 90L90 90L90 30L100 30L100 40L110 40L110 0L60 0L60 10L50 10L50 20L40 20L40 0L0 0z"/>
<path style="fill:#ffffff; stroke:none;" d="M40 0L40 20L50 20L50 10L60 10L60 0L40 0M70 10L70 20L80 20L80 10L70 10M10 20L10 50L20 50L20 20L10 20M30 30L30 80L80 80L80 30L30 30M90 30L90 90L100 90L100 60L110 60L110 40L100 40L100 30L90 30z"/>
<path style="fill:#000000; stroke:none;" d="M60 40L60 60L70 60L70 40L60 40M40 50L40 70L50 70L50 50L40 50z"/>
<path style="fill:#ffffff; stroke:none;" d="M0 60L0 70L10 70L10 60L0 60M10 70L10 90L20 90L20 100L30 100L30 90L20 90L20 70L10 70M40 90L40 100L50 100L50 110L60 110L60 100L80 100L80 90L40 90z"/>
</svg>
