<?xml version="1.0" standalone="yes"?>
<svg xmlns="http://www.w3.org/2000/svg" width="110" height="110">
<path style="fill:#000000; stroke:none;" d="M0 0L0 60L10 60L10 70L0 70L0 110L60 110L60 90L90 90L90 100L70 100L70 110L110 110L110 70L100 70L100 50L90 50L90 40L110 40L110 0L50 0L50 20L20 20L20 10L40 10L40 0L0 0z"/>
<path style="fill:#ffffff; stroke:none;" d="M40 0L40 10L20 10L20 20L50 20L50 0L40 0M60 10L60 20L70 20L70 10L60 10M30 30L30 80L80 80L80 30L30 30M10 40L10 60L20 60L20 40L10 40z"/>
<path style="fill:#000000; stroke:none;" d="M40 40L40 70L50 70L50 50L70 50L70 40L40 40z"/>
<path style="fill:#ffffff; stroke:none;" d="M90 40L90 50L100 50L100 70L110 70L110 40L90 40M0 60L0 70L10 70L10 60L0 60z"/>
<path style="fill:#000000; stroke:none;" d="M60 60L60 70L70 70L70 60L60 60z"/>
<path style="fill:#ffffff; stroke:none;" d="M10 70L10 80L20 80L20 70L10 70M90 80L90 90L100 90L100 80L90 80M40 90L40 100L50 100L50 90L40 90M60 90L60 110L70 110L70 100L90 100L90 90L60 90z"/>
</svg>
