<?xml version="1.0" standalone="yes"?>
<svg xmlns="http://www.w3.org/2000/svg" width="110" height="110">
<path style="fill:#000000; stroke:none;" d="M0 0L0 110L40 110L40 100L50 100L50 90L80 90L80 100L60 100L60 110L110 110L110 70L100 70L100 90L90 90L90 30L100 30L100 60L110 60L110 0L70 0L70 20L50 20L50 10L60 10L60 0L0 0z"/>
<path style="fill:#ffffff; stroke:none;" d="M60 0L60 10L50 10L50 20L70 20L70 0L60 0M10 20L10 30L20 30L20 20L10 20M30 30L30 80L80 80L80 30L30 30M90 30L90 90L100 90L100 70L110 70L110 60L100 60L100 30L90 30z"/>
<path style="fill:#000000; stroke:none;" d="M40 40L40 60L50 60L50 50L60 50L60 60L70 60L70 40L40 40z"/>
<path style="fill:#ffffff; stroke:none;" d="M30 90L30 100L40 100L40 90L30 90M50 90L50 100L40 100L40 110L60 110L60 100L80 100L80 90L50 90z"/>
</svg>
