<?xml version="1.0" standalone="yes"?>
<svg xmlns="http://www.w3.org/2000/svg" width="110" height="110">
<path style="fill:#000000; stroke:none;" d="M0 0L0 50L10 50L10 20L20 20L20 60L0 60L0 110L50 110L50 100L40 100L40 90L60 90L60 100L70 100L70 110L110 110L110 60L100 60L100 50L110 50L110 0L70 0L70 10L90 10L90 20L60 20L60 10L50 10L50 0L0 0z"/>
<path style="fill:#ffffff; stroke:none;" d="M50 0L50 10L60 10L60 20L90 20L90 10L70 10L70 0L50 0M40 10L40 20L50 20L50 10L40 10M10 20L10 50L0 50L0 60L20 60L20 20L10 20M30 30L30 80L80 80L80 30L30 30z"/>
<path style="fill:#000000; stroke:none;" d="M60 40L60 60L50 60L50 50L40 50L40 70L70 70L70 40L60 40z"/>
<path style="fill:#ffffff; stroke:none;" d="M100 50L100 60L110 60L110 50L100 50M90 70L90 80L100 80L100 70L90 70M10 80L10 90L20 90L20 100L30 100L30 90L20 90L20 80L10 80M40 90L40 100L50 100L50 110L70 110L70 100L60 100L60 90L40 90M80 90L80 100L90 100L90 90L80 90z"/>
</svg>
