<?xml version="1.0" standalone="yes"?>
<svg xmlns="http://www.w3.org/2000/svg" width="110" height="110">
<path style="fill:#000000; stroke:none;" d="M0 0L0 40L10 40L10 30L20 30L20 70L10 70L10 60L0 60L0 110L60 110L60 100L20 100L20 90L70 90L70 110L110 110L110 0L70 0L70 10L60 10L60 20L30 20L30 10L40 10L40 0L0 0z"/>
<path style="fill:#ffffff; stroke:none;" d="M40 0L40 10L30 10L30 20L60 20L60 10L70 10L70 0L40 0M70 10L70 20L90 20L90 10L70 10M10 30L10 40L0 40L0 60L10 60L10 70L20 70L20 30L10 30M30 30L30 80L80 80L80 30L30 30M90 30L90 90L100 90L100 30L90 30z"/>
<path style="fill:#000000; stroke:none;" d="M40 50L40 60L60 60L60 70L70 70L70 50L40 50z"/>
<path style="fill:#ffffff; stroke:none;" d="M10 80L10 90L20 90L20 80L10 80M20 90L20 100L60 100L60 110L70 110L70 90L20 90z"/>
</svg>
