<?xml version="1.0" standalone="yes"?>
<svg xmlns="http://www.w3.org/2000/svg" width="110" height="110">
<path style="fill:#000000; stroke:none;" d="M0 0L0 40L10 40L10 50L20 50L20 60L0 60L0 110L50 110L50 100L60 100L60 90L70 90L70 110L110 110L110 60L100 60L100 50L90 50L90 20L100 20L100 40L110 40L110 0L70 0L70 20L60 20L60 0L0 0z"/>
<path style="fill:#ffffff; stroke:none;" d="M60 0L60 20L70 20L70 0L60 0M80 10L80 20L90 20L90 10L80 10M90 20L90 50L100 50L100 60L110 60L110 40L100 40L100 20L90 20M10 30L10 40L20 40L20 30L10 30M30 30L30 80L80 80L80 30L30 30M0 40L0 60L20 60L20 50L10 50L10 40L0 40z"/>
<path style="fill:#000000; stroke:none;" d="M50 50L50 60L60 60L60 70L70 70L70 50L50 50z"/>
<path style="fill:#ffffff; stroke:none;" d="M10 80L10 90L20 90L20 100L50 100L50 90L20 90L20 80L10 80M90 80L90 90L80 90L80 100L90 100L90 90L100 90L100 80L90 80M60 90L60 100L50 100L50 110L70 110L70 90L60 90z"/>
</svg>
