<?xml version="1.0" standalone="yes"?>
<svg xmlns="http://www.w3.org/2000/svg" width="110" height="110">
<path style="fill:#000000; stroke:none;" d="M0 0L0 50L10 50L10 40L20 40L20 90L10 90L10 70L0 70L0 110L60 110L60 100L70 100L70 110L110 110L110 60L100 60L100 50L90 50L90 40L110 40L110 0L60 0L60 10L50 10L50 0L0 0z"/>
<path style="fill:#ffffff; stroke:none;" d="M50 0L50 10L60 10L60 0L50 0M60 10L60 20L80 20L80 10L60 10M10 20L10 30L20 30L20 20L10 20M30 30L30 80L80 80L80 30L30 30M10 40L10 50L0 50L0 70L10 70L10 90L20 90L20 40L10 40M90 40L90 50L100 50L100 60L110 60L110 40L90 40z"/>
<path style="fill:#000000; stroke:none;" d="M40 50L40 70L50 70L50 60L70 60L70 50L40 50z"/>
<path style="fill:#ffffff; stroke:none;" d="M90 70L90 80L100 80L100 70L90 70M40 90L40 100L50 100L50 90L40 90M60 100L60 110L70 110L70 100L60 100z"/>
</svg>
