<?xml version="1.0" standalone="yes"?>
<svg xmlns="http://www.w3.org/2000/svg" width="110" height="110">
<path style="fill:#000000; stroke:none;" d="M0 0L0 50L10 50L10 70L0 70L0 110L110 110L110 70L100 70L100 80L90 80L90 60L100 60L100 50L110 50L110 0L70 0L70 10L90 10L90 20L20 20L20 10L50 10L50 0L0 0z"/>
<path style="fill:#ffffff; stroke:none;" d="M50 0L50 10L20 10L20 20L90 20L90 10L70 10L70 0L50 0M10 20L10 30L20 30L20 20L10 20M90 20L90 50L100 50L100 20L90 20M30 30L30 80L80 80L80 30L30 30M0 50L0 70L10 70L10 50L0 50z"/>
<path style="fill:#000000; stroke:none;" d="M50 50L50 60L40 60L40 70L50 70L50 60L60 60L60 70L70 70L70 60L60 60L60 50L50 50z"/>
<path style="fill:#ffffff; stroke:none;" d="M100 50L100 60L90 60L90 80L100 80L100 70L110 70L110 50L100 50M10 70L10 80L20 80L20 70L10 70M20 90L20 100L70 100L70 90L20 90z"/>
</svg>
