<?xml version="1.0" standalone="yes"?>
<svg xmlns="http://www.w3.org/2000/svg" width="110" height="110">
<path style="fill:#000000; stroke:none;" d="M0 0L0 40L20 40L20 50L0 50L0 60L20 60L20 70L0 70L0 110L40 110L40 100L60 100L60 90L70 90L70 110L110 110L110 70L100 70L100 90L90 90L90 50L100 50L100 40L110 40L110 0L0 0z"/>
<path style="fill:#ffffff; stroke:none;" d="M20 10L20 20L10 20L10 30L20 30L20 20L80 20L80 10L20 10M30 30L30 80L80 80L80 30L30 30M90 30L90 40L100 40L100 30L90 30M0 40L0 50L20 50L20 40L0 40z"/>
<path style="fill:#000000; stroke:none;" d="M40 40L40 70L50 70L50 60L60 60L60 70L70 70L70 40L40 40z"/>
<path style="fill:#ffffff; stroke:none;" d="M100 40L100 50L90 50L90 90L100 90L100 70L110 70L110 40L100 40M0 60L0 70L20 70L20 60L0 60M10 80L10 90L20 90L20 80L10 80M30 90L30 100L40 100L40 90L30 90M60 90L60 100L40 100L40 110L70 110L70 90L60 90M80 90L80 100L90 100L90 90L80 90z"/>
</svg>
