<?xml version="1.0" standalone="yes"?>
<svg xmlns="http://www.w3.org/2000/svg" width="110" height="110">
<path style="fill:#000000; stroke:none;" d="M0 0L0 50L10 50L10 60L0 60L0 110L40 110L40 90L70 90L70 110L110 110L110 70L90 70L90 50L100 50L100 60L110 60L110 0L0 0z"/>
<path style="fill:#ffffff; stroke:none;" d="M20 10L20 20L30 20L30 10L20 10M40 10L40 20L50 20L50 10L40 10M60 10L60 20L70 20L70 10L60 10M80 10L80 20L90 20L90 10L80 10M30 30L30 80L80 80L80 30L30 30z"/>
<path style="fill:#000000; stroke:none;" d="M40 40L40 70L70 70L70 40L40 40z"/>
<path style="fill:#ffffff; stroke:none;" d="M0 50L0 60L10 60L10 50L0 50M50 50L50 60L60 60L60 50L50 50M90 50L90 70L110 70L110 60L100 60L100 50L90 50M10 70L10 90L20 90L20 100L30 100L30 90L20 90L20 70L10 70M90 80L90 90L100 90L100 80L90 80M40 90L40 110L70 110L70 90L40 90z"/>
</svg>
