<?xml version="1.0" standalone="yes"?>
<svg xmlns="http://www.w3.org/2000/svg" width="110" height="110">
<path style="fill:#000000; stroke:none;" d="M0 0L0 110L40 110L40 90L50 90L50 110L110 110L110 60L100 60L100 40L110 40L110 0L70 0L70 10L50 10L50 0L0 0z"/>
<path style="fill:#ffffff; stroke:none;" d="M50 0L50 10L70 10L70 0L50 0M20 10L20 20L40 20L40 10L20 10M80 10L80 20L90 20L90 40L100 40L100 20L90 20L90 10L80 10M30 30L30 80L80 80L80 30L30 30M10 40L10 50L20 50L20 40L10 40z"/>
<path style="fill:#000000; stroke:none;" d="M50 40L50 50L40 50L40 70L70 70L70 40L50 40z"/>
<path style="fill:#ffffff; stroke:none;" d="M100 40L100 60L110 60L110 40L100 40M50 50L50 60L60 60L60 50L50 50M90 60L90 70L100 70L100 60L90 60M20 90L20 100L30 100L30 90L20 90M40 90L40 110L50 110L50 90L40 90z"/>
</svg>
