<?xml version="1.0" standalone="yes"?>
<svg xmlns="http://www.w3.org/2000/svg" width="110" height="110">
<path style="fill:#000000; stroke:none;" d="M0 0L0 110L50 110L50 90L80 90L80 100L60 100L60 110L110 110L110 50L90 50L90 20L100 20L100 40L110 40L110 0L70 0L70 10L50 10L50 0L0 0z"/>
<path style="fill:#ffffff; stroke:none;" d="M50 0L50 10L70 10L70 0L50 0M30 10L30 20L40 20L40 10L30 10M70 10L70 20L80 20L80 10L70 10M90 20L90 50L110 50L110 40L100 40L100 20L90 20M10 30L10 60L20 60L20 30L10 30M30 30L30 80L80 80L80 30L30 30z"/>
<path style="fill:#000000; stroke:none;" d="M50 40L50 50L70 50L70 40L50 40M40 60L40 70L60 70L60 60L40 60z"/>
<path style="fill:#ffffff; stroke:none;" d="M90 60L90 70L100 70L100 60L90 60M30 90L30 100L40 100L40 90L30 90M50 90L50 110L60 110L60 100L80 100L80 90L50 90z"/>
</svg>
