<?xml version="1.0" standalone="yes"?>
<svg xmlns="http://www.w3.org/2000/svg" width="110" height="110">
<path style="fill:#000000; stroke:none;" d="M0 0L0 40L10 40L10 30L20 30L20 70L0 70L0 110L50 110L50 100L40 100L40 90L80 90L80 100L60 100L60 110L110 110L110 70L100 70L100 50L90 50L90 40L110 40L110 0L70 0L70 20L50 20L50 0L0 0z"/>
<path style="fill:#ffffff; stroke:none;" d="M50 0L50 20L70 20L70 0L50 0M90 20L90 30L100 30L100 20L90 20M10 30L10 40L0 40L0 70L20 70L20 30L10 30M30 30L30 80L80 80L80 30L30 30z"/>
<path style="fill:#000000; stroke:none;" d="M40 40L40 60L50 60L50 70L60 70L60 60L50 60L50 40L40 40M60 40L60 50L70 50L70 40L60 40z"/>
<path style="fill:#ffffff; stroke:none;" d="M90 40L90 50L100 50L100 70L110 70L110 40L90 40M20 90L20 100L30 100L30 90L20 90M40 90L40 100L50 100L50 110L60 110L60 100L80 100L80 90L40 90z"/>
</svg>
