<?xml version="1.0" standalone="yes"?>
<svg xmlns="http://www.w3.org/2000/svg" width="110" height="110">
<path style="fill:#000000; stroke:none;" d="M0 0L0 40L10 40L10 60L0 60L0 110L60 110L60 90L80 90L80 100L70 100L70 110L110 110L110 60L90 60L90 50L110 50L110 0L70 0L70 10L50 10L50 20L40 20L40 0L0 0z"/>
<path style="fill:#ffffff; stroke:none;" d="M40 0L40 20L50 20L50 10L70 10L70 0L40 0M30 30L30 80L80 80L80 30L30 30M0 40L0 60L10 60L10 40L0 40z"/>
<path style="fill:#000000; stroke:none;" d="M50 40L50 50L40 50L40 60L50 60L50 70L70 70L70 60L50 60L50 50L60 50L60 40L50 40z"/>
<path style="fill:#ffffff; stroke:none;" d="M90 50L90 60L110 60L110 50L90 50M10 60L10 90L20 90L20 60L10 60M90 80L90 90L100 90L100 80L90 80M40 90L40 100L50 100L50 90L40 90M60 90L60 110L70 110L70 100L80 100L80 90L60 90z"/>
</svg>
