<?xml version="1.0" standalone="yes"?>
<svg xmlns="http://www.w3.org/2000/svg" width="110" height="110">
<path style="fill:#000000; stroke:none;" d="M0 0L0 50L10 50L10 60L0 60L0 110L40 110L40 90L90 90L90 100L50 100L50 110L110 110L110 60L100 60L100 50L90 50L90 40L110 40L110 0L70 0L70 10L60 10L60 0L50 0L50 20L20 20L20 10L40 10L40 0L0 0z"/>
<path style="fill:#ffffff; stroke:none;" d="M40 0L40 10L20 10L20 20L50 20L50 0L40 0M60 0L60 10L70 10L70 0L60 0M80 10L80 20L90 20L90 10L80 10M10 30L10 50L20 50L20 30L10 30M30 30L30 80L80 80L80 30L30 30M90 40L90 50L100 50L100 60L110 60L110 40L90 40M0 50L0 60L10 60L10 50L0 50z"/>
<path style="fill:#000000; stroke:none;" d="M40 50L40 70L70 70L70 50L60 50L60 60L50 60L50 50L40 50z"/>
<path style="fill:#ffffff; stroke:none;" d="M10 60L10 70L20 70L20 60L10 60M90 60L90 70L100 70L100 60L90 60M10 80L10 90L20 90L20 80L10 80M40 90L40 110L50 110L50 100L90 100L90 90L40 90z"/>
</svg>
