<?xml version="1.0" standalone="yes"?>
<svg xmlns="http://www.w3.org/2000/svg" width="110" height="110">
<path style="fill:#000000; stroke:none;" d="M0 0L0 60L20 60L20 90L10 90L10 70L0 70L0 110L50 110L50 90L70 90L70 110L110 110L110 70L100 70L100 60L110 60L110 0L50 0L50 10L40 10L40 0L0 0z"/>
<path style="fill:#ffffff; stroke:none;" d="M40 0L40 10L50 10L50 0L40 0M30 10L30 20L40 20L40 10L30 10M50 10L50 20L60 20L60 10L50 10M10 20L10 30L20 30L20 20L10 20M30 30L30 80L80 80L80 30L30 30M90 30L90 60L100 60L100 30L90 30M10 40L10 50L20 50L20 40L10 40z"/>
<path style="fill:#000000; stroke:none;" d="M40 40L40 70L70 70L70 50L60 50L60 60L50 60L50 40L40 40z"/>
<path style="fill:#ffffff; stroke:none;" d="M0 60L0 70L10 70L10 90L20 90L20 60L0 60M100 60L100 70L110 70L110 60L100 60M90 70L90 90L80 90L80 100L90 100L90 90L100 90L100 70L90 70M50 90L50 110L70 110L70 90L50 90z"/>
</svg>
