<?xml version="1.0" standalone="yes"?>
<svg xmlns="http://www.w3.org/2000/svg" width="110" height="110">
<path style="fill:#000000; stroke:none;" d="M0 0L0 110L50 110L50 100L60 100L60 110L110 110L110 70L100 70L100 60L90 60L90 20L100 20L100 40L110 40L110 0L70 0L70 20L40 20L40 10L50 10L50 0L0 0z"/>
<path style="fill:#ffffff; stroke:none;" d="M50 0L50 10L40 10L40 20L70 20L70 0L50 0M10 20L10 30L20 30L20 20L10 20M90 20L90 60L100 60L100 70L110 70L110 40L100 40L100 20L90 20M30 30L30 80L80 80L80 30L30 30M10 40L10 50L20 50L20 40L10 40z"/>
<path style="fill:#000000; stroke:none;" d="M40 40L40 50L50 50L50 40L40 40M60 60L60 70L70 70L70 60L60 60z"/>
<path style="fill:#ffffff; stroke:none;" d="M90 70L90 80L100 80L100 70L90 70M10 80L10 90L20 90L20 100L50 100L50 90L20 90L20 80L10 80M50 100L50 110L60 110L60 100L50 100z"/>
</svg>
