<?xml version="1.0" standalone="yes"?>
<svg xmlns="http://www.w3.org/2000/svg" width="110" height="110">
<path style="fill:#000000; stroke:none;" d="M0 0L0 40L10 40L10 20L20 20L20 50L0 50L0 60L20 60L20 70L0 70L0 110L40 110L40 100L30 100L30 90L50 90L50 110L60 110L60 100L70 100L70 110L110 110L110 70L100 70L100 60L110 60L110 0L70 0L70 10L50 10L50 0L0 0z"/>
<path style="fill:#ffffff; stroke:none;" d="M50 0L50 10L70 10L70 0L50 0M40 10L40 20L50 20L50 10L40 10M70 10L70 20L80 20L80 10L70 10M10 20L10 40L0 40L0 50L20 50L20 20L10 20M90 20L90 30L100 30L100 20L90 20M30 30L30 80L80 80L80 30L30 30z"/>
<path style="fill:#000000; stroke:none;" d="M50 40L50 60L60 60L60 70L70 70L70 60L60 60L60 40L50 40z"/>
<path style="fill:#ffffff; stroke:none;" d="M90 40L90 60L100 60L100 40L90 40M0 60L0 70L20 70L20 60L0 60M100 60L100 70L110 70L110 60L100 60M90 70L90 90L70 90L70 100L90 100L90 90L100 90L100 70L90 70M10 80L10 90L20 90L20 80L10 80M30 90L30 100L40 100L40 110L50 110L50 90L30 90M60 100L60 110L70 110L70 100L60 100z"/>
</svg>
