<?xml version="1.0" standalone="yes"?>
<svg xmlns="http://www.w3.org/2000/svg" width="110" height="110">
<path style="fill:#000000; stroke:none;" d="M0 0L0 40L10 40L10 50L0 50L0 110L40 110L40 90L50 90L50 100L60 100L60 110L110 110L110 0L70 0L70 20L60 20L60 10L50 10L50 20L20 20L20 10L40 10L40 0L0 0z"/>
<path style="fill:#ffffff; stroke:none;" d="M40 0L40 10L20 10L20 20L50 20L50 10L60 10L60 20L70 20L70 0L40 0M10 20L10 40L20 40L20 20L10 20M90 20L90 60L100 60L100 20L90 20M30 30L30 80L80 80L80 30L30 30M0 40L0 50L10 50L10 40L0 40z"/>
<path style="fill:#000000; stroke:none;" d="M50 40L50 50L60 50L60 60L50 60L50 70L60 70L60 60L70 60L70 40L50 40z"/>
<path style="fill:#ffffff; stroke:none;" d="M10 50L10 80L20 80L20 50L10 50M90 70L90 80L100 80L100 70L90 70M40 90L40 110L60 110L60 100L50 100L50 90L40 90M60 90L60 100L90 100L90 90L60 90z"/>
</svg>
