<?xml version="1.0" standalone="yes"?>
<svg xmlns="http://www.w3.org/2000/svg" width="110" height="110">
<path style="fill:#000000; stroke:none;" d="M0 0L0 50L10 50L10 60L0 60L0 110L60 110L60 90L80 90L80 100L70 100L70 110L110 110L110 70L100 70L100 80L90 80L90 50L100 50L100 40L110 40L110 0L70 0L70 10L90 10L90 20L50 20L50 10L40 10L40 0L0 0z"/>
<path style="fill:#ffffff; stroke:none;" d="M40 0L40 10L50 10L50 20L90 20L90 10L70 10L70 0L40 0M30 10L30 20L40 20L40 10L30 10M90 20L90 40L100 40L100 20L90 20M10 30L10 40L20 40L20 30L10 30M30 30L30 80L80 80L80 30L30 30z"/>
<path style="fill:#000000; stroke:none;" d="M40 40L40 60L50 60L50 70L70 70L70 50L60 50L60 40L40 40z"/>
<path style="fill:#ffffff; stroke:none;" d="M100 40L100 50L90 50L90 80L100 80L100 70L110 70L110 40L100 40M0 50L0 60L10 60L10 50L0 50M10 60L10 70L20 70L20 60L10 60M60 90L60 110L70 110L70 100L80 100L80 90L60 90z"/>
</svg>
