<?xml version="1.0" standalone="yes"?>
<svg xmlns="http://www.w3.org/2000/svg" width="110" height="110">
<path style="fill:#000000; stroke:none;" d="M0 0L0 60L10 60L10 40L20 40L20 80L10 80L10 70L0 70L0 110L60 110L60 90L70 90L70 110L110 110L110 50L100 50L100 60L90 60L90 20L100 20L100 40L110 40L110 0L70 0L70 10L90 10L90 20L40 20L40 0L0 0z"/>
<path style="fill:#ffffff; stroke:none;" d="M40 0L40 20L90 20L90 10L70 10L70 0L40 0M20 10L20 20L30 20L30 10L20 10M90 20L90 60L100 60L100 50L110 50L110 40L100 40L100 20L90 20M30 30L30 80L80 80L80 30L30 30M10 40L10 60L0 60L0 70L10 70L10 80L20 80L20 40L10 40z"/>
<path style="fill:#000000; stroke:none;" d="M60 40L60 50L70 50L70 40L60 40M40 50L40 70L60 70L60 60L50 60L50 50L40 50z"/>
<path style="fill:#ffffff; stroke:none;" d="M40 90L40 100L50 100L50 90L40 90M60 90L60 110L70 110L70 90L60 90z"/>
</svg>
