<?xml version="1.0" standalone="yes"?>
<svg xmlns="http://www.w3.org/2000/svg" width="110" height="110">
<path style="fill:#000000; stroke:none;" d="M0 0L0 40L10 40L10 30L20 30L20 50L0 50L0 110L40 110L40 100L30 100L30 90L50 90L50 100L70 100L70 110L110 110L110 70L100 70L100 80L90 80L90 40L110 40L110 0L0 0z"/>
<path style="fill:#ffffff; stroke:none;" d="M50 10L50 20L70 20L70 10L50 10M80 10L80 20L90 20L90 10L80 10M10 30L10 40L0 40L0 50L20 50L20 30L10 30M30 30L30 80L80 80L80 30L30 30z"/>
<path style="fill:#000000; stroke:none;" d="M40 40L40 70L50 70L50 40L40 40M60 40L60 60L70 60L70 40L60 40z"/>
<path style="fill:#ffffff; stroke:none;" d="M90 40L90 80L100 80L100 70L110 70L110 40L90 40M10 80L10 90L20 90L20 80L10 80M30 90L30 100L40 100L40 110L70 110L70 100L50 100L50 90L30 90M70 90L70 100L80 100L80 90L70 90z"/>
</svg>
