<?xml version="1.0" standalone="yes"?>
<svg xmlns="http://www.w3.org/2000/svg" width="110" height="110">
<path style="fill:#000000; stroke:none;" d="M0 0L0 60L10 60L10 70L0 70L0 110L40 110L40 90L50 90L50 110L60 110L60 100L70 100L70 110L110 110L110 0L50 0L50 20L30 20L30 10L40 10L40 0L0 0z"/>
<path style="fill:#ffffff; stroke:none;" d="M40 0L40 10L30 10L30 20L50 20L50 0L40 0M60 10L60 20L70 20L70 10L60 10M10 30L10 40L20 40L20 30L10 30M30 30L30 80L80 80L80 30L30 30M90 30L90 50L100 50L100 30L90 30z"/>
<path style="fill:#000000; stroke:none;" d="M40 40L40 50L50 50L50 70L70 70L70 40L60 40L60 50L50 50L50 40L40 40z"/>
<path style="fill:#ffffff; stroke:none;" d="M0 60L0 70L10 70L10 60L0 60M90 80L90 90L70 90L70 100L90 100L90 90L100 90L100 80L90 80M20 90L20 100L30 100L30 90L20 90M40 90L40 110L50 110L50 90L40 90M60 100L60 110L70 110L70 100L60 100z"/>
</svg>
