<?xml version="1.0" standalone="yes"?>
<svg xmlns="http://www.w3.org/2000/svg" width="110" height="110">
<path style="fill:#000000; stroke:none;" d="M0 0L0 110L40 110L40 100L20 100L20 90L50 90L50 100L60 100L60 90L80 90L80 100L70 100L70 110L110 110L110 70L100 70L100 90L90 90L90 60L100 60L100 50L110 50L110 0L0 0z"/>
<path style="fill:#ffffff; stroke:none;" d="M20 10L20 20L10 20L10 30L20 30L20 20L30 20L30 10L20 10M90 20L90 30L100 30L100 20L90 20M30 30L30 80L80 80L80 30L30 30z"/>
<path style="fill:#000000; stroke:none;" d="M60 40L60 50L40 50L40 70L50 70L50 60L70 60L70 40L60 40z"/>
<path style="fill:#ffffff; stroke:none;" d="M90 40L90 50L100 50L100 40L90 40M10 50L10 90L20 90L20 50L10 50M100 50L100 60L90 60L90 90L100 90L100 70L110 70L110 50L100 50M20 90L20 100L40 100L40 110L70 110L70 100L80 100L80 90L60 90L60 100L50 100L50 90L20 90z"/>
</svg>
