<?xml version="1.0" standalone="yes"?>
<svg xmlns="http://www.w3.org/2000/svg" width="110" height="110">
<path style="fill:#000000; stroke:none;" d="M0 0L0 110L40 110L40 100L20 100L20 90L50 90L50 100L70 100L70 110L110 110L110 60L100 60L100 50L90 50L90 40L110 40L110 0L60 0L60 10L80 10L80 20L50 20L50 10L40 10L40 0L0 0z"/>
<path style="fill:#ffffff; stroke:none;" d="M40 0L40 10L50 10L50 20L80 20L80 10L60 10L60 0L40 0M30 10L30 20L40 20L40 10L30 10M30 30L30 80L80 80L80 30L30 30M10 40L10 80L20 80L20 40L10 40z"/>
<path style="fill:#000000; stroke:none;" d="M40 40L40 70L70 70L70 50L60 50L60 40L40 40z"/>
<path style="fill:#ffffff; stroke:none;" d="M90 40L90 50L100 50L100 60L110 60L110 40L90 40M50 50L50 60L60 60L60 50L50 50M90 60L90 70L100 70L100 60L90 60M20 90L20 100L40 100L40 110L70 110L70 100L50 100L50 90L20 90M80 90L80 100L90 100L90 90L80 90z"/>
</svg>
