<?xml version="1.0" standalone="yes"?>
<svg xmlns="http://www.w3.org/2000/svg" width="110" height="110">
<path style="fill:#000000; stroke:none;" d="M0 0L0 50L20 50L20 70L10 70L10 60L0 60L0 110L40 110L40 90L70 90L70 100L60 100L60 110L110 110L110 60L100 60L100 90L90 90L90 30L100 30L100 40L110 40L110 0L70 0L70 10L80 10L80 20L60 20L60 0L50 0L50 20L30 20L30 10L40 10L40 0L0 0z"/>
<path style="fill:#ffffff; stroke:none;" d="M40 0L40 10L30 10L30 20L50 20L50 0L40 0M60 0L60 20L80 20L80 10L70 10L70 0L60 0M10 20L10 40L20 40L20 20L10 20M30 30L30 80L80 80L80 30L30 30M90 30L90 90L100 90L100 60L110 60L110 40L100 40L100 30L90 30z"/>
<path style="fill:#000000; stroke:none;" d="M40 40L40 50L50 50L50 60L40 60L40 70L50 70L50 60L60 60L60 70L70 70L70 60L60 60L60 50L70 50L70 40L40 40z"/>
<path style="fill:#ffffff; stroke:none;" d="M0 50L0 60L10 60L10 70L20 70L20 50L0 50M20 90L20 100L30 100L30 90L20 90M40 90L40 110L60 110L60 100L70 100L70 90L40 90M80 90L80 100L90 100L90 90L80 90z"/>
</svg>
