<?xml version="1.0" standalone="yes"?>
<svg xmlns="http://www.w3.org/2000/svg" width="110" height="110">
<path style="fill:#000000; stroke:none;" d="M0 0L0 60L10 60L10 70L0 70L0 110L40 110L40 90L70 90L70 100L50 100L50 110L110 110L110 70L90 70L90 50L100 50L100 40L110 40L110 0L70 0L70 10L80 10L80 20L30 20L30 10L50 10L50 0L0 0z"/>
<path style="fill:#ffffff; stroke:none;" d="M50 0L50 10L30 10L30 20L80 20L80 10L70 10L70 0L50 0M30 30L30 80L80 80L80 30L30 30M90 30L90 40L100 40L100 30L90 30z"/>
<path style="fill:#000000; stroke:none;" d="M60 40L60 60L50 60L50 70L60 70L60 60L70 60L70 40L60 40z"/>
<path style="fill:#ffffff; stroke:none;" d="M100 40L100 50L90 50L90 70L110 70L110 40L100 40M0 60L0 70L10 70L10 60L0 60M10 70L10 80L20 80L20 70L10 70M40 90L40 110L50 110L50 100L70 100L70 90L40 90z"/>
</svg>
