<?xml version="1.0" standalone="yes"?>
<svg xmlns="http://www.w3.org/2000/svg" width="110" height="110">
<path style="fill:#000000; stroke:none;" d="M0 0L0 40L20 40L20 70L0 70L0 110L110 110L110 60L90 60L90 20L100 20L100 50L110 50L110 0L70 0L70 10L60 10L60 0L0 0z"/>
<path style="fill:#ffffff; stroke:none;" d="M60 0L60 10L70 10L70 0L60 0M40 10L40 20L50 20L50 10L40 10M80 10L80 20L90 20L90 10L80 10M90 20L90 60L110 60L110 50L100 50L100 20L90 20M30 30L30 80L80 80L80 30L30 30M0 40L0 70L20 70L20 40L0 40z"/>
<path style="fill:#000000; stroke:none;" d="M40 40L40 60L70 60L70 40L60 40L60 50L50 50L50 40L40 40z"/>
<path style="fill:#ffffff; stroke:none;" d="M90 80L90 90L100 90L100 80L90 80M20 90L20 100L30 100L30 90L20 90M40 90L40 100L50 100L50 90L40 90z"/>
</svg>
