<?xml version="1.0" standalone="yes"?>
<svg xmlns="http://www.w3.org/2000/svg" width="110" height="110">
<path style="fill:#000000; stroke:none;" d="M0 0L0 50L20 50L20 70L10 70L10 60L0 60L0 110L40 110L40 100L60 100L60 90L70 90L70 110L110 110L110 70L100 70L100 80L90 80L90 40L100 40L100 50L110 50L110 0L70 0L70 10L50 10L50 0L0 0z"/>
<path style="fill:#ffffff; stroke:none;" d="M50 0L50 10L70 10L70 0L50 0M20 10L20 20L10 20L10 30L20 30L20 20L30 20L30 10L20 10M40 10L40 20L50 20L50 10L40 10M90 20L90 30L100 30L100 20L90 20M30 30L30 80L80 80L80 30L30 30z"/>
<path style="fill:#000000; stroke:none;" d="M50 40L50 50L70 50L70 40L50 40z"/>
<path style="fill:#ffffff; stroke:none;" d="M90 40L90 80L100 80L100 70L110 70L110 50L100 50L100 40L90 40M0 50L0 60L10 60L10 70L20 70L20 50L0 50z"/>
<path style="fill:#000000; stroke:none;" d="M40 60L40 70L50 70L50 60L40 60z"/>
<path style="fill:#ffffff; stroke:none;" d="M20 90L20 100L30 100L30 90L20 90M60 90L60 100L40 100L40 110L70 110L70 90L60 90M80 90L80 100L90 100L90 90L80 90z"/>
</svg>
