<?xml version="1.0" standalone="yes"?>
<svg xmlns="http://www.w3.org/2000/svg" width="110" height="110">
<path style="fill:#000000; stroke:none;" d="M0 0L0 40L10 40L10 30L20 30L20 60L0 60L0 110L40 110L40 90L50 90L50 110L60 110L60 90L90 90L90 100L70 100L70 110L110 110L110 70L90 70L90 50L100 50L100 60L110 60L110 0L70 0L70 20L30 20L30 10L60 10L60 0L0 0z"/>
<path style="fill:#ffffff; stroke:none;" d="M60 0L60 10L30 10L30 20L70 20L70 0L60 0M90 20L90 40L100 40L100 20L90 20M10 30L10 40L0 40L0 60L20 60L20 30L10 30M30 30L30 80L80 80L80 30L30 30z"/>
<path style="fill:#000000; stroke:none;" d="M50 40L50 50L60 50L60 70L70 70L70 40L50 40z"/>
<path style="fill:#ffffff; stroke:none;" d="M90 50L90 70L110 70L110 60L100 60L100 50L90 50M10 70L10 80L20 80L20 70L10 70M40 90L40 110L50 110L50 90L40 90M60 90L60 110L70 110L70 100L90 100L90 90L60 90z"/>
</svg>
