<?xml version="1.0" standalone="yes"?>
<svg xmlns="http://www.w3.org/2000/svg" width="110" height="110">
<path style="fill:#000000; stroke:none;" d="M0 0L0 40L20 40L20 50L0 50L0 60L20 60L20 70L0 70L0 110L50 110L50 90L60 90L60 100L70 100L70 110L110 110L110 50L100 50L100 40L110 40L110 0L70 0L70 10L80 10L80 20L50 20L50 10L40 10L40 0L0 0z"/>
<path style="fill:#ffffff; stroke:none;" d="M40 0L40 10L50 10L50 20L80 20L80 10L70 10L70 0L40 0M20 10L20 20L10 20L10 30L20 30L20 20L30 20L30 10L20 10M30 30L30 80L80 80L80 30L30 30M0 40L0 50L20 50L20 40L0 40M100 40L100 50L110 50L110 40L100 40M90 50L90 70L100 70L100 50L90 50M0 60L0 70L20 70L20 60L0 60z"/>
<path style="fill:#000000; stroke:none;" d="M60 60L60 70L70 70L70 60L60 60z"/>
<path style="fill:#ffffff; stroke:none;" d="M20 90L20 100L40 100L40 90L20 90M50 90L50 110L70 110L70 100L60 100L60 90L50 90M70 90L70 100L80 100L80 90L70 90z"/>
</svg>
