<?xml version="1.0" standalone="yes"?>
<svg xmlns="http://www.w3.org/2000/svg" width="110" height="110">
<path style="fill:#000000; stroke:none;" d="M0 0L0 40L10 40L10 20L20 20L20 50L0 50L0 60L10 60L10 70L0 70L0 110L40 110L40 100L50 100L50 110L60 110L60 100L50 100L50 90L90 90L90 100L70 100L70 110L110 110L110 70L90 70L90 40L110 40L110 0L70 0L70 20L60 20L60 10L40 10L40 0L0 0z"/>
<path style="fill:#ffffff; stroke:none;" d="M40 0L40 10L60 10L60 20L70 20L70 0L40 0M10 20L10 40L0 40L0 50L20 50L20 20L10 20M90 20L90 30L100 30L100 20L90 20M30 30L30 80L80 80L80 30L30 30M90 40L90 70L110 70L110 60L100 60L100 50L110 50L110 40L90 40z"/>
<path style="fill:#000000; stroke:none;" d="M60 50L60 70L70 70L70 50L60 50M100 50L100 60L110 60L110 50L100 50z"/>
<path style="fill:#ffffff; stroke:none;" d="M0 60L0 70L10 70L10 60L0 60z"/>
<path style="fill:#000000; stroke:none;" d="M40 60L40 70L50 70L50 60L40 60z"/>
<path style="fill:#ffffff; stroke:none;" d="M10 70L10 90L20 90L20 100L40 100L40 90L20 90L20 70L10 70M50 90L50 100L60 100L60 110L70 110L70 100L90 100L90 90L50 90M40 100L40 110L50 110L50 100L40 100z"/>
</svg>
