<?xml version="1.0" standalone="yes"?>
<svg xmlns="http://www.w3.org/2000/svg" width="110" height="110">
<path style="fill:#000000; stroke:none;" d="M0 0L0 50L10 50L10 30L20 30L20 60L10 60L10 70L0 70L0 110L40 110L40 90L80 90L80 100L60 100L60 110L110 110L110 70L100 70L100 80L90 80L90 60L110 60L110 0L70 0L70 10L50 10L50 0L0 0z"/>
<path style="fill:#ffffff; stroke:none;" d="M50 0L50 10L70 10L70 0L50 0M40 10L40 20L50 20L50 10L40 10M70 10L70 20L90 20L90 40L100 40L100 20L90 20L90 10L70 10M10 30L10 50L0 50L0 70L10 70L10 60L20 60L20 30L10 30M30 30L30 80L80 80L80 30L30 30z"/>
<path style="fill:#000000; stroke:none;" d="M50 40L50 50L70 50L70 40L50 40M40 60L40 70L60 70L60 60L40 60z"/>
<path style="fill:#ffffff; stroke:none;" d="M90 60L90 80L100 80L100 70L110 70L110 60L90 60M10 70L10 90L20 90L20 100L30 100L30 90L20 90L20 70L10 70M40 90L40 110L60 110L60 100L80 100L80 90L40 90z"/>
</svg>
