<?xml version="1.0" standalone="yes"?>
<svg xmlns="http://www.w3.org/2000/svg" width="110" height="110">
<path style="fill:#000000; stroke:none;" d="M0 0L0 50L10 50L10 70L0 70L0 110L40 110L40 100L30 100L30 90L60 90L60 100L50 100L50 110L60 110L60 100L70 100L70 110L110 110L110 70L90 70L90 60L110 60L110 0L0 0z"/>
<path style="fill:#ffffff; stroke:none;" d="M20 10L20 20L40 20L40 10L20 10M60 10L60 20L70 20L70 10L60 10M80 10L80 20L90 20L90 30L100 30L100 20L90 20L90 10L80 10M30 30L30 80L80 80L80 30L30 30z"/>
<path style="fill:#000000; stroke:none;" d="M50 40L50 50L40 50L40 70L70 70L70 50L60 50L60 40L50 40z"/>
<path style="fill:#ffffff; stroke:none;" d="M0 50L0 70L10 70L10 50L0 50M90 60L90 70L110 70L110 60L90 60M10 80L10 90L20 90L20 80L10 80M90 80L90 90L100 90L100 80L90 80M30 90L30 100L40 100L40 110L50 110L50 100L60 100L60 90L30 90M70 90L70 100L80 100L80 90L70 90M60 100L60 110L70 110L70 100L60 100z"/>
</svg>
