<?xml version="1.0" standalone="yes"?>
<svg xmlns="http://www.w3.org/2000/svg" width="110" height="110">
<path style="fill:#000000; stroke:none;" d="M0 0L0 110L110 110L110 60L90 60L90 50L110 50L110 0L0 0z"/>
<path style="fill:#ffffff; stroke:none;" d="M20 10L20 20L60 20L60 10L20 10M90 20L90 40L100 40L100 20L90 20M10 30L10 40L20 40L20 30L10 30M30 30L30 80L80 80L80 30L30 30z"/>
<path style="fill:#000000; stroke:none;" d="M50 40L50 60L40 60L40 70L50 70L50 60L60 60L60 70L70 70L70 50L60 50L60 40L50 40z"/>
<path style="fill:#ffffff; stroke:none;" d="M90 50L90 60L110 60L110 50L90 50M10 70L10 80L20 80L20 70L10 70M90 70L90 90L100 90L100 70L90 70M20 90L20 100L30 100L30 90L20 90M40 90L40 100L60 100L60 90L40 90z"/>
</svg>
