<?xml version="1.0" standalone="yes"?>
<svg xmlns="http://www.w3.org/2000/svg" width="110" height="110">
<path style="fill:#000000; stroke:none;" d="M0 0L0 40L10 40L10 50L20 50L20 70L0 70L0 110L50 110L50 100L60 100L60 110L110 110L110 0L0 0z"/>
<path style="fill:#ffffff; stroke:none;" d="M50 10L50 20L90 20L90 10L50 10M10 20L10 40L20 40L20 20L10 20M30 30L30 80L80 80L80 30L30 30M0 40L0 70L20 70L20 50L10 50L10 40L0 40z"/>
<path style="fill:#000000; stroke:none;" d="M50 40L50 50L70 50L70 40L50 40z"/>
<path style="fill:#ffffff; stroke:none;" d="M90 40L90 90L100 90L100 40L90 40M10 80L10 90L20 90L20 100L30 100L30 90L20 90L20 80L10 80M40 90L40 100L50 100L50 90L40 90M50 100L50 110L60 110L60 100L50 100z"/>
</svg>
