<?xml version="1.0" standalone="yes"?>
<svg xmlns="http://www.w3.org/2000/svg" width="110" height="110">
<path style="fill:#000000; stroke:none;" d="M0 0L0 40L20 40L20 50L10 50L10 70L0 70L0 110L110 110L110 70L90 70L90 60L100 60L100 50L110 50L110 0L0 0z"/>
<path style="fill:#ffffff; stroke:none;" d="M30 10L30 20L40 20L40 10L30 10M60 10L60 20L90 20L90 10L60 10M30 30L30 80L80 80L80 30L30 30M0 40L0 70L10 70L10 50L20 50L20 40L0 40z"/>
<path style="fill:#000000; stroke:none;" d="M40 40L40 60L50 60L50 50L60 50L60 70L70 70L70 50L60 50L60 40L40 40z"/>
<path style="fill:#ffffff; stroke:none;" d="M100 50L100 60L90 60L90 70L110 70L110 50L100 50M10 70L10 90L20 90L20 100L30 100L30 90L20 90L20 70L10 70M90 80L90 90L80 90L80 100L90 100L90 90L100 90L100 80L90 80M50 90L50 100L60 100L60 90L50 90z"/>
</svg>
