<?xml version="1.0" standalone="yes"?>
<svg xmlns="http://www.w3.org/2000/svg" width="110" height="110">
<path style="fill:#000000; stroke:none;" d="M0 0L0 110L110 110L110 60L100 60L100 90L90 90L90 50L110 50L110 0L60 0L60 20L40 20L40 10L50 10L50 0L0 0z"/>
<path style="fill:#ffffff; stroke:none;" d="M50 0L50 10L40 10L40 20L60 20L60 0L50 0M70 10L70 20L90 20L90 10L70 10M30 30L30 80L80 80L80 30L30 30z"/>
<path style="fill:#000000; stroke:none;" d="M50 40L50 50L60 50L60 60L40 60L40 70L60 70L60 60L70 60L70 50L60 50L60 40L50 40z"/>
<path style="fill:#ffffff; stroke:none;" d="M10 50L10 60L20 60L20 50L10 50M90 50L90 90L100 90L100 60L110 60L110 50L90 50M40 90L40 100L50 100L50 90L40 90M70 90L70 100L90 100L90 90L70 90z"/>
</svg>
