<?xml version="1.0" standalone="yes"?>
<svg xmlns="http://www.w3.org/2000/svg" width="110" height="110">
<path style="fill:#000000; stroke:none;" d="M0 0L0 110L40 110L40 100L60 100L60 110L110 110L110 70L100 70L100 60L90 60L90 50L110 50L110 0L60 0L60 10L40 10L40 0L0 0z"/>
<path style="fill:#ffffff; stroke:none;" d="M40 0L40 10L60 10L60 0L40 0M30 10L30 20L40 20L40 10L30 10M60 10L60 20L90 20L90 40L100 40L100 20L90 20L90 10L60 10M30 30L30 80L80 80L80 30L30 30M10 40L10 70L20 70L20 40L10 40z"/>
<path style="fill:#000000; stroke:none;" d="M40 40L40 60L50 60L50 70L60 70L60 60L70 60L70 50L60 50L60 60L50 60L50 40L40 40z"/>
<path style="fill:#ffffff; stroke:none;" d="M90 50L90 60L100 60L100 70L110 70L110 50L90 50M60 90L60 100L80 100L80 90L60 90M40 100L40 110L60 110L60 100L40 100z"/>
</svg>
