<?xml version="1.0" standalone="yes"?>
<svg xmlns="http://www.w3.org/2000/svg" width="110" height="110">
<path style="fill:#000000; stroke:none;" d="M0 0L0 50L10 50L10 70L0 70L0 110L40 110L40 100L60 100L60 90L70 90L70 110L110 110L110 60L90 60L90 50L100 50L100 40L110 40L110 0L60 0L60 10L90 10L90 20L50 20L50 10L40 10L40 0L0 0z"/>
<path style="fill:#ffffff; stroke:none;" d="M40 0L40 10L50 10L50 20L90 20L90 10L60 10L60 0L40 0M10 20L10 40L20 40L20 20L10 20M30 30L30 80L80 80L80 30L30 30M90 30L90 40L100 40L100 30L90 30z"/>
<path style="fill:#000000; stroke:none;" d="M40 40L40 50L50 50L50 60L60 60L60 70L70 70L70 60L60 60L60 50L70 50L70 40L60 40L60 50L50 50L50 40L40 40z"/>
<path style="fill:#ffffff; stroke:none;" d="M100 40L100 50L90 50L90 60L110 60L110 40L100 40M0 50L0 70L10 70L10 50L0 50M10 70L10 80L20 80L20 70L10 70M20 90L20 100L30 100L30 90L20 90M60 90L60 100L40 100L40 110L70 110L70 90L60 90z"/>
</svg>
