<?xml version="1.0" standalone="yes"?>
<svg xmlns="http://www.w3.org/2000/svg" width="110" height="110">
<path style="fill:#000000; stroke:none;" d="M0 0L0 40L10 40L10 20L20 20L20 50L0 50L0 110L40 110L40 90L60 90L60 110L110 110L110 0L60 0L60 10L80 10L80 20L40 20L40 0L0 0z"/>
<path style="fill:#ffffff; stroke:none;" d="M40 0L40 20L80 20L80 10L60 10L60 0L40 0M10 20L10 40L0 40L0 50L20 50L20 20L10 20M90 20L90 50L100 50L100 20L90 20M30 30L30 80L80 80L80 30L30 30z"/>
<path style="fill:#000000; stroke:none;" d="M40 40L40 50L50 50L50 40L40 40z"/>
<path style="fill:#ffffff; stroke:none;" d="M10 60L10 90L20 90L20 100L30 100L30 90L20 90L20 60L10 60z"/>
<path style="fill:#000000; stroke:none;" d="M40 60L40 70L70 70L70 60L40 60z"/>
<path style="fill:#ffffff; stroke:none;" d="M90 60L90 70L100 70L100 60L90 60M40 90L40 110L60 110L60 90L40 90z"/>
</svg>
