<?xml version="1.0" standalone="yes"?>
<svg xmlns="http://www.w3.org/2000/svg" width="110" height="110">
<path style="fill:#000000; stroke:none;" d="M0 0L0 40L20 40L20 60L0 60L0 110L50 110L50 100L60 100L60 110L110 110L110 60L100 60L100 70L90 70L90 40L110 40L110 0L50 0L50 20L40 20L40 0L0 0z"/>
<path style="fill:#ffffff; stroke:none;" d="M40 0L40 20L50 20L50 0L40 0M20 10L20 20L30 20L30 10L20 10M30 30L30 80L80 80L80 30L30 30M0 40L0 60L20 60L20 40L0 40z"/>
<path style="fill:#000000; stroke:none;" d="M40 40L40 60L60 60L60 70L70 70L70 40L40 40z"/>
<path style="fill:#ffffff; stroke:none;" d="M90 40L90 70L100 70L100 60L110 60L110 40L90 40M10 80L10 90L20 90L20 100L30 100L30 90L20 90L20 80L10 80M40 90L40 100L50 100L50 90L40 90M70 90L70 100L80 100L80 90L70 90M50 100L50 110L60 110L60 100L50 100z"/>
</svg>
