<?xml version="1.0" standalone="yes"?>
<svg xmlns="http://www.w3.org/2000/svg" width="110" height="110">
<path style="fill:#000000; stroke:none;" d="M0 0L0 60L10 60L10 20L20 20L20 80L10 80L10 70L0 70L0 110L40 110L40 100L20 100L20 90L80 90L80 100L60 100L60 110L110 110L110 70L90 70L90 60L110 60L110 0L60 0L60 10L70 10L70 20L50 20L50 10L40 10L40 0L0 0z"/>
<path style="fill:#ffffff; stroke:none;" d="M40 0L40 10L50 10L50 20L70 20L70 10L60 10L60 0L40 0M30 10L30 20L40 20L40 10L30 10M10 20L10 60L0 60L0 70L10 70L10 80L20 80L20 20L10 20M30 30L30 80L80 80L80 30L30 30z"/>
<path style="fill:#000000; stroke:none;" d="M50 40L50 50L40 50L40 60L50 60L50 70L70 70L70 50L60 50L60 40L50 40z"/>
<path style="fill:#ffffff; stroke:none;" d="M90 60L90 70L110 70L110 60L90 60M20 90L20 100L40 100L40 110L60 110L60 100L80 100L80 90L20 90z"/>
</svg>
