<?xml version="1.0" standalone="yes"?>
<svg xmlns="http://www.w3.org/2000/svg" width="110" height="110">
<path style="fill:#000000; stroke:none;" d="M0 0L0 40L10 40L10 50L0 50L0 60L10 60L10 50L20 50L20 90L10 90L10 70L0 70L0 110L110 110L110 0L70 0L70 10L90 10L90 20L60 20L60 0L50 0L50 10L40 10L40 0L0 0z"/>
<path style="fill:#ffffff; stroke:none;" d="M40 0L40 10L50 10L50 0L40 0M60 0L60 20L90 20L90 10L70 10L70 0L60 0M30 10L30 20L40 20L40 10L30 10M10 30L10 40L20 40L20 30L10 30M30 30L30 80L80 80L80 30L30 30M90 30L90 50L100 50L100 30L90 30M0 40L0 50L10 50L10 40L0 40z"/>
<path style="fill:#000000; stroke:none;" d="M40 40L40 50L50 50L50 70L70 70L70 60L60 60L60 40L40 40z"/>
<path style="fill:#ffffff; stroke:none;" d="M10 50L10 60L0 60L0 70L10 70L10 90L20 90L20 50L10 50M90 60L90 70L100 70L100 60L90 60M30 90L30 100L50 100L50 90L30 90M80 90L80 100L90 100L90 90L80 90z"/>
</svg>
