<?xml version="1.0" standalone="yes"?>
<svg xmlns="http://www.w3.org/2000/svg" width="110" height="110">
<path style="fill:#000000; stroke:none;" d="M0 0L0 40L20 40L20 50L10 50L10 60L20 60L20 90L10 90L10 70L0 70L0 110L40 110L40 100L50 100L50 110L110 110L110 60L100 60L100 50L110 50L110 0L70 0L70 20L50 20L50 10L40 10L40 0L0 0z"/>
<path style="fill:#ffffff; stroke:none;" d="M40 0L40 10L50 10L50 20L70 20L70 0L40 0M30 10L30 20L40 20L40 10L30 10M80 10L80 20L90 20L90 30L100 30L100 20L90 20L90 10L80 10M30 30L30 80L80 80L80 30L30 30M0 40L0 70L10 70L10 90L20 90L20 60L10 60L10 50L20 50L20 40L0 40z"/>
<path style="fill:#000000; stroke:none;" d="M40 40L40 70L50 70L50 60L60 60L60 70L70 70L70 40L40 40z"/>
<path style="fill:#ffffff; stroke:none;" d="M90 40L90 50L100 50L100 40L90 40M100 50L100 60L110 60L110 50L100 50M90 60L90 70L100 70L100 60L90 60M20 90L20 100L40 100L40 90L20 90M60 90L60 100L90 100L90 90L60 90M40 100L40 110L50 110L50 100L40 100z"/>
</svg>
