<?xml version="1.0" standalone="yes"?>
<svg xmlns="http://www.w3.org/2000/svg" width="110" height="110">
<path style="fill:#000000; stroke:none;" d="M0 0L0 50L20 50L20 60L10 60L10 70L0 70L0 110L40 110L40 100L50 100L50 90L60 90L60 100L70 100L70 110L110 110L110 70L100 70L100 50L110 50L110 0L70 0L70 10L60 10L60 20L30 20L30 10L40 10L40 0L0 0z"/>
<path style="fill:#ffffff; stroke:none;" d="M40 0L40 10L30 10L30 20L60 20L60 10L70 10L70 0L40 0M70 10L70 20L90 20L90 50L100 50L100 20L90 20L90 10L70 10M10 30L10 40L20 40L20 30L10 30M30 30L30 80L80 80L80 30L30 30z"/>
<path style="fill:#000000; stroke:none;" d="M40 40L40 70L70 70L70 40L40 40z"/>
<path style="fill:#ffffff; stroke:none;" d="M0 50L0 70L10 70L10 60L20 60L20 50L0 50M100 50L100 70L110 70L110 50L100 50M10 80L10 90L20 90L20 100L30 100L30 90L20 90L20 80L10 80M50 90L50 100L40 100L40 110L70 110L70 100L60 100L60 90L50 90M70 90L70 100L90 100L90 90L70 90z"/>
</svg>
