<?xml version="1.0" standalone="yes"?>
<svg xmlns="http://www.w3.org/2000/svg" width="110" height="110">
<path style="fill:#000000; stroke:none;" d="M0 0L0 40L10 40L10 50L0 50L0 110L40 110L40 90L50 90L50 110L60 110L60 100L70 100L70 110L110 110L110 50L100 50L100 80L90 80L90 20L100 20L100 40L110 40L110 0L70 0L70 10L60 10L60 20L40 20L40 0L0 0z"/>
<path style="fill:#ffffff; stroke:none;" d="M40 0L40 20L60 20L60 10L70 10L70 0L40 0M80 10L80 20L90 20L90 10L80 10M10 20L10 30L20 30L20 20L10 20M90 20L90 80L100 80L100 50L110 50L110 40L100 40L100 20L90 20M30 30L30 80L80 80L80 30L30 30M0 40L0 50L10 50L10 40L0 40M10 50L10 70L20 70L20 50L10 50z"/>
<path style="fill:#000000; stroke:none;" d="M40 50L40 70L50 70L50 50L40 50z"/>
<path style="fill:#ffffff; stroke:none;" d="M10 80L10 90L20 90L20 100L30 100L30 90L20 90L20 80L10 80M40 90L40 110L50 110L50 90L40 90M60 100L60 110L70 110L70 100L60 100z"/>
</svg>
