<?xml version="1.0" standalone="yes"?>
<svg xmlns="http://www.w3.org/2000/svg" width="110" height="110">
<path style="fill:#000000; stroke:none;" d="M0 0L0 50L10 50L10 70L0 70L0 110L110 110L110 60L100 60L100 40L110 40L110 0L70 0L70 10L60 10L60 20L50 20L50 0L0 0z"/>
<path style="fill:#ffffff; stroke:none;" d="M50 0L50 20L60 20L60 10L70 10L70 0L50 0M30 10L30 20L40 20L40 10L30 10M80 10L80 20L90 20L90 10L80 10M10 20L10 40L20 40L20 20L10 20M30 30L30 80L80 80L80 30L30 30z"/>
<path style="fill:#000000; stroke:none;" d="M50 40L50 50L40 50L40 70L50 70L50 60L70 60L70 50L60 50L60 40L50 40z"/>
<path style="fill:#ffffff; stroke:none;" d="M100 40L100 60L110 60L110 40L100 40M0 50L0 70L10 70L10 50L0 50M90 60L90 80L100 80L100 60L90 60M10 70L10 90L20 90L20 100L30 100L30 90L20 90L20 70L10 70M50 90L50 100L60 100L60 90L50 90M80 90L80 100L90 100L90 90L80 90z"/>
</svg>
