<?xml version="1.0" standalone="yes"?>
<svg xmlns="http://www.w3.org/2000/svg" width="110" height="110">
<path style="fill:#000000; stroke:none;" d="M0 0L0 40L10 40L10 20L20 20L20 60L10 60L10 70L0 70L0 110L40 110L40 90L50 90L50 110L110 110L110 70L100 70L100 90L90 90L90 60L100 60L100 50L110 50L110 0L70 0L70 20L40 20L40 10L50 10L50 0L0 0z"/>
<path style="fill:#ffffff; stroke:none;" d="M50 0L50 10L40 10L40 20L70 20L70 0L50 0M80 10L80 20L90 20L90 10L80 10M10 20L10 40L0 40L0 70L10 70L10 60L20 60L20 20L10 20M30 30L30 80L80 80L80 30L30 30z"/>
<path style="fill:#000000; stroke:none;" d="M40 40L40 50L50 50L50 40L40 40M60 40L60 60L40 60L40 70L60 70L60 60L70 60L70 40L60 40z"/>
<path style="fill:#ffffff; stroke:none;" d="M90 40L90 50L100 50L100 40L90 40M100 50L100 60L90 60L90 90L100 90L100 70L110 70L110 50L100 50M40 90L40 110L50 110L50 90L40 90M70 90L70 100L90 100L90 90L70 90z"/>
</svg>
