<?xml version="1.0" standalone="yes"?>
<svg xmlns="http://www.w3.org/2000/svg" width="110" height="110">
<path style="fill:#000000; stroke:none;" d="M0 0L0 40L10 40L10 50L20 50L20 80L10 80L10 70L0 70L0 110L110 110L110 70L100 70L100 80L90 80L90 50L100 50L100 60L110 60L110 0L0 0z"/>
<path style="fill:#ffffff; stroke:none;" d="M40 10L40 20L60 20L60 10L40 10M80 10L80 20L90 20L90 30L100 30L100 20L90 20L90 10L80 10M30 30L30 80L80 80L80 30L30 30M0 40L0 70L10 70L10 80L20 80L20 50L10 50L10 40L0 40z"/>
<path style="fill:#000000; stroke:none;" d="M40 50L40 70L50 70L50 50L40 50M60 50L60 70L70 70L70 50L60 50z"/>
<path style="fill:#ffffff; stroke:none;" d="M90 50L90 80L100 80L100 70L110 70L110 60L100 60L100 50L90 50M20 90L20 100L30 100L30 90L20 90M50 90L50 100L60 100L60 90L50 90z"/>
</svg>
