<?xml version="1.0" standalone="yes"?>
<svg xmlns="http://www.w3.org/2000/svg" width="110" height="110">
<path style="fill:#000000; stroke:none;" d="M0 0L0 60L10 60L10 70L0 70L0 110L50 110L50 100L60 100L60 110L110 110L110 60L100 60L100 50L110 50L110 0L70 0L70 20L60 20L60 0L0 0z"/>
<path style="fill:#ffffff; stroke:none;" d="M60 0L60 20L70 20L70 0L60 0M30 10L30 20L50 20L50 10L30 10M80 10L80 20L90 20L90 10L80 10M10 30L10 50L20 50L20 30L10 30M30 30L30 80L80 80L80 30L30 30M90 30L90 40L100 40L100 30L90 30z"/>
<path style="fill:#000000; stroke:none;" d="M50 40L50 50L40 50L40 70L70 70L70 40L50 40z"/>
<path style="fill:#ffffff; stroke:none;" d="M50 50L50 60L60 60L60 50L50 50M100 50L100 60L110 60L110 50L100 50M0 60L0 70L10 70L10 60L0 60M10 70L10 90L20 90L20 100L30 100L30 90L20 90L20 70L10 70M90 70L90 80L100 80L100 70L90 70M40 90L40 100L50 100L50 90L40 90M60 90L60 100L90 100L90 90L60 90M50 100L50 110L60 110L60 100L50 100z"/>
</svg>
