<?xml version="1.0" standalone="yes"?>
<svg xmlns="http://www.w3.org/2000/svg" width="110" height="110">
<path style="fill:#000000; stroke:none;" d="M0 0L0 40L10 40L10 50L0 50L0 110L40 110L40 90L50 90L50 100L70 100L70 110L110 110L110 70L90 70L90 40L100 40L100 60L110 60L110 0L70 0L70 20L60 20L60 10L40 10L40 0L0 0z"/>
<path style="fill:#ffffff; stroke:none;" d="M40 0L40 10L60 10L60 20L70 20L70 0L40 0M20 10L20 20L40 20L40 10L20 10M30 30L30 80L80 80L80 30L30 30M0 40L0 50L10 50L10 40L0 40z"/>
<path style="fill:#000000; stroke:none;" d="M60 40L60 60L50 60L50 50L40 50L40 70L60 70L60 60L70 60L70 40L60 40z"/>
<path style="fill:#ffffff; stroke:none;" d="M90 40L90 70L110 70L110 60L100 60L100 40L90 40M10 60L10 80L20 80L20 60L10 60M40 90L40 110L70 110L70 100L50 100L50 90L40 90z"/>
</svg>
