<?xml version="1.0" standalone="yes"?>
<svg xmlns="http://www.w3.org/2000/svg" width="110" height="110">
<path style="fill:#000000; stroke:none;" d="M0 0L0 110L40 110L40 100L20 100L20 90L80 90L80 100L50 100L50 110L110 110L110 0L0 0z"/>
<path style="fill:#ffffff; stroke:none;" d="M20 10L20 20L10 20L10 40L20 40L20 20L30 20L30 10L20 10M50 10L50 20L80 20L80 10L50 10M30 30L30 80L80 80L80 30L30 30M90 30L90 40L100 40L100 30L90 30z"/>
<path style="fill:#000000; stroke:none;" d="M50 40L50 70L60 70L60 60L70 60L70 40L50 40z"/>
<path style="fill:#ffffff; stroke:none;" d="M10 50L10 60L20 60L20 50L10 50M90 50L90 70L100 70L100 50L90 50M20 90L20 100L40 100L40 110L50 110L50 100L80 100L80 90L20 90z"/>
</svg>
