<?xml version="1.0" standalone="yes"?>
<svg xmlns="http://www.w3.org/2000/svg" width="110" height="110">
<path style="fill:#000000; stroke:none;" d="M0 0L0 110L40 110L40 100L50 100L50 110L110 110L110 70L100 70L100 90L90 90L90 60L110 60L110 0L60 0L60 10L50 10L50 20L40 20L40 0L0 0z"/>
<path style="fill:#ffffff; stroke:none;" d="M40 0L40 20L50 20L50 10L60 10L60 0L40 0M20 10L20 20L30 20L30 10L20 10M60 10L60 20L90 20L90 10L60 10M10 30L10 40L20 40L20 30L10 30M30 30L30 80L80 80L80 30L30 30M90 30L90 50L100 50L100 30L90 30z"/>
<path style="fill:#000000; stroke:none;" d="M40 50L40 70L50 70L50 50L40 50M60 50L60 60L70 60L70 50L60 50z"/>
<path style="fill:#ffffff; stroke:none;" d="M90 60L90 90L100 90L100 70L110 70L110 60L90 60M30 90L30 100L40 100L40 90L30 90M70 90L70 100L80 100L80 90L70 90M40 100L40 110L50 110L50 100L40 100z"/>
</svg>
