<?xml version="1.0" standalone="yes"?>
<svg xmlns="http://www.w3.org/2000/svg" width="110" height="110">
<path style="fill:#000000; stroke:none;" d="M0 0L0 40L20 40L20 80L10 80L10 70L0 70L0 110L60 110L60 100L50 100L50 90L80 90L80 100L70 100L70 110L110 110L110 60L100 60L100 40L110 40L110 0L60 0L60 20L50 20L50 0L0 0z"/>
<path style="fill:#ffffff; stroke:none;" d="M50 0L50 20L60 20L60 0L50 0M20 10L20 20L10 20L10 30L20 30L20 20L40 20L40 10L20 10M70 10L70 20L90 20L90 30L100 30L100 20L90 20L90 10L70 10M30 30L30 80L80 80L80 30L30 30M0 40L0 50L10 50L10 60L0 60L0 70L10 70L10 80L20 80L20 40L0 40z"/>
<path style="fill:#000000; stroke:none;" d="M50 40L50 70L70 70L70 40L50 40z"/>
<path style="fill:#ffffff; stroke:none;" d="M100 40L100 60L110 60L110 40L100 40z"/>
<path style="fill:#000000; stroke:none;" d="M0 50L0 60L10 60L10 50L0 50z"/>
<path style="fill:#ffffff; stroke:none;" d="M90 60L90 90L100 90L100 60L90 60M30 90L30 100L40 100L40 90L30 90M50 90L50 100L60 100L60 110L70 110L70 100L80 100L80 90L50 90z"/>
</svg>
