<?xml version="1.0" standalone="yes"?>
<svg xmlns="http://www.w3.org/2000/svg" width="110" height="110">
<path style="fill:#000000; stroke:none;" d="M0 0L0 50L10 50L10 30L20 30L20 70L10 70L10 60L0 60L0 110L40 110L40 100L50 100L50 110L60 110L60 100L50 100L50 90L80 90L80 100L70 100L70 110L110 110L110 70L100 70L100 60L90 60L90 20L100 20L100 50L110 50L110 0L0 0z"/>
<path style="fill:#ffffff; stroke:none;" d="M20 10L20 20L40 20L40 10L20 10M70 10L70 20L80 20L80 10L70 10M90 20L90 60L100 60L100 70L110 70L110 50L100 50L100 20L90 20M10 30L10 50L0 50L0 60L10 60L10 70L20 70L20 30L10 30M30 30L30 80L80 80L80 30L30 30z"/>
<path style="fill:#000000; stroke:none;" d="M60 50L60 60L40 60L40 70L70 70L70 50L60 50z"/>
<path style="fill:#ffffff; stroke:none;" d="M90 70L90 90L100 90L100 70L90 70M20 90L20 100L30 100L30 90L20 90M50 90L50 100L60 100L60 110L70 110L70 100L80 100L80 90L50 90M40 100L40 110L50 110L50 100L40 100z"/>
</svg>
