<?xml version="1.0" standalone="yes"?>
<svg xmlns="http://www.w3.org/2000/svg" width="110" height="110">
<path style="fill:#000000; stroke:none;" d="M0 0L0 110L40 110L40 100L50 100L50 110L110 110L110 60L100 60L100 50L90 50L90 40L110 40L110 0L0 0z"/>
<path style="fill:#ffffff; stroke:none;" d="M40 10L40 20L60 20L60 10L40 10M70 10L70 20L90 20L90 10L70 10M10 20L10 60L20 60L20 20L10 20M30 30L30 80L80 80L80 30L30 30M90 40L90 50L100 50L100 60L110 60L110 40L90 40z"/>
<path style="fill:#000000; stroke:none;" d="M40 50L40 70L50 70L50 50L40 50M60 50L60 60L70 60L70 50L60 50z"/>
<path style="fill:#ffffff; stroke:none;" d="M90 60L90 70L100 70L100 60L90 60M20 90L20 100L30 100L30 90L20 90M60 90L60 100L70 100L70 90L60 90M40 100L40 110L50 110L50 100L40 100z"/>
</svg>
