<?xml version="1.0" standalone="yes"?>
<svg xmlns="http://www.w3.org/2000/svg" width="110" height="110">
<path style="fill:#000000; stroke:none;" d="M0 0L0 40L10 40L10 60L0 60L0 110L40 110L40 100L50 100L50 110L60 110L60 90L80 90L80 100L70 100L70 110L110 110L110 70L100 70L100 60L110 60L110 0L70 0L70 10L90 10L90 20L60 20L60 0L50 0L50 10L40 10L40 0L0 0z"/>
<path style="fill:#ffffff; stroke:none;" d="M40 0L40 10L50 10L50 0L40 0M60 0L60 20L90 20L90 10L70 10L70 0L60 0M20 10L20 20L10 20L10 40L20 40L20 20L40 20L40 10L20 10M30 30L30 80L80 80L80 30L30 30M0 40L0 60L10 60L10 40L0 40z"/>
<path style="fill:#000000; stroke:none;" d="M50 40L50 50L40 50L40 70L70 70L70 50L60 50L60 40L50 40z"/>
<path style="fill:#ffffff; stroke:none;" d="M90 50L90 60L100 60L100 50L90 50M100 60L100 70L110 70L110 60L100 60M10 70L10 80L20 80L20 70L10 70M90 70L90 90L100 90L100 70L90 70M20 90L20 100L30 100L30 90L20 90M60 90L60 110L70 110L70 100L80 100L80 90L60 90M40 100L40 110L50 110L50 100L40 100z"/>
</svg>
