<?xml version="1.0" standalone="yes"?>
<svg xmlns="http://www.w3.org/2000/svg" width="110" height="110">
<path style="fill:#000000; stroke:none;" d="M0 0L0 40L10 40L10 60L0 60L0 110L50 110L50 100L70 100L70 110L110 110L110 0L0 0z"/>
<path style="fill:#ffffff; stroke:none;" d="M20 10L20 20L50 20L50 10L20 10M60 10L60 20L70 20L70 10L60 10M80 10L80 20L90 20L90 70L100 70L100 20L90 20L90 10L80 10M10 30L10 40L20 40L20 30L10 30M30 30L30 80L80 80L80 30L30 30M0 40L0 60L10 60L10 40L0 40z"/>
<path style="fill:#000000; stroke:none;" d="M50 40L50 50L40 50L40 60L50 60L50 70L70 70L70 50L60 50L60 40L50 40z"/>
<path style="fill:#ffffff; stroke:none;" d="M50 50L50 60L60 60L60 50L50 50M10 60L10 80L20 80L20 60L10 60M90 80L90 90L100 90L100 80L90 80M40 90L40 100L50 100L50 90L40 90M50 100L50 110L70 110L70 100L50 100z"/>
</svg>
