<?xml version="1.0" standalone="yes"?>
<svg xmlns="http://www.w3.org/2000/svg" width="110" height="110">
<path style="fill:#000000; stroke:none;" d="M0 0L0 40L10 40L10 50L0 50L0 60L10 60L10 70L0 70L0 110L50 110L50 100L70 100L70 110L110 110L110 0L0 0z"/>
<path style="fill:#ffffff; stroke:none;" d="M20 10L20 20L30 20L30 10L20 10M50 10L50 20L60 20L60 10L50 10M70 10L70 20L90 20L90 10L70 10M30 30L30 80L80 80L80 30L30 30M0 40L0 50L10 50L10 40L0 40z"/>
<path style="fill:#000000; stroke:none;" d="M40 40L40 60L50 60L50 70L60 70L60 60L50 60L50 40L40 40M60 40L60 50L70 50L70 40L60 40z"/>
<path style="fill:#ffffff; stroke:none;" d="M90 40L90 90L100 90L100 40L90 40M0 60L0 70L10 70L10 60L0 60M10 70L10 80L20 80L20 70L10 70M20 90L20 100L30 100L30 90L20 90M70 90L70 100L80 100L80 90L70 90M50 100L50 110L70 110L70 100L50 100z"/>
</svg>
