<?xml version="1.0" standalone="yes"?>
<svg xmlns="http://www.w3.org/2000/svg" width="110" height="110">
<path style="fill:#000000; stroke:none;" d="M0 0L0 40L10 40L10 50L20 50L20 70L10 70L10 60L0 60L0 110L50 110L50 90L70 90L70 100L60 100L60 110L110 110L110 0L70 0L70 10L80 10L80 20L50 20L50 10L40 10L40 0L0 0z"/>
<path style="fill:#ffffff; stroke:none;" d="M40 0L40 10L50 10L50 20L80 20L80 10L70 10L70 0L40 0M30 10L30 20L40 20L40 10L30 10M90 20L90 30L100 30L100 20L90 20M10 30L10 40L20 40L20 30L10 30M30 30L30 80L80 80L80 30L30 30M0 40L0 60L10 60L10 70L20 70L20 50L10 50L10 40L0 40z"/>
<path style="fill:#000000; stroke:none;" d="M50 40L50 50L40 50L40 60L50 60L50 50L60 50L60 70L70 70L70 40L50 40z"/>
<path style="fill:#ffffff; stroke:none;" d="M90 50L90 80L100 80L100 50L90 50M10 80L10 90L20 90L20 100L40 100L40 90L20 90L20 80L10 80M50 90L50 110L60 110L60 100L70 100L70 90L50 90M80 90L80 100L90 100L90 90L80 90z"/>
</svg>
