<?xml version="1.0" standalone="yes"?>
<svg xmlns="http://www.w3.org/2000/svg" width="110" height="110">
<path style="fill:#000000; stroke:none;" d="M0 0L0 110L110 110L110 0L70 0L70 10L60 10L60 0L0 0z"/>
<path style="fill:#ffffff; stroke:none;" d="M60 0L60 10L70 10L70 0L60 0M20 10L20 20L30 20L30 10L20 10M40 10L40 20L50 20L50 10L40 10M30 30L30 80L80 80L80 30L30 30M90 30L90 50L100 50L100 30L90 30M10 40L10 50L20 50L20 40L10 40z"/>
<path style="fill:#000000; stroke:none;" d="M40 40L40 70L50 70L50 50L60 50L60 40L40 40z"/>
<path style="fill:#ffffff; stroke:none;" d="M10 60L10 90L20 90L20 60L10 60M90 60L90 90L60 90L60 100L90 100L90 90L100 90L100 60L90 60M40 90L40 100L50 100L50 90L40 90z"/>
</svg>
