<?xml version="1.0" standalone="yes"?>
<svg xmlns="http://www.w3.org/2000/svg" width="110" height="110">
<path style="fill:#000000; stroke:none;" d="M0 0L0 40L10 40L10 60L0 60L0 110L60 110L60 90L80 90L80 100L70 100L70 110L110 110L110 70L100 70L100 80L90 80L90 50L110 50L110 0L70 0L70 10L90 10L90 20L60 20L60 10L40 10L40 0L0 0z"/>
<path style="fill:#ffffff; stroke:none;" d="M40 0L40 10L60 10L60 20L90 20L90 10L70 10L70 0L40 0M20 10L20 20L10 20L10 40L20 40L20 20L30 20L30 10L20 10M90 20L90 40L100 40L100 20L90 20M30 30L30 80L80 80L80 30L30 30M0 40L0 60L10 60L10 40L0 40z"/>
<path style="fill:#000000; stroke:none;" d="M40 40L40 50L50 50L50 70L60 70L60 60L70 60L70 50L60 50L60 40L40 40z"/>
<path style="fill:#ffffff; stroke:none;" d="M90 50L90 80L100 80L100 70L110 70L110 50L90 50M10 70L10 90L20 90L20 100L40 100L40 90L20 90L20 70L10 70M60 90L60 110L70 110L70 100L80 100L80 90L60 90z"/>
</svg>
