<?xml version="1.0" standalone="yes"?>
<svg xmlns="http://www.w3.org/2000/svg" width="110" height="110">
<path style="fill:#000000; stroke:none;" d="M0 0L0 60L20 60L20 70L0 70L0 110L40 110L40 100L50 100L50 110L60 110L60 100L70 100L70 110L110 110L110 50L90 50L90 20L100 20L100 40L110 40L110 0L70 0L70 10L60 10L60 20L40 20L40 10L50 10L50 0L0 0z"/>
<path style="fill:#ffffff; stroke:none;" d="M50 0L50 10L40 10L40 20L60 20L60 10L70 10L70 0L50 0M20 10L20 20L10 20L10 50L20 50L20 20L30 20L30 10L20 10M70 10L70 20L80 20L80 10L70 10M90 20L90 50L110 50L110 40L100 40L100 20L90 20M30 30L30 80L80 80L80 30L30 30z"/>
<path style="fill:#000000; stroke:none;" d="M40 40L40 50L50 50L50 40L40 40z"/>
<path style="fill:#ffffff; stroke:none;" d="M0 60L0 70L20 70L20 60L0 60z"/>
<path style="fill:#000000; stroke:none;" d="M50 60L50 70L60 70L60 60L50 60z"/>
<path style="fill:#ffffff; stroke:none;" d="M10 80L10 90L20 90L20 80L10 80M90 80L90 90L100 90L100 80L90 80M40 100L40 110L50 110L50 100L40 100M60 100L60 110L70 110L70 100L60 100z"/>
</svg>
