<?xml version="1.0" standalone="yes"?>
<svg xmlns="http://www.w3.org/2000/svg" width="110" height="110">
<path style="fill:#000000; stroke:none;" d="M0 0L0 60L10 60L10 70L0 70L0 110L40 110L40 100L50 100L50 110L110 110L110 70L90 70L90 60L110 60L110 50L100 50L100 40L110 40L110 0L0 0z"/>
<path style="fill:#ffffff; stroke:none;" d="M20 10L20 20L10 20L10 50L20 50L20 20L40 20L40 10L20 10M60 10L60 20L90 20L90 10L60 10M30 30L30 80L80 80L80 30L30 30z"/>
<path style="fill:#000000; stroke:none;" d="M50 40L50 50L40 50L40 60L50 60L50 70L60 70L60 60L70 60L70 40L50 40z"/>
<path style="fill:#ffffff; stroke:none;" d="M100 40L100 50L110 50L110 40L100 40M50 50L50 60L60 60L60 50L50 50M0 60L0 70L10 70L10 60L0 60M90 60L90 70L110 70L110 60L90 60M90 80L90 90L80 90L80 100L90 100L90 90L100 90L100 80L90 80M20 90L20 100L30 100L30 90L20 90M60 90L60 100L70 100L70 90L60 90M40 100L40 110L50 110L50 100L40 100z"/>
</svg>
