<?xml version="1.0" standalone="yes"?>
<svg xmlns="http://www.w3.org/2000/svg" width="110" height="110">
<path style="fill:#000000; stroke:none;" d="M0 0L0 110L110 110L110 60L100 60L100 50L110 50L110 0L0 0z"/>
<path style="fill:#ffffff; stroke:none;" d="M30 10L30 20L50 20L50 10L30 10M10 20L10 40L20 40L20 20L10 20M90 20L90 30L100 30L100 20L90 20M30 30L30 80L80 80L80 30L30 30z"/>
<path style="fill:#000000; stroke:none;" d="M40 40L40 70L70 70L70 50L60 50L60 60L50 60L50 40L40 40z"/>
<path style="fill:#ffffff; stroke:none;" d="M100 50L100 60L110 60L110 50L100 50M10 60L10 80L20 80L20 60L10 60M90 60L90 70L100 70L100 60L90 60M20 90L20 100L70 100L70 90L20 90z"/>
</svg>
