<?xml version="1.0" standalone="yes"?>
<svg xmlns="http://www.w3.org/2000/svg" width="110" height="110">
<path style="fill:#000000; stroke:none;" d="M0 0L0 40L20 40L20 50L0 50L0 110L40 110L40 100L60 100L60 110L110 110L110 70L90 70L90 30L100 30L100 60L110 60L110 0L60 0L60 20L50 20L50 10L40 10L40 0L0 0z"/>
<path style="fill:#ffffff; stroke:none;" d="M40 0L40 10L50 10L50 20L60 20L60 0L40 0M10 20L10 30L20 30L20 20L10 20M30 30L30 80L80 80L80 30L30 30M90 30L90 70L110 70L110 60L100 60L100 30L90 30M0 40L0 50L20 50L20 40L0 40M10 60L10 70L20 70L20 60L10 60z"/>
<path style="fill:#000000; stroke:none;" d="M40 60L40 70L50 70L50 60L40 60z"/>
<path style="fill:#ffffff; stroke:none;" d="M90 80L90 90L80 90L80 100L90 100L90 90L100 90L100 80L90 80M20 90L20 100L40 100L40 90L20 90M60 90L60 100L70 100L70 90L60 90M40 100L40 110L60 110L60 100L40 100z"/>
</svg>
