<?xml version="1.0" standalone="yes"?>
<svg xmlns="http://www.w3.org/2000/svg" width="110" height="110">
<path style="fill:#000000; stroke:none;" d="M0 0L0 50L10 50L10 60L0 60L0 110L50 110L50 100L60 100L60 110L110 110L110 60L100 60L100 40L110 40L110 0L60 0L60 20L20 20L20 10L50 10L50 0L0 0z"/>
<path style="fill:#ffffff; stroke:none;" d="M50 0L50 10L20 10L20 20L60 20L60 0L50 0M10 20L10 30L20 30L20 20L10 20M30 30L30 80L80 80L80 30L30 30M90 30L90 40L100 40L100 30L90 30M10 40L10 50L20 50L20 40L10 40z"/>
<path style="fill:#000000; stroke:none;" d="M50 40L50 50L60 50L60 40L50 40z"/>
<path style="fill:#ffffff; stroke:none;" d="M100 40L100 60L110 60L110 40L100 40M0 50L0 60L10 60L10 50L0 50M10 60L10 80L20 80L20 60L10 60z"/>
<path style="fill:#000000; stroke:none;" d="M40 60L40 70L50 70L50 60L40 60M60 60L60 70L70 70L70 60L60 60z"/>
<path style="fill:#ffffff; stroke:none;" d="M90 60L90 90L100 90L100 60L90 60M20 90L20 100L30 100L30 90L20 90M40 90L40 100L50 100L50 90L40 90M60 90L60 100L80 100L80 90L60 90M50 100L50 110L60 110L60 100L50 100z"/>
</svg>
