<?xml version="1.0" standalone="yes"?>
<svg xmlns="http://www.w3.org/2000/svg" width="110" height="110">
<path style="fill:#000000; stroke:none;" d="M0 0L0 40L10 40L10 50L0 50L0 110L50 110L50 90L60 90L60 100L70 100L70 110L110 110L110 70L90 70L90 60L100 60L100 50L110 50L110 0L60 0L60 20L30 20L30 10L40 10L40 0L0 0z"/>
<path style="fill:#ffffff; stroke:none;" d="M40 0L40 10L30 10L30 20L60 20L60 0L40 0M80 10L80 20L90 20L90 50L100 50L100 20L90 20L90 10L80 10M10 30L10 40L20 40L20 30L10 30M30 30L30 80L80 80L80 30L30 30M0 40L0 50L10 50L10 40L0 40z"/>
<path style="fill:#000000; stroke:none;" d="M40 40L40 70L50 70L50 60L60 60L60 70L70 70L70 60L60 60L60 50L50 50L50 40L40 40z"/>
<path style="fill:#ffffff; stroke:none;" d="M100 50L100 60L90 60L90 70L110 70L110 50L100 50M10 60L10 90L20 90L20 60L10 60M90 80L90 90L70 90L70 100L90 100L90 90L100 90L100 80L90 80M50 90L50 110L70 110L70 100L60 100L60 90L50 90z"/>
</svg>
