<?xml version="1.0" standalone="yes"?>
<svg xmlns="http://www.w3.org/2000/svg" width="110" height="110">
<path style="fill:#000000; stroke:none;" d="M0 0L0 110L40 110L40 100L60 100L60 90L80 90L80 100L70 100L70 110L110 110L110 70L100 70L100 60L90 60L90 50L110 50L110 0L60 0L60 20L40 20L40 10L50 10L50 0L0 0z"/>
<path style="fill:#ffffff; stroke:none;" d="M50 0L50 10L40 10L40 20L60 20L60 0L50 0M70 10L70 20L90 20L90 40L100 40L100 20L90 20L90 10L70 10M10 30L10 90L20 90L20 100L30 100L30 90L20 90L20 30L10 30M30 30L30 80L80 80L80 30L30 30z"/>
<path style="fill:#000000; stroke:none;" d="M40 40L40 60L50 60L50 70L70 70L70 40L60 40L60 50L50 50L50 40L40 40z"/>
<path style="fill:#ffffff; stroke:none;" d="M90 50L90 60L100 60L100 70L110 70L110 50L90 50M90 70L90 80L100 80L100 70L90 70M60 90L60 100L40 100L40 110L70 110L70 100L80 100L80 90L60 90z"/>
</svg>
