<?xml version="1.0" standalone="yes"?>
<svg xmlns="http://www.w3.org/2000/svg" width="110" height="110">
<path style="fill:#000000; stroke:none;" d="M0 0L0 40L20 40L20 70L10 70L10 50L0 50L0 110L50 110L50 100L60 100L60 90L90 90L90 100L70 100L70 110L110 110L110 70L100 70L100 60L110 60L110 0L70 0L70 10L40 10L40 0L0 0z"/>
<path style="fill:#ffffff; stroke:none;" d="M40 0L40 10L70 10L70 0L40 0M20 10L20 20L10 20L10 30L20 30L20 20L30 20L30 10L20 10M70 10L70 20L80 20L80 10L70 10M90 20L90 40L100 40L100 20L90 20M30 30L30 80L80 80L80 30L30 30M0 40L0 50L10 50L10 70L20 70L20 40L0 40z"/>
<path style="fill:#000000; stroke:none;" d="M40 40L40 50L50 50L50 60L40 60L40 70L50 70L50 60L70 60L70 40L60 40L60 50L50 50L50 40L40 40z"/>
<path style="fill:#ffffff; stroke:none;" d="M90 50L90 60L100 60L100 50L90 50M100 60L100 70L110 70L110 60L100 60M90 70L90 90L100 90L100 70L90 70M20 90L20 100L30 100L30 90L20 90M40 90L40 100L50 100L50 90L40 90M60 90L60 100L50 100L50 110L70 110L70 100L90 100L90 90L60 90z"/>
</svg>
