<?xml version="1.0" standalone="yes"?>
<svg xmlns="http://www.w3.org/2000/svg" width="110" height="110">
<path style="fill:#000000; stroke:none;" d="M0 0L0 60L10 60L10 70L0 70L0 110L40 110L40 100L20 100L20 90L60 90L60 100L50 100L50 110L60 110L60 100L70 100L70 110L110 110L110 0L0 0z"/>
<path style="fill:#ffffff; stroke:none;" d="M40 10L40 20L60 20L60 10L40 10M30 30L30 80L80 80L80 30L30 30M90 30L90 40L100 40L100 30L90 30z"/>
<path style="fill:#000000; stroke:none;" d="M60 50L60 70L70 70L70 50L60 50z"/>
<path style="fill:#ffffff; stroke:none;" d="M0 60L0 70L10 70L10 60L0 60z"/>
<path style="fill:#000000; stroke:none;" d="M40 60L40 70L50 70L50 60L40 60z"/>
<path style="fill:#ffffff; stroke:none;" d="M90 60L90 90L100 90L100 60L90 60M10 70L10 90L20 90L20 70L10 70M20 90L20 100L40 100L40 110L50 110L50 100L60 100L60 90L20 90M70 90L70 100L80 100L80 90L70 90M60 100L60 110L70 110L70 100L60 100z"/>
</svg>
