<?xml version="1.0" standalone="yes"?>
<svg xmlns="http://www.w3.org/2000/svg" width="110" height="110">
<path style="fill:#000000; stroke:none;" d="M0 0L0 40L10 40L10 20L20 20L20 80L10 80L10 60L0 60L0 110L40 110L40 100L50 100L50 90L60 90L60 100L70 100L70 110L110 110L110 70L100 70L100 60L90 60L90 40L110 40L110 0L0 0z"/>
<path style="fill:#ffffff; stroke:none;" d="M40 10L40 20L50 20L50 10L40 10M10 20L10 40L0 40L0 60L10 60L10 80L20 80L20 20L10 20M30 30L30 80L80 80L80 30L30 30z"/>
<path style="fill:#000000; stroke:none;" d="M50 40L50 50L40 50L40 60L60 60L60 70L70 70L70 50L60 50L60 40L50 40z"/>
<path style="fill:#ffffff; stroke:none;" d="M90 40L90 60L100 60L100 70L110 70L110 40L90 40M90 80L90 90L80 90L80 100L90 100L90 90L100 90L100 80L90 80M30 90L30 100L40 100L40 90L30 90M50 90L50 100L40 100L40 110L70 110L70 100L60 100L60 90L50 90z"/>
</svg>
