<?xml version="1.0" standalone="yes"?>
<svg xmlns="http://www.w3.org/2000/svg" width="110" height="110">
<path style="fill:#000000; stroke:none;" d="M0 0L0 40L20 40L20 50L10 50L10 60L20 60L20 70L0 70L0 110L40 110L40 100L60 100L60 110L110 110L110 50L100 50L100 70L90 70L90 40L110 40L110 0L70 0L70 10L80 10L80 20L60 20L60 10L50 10L50 0L0 0z"/>
<path style="fill:#ffffff; stroke:none;" d="M50 0L50 10L60 10L60 20L80 20L80 10L70 10L70 0L50 0M90 20L90 30L100 30L100 20L90 20M30 30L30 80L80 80L80 30L30 30M0 40L0 70L20 70L20 60L10 60L10 50L20 50L20 40L0 40z"/>
<path style="fill:#000000; stroke:none;" d="M40 40L40 60L50 60L50 70L60 70L60 60L70 60L70 50L60 50L60 60L50 60L50 40L40 40z"/>
<path style="fill:#ffffff; stroke:none;" d="M90 40L90 70L100 70L100 50L110 50L110 40L90 40M20 90L20 100L30 100L30 90L20 90M40 100L40 110L60 110L60 100L40 100z"/>
</svg>
