<?xml version="1.0" standalone="yes"?>
<svg xmlns="http://www.w3.org/2000/svg" width="110" height="110">
<path style="fill:#000000; stroke:none;" d="M0 0L0 50L10 50L10 70L0 70L0 110L40 110L40 100L20 100L20 90L60 90L60 110L110 110L110 50L100 50L100 70L90 70L90 20L100 20L100 40L110 40L110 0L60 0L60 10L70 10L70 20L40 20L40 0L0 0z"/>
<path style="fill:#ffffff; stroke:none;" d="M40 0L40 20L70 20L70 10L60 10L60 0L40 0M20 10L20 20L10 20L10 30L20 30L20 20L30 20L30 10L20 10M80 10L80 20L90 20L90 10L80 10M90 20L90 70L100 70L100 50L110 50L110 40L100 40L100 20L90 20M30 30L30 80L80 80L80 30L30 30M10 40L10 50L20 50L20 40L10 40z"/>
<path style="fill:#000000; stroke:none;" d="M60 40L60 50L50 50L50 60L40 60L40 70L60 70L60 60L70 60L70 40L60 40z"/>
<path style="fill:#ffffff; stroke:none;" d="M0 50L0 70L10 70L10 50L0 50M90 80L90 90L80 90L80 100L90 100L90 90L100 90L100 80L90 80M20 90L20 100L40 100L40 110L60 110L60 90L20 90z"/>
</svg>
