<?xml version="1.0" standalone="yes"?>
<svg xmlns="http://www.w3.org/2000/svg" width="110" height="110">
<path style="fill:#000000; stroke:none;" d="M0 0L0 110L60 110L60 100L50 100L50 90L90 90L90 100L70 100L70 110L110 110L110 60L100 60L100 50L90 50L90 20L100 20L100 40L110 40L110 0L50 0L50 20L30 20L30 10L40 10L40 0L0 0z"/>
<path style="fill:#ffffff; stroke:none;" d="M40 0L40 10L30 10L30 20L50 20L50 0L40 0M90 20L90 50L100 50L100 60L110 60L110 40L100 40L100 20L90 20M10 30L10 40L20 40L20 30L10 30M30 30L30 80L80 80L80 30L30 30z"/>
<path style="fill:#000000; stroke:none;" d="M60 40L60 50L50 50L50 60L40 60L40 70L70 70L70 60L60 60L60 50L70 50L70 40L60 40z"/>
<path style="fill:#ffffff; stroke:none;" d="M90 60L90 90L100 90L100 60L90 60M10 70L10 80L20 80L20 70L10 70M30 90L30 100L40 100L40 90L30 90M50 90L50 100L60 100L60 110L70 110L70 100L90 100L90 90L50 90z"/>
</svg>
