<?xml version="1.0" standalone="yes"?>
<svg xmlns="http://www.w3.org/2000/svg" width="110" height="110">
<path style="fill:#000000; stroke:none;" d="M0 0L0 40L10 40L10 20L20 20L20 90L10 90L10 50L0 50L0 110L50 110L50 100L20 100L20 90L90 90L90 100L70 100L70 110L110 110L110 60L100 60L100 80L90 80L90 50L110 50L110 0L70 0L70 20L60 20L60 0L0 0z"/>
<path style="fill:#ffffff; stroke:none;" d="M60 0L60 20L70 20L70 0L60 0M40 10L40 20L50 20L50 10L40 10M10 20L10 40L0 40L0 50L10 50L10 90L20 90L20 20L10 20M30 30L30 80L80 80L80 30L30 30M90 30L90 40L100 40L100 30L90 30z"/>
<path style="fill:#000000; stroke:none;" d="M40 40L40 60L50 60L50 40L40 40M60 50L60 60L70 60L70 50L60 50z"/>
<path style="fill:#ffffff; stroke:none;" d="M90 50L90 80L100 80L100 60L110 60L110 50L90 50M20 90L20 100L50 100L50 110L70 110L70 100L90 100L90 90L20 90z"/>
</svg>
