<?xml version="1.0" standalone="yes"?>
<svg xmlns="http://www.w3.org/2000/svg" width="110" height="110">
<path style="fill:#000000; stroke:none;" d="M0 0L0 50L20 50L20 90L10 90L10 70L0 70L0 110L50 110L50 100L60 100L60 110L110 110L110 60L90 60L90 50L100 50L100 40L110 40L110 0L60 0L60 10L70 10L70 20L50 20L50 10L40 10L40 0L0 0z"/>
<path style="fill:#ffffff; stroke:none;" d="M40 0L40 10L50 10L50 20L70 20L70 10L60 10L60 0L40 0M20 10L20 20L30 20L30 10L20 10M90 20L90 30L100 30L100 20L90 20M30 30L30 80L80 80L80 30L30 30z"/>
<path style="fill:#000000; stroke:none;" d="M50 40L50 50L40 50L40 60L50 60L50 70L70 70L70 60L50 60L50 50L60 50L60 40L50 40z"/>
<path style="fill:#ffffff; stroke:none;" d="M100 40L100 50L90 50L90 60L110 60L110 40L100 40M0 50L0 70L10 70L10 90L20 90L20 50L0 50M90 70L90 90L100 90L100 70L90 70M40 90L40 100L50 100L50 90L40 90M60 90L60 100L70 100L70 90L60 90M50 100L50 110L60 110L60 100L50 100z"/>
</svg>
