<?xml version="1.0" standalone="yes"?>
<svg xmlns="http://www.w3.org/2000/svg" width="110" height="110">
<path style="fill:#000000; stroke:none;" d="M0 0L0 50L20 50L20 70L0 70L0 110L40 110L40 100L50 100L50 90L90 90L90 100L70 100L70 110L110 110L110 60L100 60L100 40L110 40L110 0L70 0L70 10L60 10L60 0L50 0L50 10L40 10L40 0L0 0z"/>
<path style="fill:#ffffff; stroke:none;" d="M40 0L40 10L50 10L50 0L40 0M60 0L60 10L70 10L70 0L60 0M70 10L70 20L80 20L80 10L70 10M10 30L10 40L20 40L20 30L10 30M30 30L30 80L80 80L80 30L30 30M90 30L90 40L100 40L100 30L90 30z"/>
<path style="fill:#000000; stroke:none;" d="M50 40L50 50L40 50L40 70L50 70L50 60L60 60L60 70L70 70L70 50L60 50L60 40L50 40z"/>
<path style="fill:#ffffff; stroke:none;" d="M100 40L100 60L110 60L110 40L100 40M0 50L0 70L20 70L20 50L0 50M90 60L90 70L100 70L100 60L90 60M20 90L20 100L40 100L40 90L20 90M50 90L50 100L40 100L40 110L70 110L70 100L90 100L90 90L50 90z"/>
</svg>
