<?xml version="1.0" standalone="yes"?>
<svg xmlns="http://www.w3.org/2000/svg" width="110" height="110">
<path style="fill:#000000; stroke:none;" d="M0 0L0 50L10 50L10 30L20 30L20 80L10 80L10 60L0 60L0 110L110 110L110 70L90 70L90 40L110 40L110 0L50 0L50 20L30 20L30 10L40 10L40 0L0 0z"/>
<path style="fill:#ffffff; stroke:none;" d="M40 0L40 10L30 10L30 20L50 20L50 0L40 0M70 10L70 20L80 20L80 10L70 10M90 20L90 30L100 30L100 20L90 20M10 30L10 50L0 50L0 60L10 60L10 80L20 80L20 30L10 30M30 30L30 80L80 80L80 30L30 30M90 40L90 70L110 70L110 40L90 40z"/>
<path style="fill:#000000; stroke:none;" d="M40 60L40 70L70 70L70 60L40 60z"/>
<path style="fill:#ffffff; stroke:none;" d="M20 90L20 100L40 100L40 90L20 90M60 90L60 100L90 100L90 90L60 90z"/>
</svg>
