<?xml version="1.0" standalone="yes"?>
<svg xmlns="http://www.w3.org/2000/svg" width="110" height="110">
<path style="fill:#000000; stroke:none;" d="M0 0L0 40L10 40L10 50L20 50L20 80L10 80L10 70L0 70L0 110L40 110L40 90L70 90L70 110L110 110L110 60L100 60L100 80L90 80L90 50L110 50L110 0L70 0L70 10L90 10L90 20L60 20L60 10L50 10L50 0L0 0z"/>
<path style="fill:#ffffff; stroke:none;" d="M50 0L50 10L60 10L60 20L90 20L90 10L70 10L70 0L50 0M20 10L20 20L30 20L30 10L20 10M90 20L90 30L100 30L100 20L90 20M30 30L30 80L80 80L80 30L30 30M0 40L0 70L10 70L10 80L20 80L20 50L10 50L10 40L0 40z"/>
<path style="fill:#000000; stroke:none;" d="M60 40L60 60L50 60L50 70L70 70L70 40L60 40z"/>
<path style="fill:#ffffff; stroke:none;" d="M90 50L90 80L100 80L100 60L110 60L110 50L90 50M40 90L40 110L50 110L50 100L60 100L60 110L70 110L70 90L40 90M80 90L80 100L90 100L90 90L80 90z"/>
<path style="fill:#000000; stroke:none;" d="M50 100L50 110L60 110L60 100L50 100z"/>
</svg>
