<?xml version="1.0" standalone="yes"?>
<svg xmlns="http://www.w3.org/2000/svg" width="110" height="110">
<path style="fill:#000000; stroke:none;" d="M0 0L0 40L20 40L20 80L10 80L10 50L0 50L0 110L50 110L50 100L60 100L60 90L80 90L80 100L70 100L70 110L110 110L110 70L100 70L100 90L90 90L90 60L100 60L100 50L110 50L110 0L60 0L60 20L40 20L40 0L0 0z"/>
<path style="fill:#ffffff; stroke:none;" d="M40 0L40 20L60 20L60 0L40 0M70 10L70 20L90 20L90 10L70 10M30 30L30 80L80 80L80 30L30 30M90 30L90 50L100 50L100 30L90 30M0 40L0 50L10 50L10 80L20 80L20 40L0 40z"/>
<path style="fill:#000000; stroke:none;" d="M40 40L40 70L60 70L60 60L70 60L70 40L40 40z"/>
<path style="fill:#ffffff; stroke:none;" d="M50 50L50 60L60 60L60 50L50 50M100 50L100 60L90 60L90 90L100 90L100 70L110 70L110 50L100 50M40 90L40 100L50 100L50 90L40 90M60 90L60 100L50 100L50 110L70 110L70 100L80 100L80 90L60 90z"/>
</svg>
