<?xml version="1.0" standalone="yes"?>
<svg xmlns="http://www.w3.org/2000/svg" width="110" height="110">
<path style="fill:#000000; stroke:none;" d="M0 0L0 50L10 50L10 40L20 40L20 90L10 90L10 60L0 60L0 110L110 110L110 60L90 60L90 40L100 40L100 50L110 50L110 0L70 0L70 10L90 10L90 20L50 20L50 0L0 0z"/>
<path style="fill:#ffffff; stroke:none;" d="M50 0L50 20L90 20L90 10L70 10L70 0L50 0M30 30L30 80L80 80L80 30L30 30M10 40L10 50L0 50L0 60L10 60L10 90L20 90L20 40L10 40z"/>
<path style="fill:#000000; stroke:none;" d="M40 40L40 60L70 60L70 40L60 40L60 50L50 50L50 40L40 40z"/>
<path style="fill:#ffffff; stroke:none;" d="M90 40L90 60L110 60L110 50L100 50L100 40L90 40M90 70L90 90L50 90L50 100L90 100L90 90L100 90L100 70L90 70z"/>
</svg>
