<?xml version="1.0" standalone="yes"?>
<svg xmlns="http://www.w3.org/2000/svg" width="110" height="110">
<path style="fill:#000000; stroke:none;" d="M0 0L0 110L50 110L50 90L70 90L70 110L110 110L110 0L60 0L60 20L30 20L30 10L50 10L50 0L0 0z"/>
<path style="fill:#ffffff; stroke:none;" d="M50 0L50 10L30 10L30 20L60 20L60 0L50 0M10 20L10 30L20 30L20 20L10 20M30 30L30 80L80 80L80 30L30 30M90 30L90 50L100 50L100 30L90 30M10 40L10 60L20 60L20 40L10 40z"/>
<path style="fill:#000000; stroke:none;" d="M60 40L60 50L50 50L50 60L40 60L40 70L60 70L60 60L70 60L70 40L60 40z"/>
<path style="fill:#ffffff; stroke:none;" d="M90 60L90 70L100 70L100 60L90 60M10 70L10 80L20 80L20 70L10 70M30 90L30 100L40 100L40 90L30 90M50 90L50 110L70 110L70 90L50 90M80 90L80 100L90 100L90 90L80 90z"/>
</svg>
