<?xml version="1.0" standalone="yes"?>
<svg xmlns="http://www.w3.org/2000/svg" width="110" height="110">
<path style="fill:#000000; stroke:none;" d="M0 0L0 40L10 40L10 60L0 60L0 110L40 110L40 90L60 90L60 100L70 100L70 110L110 110L110 60L100 60L100 90L90 90L90 40L110 40L110 0L70 0L70 10L50 10L50 0L0 0z"/>
<path style="fill:#ffffff; stroke:none;" d="M50 0L50 10L70 10L70 0L50 0M20 10L20 20L50 20L50 10L20 10M10 30L10 40L20 40L20 30L10 30M30 30L30 80L80 80L80 30L30 30M0 40L0 60L10 60L10 40L0 40z"/>
<path style="fill:#000000; stroke:none;" d="M40 40L40 70L60 70L60 40L40 40z"/>
<path style="fill:#ffffff; stroke:none;" d="M90 40L90 90L100 90L100 60L110 60L110 40L90 40M10 70L10 80L20 80L20 70L10 70M40 90L40 110L70 110L70 100L60 100L60 90L40 90M70 90L70 100L80 100L80 90L70 90z"/>
</svg>
