<?xml version="1.0" standalone="yes"?>
<svg xmlns="http://www.w3.org/2000/svg" width="110" height="110">
<path style="fill:#000000; stroke:none;" d="M0 0L0 40L20 40L20 50L10 50L10 70L0 70L0 110L50 110L50 100L20 100L20 90L90 90L90 100L60 100L60 110L110 110L110 70L100 70L100 50L110 50L110 0L70 0L70 20L30 20L30 10L40 10L40 0L0 0z"/>
<path style="fill:#ffffff; stroke:none;" d="M40 0L40 10L30 10L30 20L70 20L70 0L40 0M80 10L80 20L90 20L90 10L80 10M30 30L30 80L80 80L80 30L30 30M0 40L0 70L10 70L10 50L20 50L20 40L0 40z"/>
<path style="fill:#000000; stroke:none;" d="M50 40L50 50L40 50L40 60L50 60L50 50L60 50L60 60L70 60L70 50L60 50L60 40L50 40z"/>
<path style="fill:#ffffff; stroke:none;" d="M100 50L100 70L110 70L110 50L100 50M90 80L90 90L100 90L100 80L90 80M20 90L20 100L50 100L50 110L60 110L60 100L90 100L90 90L20 90z"/>
</svg>
