<?xml version="1.0" standalone="yes"?>
<svg xmlns="http://www.w3.org/2000/svg" width="110" height="110">
<path style="fill:#000000; stroke:none;" d="M0 0L0 40L20 40L20 90L10 90L10 70L0 70L0 110L40 110L40 90L50 90L50 110L110 110L110 0L60 0L60 20L40 20L40 10L50 10L50 0L0 0z"/>
<path style="fill:#ffffff; stroke:none;" d="M50 0L50 10L40 10L40 20L60 20L60 0L50 0M20 10L20 20L10 20L10 30L20 30L20 20L30 20L30 10L20 10M30 30L30 80L80 80L80 30L30 30M90 30L90 60L100 60L100 30L90 30M0 40L0 70L10 70L10 90L20 90L20 40L0 40z"/>
<path style="fill:#000000; stroke:none;" d="M60 40L60 60L70 60L70 40L60 40z"/>
<path style="fill:#ffffff; stroke:none;" d="M90 70L90 90L100 90L100 70L90 70M20 90L20 100L30 100L30 90L20 90M40 90L40 110L50 110L50 90L40 90M70 90L70 100L80 100L80 90L70 90z"/>
</svg>
