<?xml version="1.0" standalone="yes"?>
<svg xmlns="http://www.w3.org/2000/svg" width="110" height="110">
<path style="fill:#000000; stroke:none;" d="M0 0L0 40L10 40L10 60L0 60L0 110L40 110L40 90L50 90L50 110L110 110L110 70L100 70L100 60L110 60L110 0L60 0L60 10L90 10L90 20L50 20L50 10L40 10L40 0L0 0z"/>
<path style="fill:#ffffff; stroke:none;" d="M40 0L40 10L50 10L50 20L90 20L90 10L60 10L60 0L40 0M10 30L10 40L20 40L20 30L10 30M30 30L30 80L80 80L80 30L30 30M0 40L0 60L10 60L10 40L0 40z"/>
<path style="fill:#000000; stroke:none;" d="M60 40L60 60L40 60L40 70L70 70L70 40L60 40z"/>
<path style="fill:#ffffff; stroke:none;" d="M90 40L90 60L100 60L100 40L90 40M100 60L100 70L110 70L110 60L100 60M10 70L10 90L20 90L20 70L10 70M90 80L90 90L60 90L60 100L90 100L90 90L100 90L100 80L90 80M40 90L40 110L50 110L50 90L40 90z"/>
</svg>
