<?xml version="1.0" standalone="yes"?>
<svg xmlns="http://www.w3.org/2000/svg" width="110" height="110">
<path style="fill:#000000; stroke:none;" d="M0 0L0 50L10 50L10 30L20 30L20 70L0 70L0 110L50 110L50 90L60 90L60 100L70 100L70 110L110 110L110 70L100 70L100 50L90 50L90 20L100 20L100 40L110 40L110 0L70 0L70 10L90 10L90 20L30 20L30 10L50 10L50 0L0 0z"/>
<path style="fill:#ffffff; stroke:none;" d="M50 0L50 10L30 10L30 20L90 20L90 10L70 10L70 0L50 0M90 20L90 50L100 50L100 70L110 70L110 40L100 40L100 20L90 20M10 30L10 50L0 50L0 70L20 70L20 30L10 30M30 30L30 80L80 80L80 30L30 30z"/>
<path style="fill:#000000; stroke:none;" d="M40 40L40 50L60 50L60 60L40 60L40 70L60 70L60 60L70 60L70 50L60 50L60 40L40 40z"/>
<path style="fill:#ffffff; stroke:none;" d="M90 80L90 90L100 90L100 80L90 80M20 90L20 100L40 100L40 90L20 90M50 90L50 110L70 110L70 100L60 100L60 90L50 90z"/>
</svg>
