<?xml version="1.0" standalone="yes"?>
<svg xmlns="http://www.w3.org/2000/svg" width="110" height="110">
<path style="fill:#000000; stroke:none;" d="M0 0L0 40L10 40L10 70L0 70L0 110L50 110L50 100L70 100L70 110L110 110L110 70L100 70L100 90L90 90L90 40L100 40L100 60L110 60L110 0L0 0z"/>
<path style="fill:#ffffff; stroke:none;" d="M50 10L50 20L90 20L90 10L50 10M10 30L10 40L20 40L20 30L10 30M30 30L30 80L80 80L80 30L30 30M0 40L0 70L10 70L10 40L0 40z"/>
<path style="fill:#000000; stroke:none;" d="M40 40L40 50L50 50L50 60L40 60L40 70L60 70L60 40L40 40z"/>
<path style="fill:#ffffff; stroke:none;" d="M90 40L90 90L100 90L100 70L110 70L110 60L100 60L100 40L90 40M10 70L10 90L20 90L20 70L10 70M30 90L30 100L40 100L40 90L30 90M70 90L70 100L90 100L90 90L70 90M50 100L50 110L70 110L70 100L50 100z"/>
</svg>
