<?xml version="1.0" standalone="yes"?>
<svg xmlns="http://www.w3.org/2000/svg" width="110" height="110">
<path style="fill:#000000; stroke:none;" d="M0 0L0 40L10 40L10 20L20 20L20 90L10 90L10 50L0 50L0 110L40 110L40 100L30 100L30 90L50 90L50 110L60 110L60 90L70 90L70 110L110 110L110 70L100 70L100 90L90 90L90 60L100 60L100 50L90 50L90 20L100 20L100 40L110 40L110 0L70 0L70 10L90 10L90 20L60 20L60 10L50 10L50 0L0 0z"/>
<path style="fill:#ffffff; stroke:none;" d="M50 0L50 10L60 10L60 20L90 20L90 10L70 10L70 0L50 0M30 10L30 20L50 20L50 10L30 10M10 20L10 40L0 40L0 50L10 50L10 90L20 90L20 20L10 20M90 20L90 50L100 50L100 60L90 60L90 90L100 90L100 70L110 70L110 40L100 40L100 20L90 20M30 30L30 80L80 80L80 30L30 30z"/>
<path style="fill:#000000; stroke:none;" d="M50 40L50 50L60 50L60 60L50 60L50 70L60 70L60 60L70 60L70 50L60 50L60 40L50 40z"/>
<path style="fill:#ffffff; stroke:none;" d="M30 90L30 100L40 100L40 110L50 110L50 90L30 90M60 90L60 110L70 110L70 90L60 90z"/>
</svg>
