<?xml version="1.0" standalone="yes"?>
<svg xmlns="http://www.w3.org/2000/svg" width="110" height="110">
<path style="fill:#000000; stroke:none;" d="M0 0L0 110L50 110L50 100L70 100L70 110L110 110L110 70L100 70L100 90L90 90L90 30L100 30L100 50L110 50L110 0L70 0L70 10L90 10L90 20L60 20L60 0L50 0L50 20L30 20L30 10L40 10L40 0L0 0z"/>
<path style="fill:#ffffff; stroke:none;" d="M40 0L40 10L30 10L30 20L50 20L50 0L40 0M60 0L60 20L90 20L90 10L70 10L70 0L60 0M10 20L10 30L20 30L20 20L10 20M30 30L30 80L80 80L80 30L30 30M90 30L90 90L100 90L100 70L110 70L110 50L100 50L100 30L90 30z"/>
<path style="fill:#000000; stroke:none;" d="M40 40L40 60L50 60L50 70L70 70L70 60L60 60L60 50L70 50L70 40L60 40L60 50L50 50L50 40L40 40z"/>
<path style="fill:#ffffff; stroke:none;" d="M10 60L10 70L20 70L20 60L10 60M10 80L10 90L20 90L20 80L10 80M30 90L30 100L50 100L50 90L30 90M50 100L50 110L70 110L70 100L50 100z"/>
</svg>
