<?xml version="1.0" standalone="yes"?>
<svg xmlns="http://www.w3.org/2000/svg" width="110" height="110">
<path style="fill:#000000; stroke:none;" d="M0 0L0 50L10 50L10 70L0 70L0 110L40 110L40 100L50 100L50 110L110 110L110 70L100 70L100 90L90 90L90 60L110 60L110 50L90 50L90 40L110 40L110 0L60 0L60 20L50 20L50 0L0 0z"/>
<path style="fill:#ffffff; stroke:none;" d="M50 0L50 20L60 20L60 0L50 0M30 10L30 20L40 20L40 10L30 10M70 10L70 20L80 20L80 10L70 10M90 20L90 30L100 30L100 20L90 20M10 30L10 50L20 50L20 30L10 30M30 30L30 80L80 80L80 30L30 30z"/>
<path style="fill:#000000; stroke:none;" d="M40 40L40 50L50 50L50 60L40 60L40 70L50 70L50 60L60 60L60 50L50 50L50 40L40 40z"/>
<path style="fill:#ffffff; stroke:none;" d="M90 40L90 50L110 50L110 40L90 40M0 50L0 70L10 70L10 50L0 50M90 60L90 90L100 90L100 70L110 70L110 60L90 60M10 80L10 90L20 90L20 80L10 80M30 90L30 100L40 100L40 90L30 90M70 90L70 100L80 100L80 90L70 90M40 100L40 110L50 110L50 100L40 100z"/>
</svg>
