<?xml version="1.0" standalone="yes"?>
<svg xmlns="http://www.w3.org/2000/svg" width="110" height="110">
<path style="fill:#000000; stroke:none;" d="M0 0L0 60L10 60L10 40L20 40L20 80L10 80L10 70L0 70L0 110L50 110L50 100L60 100L60 90L70 90L70 110L110 110L110 50L100 50L100 40L110 40L110 0L70 0L70 10L50 10L50 20L40 20L40 0L0 0z"/>
<path style="fill:#ffffff; stroke:none;" d="M40 0L40 20L50 20L50 10L70 10L70 0L40 0M70 10L70 20L80 20L80 10L70 10M10 20L10 30L20 30L20 20L10 20M90 20L90 30L100 30L100 20L90 20M30 30L30 80L80 80L80 30L30 30M10 40L10 60L0 60L0 70L10 70L10 80L20 80L20 40L10 40z"/>
<path style="fill:#000000; stroke:none;" d="M40 40L40 60L50 60L50 70L70 70L70 40L40 40z"/>
<path style="fill:#ffffff; stroke:none;" d="M100 40L100 50L110 50L110 40L100 40M90 50L90 80L100 80L100 50L90 50M40 90L40 100L50 100L50 90L40 90M60 90L60 100L50 100L50 110L70 110L70 90L60 90z"/>
</svg>
