<?xml version="1.0" standalone="yes"?>
<svg xmlns="http://www.w3.org/2000/svg" width="110" height="110">
<path style="fill:#000000; stroke:none;" d="M0 0L0 50L10 50L10 70L0 70L0 110L60 110L60 100L30 100L30 90L70 90L70 110L110 110L110 70L100 70L100 90L90 90L90 30L100 30L100 40L110 40L110 0L0 0z"/>
<path style="fill:#ffffff; stroke:none;" d="M40 10L40 20L50 20L50 10L40 10M80 10L80 20L90 20L90 10L80 10M30 30L30 80L80 80L80 30L30 30M90 30L90 90L100 90L100 70L110 70L110 60L100 60L100 50L110 50L110 40L100 40L100 30L90 30z"/>
<path style="fill:#000000; stroke:none;" d="M60 40L60 50L70 50L70 40L60 40z"/>
<path style="fill:#ffffff; stroke:none;" d="M0 50L0 70L10 70L10 50L0 50z"/>
<path style="fill:#000000; stroke:none;" d="M40 50L40 60L50 60L50 50L40 50M100 50L100 60L110 60L110 50L100 50z"/>
<path style="fill:#ffffff; stroke:none;" d="M10 70L10 90L20 90L20 70L10 70M30 90L30 100L60 100L60 110L70 110L70 90L30 90M80 90L80 100L90 100L90 90L80 90z"/>
</svg>
