<?xml version="1.0" standalone="yes"?>
<svg xmlns="http://www.w3.org/2000/svg" width="110" height="110">
<path style="fill:#000000; stroke:none;" d="M0 0L0 60L10 60L10 70L0 70L0 110L110 110L110 60L100 60L100 40L110 40L110 0L70 0L70 10L60 10L60 20L50 20L50 0L0 0z"/>
<path style="fill:#ffffff; stroke:none;" d="M50 0L50 20L60 20L60 10L70 10L70 0L50 0M20 10L20 20L10 20L10 50L20 50L20 20L30 20L30 10L20 10M70 10L70 20L90 20L90 10L70 10M30 30L30 80L80 80L80 30L30 30M100 40L100 60L110 60L110 40L100 40z"/>
<path style="fill:#000000; stroke:none;" d="M40 50L40 70L70 70L70 60L60 60L60 50L40 50z"/>
<path style="fill:#ffffff; stroke:none;" d="M0 60L0 70L10 70L10 60L0 60M90 60L90 70L100 70L100 60L90 60M10 70L10 90L20 90L20 70L10 70M50 90L50 100L90 100L90 90L50 90z"/>
</svg>
