<?xml version="1.0" standalone="yes"?>
<svg xmlns="http://www.w3.org/2000/svg" width="110" height="110">
<path style="fill:#000000; stroke:none;" d="M0 0L0 40L20 40L20 50L0 50L0 60L20 60L20 90L10 90L10 70L0 70L0 110L60 110L60 100L70 100L70 110L110 110L110 70L100 70L100 50L110 50L110 0L60 0L60 20L30 20L30 10L40 10L40 0L0 0z"/>
<path style="fill:#ffffff; stroke:none;" d="M40 0L40 10L30 10L30 20L60 20L60 0L40 0M80 10L80 20L90 20L90 30L100 30L100 20L90 20L90 10L80 10M10 20L10 30L20 30L20 20L10 20M30 30L30 80L80 80L80 30L30 30M0 40L0 50L20 50L20 40L0 40z"/>
<path style="fill:#000000; stroke:none;" d="M40 40L40 50L50 50L50 70L60 70L60 50L70 50L70 40L60 40L60 50L50 50L50 40L40 40z"/>
<path style="fill:#ffffff; stroke:none;" d="M100 50L100 70L110 70L110 50L100 50M0 60L0 70L10 70L10 90L20 90L20 60L0 60M90 70L90 80L100 80L100 70L90 70M30 90L30 100L60 100L60 90L30 90M70 90L70 100L80 100L80 90L70 90M60 100L60 110L70 110L70 100L60 100z"/>
</svg>
