<?xml version="1.0" standalone="yes"?>
<svg xmlns="http://www.w3.org/2000/svg" width="110" height="110">
<path style="fill:#000000; stroke:none;" d="M0 0L0 50L10 50L10 60L20 60L20 70L0 70L0 110L40 110L40 100L30 100L30 90L70 90L70 100L50 100L50 110L110 110L110 70L100 70L100 60L110 60L110 50L100 50L100 40L110 40L110 0L70 0L70 10L50 10L50 0L0 0z"/>
<path style="fill:#ffffff; stroke:none;" d="M50 0L50 10L70 10L70 0L50 0M20 10L20 20L10 20L10 40L20 40L20 20L30 20L30 10L20 10M40 10L40 20L50 20L50 10L40 10M80 10L80 20L90 20L90 30L100 30L100 20L90 20L90 10L80 10M30 30L30 80L80 80L80 30L30 30z"/>
<path style="fill:#000000; stroke:none;" d="M40 40L40 50L50 50L50 40L40 40M60 40L60 60L50 60L50 70L70 70L70 40L60 40z"/>
<path style="fill:#ffffff; stroke:none;" d="M100 40L100 50L110 50L110 40L100 40M0 50L0 70L20 70L20 60L10 60L10 50L0 50M90 50L90 60L100 60L100 50L90 50M100 60L100 70L110 70L110 60L100 60M90 70L90 90L80 90L80 100L90 100L90 90L100 90L100 70L90 70M30 90L30 100L40 100L40 110L50 110L50 100L70 100L70 90L30 90z"/>
</svg>
