<?xml version="1.0" standalone="yes"?>
<svg xmlns="http://www.w3.org/2000/svg" width="110" height="110">
<path style="fill:#000000; stroke:none;" d="M0 0L0 40L20 40L20 80L10 80L10 60L0 60L0 110L110 110L110 70L100 70L100 90L90 90L90 20L100 20L100 40L110 40L110 0L70 0L70 10L50 10L50 0L0 0z"/>
<path style="fill:#ffffff; stroke:none;" d="M50 0L50 10L70 10L70 0L50 0M90 20L90 90L100 90L100 70L110 70L110 40L100 40L100 20L90 20M30 30L30 80L80 80L80 30L30 30M0 40L0 60L10 60L10 80L20 80L20 40L0 40z"/>
<path style="fill:#000000; stroke:none;" d="M60 40L60 50L50 50L50 60L40 60L40 70L50 70L50 60L60 60L60 70L70 70L70 60L60 60L60 50L70 50L70 40L60 40z"/>
<path style="fill:#ffffff; stroke:none;" d="M20 90L20 100L40 100L40 90L20 90M60 90L60 100L80 100L80 90L60 90z"/>
</svg>
