<?xml version="1.0" standalone="yes"?>
<svg xmlns="http://www.w3.org/2000/svg" width="110" height="110">
<path style="fill:#000000; stroke:none;" d="M0 0L0 60L10 60L10 40L20 40L20 70L0 70L0 110L50 110L50 100L60 100L60 110L110 110L110 0L60 0L60 10L40 10L40 0L0 0z"/>
<path style="fill:#ffffff; stroke:none;" d="M40 0L40 10L60 10L60 0L40 0M60 10L60 20L80 20L80 10L60 10M90 20L90 70L100 70L100 20L90 20M30 30L30 80L80 80L80 30L30 30M10 40L10 60L0 60L0 70L20 70L20 40L10 40z"/>
<path style="fill:#000000; stroke:none;" d="M50 40L50 50L70 50L70 40L50 40M50 60L50 70L60 70L60 60L50 60z"/>
<path style="fill:#ffffff; stroke:none;" d="M30 90L30 100L40 100L40 90L30 90M50 100L50 110L60 110L60 100L50 100z"/>
</svg>
