<?xml version="1.0" standalone="yes"?>
<svg xmlns="http://www.w3.org/2000/svg" width="110" height="110">
<path style="fill:#000000; stroke:none;" d="M0 0L0 60L10 60L10 70L0 70L0 110L50 110L50 100L60 100L60 90L80 90L80 100L70 100L70 110L110 110L110 70L100 70L100 60L90 60L90 50L110 50L110 0L70 0L70 20L30 20L30 10L50 10L50 0L0 0z"/>
<path style="fill:#ffffff; stroke:none;" d="M50 0L50 10L30 10L30 20L70 20L70 0L50 0M90 20L90 30L100 30L100 20L90 20M10 30L10 50L20 50L20 30L10 30M30 30L30 80L80 80L80 30L30 30z"/>
<path style="fill:#000000; stroke:none;" d="M40 40L40 70L60 70L60 60L70 60L70 50L60 50L60 40L40 40z"/>
<path style="fill:#ffffff; stroke:none;" d="M50 50L50 60L60 60L60 50L50 50M90 50L90 60L100 60L100 70L110 70L110 50L90 50M0 60L0 70L10 70L10 60L0 60M10 70L10 80L20 80L20 70L10 70M90 70L90 80L100 80L100 70L90 70M60 90L60 100L50 100L50 110L70 110L70 100L80 100L80 90L60 90z"/>
</svg>
