<?xml version="1.0" standalone="yes"?>
<svg xmlns="http://www.w3.org/2000/svg" width="110" height="110">
<path style="fill:#000000; stroke:none;" d="M0 0L0 110L40 110L40 100L20 100L20 90L60 90L60 100L70 100L70 110L110 110L110 60L100 60L100 40L110 40L110 0L70 0L70 10L90 10L90 20L40 20L40 0L0 0z"/>
<path style="fill:#ffffff; stroke:none;" d="M40 0L40 20L90 20L90 10L70 10L70 0L40 0M20 10L20 20L10 20L10 40L20 40L20 20L30 20L30 10L20 10M30 30L30 80L80 80L80 30L30 30M90 30L90 40L100 40L100 30L90 30z"/>
<path style="fill:#000000; stroke:none;" d="M60 40L60 50L70 50L70 40L60 40z"/>
<path style="fill:#ffffff; stroke:none;" d="M100 40L100 60L110 60L110 40L100 40M10 50L10 90L20 90L20 50L10 50z"/>
<path style="fill:#000000; stroke:none;" d="M40 50L40 70L60 70L60 60L50 60L50 50L40 50z"/>
<path style="fill:#ffffff; stroke:none;" d="M90 70L90 90L80 90L80 100L90 100L90 90L100 90L100 70L90 70M20 90L20 100L40 100L40 110L70 110L70 100L60 100L60 90L20 90z"/>
</svg>
