<?xml version="1.0" standalone="yes"?>
<svg xmlns="http://www.w3.org/2000/svg" width="110" height="110">
<path style="fill:#000000; stroke:none;" d="M0 0L0 50L10 50L10 60L0 60L0 110L110 110L110 0L70 0L70 10L60 10L60 0L50 0L50 20L30 20L30 10L40 10L40 0L0 0z"/>
<path style="fill:#ffffff; stroke:none;" d="M40 0L40 10L30 10L30 20L50 20L50 0L40 0M60 0L60 10L70 10L70 0L60 0M70 10L70 20L80 20L80 10L70 10M10 20L10 50L20 50L20 20L10 20M90 20L90 30L100 30L100 20L90 20M30 30L30 80L80 80L80 30L30 30z"/>
<path style="fill:#000000; stroke:none;" d="M40 40L40 60L60 60L60 70L70 70L70 60L60 60L60 50L50 50L50 40L40 40z"/>
<path style="fill:#ffffff; stroke:none;" d="M0 50L0 60L10 60L10 50L0 50M90 50L90 60L100 60L100 50L90 50M10 60L10 80L20 80L20 60L10 60M90 70L90 80L100 80L100 70L90 70M20 90L20 100L40 100L40 90L20 90M60 90L60 100L80 100L80 90L60 90z"/>
</svg>
