<?xml version="1.0" standalone="yes"?>
<svg xmlns="http://www.w3.org/2000/svg" width="110" height="110">
<path style="fill:#000000; stroke:none;" d="M0 0L0 40L10 40L10 50L20 50L20 70L0 70L0 110L40 110L40 100L50 100L50 110L60 110L60 90L90 90L90 100L70 100L70 110L110 110L110 50L100 50L100 40L110 40L110 0L70 0L70 10L60 10L60 0L50 0L50 10L60 10L60 20L20 20L20 10L40 10L40 0L0 0z"/>
<path style="fill:#ffffff; stroke:none;" d="M40 0L40 10L20 10L20 20L60 20L60 10L50 10L50 0L40 0M60 0L60 10L70 10L70 0L60 0M80 10L80 20L90 20L90 10L80 10M10 20L10 40L20 40L20 20L10 20M30 30L30 80L80 80L80 30L30 30M90 30L90 40L100 40L100 30L90 30M0 40L0 70L20 70L20 50L10 50L10 40L0 40z"/>
<path style="fill:#000000; stroke:none;" d="M40 40L40 60L50 60L50 70L60 70L60 60L50 60L50 40L40 40M60 40L60 50L70 50L70 40L60 40z"/>
<path style="fill:#ffffff; stroke:none;" d="M100 40L100 50L110 50L110 40L100 40M90 50L90 60L100 60L100 50L90 50M90 70L90 90L100 90L100 70L90 70M10 80L10 90L20 90L20 100L30 100L30 90L20 90L20 80L10 80M60 90L60 110L70 110L70 100L90 100L90 90L60 90M40 100L40 110L50 110L50 100L40 100z"/>
</svg>
