<?xml version="1.0" standalone="yes"?>
<svg xmlns="http://www.w3.org/2000/svg" width="110" height="110">
<path style="fill:#000000; stroke:none;" d="M0 0L0 110L40 110L40 100L50 100L50 110L110 110L110 70L100 70L100 40L110 40L110 0L0 0z"/>
<path style="fill:#ffffff; stroke:none;" d="M20 10L20 20L30 20L30 10L20 10M50 10L50 20L60 20L60 10L50 10M90 20L90 40L100 40L100 20L90 20M10 30L10 50L20 50L20 30L10 30M30 30L30 80L80 80L80 30L30 30z"/>
<path style="fill:#000000; stroke:none;" d="M40 40L40 50L60 50L60 40L40 40z"/>
<path style="fill:#ffffff; stroke:none;" d="M100 40L100 70L110 70L110 40L100 40z"/>
<path style="fill:#000000; stroke:none;" d="M50 60L50 70L60 70L60 60L50 60z"/>
<path style="fill:#ffffff; stroke:none;" d="M90 70L90 80L100 80L100 70L90 70M10 80L10 90L20 90L20 100L30 100L30 90L20 90L20 80L10 80M50 90L50 100L70 100L70 90L50 90M40 100L40 110L50 110L50 100L40 100z"/>
</svg>
