<?xml version="1.0" standalone="yes"?>
<svg xmlns="http://www.w3.org/2000/svg" width="110" height="110">
<path style="fill:#000000; stroke:none;" d="M0 0L0 110L50 110L50 100L40 100L40 90L60 90L60 100L70 100L70 110L110 110L110 60L100 60L100 80L90 80L90 20L100 20L100 40L110 40L110 0L60 0L60 10L50 10L50 20L30 20L30 10L40 10L40 0L0 0z"/>
<path style="fill:#ffffff; stroke:none;" d="M40 0L40 10L30 10L30 20L50 20L50 10L60 10L60 0L40 0M60 10L60 20L70 20L70 10L60 10M90 20L90 80L100 80L100 60L110 60L110 40L100 40L100 20L90 20M10 30L10 60L20 60L20 30L10 30M30 30L30 80L80 80L80 30L30 30z"/>
<path style="fill:#000000; stroke:none;" d="M50 40L50 70L60 70L60 40L50 40z"/>
<path style="fill:#ffffff; stroke:none;" d="M10 80L10 90L20 90L20 100L30 100L30 90L20 90L20 80L10 80M40 90L40 100L50 100L50 110L70 110L70 100L60 100L60 90L40 90M80 90L80 100L90 100L90 90L80 90z"/>
</svg>
