<?xml version="1.0" standalone="yes"?>
<svg xmlns="http://www.w3.org/2000/svg" width="110" height="110">
<path style="fill:#000000; stroke:none;" d="M0 0L0 40L20 40L20 60L10 60L10 50L0 50L0 110L60 110L60 100L70 100L70 110L110 110L110 0L70 0L70 10L50 10L50 0L0 0z"/>
<path style="fill:#ffffff; stroke:none;" d="M50 0L50 10L70 10L70 0L50 0M40 10L40 20L50 20L50 10L40 10M80 10L80 20L90 20L90 10L80 10M30 30L30 80L80 80L80 30L30 30M90 30L90 90L100 90L100 30L90 30M0 40L0 50L10 50L10 60L20 60L20 40L0 40z"/>
<path style="fill:#000000; stroke:none;" d="M40 50L40 70L60 70L60 60L50 60L50 50L40 50z"/>
<path style="fill:#ffffff; stroke:none;" d="M10 80L10 90L20 90L20 80L10 80M40 90L40 100L50 100L50 90L40 90M70 90L70 100L80 100L80 90L70 90M60 100L60 110L70 110L70 100L60 100z"/>
</svg>
