<?xml version="1.0" standalone="yes"?>
<svg xmlns="http://www.w3.org/2000/svg" width="110" height="110">
<path style="fill:#000000; stroke:none;" d="M0 0L0 40L10 40L10 70L0 70L0 110L40 110L40 100L30 100L30 90L50 90L50 100L60 100L60 90L80 90L80 100L70 100L70 110L110 110L110 70L90 70L90 40L100 40L100 60L110 60L110 0L70 0L70 20L40 20L40 0L0 0z"/>
<path style="fill:#ffffff; stroke:none;" d="M40 0L40 20L70 20L70 0L60 0L60 10L50 10L50 0L40 0z"/>
<path style="fill:#000000; stroke:none;" d="M50 0L50 10L60 10L60 0L50 0z"/>
<path style="fill:#ffffff; stroke:none;" d="M20 10L20 20L30 20L30 10L20 10M30 30L30 80L80 80L80 30L30 30M0 40L0 70L10 70L10 40L0 40z"/>
<path style="fill:#000000; stroke:none;" d="M40 40L40 70L50 70L50 60L70 60L70 50L50 50L50 40L40 40z"/>
<path style="fill:#ffffff; stroke:none;" d="M90 40L90 70L110 70L110 60L100 60L100 40L90 40M10 70L10 90L20 90L20 70L10 70M90 80L90 90L100 90L100 80L90 80M30 90L30 100L40 100L40 110L70 110L70 100L80 100L80 90L60 90L60 100L50 100L50 90L30 90z"/>
</svg>
