<?xml version="1.0" standalone="yes"?>
<svg xmlns="http://www.w3.org/2000/svg" width="110" height="110">
<path style="fill:#000000; stroke:none;" d="M0 0L0 50L10 50L10 70L0 70L0 110L60 110L60 100L70 100L70 110L110 110L110 50L100 50L100 70L90 70L90 30L100 30L100 40L110 40L110 0L60 0L60 10L50 10L50 20L40 20L40 0L0 0z"/>
<path style="fill:#ffffff; stroke:none;" d="M40 0L40 20L50 20L50 10L60 10L60 0L40 0M20 10L20 20L30 20L30 10L20 10M60 10L60 20L80 20L80 10L60 10M30 30L30 80L80 80L80 30L30 30M90 30L90 70L100 70L100 50L110 50L110 40L100 40L100 30L90 30M10 40L10 50L20 50L20 40L10 40z"/>
<path style="fill:#000000; stroke:none;" d="M40 40L40 50L50 50L50 40L40 40M60 40L60 50L70 50L70 40L60 40z"/>
<path style="fill:#ffffff; stroke:none;" d="M0 50L0 70L10 70L10 50L0 50z"/>
<path style="fill:#000000; stroke:none;" d="M40 60L40 70L60 70L60 60L40 60z"/>
<path style="fill:#ffffff; stroke:none;" d="M10 80L10 90L20 90L20 100L30 100L30 90L20 90L20 80L10 80M90 80L90 90L100 90L100 80L90 80M60 100L60 110L70 110L70 100L60 100z"/>
</svg>
