<?xml version="1.0" standalone="yes"?>
<svg xmlns="http://www.w3.org/2000/svg" width="110" height="110">
<path style="fill:#000000; stroke:none;" d="M0 0L0 110L50 110L50 100L60 100L60 90L70 90L70 110L110 110L110 50L100 50L100 70L90 70L90 40L110 40L110 0L70 0L70 10L50 10L50 0L0 0z"/>
<path style="fill:#ffffff; stroke:none;" d="M50 0L50 10L70 10L70 0L50 0M70 10L70 20L90 20L90 30L100 30L100 20L90 20L90 10L70 10M10 20L10 40L20 40L20 20L10 20M30 30L30 80L80 80L80 30L30 30z"/>
<path style="fill:#000000; stroke:none;" d="M60 40L60 70L70 70L70 40L60 40z"/>
<path style="fill:#ffffff; stroke:none;" d="M90 40L90 70L100 70L100 50L110 50L110 40L90 40M10 50L10 90L20 90L20 50L10 50z"/>
<path style="fill:#000000; stroke:none;" d="M40 60L40 70L50 70L50 60L40 60z"/>
<path style="fill:#ffffff; stroke:none;" d="M30 90L30 100L50 100L50 90L30 90M60 90L60 100L50 100L50 110L70 110L70 90L60 90z"/>
</svg>
