<?xml version="1.0" standalone="yes"?>
<svg xmlns="http://www.w3.org/2000/svg" width="110" height="110">
<path style="fill:#000000; stroke:none;" d="M0 0L0 40L10 40L10 50L0 50L0 110L40 110L40 100L50 100L50 110L60 110L60 100L70 100L70 110L110 110L110 60L100 60L100 50L110 50L110 0L0 0z"/>
<path style="fill:#ffffff; stroke:none;" d="M20 10L20 20L10 20L10 30L20 30L20 20L40 20L40 10L20 10M80 10L80 20L90 20L90 50L100 50L100 20L90 20L90 10L80 10M30 30L30 80L80 80L80 30L30 30M0 40L0 50L10 50L10 40L0 40z"/>
<path style="fill:#000000; stroke:none;" d="M50 40L50 50L40 50L40 60L60 60L60 70L70 70L70 40L50 40z"/>
<path style="fill:#ffffff; stroke:none;" d="M100 50L100 60L110 60L110 50L100 50M10 60L10 70L20 70L20 60L10 60M90 60L90 80L100 80L100 60L90 60M10 80L10 90L20 90L20 100L40 100L40 90L20 90L20 80L10 80M70 90L70 100L80 100L80 90L70 90M40 100L40 110L50 110L50 100L40 100M60 100L60 110L70 110L70 100L60 100z"/>
</svg>
