<?xml version="1.0" standalone="yes"?>
<svg xmlns="http://www.w3.org/2000/svg" width="110" height="110">
<path style="fill:#000000; stroke:none;" d="M0 0L0 110L50 110L50 100L40 100L40 90L80 90L80 100L60 100L60 110L110 110L110 60L100 60L100 40L110 40L110 0L70 0L70 20L40 20L40 10L50 10L50 0L0 0z"/>
<path style="fill:#ffffff; stroke:none;" d="M50 0L50 10L40 10L40 20L70 20L70 0L50 0M20 10L20 20L30 20L30 10L20 10M10 30L10 40L20 40L20 30L10 30M30 30L30 80L80 80L80 30L30 30M90 30L90 40L100 40L100 30L90 30z"/>
<path style="fill:#000000; stroke:none;" d="M40 40L40 50L50 50L50 70L60 70L60 60L70 60L70 40L60 40L60 50L50 50L50 40L40 40z"/>
<path style="fill:#ffffff; stroke:none;" d="M100 40L100 60L110 60L110 40L100 40M90 60L90 70L100 70L100 60L90 60M10 70L10 80L20 80L20 70L10 70M40 90L40 100L50 100L50 110L60 110L60 100L80 100L80 90L40 90z"/>
</svg>
