<?xml version="1.0" standalone="yes"?>
<svg xmlns="http://www.w3.org/2000/svg" width="110" height="110">
<path style="fill:#000000; stroke:none;" d="M0 0L0 60L10 60L10 70L0 70L0 110L110 110L110 60L90 60L90 40L110 40L110 0L70 0L70 10L60 10L60 0L50 0L50 20L40 20L40 0L0 0z"/>
<path style="fill:#ffffff; stroke:none;" d="M40 0L40 20L50 20L50 0L40 0M60 0L60 10L70 10L70 0L60 0M20 10L20 20L10 20L10 50L20 50L20 20L30 20L30 10L20 10M80 10L80 20L90 20L90 30L100 30L100 20L90 20L90 10L80 10M30 30L30 80L80 80L80 30L30 30z"/>
<path style="fill:#000000; stroke:none;" d="M40 40L40 50L50 50L50 40L40 40M60 40L60 60L70 60L70 40L60 40z"/>
<path style="fill:#ffffff; stroke:none;" d="M90 40L90 60L110 60L110 40L90 40M0 60L0 70L10 70L10 60L0 60z"/>
<path style="fill:#000000; stroke:none;" d="M40 60L40 70L50 70L50 60L40 60z"/>
<path style="fill:#ffffff; stroke:none;" d="M10 70L10 90L20 90L20 100L30 100L30 90L20 90L20 70L10 70M90 70L90 90L80 90L80 100L90 100L90 90L100 90L100 70L90 70z"/>
</svg>
