<?xml version="1.0" standalone="yes"?>
<svg xmlns="http://www.w3.org/2000/svg" width="110" height="110">
<path style="fill:#000000; stroke:none;" d="M0 0L0 50L10 50L10 60L0 60L0 110L50 110L50 100L40 100L40 90L60 90L60 110L110 110L110 60L90 60L90 30L100 30L100 50L110 50L110 0L60 0L60 10L50 10L50 20L40 20L40 0L0 0z"/>
<path style="fill:#ffffff; stroke:none;" d="M40 0L40 20L50 20L50 10L60 10L60 0L40 0M70 10L70 20L80 20L80 10L70 10M30 30L30 80L80 80L80 30L30 30M90 30L90 60L110 60L110 50L100 50L100 30L90 30M10 40L10 50L20 50L20 40L10 40z"/>
<path style="fill:#000000; stroke:none;" d="M40 40L40 60L50 60L50 50L60 50L60 60L70 60L70 40L40 40z"/>
<path style="fill:#ffffff; stroke:none;" d="M0 50L0 60L10 60L10 50L0 50M10 60L10 70L20 70L20 60L10 60M90 70L90 80L100 80L100 70L90 70M10 80L10 90L20 90L20 80L10 80M40 90L40 100L50 100L50 110L60 110L60 90L40 90M70 90L70 100L80 100L80 90L70 90z"/>
</svg>
