<?xml version="1.0" standalone="yes"?>
<svg xmlns="http://www.w3.org/2000/svg" width="110" height="110">
<path style="fill:#000000; stroke:none;" d="M0 0L0 40L10 40L10 50L0 50L0 60L10 60L10 70L0 70L0 110L50 110L50 100L20 100L20 90L60 90L60 100L70 100L70 110L110 110L110 50L100 50L100 40L110 40L110 0L60 0L60 10L90 10L90 20L40 20L40 10L50 10L50 0L0 0z"/>
<path style="fill:#ffffff; stroke:none;" d="M50 0L50 10L40 10L40 20L90 20L90 10L60 10L60 0L50 0M30 30L30 80L80 80L80 30L30 30M0 40L0 50L10 50L10 40L0 40M100 40L100 50L110 50L110 40L100 40M10 50L10 60L20 60L20 50L10 50z"/>
<path style="fill:#000000; stroke:none;" d="M40 50L40 60L50 60L50 70L60 70L60 60L70 60L70 50L60 50L60 60L50 60L50 50L40 50z"/>
<path style="fill:#ffffff; stroke:none;" d="M0 60L0 70L10 70L10 60L0 60M10 70L10 80L20 80L20 70L10 70M20 90L20 100L50 100L50 110L70 110L70 100L60 100L60 90L20 90z"/>
</svg>
