<?xml version="1.0" standalone="yes"?>
<svg xmlns="http://www.w3.org/2000/svg" width="110" height="110">
<path style="fill:#000000; stroke:none;" d="M0 0L0 50L20 50L20 80L10 80L10 70L0 70L0 110L50 110L50 100L70 100L70 110L110 110L110 70L100 70L100 80L90 80L90 60L110 60L110 50L90 50L90 40L110 40L110 0L60 0L60 10L50 10L50 0L0 0z"/>
<path style="fill:#ffffff; stroke:none;" d="M50 0L50 10L60 10L60 0L50 0M60 10L60 20L80 20L80 10L60 10M10 30L10 40L20 40L20 30L10 30M30 30L30 80L80 80L80 30L30 30z"/>
<path style="fill:#000000; stroke:none;" d="M60 40L60 60L40 60L40 70L70 70L70 40L60 40z"/>
<path style="fill:#ffffff; stroke:none;" d="M90 40L90 50L110 50L110 40L90 40M0 50L0 70L10 70L10 80L20 80L20 50L0 50M90 60L90 80L100 80L100 70L110 70L110 60L90 60M30 90L30 100L50 100L50 90L30 90M50 100L50 110L70 110L70 100L50 100z"/>
</svg>
