<?xml version="1.0" standalone="yes"?>
<svg xmlns="http://www.w3.org/2000/svg" width="110" height="110">
<path style="fill:#000000; stroke:none;" d="M0 0L0 50L10 50L10 60L20 60L20 90L10 90L10 70L0 70L0 110L110 110L110 70L100 70L100 60L110 60L110 0L70 0L70 20L60 20L60 10L40 10L40 0L0 0z"/>
<path style="fill:#ffffff; stroke:none;" d="M40 0L40 10L60 10L60 20L70 20L70 0L40 0M20 10L20 20L10 20L10 50L20 50L20 20L30 20L30 10L20 10M80 10L80 20L90 20L90 10L80 10M30 30L30 80L80 80L80 30L30 30z"/>
<path style="fill:#000000; stroke:none;" d="M40 40L40 50L50 50L50 60L40 60L40 70L70 70L70 40L60 40L60 50L50 50L50 40L40 40z"/>
<path style="fill:#ffffff; stroke:none;" d="M90 40L90 60L100 60L100 40L90 40M0 50L0 70L10 70L10 90L20 90L20 60L10 60L10 50L0 50M100 60L100 70L110 70L110 60L100 60M20 90L20 100L30 100L30 90L20 90M60 90L60 100L70 100L70 90L60 90z"/>
</svg>
