<?xml version="1.0" standalone="yes"?>
<svg xmlns="http://www.w3.org/2000/svg" width="110" height="110">
<path style="fill:#000000; stroke:none;" d="M0 0L0 50L20 50L20 70L10 70L10 60L0 60L0 110L50 110L50 90L70 90L70 100L60 100L60 110L110 110L110 60L100 60L100 40L110 40L110 0L70 0L70 20L40 20L40 10L60 10L60 0L0 0z"/>
<path style="fill:#ffffff; stroke:none;" d="M60 0L60 10L40 10L40 20L70 20L70 0L60 0M20 10L20 20L30 20L30 10L20 10M80 10L80 20L90 20L90 10L80 10M10 30L10 40L20 40L20 30L10 30M30 30L30 80L80 80L80 30L30 30M100 40L100 60L110 60L110 40L100 40M0 50L0 60L10 60L10 70L20 70L20 50L0 50z"/>
<path style="fill:#000000; stroke:none;" d="M40 50L40 60L50 60L50 70L70 70L70 50L40 50z"/>
<path style="fill:#ffffff; stroke:none;" d="M90 80L90 90L100 90L100 80L90 80M20 90L20 100L30 100L30 90L20 90M50 90L50 110L60 110L60 100L70 100L70 90L50 90z"/>
</svg>
