<?xml version="1.0" standalone="yes"?>
<svg xmlns="http://www.w3.org/2000/svg" width="110" height="110">
<path style="fill:#000000; stroke:none;" d="M0 0L0 40L10 40L10 60L20 60L20 70L0 70L0 110L50 110L50 100L40 100L40 90L70 90L70 110L110 110L110 70L100 70L100 90L90 90L90 50L100 50L100 60L110 60L110 50L100 50L100 40L110 40L110 0L70 0L70 10L60 10L60 0L0 0z"/>
<path style="fill:#ffffff; stroke:none;" d="M60 0L60 10L70 10L70 0L60 0M20 10L20 20L40 20L40 10L20 10M70 10L70 20L90 20L90 10L70 10M10 30L10 40L20 40L20 30L10 30M30 30L30 80L80 80L80 30L30 30M0 40L0 70L20 70L20 60L10 60L10 40L0 40M100 40L100 50L110 50L110 40L100 40z"/>
<path style="fill:#000000; stroke:none;" d="M50 50L50 60L40 60L40 70L50 70L50 60L60 60L60 50L50 50z"/>
<path style="fill:#ffffff; stroke:none;" d="M90 50L90 90L100 90L100 70L110 70L110 60L100 60L100 50L90 50M10 80L10 90L20 90L20 80L10 80M40 90L40 100L50 100L50 110L70 110L70 90L40 90z"/>
</svg>
