<?xml version="1.0" standalone="yes"?>
<svg xmlns="http://www.w3.org/2000/svg" width="110" height="110">
<path style="fill:#000000; stroke:none;" d="M0 0L0 50L10 50L10 20L20 20L20 70L10 70L10 60L0 60L0 110L110 110L110 70L100 70L100 80L90 80L90 30L100 30L100 40L110 40L110 0L70 0L70 20L30 20L30 10L50 10L50 0L0 0z"/>
<path style="fill:#ffffff; stroke:none;" d="M50 0L50 10L30 10L30 20L70 20L70 0L50 0M10 20L10 50L0 50L0 60L10 60L10 70L20 70L20 20L10 20M30 30L30 80L80 80L80 30L30 30M90 30L90 80L100 80L100 70L110 70L110 40L100 40L100 30L90 30z"/>
<path style="fill:#000000; stroke:none;" d="M50 40L50 50L40 50L40 60L50 60L50 50L60 50L60 70L70 70L70 40L50 40z"/>
<path style="fill:#ffffff; stroke:none;" d="M50 90L50 100L60 100L60 90L50 90z"/>
</svg>
