<?xml version="1.0" standalone="yes"?>
<svg xmlns="http://www.w3.org/2000/svg" width="110" height="110">
<path style="fill:#000000; stroke:none;" d="M0 0L0 50L10 50L10 60L20 60L20 70L0 70L0 110L50 110L50 100L60 100L60 90L80 90L80 100L70 100L70 110L110 110L110 70L100 70L100 60L110 60L110 0L70 0L70 20L30 20L30 10L60 10L60 0L0 0z"/>
<path style="fill:#ffffff; stroke:none;" d="M60 0L60 10L30 10L30 20L70 20L70 0L60 0M10 20L10 30L20 30L20 20L10 20M90 20L90 60L100 60L100 20L90 20M30 30L30 80L80 80L80 30L30 30M10 40L10 50L20 50L20 40L10 40z"/>
<path style="fill:#000000; stroke:none;" d="M40 40L40 50L50 50L50 60L60 60L60 70L70 70L70 60L60 60L60 40L40 40z"/>
<path style="fill:#ffffff; stroke:none;" d="M0 50L0 70L20 70L20 60L10 60L10 50L0 50M100 60L100 70L110 70L110 60L100 60M30 90L30 100L40 100L40 90L30 90M60 90L60 100L50 100L50 110L70 110L70 100L80 100L80 90L60 90z"/>
</svg>
