<?xml version="1.0" standalone="yes"?>
<svg xmlns="http://www.w3.org/2000/svg" width="110" height="110">
<path style="fill:#000000; stroke:none;" d="M0 0L0 40L10 40L10 50L0 50L0 110L40 110L40 100L30 100L30 90L50 90L50 100L60 100L60 110L110 110L110 70L100 70L100 90L90 90L90 60L100 60L100 40L110 40L110 0L70 0L70 10L50 10L50 0L0 0z"/>
<path style="fill:#ffffff; stroke:none;" d="M50 0L50 10L70 10L70 0L50 0M20 10L20 20L10 20L10 40L20 40L20 20L30 20L30 10L20 10M70 10L70 20L90 20L90 10L70 10M30 30L30 80L80 80L80 30L30 30M0 40L0 50L10 50L10 40L0 40M100 40L100 60L90 60L90 90L100 90L100 70L110 70L110 40L100 40z"/>
<path style="fill:#000000; stroke:none;" d="M50 50L50 60L60 60L60 70L70 70L70 60L60 60L60 50L50 50z"/>
<path style="fill:#ffffff; stroke:none;" d="M10 80L10 90L20 90L20 80L10 80M30 90L30 100L40 100L40 110L60 110L60 100L50 100L50 90L30 90M60 90L60 100L90 100L90 90L60 90z"/>
</svg>
