<?xml version="1.0" standalone="yes"?>
<svg xmlns="http://www.w3.org/2000/svg" width="110" height="110">
<path style="fill:#000000; stroke:none;" d="M0 0L0 40L10 40L10 50L0 50L0 110L60 110L60 90L90 90L90 100L70 100L70 110L110 110L110 60L100 60L100 80L90 80L90 40L100 40L100 50L110 50L110 0L70 0L70 10L80 10L80 20L50 20L50 10L60 10L60 0L50 0L50 10L40 10L40 0L0 0z"/>
<path style="fill:#ffffff; stroke:none;" d="M40 0L40 10L50 10L50 0L40 0M60 0L60 10L50 10L50 20L80 20L80 10L70 10L70 0L60 0M20 10L20 20L40 20L40 10L20 10M90 20L90 30L100 30L100 20L90 20M30 30L30 80L80 80L80 30L30 30M0 40L0 50L10 50L10 40L0 40z"/>
<path style="fill:#000000; stroke:none;" d="M40 40L40 60L70 60L70 40L40 40z"/>
<path style="fill:#ffffff; stroke:none;" d="M90 40L90 80L100 80L100 60L110 60L110 50L100 50L100 40L90 40M20 90L20 100L40 100L40 90L20 90M60 90L60 110L70 110L70 100L90 100L90 90L60 90z"/>
</svg>
