<?xml version="1.0" standalone="yes"?>
<svg xmlns="http://www.w3.org/2000/svg" width="110" height="110">
<path style="fill:#000000; stroke:none;" d="M0 0L0 40L20 40L20 70L0 70L0 110L40 110L40 100L20 100L20 90L90 90L90 100L60 100L60 110L110 110L110 70L100 70L100 60L110 60L110 50L100 50L100 60L90 60L90 40L110 40L110 0L70 0L70 10L60 10L60 20L50 20L50 0L0 0z"/>
<path style="fill:#ffffff; stroke:none;" d="M50 0L50 20L60 20L60 10L70 10L70 0L50 0M20 10L20 20L40 20L40 10L20 10M70 10L70 20L90 20L90 10L70 10M30 30L30 80L80 80L80 30L30 30M0 40L0 70L20 70L20 40L0 40z"/>
<path style="fill:#000000; stroke:none;" d="M50 40L50 50L40 50L40 70L50 70L50 50L60 50L60 40L50 40z"/>
<path style="fill:#ffffff; stroke:none;" d="M90 40L90 60L100 60L100 50L110 50L110 40L90 40M100 60L100 70L110 70L110 60L100 60M20 90L20 100L40 100L40 110L60 110L60 100L90 100L90 90L20 90z"/>
</svg>
