<?xml version="1.0" standalone="yes"?>
<svg xmlns="http://www.w3.org/2000/svg" width="110" height="110">
<path style="fill:#000000; stroke:none;" d="M0 0L0 40L20 40L20 50L10 50L10 60L20 60L20 80L10 80L10 70L0 70L0 110L40 110L40 100L60 100L60 90L70 90L70 110L110 110L110 60L100 60L100 70L90 70L90 40L100 40L100 50L110 50L110 0L70 0L70 10L50 10L50 0L0 0z"/>
<path style="fill:#ffffff; stroke:none;" d="M50 0L50 10L70 10L70 0L50 0M30 10L30 20L40 20L40 10L30 10M90 20L90 30L100 30L100 20L90 20M30 30L30 80L80 80L80 30L30 30M0 40L0 70L10 70L10 80L20 80L20 60L10 60L10 50L20 50L20 40L0 40z"/>
<path style="fill:#000000; stroke:none;" d="M40 40L40 50L50 50L50 60L40 60L40 70L60 70L60 60L70 60L70 50L60 50L60 40L40 40z"/>
<path style="fill:#ffffff; stroke:none;" d="M90 40L90 70L100 70L100 60L110 60L110 50L100 50L100 40L90 40M90 80L90 90L100 90L100 80L90 80M20 90L20 100L40 100L40 90L20 90M60 90L60 100L40 100L40 110L70 110L70 90L60 90z"/>
</svg>
