<?xml version="1.0" standalone="yes"?>
<svg xmlns="http://www.w3.org/2000/svg" width="110" height="110">
<path style="fill:#000000; stroke:none;" d="M0 0L0 40L20 40L20 50L10 50L10 60L0 60L0 110L50 110L50 100L40 100L40 90L70 90L70 100L60 100L60 110L110 110L110 0L70 0L70 10L50 10L50 20L20 20L20 10L40 10L40 0L0 0z"/>
<path style="fill:#ffffff; stroke:none;" d="M40 0L40 10L20 10L20 20L50 20L50 10L70 10L70 0L40 0M70 10L70 20L90 20L90 90L100 90L100 20L90 20L90 10L70 10M30 30L30 80L80 80L80 30L30 30M0 40L0 60L10 60L10 50L20 50L20 40L0 40z"/>
<path style="fill:#000000; stroke:none;" d="M40 50L40 70L60 70L60 50L40 50z"/>
<path style="fill:#ffffff; stroke:none;" d="M10 80L10 90L20 90L20 80L10 80M40 90L40 100L50 100L50 110L60 110L60 100L70 100L70 90L40 90z"/>
</svg>
