<?xml version="1.0" standalone="yes"?>
<svg xmlns="http://www.w3.org/2000/svg" width="110" height="110">
<path style="fill:#000000; stroke:none;" d="M0 0L0 110L40 110L40 100L20 100L20 90L70 90L70 110L110 110L110 50L100 50L100 40L110 40L110 0L70 0L70 20L60 20L60 0L0 0z"/>
<path style="fill:#ffffff; stroke:none;" d="M60 0L60 20L70 20L70 0L60 0M30 10L30 20L40 20L40 10L30 10M80 10L80 20L90 20L90 10L80 10M10 30L10 40L20 40L20 30L10 30M30 30L30 80L80 80L80 30L30 30z"/>
<path style="fill:#000000; stroke:none;" d="M40 40L40 60L50 60L50 70L70 70L70 60L60 60L60 50L70 50L70 40L40 40z"/>
<path style="fill:#ffffff; stroke:none;" d="M100 40L100 50L110 50L110 40L100 40M10 50L10 70L20 70L20 50L10 50M90 80L90 90L100 90L100 80L90 80M20 90L20 100L40 100L40 110L70 110L70 90L20 90z"/>
</svg>
