<?xml version="1.0" standalone="yes"?>
<svg xmlns="http://www.w3.org/2000/svg" width="110" height="110">
<path style="fill:#000000; stroke:none;" d="M0 0L0 40L10 40L10 50L20 50L20 90L10 90L10 60L0 60L0 110L40 110L40 100L30 100L30 90L70 90L70 110L110 110L110 70L90 70L90 60L100 60L100 50L110 50L110 0L60 0L60 20L50 20L50 10L40 10L40 0L0 0z"/>
<path style="fill:#ffffff; stroke:none;" d="M40 0L40 10L50 10L50 20L60 20L60 0L40 0M70 10L70 20L90 20L90 10L70 10M30 30L30 80L80 80L80 30L30 30M0 40L0 60L10 60L10 90L20 90L20 50L10 50L10 40L0 40z"/>
<path style="fill:#000000; stroke:none;" d="M50 40L50 50L40 50L40 70L50 70L50 50L60 50L60 70L70 70L70 50L60 50L60 40L50 40z"/>
<path style="fill:#ffffff; stroke:none;" d="M100 50L100 60L90 60L90 70L110 70L110 50L100 50M30 90L30 100L40 100L40 110L70 110L70 90L30 90z"/>
</svg>
