<?xml version="1.0" standalone="yes"?>
<svg xmlns="http://www.w3.org/2000/svg" width="110" height="110">
<path style="fill:#000000; stroke:none;" d="M0 0L0 40L10 40L10 30L20 30L20 90L10 90L10 50L0 50L0 110L50 110L50 100L20 100L20 90L90 90L90 100L70 100L70 110L110 110L110 60L100 60L100 50L90 50L90 20L100 20L100 40L110 40L110 0L70 0L70 10L80 10L80 20L50 20L50 10L60 10L60 0L0 0z"/>
<path style="fill:#ffffff; stroke:none;" d="M60 0L60 10L50 10L50 20L80 20L80 10L70 10L70 0L60 0M20 10L20 20L40 20L40 10L20 10M90 20L90 50L100 50L100 60L110 60L110 40L100 40L100 20L90 20M10 30L10 40L0 40L0 50L10 50L10 90L20 90L20 30L10 30M30 30L30 80L80 80L80 30L30 30z"/>
<path style="fill:#000000; stroke:none;" d="M50 40L50 50L60 50L60 60L50 60L50 70L70 70L70 40L50 40z"/>
<path style="fill:#ffffff; stroke:none;" d="M90 60L90 70L100 70L100 60L90 60M90 80L90 90L100 90L100 80L90 80M20 90L20 100L50 100L50 110L70 110L70 100L90 100L90 90L20 90z"/>
</svg>
