<?xml version="1.0" standalone="yes"?>
<svg xmlns="http://www.w3.org/2000/svg" width="110" height="110">
<path style="fill:#000000; stroke:none;" d="M0 0L0 50L10 50L10 60L20 60L20 70L0 70L0 110L50 110L50 90L90 90L90 100L60 100L60 110L110 110L110 70L100 70L100 60L90 60L90 50L110 50L110 0L60 0L60 10L80 10L80 20L20 20L20 10L40 10L40 0L0 0z"/>
<path style="fill:#ffffff; stroke:none;" d="M40 0L40 10L20 10L20 20L80 20L80 10L60 10L60 0L40 0M30 30L30 80L80 80L80 30L30 30z"/>
<path style="fill:#000000; stroke:none;" d="M50 40L50 50L40 50L40 60L50 60L50 50L60 50L60 70L70 70L70 50L60 50L60 40L50 40z"/>
<path style="fill:#ffffff; stroke:none;" d="M0 50L0 70L20 70L20 60L10 60L10 50L0 50M90 50L90 60L100 60L100 70L110 70L110 50L90 50M90 70L90 90L100 90L100 70L90 70M30 90L30 100L40 100L40 90L30 90M50 90L50 110L60 110L60 100L90 100L90 90L50 90z"/>
</svg>
