<?xml version="1.0" standalone="yes"?>
<svg xmlns="http://www.w3.org/2000/svg" width="110" height="110">
<path style="fill:#000000; stroke:none;" d="M0 0L0 40L10 40L10 50L0 50L0 110L60 110L60 100L40 100L40 90L70 90L70 110L110 110L110 60L100 60L100 50L110 50L110 0L60 0L60 20L20 20L20 10L50 10L50 0L0 0z"/>
<path style="fill:#ffffff; stroke:none;" d="M50 0L50 10L20 10L20 20L60 20L60 0L50 0M80 10L80 20L90 20L90 50L100 50L100 20L90 20L90 10L80 10M10 30L10 40L20 40L20 30L10 30M30 30L30 80L80 80L80 30L30 30M0 40L0 50L10 50L10 40L0 40z"/>
<path style="fill:#000000; stroke:none;" d="M40 40L40 50L50 50L50 60L40 60L40 70L60 70L60 60L70 60L70 40L40 40z"/>
<path style="fill:#ffffff; stroke:none;" d="M100 50L100 60L110 60L110 50L100 50M90 60L90 70L100 70L100 60L90 60M20 90L20 100L30 100L30 90L20 90M40 90L40 100L60 100L60 110L70 110L70 90L40 90M80 90L80 100L90 100L90 90L80 90z"/>
</svg>
