<?xml version="1.0" standalone="yes"?>
<svg xmlns="http://www.w3.org/2000/svg" width="110" height="110">
<path style="fill:#000000; stroke:none;" d="M0 0L0 50L10 50L10 60L0 60L0 110L40 110L40 90L50 90L50 110L60 110L60 90L70 90L70 110L110 110L110 0L70 0L70 10L90 10L90 20L60 20L60 10L50 10L50 0L0 0z"/>
<path style="fill:#ffffff; stroke:none;" d="M50 0L50 10L60 10L60 20L90 20L90 10L70 10L70 0L50 0M20 10L20 20L40 20L40 10L20 10M10 30L10 50L20 50L20 30L10 30M30 30L30 80L80 80L80 30L30 30z"/>
<path style="fill:#000000; stroke:none;" d="M40 40L40 50L50 50L50 40L40 40M60 40L60 60L70 60L70 40L60 40z"/>
<path style="fill:#ffffff; stroke:none;" d="M90 40L90 50L100 50L100 40L90 40M0 50L0 60L10 60L10 50L0 50M90 60L90 80L100 80L100 60L90 60M10 70L10 80L20 80L20 70L10 70M40 90L40 110L50 110L50 90L40 90M60 90L60 110L70 110L70 90L60 90z"/>
</svg>
