<?xml version="1.0" standalone="yes"?>
<svg xmlns="http://www.w3.org/2000/svg" width="110" height="110">
<path style="fill:#000000; stroke:none;" d="M0 0L0 40L20 40L20 90L10 90L10 70L0 70L0 110L40 110L40 100L20 100L20 90L70 90L70 100L50 100L50 110L110 110L110 0L0 0z"/>
<path style="fill:#ffffff; stroke:none;" d="M50 10L50 20L60 20L60 10L50 10M90 20L90 30L100 30L100 20L90 20M30 30L30 80L80 80L80 30L30 30M0 40L0 50L10 50L10 60L0 60L0 70L10 70L10 90L20 90L20 40L0 40z"/>
<path style="fill:#000000; stroke:none;" d="M50 40L50 50L60 50L60 70L70 70L70 50L60 50L60 40L50 40z"/>
<path style="fill:#ffffff; stroke:none;" d="M90 40L90 50L100 50L100 40L90 40z"/>
<path style="fill:#000000; stroke:none;" d="M0 50L0 60L10 60L10 50L0 50M40 60L40 70L50 70L50 60L40 60z"/>
<path style="fill:#ffffff; stroke:none;" d="M20 90L20 100L40 100L40 110L50 110L50 100L70 100L70 90L20 90z"/>
</svg>
