<?xml version="1.0" standalone="yes"?>
<svg xmlns="http://www.w3.org/2000/svg" width="110" height="110">
<path style="fill:#000000; stroke:none;" d="M0 0L0 110L50 110L50 100L60 100L60 110L110 110L110 60L100 60L100 90L90 90L90 30L100 30L100 50L110 50L110 0L0 0z"/>
<path style="fill:#ffffff; stroke:none;" d="M80 10L80 20L90 20L90 10L80 10M10 20L10 50L20 50L20 20L10 20M30 30L30 80L80 80L80 30L30 30M90 30L90 90L100 90L100 60L110 60L110 50L100 50L100 30L90 30z"/>
<path style="fill:#000000; stroke:none;" d="M40 40L40 50L60 50L60 60L50 60L50 70L60 70L60 60L70 60L70 50L60 50L60 40L40 40z"/>
<path style="fill:#ffffff; stroke:none;" d="M10 60L10 80L20 80L20 60L10 60M40 90L40 100L50 100L50 90L40 90M60 90L60 100L90 100L90 90L60 90M50 100L50 110L60 110L60 100L50 100z"/>
</svg>
