<?xml version="1.0" standalone="yes"?>
<svg xmlns="http://www.w3.org/2000/svg" width="110" height="110">
<path style="fill:#000000; stroke:none;" d="M0 0L0 40L10 40L10 60L0 60L0 110L40 110L40 100L30 100L30 90L50 90L50 100L60 100L60 90L70 90L70 110L110 110L110 70L100 70L100 60L90 60L90 50L110 50L110 0L60 0L60 10L50 10L50 0L0 0z"/>
<path style="fill:#ffffff; stroke:none;" d="M50 0L50 10L60 10L60 0L50 0M60 10L60 20L90 20L90 10L60 10M10 20L10 30L20 30L20 20L10 20M30 30L30 80L80 80L80 30L30 30M90 30L90 40L100 40L100 30L90 30M0 40L0 60L10 60L10 40L0 40z"/>
<path style="fill:#000000; stroke:none;" d="M50 50L50 60L70 60L70 50L50 50z"/>
<path style="fill:#ffffff; stroke:none;" d="M90 50L90 60L100 60L100 70L110 70L110 50L90 50M10 60L10 80L20 80L20 60L10 60M90 80L90 90L100 90L100 80L90 80M30 90L30 100L40 100L40 110L70 110L70 90L60 90L60 100L50 100L50 90L30 90z"/>
</svg>
