<?xml version="1.0" standalone="yes"?>
<svg xmlns="http://www.w3.org/2000/svg" width="110" height="110">
<path style="fill:#000000; stroke:none;" d="M0 0L0 50L10 50L10 60L20 60L20 80L10 80L10 70L0 70L0 110L50 110L50 100L70 100L70 110L110 110L110 60L100 60L100 50L110 50L110 0L50 0L50 10L40 10L40 0L0 0z"/>
<path style="fill:#ffffff; stroke:none;" d="M40 0L40 10L50 10L50 0L40 0M50 10L50 20L60 20L60 10L50 10M80 10L80 20L90 20L90 10L80 10M30 30L30 80L80 80L80 30L30 30M10 40L10 50L20 50L20 40L10 40z"/>
<path style="fill:#000000; stroke:none;" d="M40 40L40 50L50 50L50 60L40 60L40 70L70 70L70 60L60 60L60 50L70 50L70 40L40 40z"/>
<path style="fill:#ffffff; stroke:none;" d="M90 40L90 50L100 50L100 40L90 40M0 50L0 70L10 70L10 80L20 80L20 60L10 60L10 50L0 50M100 50L100 60L110 60L110 50L100 50M90 70L90 90L80 90L80 100L90 100L90 90L100 90L100 70L90 70M30 90L30 100L50 100L50 90L30 90M50 100L50 110L70 110L70 100L50 100z"/>
</svg>
